<?xml version="1.0" encoding="UTF-8"?>
<svg version="1.1" xmlns="http://www.w3.org/2000/svg" width="512" height="512">
<path d="M0 0 C1.10279297 -0.00773437 2.20558594 -0.01546875 3.34179688 -0.0234375 C12.27240577 -0.00236232 21.15790838 0.63297704 29.4375 4.25 C30.20835937 4.58 30.97921875 4.91 31.7734375 5.25 C32.52882813 5.58 33.28421875 5.91 34.0625 6.25 C35.72723012 6.92148778 37.393404 7.58943904 39.0625 8.25 C39.0625 8.91 39.0625 9.57 39.0625 10.25 C39.866875 10.476875 40.67125 10.70375 41.5 10.9375 C45.17734502 12.29231132 48.34740651 14.00129625 51.73828125 15.94140625 C55.11721364 17.84383037 58.58211092 19.54144536 62.0625 21.25 C62.0625 21.91 62.0625 22.57 62.0625 23.25 C62.88105469 23.48074219 63.69960937 23.71148437 64.54296875 23.94921875 C68.8235868 25.53128957 72.48585295 27.70015207 76.375 30.0625 C77.89409381 30.97078409 79.41362046 31.8783447 80.93359375 32.78515625 C81.65272949 33.21586426 82.37186523 33.64657227 83.11279297 34.09033203 C86.71441448 36.23254367 90.38030228 38.250708 94.0625 40.25 C95.04605469 40.78753906 96.02960938 41.32507813 97.04296875 41.87890625 C99.71480139 43.33842446 102.38804413 44.79529596 105.0625 46.25 C105.0625 46.91 105.0625 47.57 105.0625 48.25 C105.949375 48.53875 106.83625 48.8275 107.75 49.125 C110.56632424 50.08148748 113.31333156 51.11798946 116.0625 52.25 C116.0625 52.91 116.0625 53.57 116.0625 54.25 C116.76375 54.518125 117.465 54.78625 118.1875 55.0625 C125.07984777 57.9093393 131.53639393 61.66180289 138.0625 65.25 C138.0625 65.91 138.0625 66.57 138.0625 67.25 C138.949375 67.53875 139.83625 67.8275 140.75 68.125 C148.63479648 70.80285541 148.63479648 70.80285541 150.4375 72.6875 C152.93620029 75.09009644 155.85302066 75.97831951 159.0625 77.25 C159.0625 77.91 159.0625 78.57 159.0625 79.25 C159.90941406 79.50007813 160.75632812 79.75015625 161.62890625 80.0078125 C165.3397393 81.35029818 168.61925192 83.12407319 172 85.125 C172.58201172 85.46402344 173.16402344 85.80304688 173.76367188 86.15234375 C174.93761085 86.83616645 176.1105495 87.5217094 177.2824707 88.20898438 C182.13553271 91.0472036 187.00641744 93.78361826 192.0625 96.25 C192.0625 96.91 192.0625 97.57 192.0625 98.25 C192.91714844 98.50394531 193.77179688 98.75789063 194.65234375 99.01953125 C198.27116713 100.32529227 201.31296557 101.98405211 204.625 103.9375 C205.84683654 104.65114488 207.06951525 105.36334952 208.29296875 106.07421875 C208.91220215 106.43435059 209.53143555 106.79448242 210.16943359 107.16552734 C215.07077112 109.97333509 220.07528263 112.59898744 225.0625 115.25 C225.0625 115.91 225.0625 116.57 225.0625 117.25 C225.97 117.53875 226.8775 117.8275 227.8125 118.125 C230.38452908 119.01531776 232.67596766 119.96494413 235.0625 121.25 C235.0625 121.91 235.0625 122.57 235.0625 123.25 C235.84625 123.45625 236.63 123.6625 237.4375 123.875 C241.50495146 125.41782642 244.89431595 127.50334754 248.58203125 129.78515625 C251.65678375 131.60095497 254.74143303 132.95045205 258.0625 134.25 C258.0625 134.91 258.0625 135.57 258.0625 136.25 C258.97 136.53875 259.8775 136.8275 260.8125 137.125 C263.38452908 138.01531776 265.67596766 138.96494413 268.0625 140.25 C268.0625 140.91 268.0625 141.57 268.0625 142.25 C269.114375 142.4046875 269.114375 142.4046875 270.1875 142.5625 C273.45387647 143.34359003 276.1096852 144.67058743 279.0625 146.25 C279.0625 146.91 279.0625 147.57 279.0625 148.25 C279.77921875 148.49878906 280.4959375 148.74757812 281.234375 149.00390625 C290.56800568 153.11637612 298.5008648 161.87698876 304.0625 170.25 C305.30859375 173.58203125 305.30859375 173.58203125 306.0625 176.25 C306.7225 176.25 307.3825 176.25 308.0625 176.25 C308.7333712 177.8732687 309.39907029 179.49867578 310.0625 181.125 C310.43375 182.02992188 310.805 182.93484375 311.1875 183.8671875 C312.0625 186.25 312.0625 186.25 312.0625 188.25 C312.7225 188.25 313.3825 188.25 314.0625 188.25 C318.62424203 208.1261617 319.64382045 226.31671267 314.0625 246.25 C313.4025 246.25 312.7425 246.25 312.0625 246.25 C311.959375 246.930625 311.85625 247.61125 311.75 248.3125 C310.91524981 251.87915989 309.56777246 254.91222194 308.0625 258.25 C309.135 258.311875 310.2075 258.37375 311.3125 258.4375 C324.89736117 260.16560955 338.56641104 268.72522194 347.0625 279.25 C353.06579255 288.03417258 357.3098025 296.60040475 357.31646729 307.43606567 C357.31958727 308.12455562 357.32270725 308.81304556 357.32592177 309.52239883 C357.33384758 311.81075743 357.32759959 314.09884684 357.32128906 316.38720703 C357.32400129 318.03527989 357.32756352 319.68335154 357.33190918 321.3314209 C357.34100648 325.79404008 357.33750028 330.25656651 357.33115101 334.71918726 C357.32607895 339.39335024 357.33078566 344.0675054 357.33392334 348.7416687 C357.33755874 356.58804751 357.33277429 364.43438863 357.32324219 372.28076172 C357.31235087 381.35068945 357.31588984 390.42052732 357.326895 399.49045289 C357.33597094 407.28254755 357.33725187 415.07461516 357.33201766 422.8667134 C357.32890063 427.5186211 357.32848146 432.17048654 357.33509064 436.82239151 C357.34086819 441.19399475 357.33685969 445.56548204 357.32530212 449.93707275 C357.32265806 451.5410836 357.32341631 453.14510421 357.32782745 454.74911118 C357.3332942 456.93883966 357.32643539 459.12819677 357.31646729 461.31790161 C357.31533621 463.15568522 357.31533621 463.15568522 357.31418228 465.03059578 C357.0625 468.25 357.0625 468.25 355.0625 473.25 C271.5725 473.25 188.0825 473.25 102.0625 473.25 C98.66593088 465.32467205 98.66593088 465.32467205 97.9375 461.4375 C97.79054687 460.68855469 97.64359375 459.93960937 97.4921875 459.16796875 C96.25334332 450.75509057 95.87685039 442.39379777 95.74609375 433.8984375 C95.72531265 432.75839264 95.70453156 431.61834778 95.68312073 430.4437561 C95.6182564 426.83755948 95.55903666 423.23129626 95.5 419.625 C95.45675461 417.16535797 95.4131385 414.70572243 95.36914062 412.24609375 C95.26264065 406.24746418 95.16076258 400.24876986 95.0625 394.25 C94.44725464 394.59208496 93.83200928 394.93416992 93.19812012 395.28662109 C92.38959595 395.73602051 91.58107178 396.18541992 90.74804688 396.6484375 C89.94717651 397.09364746 89.14630615 397.53885742 88.32116699 397.99755859 C84.82054028 399.93867247 81.30293177 401.84802157 77.78515625 403.7578125 C74.44694701 405.5873619 71.13978566 407.46957172 67.83984375 409.3671875 C66.0625 410.25 66.0625 410.25 64.0625 410.25 C64.0625 410.91 64.0625 411.57 64.0625 412.25 C62.77336513 412.92154933 61.48109796 413.58708859 60.1875 414.25 C59.46820313 414.62125 58.74890625 414.9925 58.0078125 415.375 C56.0625 416.25 56.0625 416.25 54.0625 416.25 C54.0625 416.91 54.0625 417.57 54.0625 418.25 C52.44000059 419.08819158 50.81441503 419.9204116 49.1875 420.75 C47.83011719 421.44609375 47.83011719 421.44609375 46.4453125 422.15625 C44.0625 423.25 44.0625 423.25 42.0625 423.25 C42.0625 423.91 42.0625 424.57 42.0625 425.25 C40.46100114 425.92305018 38.85618971 426.58822227 37.25 427.25 C36.35667969 427.62125 35.46335937 427.9925 34.54296875 428.375 C32.0625 429.25 32.0625 429.25 29.0625 429.25 C29.0625 429.91 29.0625 430.57 29.0625 431.25 C14.50618418 434.82720899 14.50618418 434.82720899 7.0625 435.25 C6.22074219 435.30285156 5.37898438 435.35570312 4.51171875 435.41015625 C-6.2865061 435.75366824 -17.48539559 433.96701985 -27.9375 431.25 C-27.9375 430.59 -27.9375 429.93 -27.9375 429.25 C-28.98550781 428.94255859 -28.98550781 428.94255859 -30.0546875 428.62890625 C-31.41980469 428.22478516 -31.41980469 428.22478516 -32.8125 427.8125 C-33.71742187 427.54566406 -34.62234375 427.27882813 -35.5546875 427.00390625 C-37.9375 426.25 -37.9375 426.25 -39.9375 425.25 C-39.9375 424.59 -39.9375 423.93 -39.9375 423.25 C-40.81148437 423.00894531 -41.68546875 422.76789063 -42.5859375 422.51953125 C-46.2448989 421.13356102 -48.57235711 419.44332397 -51.5625 416.9375 C-52.48289062 416.17824219 -53.40328125 415.41898437 -54.3515625 414.63671875 C-56.85330598 412.32770777 -58.85911591 409.93786803 -60.9375 407.25 C-61.4428125 406.75113281 -61.948125 406.25226563 -62.46875 405.73828125 C-71.49397304 396.59304195 -77.19450714 383.45339193 -79.54296875 370.96484375 C-79.78297109 369.2276745 -79.78297109 369.2276745 -80.9375 368.25 C-81.97190564 359.91064746 -82.08238934 351.50912985 -82.06448364 343.11737061 C-82.06604363 341.96921851 -82.06760362 340.82106642 -82.06921089 339.63812184 C-82.07316707 335.8300235 -82.0700523 332.02196575 -82.06689453 328.21386719 C-82.06770133 325.46796589 -82.06999633 322.72206625 -82.07220459 319.97616577 C-82.0766316 313.31669602 -82.07569969 306.6572376 -82.07279195 299.99776742 C-82.07052657 294.58387088 -82.0702303 289.1699775 -82.07131577 283.75608063 C-82.071469 282.98333936 -82.07162223 282.21059808 -82.07178011 281.41444041 C-82.07209985 279.84431193 -82.07242407 278.27418346 -82.0727527 276.70405498 C-82.0755983 262.01160274 -82.07233452 247.31915677 -82.06695233 232.62670556 C-82.06248157 220.03238391 -82.06326425 207.43807148 -82.06787109 194.84375 C-82.07322698 180.19493497 -82.07532743 165.54612541 -82.07225883 150.89730954 C-82.0719403 149.33442513 -82.07162593 147.77154072 -82.07131577 146.20865631 C-82.07108435 145.05538187 -82.07108435 145.05538187 -82.07084826 143.87880896 C-82.06998642 138.47223147 -82.07143874 133.06565746 -82.07379532 127.65908051 C-82.07660462 121.06948235 -82.07583105 114.47989609 -82.07051457 107.89029929 C-82.06789337 104.5311907 -82.06738748 101.17211831 -82.07016373 97.81300735 C-82.07289926 94.16688345 -82.06946469 90.52081519 -82.06448364 86.87469482 C-82.06671436 85.82031243 -82.06894509 84.76593004 -82.07124341 83.67959666 C-82.03004223 68.11306488 -82.03004223 68.11306488 -78.9375 61.25 C-78.50155952 59.56737608 -78.08561143 57.8794736 -77.6875 56.1875 C-75.6947762 48.65602594 -72.25256953 41.72260429 -67.9375 35.25 C-67.2775 35.25 -66.6175 35.25 -65.9375 35.25 C-65.69515625 34.52941406 -65.4528125 33.80882812 -65.203125 33.06640625 C-62.07852333 26.11320314 -55.63923494 19.84605289 -48.9375 16.25 C-48.2775 16.25 -47.6175 16.25 -46.9375 16.25 C-46.6075 15.26 -46.2775 14.27 -45.9375 13.25 C-40.71527778 10.25 -40.71527778 10.25 -37.9375 10.25 C-37.9375 9.59 -37.9375 8.93 -37.9375 8.25 C-36.00191401 7.57779649 -34.06395628 6.91241923 -32.125 6.25 C-31.04605469 5.87875 -29.96710938 5.5075 -28.85546875 5.125 C-25.9375 4.25 -25.9375 4.25 -22.9375 4.25 C-22.9375 3.59 -22.9375 2.93 -22.9375 2.25 C-15.23937727 0.34526511 -7.90978533 -0.05528097 0 0 Z M22.0625 169.25 C23.0525 173.21 24.0425 177.17 25.0625 181.25 C25.7225 181.25 26.3825 181.25 27.0625 181.25 C27.330625 182.52875 27.59875 183.8075 27.875 185.125 C29.0076896 190.25062417 30.49451301 195.24289488 32.0625 200.25 C32.7225 200.25 33.3825 200.25 34.0625 200.25 C34.24425781 201.21099609 34.24425781 201.21099609 34.4296875 202.19140625 C35.41929227 207.29928933 36.54760951 212.27250269 38.0625 217.25 C38.7225 217.25 39.3825 217.25 40.0625 217.25 C40.18367188 217.81847656 40.30484375 218.38695312 40.4296875 218.97265625 C41.47572054 223.79245464 42.65454484 228.5232934 44.0625 233.25 C44.7225 233.25 45.3825 233.25 46.0625 233.25 C46.165625 234.013125 46.26875 234.77625 46.375 235.5625 C47.30383042 240.54440864 48.68366443 245.37637995 50.0625 250.25 C50.7225 250.25 51.3825 250.25 52.0625 250.25 C52.330625 251.52875 52.59875 252.8075 52.875 254.125 C54.0076896 259.25062417 55.49451301 264.24289488 57.0625 269.25 C57.7225 269.25 58.3825 269.25 59.0625 269.25 C59.18367188 269.89066406 59.30484375 270.53132813 59.4296875 271.19140625 C60.41929227 276.29928933 61.54760951 281.27250269 63.0625 286.25 C63.7225 286.25 64.3825 286.25 65.0625 286.25 C65.3925 287.57 65.7225 288.89 66.0625 290.25 C70.28738728 288.74111169 71.71754658 285.92376036 74.0625 282.25 C74.7225 281.92 75.3825 281.59 76.0625 281.25 C77.06334333 279.58383962 78.06320155 277.91708739 79.0625 276.25 C81.11847145 273.84809072 83.26162653 271.55003552 85.41796875 269.23828125 C87.27495027 267.42318553 87.27495027 267.42318553 87.0625 265.25 C88.0525 264.92 89.0425 264.59 90.0625 264.25 C91.08861949 262.59928604 92.08558143 260.93029994 93.0625 259.25 C94.35215176 257.87437146 95.68939293 256.54233607 97.0625 255.25 C100.383166 252.09131771 102.73060403 249.17182504 105.0625 245.25 C106.0525 244.59 107.0425 243.93 108.0625 243.25 C109.0689275 241.58720673 110.06835407 239.92016516 111.0625 238.25 C112.37516518 236.89631404 113.70817325 235.56200404 115.0625 234.25 C117.4534775 231.58158916 117.4534775 231.58158916 118.0625 228.25 C119.0525 227.92 120.0425 227.59 121.0625 227.25 C122.07601664 225.59151823 123.07370795 223.92334039 124.0625 222.25 C125.68589805 220.54115995 127.35569053 218.87553283 129.0625 217.25 C132.54951068 214.03109781 132.54951068 214.03109781 135.125 210.125 C136.0625 208.25 136.0625 208.25 138 206.8125 C140.47953206 204.93406662 141.52191905 202.92927122 143.0625 200.25 C144.0625 199.25 145.0625 198.25 146.0625 197.25 C147.09607147 195.60394174 148.10310332 193.94036558 149.0625 192.25 C148.0725 192.25 147.0825 192.25 146.0625 192.25 C146.0625 191.59 146.0625 190.93 146.0625 190.25 C141.70960244 189.5748677 137.35500257 188.91140624 133 188.25 C131.77087891 188.05921875 130.54175781 187.8684375 129.27539062 187.671875 C128.07978516 187.49140625 126.88417969 187.3109375 125.65234375 187.125 C124.55784912 186.95742187 123.46335449 186.78984375 122.33569336 186.6171875 C118.88506319 186.2300951 115.53185691 186.18856147 112.0625 186.25 C112.0625 185.59 112.0625 184.93 112.0625 184.25 C111.09948975 184.10900879 110.13647949 183.96801758 109.14428711 183.82275391 C105.54477795 183.29447784 101.94621764 182.75996224 98.34790039 182.22363281 C96.79541496 181.99310882 95.24268285 181.76423947 93.68969727 181.53710938 C91.44739725 181.20886257 89.20607496 180.87452013 86.96484375 180.5390625 C86.27913803 180.44001617 85.59343231 180.34096985 84.88694763 180.23892212 C80.48205273 179.57198724 76.33990742 178.47211641 72.0625 177.25 C69.51749957 176.80151229 66.96439111 176.39742275 64.40625 176.03125 C63.70028687 175.92784302 62.99432373 175.82443604 62.26696777 175.71789551 C60.0327724 175.39075032 57.79778594 175.06960286 55.5625 174.75 C52.61375706 174.32838653 49.66603021 173.90045718 46.71875 173.46875 C45.41744141 173.28248047 44.11613281 173.09621094 42.77539062 172.90429688 C39.10339987 172.2572075 35.6340504 171.30966982 32.0625 170.25 C30.25674815 169.98957864 28.44330247 169.77444952 26.625 169.625 C25.119375 169.50125 23.61375 169.3775 22.0625 169.25 Z " fill="#FB3E57" transform="translate(154.9375,38.75)"/>
<path d="M0 0 C0.66 0 1.32 0 2 0 C2.66 6.27 3.32 12.54 4 19 C4.66 19 5.32 19 6 19 C8 25 10 31 12 37 C12.66 37 13.32 37 14 37 C15.26171875 38.6875 15.26171875 38.6875 16.6875 41 C28.72541365 59.46005419 45.84482718 69.04594054 67 74 C68.03640625 74.26554687 69.0728125 74.53109375 70.140625 74.8046875 C77.75798796 76.69926239 85.42331557 77.88409909 93.19799805 78.91040039 C94.02082275 79.02375732 94.84364746 79.13711426 95.69140625 79.25390625 C96.42560791 79.35002197 97.15980957 79.4461377 97.91625977 79.54516602 C100.21549195 80.04703708 101.97868716 80.80018035 104 82 C105.046875 83.8046875 105.046875 83.8046875 105.75 85.875 C106.11351562 86.89207031 106.11351562 86.89207031 106.484375 87.9296875 C107 90 107 90 107 94 C107.66 94 108.32 94 109 94 C109.84080019 96.41429769 110.67281402 98.83103993 111.5 101.25 C111.85771484 102.27287109 111.85771484 102.27287109 112.22265625 103.31640625 C113.39421287 106.76413003 114 109.31702904 114 113 C114.66 113 115.32 113 116 113 C116.67364661 115.08108685 117.33866798 117.1649671 118 119.25 C118.37125 120.41015625 118.7425 121.5703125 119.125 122.765625 C120 126 120 126 120 130 C120.66 130 121.32 130 122 130 C122.67184618 132.10251861 123.33730968 134.20707763 124 136.3125 C124.37125 137.48425781 124.7425 138.65601563 125.125 139.86328125 C126 143 126 143 126 146 C126.66 146 127.32 146 128 146 C128.67364661 148.08108685 129.33866798 150.1649671 130 152.25 C130.37125 153.41015625 130.7425 154.5703125 131.125 155.765625 C132 159 132 159 132 163 C132.66 163 133.32 163 134 163 C134.31453125 163.95519531 134.6290625 164.91039062 134.953125 165.89453125 C137.51480181 173.64393048 140.18239222 181.33922309 143 189 C144.38765838 192.81606054 145 194.90167967 145 199 C145.66 199 146.32 199 147 199 C147.103125 200.03125 147.20625 201.0625 147.3125 202.125 C148.00691481 206.03897439 149.20819914 208.4853137 151 212 C151.48570658 213.51231366 151.94123861 215.03447692 152.375 216.5625 C153.50025778 220.50090224 154.85383042 224.25957605 156.375 228.0625 C157.2548666 230.37315272 158.12962122 232.68575671 159 235 C159.47308594 236.19625 159.94617188 237.3925 160.43359375 238.625 C163.77965762 247.81328673 164.46603068 256.55433161 164.5 266.3125 C164.50620361 267.48047119 164.51240723 268.64844238 164.51879883 269.85180664 C164.40631097 277.60359212 163.21213846 284.57462241 161 292 C160.34 292 159.68 292 159 292 C158.814375 293.258125 158.62875 294.51625 158.4375 295.8125 C155.83003397 307.44580996 145.82632538 319.21206584 137 327 C136.34 327 135.68 327 135 327 C135.33 328.32 135.66 329.64 136 331 C134.37750059 331.83819158 132.75191503 332.6704116 131.125 333.5 C129.76761719 334.19609375 129.76761719 334.19609375 128.3828125 334.90625 C126 336 126 336 124 336 C124 336.66 124 337.32 124 338 C122.39850114 338.67305018 120.79368971 339.33822227 119.1875 340 C118.29417969 340.37125 117.40085937 340.7425 116.48046875 341.125 C114 342 114 342 111 342 C111 342.66 111 343.32 111 344 C96.44368418 347.57720899 96.44368418 347.57720899 89 348 C88.15824219 348.05285156 87.31648438 348.10570312 86.44921875 348.16015625 C75.6509939 348.50366824 64.45210441 346.71701985 54 344 C54 343.34 54 342.68 54 342 C52.95199219 341.69255859 52.95199219 341.69255859 51.8828125 341.37890625 C50.51769531 340.97478516 50.51769531 340.97478516 49.125 340.5625 C48.22007813 340.29566406 47.31515625 340.02882813 46.3828125 339.75390625 C44 339 44 339 42 338 C42 337.34 42 336.68 42 336 C41.12601563 335.75894531 40.25203125 335.51789063 39.3515625 335.26953125 C35.6926011 333.88356102 33.36514289 332.19332397 30.375 329.6875 C29.45460938 328.92824219 28.53421875 328.16898437 27.5859375 327.38671875 C25.08419402 325.07770777 23.07838409 322.68786803 21 320 C20.4946875 319.50113281 19.989375 319.00226563 19.46875 318.48828125 C10.44352696 309.34304195 4.74299286 296.20339193 2.39453125 283.71484375 C2.15452891 281.9776745 2.15452891 281.9776745 1 281 C-0.01345986 272.79062101 -0.14419974 264.52328607 -0.12025452 256.26237488 C-0.12110894 255.15687532 -0.12196337 254.05137577 -0.12284368 252.91237622 C-0.12447623 249.24910288 -0.11901393 245.58587647 -0.11352539 241.92260742 C-0.11324301 239.28032835 -0.11335833 236.63805205 -0.1139679 233.99577332 C-0.11448971 228.32817802 -0.11137891 222.66059432 -0.10573006 216.99300194 C-0.09756834 208.79883318 -0.09499507 200.60466997 -0.09374207 192.41049758 C-0.09155886 179.11277321 -0.08491866 165.81505501 -0.07543945 152.51733398 C-0.06624638 139.60750357 -0.05917483 126.69767483 -0.05493164 113.7878418 C-0.05466892 112.99074239 -0.05440619 112.19364298 -0.05413551 111.37238904 C-0.05283038 107.3731762 -0.05156669 103.37396335 -0.05032361 99.37475049 C-0.03997377 66.24982917 -0.02237543 33.12491542 0 0 Z " fill="#F42FF1" transform="translate(73,126)"/>
<path d="M0 0 C1.10279297 -0.00773437 2.20558594 -0.01546875 3.34179688 -0.0234375 C12.27240577 -0.00236232 21.15790838 0.63297704 29.4375 4.25 C30.20835937 4.58 30.97921875 4.91 31.7734375 5.25 C32.52882813 5.58 33.28421875 5.91 34.0625 6.25 C35.72723012 6.92148778 37.393404 7.58943904 39.0625 8.25 C39.0625 8.91 39.0625 9.57 39.0625 10.25 C39.866875 10.476875 40.67125 10.70375 41.5 10.9375 C45.17734502 12.29231132 48.34740651 14.00129625 51.73828125 15.94140625 C55.11721364 17.84383037 58.58211092 19.54144536 62.0625 21.25 C62.0625 21.91 62.0625 22.57 62.0625 23.25 C62.88105469 23.48074219 63.69960937 23.71148437 64.54296875 23.94921875 C68.8235868 25.53128957 72.48585295 27.70015207 76.375 30.0625 C77.89409381 30.97078409 79.41362046 31.8783447 80.93359375 32.78515625 C81.65272949 33.21586426 82.37186523 33.64657227 83.11279297 34.09033203 C86.71441448 36.23254367 90.38030228 38.250708 94.0625 40.25 C95.04605469 40.78753906 96.02960938 41.32507813 97.04296875 41.87890625 C99.71480139 43.33842446 102.38804413 44.79529596 105.0625 46.25 C105.0625 46.91 105.0625 47.57 105.0625 48.25 C105.949375 48.53875 106.83625 48.8275 107.75 49.125 C110.56632424 50.08148748 113.31333156 51.11798946 116.0625 52.25 C116.0625 52.91 116.0625 53.57 116.0625 54.25 C116.76375 54.518125 117.465 54.78625 118.1875 55.0625 C125.07984777 57.9093393 131.53639393 61.66180289 138.0625 65.25 C138.0625 65.91 138.0625 66.57 138.0625 67.25 C138.949375 67.53875 139.83625 67.8275 140.75 68.125 C148.63479648 70.80285541 148.63479648 70.80285541 150.4375 72.6875 C152.93620029 75.09009644 155.85302066 75.97831951 159.0625 77.25 C159.0625 77.91 159.0625 78.57 159.0625 79.25 C159.90941406 79.50007813 160.75632812 79.75015625 161.62890625 80.0078125 C165.3397393 81.35029818 168.61925192 83.12407319 172 85.125 C172.58201172 85.46402344 173.16402344 85.80304688 173.76367188 86.15234375 C174.93761085 86.83616645 176.1105495 87.5217094 177.2824707 88.20898438 C182.13553271 91.0472036 187.00641744 93.78361826 192.0625 96.25 C192.0625 96.91 192.0625 97.57 192.0625 98.25 C192.91714844 98.50394531 193.77179688 98.75789063 194.65234375 99.01953125 C198.27116713 100.32529227 201.31296557 101.98405211 204.625 103.9375 C205.84683654 104.65114488 207.06951525 105.36334952 208.29296875 106.07421875 C208.91220215 106.43435059 209.53143555 106.79448242 210.16943359 107.16552734 C215.07077112 109.97333509 220.07528263 112.59898744 225.0625 115.25 C225.0625 115.91 225.0625 116.57 225.0625 117.25 C225.97 117.53875 226.8775 117.8275 227.8125 118.125 C230.38452908 119.01531776 232.67596766 119.96494413 235.0625 121.25 C235.0625 121.91 235.0625 122.57 235.0625 123.25 C235.84625 123.45625 236.63 123.6625 237.4375 123.875 C241.50495146 125.41782642 244.89431595 127.50334754 248.58203125 129.78515625 C251.65678375 131.60095497 254.74143303 132.95045205 258.0625 134.25 C258.0625 134.91 258.0625 135.57 258.0625 136.25 C258.97 136.53875 259.8775 136.8275 260.8125 137.125 C263.38452908 138.01531776 265.67596766 138.96494413 268.0625 140.25 C268.0625 140.91 268.0625 141.57 268.0625 142.25 C263.4425 141.26 258.8225 140.27 254.0625 139.25 C254.0625 138.59 254.0625 137.93 254.0625 137.25 C225.20644776 136.20768636 201.29486843 138.71908834 179.0625 159.25 C174.2876119 164.11421423 169.974969 169.33229848 165.6875 174.625 C162.28724694 178.80211228 158.82673157 182.91113584 155.25 186.9375 C154.79383301 187.46714355 154.33766602 187.99678711 153.86767578 188.54248047 C152.54296875 190.01171875 152.54296875 190.01171875 150.0625 192.25 C148.7425 192.25 147.4225 192.25 146.0625 192.25 C146.0625 191.59 146.0625 190.93 146.0625 190.25 C145.36769531 190.21261719 144.67289063 190.17523438 143.95703125 190.13671875 C133.24027124 189.44400042 122.67530432 187.84997319 112.0625 186.25 C112.0625 185.59 112.0625 184.93 112.0625 184.25 C111.35609375 184.21261719 110.6496875 184.17523438 109.921875 184.13671875 C102.78521634 183.67947052 95.7598475 182.85849316 88.6875 181.8125 C87.42244629 181.62917114 87.42244629 181.62917114 86.13183594 181.44213867 C85.3174707 181.31814697 84.50310547 181.19415527 83.6640625 181.06640625 C82.94557129 180.95756104 82.22708008 180.84871582 81.48681641 180.73657227 C79.0625 180.25 79.0625 180.25 75.75341797 179.27514648 C71.96851662 178.22389627 68.29340755 177.58765839 64.40625 177.03125 C63.70028687 176.92784302 62.99432373 176.82443604 62.26696777 176.71789551 C60.0327724 176.39075032 57.79778594 176.06960286 55.5625 175.75 C52.61375706 175.32838653 49.66603021 174.90045718 46.71875 174.46875 C45.41744141 174.28248047 44.11613281 174.09621094 42.77539062 173.90429688 C39.10068161 173.25672848 35.63627826 172.3126955 32.0625 171.25 C30.53129048 170.90425796 28.99498239 170.57980169 27.453125 170.28515625 C26.62506348 170.12644043 25.79700195 169.96772461 24.94384766 169.80419922 C24.07550293 169.64193848 23.2071582 169.47967773 22.3125 169.3125 C20.94617432 169.05364014 20.94617432 169.05364014 19.55224609 168.78955078 C12.51299134 167.4746321 5.45530643 166.31507725 -1.63183594 165.28930664 C-6.20325354 164.60825251 -10.49971863 163.5798059 -14.9375 162.25 C-16.08347656 161.97800781 -17.22945313 161.70601562 -18.41015625 161.42578125 C-37.97854504 156.71999896 -56.06201427 145.72156436 -66.9375 128.25 C-67.6328125 125.97265625 -67.6328125 125.97265625 -67.9375 124.25 C-68.5975 124.25 -69.2575 124.25 -69.9375 124.25 C-70.94654375 122.0036764 -71.9448602 119.75356063 -72.9375 117.5 C-73.22367188 116.86578125 -73.50984375 116.2315625 -73.8046875 115.578125 C-75.29756702 112.16582896 -75.9375 110.04218083 -75.9375 106.25 C-76.5975 106.25 -77.2575 106.25 -77.9375 106.25 C-79.67705334 99.81986533 -80.18741456 93.90050424 -79.9375 87.25 C-80.5975 87.25 -81.2575 87.25 -81.9375 87.25 C-82.21051821 69.3218043 -82.21051821 69.3218043 -78.9375 61.25 C-78.50155952 59.56737608 -78.08561143 57.8794736 -77.6875 56.1875 C-75.6947762 48.65602594 -72.25256953 41.72260429 -67.9375 35.25 C-67.2775 35.25 -66.6175 35.25 -65.9375 35.25 C-65.69515625 34.52941406 -65.4528125 33.80882812 -65.203125 33.06640625 C-62.07852333 26.11320314 -55.63923494 19.84605289 -48.9375 16.25 C-48.2775 16.25 -47.6175 16.25 -46.9375 16.25 C-46.6075 15.26 -46.2775 14.27 -45.9375 13.25 C-40.71527778 10.25 -40.71527778 10.25 -37.9375 10.25 C-37.9375 9.59 -37.9375 8.93 -37.9375 8.25 C-36.00191401 7.57779649 -34.06395628 6.91241923 -32.125 6.25 C-31.04605469 5.87875 -29.96710938 5.5075 -28.85546875 5.125 C-25.9375 4.25 -25.9375 4.25 -22.9375 4.25 C-22.9375 3.59 -22.9375 2.93 -22.9375 2.25 C-15.23937727 0.34526511 -7.90978533 -0.05528097 0 0 Z " fill="#FEB922" transform="translate(154.9375,38.75)"/>
<path d="M0 0 C0 0.66 0 1.32 0 2 C1.27875 2.103125 2.5575 2.20625 3.875 2.3125 C11.40472516 3.15440628 18.35988731 5.33046404 25 9 C25 9.66 25 10.32 25 11 C25.71671875 11.24878906 26.4334375 11.49757812 27.171875 11.75390625 C36.50550568 15.86637612 44.4383648 24.62698876 50 33 C51.24609375 36.33203125 51.24609375 36.33203125 52 39 C52.66 39 53.32 39 54 39 C54.6708712 40.6232687 55.33657029 42.24867578 56 43.875 C56.37125 44.77992188 56.7425 45.68484375 57.125 46.6171875 C58 49 58 49 58 51 C58.66 51 59.32 51 60 51 C68.02247191 85.95505618 68.02247191 85.95505618 62 98 C61.34 98 60.68 98 60 98 C59.87625 99.2375 59.7525 100.475 59.625 101.75 C59.30257483 104.97425166 58.45836286 107.12697551 57 110 C56.44443528 111.34015345 55.90441371 112.68684013 55.37890625 114.0390625 C55.08306641 114.78414063 54.78722656 115.52921875 54.48242188 116.296875 C53.86699341 117.85439248 53.2576515 119.41432817 52.65429688 120.9765625 C52.35716797 121.7190625 52.06003906 122.4615625 51.75390625 123.2265625 C51.48908447 123.90283691 51.2242627 124.57911133 50.95141602 125.27587891 C50 127 50 127 47 129 C46.731875 129.598125 46.46375 130.19625 46.1875 130.8125 C44.39098913 134.12186213 42.03574357 135.76965778 39 138 C38.01 138 37.02 138 36 138 C35.67 138.66 35.34 139.32 35 140 C34.37807424 139.99723462 33.75614847 139.99446924 33.11537647 139.99162006 C17.93091623 139.92515381 2.74650111 139.87561954 -12.43806744 139.84456348 C-19.78143755 139.82914298 -27.12471011 139.80814653 -34.46801758 139.77368164 C-40.87394447 139.74363075 -47.27980065 139.72439006 -53.68579608 139.71773452 C-57.07275677 139.71384859 -60.45951533 139.70481888 -63.84641075 139.68280983 C-67.64211133 139.66087188 -71.43740002 139.65803996 -75.2331543 139.65942383 C-76.33655655 139.648638 -77.4399588 139.63785217 -78.57679749 139.6267395 C-89.53899626 139.66967979 -99.44681687 141.67016517 -109.07421875 147.01171875 C-111 148 -111 148 -113 148 C-113 148.66 -113 149.32 -113 150 C-114.66666667 151.66666667 -116.33333333 153.33333333 -118 155 C-120.50843842 158.11416929 -122.63546626 161.08866564 -124.125 164.8125 C-125 167 -125 167 -128 169 C-128.66347631 171.48400985 -128.66347631 171.48400985 -129 174 C-129.33 174.66 -129.66 175.32 -130 176 C-129.34 175.67 -128.68 175.34 -128 175 C-128 182 -128 182 -128.5 184.6875 C-129.09704667 188.0186432 -129.09704667 188.0186432 -128.9375 191.5 C-129 195 -129 195 -130 197.75 C-132.31003691 205.25761997 -130.95893899 213.67072287 -130.5625 221.4375 C-130.50388794 222.60974121 -130.50388794 222.60974121 -130.4440918 223.80566406 C-130.23638153 227.97796888 -130.23638153 227.97796888 -129.41772461 232.05883789 C-129 234 -129 234 -130 237 C-130.99 237 -131.98 237 -133 237 C-133.226875 237.78375 -133.45375 238.5675 -133.6875 239.375 C-135.34316347 242.68632694 -136.59031406 242.835717 -140 244 C-140.515625 244.515625 -141.03125 245.03125 -141.5625 245.5625 C-143.29446732 247.29446732 -144.62128554 247.58987682 -147 248 C-147 248.66 -147 249.32 -147 250 C-148.26691507 250.67408308 -149.53870749 251.33900497 -150.8125 252 C-151.52019531 252.37125 -152.22789062 252.7425 -152.95703125 253.125 C-155 254 -155 254 -158 254 C-158.33 254.99 -158.66 255.98 -159 257 C-160.6796875 258.17578125 -160.6796875 258.17578125 -162.875 259.3125 C-164.09316406 259.95638672 -164.09316406 259.95638672 -165.3359375 260.61328125 C-166.21507812 261.07089844 -167.09421875 261.52851563 -168 262 C-169.83523915 262.99649805 -171.66854291 263.99656787 -173.5 265 C-174.41652344 265.49757813 -175.33304688 265.99515625 -176.27734375 266.5078125 C-179.61555299 268.3373619 -182.92271434 270.21957172 -186.22265625 272.1171875 C-188 273 -188 273 -190 273 C-190 273.66 -190 274.32 -190 275 C-191.26691507 275.67408308 -192.53870749 276.33900497 -193.8125 277 C-194.52019531 277.37125 -195.22789062 277.7425 -195.95703125 278.125 C-198 279 -198 279 -201 279 C-201 278.34 -201 277.68 -201 277 C-199.87474845 275.97350723 -198.69717355 275.00412304 -197.5 274.0625 C-192.36584558 269.70074049 -188.74800204 264.55765968 -185 259 C-184.50242188 258.28457031 -184.00484375 257.56914062 -183.4921875 256.83203125 C-180.36997514 252.1487127 -178.53823779 247.40259125 -177 242 C-176.34 242 -175.68 242 -175 242 C-170.00582402 215.99624703 -173.18326894 192.93359596 -184.14746094 168.9230957 C-185.1966359 166.55644302 -186.01869908 164.16986035 -186.75 161.6875 C-187.11351562 160.48673828 -187.11351562 160.48673828 -187.484375 159.26171875 C-188 157 -188 157 -188 153 C-187.38125 152.773125 -186.7625 152.54625 -186.125 152.3125 C-183.77279369 151.15068028 -183.77279369 151.15068028 -183 148.5 C-181.77857206 145.44643015 -180.83868307 145.37355633 -178 144 C-177.88011719 143.41734375 -177.76023438 142.8346875 -177.63671875 142.234375 C-176.76124336 139.16215463 -175.06661496 137.61926761 -172.875 135.3125 C-169.17566798 131.33041649 -165.77156377 127.25394115 -162.5078125 122.91015625 C-160.38723309 120.22372275 -157.97951881 117.98054287 -155.5 115.625 C-153.17854432 113.18747154 -151.70681405 110.8705509 -150 108 C-149.01 107.34 -148.02 106.68 -147 106 C-146.525625 105.175 -146.05125 104.35 -145.5625 103.5 C-144 101 -144 101 -141.9375 100 C-139.78602686 99.15730547 -139.78602686 99.15730547 -139.125 96.8125 C-137.53217777 92.83044442 -134.84350015 90.16094554 -132 87 C-130.97673118 85.79372845 -129.95584266 84.58543313 -128.9375 83.375 C-127.12856414 81.25352549 -125.31492982 79.33086168 -123.3125 77.375 C-121.04996676 75.05131721 -119.64708277 72.77009376 -118 70 C-117.01 69.34 -116.02 68.68 -115 68 C-114.505 67.154375 -114.01 66.30875 -113.5 65.4375 C-112 63 -112 63 -109 62 C-108.3260469 60.33626641 -107.66040576 58.66915741 -107 57 C-105.15234375 54.9296875 -105.15234375 54.9296875 -102.9375 52.875 C-97.81950078 47.92841702 -93.45237805 42.54171192 -89 37 C-79.59073884 25.37658797 -70.07661526 15.59480246 -57 8 C-56.071875 7.43345703 -56.071875 7.43345703 -55.125 6.85546875 C-53.12675916 5.73591864 -51.12419667 4.86069557 -49 4 C-47.92621094 3.55398437 -46.85242188 3.10796875 -45.74609375 2.6484375 C-32.64998102 -2.21621849 -13.36503432 -4.45501144 0 0 Z " fill="#F9533B" transform="translate(409,176)"/>
<path d="M0 0 C0.66 0 1.32 0 2 0 C1.34 3.63 0.68 7.26 0 11 C-0.66 11 -1.32 11 -2 11 C-2.1546875 12.0209375 -2.1546875 12.0209375 -2.3125 13.0625 C-3.14725019 16.62915989 -4.49472754 19.66222194 -6 23 C-4.9275 23.061875 -3.855 23.12375 -2.75 23.1875 C10.83486117 24.91560955 24.50391104 33.47522194 33 44 C39.00329255 52.78417258 43.2473025 61.35040475 43.25396729 72.18606567 C43.25708727 72.87455562 43.26020725 73.56304556 43.26342177 74.27239883 C43.27134758 76.56075743 43.26509959 78.84884684 43.25878906 81.13720703 C43.26150129 82.78527989 43.26506352 84.43335154 43.26940918 86.0814209 C43.27850648 90.54404008 43.27500028 95.00656651 43.26865101 99.46918726 C43.26357895 104.14335024 43.26828566 108.8175054 43.27142334 113.4916687 C43.27505874 121.33804751 43.27027429 129.18438863 43.26074219 137.03076172 C43.24985087 146.10068945 43.25338984 155.17052732 43.264395 164.24045289 C43.27347094 172.03254755 43.27475187 179.82461516 43.26951766 187.6167134 C43.26640063 192.2686211 43.26598146 196.92048654 43.27259064 201.57239151 C43.27836819 205.94399475 43.27435969 210.31548204 43.26280212 214.68707275 C43.26015806 216.2910836 43.26091631 217.89510421 43.26532745 219.49911118 C43.2707942 221.68883966 43.26393539 223.87819677 43.25396729 226.06790161 C43.25283621 227.90568522 43.25283621 227.90568522 43.25168228 229.78059578 C43 233 43 233 41 238 C-42.49 238 -125.98 238 -212 238 C-215.39656912 230.07467205 -215.39656912 230.07467205 -216.125 226.1875 C-216.27195313 225.43855469 -216.41890625 224.68960938 -216.5703125 223.91796875 C-217.84550054 215.25828266 -218.13686352 206.73904261 -218.09765625 197.9921875 C-218.0962413 196.7855545 -218.09482635 195.57892151 -218.09336853 194.33572388 C-218.08781082 190.51545641 -218.07526628 186.69524948 -218.0625 182.875 C-218.05747953 180.27083419 -218.05291758 177.66666744 -218.04882812 175.0625 C-218.03785527 168.70831299 -218.02115974 162.35416082 -218 156 C-216.5437455 155.32880451 -215.08492133 154.66318193 -213.625 154 C-212.81289063 153.62875 -212.00078125 153.2575 -211.1640625 152.875 C-209 152 -209 152 -207 152 C-207 151.34 -207 150.68 -207 150 C-205.5459375 149.5978125 -205.5459375 149.5978125 -204.0625 149.1875 C-202.5465625 148.5996875 -202.5465625 148.5996875 -201 148 C-200.67 147.01 -200.34 146.02 -200 145 C-198.29296875 143.90234375 -198.29296875 143.90234375 -196.1875 142.9375 C-195.50042969 142.61652344 -194.81335938 142.29554688 -194.10546875 141.96484375 C-193.41066406 141.64644531 -192.71585937 141.32804688 -192 141 C-190.66529368 140.33608641 -189.33176349 139.66979716 -188 139 C-187.98786972 140.11087227 -187.98786972 140.11087227 -187.97549438 141.2441864 C-187.8974638 148.23294683 -187.81014775 155.22151569 -187.71247292 162.21002483 C-187.66258616 165.80265652 -187.61625577 169.39525989 -187.578125 172.98803711 C-187.54117546 176.45707204 -187.4947899 179.92586559 -187.44193649 183.39469337 C-187.41446103 185.35823796 -187.39668845 187.32191057 -187.37905884 189.28556824 C-187.35918915 190.4864357 -187.33931946 191.68730316 -187.31884766 192.92456055 C-187.30552399 193.97935104 -187.29220032 195.03414154 -187.2784729 196.12089539 C-186.98910346 199.11265827 -186.21018412 201.26662954 -185 204 C-184.7525 205.051875 -184.505 206.10375 -184.25 207.1875 C-181.63706989 216.36267443 -175.63517612 223.4899479 -168 229 C-152.83291993 236.90576053 -138.86818926 236.57700733 -122.078125 236.49609375 C-119.44700073 236.496249 -116.81587624 236.49774222 -114.18475342 236.50050354 C-108.68427617 236.50319322 -103.18401865 236.48984329 -97.68359375 236.46655273 C-91.37095249 236.44000389 -85.05867938 236.43818364 -78.74600148 236.4499411 C-72.62013241 236.46081627 -66.49441458 236.45434692 -60.36855316 236.44038582 C-57.78689707 236.43590744 -55.20523025 236.43550246 -52.6235733 236.43945122 C-24.76906029 237.11024717 -24.76906029 237.11024717 0 226 C2.31836768 223.66679477 4.43617493 221.30112071 6.4765625 218.72265625 C6.97929687 218.15417969 7.48203125 217.58570313 8 217 C8.66 217 9.32 217 10 217 C10.46036629 215.64652311 10.91816537 214.292173 11.375 212.9375 C11.63023437 212.18339844 11.88546875 211.42929687 12.1484375 210.65234375 C12.42945313 209.77707031 12.71046875 208.90179688 13 208 C13.34124405 207.03720123 13.6824881 206.07440247 14.03407288 205.08242798 C15.51842716 199.8155703 15.30315503 194.4610465 15.30639648 189.02880859 C15.31888176 187.2444339 15.31888176 187.2444339 15.33161926 185.42401123 C15.35152707 182.17569062 15.3623496 178.92751869 15.36744571 175.67914534 C15.37110307 173.64324951 15.37735034 171.6073778 15.3844471 169.57149124 C15.40891018 162.45015647 15.42198568 155.32889415 15.42553711 148.20751953 C15.42916506 141.60058811 15.45901477 134.99412329 15.50094169 128.38733423 C15.53580509 122.69105514 15.55108834 116.99492941 15.55178314 111.29854453 C15.55257084 107.90711009 15.56107118 104.5161512 15.58978081 101.12482834 C15.6168344 97.33200008 15.6118261 93.54043617 15.59936523 89.74755859 C15.61419952 88.64580292 15.62903381 87.54404724 15.64431763 86.40890503 C15.56709092 78.09502555 13.29778912 71.57587631 10 64 C9.67 63.01 9.34 62.02 9 61 C8.34 61 7.68 61 7 61 C6.67 60.01 6.34 59.02 6 58 C4.1355719 56.18653734 4.1355719 56.18653734 1.9375 54.4375 C0.58840481 53.33498812 -0.73388897 52.19689312 -2 51 C-2 50.34 -2 49.68 -2 49 C-2.66 48.896875 -3.32 48.79375 -4 48.6875 C-7.82454141 47.81104259 -11.34982775 46.42136506 -15 45 C-16.49926398 44.43554116 -17.99923727 43.87296183 -19.5 43.3125 C-20.655 42.879375 -21.81 42.44625 -23 42 C-22.04578192 40.85073734 -21.08647955 39.70569459 -20.125 38.5625 C-19.59132813 37.92441406 -19.05765625 37.28632813 -18.5078125 36.62890625 C-17 35 -17 35 -15 34 C-14.690625 33.38125 -14.38125 32.7625 -14.0625 32.125 C-13 30 -13 30 -11.625 28.83203125 C-9.22341882 26.12447939 -8.19060382 22.90517847 -6.9375 19.5625 C-4.17552464 12.34796989 -4.17552464 12.34796989 -2.88671875 9.79296875 C-1.90205612 7.80195488 -1.37905607 5.91024031 -0.875 3.75 C-0.58625 2.5125 -0.2975 1.275 0 0 Z " fill="#FEFCFD" transform="translate(469,274)"/>
<path d="M0 0 C0.66 0 1.32 0 2 0 C2.5878125 1.77310547 2.5878125 1.77310547 3.1875 3.58203125 C5.2092577 9.64374493 7.26320468 15.69438292 9.33398438 21.73950195 C9.77963932 23.04297731 10.22363834 24.34701995 10.66601562 25.65161133 C11.31495618 27.56469384 11.96991691 29.47573087 12.625 31.38671875 C13.00914062 32.51295654 13.39328125 33.63919434 13.7890625 34.79956055 C14.99782408 37.99424918 16.44771901 40.96041847 18 44 C18.64973892 45.92269679 19.25258654 47.86175129 19.8125 49.8125 C21.5876419 55.77724885 23.58954886 61.62641487 25.71801758 67.47192383 C27.22955777 71.66699923 28.58829561 75.88763051 29.87890625 80.15625 C32.02017393 87.18327001 34.44734557 94.09010745 36.9375 101 C37.35451172 102.16789062 37.77152344 103.33578125 38.20117188 104.5390625 C40.26685342 110.29870624 42.38337964 116.03251937 44.59375 121.73828125 C46.70313239 127.18363271 48.66767214 132.66446658 50.5625 138.1875 C53.47228362 150.07172706 53.47228362 150.07172706 60 159 C59.67 159.66 59.34 160.32 59 161 C57.49373047 160.70996094 57.49373047 160.70996094 55.95703125 160.4140625 C48.31070124 158.9547101 40.67886776 157.5916966 32.96484375 156.52734375 C29.55558174 155.92095327 26.32213944 154.97410653 23 154 C21.85402344 153.72800781 20.70804687 153.45601562 19.52734375 153.17578125 C-0.04104504 148.46999896 -18.12451427 137.47156436 -29 120 C-29.6953125 117.72265625 -29.6953125 117.72265625 -30 116 C-30.66 116 -31.32 116 -32 116 C-33.00904375 113.7536764 -34.0073602 111.50356063 -35 109.25 C-35.28617188 108.61578125 -35.57234375 107.9815625 -35.8671875 107.328125 C-37.36006702 103.91582896 -38 101.79218083 -38 98 C-38.66 98 -39.32 98 -40 98 C-41.73955334 91.56986533 -42.24991456 85.65050424 -42 79 C-42.66 79 -43.32 79 -44 79 C-44.27301821 61.0718043 -44.27301821 61.0718043 -41 53 C-40.56405952 51.31737608 -40.14811143 49.6294736 -39.75 47.9375 C-37.7572762 40.40602594 -34.31506953 33.47260429 -30 27 C-29.34 27 -28.68 27 -28 27 C-27.75765625 26.27941406 -27.5153125 25.55882813 -27.265625 24.81640625 C-24.14102333 17.86320314 -17.70173494 11.59605289 -11 8 C-10.34 8 -9.68 8 -9 8 C-8.67 7.01 -8.34 6.02 -8 5 C-2.77777778 2 -2.77777778 2 0 2 C0 1.34 0 0.68 0 0 Z " fill="#FEAB47" transform="translate(117,47)"/>
<path d="M0 0 C0 0.66 0 1.32 0 2 C1.27875 2.103125 2.5575 2.20625 3.875 2.3125 C11.40472516 3.15440628 18.35988731 5.33046404 25 9 C25 9.66 25 10.32 25 11 C26.07507813 11.37318359 26.07507813 11.37318359 27.171875 11.75390625 C36.50550568 15.86637612 44.4383648 24.62698876 50 33 C51.24609375 36.33203125 51.24609375 36.33203125 52 39 C52.66 39 53.32 39 54 39 C54.6708712 40.6232687 55.33657029 42.24867578 56 43.875 C56.37125 44.77992188 56.7425 45.68484375 57.125 46.6171875 C58 49 58 49 58 51 C58.66 51 59.32 51 60 51 C62.79819439 63.1921327 64.72309715 74.46631604 64 87 C63.94457031 87.97453125 63.88914062 88.9490625 63.83203125 89.953125 C63.625 92.4375 63.625 92.4375 63 96 C62.01 96.495 62.01 96.495 61 97 C61.33 92.38 61.66 87.76 62 83 C60.2675 82.9175 58.535 82.835 56.75 82.75 C50.0209944 82.23801044 43.54442036 81.03781485 36.94824219 79.63574219 C29.40218281 78.03449761 21.81324589 76.70671029 14.21435547 75.38586426 C10.71204678 74.7755667 7.21155912 74.15504362 3.7109375 73.53515625 C2.33554216 73.29208951 0.96013519 73.0490886 -0.4152832 72.80615234 C-2.5583927 72.42758165 -4.70149676 72.04898046 -6.84457397 71.67022705 C-15.064115 70.21781469 -23.28489283 68.77400572 -31.51074219 67.35766602 C-40.13927349 65.87120676 -48.74833993 64.3116845 -57.34423828 62.64672852 C-63.08316162 61.54035876 -68.82965299 60.48283955 -74.58203125 59.44921875 C-75.3311377 59.31435059 -76.08024414 59.17948242 -76.85205078 59.04052734 C-80.61992803 58.36250316 -84.38837882 57.6879324 -88.15771484 57.01806641 C-89.54657202 56.76868017 -90.93540766 56.51917397 -92.32421875 56.26953125 C-93.56260498 56.04885986 -94.80099121 55.82818848 -96.0769043 55.60083008 C-99 55 -99 55 -101 54 C-100.42905698 50.17641187 -98.76488572 48.37762105 -96.125 45.625 C-92.31717968 41.53265256 -88.84092896 37.30733129 -85.4375 32.875 C-66.57704388 8.57571467 -31.60651637 -10.53550546 0 0 Z " fill="#F25846" transform="translate(409,176)"/>
<path d="M0 0 C0.45439453 1.39798828 0.45439453 1.39798828 0.91796875 2.82421875 C2.9663161 9.07333005 5.06052431 15.26469422 7.5 21.375 C8.33838634 23.58141993 9.17151048 25.78984488 10 28 C10.47050781 29.18980469 10.94101563 30.37960937 11.42578125 31.60546875 C14.77609184 40.80142167 15.46599919 49.5452856 15.5 59.3125 C15.50620361 60.48047119 15.51240723 61.64844238 15.51879883 62.85180664 C15.40631097 70.60359212 14.21213846 77.57462241 12 85 C11.34 85 10.68 85 10 85 C9.7215625 86.8871875 9.7215625 86.8871875 9.4375 88.8125 C6.83003397 100.44580996 -3.17367462 112.21206584 -12 120 C-12.66 120 -13.32 120 -14 120 C-13.67 121.32 -13.34 122.64 -13 124 C-14.62249941 124.83819158 -16.24808497 125.6704116 -17.875 126.5 C-19.23238281 127.19609375 -19.23238281 127.19609375 -20.6171875 127.90625 C-23 129 -23 129 -25 129 C-25 129.66 -25 130.32 -25 131 C-26.60149886 131.67305018 -28.20631029 132.33822227 -29.8125 133 C-30.70582031 133.37125 -31.59914063 133.7425 -32.51953125 134.125 C-35 135 -35 135 -38 135 C-38 135.66 -38 136.32 -38 137 C-52.55631582 140.57720899 -52.55631582 140.57720899 -60 141 C-61.26263672 141.07927734 -61.26263672 141.07927734 -62.55078125 141.16015625 C-73.3490061 141.50366824 -84.54789559 139.71701985 -95 137 C-95 136.34 -95 135.68 -95 135 C-96.04800781 134.69255859 -96.04800781 134.69255859 -97.1171875 134.37890625 C-98.48230469 133.97478516 -98.48230469 133.97478516 -99.875 133.5625 C-100.77992187 133.29566406 -101.68484375 133.02882813 -102.6171875 132.75390625 C-105 132 -105 132 -107 131 C-107.96484375 128.85546875 -107.96484375 128.85546875 -108 126 C-106.26684531 123.53138488 -104.60546149 121.49437329 -102.5625 119.3125 C-101.4375069 118.05975565 -100.31381076 116.80584539 -99.19140625 115.55078125 C-98.63984863 114.94186035 -98.08829102 114.33293945 -97.52001953 113.70556641 C-95.58886771 111.53868131 -93.78643939 109.28709757 -92 107 C-88.8038617 102.95509468 -85.4886863 99.03026095 -82.125 95.125 C-78.23014351 90.59987597 -74.34034612 86.07156427 -70.5 81.5 C-69.33984375 80.12328125 -69.33984375 80.12328125 -68.15625 78.71875 C-65.95884744 76.03296903 -65.95884744 76.03296903 -64.109375 73.109375 C-61.58551124 69.38901286 -58.72858211 66.10885425 -55.75 62.75 C-46.91416808 52.73737825 -46.91416808 52.73737825 -39 42 C-38.34 42 -37.68 42 -37 42 C-36.77441406 41.29101562 -36.54882812 40.58203125 -36.31640625 39.8515625 C-34.73648793 36.42918749 -32.52639222 34.04549812 -29.9375 31.375 C-23.83330571 24.90064175 -18.20153247 18.11231326 -12.734375 11.08984375 C-12.01765625 10.17332031 -11.3009375 9.25679688 -10.5625 8.3125 C-9.92441406 7.48363281 -9.28632813 6.65476562 -8.62890625 5.80078125 C-7.82259766 4.90939453 -7.82259766 4.90939453 -7 4 C-6.34 4 -5.68 4 -5 4 C-4.67 3.01 -4.34 2.02 -4 1 C-2 0 -2 0 0 0 Z " fill="#EA13E8" transform="translate(222,333)"/>
<path d="M0 0 C3 2 3 2 3.38311005 3.82954502 C3.38683876 4.57556949 3.39056747 5.32159395 3.39440918 6.09022522 C3.40575897 6.94662598 3.41710876 7.80302673 3.42880249 8.68537903 C3.42587189 9.62717514 3.42294128 10.56897125 3.41992188 11.53930664 C3.42839142 12.52975983 3.43686096 13.52021301 3.44558716 14.54067993 C3.46907423 17.83063446 3.46997602 21.12012404 3.46875 24.41015625 C3.47584803 26.6950245 3.4835465 28.97989096 3.49182129 31.26475525 C3.50529553 36.06416771 3.50682322 40.86341567 3.50097656 45.6628418 C3.49509882 51.80082602 3.52557909 57.93801425 3.56609344 64.07584476 C3.59200996 68.80035117 3.59484383 73.52466746 3.59120178 78.24923515 C3.59289147 80.51097032 3.60251933 82.77271442 3.62034607 85.03437996 C3.64259683 88.20842833 3.63279942 91.38088651 3.61523438 94.55493164 C3.62849762 95.48255814 3.64176086 96.41018463 3.65542603 97.36592102 C3.57213353 103.87650566 2.01508888 108.79976358 -2 114 C-4.63651793 116.33082111 -5.40754609 117 -9 117 C-9 117.66 -9 118.32 -9 119 C-16.07529906 120.62059923 -23.86084336 121.43189601 -30.5625 118.375 C-34.90740384 114.14150395 -37.22723832 111.08993957 -37.4375 104.9375 C-37.19292416 99.49976384 -35.71254393 96.7644392 -31.9375 92.875 C-27.03668809 89.74682219 -21.5790414 88.63643011 -15.9765625 87.25390625 C-14.99429688 87.00511719 -14.01203125 86.75632812 -13 86.5 C-12.0925 86.2834375 -11.185 86.066875 -10.25 85.84375 C-7.65949372 85.12223736 -7.65949372 85.12223736 -6 82 C-5.67299844 79.71909256 -5.67299844 79.71909256 -5.68115234 77.16137695 C-5.66128265 76.1805867 -5.64141296 75.19979645 -5.62094116 74.18928528 C-5.60938995 73.13295395 -5.59783875 72.07662262 -5.5859375 70.98828125 C-5.56657135 69.90491989 -5.5472052 68.82155853 -5.5272522 67.70536804 C-5.46741656 64.24115907 -5.4210547 60.77691695 -5.375 57.3125 C-5.33682393 54.96548021 -5.29777242 52.61847448 -5.2578125 50.27148438 C-5.16171176 44.51444766 -5.07667587 38.75732641 -5 33 C-22.67613419 35.10898404 -22.67613419 35.10898404 -40.125 38.5625 C-47.32910378 40.22233829 -54.42414609 41.65997001 -61.76953125 42.54296875 C-64.19348479 42.82630172 -64.19348479 42.82630172 -66 45 C-66.21705637 47.40679241 -66.31134857 49.70219803 -66.31884766 52.11181641 C-66.33391609 53.20953117 -66.33391609 53.20953117 -66.34928894 54.329422 C-66.38023236 56.75346068 -66.39718674 59.17738838 -66.4140625 61.6015625 C-66.43276521 63.28023237 -66.45233794 64.95889275 -66.4727478 66.63754272 C-66.52416995 71.05979835 -66.56374152 75.48208449 -66.60089111 79.90447998 C-66.64086774 84.41556407 -66.69198892 88.92652013 -66.7421875 93.4375 C-66.83906607 102.29157686 -66.92343249 111.14572584 -67 120 C-67.66 120 -68.32 120 -69 120 C-69.020625 120.70125 -69.04125 121.4025 -69.0625 122.125 C-70.47124721 126.44515811 -73.28659503 128.52190112 -77 131 C-83.25750953 133.75330419 -90.27639601 133.68449061 -97 133 C-101.55798098 131.00088554 -104.07330844 128.28802621 -106.30859375 123.9296875 C-107.86863067 119.57568616 -107.67378453 115.60959638 -105.875 111.3125 C-99.22233232 103.1075432 -91.80979222 100.87820835 -81.671875 99.52734375 C-78.78811805 99.13542114 -78.78811805 99.13542114 -76 97 C-75.69959658 94.38482648 -75.59364384 92.00298144 -75.61523438 89.38500977 C-75.6098616 88.59949738 -75.60448883 87.81398499 -75.59895325 87.00466919 C-75.589157 85.29625983 -75.58623666 83.5878006 -75.58930969 81.87936592 C-75.59377356 79.17714168 -75.57982864 76.4755773 -75.56091309 73.77342224 C-75.52406259 68.03645907 -75.51040971 62.29956413 -75.5 56.5625 C-75.48793817 49.91934457 -75.46646809 43.27650883 -75.41999817 36.63349724 C-75.40638741 33.96831228 -75.41060641 31.30352724 -75.41540527 28.63832092 C-75.4060669 27.00700363 -75.39589865 25.3756908 -75.38476562 23.74438477 C-75.39091385 23.00090286 -75.39706207 22.25742096 -75.40339661 21.4914093 C-75.34325201 16.48504575 -75.34325201 16.48504575 -73.63188171 14.06672668 C-71.32736905 12.56031532 -69.18366821 12.12217209 -66.48828125 11.5703125 C-65.35261719 11.33473633 -64.21695313 11.09916016 -63.046875 10.85644531 C-61.81453125 10.61506836 -60.5821875 10.37369141 -59.3125 10.125 C-58.04277344 9.8681543 -56.77304687 9.61130859 -55.46484375 9.34667969 C-44.15090668 7.09130577 -32.76574083 5.2960412 -21.34887695 3.64892578 C-19.42821411 3.36637939 -19.42821411 3.36637939 -17.46875 3.078125 C-16.33888672 2.91731445 -15.20902344 2.75650391 -14.04492188 2.59082031 C-0.47823929 -0.04158603 -0.47823929 -0.04158603 0 0 Z " fill="#FCF8F9" transform="translate(428,345)"/>
<path d="M0 0 C0.99 0.495 0.99 0.495 2 1 C3.49642821 1.61296002 4.99708744 2.21561542 6.5 2.8125 C7.38429688 3.16441406 8.26859375 3.51632812 9.1796875 3.87890625 C10.11039063 4.24886719 11.04109375 4.61882812 12 5 C13.87517518 5.7495619 15.75018424 6.49953956 17.625 7.25 C18.46289062 7.58515625 19.30078125 7.9203125 20.1640625 8.265625 C21.07285156 8.62914062 21.07285156 8.62914062 22 9 C21.67 9.66 21.34 10.32 21 11 C19.02 10.67 17.04 10.34 15 10 C14.67 10.66 14.34 11.32 14 12 C13.34 12 12.68 12 12 12 C11.67 10.35 11.34 8.7 11 7 C9.35 6.67 7.7 6.34 6 6 C5.67 6.99 5.34 7.98 5 9 C4.01 8.67 3.02 8.34 2 8 C2 6.68 2 5.36 2 4 C-12.83869747 3.97659377 -27.67739249 3.95898297 -42.5161047 3.94818783 C-49.40665747 3.94304125 -56.29719875 3.93602989 -63.18774414 3.92456055 C-69.8402205 3.91349279 -76.49268807 3.90771172 -83.14517403 3.90512276 C-85.68041738 3.90327824 -88.2156601 3.89967637 -90.75089836 3.89426994 C-94.30782344 3.88698794 -97.8646995 3.88601208 -101.42163086 3.88647461 C-102.46460831 3.88287933 -103.50758575 3.87928406 -104.58216858 3.87557983 C-110.46218158 3.88382784 -116.19816894 3.98814745 -122 5 C-122.66 5.99 -123.32 6.98 -124 8 C-124.7425 7.773125 -125.485 7.54625 -126.25 7.3125 C-129.02517675 6.67488012 -129.02517675 6.67488012 -130.875 8.4375 C-133.89407944 10.65741135 -136.35519308 10.21027732 -140 10 C-140 10.66 -140 11.32 -140 12 C-141.32 12.33 -142.64 12.66 -144 13 C-143.34 15.64 -142.68 18.28 -142 21 C-146 20 -146 20 -148 19 C-148.33 18.01 -148.66 17.02 -149 16 C-149.99 16.33 -150.98 16.66 -152 17 C-151.67 17.99 -151.34 18.98 -151 20 C-151.6590841 21.66967972 -152.32650839 23.33607955 -153 25 C-153.16798262 27.70886941 -153.16798262 27.70886941 -153 30 C-155.31 30.66 -157.62 31.32 -160 32 C-162.71099263 45.40933686 -162.25399658 58.91076865 -162.1953125 72.5234375 C-162.19157629 75.08175546 -162.1887322 77.64007486 -162.18673706 80.19839478 C-162.17992109 86.20805965 -162.16421208 92.21763557 -162.14403808 98.227265 C-162.12154606 105.07871842 -162.11065249 111.93017573 -162.10064721 118.78165698 C-162.07984117 132.85447884 -162.04474907 146.92723532 -162 161 C-164.6539553 158.3460447 -164.27151383 157.06474997 -164.31884766 153.35693359 C-164.34865219 151.58532364 -164.34865219 151.58532364 -164.37905884 149.77792358 C-164.39061005 148.49769318 -164.40216125 147.21746277 -164.4140625 145.8984375 C-164.43342865 144.59170074 -164.4527948 143.28496399 -164.4727478 141.93862915 C-164.5241417 138.46332891 -164.56372822 134.98798988 -164.60089111 131.51251221 C-164.64088553 127.96657659 -164.69199859 124.42080338 -164.7421875 120.875 C-164.83903247 113.91678524 -164.92340966 106.95846635 -165 100 C-166.32 100.99 -167.64 101.98 -169 103 C-169.66 102.67 -170.32 102.34 -171 102 C-170.34 101.01 -169.68 100.02 -169 99 C-168.01 99 -167.02 99 -166 99 C-166 97.02 -166 95.04 -166 93 C-166.33 93 -166.66 93 -167 93 C-168.64705882 64.61764706 -168.64705882 64.61764706 -167 57 C-166.34 57 -165.68 57 -165 57 C-165.185625 55.7625 -165.37125 54.525 -165.5625 53.25 C-165.95074849 50.19254315 -165.98536939 47.95610816 -165 45 C-165 44.01 -165 43.02 -165 42 C-165 40.68 -165 39.36 -165 38 C-165.99 38.66 -166.98 39.32 -168 40 C-167.71125 39.46375 -167.4225 38.9275 -167.125 38.375 C-165.88653423 35.91975191 -165.88653423 35.91975191 -165.0625 32.8125 C-164.711875 31.884375 -164.36125 30.95625 -164 30 C-163.01 29.67 -162.02 29.34 -161 29 C-160.30562253 27.00945124 -159.64389782 25.00744615 -159 23 C-156.61772313 19.10894778 -154.02062893 15.42337946 -151 12 C-150.34 12 -149.68 12 -149 12 C-149 11.34 -149 10.68 -149 10 C-146.90449616 8.8558855 -144.80071042 7.73559234 -142.6875 6.625 C-142.11193359 6.30789063 -141.53636719 5.99078125 -140.94335938 5.6640625 C-131.72504546 0.88050501 -121.65707166 0.7083855 -111.47607422 0.78881836 C-110.27638504 0.7901326 -109.07669586 0.79144684 -107.84065247 0.7928009 C-104.58713054 0.79813687 -101.33379213 0.81225947 -98.08031988 0.83014369 C-94.66555108 0.84649585 -91.25076889 0.85049255 -87.83596802 0.85560608 C-81.38469965 0.8669312 -74.93350231 0.88762664 -68.48227322 0.91250378 C-56.90080146 0.95706935 -45.31930309 0.98999179 -33.73776829 1.01274782 C-30.34135952 1.01978339 -26.9449935 1.02941034 -23.54861069 1.04459953 C-19.77573419 1.06115697 -16.00287962 1.07200014 -12.22998047 1.08178711 C-11.1007164 1.08852448 -9.97145233 1.09526184 -8.80796814 1.10220337 C-7.27733986 1.10447685 -7.27733986 1.10447685 -5.71578979 1.10679626 C-4.8239543 1.11031569 -3.9321188 1.11383512 -3.01325798 1.1174612 C-1.00236609 1.22393978 -1.00236609 1.22393978 0 0 Z " fill="#FA6C73" transform="translate(445,314)"/>
<path d="M0 0 C0.33 0.99 0.66 1.98 1 3 C-4.16524682 11.47028237 -13.55800637 17.45695252 -23 20 C-31.43114372 21.63581295 -39.66305941 22.30096975 -48.23754883 22.30639648 C-49.38417496 22.31472 -50.53080109 22.32304352 -51.71217346 22.33161926 C-55.46049505 22.35549372 -59.20864197 22.36446277 -62.95703125 22.37109375 C-65.59055121 22.38007575 -68.2240707 22.38919784 -70.85758972 22.39845276 C-76.36217899 22.41573488 -81.86672449 22.42266448 -87.37133789 22.42553711 C-93.69205267 22.42916923 -100.01228108 22.45906856 -106.33284742 22.50094169 C-112.46404431 22.54010379 -118.59500818 22.55113513 -124.72632408 22.55226326 C-127.31162851 22.55644023 -129.89693431 22.5687716 -132.48215675 22.58978081 C-166.30245066 22.84281766 -166.30245066 22.84281766 -180.1796875 10.96484375 C-181.95019862 9.05375556 -182.98998237 7.38683112 -184 5 C-180.535 4.505 -180.535 4.505 -177 4 C-176.896875 4.639375 -176.79375 5.27875 -176.6875 5.9375 C-176.460625 6.618125 -176.23375 7.29875 -176 8 C-175.01 8.33 -174.02 8.66 -173 9 C-173 9.99 -173 10.98 -173 12 C-172.4225 11.835 -171.845 11.67 -171.25 11.5 C-166.88491412 10.52998092 -163.97041182 11.23537253 -160 13 C-160 13.99 -160 14.98 -160 16 C-160.66 16.33 -161.32 16.66 -162 17 C-160.02 17.66 -158.04 18.32 -156 19 C-156 18.01 -156 17.02 -156 16 C-155.34 16 -154.68 16 -154 16 C-153.56118657 16.48742046 -153.12237314 16.97484093 -152.67026234 17.47703171 C-150.45797114 19.49422941 -149.23890316 19.37263618 -146.27580261 19.36749268 C-145.30430771 19.37306183 -144.33281281 19.37863098 -143.33187866 19.3843689 C-142.26740509 19.37515411 -141.20293152 19.36593933 -140.10620117 19.35644531 C-138.98398666 19.35848969 -137.86177216 19.36053406 -136.70555115 19.36264038 C-132.98452622 19.3656558 -129.26394126 19.34714445 -125.54296875 19.328125 C-122.96088267 19.32506794 -120.37879494 19.32319142 -117.79670715 19.32244873 C-112.37864476 19.31784048 -106.96073938 19.30378722 -101.54272461 19.28125 C-94.59877261 19.25242332 -87.65492281 19.24203042 -80.71091747 19.2375679 C-75.37578704 19.23400778 -70.04067928 19.22358642 -64.70556068 19.21169281 C-62.14551291 19.2059958 -59.58546288 19.20123522 -57.02541161 19.19742584 C-53.44422812 19.19054509 -49.86313645 19.17690269 -46.28198242 19.16113281 C-44.6943811 19.15945602 -44.6943811 19.15945602 -43.07470703 19.15774536 C-38.2731172 19.12976674 -33.71973899 19.00760906 -29 18 C-29 16.68 -29 15.36 -29 14 C-28.67 13.01 -28.34 12.02 -28 11 C-23.53991177 11 -19.52292578 11.20758539 -15.10546875 11.87890625 C-12.65494618 12.12470663 -12.65494618 12.12470663 -9 11 C-9 8.03 -9 5.06 -9 2 C-7.02 2.495 -7.02 2.495 -5 3 C-2.31850007 2.61432869 -2.31850007 2.61432869 0 2 C0 1.34 0 0.68 0 0 Z " fill="#FA3753" transform="translate(476,489)"/>
<path d="M0 0 C1.32 0 2.64 0 4 0 C3.835 0.66 3.67 1.32 3.5 2 C2.59832116 7.41007305 2.10622436 11.88934123 4.6875 16.8125 C7.0616959 20.08504029 8.41950466 21.2734169 12 23 C19.41509967 23.97971524 27.30665413 23.57723704 34 20 C36.87685203 17.45911321 36.87685203 17.45911321 39 15 C39.66 15 40.32 15 41 15 C41 14.01 41 13.02 41 12 C41.66 12 42.32 12 43 12 C42.835 13.051875 42.67 14.10375 42.5 15.1875 C41.93769202 18.83424047 41.93769202 18.83424047 42 21.875 C42 22.57625 42 23.2775 42 24 C41.505 24.495 41.505 24.495 41 25 C41.495 26.485 41.495 26.485 42 28 C38.60972554 29.13009149 37.41451141 28.71989699 34 28 C32.10463073 27.95805545 30.20788184 27.95862741 28.3125 28 C23.22049287 28.11024643 23.22049287 28.11024643 21 27 C18.1335252 27.11546726 15.29604146 27.2806507 12.4375 27.5 C9.62138865 27.71504018 6.82330485 27.88223963 4 28 C3 27 3 27 2.90234375 25.15234375 C2.95117188 22.07617188 2.95117188 22.07617188 3 19 C2.05125 19.020625 1.1025 19.04125 0.125 19.0625 C-3 19 -3 19 -5 18 C-5 15.36 -5 12.72 -5 10 C-5.66 10 -6.32 10 -7 10 C-7 9.34 -7 8.68 -7 8 C-6.34 8 -5.68 8 -5 8 C-5.33 7.01 -5.66 6.02 -6 5 C-5.01 4.67 -4.02 4.34 -3 4 C-2.34 5.65 -1.68 7.3 -1 9 C-0.67 6.03 -0.34 3.06 0 0 Z " fill="#F52E47" transform="translate(319,454)"/>
<path d="M0 0 C0.33 0 0.66 0 1 0 C0.92894547 0.84502075 0.85789093 1.6900415 0.78468323 2.56066895 C-0.20437088 15.94337231 -0.12669266 29.30594654 -0.09765625 42.71875 C-0.0957875 45.27421033 -0.09436576 47.82967102 -0.09336853 50.38513184 C-0.08996477 56.38053268 -0.08211604 62.37591114 -0.07201904 68.37130308 C-0.0607598 75.20830079 -0.05532298 82.04529949 -0.05032361 88.88230419 C-0.03993004 102.92154639 -0.02239242 116.96077216 0 131 C-2.6539553 128.3460447 -2.27151383 127.06474997 -2.31884766 123.35693359 C-2.34865219 121.58532364 -2.34865219 121.58532364 -2.37905884 119.77792358 C-2.39061005 118.49769318 -2.40216125 117.21746277 -2.4140625 115.8984375 C-2.43342865 114.59170074 -2.4527948 113.28496399 -2.4727478 111.93862915 C-2.5241417 108.46332891 -2.56372822 104.98798988 -2.60089111 101.51251221 C-2.64088553 97.96657659 -2.69199859 94.42080338 -2.7421875 90.875 C-2.83903247 83.91678524 -2.92340966 76.95846635 -3 70 C-4.32 70.99 -5.64 71.98 -7 73 C-7.66 72.67 -8.32 72.34 -9 72 C-8.34 71.01 -7.68 70.02 -7 69 C-6.01 69 -5.02 69 -4 69 C-4 67.02 -4 65.04 -4 63 C-4.33 63 -4.66 63 -5 63 C-6.64705882 34.61764706 -6.64705882 34.61764706 -5 27 C-4.34 27 -3.68 27 -3 27 C-3.185625 25.7625 -3.37125 24.525 -3.5625 23.25 C-3.95074849 20.19254315 -3.98536939 17.95610816 -3 15 C-3 14.01 -3 13.02 -3 12 C-3 10.68 -3 9.36 -3 8 C-3.99 8.66 -4.98 9.32 -6 10 C-4.34784004 6.42032008 -2.26875648 3.22017048 0 0 Z " fill="#FB6D83" transform="translate(283,344)"/>
<path d="M0 0 C0 16.17 0 32.34 0 49 C-0.33 49 -0.66 49 -1 49 C-1 33.16 -1 17.32 -1 1 C-11.395 2.485 -11.395 2.485 -22 4 C-23.65 4 -25.3 4 -27 4 C-26.505 5.98 -26.505 5.98 -26 8 C-24.865625 8.12375 -23.73125 8.2475 -22.5625 8.375 C-21.386875 8.58125 -20.21125 8.7875 -19 9 C-18.505 9.99 -18.505 9.99 -18 11 C-19.65614657 11.38218767 -21.32457024 11.71395102 -23 12 C-23.495 11.505 -23.495 11.505 -24 11 C-29.6047709 10.78673597 -29.6047709 10.78673597 -35 12 C-35 11.34 -35 10.68 -35 10 C-35.99 10.33 -36.98 10.66 -38 11 C-42.08594833 12.1865126 -45.76342394 12.14865179 -50 12 C-49.67 11.34 -49.34 10.68 -49 10 C-52.63 10.33 -56.26 10.66 -60 11 C-59.67 10.34 -59.34 9.68 -59 9 C-57.07666016 8.46923828 -57.07666016 8.46923828 -54.5390625 8.0703125 C-53.60126953 7.91667236 -52.66347656 7.76303223 -51.69726562 7.60473633 C-50.68341797 7.44642334 -49.66957031 7.28811035 -48.625 7.125 C-40.09858316 5.72634277 -31.64370584 4.16571037 -23.20556641 2.30712891 C-15.26238979 0.57151003 -8.27554067 0 0 0 Z " fill="#F8687C" transform="translate(423,378)"/>
<path d="M0 0 C0.99 0.495 0.99 0.495 2 1 C3.49642821 1.61296002 4.99708744 2.21561542 6.5 2.8125 C7.38429688 3.16441406 8.26859375 3.51632812 9.1796875 3.87890625 C10.11039063 4.24886719 11.04109375 4.61882812 12 5 C13.87517518 5.7495619 15.75018424 6.49953956 17.625 7.25 C18.46289062 7.58515625 19.30078125 7.9203125 20.1640625 8.265625 C21.07285156 8.62914062 21.07285156 8.62914062 22 9 C21.67 9.66 21.34 10.32 21 11 C19.02 10.67 17.04 10.34 15 10 C14.67 10.66 14.34 11.32 14 12 C13.34 12 12.68 12 12 12 C11.67 10.35 11.34 8.7 11 7 C9.35 6.67 7.7 6.34 6 6 C5.67 6.99 5.34 7.98 5 9 C4.01 8.67 3.02 8.34 2 8 C2 6.68 2 5.36 2 4 C-22.79716661 2.84606529 -47.60537189 2.69017748 -72.42456055 2.46777344 C-78.03046213 2.41673961 -83.63632218 2.36148952 -89.2421875 2.30664062 C-100.16142253 2.20040281 -111.08069425 2.09868353 -122 2 C-122 1.67 -122 1.34 -122 1 C-121.37732018 1.00092179 -120.75464037 1.00184359 -120.11309147 1.00279331 C-104.9828931 1.02484882 -89.85269964 1.04141168 -74.72248936 1.05181217 C-67.40572598 1.05697506 -60.0889733 1.06401762 -52.7722168 1.07543945 C-46.39716982 1.08538651 -40.02213059 1.09185348 -33.64707607 1.09408849 C-30.26951986 1.09539557 -26.89198584 1.09848119 -23.51443672 1.10573006 C-19.74992657 1.11293613 -15.98546315 1.11399113 -12.22094727 1.11352539 C-11.09310318 1.11712067 -9.96525909 1.12071594 -8.80323792 1.12442017 C-7.27400696 1.12235817 -7.27400696 1.12235817 -5.71388245 1.12025452 C-4.82250863 1.12117631 -3.93113482 1.1220981 -3.01274967 1.12304783 C-1.00238464 1.22326506 -1.00238464 1.22326506 0 0 Z " fill="#F98078" transform="translate(445,314)"/>
<path d="M0 0 C0.495 1.485 0.495 1.485 1 3 C-4.82199501 12.54725756 -15.10853376 17.88277735 -25.5625 20.6875 C-28.7217373 21.09253042 -31.81910501 21.06237049 -35 21 C-35 20.34 -35 19.68 -35 19 C-33.02 18.67 -31.04 18.34 -29 18 C-29 16.68 -29 15.36 -29 14 C-28.67 13.01 -28.34 12.02 -28 11 C-23.53991177 11 -19.52292578 11.20758539 -15.10546875 11.87890625 C-12.65494618 12.12470663 -12.65494618 12.12470663 -9 11 C-9 8.03 -9 5.06 -9 2 C-7.68 2.33 -6.36 2.66 -5 3 C-2.31850007 2.61432869 -2.31850007 2.61432869 0 2 C0 1.34 0 0.68 0 0 Z " fill="#F7263E" transform="translate(476,489)"/>
<path d="M0 0 C0.66 0 1.32 0 2 0 C2 1.65 2 3.3 2 5 C0.6696875 5.13148437 0.6696875 5.13148437 -0.6875 5.265625 C-4.42567629 6.09437163 -6.10952026 7.28568074 -9 9.75 C-9.804375 10.42546875 -10.60875 11.1009375 -11.4375 11.796875 C-12.283125 12.52390625 -13.12875 13.2509375 -14 14 C-14.98613281 14.78117187 -15.97226563 15.56234375 -16.98828125 16.3671875 C-20.19121117 19.03612495 -22.68090731 22.05894602 -25.1875 25.375 C-25.61224609 25.91382812 -26.03699219 26.45265625 -26.47460938 27.0078125 C-29.3933853 30.82083237 -31.21525516 34.54617728 -33 39 C-33.53625 39.845625 -34.0725 40.69125 -34.625 41.5625 C-36.21453872 44.38031864 -36.62872209 46.80700997 -37 50 C-37.66 50 -38.32 50 -39 50 C-39.06058594 50.69867188 -39.12117188 51.39734375 -39.18359375 52.1171875 C-39.30927734 53.48230469 -39.30927734 53.48230469 -39.4375 54.875 C-39.51871094 55.77992187 -39.59992188 56.68484375 -39.68359375 57.6171875 C-40 60 -40 60 -41 62 C-41.23274209 64.87910588 -41.41972757 67.74146495 -41.5625 70.625 C-41.60568359 71.42679687 -41.64886719 72.22859375 -41.69335938 73.0546875 C-41.79951457 75.0362511 -41.90026855 77.01810271 -42 79 C-42.66 79 -43.32 79 -44 79 C-44.27301821 61.0718043 -44.27301821 61.0718043 -41 53 C-40.56405952 51.31737608 -40.14811143 49.6294736 -39.75 47.9375 C-37.7572762 40.40602594 -34.31506953 33.47260429 -30 27 C-29.34 27 -28.68 27 -28 27 C-27.75765625 26.27941406 -27.5153125 25.55882813 -27.265625 24.81640625 C-24.14102333 17.86320314 -17.70173494 11.59605289 -11 8 C-10.34 8 -9.68 8 -9 8 C-8.67 7.01 -8.34 6.02 -8 5 C-2.77777778 2 -2.77777778 2 0 2 C0 1.34 0 0.68 0 0 Z " fill="#FEC995" transform="translate(117,47)"/>
<path d="M0 0 C0.33 0 0.66 0 1 0 C1.06991506 8.39805072 1.12301976 16.79597716 1.15543652 25.1942482 C1.17100523 29.09509915 1.19207974 32.99574907 1.22631836 36.89648438 C1.25922949 40.67016285 1.27691889 44.44364957 1.28463173 48.21746063 C1.29011891 49.64777387 1.30083163 51.07807819 1.31719017 52.50830841 C1.41330158 61.27031595 1.07986392 69.68387024 -2 78 C-2.99 78.99 -2.99 78.99 -4 80 C-4.99 80 -5.98 80 -7 80 C-7.31174429 73.51110041 -7.48149172 68.70964642 -4 63 C-3.31363375 60.76474965 -3.31363375 60.76474965 -3 59 C-2.34 59.33 -1.68 59.66 -1 60 C-0.505 30.3 -0.505 30.3 0 0 Z " fill="#F82A46" transform="translate(483,408)"/>
<path d="M0 0 C6.93 0 13.86 0 21 0 C21 0.99 21 1.98 21 3 C29.91 2.01 29.91 2.01 39 1 C35.99812293 4.00187707 32.32479358 3.92651603 28.2734375 4.5078125 C26.97921371 4.70333206 26.97921371 4.70333206 25.65884399 4.90280151 C22.89865845 5.31796115 20.1369262 5.72159953 17.375 6.125 C15.50509526 6.40419166 13.63530187 6.68413018 11.765625 6.96484375 C7.17833119 7.65190705 2.58961741 8.32864135 -2 9 C-2 8.34 -2 7.68 -2 7 C-1.34 7 -0.68 7 0 7 C0 4.69 0 2.38 0 0 Z " fill="#F84F69" transform="translate(380,345)"/>
<path d="M0 0 C2.64 0 5.28 0 8 0 C8.05058526 7.08411622 8.08568494 14.16818612 8.10986328 21.25244141 C8.11993954 23.66391744 8.13360081 26.07538122 8.15087891 28.48681641 C8.1750559 31.94697085 8.18646669 35.4069642 8.1953125 38.8671875 C8.20563507 39.95055389 8.21595764 41.03392029 8.22659302 42.15011597 C8.22674408 43.1510025 8.22689514 44.15188904 8.22705078 45.18310547 C8.231492 46.06690887 8.23593323 46.95071228 8.24050903 47.86129761 C8 50 8 50 6 52 C0.78555016 53.87720194 -3.54513151 54.19139889 -9 54 C-9.495 52.515 -9.495 52.515 -10 51 C-12.00016466 49.79117904 -12.00016466 49.79117904 -14 49 C-10.32431536 48.08107884 -8.83619425 48.04095144 -5 49 C-1.37 48.34 2.26 47.68 6 47 C6 32.15 6 17.3 6 2 C3.03 1.505 3.03 1.505 0 1 C0 0.67 0 0.34 0 0 Z " fill="#F7344E" transform="translate(414,379)"/>
<path d="M0 0 C2.64 0 5.28 0 8 0 C8 0.66 8 1.32 8 2 C8.99 2.33 9.98 2.66 11 3 C10.67 4.32 10.34 5.64 10 7 C6.19755532 8.1326431 2.45731367 9.11767512 -1.4375 9.875 C-5.39289383 10.71872735 -8.64970485 12.13872492 -12.17578125 14.09765625 C-14.09677247 15.04786818 -15.90972903 15.55241438 -18 16 C-19 10.25 -19 10.25 -19 8 C-12.73 7.67 -6.46 7.34 0 7 C0 4.69 0 2.38 0 0 Z " fill="#F6354E" transform="translate(341,437)"/>
<path d="M0 0 C-0.66 0.66 -1.32 1.32 -2 2 C-2.64767793 4.57061311 -2.64767793 4.57061311 -3 7 C-3.66 7 -4.32 7 -5 7 C-5 7.66 -5 8.32 -5 9 C-5.66 9 -6.32 9 -7 9 C-7 8.34 -7 7.68 -7 7 C-8.794375 7.2165625 -8.794375 7.2165625 -10.625 7.4375 C-11.71554687 7.56898438 -11.71554687 7.56898438 -12.828125 7.703125 C-14.68867186 7.95744435 -16.53494083 8.31267313 -18.375 8.6875 C-19.24125 8.790625 -20.1075 8.89375 -21 9 C-23 7 -23 7 -23.125 3.375 C-23.08375 2.26125 -23.0425 1.1475 -23 0 C-21.97519531 0.01160156 -20.95039063 0.02320313 -19.89453125 0.03515625 C-18.533856 0.04454022 -17.17317876 0.05363977 -15.8125 0.0625 C-15.13896484 0.07087891 -14.46542969 0.07925781 -13.77148438 0.08789062 C-10.82548826 0.10226134 -8.0920485 0.01861511 -5.19921875 -0.56640625 C-3 -1 -3 -1 0 0 Z " fill="#F72C46" transform="translate(422,464)"/>
<path d="M0 0 C0.33 0 0.66 0 1 0 C1.12669211 7.33216928 1.21430617 14.66405677 1.2746582 21.99707031 C1.29981494 24.49196928 1.33394403 26.98679446 1.37719727 29.48144531 C1.43779434 33.06594028 1.46619892 36.64946163 1.48828125 40.234375 C1.51408768 41.35116638 1.5398941 42.46795776 1.56648254 43.61859131 C1.56930051 51.38461718 1.56930051 51.38461718 -1.53051758 54.73535156 C-2.75291138 55.36135254 -2.75291138 55.36135254 -4 56 C-4.66 55.67 -5.32 55.34 -6 55 C-5.34 54.01 -4.68 53.02 -4 52 C-3.01 52 -2.02 52 -1 52 C-1 50.02 -1 48.04 -1 46 C-1.33 46 -1.66 46 -2 46 C-3.64705882 17.61764706 -3.64705882 17.61764706 -2 10 C-1.34 10 -0.68 10 0 10 C-0.185625 8.72125 -0.37125 7.4425 -0.5625 6.125 C-1.125 2.25 -1.125 2.25 0 0 Z " fill="#FA8680" transform="translate(280,361)"/>
<path d="M0 0 C0 0.99 0 1.98 0 3 C0.99 3.33 1.98 3.66 3 4 C3 4.99 3 5.98 3 7 C3.5775 6.835 4.155 6.67 4.75 6.5 C9.11508588 5.52998092 12.02958818 6.23537253 16 8 C16 8.99 16 9.98 16 11 C15.01 11.495 15.01 11.495 14 12 C14.99 12.33 15.98 12.66 17 13 C17 13.66 17 14.32 17 15 C7.76032762 13.84504095 0.68988624 10.45393589 -6 4 C-7.2578125 1.77734375 -7.2578125 1.77734375 -8 0 C-4.71023192 -1.09658936 -3.28696233 -0.79953138 0 0 Z " fill="#F5283F" transform="translate(300,494)"/>
<path d="M0 0 C0.66 0 1.32 0 2 0 C2.03758423 1.5634314 2.03758423 1.5634314 2.07592773 3.15844727 C2.17154069 7.10042461 2.27135701 11.04228708 2.37231445 14.98413086 C2.41509183 16.67616044 2.45679438 18.3682176 2.49731445 20.06030273 C2.72986502 29.73842559 3.07978785 39.36340474 3.89868164 49.01147461 C3.9878724 51.64227953 3.81734505 53.52288594 3 56 C2.01 56 1.02 56 0 56 C0 37.52 0 19.04 0 0 Z " fill="#F93049" transform="translate(431,399)"/>
<path d="M0 0 C0 0.33 0 0.66 0 1 C-0.62648438 1.03738281 -1.25296875 1.07476562 -1.8984375 1.11328125 C-2.71570313 1.17902344 -3.53296875 1.24476563 -4.375 1.3125 C-5.59316406 1.39951172 -5.59316406 1.39951172 -6.8359375 1.48828125 C-9.37921338 1.82990528 -9.37921338 1.82990528 -11 5 C-11.7425 4.773125 -12.485 4.54625 -13.25 4.3125 C-16.02517675 3.67488012 -16.02517675 3.67488012 -17.875 5.4375 C-20.89407944 7.65741135 -23.35519308 7.21027732 -27 7 C-27 7.66 -27 8.32 -27 9 C-28.32 9.33 -29.64 9.66 -31 10 C-30.34 12.64 -29.68 15.28 -29 18 C-33 17 -33 17 -35 16 C-35.625 12.9375 -35.625 12.9375 -36 10 C-23.46766194 2.33441627 -14.93593602 -0.41552836 0 0 Z " fill="#F9576E" transform="translate(332,317)"/>
<path d="M0 0 C0.66 1.32 1.32 2.64 2 4 C2.33 4.33 2.66 4.66 3 5 C3.15686249 6.55948542 3.25076639 8.12542668 3.31640625 9.69140625 C3.35830078 10.63564453 3.40019531 11.57988281 3.44335938 12.55273438 C3.48267578 13.54595703 3.52199219 14.53917969 3.5625 15.5625 C3.62727539 17.05813477 3.62727539 17.05813477 3.69335938 18.58398438 C3.79980298 21.0558415 3.90181928 23.5278031 4 26 C4.66 26 5.32 26 6 26 C6 28.97 6 31.94 6 35 C4.68 35 3.36 35 2 35 C1.67 32.69 1.34 30.38 1 28 C0.67 28 0.34 28 0 28 C0 18.76 0 9.52 0 0 Z " fill="#F9344E" transform="translate(362,419)"/>
<path d="M0 0 C0.99 0.33 1.98 0.66 3 1 C2.01 1.33 1.02 1.66 0 2 C-1.51617907 3.69863938 -1.51617907 3.69863938 -2 6 C-1.2884375 7.1446875 -1.2884375 7.1446875 -0.5625 8.3125 C1.5201261 11.89461689 0.85256866 14.04718167 0 18 C-1.65 18.66 -3.3 19.32 -5 20 C-6.84193854 16.31612293 -6.36231308 12.02993847 -6 8 C-4.52091164 4.68965938 -2.6773109 2.42232891 0 0 Z " fill="#FCFAFB" transform="translate(397,437)"/>
<path d="M0 0 C0.33 0 0.66 0 1 0 C1.33 15.84 1.66 31.68 2 48 C3.485 47.505 3.485 47.505 5 47 C3.79618552 49.49361571 2.54571278 51.68143083 1 54 C0.34 54 -0.32 54 -1 54 C-1 53.34 -1 52.68 -1 52 C-5.455 52.495 -5.455 52.495 -10 53 C-8 51 -8 51 -4.9375 50 C-1.87849194 49.34247444 -1.87849194 49.34247444 -1 47 C-0.88194823 45.4892243 -0.82303551 43.97361169 -0.79467773 42.45849609 C-0.77473251 41.51767181 -0.75478729 40.57684753 -0.73423767 39.60751343 C-0.71752518 38.58976837 -0.70081268 37.57202332 -0.68359375 36.5234375 C-0.6524221 34.96286118 -0.6524221 34.96286118 -0.62062073 33.37075806 C-0.55510128 30.03890751 -0.49622908 26.7069765 -0.4375 23.375 C-0.39431706 21.11978326 -0.35070285 18.86457473 -0.30664062 16.609375 C-0.19941748 11.07300236 -0.09765554 5.53654922 0 0 Z " fill="#FBE2E5" transform="translate(423,380)"/>
<path d="M0 0 C2 1 2 1 3.0703125 3.65234375 C3.41835937 4.73644531 3.76640625 5.82054687 4.125 6.9375 C4.47820312 8.01902344 4.83140625 9.10054688 5.1953125 10.21484375 C6 13 6 13 6 15 C6.66 15.33 7.32 15.66 8 16 C10.13473602 19.20210403 11.6226422 22.41886972 13 26 C13.65213539 27.34050052 14.31379969 28.67661368 15 30 C15.66 30 16.32 30 17 30 C17.66 31.98 18.32 33.96 19 36 C14.93315749 34.64438583 14.24108969 32.59932586 12 29 C11.319375 28.01 10.63875 27.02 9.9375 26 C4.87975859 18.16865846 0.8131289 9.35098236 0 0 Z " fill="#FE8FF9" transform="translate(76,410)"/>
<path d="M0 0 C2.64 0 5.28 0 8 0 C8 0.66 8 1.32 8 2 C8.66 1.67 9.32 1.34 10 1 C11.87379605 0.92966231 13.75001102 0.9156978 15.625 0.9375 C17.12933594 0.95103516 17.12933594 0.95103516 18.6640625 0.96484375 C19.43492187 0.97644531 20.20578125 0.98804688 21 1 C21 1.33 21 1.66 21 2 C20.16021606 2.16604736 20.16021606 2.16604736 19.3034668 2.33544922 C16.76337823 2.84172841 14.22547661 3.35824231 11.6875 3.875 C10.80642578 4.04902344 9.92535156 4.22304688 9.01757812 4.40234375 C7.74624023 4.66337891 7.74624023 4.66337891 6.44921875 4.9296875 C5.66893311 5.08679199 4.88864746 5.24389648 4.0847168 5.40576172 C1.72270755 5.96432022 1.72270755 5.96432022 -1 8 C-1.66 7.67 -2.32 7.34 -3 7 C-3 6.34 -3 5.68 -3 5 C-2.34 5 -1.68 5 -1 5 C-0.67 3.35 -0.34 1.7 0 0 Z " fill="#F4536C" transform="translate(354,353)"/>
<path d="M0 0 C10.83634614 0.04175856 21.31917695 3.15958848 31 8 C31 8.66 31 9.32 31 10 C32.98 10.66 34.96 11.32 37 12 C36.67 12.66 36.34 13.32 36 14 C33.69 13.01 31.38 12.02 29 11 C29 10.34 29 9.68 29 9 C28.27554688 8.80664062 27.55109375 8.61328125 26.8046875 8.4140625 C18.46191646 6.16707617 18.46191646 6.16707617 15.0625 4.9375 C10.14613703 3.43249093 5.07596774 2.77207276 0 2 C0 1.34 0 0.68 0 0 Z " fill="#FFDA6E" transform="translate(163,39)"/>
<path d="M0 0 C3.63 0 7.26 0 11 0 C11 0.99 11 1.98 11 3 C19.91 2.01 19.91 2.01 29 1 C26.3575074 3.6424926 24.57865459 3.55439422 20.8984375 4.0703125 C19.68671875 4.24433594 18.475 4.41835938 17.2265625 4.59765625 C15.95554687 4.77167969 14.68453125 4.94570313 13.375 5.125 C11.456875 5.39763672 11.456875 5.39763672 9.5 5.67578125 C6.33430681 6.12464819 3.16772046 6.56571065 0 7 C0.33 6.34 0.66 5.68 1 5 C3.5625 4.375 3.5625 4.375 6 4 C4.68 3.67 3.36 3.34 2 3 C2 2.34 2 1.68 2 1 C1.34 0.67 0.68 0.34 0 0 Z " fill="#F87B90" transform="translate(390,345)"/>
<path d="M0 0 C2.31 0 4.62 0 7 0 C7.19491452 1.45736087 7.38069358 2.91594593 7.5625 4.375 C7.66691406 5.18710937 7.77132813 5.99921875 7.87890625 6.8359375 C8 9 8 9 7 11 C5.1875 10.8125 5.1875 10.8125 3 10 C0.37665094 6.62712264 -0.36372697 4.24348127 0 0 Z " fill="#F62A44" transform="translate(286,482)"/>
<path d="M0 0 C0 3.74110761 -0.25884204 7.4560694 -0.5 11.1875 C-0.54769531 11.93708984 -0.59539062 12.68667969 -0.64453125 13.45898438 C-0.76217832 15.30604344 -0.88097771 17.15302904 -1 19 C-1.99 18.67 -2.98 18.34 -4 18 C-5.63186199 13.10441403 -5.83931781 8.75493725 -3.625 4.125 C-2 2 -2 2 0 0 Z " fill="#FBE7E8" transform="translate(326,452)"/>
<path d="M0 0 C-0.48578543 3.12290635 -0.9986012 5.99580359 -2 9 C-2.99 9.495 -2.99 9.495 -4 10 C-4.46751788 12.35599235 -4.46751788 12.35599235 -4.625 15.0625 C-4.69976562 15.98160156 -4.77453125 16.90070313 -4.8515625 17.84765625 C-4.90054687 18.55792969 -4.94953125 19.26820313 -5 20 C-5.33 20 -5.66 20 -6 20 C-6 14.39 -6 8.78 -6 3 C-7.32 2.67 -8.64 2.34 -10 2 C-6.5980513 -0.09350689 -3.94727588 -0.17942163 0 0 Z " fill="#F75369" transform="translate(438,344)"/>
<path d="M0 0 C5.74120286 -0.35882518 9.74884177 0.74793423 15 3 C16.485 3.5878125 16.485 3.5878125 18 4.1875 C18.66 4.455625 19.32 4.72375 20 5 C19.67 5.66 19.34 6.32 19 7 C16.03 6.505 16.03 6.505 13 6 C12.67 6.66 12.34 7.32 12 8 C11.34 8 10.68 8 10 8 C9.67 6.35 9.34 4.7 9 3 C7.35 2.67 5.7 2.34 4 2 C3.67 2.99 3.34 3.98 3 5 C2.01 4.67 1.02 4.34 0 4 C0 2.68 0 1.36 0 0 Z " fill="#F7637C" transform="translate(447,318)"/>
<path d="M0 0 C0.804375 0.185625 1.60875 0.37125 2.4375 0.5625 C2.953125 0.706875 3.46875 0.85125 4 1 C0.7394904 4.2605096 -2.89083745 4.05467405 -7.3125 4.0625 C-9.1378125 4.0315625 -9.1378125 4.0315625 -11 4 C-10.67 3.34 -10.34 2.68 -10 2 C-13.63 2.33 -17.26 2.66 -21 3 C-20.67 2.34 -20.34 1.68 -20 1 C-13.31447623 -0.6568472 -6.73735102 -1.57682684 0 0 Z " fill="#F95E75" transform="translate(384,386)"/>
<path d="M0 0 C0.33 0 0.66 0 1 0 C0.46839258 9.01470449 -0.10504464 18.01236323 -1 27 C-1.33 27 -1.66 27 -2 27 C-2.16820551 25.06263299 -2.33451095 23.12510094 -2.5 21.1875 C-2.5928125 20.10855469 -2.685625 19.02960938 -2.78125 17.91796875 C-3.03002169 14.59953215 -3 11.32899764 -3 8 C-3.99 8.66 -4.98 9.32 -6 10 C-4.34784004 6.42032008 -2.26875648 3.22017048 0 0 Z " fill="#F97778" transform="translate(283,344)"/>
<path d="M0 0 C0.66 0.99 1.32 1.98 2 3 C1.37943989 4.68437744 0.70710678 6.35008418 0 8 C-0.16798262 10.70886941 -0.16798262 10.70886941 0 13 C-2.64 13.66 -5.28 14.32 -8 15 C-6.62712658 11.30123909 -4.93644547 8.0485524 -2.875 4.6875 C-2.33617187 3.80449219 -1.79734375 2.92148437 -1.2421875 2.01171875 C-0.83226562 1.34785156 -0.42234375 0.68398438 0 0 Z " fill="#F8536B" transform="translate(292,331)"/>
<path d="M0 0 C0.66 0 1.32 0 2 0 C2 1.65 2 3.3 2 5 C1.12085937 5.08121094 0.24171875 5.16242187 -0.6640625 5.24609375 C-4.53342928 6.12055252 -6.37487477 7.50833933 -9.375 10.0625 C-10.68597656 11.16271484 -10.68597656 11.16271484 -12.0234375 12.28515625 C-13.00183594 13.13400391 -13.00183594 13.13400391 -14 14 C-14.33 13.01 -14.66 12.02 -15 11 C-11.25 8 -11.25 8 -9 8 C-8.67 7.01 -8.34 6.02 -8 5 C-2.77777778 2 -2.77777778 2 0 2 C0 1.34 0 0.68 0 0 Z " fill="#FFC587" transform="translate(117,47)"/>
<path d="M0 0 C1.9375 0.3125 1.9375 0.3125 4 1 C4.33 1.99 4.66 2.98 5 4 C6.59924507 5.1539808 6.59924507 5.1539808 8.5 6.0625 C11.89821183 7.79642366 11.89821183 7.79642366 13 10 C15.01669827 11.13350534 15.01669827 11.13350534 17 12 C16.67 12.99 16.34 13.98 16 15 C14.02943923 13.53308131 12.06269612 12.06154372 10.1015625 10.58203125 C8.47226377 9.35551455 6.83204384 8.14349882 5.1875 6.9375 C2.81993558 4.84051437 1.46949408 2.78430457 0 0 Z " fill="#FF80F8" transform="translate(95,446)"/>
<path d="M0 0 C3.36179774 1.44077046 5.59156268 3.24750021 8 6 C8 6.66 8 7.32 8 8 C5.36 8 2.72 8 0 8 C-0.79953138 4.71303767 -1.09658936 3.28976808 0 0 Z " fill="#F8304B" transform="translate(390,456)"/>
<path d="M0 0 C2.31 0 4.62 0 7 0 C6.67 0.99 6.34 1.98 6 3 C3.79355164 3.36572637 1.58471965 3.71708834 -0.625 4.0625 C-2.46964844 4.35833984 -2.46964844 4.35833984 -4.3515625 4.66015625 C-7.84573059 4.98563015 -10.59044235 4.75010268 -14 4 C-12 2 -12 2 -9.1796875 1.8046875 C-8.08914063 1.82789063 -6.99859375 1.85109375 -5.875 1.875 C-4.77929688 1.89304687 -3.68359375 1.91109375 -2.5546875 1.9296875 C-1.71164062 1.95289063 -0.86859375 1.97609375 0 2 C0 1.34 0 0.68 0 0 Z " fill="#F64E68" transform="translate(416,343)"/>
<path d="M0 0 C1.31611677 0.95336021 2.62778961 1.91285774 3.9375 2.875 C4.66839844 3.40867187 5.39929688 3.94234375 6.15234375 4.4921875 C8 6 8 6 9 8 C6.36 8.66 3.72 9.32 1 10 C0.855625 9.21625 0.71125 8.4325 0.5625 7.625 C0.12201075 5.03578982 0.12201075 5.03578982 -1 3 C-0.67 2.01 -0.34 1.02 0 0 Z " fill="#F75A74" transform="translate(467,325)"/>
<path d="M0 0 C0.66 0 1.32 0 2 0 C1.835 1.051875 1.67 2.10375 1.5 3.1875 C1.10430322 6.20468796 0.90821029 8.97093972 1 12 C0.34 12 -0.32 12 -1 12 C-1 11.34 -1 10.68 -1 10 C-2.32 10.33 -3.64 10.66 -5 11 C-4.1875 7.5625 -4.1875 7.5625 -3 4 C-2.01 3.67 -1.02 3.34 0 3 C0 2.01 0 1.02 0 0 Z " fill="#FA2D45" transform="translate(360,466)"/>
<path d="M0 0 C0.66 0 1.32 0 2 0 C1.34 3.63 0.68 7.26 0 11 C-0.66 11 -1.32 11 -2 11 C-2.103125 11.680625 -2.20625 12.36125 -2.3125 13.0625 C-3.14725019 16.62915989 -4.49472754 19.66222194 -6 23 C-6.66 22.67 -7.32 22.34 -8 22 C-5.94624742 16.14107133 -3.77830791 10.55661582 -1 5 C-0.30092586 2.26427415 -0.30092586 2.26427415 0 0 Z " fill="#FEB296" transform="translate(469,274)"/>
<path d="M0 0 C2 1 2 1 6 4 C-4.56 3.67 -15.12 3.34 -26 3 C-26 2.67 -26 2.34 -26 2 C-17.42 2 -8.84 2 0 2 C0 1.34 0 0.68 0 0 Z " fill="#FA7580" transform="translate(445,314)"/>
<path d="M0 0 C0.66 0 1.32 0 2 0 C4.33333333 7 6.66666667 14 9 21 C6.46361153 20.0318087 5.25171482 19.54340787 4.08691406 17.02880859 C3.89838867 16.24328613 3.70986328 15.45776367 3.515625 14.6484375 C3.30292969 13.79765625 3.09023437 12.946875 2.87109375 12.0703125 C2.66613281 11.18085938 2.46117187 10.29140625 2.25 9.375 C2.02957031 8.4778125 1.80914062 7.580625 1.58203125 6.65625 C1.03991063 4.44062658 0.51331016 2.22244288 0 0 Z " fill="#F887F7" transform="translate(205,289)"/>
<path d="M0 0 C4.455 1.98 4.455 1.98 9 4 C9 4.66 9 5.32 9 6 C9.9075 6.28875 10.815 6.5775 11.75 6.875 C14.32202908 7.76531776 16.61346766 8.71494413 19 10 C19 10.66 19 11.32 19 12 C14.27827359 10.62223181 10.27437928 8.59101512 6.125 6 C5.53203125 5.64421875 4.9390625 5.2884375 4.328125 4.921875 C2.84705957 4.00730003 1.41787784 3.00976463 0 2 C0 1.34 0 0.68 0 0 Z " fill="#FEBF5E" transform="translate(404,169)"/>
<path d="M0 0 C0.66 0 1.32 0 2 0 C1.979375 0.763125 1.95875 1.52625 1.9375 2.3125 C1.87057159 5.10185786 1.87057159 5.10185786 3 8 C1.625 9.5 1.625 9.5 0 11 C-0.66 11 -1.32 11 -2 11 C-2.25 3.375 -2.25 3.375 0 0 Z " fill="#F7465D" transform="translate(365,388)"/>
<path d="M0 0 C0.33 0.66 0.66 1.32 1 2 C-3.20788009 7.75545909 -7.41509524 12.55487173 -13 17 C-11.44182816 13.35015184 -9.18875601 10.8314046 -6.5 7.9375 C-4.09463269 5.34079665 -1.96595796 2.94893694 0 0 Z " fill="#E814CE" transform="translate(206,348)"/>
<path d="M0 0 C-5.27377728 2.92987626 -10.02749309 3.11710798 -16 3 C-16 2.34 -16 1.68 -16 1 C-10.26696495 -0.57300962 -5.84340558 -1.24327778 0 0 Z " fill="#FB2E47" transform="translate(457,507)"/>
<path d="M0 0 C0.33 0.99 0.66 1.98 1 3 C-3.29 7.62 -7.58 12.24 -12 17 C-12 12.92485275 -10.44507745 11.98720336 -7.6875 9.0625 C-4.94774847 6.13745126 -2.33663931 3.25919592 0 0 Z " fill="#ED17D8" transform="translate(171,390)"/>
<path d="M0 0 C0.99 0.33 1.98 0.66 3 1 C2.01 1.33 1.02 1.66 0 2 C-1.10836423 3.88316159 -1.10836423 3.88316159 -2 6 C-2.99 7.485 -2.99 7.485 -4 9 C-4.45394552 11.27912938 -4.45394552 11.27912938 -4.625 13.6875 C-4.69976562 14.49574219 -4.77453125 15.30398438 -4.8515625 16.13671875 C-4.90054687 16.75160156 -4.94953125 17.36648438 -5 18 C-5.33 18 -5.66 18 -6 18 C-6.55839416 7.34914842 -6.55839416 7.34914842 -3 3 C-1.3125 1.1875 -1.3125 1.1875 0 0 Z " fill="#FBDCDB" transform="translate(397,437)"/>
<path d="M0 0 C0.66 0.99 1.32 1.98 2 3 C-2.75 7 -2.75 7 -5 7 C-5.33 7.99 -5.66 8.98 -6 10 C-6.99 10 -7.98 10 -9 10 C-9 9.34 -9 8.68 -9 8 C-7.28515625 6.30859375 -7.28515625 6.30859375 -5.0625 4.4375 C-3.96615234 3.50744141 -3.96615234 3.50744141 -2.84765625 2.55859375 C-2.23792969 2.04425781 -1.62820312 1.52992188 -1 1 C-0.67 0.67 -0.34 0.34 0 0 Z " fill="#F42633" transform="translate(217,445)"/>
<path d="M0 0 C0.33 0.66 0.66 1.32 1 2 C1.66 2 2.32 2 3 2 C3.99 6.95 4.98 11.9 6 17 C5.34 16.67 4.68 16.34 4 16 C3.3671875 13.49609375 3.3671875 13.49609375 2.875 10.4375 C2.62363281 8.91962891 2.62363281 8.91962891 2.3671875 7.37109375 C2.24601562 6.58863281 2.12484375 5.80617187 2 5 C1.34 5 0.68 5 0 5 C0 3.35 0 1.7 0 0 Z " fill="#F79C83" transform="translate(466,225)"/>
<path d="M0 0 C-3.06532816 2.04355211 -4.38354689 2.38658825 -7.9375 2.75 C-8.79214844 2.84796875 -9.64679688 2.9459375 -10.52734375 3.046875 C-13.23766556 2.99549449 -14.70187794 2.38633814 -17 1 C-16.06027344 0.90912109 -16.06027344 0.90912109 -15.1015625 0.81640625 C-13.87566406 0.69072266 -13.87566406 0.69072266 -12.625 0.5625 C-11.81289063 0.48128906 -11.00078125 0.40007812 -10.1640625 0.31640625 C-3.4214876 -0.66942149 -3.4214876 -0.66942149 0 0 Z " fill="#F62A44" transform="translate(347,444)"/>
<path d="M0 0 C2.72168665 3.17530109 4.85559053 5.94254825 6 10 C5.625 12.3125 5.625 12.3125 5 14 C4.54625 13.071875 4.0925 12.14375 3.625 11.1875 C2.0578367 7.96078611 2.0578367 7.96078611 0 5 C-0.125 2.3125 -0.125 2.3125 0 0 Z " fill="#F96F88" transform="translate(477,335)"/>
<path d="M0 0 C0.33 0.99 0.66 1.98 1 3 C-0.28935919 4.14842923 -1.58156579 5.29366227 -2.875 6.4375 C-3.59429687 7.07558594 -4.31359375 7.71367187 -5.0546875 8.37109375 C-7 10 -7 10 -9 11 C-7.79618552 8.50638429 -6.54571278 6.31856917 -5 4 C-4.34 4 -3.68 4 -3 4 C-2.67 3.01 -2.34 2.02 -2 1 C-1.34 0.67 -0.68 0.34 0 0 Z " fill="#E30FD4" transform="translate(220,333)"/>
<path d="M0 0 C-0.185625 0.78375 -0.37125 1.5675 -0.5625 2.375 C-1.25962266 4.97089775 -1.25962266 4.97089775 0 7 C-2.97 6.505 -2.97 6.505 -6 6 C-6 5.01 -6 4.02 -6 3 C-2.66666667 0 -2.66666667 0 0 0 Z " fill="#F42A45" transform="translate(429,457)"/>
<path d="M0 0 C0 0.66 0 1.32 0 2 C-1.62249941 2.83819158 -3.24808497 3.6704116 -4.875 4.5 C-6.23238281 5.19609375 -6.23238281 5.19609375 -7.6171875 5.90625 C-10 7 -10 7 -12 7 C-12 6.34 -12 5.68 -12 5 C-10.56705502 4.15885829 -9.12845595 3.32734313 -7.6875 2.5 C-6.88699219 2.0359375 -6.08648437 1.571875 -5.26171875 1.09375 C-3 0 -3 0 0 0 Z " fill="#F55DA9" transform="translate(209,455)"/>
<path d="M0 0 C-1.32 1.65 -2.64 3.3 -4 5 C-5.5 3.625 -5.5 3.625 -7 2 C-7 1.34 -7 0.68 -7 0 C-3.86650268 -1.04449911 -3.01031744 -0.93423645 0 0 Z " fill="#F42D43" transform="translate(299,494)"/>
<path d="M0 0 C0.33 0.66 0.66 1.32 1 2 C0.0625 4.125 0.0625 4.125 -1 6 C-0.34 6.33 0.32 6.66 1 7 C-1.97 6.67 -4.94 6.34 -8 6 C-7.01 5.34 -6.02 4.68 -5 4 C-3.32576317 2.67618483 -1.65788785 1.34423339 0 0 Z " fill="#F3415A" transform="translate(356,471)"/>
<path d="M0 0 C2.31 0 4.62 0 7 0 C5.68 1.65 4.36 3.3 3 5 C2.01 4.67 1.02 4.34 0 4 C0 2.68 0 1.36 0 0 Z " fill="#F95974" transform="translate(447,318)"/>
<path d="M0 0 C2.42102911 1.18098981 3.82068009 2.2331559 5.5625 4.25 C2.9225 3.92 0.2825 3.59 -2.4375 3.25 C-2.4375 2.59 -2.4375 1.93 -2.4375 1.25 C-3.0975 0.92 -3.7575 0.59 -4.4375 0.25 C-2.4375 -0.75 -2.4375 -0.75 0 0 Z " fill="#FD9612" transform="translate(411.4375,174.75)"/>
<path d="M0 0 C2.56616632 3.84924948 2.55097676 6.4349304 3 11 C2.67 10.34 2.34 9.68 2 9 C1.34 9 0.68 9 0 9 C-1.10844919 5.67465243 -0.84454356 3.37817425 0 0 Z " fill="#F85167" transform="translate(481,346)"/>
<path d="M0 0 C0.88336837 2.4667645 1.1312406 3.63859372 0.22265625 6.140625 C-0.16019531 6.83671875 -0.54304687 7.5328125 -0.9375 8.25 C-1.31777344 8.95640625 -1.69804687 9.6628125 -2.08984375 10.390625 C-2.39019531 10.92171875 -2.69054687 11.4528125 -3 12 C-4.25541557 8.23375329 -3.37061958 6.62811066 -2 3 C-1.34 3 -0.68 3 0 3 C0 2.01 0 1.02 0 0 Z " fill="#F22033" transform="translate(234,415)"/>
<path d="M0 0 C0.66 0 1.32 0 2 0 C3.38232443 1.62626404 4.71937515 3.2925002 6 5 C3.03 4.67 0.06 4.34 -3 4 C-2.01 3.67 -1.02 3.34 0 3 C0 2.01 0 1.02 0 0 Z " fill="#F71F36" transform="translate(320,505)"/>
<path d="M0 0 C2.7824349 1.39121745 3.55210065 3.30164212 5 6 C5 6.66 5 7.32 5 8 C4.01 8 3.02 8 2 8 C0.74335022 5.09399739 0 3.20395416 0 0 Z " fill="#FE6FF7" transform="translate(82,425)"/>
<path d="M0 0 C0.33 0.66 0.66 1.32 1 2 C-1.60582371 2.93065133 -2.64198224 3.14917407 -5.25 2.0625 C-5.8275 1.711875 -6.405 1.36125 -7 1 C-3.375 -1.125 -3.375 -1.125 0 0 Z " fill="#F73B51" transform="translate(310,504)"/>
<path d="M0 0 C-3 2 -3 2 -6 2 C-6 2.66 -6 3.32 -6 4 C-7.32 3.67 -8.64 3.34 -10 3 C-9.01 3 -8.02 3 -7 3 C-7 2.01 -7 1.02 -7 0 C-3.86650268 -1.04449911 -3.01031744 -0.93423645 0 0 Z " fill="#F8DBDE" transform="translate(425,460)"/>
<path d="M0 0 C0.66 0.33 1.32 0.66 2 1 C1.34 2.65 0.68 4.3 0 6 C-0.66 6 -1.32 6 -2 6 C-2.33 4.68 -2.66 3.36 -3 2 C-2.01 1.34 -1.02 0.68 0 0 Z " fill="#F82B45" transform="translate(392,438)"/>
<path d="M0 0 C0.66 0 1.32 0 2 0 C1.50168276 3.68754757 0.89932357 5.60490662 -2 8 C-2.66 7.67 -3.32 7.34 -4 7 C-3.34 5.68 -2.68 4.36 -2 3 C-1.34 3 -0.68 3 0 3 C0 2.01 0 1.02 0 0 Z " fill="#F3233C" transform="translate(360,466)"/>
<path d="M0 0 C0.66 0.33 1.32 0.66 2 1 C2 1.66 2 2.32 2 3 C2.99 3 3.98 3 5 3 C5 3.66 5 4.32 5 5 C2.03 4.505 2.03 4.505 -1 4 C-1 3.34 -1 2.68 -1 2 C-1.66 1.67 -2.32 1.34 -3 1 C-2.01 0.67 -1.02 0.34 0 0 Z " fill="#FA5BF8" transform="translate(128,466)"/>
<path d="M0 0 C0.33 0.99 0.66 1.98 1 3 C-2.26760563 8.63380282 -2.26760563 8.63380282 -5 10 C-3.66511872 6.40608886 -2.03977277 3.24509304 0 0 Z " fill="#F31E30" transform="translate(229,427)"/>
<path d="M0 0 C0 0.66 0 1.32 0 2 C-1.65 2 -3.3 2 -5 2 C-5 2.66 -5 3.32 -5 4 C-5.99 4 -6.98 4 -8 4 C-8 3.01 -8 2.02 -8 1 C-5.23735711 0.40267181 -2.83967231 0 0 0 Z " fill="#FFDF7C" transform="translate(140,40)"/>
</svg>
