<?xml version="1.0" encoding="UTF-8"?>
<svg version="1.1" xmlns="http://www.w3.org/2000/svg" width="512" height="512">
<path d="M0 0 C1.10279297 -0.00773437 2.20558594 -0.01546875 3.34179688 -0.0234375 C12.27240577 -0.00236232 21.15790838 0.63297704 29.4375 4.25 C30.20835937 4.58 30.97921875 4.91 31.7734375 5.25 C32.52882813 5.58 33.28421875 5.91 34.0625 6.25 C35.72723012 6.92148778 37.393404 7.58943904 39.0625 8.25 C39.0625 8.91 39.0625 9.57 39.0625 10.25 C39.866875 10.476875 40.67125 10.70375 41.5 10.9375 C45.17734502 12.29231132 48.34740651 14.00129625 51.73828125 15.94140625 C55.11721364 17.84383037 58.58211092 19.54144536 62.0625 21.25 C62.0625 21.91 62.0625 22.57 62.0625 23.25 C62.88105469 23.48074219 63.69960937 23.71148437 64.54296875 23.94921875 C68.8235868 25.53128957 72.48585295 27.70015207 76.375 30.0625 C77.89409381 30.97078409 79.41362046 31.8783447 80.93359375 32.78515625 C81.65272949 33.21586426 82.37186523 33.64657227 83.11279297 34.09033203 C86.71441448 36.23254367 90.38030228 38.250708 94.0625 40.25 C95.04605469 40.78753906 96.02960938 41.32507813 97.04296875 41.87890625 C99.71480139 43.33842446 102.38804413 44.79529596 105.0625 46.25 C105.0625 46.91 105.0625 47.57 105.0625 48.25 C105.949375 48.53875 106.83625 48.8275 107.75 49.125 C110.56632424 50.08148748 113.31333156 51.11798946 116.0625 52.25 C116.0625 52.91 116.0625 53.57 116.0625 54.25 C116.76375 54.518125 117.465 54.78625 118.1875 55.0625 C125.07984777 57.9093393 131.53639393 61.66180289 138.0625 65.25 C138.0625 65.91 138.0625 66.57 138.0625 67.25 C138.949375 67.53875 139.83625 67.8275 140.75 68.125 C148.63479648 70.80285541 148.63479648 70.80285541 150.4375 72.6875 C152.93620029 75.09009644 155.85302066 75.97831951 159.0625 77.25 C159.0625 77.91 159.0625 78.57 159.0625 79.25 C159.90941406 79.50007813 160.75632812 79.75015625 161.62890625 80.0078125 C165.3397393 81.35029818 168.61925192 83.12407319 172 85.125 C172.58201172 85.46402344 173.16402344 85.80304688 173.76367188 86.15234375 C174.93761085 86.83616645 176.1105495 87.5217094 177.2824707 88.20898438 C182.13553271 91.0472036 187.00641744 93.78361826 192.0625 96.25 C192.0625 96.91 192.0625 97.57 192.0625 98.25 C192.91714844 98.50394531 193.77179688 98.75789063 194.65234375 99.01953125 C198.27116713 100.32529227 201.31296557 101.98405211 204.625 103.9375 C205.84683654 104.65114488 207.06951525 105.36334952 208.29296875 106.07421875 C208.91220215 106.43435059 209.53143555 106.79448242 210.16943359 107.16552734 C215.07077112 109.97333509 220.07528263 112.59898744 225.0625 115.25 C225.0625 115.91 225.0625 116.57 225.0625 117.25 C225.97 117.53875 226.8775 117.8275 227.8125 118.125 C230.38452908 119.01531776 232.67596766 119.96494413 235.0625 121.25 C235.0625 121.91 235.0625 122.57 235.0625 123.25 C235.84625 123.45625 236.63 123.6625 237.4375 123.875 C241.50495146 125.41782642 244.89431595 127.50334754 248.58203125 129.78515625 C251.65678375 131.60095497 254.74143303 132.95045205 258.0625 134.25 C258.0625 134.91 258.0625 135.57 258.0625 136.25 C258.97 136.53875 259.8775 136.8275 260.8125 137.125 C263.38452908 138.01531776 265.67596766 138.96494413 268.0625 140.25 C268.0625 140.91 268.0625 141.57 268.0625 142.25 C269.114375 142.4046875 269.114375 142.4046875 270.1875 142.5625 C273.45387647 143.34359003 276.1096852 144.67058743 279.0625 146.25 C279.0625 146.91 279.0625 147.57 279.0625 148.25 C279.77921875 148.49878906 280.4959375 148.74757812 281.234375 149.00390625 C290.56800568 153.11637612 298.5008648 161.87698876 304.0625 170.25 C305.30859375 173.58203125 305.30859375 173.58203125 306.0625 176.25 C306.7225 176.25 307.3825 176.25 308.0625 176.25 C308.7333712 177.8732687 309.39907029 179.49867578 310.0625 181.125 C310.43375 182.02992188 310.805 182.93484375 311.1875 183.8671875 C312.0625 186.25 312.0625 186.25 312.0625 188.25 C312.7225 188.25 313.3825 188.25 314.0625 188.25 C318.62424203 208.1261617 319.64382045 226.31671267 314.0625 246.25 C313.4025 246.25 312.7425 246.25 312.0625 246.25 C311.959375 246.930625 311.85625 247.61125 311.75 248.3125 C310.91524981 251.87915989 309.56777246 254.91222194 308.0625 258.25 C307.4025 258.25 306.7425 258.25 306.0625 258.25 C305.959375 258.78625 305.85625 259.3225 305.75 259.875 C303.28972042 268.37414764 297.63201327 272.7754056 291.0625 278.25 C290.19625 279.1575 289.33 280.065 288.4375 281 C286.16045733 283.15719832 285.11506297 283.91082634 282.0625 284.25 C282.0625 284.91 282.0625 285.57 282.0625 286.25 C278.7746022 288.09015498 275.48158674 289.92095047 272.1875 291.75 C270.78177734 292.53697266 270.78177734 292.53697266 269.34765625 293.33984375 C268.45175781 293.83613281 267.55585938 294.33242188 266.6328125 294.84375 C265.80539551 295.30458984 264.97797852 295.76542969 264.12548828 296.24023438 C262.0625 297.25 262.0625 297.25 260.0625 297.25 C260.0625 297.91 260.0625 298.57 260.0625 299.25 C258.77336513 299.92154933 257.48109796 300.58708859 256.1875 301.25 C255.46820313 301.62125 254.74890625 301.9925 254.0078125 302.375 C252.0625 303.25 252.0625 303.25 250.0625 303.25 C250.0625 303.91 250.0625 304.57 250.0625 305.25 C249.46824219 305.55703857 248.87398438 305.86407715 248.26171875 306.18041992 C245.52683451 307.59597771 242.79466495 309.01670127 240.0625 310.4375 C239.12792969 310.92025391 238.19335938 311.40300781 237.23046875 311.90039062 C232.26980217 314.48479385 227.46498162 317.14736484 222.81640625 320.26293945 C220.91863588 321.33096362 219.18824134 321.81638381 217.0625 322.25 C217.0625 322.91 217.0625 323.57 217.0625 324.25 C197.17933849 335.25 197.17933849 335.25 194.0625 335.25 C194.0625 335.91 194.0625 336.57 194.0625 337.25 C192.77336513 337.92154933 191.48109796 338.58708859 190.1875 339.25 C189.46820313 339.62125 188.74890625 339.9925 188.0078125 340.375 C186.0625 341.25 186.0625 341.25 184.0625 341.25 C184.0625 341.91 184.0625 342.57 184.0625 343.25 C183.42441406 343.51554687 182.78632813 343.78109375 182.12890625 344.0546875 C180.88947266 344.58449219 180.88947266 344.58449219 179.625 345.125 C178.80128906 345.47304688 177.97757812 345.82109375 177.12890625 346.1796875 C174.90503285 347.0744937 174.90503285 347.0744937 174.0625 349.25 C172.28394796 350.19209017 170.46399035 351.05713953 168.625 351.875 C167.63628906 352.32101562 166.64757812 352.76703125 165.62890625 353.2265625 C163.0625 354.25 163.0625 354.25 161.0625 354.25 C161.0625 354.91 161.0625 355.57 161.0625 356.25 C159.77336513 356.92154933 158.48109796 357.58708859 157.1875 358.25 C156.46820313 358.62125 155.74890625 358.9925 155.0078125 359.375 C153.0625 360.25 153.0625 360.25 151.0625 360.25 C151.0625 360.91 151.0625 361.57 151.0625 362.25 C149.77336513 362.92154933 148.48109796 363.58708859 147.1875 364.25 C146.46820313 364.62125 145.74890625 364.9925 145.0078125 365.375 C143.0625 366.25 143.0625 366.25 141.0625 366.25 C141.0625 366.91 141.0625 367.57 141.0625 368.25 C139.6062455 368.92119549 138.14742133 369.58681807 136.6875 370.25 C135.87539063 370.62125 135.06328125 370.9925 134.2265625 371.375 C132.0625 372.25 132.0625 372.25 130.0625 372.25 C130.0625 372.91 130.0625 373.57 130.0625 374.25 C128.44000059 375.08819158 126.81441503 375.9204116 125.1875 376.75 C123.83011719 377.44609375 123.83011719 377.44609375 122.4453125 378.15625 C120.0625 379.25 120.0625 379.25 118.0625 379.25 C118.0625 379.91 118.0625 380.57 118.0625 381.25 C117.44503906 381.55292969 116.82757813 381.85585938 116.19140625 382.16796875 C110.99058807 384.7406718 105.89391443 387.41926841 100.875 390.33203125 C99.0625 391.25 99.0625 391.25 97.0625 391.25 C97.0625 391.91 97.0625 392.57 97.0625 393.25 C95.45833333 394.125 93.85416667 395 92.25 395.875 C91.24582031 396.42285156 90.24164063 396.97070312 89.20703125 397.53515625 C87.20482944 398.62704022 85.20226467 399.71825907 83.19921875 400.80859375 C82.28785156 401.30488281 81.37648437 401.80117188 80.4375 402.3125 C79.53902344 402.80105469 78.64054688 403.28960937 77.71484375 403.79296875 C74.40147896 405.61312349 71.11699586 407.48267688 67.83984375 409.3671875 C66.0625 410.25 66.0625 410.25 64.0625 410.25 C64.0625 410.91 64.0625 411.57 64.0625 412.25 C62.77336513 412.92154933 61.48109796 413.58708859 60.1875 414.25 C59.46820313 414.62125 58.74890625 414.9925 58.0078125 415.375 C56.0625 416.25 56.0625 416.25 54.0625 416.25 C54.0625 416.91 54.0625 417.57 54.0625 418.25 C52.44000059 419.08819158 50.81441503 419.9204116 49.1875 420.75 C47.83011719 421.44609375 47.83011719 421.44609375 46.4453125 422.15625 C44.0625 423.25 44.0625 423.25 42.0625 423.25 C42.0625 423.91 42.0625 424.57 42.0625 425.25 C40.46100114 425.92305018 38.85618971 426.58822227 37.25 427.25 C36.35667969 427.62125 35.46335937 427.9925 34.54296875 428.375 C32.0625 429.25 32.0625 429.25 29.0625 429.25 C29.0625 429.91 29.0625 430.57 29.0625 431.25 C14.50618418 434.82720899 14.50618418 434.82720899 7.0625 435.25 C6.22074219 435.30285156 5.37898438 435.35570312 4.51171875 435.41015625 C-6.2865061 435.75366824 -17.48539559 433.96701985 -27.9375 431.25 C-27.9375 430.59 -27.9375 429.93 -27.9375 429.25 C-28.98550781 428.94255859 -28.98550781 428.94255859 -30.0546875 428.62890625 C-31.41980469 428.22478516 -31.41980469 428.22478516 -32.8125 427.8125 C-33.71742187 427.54566406 -34.62234375 427.27882813 -35.5546875 427.00390625 C-37.9375 426.25 -37.9375 426.25 -39.9375 425.25 C-39.9375 424.59 -39.9375 423.93 -39.9375 423.25 C-40.81148437 423.00894531 -41.68546875 422.76789063 -42.5859375 422.51953125 C-46.2448989 421.13356102 -48.57235711 419.44332397 -51.5625 416.9375 C-52.48289062 416.17824219 -53.40328125 415.41898437 -54.3515625 414.63671875 C-56.85330598 412.32770777 -58.85911591 409.93786803 -60.9375 407.25 C-61.4428125 406.75113281 -61.948125 406.25226563 -62.46875 405.73828125 C-71.49397304 396.59304195 -77.19450714 383.45339193 -79.54296875 370.96484375 C-79.78297109 369.2276745 -79.78297109 369.2276745 -80.9375 368.25 C-81.97190564 359.91064746 -82.08238934 351.50912985 -82.06448364 343.11737061 C-82.06604363 341.96921851 -82.06760362 340.82106642 -82.06921089 339.63812184 C-82.07316707 335.8300235 -82.0700523 332.02196575 -82.06689453 328.21386719 C-82.06770133 325.46796589 -82.06999633 322.72206625 -82.07220459 319.97616577 C-82.0766316 313.31669602 -82.07569969 306.6572376 -82.07279195 299.99776742 C-82.07052657 294.58387088 -82.0702303 289.1699775 -82.07131577 283.75608063 C-82.071469 282.98333936 -82.07162223 282.21059808 -82.07178011 281.41444041 C-82.07209985 279.84431193 -82.07242407 278.27418346 -82.0727527 276.70405498 C-82.0755983 262.01160274 -82.07233452 247.31915677 -82.06695233 232.62670556 C-82.06248157 220.03238391 -82.06326425 207.43807148 -82.06787109 194.84375 C-82.07322698 180.19493497 -82.07532743 165.54612541 -82.07225883 150.89730954 C-82.0719403 149.33442513 -82.07162593 147.77154072 -82.07131577 146.20865631 C-82.07108435 145.05538187 -82.07108435 145.05538187 -82.07084826 143.87880896 C-82.06998642 138.47223147 -82.07143874 133.06565746 -82.07379532 127.65908051 C-82.07660462 121.06948235 -82.07583105 114.47989609 -82.07051457 107.89029929 C-82.06789337 104.5311907 -82.06738748 101.17211831 -82.07016373 97.81300735 C-82.07289926 94.16688345 -82.06946469 90.52081519 -82.06448364 86.87469482 C-82.06671436 85.82031243 -82.06894509 84.76593004 -82.07124341 83.67959666 C-82.03004223 68.11306488 -82.03004223 68.11306488 -78.9375 61.25 C-78.50155952 59.56737608 -78.08561143 57.8794736 -77.6875 56.1875 C-75.6947762 48.65602594 -72.25256953 41.72260429 -67.9375 35.25 C-67.2775 35.25 -66.6175 35.25 -65.9375 35.25 C-65.69515625 34.52941406 -65.4528125 33.80882812 -65.203125 33.06640625 C-62.07852333 26.11320314 -55.63923494 19.84605289 -48.9375 16.25 C-48.2775 16.25 -47.6175 16.25 -46.9375 16.25 C-46.6075 15.26 -46.2775 14.27 -45.9375 13.25 C-40.71527778 10.25 -40.71527778 10.25 -37.9375 10.25 C-37.9375 9.59 -37.9375 8.93 -37.9375 8.25 C-36.00191401 7.57779649 -34.06395628 6.91241923 -32.125 6.25 C-31.04605469 5.87875 -29.96710938 5.5075 -28.85546875 5.125 C-25.9375 4.25 -25.9375 4.25 -22.9375 4.25 C-22.9375 3.59 -22.9375 2.93 -22.9375 2.25 C-15.23937727 0.34526511 -7.90978533 -0.05528097 0 0 Z M22.0625 169.25 C23.0525 173.21 24.0425 177.17 25.0625 181.25 C25.7225 181.25 26.3825 181.25 27.0625 181.25 C27.330625 182.52875 27.59875 183.8075 27.875 185.125 C29.0076896 190.25062417 30.49451301 195.24289488 32.0625 200.25 C32.7225 200.25 33.3825 200.25 34.0625 200.25 C34.24425781 201.21099609 34.24425781 201.21099609 34.4296875 202.19140625 C35.41929227 207.29928933 36.54760951 212.27250269 38.0625 217.25 C38.7225 217.25 39.3825 217.25 40.0625 217.25 C40.18367188 217.81847656 40.30484375 218.38695312 40.4296875 218.97265625 C41.47572054 223.79245464 42.65454484 228.5232934 44.0625 233.25 C44.7225 233.25 45.3825 233.25 46.0625 233.25 C46.165625 234.013125 46.26875 234.77625 46.375 235.5625 C47.30383042 240.54440864 48.68366443 245.37637995 50.0625 250.25 C50.7225 250.25 51.3825 250.25 52.0625 250.25 C52.330625 251.52875 52.59875 252.8075 52.875 254.125 C54.0076896 259.25062417 55.49451301 264.24289488 57.0625 269.25 C57.7225 269.25 58.3825 269.25 59.0625 269.25 C59.18367188 269.89066406 59.30484375 270.53132813 59.4296875 271.19140625 C60.41929227 276.29928933 61.54760951 281.27250269 63.0625 286.25 C63.7225 286.25 64.3825 286.25 65.0625 286.25 C65.3925 287.57 65.7225 288.89 66.0625 290.25 C70.28738728 288.74111169 71.71754658 285.92376036 74.0625 282.25 C74.7225 281.92 75.3825 281.59 76.0625 281.25 C77.06334333 279.58383962 78.06320155 277.91708739 79.0625 276.25 C81.11847145 273.84809072 83.26162653 271.55003552 85.41796875 269.23828125 C87.27495027 267.42318553 87.27495027 267.42318553 87.0625 265.25 C88.0525 264.92 89.0425 264.59 90.0625 264.25 C91.08861949 262.59928604 92.08558143 260.93029994 93.0625 259.25 C94.35215176 257.87437146 95.68939293 256.54233607 97.0625 255.25 C100.383166 252.09131771 102.73060403 249.17182504 105.0625 245.25 C106.0525 244.59 107.0425 243.93 108.0625 243.25 C109.0689275 241.58720673 110.06835407 239.92016516 111.0625 238.25 C112.37516518 236.89631404 113.70817325 235.56200404 115.0625 234.25 C117.4534775 231.58158916 117.4534775 231.58158916 118.0625 228.25 C119.0525 227.92 120.0425 227.59 121.0625 227.25 C122.07601664 225.59151823 123.07370795 223.92334039 124.0625 222.25 C125.68589805 220.54115995 127.35569053 218.87553283 129.0625 217.25 C132.54951068 214.03109781 132.54951068 214.03109781 135.125 210.125 C136.0625 208.25 136.0625 208.25 138 206.8125 C140.47953206 204.93406662 141.52191905 202.92927122 143.0625 200.25 C144.0625 199.25 145.0625 198.25 146.0625 197.25 C147.09607147 195.60394174 148.10310332 193.94036558 149.0625 192.25 C148.0725 192.25 147.0825 192.25 146.0625 192.25 C146.0625 191.59 146.0625 190.93 146.0625 190.25 C141.70960244 189.5748677 137.35500257 188.91140624 133 188.25 C131.77087891 188.05921875 130.54175781 187.8684375 129.27539062 187.671875 C128.07978516 187.49140625 126.88417969 187.3109375 125.65234375 187.125 C124.55784912 186.95742187 123.46335449 186.78984375 122.33569336 186.6171875 C118.88506319 186.2300951 115.53185691 186.18856147 112.0625 186.25 C112.0625 185.59 112.0625 184.93 112.0625 184.25 C111.09948975 184.10900879 110.13647949 183.96801758 109.14428711 183.82275391 C105.54477795 183.29447784 101.94621764 182.75996224 98.34790039 182.22363281 C96.79541496 181.99310882 95.24268285 181.76423947 93.68969727 181.53710938 C91.44739725 181.20886257 89.20607496 180.87452013 86.96484375 180.5390625 C86.27913803 180.44001617 85.59343231 180.34096985 84.88694763 180.23892212 C80.48205273 179.57198724 76.33990742 178.47211641 72.0625 177.25 C69.51749957 176.80151229 66.96439111 176.39742275 64.40625 176.03125 C63.70028687 175.92784302 62.99432373 175.82443604 62.26696777 175.71789551 C60.0327724 175.39075032 57.79778594 175.06960286 55.5625 174.75 C52.61375706 174.32838653 49.66603021 173.90045718 46.71875 173.46875 C45.41744141 173.28248047 44.11613281 173.09621094 42.77539062 172.90429688 C39.10339987 172.2572075 35.6340504 171.30966982 32.0625 170.25 C30.25674815 169.98957864 28.44330247 169.77444952 26.625 169.625 C25.119375 169.50125 23.61375 169.3775 22.0625 169.25 Z " fill="#FEB922" transform="translate(154.9375,38.75)"/>
<path d="M0 0 C0.66 0 1.32 0 2 0 C2.66 6.27 3.32 12.54 4 19 C4.66 19 5.32 19 6 19 C8 25 10 31 12 37 C12.66 37 13.32 37 14 37 C15.26171875 38.6875 15.26171875 38.6875 16.6875 41 C28.72541365 59.46005419 45.84482718 69.04594054 67 74 C68.03640625 74.26554687 69.0728125 74.53109375 70.140625 74.8046875 C77.75798796 76.69926239 85.42331557 77.88409909 93.19799805 78.91040039 C94.02082275 79.02375732 94.84364746 79.13711426 95.69140625 79.25390625 C96.42560791 79.35002197 97.15980957 79.4461377 97.91625977 79.54516602 C100.21549195 80.04703708 101.97868716 80.80018035 104 82 C105.046875 83.8046875 105.046875 83.8046875 105.75 85.875 C106.11351562 86.89207031 106.11351562 86.89207031 106.484375 87.9296875 C107 90 107 90 107 94 C107.66 94 108.32 94 109 94 C109.84080019 96.41429769 110.67281402 98.83103993 111.5 101.25 C111.85771484 102.27287109 111.85771484 102.27287109 112.22265625 103.31640625 C113.39421287 106.76413003 114 109.31702904 114 113 C114.66 113 115.32 113 116 113 C116.67364661 115.08108685 117.33866798 117.1649671 118 119.25 C118.37125 120.41015625 118.7425 121.5703125 119.125 122.765625 C120 126 120 126 120 130 C120.66 130 121.32 130 122 130 C122.67184618 132.10251861 123.33730968 134.20707763 124 136.3125 C124.37125 137.48425781 124.7425 138.65601563 125.125 139.86328125 C126 143 126 143 126 146 C126.66 146 127.32 146 128 146 C128.67364661 148.08108685 129.33866798 150.1649671 130 152.25 C130.37125 153.41015625 130.7425 154.5703125 131.125 155.765625 C132 159 132 159 132 163 C132.66 163 133.32 163 134 163 C134.31453125 163.95519531 134.6290625 164.91039062 134.953125 165.89453125 C137.51480181 173.64393048 140.18239222 181.33922309 143 189 C144.38765838 192.81606054 145 194.90167967 145 199 C145.66 199 146.32 199 147 199 C147.103125 200.03125 147.20625 201.0625 147.3125 202.125 C148.00691481 206.03897439 149.20819914 208.4853137 151 212 C151.48570658 213.51231366 151.94123861 215.03447692 152.375 216.5625 C153.50025778 220.50090224 154.85383042 224.25957605 156.375 228.0625 C157.2548666 230.37315272 158.12962122 232.68575671 159 235 C159.47308594 236.19625 159.94617188 237.3925 160.43359375 238.625 C163.77965762 247.81328673 164.46603068 256.55433161 164.5 266.3125 C164.50620361 267.48047119 164.51240723 268.64844238 164.51879883 269.85180664 C164.40631097 277.60359212 163.21213846 284.57462241 161 292 C160.34 292 159.68 292 159 292 C158.814375 293.258125 158.62875 294.51625 158.4375 295.8125 C155.83003397 307.44580996 145.82632538 319.21206584 137 327 C136.34 327 135.68 327 135 327 C135.33 328.32 135.66 329.64 136 331 C134.37750059 331.83819158 132.75191503 332.6704116 131.125 333.5 C129.76761719 334.19609375 129.76761719 334.19609375 128.3828125 334.90625 C126 336 126 336 124 336 C124 336.66 124 337.32 124 338 C122.39850114 338.67305018 120.79368971 339.33822227 119.1875 340 C118.29417969 340.37125 117.40085937 340.7425 116.48046875 341.125 C114 342 114 342 111 342 C111 342.66 111 343.32 111 344 C96.44368418 347.57720899 96.44368418 347.57720899 89 348 C88.15824219 348.05285156 87.31648438 348.10570312 86.44921875 348.16015625 C75.6509939 348.50366824 64.45210441 346.71701985 54 344 C54 343.34 54 342.68 54 342 C52.95199219 341.69255859 52.95199219 341.69255859 51.8828125 341.37890625 C50.51769531 340.97478516 50.51769531 340.97478516 49.125 340.5625 C48.22007813 340.29566406 47.31515625 340.02882813 46.3828125 339.75390625 C44 339 44 339 42 338 C42 337.34 42 336.68 42 336 C41.12601563 335.75894531 40.25203125 335.51789063 39.3515625 335.26953125 C35.6926011 333.88356102 33.36514289 332.19332397 30.375 329.6875 C29.45460938 328.92824219 28.53421875 328.16898437 27.5859375 327.38671875 C25.08419402 325.07770777 23.07838409 322.68786803 21 320 C20.4946875 319.50113281 19.989375 319.00226563 19.46875 318.48828125 C10.44352696 309.34304195 4.74299286 296.20339193 2.39453125 283.71484375 C2.15452891 281.9776745 2.15452891 281.9776745 1 281 C-0.01345986 272.79062101 -0.14419974 264.52328607 -0.12025452 256.26237488 C-0.12110894 255.15687532 -0.12196337 254.05137577 -0.12284368 252.91237622 C-0.12447623 249.24910288 -0.11901393 245.58587647 -0.11352539 241.92260742 C-0.11324301 239.28032835 -0.11335833 236.63805205 -0.1139679 233.99577332 C-0.11448971 228.32817802 -0.11137891 222.66059432 -0.10573006 216.99300194 C-0.09756834 208.79883318 -0.09499507 200.60466997 -0.09374207 192.41049758 C-0.09155886 179.11277321 -0.08491866 165.81505501 -0.07543945 152.51733398 C-0.06624638 139.60750357 -0.05917483 126.69767483 -0.05493164 113.7878418 C-0.05466892 112.99074239 -0.05440619 112.19364298 -0.05413551 111.37238904 C-0.05283038 107.3731762 -0.05156669 103.37396335 -0.05032361 99.37475049 C-0.03997377 66.24982917 -0.02237543 33.12491542 0 0 Z " fill="#F42FF1" transform="translate(73,126)"/>
<path d="M0 0 C0 0.66 0 1.32 0 2 C1.27875 2.103125 2.5575 2.20625 3.875 2.3125 C11.40472516 3.15440628 18.35988731 5.33046404 25 9 C25 9.66 25 10.32 25 11 C25.71671875 11.24878906 26.4334375 11.49757812 27.171875 11.75390625 C36.50550568 15.86637612 44.4383648 24.62698876 50 33 C51.24609375 36.33203125 51.24609375 36.33203125 52 39 C52.66 39 53.32 39 54 39 C54.6708712 40.6232687 55.33657029 42.24867578 56 43.875 C56.37125 44.77992188 56.7425 45.68484375 57.125 46.6171875 C58 49 58 49 58 51 C58.66 51 59.32 51 60 51 C64.56174203 70.8761617 65.58132045 89.06671267 60 109 C59.34 109 58.68 109 58 109 C57.896875 109.680625 57.79375 110.36125 57.6875 111.0625 C56.85274981 114.62915989 55.50527246 117.66222194 54 121 C53.34 121 52.68 121 52 121 C51.896875 121.53625 51.79375 122.0725 51.6875 122.625 C49.22722042 131.12414764 43.56951327 135.5254056 37 141 C36.13375 141.9075 35.2675 142.815 34.375 143.75 C32.09795733 145.90719832 31.05256297 146.66082634 28 147 C28 147.66 28 148.32 28 149 C24.7121022 150.84015498 21.41908674 152.67095047 18.125 154.5 C17.18785156 155.02464844 16.25070312 155.54929687 15.28515625 156.08984375 C14.38925781 156.58613281 13.49335938 157.08242188 12.5703125 157.59375 C11.32918701 158.28500977 11.32918701 158.28500977 10.06298828 158.99023438 C8 160 8 160 6 160 C6 160.66 6 161.32 6 162 C4.71086513 162.67154933 3.41859796 163.33708859 2.125 164 C1.40570313 164.37125 0.68640625 164.7425 -0.0546875 165.125 C-2 166 -2 166 -4 166 C-4 166.66 -4 167.32 -4 168 C-4.59425781 168.30703857 -5.18851563 168.61407715 -5.80078125 168.93041992 C-8.53566549 170.34597771 -11.26783505 171.76670127 -14 173.1875 C-15.40185547 173.91163086 -15.40185547 173.91163086 -16.83203125 174.65039062 C-21.79269783 177.23479385 -26.59751838 179.89736484 -31.24609375 183.01293945 C-33.14386412 184.08096362 -34.87425866 184.56638381 -37 185 C-37 185.66 -37 186.32 -37 187 C-56.88316151 198 -56.88316151 198 -60 198 C-60 198.66 -60 199.32 -60 200 C-61.28913487 200.67154933 -62.58140204 201.33708859 -63.875 202 C-64.59429687 202.37125 -65.31359375 202.7425 -66.0546875 203.125 C-68 204 -68 204 -70 204 C-70 204.66 -70 205.32 -70 206 C-70.63808594 206.26554688 -71.27617187 206.53109375 -71.93359375 206.8046875 C-73.17302734 207.33449219 -73.17302734 207.33449219 -74.4375 207.875 C-75.67306641 208.39707031 -75.67306641 208.39707031 -76.93359375 208.9296875 C-79.15746715 209.8244937 -79.15746715 209.8244937 -80 212 C-81.77855204 212.94209017 -83.59850965 213.80713953 -85.4375 214.625 C-86.42621094 215.07101562 -87.41492188 215.51703125 -88.43359375 215.9765625 C-91 217 -91 217 -93 217 C-93 217.66 -93 218.32 -93 219 C-94.28913487 219.67154933 -95.58140204 220.33708859 -96.875 221 C-97.59429687 221.37125 -98.31359375 221.7425 -99.0546875 222.125 C-101 223 -101 223 -103 223 C-103 223.66 -103 224.32 -103 225 C-104.28913487 225.67154933 -105.58140204 226.33708859 -106.875 227 C-107.59429687 227.37125 -108.31359375 227.7425 -109.0546875 228.125 C-111 229 -111 229 -113 229 C-113 229.66 -113 230.32 -113 231 C-114.4562545 231.67119549 -115.91507867 232.33681807 -117.375 233 C-118.59316406 233.556875 -118.59316406 233.556875 -119.8359375 234.125 C-122 235 -122 235 -124 235 C-124 235.66 -124 236.32 -124 237 C-125.62249941 237.83819158 -127.24808497 238.6704116 -128.875 239.5 C-129.77992188 239.9640625 -130.68484375 240.428125 -131.6171875 240.90625 C-134 242 -134 242 -136 242 C-136 242.66 -136 243.32 -136 244 C-136.61746094 244.30292969 -137.23492187 244.60585938 -137.87109375 244.91796875 C-143.07191193 247.4906718 -148.16858557 250.16926841 -153.1875 253.08203125 C-155 254 -155 254 -157 254 C-157 254.66 -157 255.32 -157 256 C-158.60416667 256.875 -160.20833333 257.75 -161.8125 258.625 C-162.81667969 259.17285156 -163.82085937 259.72070312 -164.85546875 260.28515625 C-166.85767056 261.37704022 -168.86023533 262.46825907 -170.86328125 263.55859375 C-172.23033203 264.30302734 -172.23033203 264.30302734 -173.625 265.0625 C-174.52347656 265.55105469 -175.42195313 266.03960937 -176.34765625 266.54296875 C-179.66102104 268.36312349 -182.94550414 270.23267688 -186.22265625 272.1171875 C-188 273 -188 273 -190 273 C-190 273.66 -190 274.32 -190 275 C-191.26691507 275.67408308 -192.53870749 276.33900497 -193.8125 277 C-194.52019531 277.37125 -195.22789062 277.7425 -195.95703125 278.125 C-198 279 -198 279 -201 279 C-201 278.34 -201 277.68 -201 277 C-199.87474845 275.97350723 -198.69717355 275.00412304 -197.5 274.0625 C-192.36584558 269.70074049 -188.74800204 264.55765968 -185 259 C-184.50242188 258.28457031 -184.00484375 257.56914062 -183.4921875 256.83203125 C-180.36997514 252.1487127 -178.53823779 247.40259125 -177 242 C-176.34 242 -175.68 242 -175 242 C-170.00582402 215.99624703 -173.18326894 192.93359596 -184.14746094 168.9230957 C-185.1966359 166.55644302 -186.01869908 164.16986035 -186.75 161.6875 C-187.11351562 160.48673828 -187.11351562 160.48673828 -187.484375 159.26171875 C-188 157 -188 157 -188 153 C-187.38125 152.773125 -186.7625 152.54625 -186.125 152.3125 C-183.77279369 151.15068028 -183.77279369 151.15068028 -183 148.5 C-181.77857206 145.44643015 -180.83868307 145.37355633 -178 144 C-177.88011719 143.41734375 -177.76023438 142.8346875 -177.63671875 142.234375 C-176.76124336 139.16215463 -175.06661496 137.61926761 -172.875 135.3125 C-169.17566798 131.33041649 -165.77156377 127.25394115 -162.5078125 122.91015625 C-160.38723309 120.22372275 -157.97951881 117.98054287 -155.5 115.625 C-153.17854432 113.18747154 -151.70681405 110.8705509 -150 108 C-149.01 107.34 -148.02 106.68 -147 106 C-146.525625 105.175 -146.05125 104.35 -145.5625 103.5 C-144 101 -144 101 -141.9375 100 C-139.78602686 99.15730547 -139.78602686 99.15730547 -139.125 96.8125 C-137.53217777 92.83044442 -134.84350015 90.16094554 -132 87 C-130.97673118 85.79372845 -129.95584266 84.58543313 -128.9375 83.375 C-127.12856414 81.25352549 -125.31492982 79.33086168 -123.3125 77.375 C-121.04996676 75.05131721 -119.64708277 72.77009376 -118 70 C-117.01 69.34 -116.02 68.68 -115 68 C-114.505 67.154375 -114.01 66.30875 -113.5 65.4375 C-112 63 -112 63 -109 62 C-108.3260469 60.33626641 -107.66040576 58.66915741 -107 57 C-105.15234375 54.9296875 -105.15234375 54.9296875 -102.9375 52.875 C-97.81950078 47.92841702 -93.45237805 42.54171192 -89 37 C-79.59073884 25.37658797 -70.07661526 15.59480246 -57 8 C-56.071875 7.43345703 -56.071875 7.43345703 -55.125 6.85546875 C-53.12675916 5.73591864 -51.12419667 4.86069557 -49 4 C-47.92621094 3.55398437 -46.85242188 3.10796875 -45.74609375 2.6484375 C-32.64998102 -2.21621849 -13.36503432 -4.45501144 0 0 Z " fill="#F94E35" transform="translate(409,176)"/>
<path d="M0 0 C0 0.66 0 1.32 0 2 C1.27875 2.103125 2.5575 2.20625 3.875 2.3125 C11.40472516 3.15440628 18.35988731 5.33046404 25 9 C25 9.66 25 10.32 25 11 C26.07507813 11.37318359 26.07507813 11.37318359 27.171875 11.75390625 C36.50550568 15.86637612 44.4383648 24.62698876 50 33 C51.24609375 36.33203125 51.24609375 36.33203125 52 39 C52.66 39 53.32 39 54 39 C54.6708712 40.6232687 55.33657029 42.24867578 56 43.875 C56.37125 44.77992188 56.7425 45.68484375 57.125 46.6171875 C58 49 58 49 58 51 C58.66 51 59.32 51 60 51 C62.79819439 63.1921327 64.72309715 74.46631604 64 87 C63.94457031 87.97453125 63.88914062 88.9490625 63.83203125 89.953125 C63.625 92.4375 63.625 92.4375 63 96 C62.01 96.495 62.01 96.495 61 97 C61 92.38 61 87.76 61 83 C59.4325 82.9175 57.865 82.835 56.25 82.75 C49.7136037 82.21107451 43.40473363 80.99043227 36.99902344 79.63574219 C29.42394078 78.03886639 21.80713505 76.70464613 14.18099976 75.37939453 C10.80738006 74.7925385 7.43499608 74.19874907 4.0625 73.60546875 C3.4120723 73.49115509 2.76164459 73.37684143 2.09150696 73.25906372 C-13.23476919 70.56517185 -28.55276668 67.82925533 -43.86039734 65.03128052 C-44.54455215 64.90623138 -45.22870697 64.78118225 -45.93359375 64.65234375 C-46.62947098 64.52511932 -47.32534821 64.3978949 -48.04231262 64.26681519 C-53.26586725 63.31315014 -58.49130213 62.37018573 -63.71740723 61.43060303 C-67.78611831 60.69889558 -71.8544051 59.96484402 -75.92266846 59.23065186 C-77.92585308 58.86975824 -79.92922964 58.50992836 -81.93280029 58.15118408 C-84.73566095 57.6491626 -87.53781339 57.14335092 -90.33984375 56.63671875 C-91.18716568 56.48594376 -92.03448761 56.33516876 -92.90748596 56.17982483 C-98.77225157 55.11387422 -98.77225157 55.11387422 -101 54 C-100.42905698 50.17641187 -98.76488572 48.37762105 -96.125 45.625 C-92.31717968 41.53265256 -88.84092896 37.30733129 -85.4375 32.875 C-66.57704388 8.57571467 -31.60651637 -10.53550546 0 0 Z " fill="#F25846" transform="translate(409,176)"/>
<path d="M0 0 C0.66 0 1.32 0 2 0 C2.5878125 1.77310547 2.5878125 1.77310547 3.1875 3.58203125 C5.2092577 9.64374493 7.26320468 15.69438292 9.33398438 21.73950195 C9.77963932 23.04297731 10.22363834 24.34701995 10.66601562 25.65161133 C11.31495618 27.56469384 11.96991691 29.47573087 12.625 31.38671875 C13.00914062 32.51295654 13.39328125 33.63919434 13.7890625 34.79956055 C14.99782408 37.99424918 16.44771901 40.96041847 18 44 C18.64973892 45.92269679 19.25258654 47.86175129 19.8125 49.8125 C21.5876419 55.77724885 23.58954886 61.62641487 25.71801758 67.47192383 C27.22955777 71.66699923 28.58829561 75.88763051 29.87890625 80.15625 C32.02017393 87.18327001 34.44734557 94.09010745 36.9375 101 C37.35451172 102.16789062 37.77152344 103.33578125 38.20117188 104.5390625 C40.26685342 110.29870624 42.38337964 116.03251937 44.59375 121.73828125 C46.70313239 127.18363271 48.66767214 132.66446658 50.5625 138.1875 C53.47228362 150.07172706 53.47228362 150.07172706 60 159 C59.67 159.66 59.34 160.32 59 161 C57.49373047 160.70996094 57.49373047 160.70996094 55.95703125 160.4140625 C48.31070124 158.9547101 40.67886776 157.5916966 32.96484375 156.52734375 C29.55558174 155.92095327 26.32213944 154.97410653 23 154 C21.85402344 153.72800781 20.70804687 153.45601562 19.52734375 153.17578125 C-0.04104504 148.46999896 -18.12451427 137.47156436 -29 120 C-29.6953125 117.72265625 -29.6953125 117.72265625 -30 116 C-30.66 116 -31.32 116 -32 116 C-33.00904375 113.7536764 -34.0073602 111.50356063 -35 109.25 C-35.28617188 108.61578125 -35.57234375 107.9815625 -35.8671875 107.328125 C-37.36006702 103.91582896 -38 101.79218083 -38 98 C-38.66 98 -39.32 98 -40 98 C-41.73955334 91.56986533 -42.24991456 85.65050424 -42 79 C-42.66 79 -43.32 79 -44 79 C-44.27301821 61.0718043 -44.27301821 61.0718043 -41 53 C-40.56405952 51.31737608 -40.14811143 49.6294736 -39.75 47.9375 C-37.7572762 40.40602594 -34.31506953 33.47260429 -30 27 C-29.34 27 -28.68 27 -28 27 C-27.75765625 26.27941406 -27.5153125 25.55882813 -27.265625 24.81640625 C-24.14102333 17.86320314 -17.70173494 11.59605289 -11 8 C-10.34 8 -9.68 8 -9 8 C-8.67 7.01 -8.34 6.02 -8 5 C-2.77777778 2 -2.77777778 2 0 2 C0 1.34 0 0.68 0 0 Z " fill="#FEAB47" transform="translate(117,47)"/>
<path d="M0 0 C0.45439453 1.39798828 0.45439453 1.39798828 0.91796875 2.82421875 C2.9663161 9.07333005 5.06052431 15.26469422 7.5 21.375 C8.33838634 23.58141993 9.17151048 25.78984488 10 28 C10.47050781 29.18980469 10.94101563 30.37960937 11.42578125 31.60546875 C14.77609184 40.80142167 15.46599919 49.5452856 15.5 59.3125 C15.50620361 60.48047119 15.51240723 61.64844238 15.51879883 62.85180664 C15.40631097 70.60359212 14.21213846 77.57462241 12 85 C11.34 85 10.68 85 10 85 C9.7215625 86.8871875 9.7215625 86.8871875 9.4375 88.8125 C6.83003397 100.44580996 -3.17367462 112.21206584 -12 120 C-12.66 120 -13.32 120 -14 120 C-13.67 121.32 -13.34 122.64 -13 124 C-14.62249941 124.83819158 -16.24808497 125.6704116 -17.875 126.5 C-19.23238281 127.19609375 -19.23238281 127.19609375 -20.6171875 127.90625 C-23 129 -23 129 -25 129 C-25 129.66 -25 130.32 -25 131 C-26.60149886 131.67305018 -28.20631029 132.33822227 -29.8125 133 C-30.70582031 133.37125 -31.59914063 133.7425 -32.51953125 134.125 C-35 135 -35 135 -38 135 C-38 135.66 -38 136.32 -38 137 C-52.55631582 140.57720899 -52.55631582 140.57720899 -60 141 C-61.26263672 141.07927734 -61.26263672 141.07927734 -62.55078125 141.16015625 C-73.3490061 141.50366824 -84.54789559 139.71701985 -95 137 C-95 136.34 -95 135.68 -95 135 C-96.04800781 134.69255859 -96.04800781 134.69255859 -97.1171875 134.37890625 C-98.48230469 133.97478516 -98.48230469 133.97478516 -99.875 133.5625 C-100.77992187 133.29566406 -101.68484375 133.02882813 -102.6171875 132.75390625 C-105 132 -105 132 -107 131 C-107.96484375 128.85546875 -107.96484375 128.85546875 -108 126 C-106.26684531 123.53138488 -104.60546149 121.49437329 -102.5625 119.3125 C-101.4375069 118.05975565 -100.31381076 116.80584539 -99.19140625 115.55078125 C-98.63984863 114.94186035 -98.08829102 114.33293945 -97.52001953 113.70556641 C-95.58886771 111.53868131 -93.78643939 109.28709757 -92 107 C-88.8038617 102.95509468 -85.4886863 99.03026095 -82.125 95.125 C-78.23014351 90.59987597 -74.34034612 86.07156427 -70.5 81.5 C-69.33984375 80.12328125 -69.33984375 80.12328125 -68.15625 78.71875 C-65.95884744 76.03296903 -65.95884744 76.03296903 -64.109375 73.109375 C-61.58551124 69.38901286 -58.72858211 66.10885425 -55.75 62.75 C-46.91416808 52.73737825 -46.91416808 52.73737825 -39 42 C-38.34 42 -37.68 42 -37 42 C-36.77441406 41.29101562 -36.54882812 40.58203125 -36.31640625 39.8515625 C-34.73648793 36.42918749 -32.52639222 34.04549812 -29.9375 31.375 C-23.83330571 24.90064175 -18.20153247 18.11231326 -12.734375 11.08984375 C-12.01765625 10.17332031 -11.3009375 9.25679688 -10.5625 8.3125 C-9.92441406 7.48363281 -9.28632813 6.65476562 -8.62890625 5.80078125 C-7.82259766 4.90939453 -7.82259766 4.90939453 -7 4 C-6.34 4 -5.68 4 -5 4 C-4.67 3.01 -4.34 2.02 -4 1 C-2 0 -2 0 0 0 Z " fill="#EA13E8" transform="translate(222,333)"/>
<path d="M0 0 C0.66 0 1.32 0 2 0 C2 1.65 2 3.3 2 5 C0.6696875 5.13148437 0.6696875 5.13148437 -0.6875 5.265625 C-4.42567629 6.09437163 -6.10952026 7.28568074 -9 9.75 C-9.804375 10.42546875 -10.60875 11.1009375 -11.4375 11.796875 C-12.283125 12.52390625 -13.12875 13.2509375 -14 14 C-14.98613281 14.78117187 -15.97226563 15.56234375 -16.98828125 16.3671875 C-20.19121117 19.03612495 -22.68090731 22.05894602 -25.1875 25.375 C-25.61224609 25.91382812 -26.03699219 26.45265625 -26.47460938 27.0078125 C-29.3933853 30.82083237 -31.21525516 34.54617728 -33 39 C-33.53625 39.845625 -34.0725 40.69125 -34.625 41.5625 C-36.21453872 44.38031864 -36.62872209 46.80700997 -37 50 C-37.66 50 -38.32 50 -39 50 C-39.06058594 50.69867188 -39.12117188 51.39734375 -39.18359375 52.1171875 C-39.30927734 53.48230469 -39.30927734 53.48230469 -39.4375 54.875 C-39.51871094 55.77992187 -39.59992188 56.68484375 -39.68359375 57.6171875 C-40 60 -40 60 -41 62 C-41.23274209 64.87910588 -41.41972757 67.74146495 -41.5625 70.625 C-41.60568359 71.42679687 -41.64886719 72.22859375 -41.69335938 73.0546875 C-41.79951457 75.0362511 -41.90026855 77.01810271 -42 79 C-42.66 79 -43.32 79 -44 79 C-44.27301821 61.0718043 -44.27301821 61.0718043 -41 53 C-40.56405952 51.31737608 -40.14811143 49.6294736 -39.75 47.9375 C-37.7572762 40.40602594 -34.31506953 33.47260429 -30 27 C-29.34 27 -28.68 27 -28 27 C-27.75765625 26.27941406 -27.5153125 25.55882813 -27.265625 24.81640625 C-24.14102333 17.86320314 -17.70173494 11.59605289 -11 8 C-10.34 8 -9.68 8 -9 8 C-8.67 7.01 -8.34 6.02 -8 5 C-2.77777778 2 -2.77777778 2 0 2 C0 1.34 0 0.68 0 0 Z " fill="#FEC995" transform="translate(117,47)"/>
<path d="M0 0 C0.66 0 1.32 0 2 0 C1.34 3.63 0.68 7.26 0 11 C-0.66 11 -1.32 11 -2 11 C-2.103125 11.680625 -2.20625 12.36125 -2.3125 13.0625 C-3.14725019 16.62915989 -4.49472754 19.66222194 -6 23 C-6.66 23 -7.32 23 -8 23 C-8.103125 23.53625 -8.20625 24.0725 -8.3125 24.625 C-9.96223764 30.32409366 -12.67776317 34.00193094 -17 38 C-17.598125 38.598125 -18.19625 39.19625 -18.8125 39.8125 C-19.204375 40.204375 -19.59625 40.59625 -20 41 C-20.66 40.67 -21.32 40.34 -22 40 C-20.625 37.5 -20.625 37.5 -19 35 C-18.34 35 -17.68 35 -17 35 C-16.34 33.68 -15.68 32.36 -15 31 C-14.34 31 -13.68 31 -13 31 C-12.01 27.535 -12.01 27.535 -11 24 C-10.34 24 -9.68 24 -9 24 C-9 23.34 -9 22.68 -9 22 C-8.34 22 -7.68 22 -7 22 C-6.81824219 21.19175781 -6.63648438 20.38351562 -6.44921875 19.55078125 C-6.19785156 18.48214844 -5.94648438 17.41351563 -5.6875 16.3125 C-5.44386719 15.25675781 -5.20023437 14.20101563 -4.94921875 13.11328125 C-4.00412959 10.01354438 -2.71817494 7.72666893 -1 5 C-0.29329272 2.30745009 -0.29329272 2.30745009 0 0 Z " fill="#FEA283" transform="translate(469,274)"/>
<path d="M0 0 C2 1 2 1 3.0703125 3.65234375 C3.41835937 4.73644531 3.76640625 5.82054687 4.125 6.9375 C4.47820312 8.01902344 4.83140625 9.10054688 5.1953125 10.21484375 C6 13 6 13 6 15 C6.66 15.33 7.32 15.66 8 16 C10.13473602 19.20210403 11.6226422 22.41886972 13 26 C13.65213539 27.34050052 14.31379969 28.67661368 15 30 C15.66 30 16.32 30 17 30 C17.66 31.98 18.32 33.96 19 36 C14.93315749 34.64438583 14.24108969 32.59932586 12 29 C11.319375 28.01 10.63875 27.02 9.9375 26 C4.87975859 18.16865846 0.8131289 9.35098236 0 0 Z " fill="#FE8FF9" transform="translate(76,410)"/>
<path d="M0 0 C10.83634614 0.04175856 21.31917695 3.15958848 31 8 C31 8.66 31 9.32 31 10 C32.98 10.66 34.96 11.32 37 12 C36.67 12.66 36.34 13.32 36 14 C33.69 13.01 31.38 12.02 29 11 C29 10.34 29 9.68 29 9 C28.27554688 8.80664062 27.55109375 8.61328125 26.8046875 8.4140625 C18.46191646 6.16707617 18.46191646 6.16707617 15.0625 4.9375 C10.14613703 3.43249093 5.07596774 2.77207276 0 2 C0 1.34 0 0.68 0 0 Z " fill="#FFDA6E" transform="translate(163,39)"/>
<path d="M0 0 C0.66 0 1.32 0 2 0 C2 1.65 2 3.3 2 5 C1.12085937 5.08121094 0.24171875 5.16242187 -0.6640625 5.24609375 C-4.53342928 6.12055252 -6.37487477 7.50833933 -9.375 10.0625 C-10.68597656 11.16271484 -10.68597656 11.16271484 -12.0234375 12.28515625 C-13.00183594 13.13400391 -13.00183594 13.13400391 -14 14 C-14.33 13.01 -14.66 12.02 -15 11 C-11.25 8 -11.25 8 -9 8 C-8.67 7.01 -8.34 6.02 -8 5 C-2.77777778 2 -2.77777778 2 0 2 C0 1.34 0 0.68 0 0 Z " fill="#FFC587" transform="translate(117,47)"/>
<path d="M0 0 C1.9375 0.3125 1.9375 0.3125 4 1 C4.33 1.99 4.66 2.98 5 4 C6.59924507 5.1539808 6.59924507 5.1539808 8.5 6.0625 C11.89821183 7.79642366 11.89821183 7.79642366 13 10 C15.01669827 11.13350534 15.01669827 11.13350534 17 12 C16.67 12.99 16.34 13.98 16 15 C14.02943923 13.53308131 12.06269612 12.06154372 10.1015625 10.58203125 C8.47226377 9.35551455 6.83204384 8.14349882 5.1875 6.9375 C2.81993558 4.84051437 1.46949408 2.78430457 0 0 Z " fill="#FF80F8" transform="translate(95,446)"/>
<path d="M0 0 C0.66 0 1.32 0 2 0 C1.34 3.63 0.68 7.26 0 11 C-0.66 11 -1.32 11 -2 11 C-2.103125 11.680625 -2.20625 12.36125 -2.3125 13.0625 C-3.14725019 16.62915989 -4.49472754 19.66222194 -6 23 C-6.66 22.67 -7.32 22.34 -8 22 C-5.94624742 16.14107133 -3.77830791 10.55661582 -1 5 C-0.30092586 2.26427415 -0.30092586 2.26427415 0 0 Z " fill="#FEB296" transform="translate(469,274)"/>
<path d="M0 0 C0.66 0 1.32 0 2 0 C4.33333333 7 6.66666667 14 9 21 C6.46361153 20.0318087 5.25171482 19.54340787 4.08691406 17.02880859 C3.89838867 16.24328613 3.70986328 15.45776367 3.515625 14.6484375 C3.30292969 13.79765625 3.09023437 12.946875 2.87109375 12.0703125 C2.66613281 11.18085938 2.46117187 10.29140625 2.25 9.375 C2.02957031 8.4778125 1.80914062 7.580625 1.58203125 6.65625 C1.03991063 4.44062658 0.51331016 2.22244288 0 0 Z " fill="#F887F7" transform="translate(205,289)"/>
<path d="M0 0 C4.455 1.98 4.455 1.98 9 4 C9 4.66 9 5.32 9 6 C9.9075 6.28875 10.815 6.5775 11.75 6.875 C14.32202908 7.76531776 16.61346766 8.71494413 19 10 C19 10.66 19 11.32 19 12 C14.27827359 10.62223181 10.27437928 8.59101512 6.125 6 C5.53203125 5.64421875 4.9390625 5.2884375 4.328125 4.921875 C2.84705957 4.00730003 1.41787784 3.00976463 0 2 C0 1.34 0 0.68 0 0 Z " fill="#FEBF5E" transform="translate(404,169)"/>
<path d="M0 0 C0.33 0.66 0.66 1.32 1 2 C-3.20788009 7.75545909 -7.41509524 12.55487173 -13 17 C-11.44182816 13.35015184 -9.18875601 10.8314046 -6.5 7.9375 C-4.09463269 5.34079665 -1.96595796 2.94893694 0 0 Z " fill="#E814CE" transform="translate(206,348)"/>
<path d="M0 0 C0.33 0.99 0.66 1.98 1 3 C-3.29 7.62 -7.58 12.24 -12 17 C-12 12.92485275 -10.44507745 11.98720336 -7.6875 9.0625 C-4.94774847 6.13745126 -2.33663931 3.25919592 0 0 Z " fill="#ED17D8" transform="translate(171,390)"/>
<path d="M0 0 C0.66 0.99 1.32 1.98 2 3 C-2.75 7 -2.75 7 -5 7 C-5.33 7.99 -5.66 8.98 -6 10 C-6.99 10 -7.98 10 -9 10 C-9 9.34 -9 8.68 -9 8 C-7.28515625 6.30859375 -7.28515625 6.30859375 -5.0625 4.4375 C-3.96615234 3.50744141 -3.96615234 3.50744141 -2.84765625 2.55859375 C-2.23792969 2.04425781 -1.62820312 1.52992188 -1 1 C-0.67 0.67 -0.34 0.34 0 0 Z " fill="#F42633" transform="translate(217,445)"/>
<path d="M0 0 C0.33 0.66 0.66 1.32 1 2 C1.66 2 2.32 2 3 2 C3.99 6.95 4.98 11.9 6 17 C5.34 16.67 4.68 16.34 4 16 C3.3671875 13.49609375 3.3671875 13.49609375 2.875 10.4375 C2.62363281 8.91962891 2.62363281 8.91962891 2.3671875 7.37109375 C2.24601562 6.58863281 2.12484375 5.80617187 2 5 C1.34 5 0.68 5 0 5 C0 3.35 0 1.7 0 0 Z " fill="#F79C83" transform="translate(466,225)"/>
<path d="M0 0 C0.33 0.99 0.66 1.98 1 3 C-0.28935919 4.14842923 -1.58156579 5.29366227 -2.875 6.4375 C-3.59429687 7.07558594 -4.31359375 7.71367187 -5.0546875 8.37109375 C-7 10 -7 10 -9 11 C-7.79618552 8.50638429 -6.54571278 6.31856917 -5 4 C-4.34 4 -3.68 4 -3 4 C-2.67 3.01 -2.34 2.02 -2 1 C-1.34 0.67 -0.68 0.34 0 0 Z " fill="#E30FD4" transform="translate(220,333)"/>
<path d="M0 0 C0 0.66 0 1.32 0 2 C-1.62249941 2.83819158 -3.24808497 3.6704116 -4.875 4.5 C-6.23238281 5.19609375 -6.23238281 5.19609375 -7.6171875 5.90625 C-10 7 -10 7 -12 7 C-12 6.34 -12 5.68 -12 5 C-10.56705502 4.15885829 -9.12845595 3.32734313 -7.6875 2.5 C-6.88699219 2.0359375 -6.08648437 1.571875 -5.26171875 1.09375 C-3 0 -3 0 0 0 Z " fill="#F55DA9" transform="translate(209,455)"/>
<path d="M0 0 C2.42102911 1.18098981 3.82068009 2.2331559 5.5625 4.25 C2.9225 3.92 0.2825 3.59 -2.4375 3.25 C-2.4375 2.59 -2.4375 1.93 -2.4375 1.25 C-3.0975 0.92 -3.7575 0.59 -4.4375 0.25 C-2.4375 -0.75 -2.4375 -0.75 0 0 Z " fill="#FD9612" transform="translate(411.4375,174.75)"/>
<path d="M0 0 C0.88336837 2.4667645 1.1312406 3.63859372 0.22265625 6.140625 C-0.16019531 6.83671875 -0.54304687 7.5328125 -0.9375 8.25 C-1.31777344 8.95640625 -1.69804687 9.6628125 -2.08984375 10.390625 C-2.39019531 10.92171875 -2.69054687 11.4528125 -3 12 C-4.25541557 8.23375329 -3.37061958 6.62811066 -2 3 C-1.34 3 -0.68 3 0 3 C0 2.01 0 1.02 0 0 Z " fill="#F22033" transform="translate(234,415)"/>
<path d="M0 0 C2.7824349 1.39121745 3.55210065 3.30164212 5 6 C5 6.66 5 7.32 5 8 C4.01 8 3.02 8 2 8 C0.74335022 5.09399739 0 3.20395416 0 0 Z " fill="#FE6FF7" transform="translate(82,425)"/>
<path d="M0 0 C0.66 0 1.32 0 2 0 C0.62845496 2.95409701 -0.98863724 5.44008376 -3 8 C-3.66 7.67 -4.32 7.34 -5 7 C-1.125 1.125 -1.125 1.125 0 0 Z " fill="#FB8170" transform="translate(298,238)"/>
<path d="M0 0 C0.66 0.33 1.32 0.66 2 1 C2 1.66 2 2.32 2 3 C2.99 3 3.98 3 5 3 C5 3.66 5 4.32 5 5 C2.03 4.505 2.03 4.505 -1 4 C-1 3.34 -1 2.68 -1 2 C-1.66 1.67 -2.32 1.34 -3 1 C-2.01 0.67 -1.02 0.34 0 0 Z " fill="#FA5BF8" transform="translate(128,466)"/>
<path d="M0 0 C0.33 0.99 0.66 1.98 1 3 C-2.26760563 8.63380282 -2.26760563 8.63380282 -5 10 C-3.66511872 6.40608886 -2.03977277 3.24509304 0 0 Z " fill="#F31E30" transform="translate(229,427)"/>
<path d="M0 0 C0.66 0.33 1.32 0.66 2 1 C-0.625 5.875 -0.625 5.875 -4 7 C-2.92598892 4.08482708 -2.22189824 2.22189824 0 0 Z " fill="#F9706B" transform="translate(229,320)"/>
<path d="M0 0 C0 0.66 0 1.32 0 2 C-1.65 2 -3.3 2 -5 2 C-5 2.66 -5 3.32 -5 4 C-5.99 4 -6.98 4 -8 4 C-8 3.01 -8 2.02 -8 1 C-5.23735711 0.40267181 -2.83967231 0 0 0 Z " fill="#FFDF7C" transform="translate(140,40)"/>
</svg>
