<?xml version="1.0" encoding="UTF-8"?>
<svg version="1.1" xmlns="http://www.w3.org/2000/svg" width="512" height="512">
<path d="M0 0 C168.96 0 337.92 0 512 0 C512 168.96 512 337.92 512 512 C343.04 512 174.08 512 0 512 C0 343.04 0 174.08 0 0 Z " fill="#01C3F7" transform="translate(0,0)"/>
<path d="M0 0 C0 121.77 0 243.54 0 369 C-24.75 369 -49.5 369 -75 369 C-75 359.43 -75 349.86 -75 340 C-75.66 340 -76.32 340 -77 340 C-77 340.66 -77 341.32 -77 342 C-78.81656068 343.62050691 -80.6250473 345.09761028 -82.5625 346.5625 C-83.43672607 347.22523926 -83.43672607 347.22523926 -84.32861328 347.90136719 C-106.73581807 364.56847306 -128.23451919 370.23560511 -155.875 370.3125 C-157.00802551 370.31814972 -157.00802551 370.31814972 -158.16394043 370.32391357 C-171.09783779 370.35655543 -183.01176385 369.05720323 -195.3125 364.875 C-196.21548828 364.56860596 -197.11847656 364.26221191 -198.04882812 363.9465332 C-212.16350675 358.99161985 -225.34327529 351.65672471 -236 341 C-236.01213028 342.1175341 -236.01213028 342.1175341 -236.02450562 343.25764465 C-236.10242448 350.27646191 -236.18970679 357.2950855 -236.28752708 364.31364918 C-236.33748759 367.92203229 -236.38381744 371.53038617 -236.421875 375.13891602 C-236.45873124 378.62091128 -236.5050917 382.10266177 -236.55806351 385.58444786 C-236.58563386 387.56027114 -236.6033425 389.536224 -236.62094116 391.51216125 C-236.64081085 392.71317978 -236.66068054 393.9141983 -236.68115234 395.15161133 C-236.69447601 396.21084305 -236.70779968 397.27007477 -236.7215271 398.36140442 C-237 401 -237 401 -239 404 C-239.37125 405.5159375 -239.37125 405.5159375 -239.75 407.0625 C-241.94105739 415.09637711 -247.31887307 423.01203537 -254 428 C-256.2109375 428.68359375 -256.2109375 428.68359375 -258 429 C-258 429.66 -258 430.32 -258 431 C-259.55552581 431.64216096 -261.12011424 432.26235564 -262.6875 432.875 C-263.55761719 433.22304688 -264.42773438 433.57109375 -265.32421875 433.9296875 C-279.34626271 438.0126206 -293.83640146 437.3273828 -308.30078125 437.3359375 C-310.86704073 437.3423759 -313.4332995 437.34910501 -315.9995575 437.35610962 C-321.36292537 437.36804081 -326.72622113 437.37188106 -332.08959961 437.37060547 C-338.2466547 437.36940527 -344.40335862 437.39050401 -350.56032497 437.4220928 C-356.53454167 437.45162624 -362.50857087 437.45857546 -368.4828701 437.45738602 C-371.00117617 437.45972859 -373.51948553 437.46847523 -376.03774452 437.48405075 C-413.50426123 437.69413417 -413.50426123 437.69413417 -427.46484375 424.70703125 C-432.34341552 419.60706562 -435.7383904 414.68431282 -438 408 C-438.391875 406.865625 -438.78375 405.73125 -439.1875 404.5625 C-440.98947587 396.66152887 -441.1473556 388.65772953 -441.12939453 380.58422852 C-441.13114685 379.5958197 -441.13289917 378.60741089 -441.13470459 377.58905029 C-441.13907187 374.35231725 -441.13620303 371.11563976 -441.1328125 367.87890625 C-441.13348706 365.61026499 -441.13445836 363.3416238 -441.13571167 361.07298279 C-441.13718175 356.32981678 -441.13505648 351.58666966 -441.13037109 346.84350586 C-441.12467752 340.78696212 -441.12795488 334.73046274 -441.13394356 328.67392063 C-441.13757058 323.99228079 -441.1364007 319.31065132 -441.13381577 314.62901115 C-441.13315225 312.39686007 -441.13395465 310.16470802 -441.13629532 307.93255806 C-441.13885677 304.80340228 -441.13493229 301.67431663 -441.12939453 298.54516602 C-441.13141876 297.63729843 -441.13344299 296.72943085 -441.13552856 295.79405212 C-441.08270257 279.54572021 -438.7133198 266.12550498 -427.375 253.75 C-416.05578847 243.1194097 -401.95008814 241.66936714 -387.08105469 241.77294922 C-385.39593529 241.77251114 -385.39593529 241.77251114 -383.67677307 241.77206421 C-380.00839177 241.77344402 -376.34022029 241.78894118 -372.671875 241.8046875 C-370.11069856 241.80842243 -367.54952067 241.81126713 -364.98834229 241.81326294 C-358.96444467 241.82008731 -352.94063544 241.83580779 -346.91677308 241.85596192 C-340.05085596 241.87842767 -333.18493504 241.88934101 -326.31899023 241.89935279 C-312.2126195 241.92017765 -298.10631382 241.95528643 -284 242 C-284.00883713 240.92980118 -284.00883713 240.92980118 -284.01785278 239.83798218 C-284.04141787 236.56647889 -284.05593053 233.29499354 -284.0703125 230.0234375 C-284.0844519 228.34012329 -284.0844519 228.34012329 -284.09887695 226.62280273 C-284.12814848 217.73401532 -283.34220935 209.60704064 -281 201 C-280.70198486 199.88383301 -280.70198486 199.88383301 -280.39794922 198.74511719 C-271.47069503 166.17902889 -249.63237285 134.12530484 -220 117 C-219.28585938 116.58669434 -218.57171875 116.17338867 -217.8359375 115.74755859 C-207.60916713 109.92659377 -197.41998763 105.01071194 -186 102 C-185.11707275 101.74323486 -184.23414551 101.48646973 -183.32446289 101.22192383 C-174.38984691 98.84391864 -165.84323642 98.50582362 -156.6628418 98.55395508 C-154.20080456 98.56245407 -151.74110619 98.53361232 -149.27929688 98.50195312 C-123.88361225 98.39043058 -102.29283402 107.31490133 -84 125 C-82.02 126.98 -80.04 128.96 -78 131 C-77.67 92.72 -77.34 54.44 -77 15 C-42.34670608 7.86549831 -42.34670608 7.86549831 -27.1015625 4.83984375 C-22.25396758 3.86150273 -17.43957554 2.75989883 -12.62890625 1.61328125 C-8.20418596 0.58106567 -4.60512206 0 0 0 Z " fill="#FEFEFE" transform="translate(442,74)"/>
<path d="M0 0 C1.73916939 -0.0076664 1.73916939 -0.0076664 3.51347351 -0.01548767 C7.30932925 -0.02927748 11.10500125 -0.02843496 14.90087891 -0.02612305 C16.88895503 -0.02903001 18.87703122 -0.03194285 20.86510623 -0.03552979 C27.10523896 -0.04657204 33.34531147 -0.04709232 39.58544922 -0.04101562 C45.9838783 -0.0349798 52.38208727 -0.04728899 58.78047884 -0.06858569 C64.31041958 -0.08630257 69.8402909 -0.09218731 75.37025893 -0.08894795 C78.65700805 -0.08715096 81.94356715 -0.09096166 85.23029709 -0.10366249 C122.9023238 -0.23139425 122.9023238 -0.23139425 137.56494141 13.5871582 C151.95914096 28.8698886 150.19287152 48.68865655 150.11572266 68.34887695 C150.11520333 70.96726989 150.11572384 73.58566323 150.11723328 76.20405579 C150.11811063 81.66310837 150.10714234 87.12203542 150.08862305 92.58105469 C150.06734685 98.88882367 150.06397352 105.19641062 150.07018501 111.50420827 C150.07587506 117.59539591 150.07013815 123.68650936 150.05901146 129.77768898 C150.05515862 132.3625443 150.05401159 134.9474051 150.05559731 137.5322628 C150.05596671 141.12968902 150.04338666 144.72683457 150.02709961 148.32421875 C150.02957703 149.39482544 150.03205444 150.46543213 150.03460693 151.56848145 C150.02752213 152.54524338 150.02043732 153.52200531 150.01313782 154.52836609 C150.01005851 155.8022017 150.01005851 155.8022017 150.006917 157.10177135 C149.75244141 159.2746582 149.75244141 159.2746582 147.75244141 162.2746582 C147.38119141 163.7905957 147.38119141 163.7905957 147.00244141 165.3371582 C144.81138401 173.37103532 139.43356834 181.28669358 132.75244141 186.2746582 C130.54150391 186.95825195 130.54150391 186.95825195 128.75244141 187.2746582 C128.75244141 187.9346582 128.75244141 188.5946582 128.75244141 189.2746582 C127.19691559 189.91681916 125.63232717 190.53701384 124.06494141 191.1496582 C122.75976562 191.67172852 122.75976562 191.67172852 121.42822266 192.2043457 C107.4061787 196.2872788 92.91603994 195.60204101 78.45166016 195.6105957 C75.88540068 195.6170341 73.31914191 195.62376322 70.75288391 195.63076782 C65.38951603 195.64269902 60.02622028 195.64653927 54.6628418 195.64526367 C48.50578671 195.64406347 42.34908279 195.66516221 36.19211644 195.696751 C30.21789974 195.72628444 24.24387054 195.73323366 18.2695713 195.73204422 C15.75126524 195.73438679 13.23295588 195.74313343 10.71469688 195.75870895 C-26.75181982 195.96879237 -26.75181982 195.96879237 -40.71240234 182.98168945 C-45.59097411 177.88172383 -48.98594899 172.95897103 -51.24755859 166.2746582 C-51.83537109 164.5730957 -51.83537109 164.5730957 -52.43505859 162.8371582 C-54.23703446 154.93618708 -54.3949142 146.93238773 -54.37695312 138.85888672 C-54.37870544 137.87047791 -54.38045776 136.88206909 -54.38226318 135.8637085 C-54.38663046 132.62697545 -54.38376163 129.39029796 -54.38037109 126.15356445 C-54.38104566 123.88492319 -54.38201696 121.616282 -54.38327026 119.34764099 C-54.38474035 114.60447498 -54.38261507 109.86132787 -54.37792969 105.11816406 C-54.37223611 99.06162032 -54.37551347 93.00512094 -54.38150215 86.94857883 C-54.38512918 82.26693899 -54.3839593 77.58530953 -54.38137436 72.90366936 C-54.38071084 70.67151827 -54.38151324 68.43936622 -54.38385391 66.20721626 C-54.38641536 63.07806048 -54.38249088 59.94897483 -54.37695312 56.81982422 C-54.37897736 55.91195663 -54.38100159 55.00408905 -54.38308716 54.06871033 C-54.33026117 37.82037842 -51.96087839 24.40016318 -40.62255859 12.0246582 C-29.20478147 1.3014987 -14.98009088 -0.03480435 0 0 Z " fill="#FA3E57" transform="translate(55.24755859375,315.725341796875)"/>
<path d="M0 0 C0.82242188 0.26683594 1.64484375 0.53367188 2.4921875 0.80859375 C18.36196754 6.37043255 30.36597458 19.37409876 38 34 C45.14522721 49.99112327 46.89842023 68.27926092 41 85 C40.74476563 85.81984375 40.48953125 86.6396875 40.2265625 87.484375 C35.02503364 102.46859576 23.80572365 114.57566718 10 122 C-0.12063454 126.43706915 -8.03704428 128.19883101 -19 128.25 C-20.07378906 128.270625 -21.14757812 128.29125 -22.25390625 128.3125 C-41.17915612 128.40359627 -56.48475646 120.81153421 -70.109375 108.01953125 C-82.61878353 95.09799104 -87.51435762 78.82793229 -87.28393555 61.11694336 C-86.71477227 42.42835006 -79.21590844 26.21745806 -65.671875 13.2890625 C-58.57080441 7.20539676 -50.82784551 2.98873767 -42 0 C-41.21882813 -0.2990625 -40.43765625 -0.598125 -39.6328125 -0.90625 C-27.38747759 -5.02617577 -12.02165963 -4.58251382 0 0 Z " fill="#01C1F7" transform="translate(323,245)"/>
<path d="M0 0 C3 2 3 2 3.38311005 3.82954502 C3.38683876 4.57556949 3.39056747 5.32159395 3.39440918 6.09022522 C3.40575897 6.94662598 3.41710876 7.80302673 3.42880249 8.68537903 C3.42587189 9.62717514 3.42294128 10.56897125 3.41992188 11.53930664 C3.42839142 12.52975983 3.43686096 13.52021301 3.44558716 14.54067993 C3.46907423 17.83063446 3.46997602 21.12012404 3.46875 24.41015625 C3.47584803 26.6950245 3.4835465 28.97989096 3.49182129 31.26475525 C3.50529553 36.06416771 3.50682322 40.86341567 3.50097656 45.6628418 C3.49509882 51.80082602 3.52557909 57.93801425 3.56609344 64.07584476 C3.59200996 68.80035117 3.59484383 73.52466746 3.59120178 78.24923515 C3.59289147 80.51097032 3.60251933 82.77271442 3.62034607 85.03437996 C3.64259683 88.20842833 3.63279942 91.38088651 3.61523438 94.55493164 C3.62849762 95.48255814 3.64176086 96.41018463 3.65542603 97.36592102 C3.57213353 103.87650566 2.01508888 108.79976358 -2 114 C-4.63651793 116.33082111 -5.40754609 117 -9 117 C-9 117.66 -9 118.32 -9 119 C-16.07529906 120.62059923 -23.86084336 121.43189601 -30.5625 118.375 C-34.90740384 114.14150395 -37.22723832 111.08993957 -37.4375 104.9375 C-37.19292416 99.49976384 -35.71254393 96.7644392 -31.9375 92.875 C-27.03668809 89.74682219 -21.5790414 88.63643011 -15.9765625 87.25390625 C-14.99429688 87.00511719 -14.01203125 86.75632812 -13 86.5 C-12.0925 86.2834375 -11.185 86.066875 -10.25 85.84375 C-7.65949372 85.12223736 -7.65949372 85.12223736 -6 82 C-5.67299844 79.71909256 -5.67299844 79.71909256 -5.68115234 77.16137695 C-5.66128265 76.1805867 -5.64141296 75.19979645 -5.62094116 74.18928528 C-5.60938995 73.13295395 -5.59783875 72.07662262 -5.5859375 70.98828125 C-5.56657135 69.90491989 -5.5472052 68.82155853 -5.5272522 67.70536804 C-5.46741656 64.24115907 -5.4210547 60.77691695 -5.375 57.3125 C-5.33682393 54.96548021 -5.29777242 52.61847448 -5.2578125 50.27148438 C-5.16171176 44.51444766 -5.07667587 38.75732641 -5 33 C-22.67613419 35.10898404 -22.67613419 35.10898404 -40.125 38.5625 C-47.32910378 40.22233829 -54.42414609 41.65997001 -61.76953125 42.54296875 C-64.19348479 42.82630172 -64.19348479 42.82630172 -66 45 C-66.21705637 47.40679241 -66.31134857 49.70219803 -66.31884766 52.11181641 C-66.33391609 53.20953117 -66.33391609 53.20953117 -66.34928894 54.329422 C-66.38023236 56.75346068 -66.39718674 59.17738838 -66.4140625 61.6015625 C-66.43276521 63.28023237 -66.45233794 64.95889275 -66.4727478 66.63754272 C-66.52416995 71.05979835 -66.56374152 75.48208449 -66.60089111 79.90447998 C-66.64086774 84.41556407 -66.69198892 88.92652013 -66.7421875 93.4375 C-66.83906607 102.29157686 -66.92343249 111.14572584 -67 120 C-67.66 120 -68.32 120 -69 120 C-69.020625 120.70125 -69.04125 121.4025 -69.0625 122.125 C-70.47124721 126.44515811 -73.28659503 128.52190112 -77 131 C-83.25750953 133.75330419 -90.27639601 133.68449061 -97 133 C-101.55798098 131.00088554 -104.07330844 128.28802621 -106.30859375 123.9296875 C-107.86863067 119.57568616 -107.67378453 115.60959638 -105.875 111.3125 C-99.22233232 103.1075432 -91.80979222 100.87820835 -81.671875 99.52734375 C-78.78811805 99.13542114 -78.78811805 99.13542114 -76 97 C-75.69959658 94.38482648 -75.59364384 92.00298144 -75.61523438 89.38500977 C-75.6098616 88.59949738 -75.60448883 87.81398499 -75.59895325 87.00466919 C-75.589157 85.29625983 -75.58623666 83.5878006 -75.58930969 81.87936592 C-75.59377356 79.17714168 -75.57982864 76.4755773 -75.56091309 73.77342224 C-75.52406259 68.03645907 -75.51040971 62.29956413 -75.5 56.5625 C-75.48793817 49.91934457 -75.46646809 43.27650883 -75.41999817 36.63349724 C-75.40638741 33.96831228 -75.41060641 31.30352724 -75.41540527 28.63832092 C-75.4060669 27.00700363 -75.39589865 25.3756908 -75.38476562 23.74438477 C-75.39091385 23.00090286 -75.39706207 22.25742096 -75.40339661 21.4914093 C-75.34325201 16.48504575 -75.34325201 16.48504575 -73.63188171 14.06672668 C-71.32736905 12.56031532 -69.18366821 12.12217209 -66.48828125 11.5703125 C-65.35261719 11.33473633 -64.21695313 11.09916016 -63.046875 10.85644531 C-61.81453125 10.61506836 -60.5821875 10.37369141 -59.3125 10.125 C-58.04277344 9.8681543 -56.77304688 9.61130859 -55.46484375 9.34667969 C-44.15090668 7.09130577 -32.76574083 5.2960412 -21.34887695 3.64892578 C-19.42821411 3.36637939 -19.42821411 3.36637939 -17.46875 3.078125 C-16.33888672 2.91731445 -15.20902344 2.75650391 -14.04492188 2.59082031 C-0.47823929 -0.04158603 -0.47823929 -0.04158603 0 0 Z " fill="#FCF8F9" transform="translate(148,345)"/>
<path d="M0 0 C0.66 0.33 1.32 0.66 2 1 C1.59007812 1.71285156 1.18015625 2.42570312 0.7578125 3.16015625 C-6.16203015 15.46025933 -7.16037622 26.64987773 -7.12939453 40.54516602 C-7.13114685 41.53532715 -7.13289917 42.52548828 -7.13470459 43.5456543 C-7.13906513 46.78175671 -7.13620593 50.01780339 -7.1328125 53.25390625 C-7.13348715 55.5235139 -7.13445852 57.79312148 -7.13571167 60.06272888 C-7.13718075 64.80411471 -7.13505935 69.54548162 -7.13037109 74.28686523 C-7.12467104 80.34459977 -7.12795961 86.40229001 -7.13394356 92.46002293 C-7.13756774 97.14162018 -7.13640211 101.82320704 -7.13381577 106.50480461 C-7.13315181 108.73778221 -7.13395624 110.97076078 -7.13629532 113.20373726 C-7.13885279 116.33059289 -7.13493803 119.45737809 -7.12939453 122.58422852 C-7.13141876 123.49412033 -7.13344299 124.40401215 -7.13552856 125.34147644 C-7.09450507 137.91854846 -6.09800142 150.75840997 2 161 C2.45375 161.58394531 2.9075 162.16789063 3.375 162.76953125 C11.19662076 172.44471318 22.0101822 176.17968753 34 178 C37.87117819 178.26844598 41.72626648 178.28397683 45.60571289 178.2746582 C46.72103394 178.27976913 47.83635498 178.28488007 48.98547363 178.29014587 C52.6479235 178.30396769 56.3101835 178.30308998 59.97265625 178.30078125 C62.54080779 178.30467356 65.10895868 178.30900933 67.67710876 178.31376648 C73.05421307 178.3212138 78.43124496 178.32108916 83.80834961 178.31567383 C89.97946588 178.30965315 96.15035305 178.32190517 102.32143027 178.3432439 C108.30470584 178.36315524 114.28786375 178.36601302 120.27117729 178.36250877 C122.79422987 178.36301812 125.31728642 178.36818219 127.84031868 178.37832069 C150.22546826 179.51982386 150.22546826 179.51982386 171 173 C173.1875 173.375 173.1875 173.375 175 174 C173.62667716 174.62867668 172.25124167 175.25273891 170.875 175.875 C170.10929688 176.22304688 169.34359375 176.57109375 168.5546875 176.9296875 C163.1550783 179.19190909 158.75183841 180.24925979 152.86257935 180.24050903 C152.16733245 180.24221788 151.47208555 180.24392673 150.75577056 180.24568737 C148.43879896 180.24896734 146.12212047 180.23800345 143.80517578 180.22705078 C142.13928738 180.22648634 140.47339849 180.22680386 138.80751038 180.22793579 C134.29350308 180.22850903 129.77960232 180.21675928 125.26561975 180.20278788 C120.54507648 180.19027582 115.82453069 180.18910964 111.10397339 180.18673706 C102.16870113 180.1805237 93.23347788 180.1641148 84.29822719 180.14403808 C72.22135821 180.11749211 60.1444758 180.10670528 48.06758499 180.09503365 C29.04501996 180.07623412 10.02255834 180.03638747 -9 180 C-9 124.89 -9 69.78 -9 13 C-7.68 12.34 -6.36 11.68 -5 11 C-5.103125 10.113125 -5.20625 9.22625 -5.3125 8.3125 C-4.90501428 3.99315142 -3.2277297 2.74357025 0 0 Z " fill="#6ECEF7" transform="translate(9,332)"/>
<path d="M0 0 C1.27272634 0.9375398 2.5431023 1.87827074 3.8125 2.8203125 C4.52019531 3.34383301 5.22789062 3.86735352 5.95703125 4.40673828 C8.54408233 6.4243166 10.75372758 8.61333556 13 11 C12.34 11 11.68 11 11 11 C11.01571045 12.14887695 11.0314209 13.29775391 11.04760742 14.48144531 C11.10244996 18.79777851 11.13654504 23.11408177 11.16479492 27.43066406 C11.17975905 29.28878989 11.20013773 31.14688117 11.22631836 33.00488281 C11.55725192 57.11761064 11.55725192 57.11761064 6 67 C4.1953125 68.74609375 4.1953125 68.74609375 2.125 70.4375 C-1.00117697 73.07926036 -3.51034142 75.73768876 -6 79 C-10.03250698 83.25653515 -14.33904135 87.4296851 -19 91 C-19.66 91 -20.32 91 -21 91 C-21 90.34 -21 89.68 -21 89 C-20.154375 88.46375 -19.30875 87.9275 -18.4375 87.375 C-9.71120097 81.82565144 -4.49909359 72.80413639 -2 63 C-1.67 62.34 -1.34 61.68 -1 61 C-0.87994453 59.06028622 -0.82266656 57.11656384 -0.79467773 55.17333984 C-0.77473251 53.95222504 -0.75478729 52.73111023 -0.73423767 51.47299194 C-0.71725344 50.13564177 -0.70037463 48.79829025 -0.68359375 47.4609375 C-0.66302397 46.09615447 -0.64202749 44.73137782 -0.62062073 43.36660767 C-0.56540241 39.77292027 -0.51599213 36.1791754 -0.46777344 32.58538818 C-0.41755663 28.91885254 -0.36187151 25.25240044 -0.30664062 21.5859375 C-0.199062 14.39069574 -0.09761643 7.19538454 0 0 Z " fill="#5BD2FC" transform="translate(205,414)"/>
<path d="M0 0 C0.33 0 0.66 0 1 0 C1 6.27 1 12.54 1 19 C-36.29 19 -73.58 19 -112 19 C-112 18.67 -112 18.34 -112 18 C-94.01326271 14.82768161 -76.10868121 14.83971958 -57.89160156 14.86962891 C-54.00842383 14.87498837 -50.12536173 14.86965676 -46.2421875 14.86328125 C-11.75010971 14.85264918 -11.75010971 14.85264918 0 18 C0 12.06 0 6.12 0 0 Z " fill="#4EC0EE" transform="translate(157,297)"/>
<path d="M0 0 C3.32759923 1.55194754 5.48580485 3.30621949 8 6 C7.34 6 6.68 6 6 6 C6.02356567 7.72331543 6.02356567 7.72331543 6.04760742 9.48144531 C6.10244996 13.79777851 6.13654504 18.11408177 6.16479492 22.43066406 C6.17975905 24.28878989 6.20013773 26.14688117 6.22631836 28.00488281 C6.5496902 51.5666427 6.5496902 51.5666427 1 62 C0.34 62 -0.32 62 -1 62 C-1.85219909 57.45493819 -1.88790953 53.93715343 -1.25808716 49.32470703 C-0.76431401 44.87707038 -0.75931435 40.40836907 -0.68359375 35.9375 C-0.66281265 34.90560547 -0.64203156 33.87371094 -0.62062073 32.81054688 C-0.55565895 29.54042704 -0.49649035 26.27023245 -0.4375 23 C-0.39426393 20.77212794 -0.35064808 18.54426321 -0.30664062 16.31640625 C-0.2000329 10.87768133 -0.09817115 5.4388834 0 0 Z " fill="#3DCAFB" transform="translate(210,419)"/>
<path d="M0 0 C1.32 0 2.64 0 4 0 C3.835 0.66 3.67 1.32 3.5 2 C2.59832116 7.41007305 2.10622436 11.88934123 4.6875 16.8125 C7.0616959 20.08504029 8.41950466 21.2734169 12 23 C19.41509967 23.97971524 27.30665413 23.57723704 34 20 C36.87685203 17.45911321 36.87685203 17.45911321 39 15 C39.66 15 40.32 15 41 15 C41 14.01 41 13.02 41 12 C41.66 12 42.32 12 43 12 C42.835 13.051875 42.67 14.10375 42.5 15.1875 C41.93769202 18.83424047 41.93769202 18.83424047 42 21.875 C42 22.57625 42 23.2775 42 24 C41.505 24.495 41.505 24.495 41 25 C41.495 26.485 41.495 26.485 42 28 C38.60972554 29.13009149 37.41451141 28.71989699 34 28 C32.10463073 27.95805545 30.20788184 27.95862741 28.3125 28 C23.22049287 28.11024643 23.22049287 28.11024643 21 27 C18.1335252 27.11546726 15.29604146 27.2806507 12.4375 27.5 C9.62138865 27.71504018 6.82330485 27.88223963 4 28 C3 27 3 27 2.90234375 25.15234375 C2.95117188 22.07617188 2.95117188 22.07617188 3 19 C2.05125 19.020625 1.1025 19.04125 0.125 19.0625 C-3 19 -3 19 -5 18 C-5 15.36 -5 12.72 -5 10 C-5.66 10 -6.32 10 -7 10 C-7 9.34 -7 8.68 -7 8 C-6.34 8 -5.68 8 -5 8 C-5.33 7.01 -5.66 6.02 -6 5 C-5.01 4.67 -4.02 4.34 -3 4 C-2.34 5.65 -1.68 7.3 -1 9 C-0.67 6.03 -0.34 3.06 0 0 Z " fill="#F52E47" transform="translate(39,454)"/>
<path d="M0 0 C0 0.99 0 1.98 0 3 C0.99 3.33 1.98 3.66 3 4 C3 4.99 3 5.98 3 7 C3.5775 6.835 4.155 6.67 4.75 6.5 C9.11508588 5.52998092 12.02958818 6.23537253 16 8 C16 8.99 16 9.98 16 11 C15.01 11.495 15.01 11.495 14 12 C15.98 12.66 17.96 13.32 20 14 C20 13.01 20 12.02 20 11 C20.66 11 21.32 11 22 11 C22.71407013 11.97311127 22.71407013 11.97311127 23.44256592 12.96588135 C27.53752996 16.2229126 31.83463734 15.57021933 36.91894531 15.54589844 C38.58768204 15.56140495 38.58768204 15.56140495 40.29013062 15.57722473 C43.96960835 15.60673723 47.64853802 15.60815375 51.328125 15.609375 C53.87832697 15.62435086 56.42851922 15.64107674 58.97869873 15.65948486 C65.00639428 15.69876442 71.03390337 15.72038452 77.061692 15.73345876 C83.92511271 15.74933021 90.78834937 15.78774633 97.6516633 15.82805204 C111.76771355 15.91044555 125.88375941 15.96454101 140 16 C140 16.33 140 16.66 140 17 C125.02149576 17.09388771 110.04301452 17.16419507 95.06427765 17.20724869 C88.10769246 17.22778016 81.15129123 17.2557178 74.19482422 17.30175781 C67.4709676 17.34623672 60.74734073 17.36919371 54.02333069 17.37950897 C51.46872466 17.38685226 48.91412805 17.4011908 46.35960388 17.42292023 C9.15122295 17.72659681 9.15122295 17.72659681 -5.265625 5 C-7 3 -7 3 -7 0 C-4.3333581 -1.33332095 -2.83319697 -0.67102033 0 0 Z " fill="#EC4660" transform="translate(20,494)"/>
<path d="M0 0 C1.18193436 -0.00029205 2.36386871 -0.00058411 3.58161926 -0.00088501 C7.44478995 0.00049587 11.30776191 0.0159982 15.17089844 0.03173828 C17.86659639 0.03659258 20.56229416 0.03841624 23.25799561 0.04031372 C29.60062928 0.04649699 35.94319291 0.06286447 42.28579593 0.0830127 C49.51446365 0.10547067 56.74313494 0.11638986 63.97182894 0.12640357 C78.82468145 0.14723401 93.67747279 0.18234772 108.53027344 0.22705078 C108.53027344 0.55705078 108.53027344 0.88705078 108.53027344 1.22705078 C107.96135156 1.23128272 107.39242968 1.23551466 106.80626774 1.23987484 C92.93334167 1.34338929 79.06046477 1.45211592 65.18762302 1.56639004 C58.47869596 1.62155862 51.76976359 1.67501276 45.06079102 1.72436523 C38.58334123 1.77218964 32.1059422 1.82453827 25.62855339 1.87999153 C23.16031093 1.90033341 20.6920546 1.91905956 18.22378731 1.9361248 C14.76022468 1.96035042 11.29675643 1.9903791 7.83325195 2.02172852 C6.81832672 2.02748398 5.80340149 2.03323944 4.75772095 2.03916931 C-1.05046595 2.09871878 -6.73747404 2.24011684 -12.46972656 3.22705078 C-13.45972656 4.71205078 -13.45972656 4.71205078 -14.46972656 6.22705078 C-15.21222656 6.00017578 -15.95472656 5.77330078 -16.71972656 5.53955078 C-19.49490332 4.9019309 -19.49490332 4.9019309 -21.34472656 6.66455078 C-24.363806 8.88446213 -26.82491964 8.4373281 -30.46972656 8.22705078 C-30.46972656 8.88705078 -30.46972656 9.54705078 -30.46972656 10.22705078 C-31.78972656 10.55705078 -33.10972656 10.88705078 -34.46972656 11.22705078 C-33.80972656 13.86705078 -33.14972656 16.50705078 -32.46972656 19.22705078 C-36.46972656 18.22705078 -36.46972656 18.22705078 -38.46972656 17.22705078 C-38.79972656 16.23705078 -39.12972656 15.24705078 -39.46972656 14.22705078 C-40.45972656 15.21705078 -41.44972656 16.20705078 -42.46972656 17.22705078 C-43.12972656 16.89705078 -43.78972656 16.56705078 -44.46972656 16.22705078 C-32.41944621 2.26290237 -17.66407015 -0.11670943 0 0 Z " fill="#E86983" transform="translate(55.4697265625,315.77294921875)"/>
<path d="M0 0 C0.33 0 0.66 0 1 0 C1.04654352 8.43261 1.08198026 16.86516543 1.10362434 25.29787254 C1.11401759 29.21441594 1.12809428 33.13087081 1.15087891 37.04736328 C1.17276768 40.83398929 1.18460207 44.62053067 1.18975449 48.40721512 C1.19342169 49.84474645 1.20058197 51.28227367 1.21146011 52.71976852 C1.361828 73.43259373 1.361828 73.43259373 -4.375 81.875 C-4.96023437 82.75929688 -5.54546875 83.64359375 -6.1484375 84.5546875 C-7.95471885 86.94019831 -9.75904429 89.0172614 -12 91 C-12.66 91 -13.32 91 -14 91 C-15.76462683 87.91190305 -16 86.76687864 -16 83 C-15.1646875 83.2784375 -15.1646875 83.2784375 -14.3125 83.5625 C-11.59837996 84.07598217 -9.67314517 83.59846534 -7 83 C-7.03480469 82.05898438 -7.06960937 81.11796875 -7.10546875 80.1484375 C-7.13253906 78.90320313 -7.15960938 77.65796875 -7.1875 76.375 C-7.22230469 75.14523437 -7.25710937 73.91546875 -7.29296875 72.6484375 C-6.97668791 68.70968677 -5.93830811 66.40192852 -4 63 C-3.31363375 60.76474965 -3.31363375 60.76474965 -3 59 C-2.34 59.33 -1.68 59.66 -1 60 C-0.505 30.3 -0.505 30.3 0 0 Z " fill="#F62C48" transform="translate(203,408)"/>
<path d="M0 0 C0 16.17 0 32.34 0 49 C-0.33 49 -0.66 49 -1 49 C-1 33.16 -1 17.32 -1 1 C-11.395 2.485 -11.395 2.485 -22 4 C-23.65 4 -25.3 4 -27 4 C-26.505 5.98 -26.505 5.98 -26 8 C-24.865625 8.12375 -23.73125 8.2475 -22.5625 8.375 C-21.386875 8.58125 -20.21125 8.7875 -19 9 C-18.505 9.99 -18.505 9.99 -18 11 C-19.65614657 11.38218767 -21.32457024 11.71395102 -23 12 C-23.495 11.505 -23.495 11.505 -24 11 C-29.6047709 10.78673597 -29.6047709 10.78673597 -35 12 C-35 11.34 -35 10.68 -35 10 C-35.99 10.33 -36.98 10.66 -38 11 C-42.08594833 12.1865126 -45.76342394 12.14865179 -50 12 C-49.67 11.34 -49.34 10.68 -49 10 C-52.63 10.33 -56.26 10.66 -60 11 C-59.67 10.34 -59.34 9.68 -59 9 C-57.07666016 8.46923828 -57.07666016 8.46923828 -54.5390625 8.0703125 C-53.60126953 7.91667236 -52.66347656 7.76303223 -51.69726562 7.60473633 C-50.68341797 7.44642334 -49.66957031 7.28811035 -48.625 7.125 C-40.09858316 5.72634277 -31.64370584 4.16571037 -23.20556641 2.30712891 C-15.26238979 0.57151003 -8.27554067 0 0 0 Z " fill="#F8687C" transform="translate(143,378)"/>
<path d="M0 0 C0.598125 0.20625 1.19625 0.4125 1.8125 0.625 C0.43917716 1.25367668 -0.93625833 1.87773891 -2.3125 2.5 C-3.07820312 2.84804688 -3.84390625 3.19609375 -4.6328125 3.5546875 C-9.49774208 5.59289959 -13.65441362 6.87553513 -18.95822144 6.86550903 C-20.08555191 6.86825836 -21.21288239 6.87100769 -22.37437439 6.87384033 C-24.20748924 6.8630545 -24.20748924 6.8630545 -26.07763672 6.85205078 C-27.37573776 6.85234283 -28.67383881 6.85263489 -30.01127625 6.85293579 C-33.55838434 6.85350811 -37.10535636 6.8417734 -40.65243292 6.82778788 C-44.36399484 6.81526038 -48.07556009 6.81410843 -51.78713989 6.81173706 C-58.80995638 6.80552822 -65.83271038 6.78912548 -72.85549939 6.76903808 C-80.85305918 6.74666052 -88.85062201 6.73568099 -96.84820533 6.72564721 C-113.29467343 6.70475871 -129.74107873 6.66959434 -146.1875 6.625 C-146.1875 5.965 -146.1875 5.305 -146.1875 4.625 C-146.8475 4.295 -147.5075 3.965 -148.1875 3.625 C-146.31553955 3.86751495 -146.31553955 3.86751495 -144.40576172 4.1149292 C-138.83015411 4.73061643 -133.30012968 4.78007912 -127.6953125 4.78613281 C-126.58013748 4.79109772 -125.46496246 4.79606262 -124.31599426 4.80117798 C-120.64815641 4.81571106 -116.98036185 4.82258776 -113.3125 4.828125 C-112.05116241 4.83095238 -110.78982483 4.83377975 -109.49026489 4.83669281 C-103.4978937 4.85011475 -97.50554511 4.86001867 -91.51316166 4.8638947 C-84.64849346 4.86836208 -77.78402569 4.88586021 -70.91941833 4.9148953 C-64.93135314 4.93932349 -58.94338099 4.94684899 -52.95526123 4.94857025 C-50.42941193 4.95157386 -47.90356301 4.95952364 -45.37774658 4.97275543 C-32.50785286 5.03534979 -11.01067164 -1.88754371 0 0 Z " fill="#A8D5ED" transform="translate(182.1875,505.375)"/>
<path d="M0 0 C6.93 0 13.86 0 21 0 C21 0.99 21 1.98 21 3 C29.91 2.01 29.91 2.01 39 1 C35.99812293 4.00187707 32.32479358 3.92651603 28.2734375 4.5078125 C26.97921371 4.70333206 26.97921371 4.70333206 25.65884399 4.90280151 C22.89865845 5.31796115 20.1369262 5.72159953 17.375 6.125 C15.50509526 6.40419166 13.63530187 6.68413018 11.765625 6.96484375 C7.17833119 7.65190705 2.58961741 8.32864135 -2 9 C-2 8.34 -2 7.68 -2 7 C-1.34 7 -0.68 7 0 7 C0 4.69 0 2.38 0 0 Z " fill="#F84F69" transform="translate(100,345)"/>
<path d="M0 0 C2.64 0 5.28 0 8 0 C8.05058526 7.08411622 8.08568494 14.16818612 8.10986328 21.25244141 C8.11993954 23.66391744 8.13360081 26.07538122 8.15087891 28.48681641 C8.1750559 31.94697085 8.18646669 35.4069642 8.1953125 38.8671875 C8.20563507 39.95055389 8.21595764 41.03392029 8.22659302 42.15011597 C8.22674408 43.1510025 8.22689514 44.15188904 8.22705078 45.18310547 C8.231492 46.06690887 8.23593323 46.95071228 8.24050903 47.86129761 C8 50 8 50 6 52 C0.78555016 53.87720194 -3.54513151 54.19139889 -9 54 C-9.495 52.515 -9.495 52.515 -10 51 C-12.00016466 49.79117904 -12.00016466 49.79117904 -14 49 C-10.32431536 48.08107884 -8.83619425 48.04095144 -5 49 C-1.37 48.34 2.26 47.68 6 47 C6 32.15 6 17.3 6 2 C3.03 1.505 3.03 1.505 0 1 C0 0.67 0 0.34 0 0 Z " fill="#F7344E" transform="translate(134,379)"/>
<path d="M0 0 C2.64 0 5.28 0 8 0 C8 0.66 8 1.32 8 2 C8.99 2.33 9.98 2.66 11 3 C10.67 4.32 10.34 5.64 10 7 C6.19755532 8.1326431 2.45731367 9.11767512 -1.4375 9.875 C-5.39289383 10.71872735 -8.64970485 12.13872492 -12.17578125 14.09765625 C-14.09677247 15.04786818 -15.90972903 15.55241438 -18 16 C-19 10.25 -19 10.25 -19 8 C-12.73 7.67 -6.46 7.34 0 7 C0 4.69 0 2.38 0 0 Z " fill="#F6354E" transform="translate(61,437)"/>
<path d="M0 0 C-0.66 0.66 -1.32 1.32 -2 2 C-2.64767793 4.57061311 -2.64767793 4.57061311 -3 7 C-3.66 7 -4.32 7 -5 7 C-5 7.66 -5 8.32 -5 9 C-5.66 9 -6.32 9 -7 9 C-7 8.34 -7 7.68 -7 7 C-8.794375 7.2165625 -8.794375 7.2165625 -10.625 7.4375 C-11.71554688 7.56898438 -11.71554688 7.56898438 -12.828125 7.703125 C-14.68867186 7.95744435 -16.53494083 8.31267313 -18.375 8.6875 C-19.24125 8.790625 -20.1075 8.89375 -21 9 C-23 7 -23 7 -23.125 3.375 C-23.08375 2.26125 -23.0425 1.1475 -23 0 C-21.97519531 0.01160156 -20.95039062 0.02320313 -19.89453125 0.03515625 C-18.533856 0.04454022 -17.17317876 0.05363977 -15.8125 0.0625 C-15.13896484 0.07087891 -14.46542969 0.07925781 -13.77148438 0.08789062 C-10.82548826 0.10226134 -8.0920485 0.01861511 -5.19921875 -0.56640625 C-3 -1 -3 -1 0 0 Z " fill="#F72C46" transform="translate(142,464)"/>
<path d="M0 0 C0.66 0 1.32 0 2 0 C2.03758423 1.5634314 2.03758423 1.5634314 2.07592773 3.15844727 C2.17154069 7.10042461 2.27135701 11.04228708 2.37231445 14.98413086 C2.41509183 16.67616044 2.45679438 18.3682176 2.49731445 20.06030273 C2.72986502 29.73842559 3.07978785 39.36340474 3.89868164 49.01147461 C3.9878724 51.64227953 3.81734505 53.52288594 3 56 C2.01 56 1.02 56 0 56 C0 37.52 0 19.04 0 0 Z " fill="#F93049" transform="translate(151,399)"/>
<path d="M0 0 C0.99 0.33 1.98 0.66 3 1 C2.90721826 7.81379654 2.7998497 14.62725445 2.68261719 21.44067383 C2.64447209 23.75572576 2.60959468 26.07083403 2.578125 28.38598633 C2.53215913 31.72497619 2.47421753 35.06358294 2.4140625 38.40234375 C2.40251129 39.42770737 2.39096008 40.45307098 2.37905884 41.50950623 C2.25529618 47.61574759 1.52693389 53.08246149 0 59 C-0.66 59 -1.32 59 -2 59 C-1.93148331 58.26662415 -1.86296661 57.53324829 -1.79237366 56.77764893 C-1.16170757 49.69399617 -0.80657095 42.65606125 -0.68359375 35.546875 C-0.66281265 34.52064026 -0.64203156 33.49440552 -0.62062073 32.43707275 C-0.55603709 29.20810638 -0.49667143 25.97906961 -0.4375 22.75 C-0.3942277 20.54035775 -0.35061089 18.33072222 -0.30664062 16.12109375 C-0.20045152 10.74746691 -0.09852847 5.37377247 0 0 Z " fill="#4DCEFB" transform="translate(210,419)"/>
<path d="M0 0 C0.66 1.32 1.32 2.64 2 4 C2.33 4.33 2.66 4.66 3 5 C3.15686249 6.55948542 3.25076639 8.12542668 3.31640625 9.69140625 C3.35830078 10.63564453 3.40019531 11.57988281 3.44335938 12.55273438 C3.48267578 13.54595703 3.52199219 14.53917969 3.5625 15.5625 C3.62727539 17.05813477 3.62727539 17.05813477 3.69335938 18.58398438 C3.79980298 21.0558415 3.90181928 23.5278031 4 26 C4.66 26 5.32 26 6 26 C6 28.97 6 31.94 6 35 C4.68 35 3.36 35 2 35 C1.67 32.69 1.34 30.38 1 28 C0.67 28 0.34 28 0 28 C0 18.76 0 9.52 0 0 Z " fill="#F9344E" transform="translate(82,419)"/>
<path d="M0 0 C0.99 0.33 1.98 0.66 3 1 C2.88222036 7.74450998 2.75739272 14.48886323 2.62768555 21.2331543 C2.58439801 23.5270696 2.54271858 25.82101583 2.50268555 28.11499023 C2.44483334 31.41399454 2.38118178 34.71284401 2.31640625 38.01171875 C2.29969376 39.03585373 2.28298126 40.05998871 2.26576233 41.11515808 C2.24581711 42.07577652 2.22587189 43.03639496 2.20532227 44.02612305 C2.18977798 44.86773483 2.1742337 45.70934662 2.15821838 46.57646179 C1.99199385 49.12263557 1.55374448 51.51169671 1 54 C0.67 54 0.34 54 0 54 C0 36.18 0 18.36 0 0 Z " fill="#63D4FC" transform="translate(206,416)"/>
<path d="M0 0 C4.83305001 0 9.20554952 0.30262538 14 1 C14.33 1.99 14.66 2.98 15 4 C10.48649253 7.52273754 7.71658336 8.45732667 2 8 C2 7.01 2 6.02 2 5 C1.34 4.67 0.68 4.34 0 4 C0 2.68 0 1.36 0 0 Z " fill="#F7253E" transform="translate(168,500)"/>
<path d="M0 0 C2.58952342 2.58952342 2.26216888 3.64885766 2.29052734 7.25317383 C2.3096669 8.90178154 2.3096669 8.90178154 2.32919312 10.58369446 C2.33253159 12.37724617 2.33253159 12.37724617 2.3359375 14.20703125 C2.3425943 15.43854416 2.3492511 16.67005707 2.35610962 17.93888855 C2.36625826 20.55584212 2.37092596 23.17282169 2.37060547 25.78979492 C2.37036481 29.7579632 2.411134 33.72537402 2.44921875 37.69335938 C2.45509433 40.23957955 2.45905875 42.78580499 2.4609375 45.33203125 C2.47530853 46.50546585 2.48967957 47.67890045 2.50448608 48.88789368 C2.45944633 57.18652309 0.83062586 64.2106741 -2 72 C-2.66 72 -3.32 72 -4 72 C-4 72.99 -4 73.98 -4 75 C-4.66 75 -5.32 75 -6 75 C-5.71125 74.319375 -5.4225 73.63875 -5.125 72.9375 C-3.87433783 69.67188211 -2.95186852 66.36326877 -2 63 C-1.67 62.34 -1.34 61.68 -1 61 C-0.87994453 59.06028622 -0.82266656 57.11656384 -0.79467773 55.17333984 C-0.77473251 53.95222504 -0.75478729 52.73111023 -0.73423767 51.47299194 C-0.71725344 50.13564177 -0.70037463 48.79829025 -0.68359375 47.4609375 C-0.66302397 46.09615447 -0.64202749 44.73137782 -0.62062073 43.36660767 C-0.56540241 39.77292027 -0.51599213 36.1791754 -0.46777344 32.58538818 C-0.41755663 28.91885254 -0.36187151 25.25240044 -0.30664062 21.5859375 C-0.199062 14.39069574 -0.09761643 7.19538454 0 0 Z " fill="#90CAE6" transform="translate(205,414)"/>
<path d="M0 0 C0.99 0.33 1.98 0.66 3 1 C2.01 1.33 1.02 1.66 0 2 C-1.51617907 3.69863938 -1.51617907 3.69863938 -2 6 C-1.2884375 7.1446875 -1.2884375 7.1446875 -0.5625 8.3125 C1.5201261 11.89461689 0.85256866 14.04718167 0 18 C-1.65 18.66 -3.3 19.32 -5 20 C-6.84193854 16.31612293 -6.36231308 12.02993847 -6 8 C-4.52091164 4.68965938 -2.6773109 2.42232891 0 0 Z " fill="#FCFAFB" transform="translate(117,437)"/>
<path d="M0 0 C0.33 0 0.66 0 1 0 C1.33 15.84 1.66 31.68 2 48 C3.485 47.505 3.485 47.505 5 47 C3.79618552 49.49361571 2.54571278 51.68143083 1 54 C0.34 54 -0.32 54 -1 54 C-1 53.34 -1 52.68 -1 52 C-5.455 52.495 -5.455 52.495 -10 53 C-8 51 -8 51 -4.9375 50 C-1.87849194 49.34247444 -1.87849194 49.34247444 -1 47 C-0.88194823 45.4892243 -0.82303551 43.97361169 -0.79467773 42.45849609 C-0.77473251 41.51767181 -0.75478729 40.57684753 -0.73423767 39.60751343 C-0.71752518 38.58976837 -0.70081268 37.57202332 -0.68359375 36.5234375 C-0.6524221 34.96286118 -0.6524221 34.96286118 -0.62062073 33.37075806 C-0.55510128 30.03890751 -0.49622908 26.7069765 -0.4375 23.375 C-0.39431706 21.11978326 -0.35070285 18.86457473 -0.30664062 16.609375 C-0.19941748 11.07300236 -0.09765554 5.53654922 0 0 Z " fill="#FBE2E5" transform="translate(143,380)"/>
<path d="M0 0 C0.598125 0.20625 1.19625 0.4125 1.8125 0.625 C0.43917716 1.25367668 -0.93625833 1.87773891 -2.3125 2.5 C-3.46105469 3.02207031 -3.46105469 3.02207031 -4.6328125 3.5546875 C-5.47585937 3.90789062 -6.31890625 4.26109375 -7.1875 4.625 C-7.99251953 4.97304688 -8.79753906 5.32109375 -9.62695312 5.6796875 C-14.6769572 7.02044558 -19.50918164 6.87083891 -24.7109375 6.8203125 C-25.81225006 6.8174826 -26.91356262 6.81465271 -28.04824829 6.81173706 C-31.55311108 6.80057478 -35.05771492 6.77547711 -38.5625 6.75 C-40.94400672 6.73996511 -43.32551745 6.73084015 -45.70703125 6.72265625 C-51.53394197 6.70064837 -57.36070248 6.66720999 -63.1875 6.625 C-63.1875 6.295 -63.1875 5.965 -63.1875 5.625 C-62.03451416 5.61041748 -60.88152832 5.59583496 -59.69360352 5.58081055 C-55.33020167 5.52192202 -50.96726838 5.44471423 -46.60424805 5.36254883 C-44.73193077 5.32971801 -42.85952442 5.30156282 -40.98706055 5.27856445 C-29.31717269 5.13147818 -9.88555692 -1.6946669 0 0 Z " fill="#A9CBE5" transform="translate(182.1875,505.375)"/>
<path d="M0 0 C0.66 0.33 1.32 0.66 2 1 C1.59007812 1.71285156 1.18015625 2.42570312 0.7578125 3.16015625 C-4.31782986 12.18217127 -6.2939848 19.7256209 -7 30 C-7.66 30 -8.32 30 -9 30 C-9 24.39 -9 18.78 -9 13 C-7.68 12.34 -6.36 11.68 -5 11 C-5.103125 10.113125 -5.20625 9.22625 -5.3125 8.3125 C-4.90501428 3.99315142 -3.2277297 2.74357025 0 0 Z " fill="#69C4EF" transform="translate(9,332)"/>
<path d="M0 0 C2.64 0 5.28 0 8 0 C8 0.66 8 1.32 8 2 C8.66 1.67 9.32 1.34 10 1 C11.87379605 0.92966231 13.75001102 0.9156978 15.625 0.9375 C17.12933594 0.95103516 17.12933594 0.95103516 18.6640625 0.96484375 C19.43492188 0.97644531 20.20578125 0.98804688 21 1 C21 1.33 21 1.66 21 2 C20.16021606 2.16604736 20.16021606 2.16604736 19.3034668 2.33544922 C16.76337823 2.84172841 14.22547661 3.35824231 11.6875 3.875 C10.80642578 4.04902344 9.92535156 4.22304688 9.01757812 4.40234375 C7.74624023 4.66337891 7.74624023 4.66337891 6.44921875 4.9296875 C5.66893311 5.08679199 4.88864746 5.24389648 4.0847168 5.40576172 C1.72270755 5.96432022 1.72270755 5.96432022 -1 8 C-1.66 7.67 -2.32 7.34 -3 7 C-3 6.34 -3 5.68 -3 5 C-2.34 5 -1.68 5 -1 5 C-0.67 3.35 -0.34 1.7 0 0 Z " fill="#F4536C" transform="translate(74,353)"/>
<path d="M0 0 C3.63 0 7.26 0 11 0 C11 0.99 11 1.98 11 3 C19.91 2.01 19.91 2.01 29 1 C26.3575074 3.6424926 24.57865459 3.55439422 20.8984375 4.0703125 C19.68671875 4.24433594 18.475 4.41835938 17.2265625 4.59765625 C15.95554687 4.77167969 14.68453125 4.94570313 13.375 5.125 C11.456875 5.39763672 11.456875 5.39763672 9.5 5.67578125 C6.33430681 6.12464819 3.16772046 6.56571065 0 7 C0.33 6.34 0.66 5.68 1 5 C3.5625 4.375 3.5625 4.375 6 4 C4.68 3.67 3.36 3.34 2 3 C2 2.34 2 1.68 2 1 C1.34 0.67 0.68 0.34 0 0 Z " fill="#F87B90" transform="translate(110,345)"/>
<path d="M0 0 C2.31 0 4.62 0 7 0 C7.19491452 1.45736087 7.38069358 2.91594593 7.5625 4.375 C7.66691406 5.18710937 7.77132813 5.99921875 7.87890625 6.8359375 C8 9 8 9 7 11 C5.1875 10.8125 5.1875 10.8125 3 10 C0.37665094 6.62712264 -0.36372697 4.24348127 0 0 Z " fill="#F32B45" transform="translate(6,482)"/>
<path d="M0 0 C7.70600303 -0.48162519 13.55951766 1.77343347 20 6 C19.360625 6.12375 18.72125 6.2475 18.0625 6.375 C17.381875 6.58125 16.70125 6.7875 16 7 C15.67 7.66 15.34 8.32 15 9 C14.34 9 13.68 9 13 9 C12.67 7.35 12.34 5.7 12 4 C10.35 3.67 8.7 3.34 7 3 C6.67 3.99 6.34 4.98 6 6 C5.01 5.67 4.02 5.34 3 5 C3 3.68 3 2.36 3 1 C2.01 0.67 1.02 0.34 0 0 Z " fill="#F96982" transform="translate(164,317)"/>
<path d="M0 0 C0 3.74110761 -0.25884204 7.4560694 -0.5 11.1875 C-0.54769531 11.93708984 -0.59539063 12.68667969 -0.64453125 13.45898438 C-0.76217832 15.30604344 -0.88097771 17.15302904 -1 19 C-1.99 18.67 -2.98 18.34 -4 18 C-5.63186199 13.10441403 -5.83931781 8.75493725 -3.625 4.125 C-2 2 -2 2 0 0 Z " fill="#FBE7E8" transform="translate(46,452)"/>
<path d="M0 0 C-0.48578543 3.12290635 -0.9986012 5.99580359 -2 9 C-2.99 9.495 -2.99 9.495 -4 10 C-4.46751788 12.35599235 -4.46751788 12.35599235 -4.625 15.0625 C-4.69976562 15.98160156 -4.77453125 16.90070313 -4.8515625 17.84765625 C-4.90054688 18.55792969 -4.94953125 19.26820313 -5 20 C-5.33 20 -5.66 20 -6 20 C-6 14.39 -6 8.78 -6 3 C-7.32 2.67 -8.64 2.34 -10 2 C-6.5980513 -0.09350689 -3.94727588 -0.17942163 0 0 Z " fill="#F75369" transform="translate(158,344)"/>
<path d="M0 0 C0.804375 0.185625 1.60875 0.37125 2.4375 0.5625 C2.953125 0.706875 3.46875 0.85125 4 1 C0.7394904 4.2605096 -2.89083745 4.05467405 -7.3125 4.0625 C-9.1378125 4.0315625 -9.1378125 4.0315625 -11 4 C-10.67 3.34 -10.34 2.68 -10 2 C-13.63 2.33 -17.26 2.66 -21 3 C-20.67 2.34 -20.34 1.68 -20 1 C-13.31447623 -0.6568472 -6.73735102 -1.57682684 0 0 Z " fill="#F95E75" transform="translate(104,386)"/>
<path d="M0 0 C4.55067425 3.91175437 6.60111795 10.42233482 7.25390625 16.27734375 C7.25 18.1875 7.25 18.1875 7 21 C6.67 20.34 6.34 19.68 6 19 C5.34 19 4.68 19 4 19 C3.29861032 16.63280984 3.00545596 14.92543524 3.1875 12.4375 C3.26741329 9.82508525 3.26741329 9.82508525 1 8.1875 C0.34 7.795625 -0.32 7.40375 -1 7 C-0.67 4.69 -0.34 2.38 0 0 Z " fill="#F86479" transform="translate(197,336)"/>
<path d="M0 0 C0 -0.99 0 -1.98 0 -3 C0.66 -3 1.32 -3 2 -3 C3.38232443 -1.37373596 4.71937515 0.2925002 6 2 C-0.96327638 2.33693273 -6.43345544 1.3030887 -13 -1 C-8.17574115 -3.82801381 -5.06958294 -1.68986098 0 0 Z " fill="#F32D46" transform="translate(40,508)"/>
<path d="M0 0 C3.36179774 1.44077046 5.59156268 3.24750021 8 6 C8 6.66 8 7.32 8 8 C5.36 8 2.72 8 0 8 C-0.79953138 4.71303767 -1.09658936 3.28976808 0 0 Z " fill="#F8304B" transform="translate(110,456)"/>
<path d="M0 0 C2.32590854 3.63423209 2.16265833 6.77088331 2 11 C0.35 11 -1.3 11 -3 11 C-3.75 9.4375 -3.75 9.4375 -4 7 C-2.86915563 4.49713591 -1.47860484 2.32992278 0 0 Z " fill="#F75870" transform="translate(10,333)"/>
<path d="M0 0 C2.31 0 4.62 0 7 0 C6.67 0.99 6.34 1.98 6 3 C3.79355164 3.36572637 1.58471965 3.71708834 -0.625 4.0625 C-2.46964844 4.35833984 -2.46964844 4.35833984 -4.3515625 4.66015625 C-7.84573059 4.98563015 -10.59044235 4.75010268 -14 4 C-12 2 -12 2 -9.1796875 1.8046875 C-8.08914062 1.82789063 -6.99859375 1.85109375 -5.875 1.875 C-4.77929688 1.89304687 -3.68359375 1.91109375 -2.5546875 1.9296875 C-1.71164063 1.95289063 -0.86859375 1.97609375 0 2 C0 1.34 0 0.68 0 0 Z " fill="#F64E68" transform="translate(136,343)"/>
<path d="M0 0 C0.66 0 1.32 0 2 0 C1.835 1.051875 1.67 2.10375 1.5 3.1875 C1.10430322 6.20468796 0.90821029 8.97093972 1 12 C0.34 12 -0.32 12 -1 12 C-1 11.34 -1 10.68 -1 10 C-2.32 10.33 -3.64 10.66 -5 11 C-4.1875 7.5625 -4.1875 7.5625 -3 4 C-2.01 3.67 -1.02 3.34 0 3 C0 2.01 0 1.02 0 0 Z " fill="#FA2D45" transform="translate(80,466)"/>
<path d="M0 0 C0.928125 0.2784375 0.928125 0.2784375 1.875 0.5625 C4.04160178 1.23686176 4.04160178 1.23686176 6 0 C6.6875 2.3125 6.6875 2.3125 7 5 C5.6875 6.8125 5.6875 6.8125 4 8 C3.34 8 2.68 8 2 8 C0.23537317 4.91190305 0 3.76687864 0 0 Z " fill="#F6263E" transform="translate(187,491)"/>
<path d="M0 0 C2.37948772 0.17625835 3.70225849 0.69719773 5.37890625 2.40234375 C6.62115486 3.90649092 7.81376056 5.45129851 9 7 C7.625 9 7.625 9 6 11 C5.34 11 4.68 11 4 11 C3.855625 10.21625 3.71125 9.4325 3.5625 8.625 C3.12201075 6.03578982 3.12201075 6.03578982 2 4 C2.33 3.34 2.66 2.68 3 2 C2.01 1.67 1.02 1.34 0 1 C0 0.67 0 0.34 0 0 Z " fill="#F6627A" transform="translate(184,324)"/>
<path d="M0 0 C0.8125 1.6875 0.8125 1.6875 1 4 C-0.6100274 5.9216456 -2.11491838 7.37918216 -4 9 C-4.67546875 9.61875 -5.3509375 10.2375 -6.046875 10.875 C-11.70917339 16 -11.70917339 16 -14 16 C-14 15.34 -14 14.68 -14 14 C-12.60033552 13.11240789 -11.20006632 12.22575597 -9.796875 11.34375 C-5.91250989 8.43892044 -2.17623635 4.35247271 0 0 Z " fill="#A6BEDB" transform="translate(198,489)"/>
<path d="M0 0 C1.36125 0.12375 1.36125 0.12375 2.75 0.25 C3.41 2.56 4.07 4.87 4.75 7.25 C2.58125748 6.74396008 0.75032373 6.25016187 -1.25 5.25 C-1.58 4.26 -1.91 3.27 -2.25 2.25 C-3.24 3.24 -4.23 4.23 -5.25 5.25 C-5.91 4.92 -6.57 4.59 -7.25 4.25 C-4.83923194 1.28290085 -3.90322061 0.30024774 0 0 Z " fill="#F35970" transform="translate(18.25,327.75)"/>
<path d="M0 0 C0.66 0.33 1.32 0.66 2 1 C0.98408579 6.46864457 -0.07091057 11.76390013 -2 17 C-2.66 17 -3.32 17 -4 17 C-4 17.99 -4 18.98 -4 20 C-4.66 20 -5.32 20 -6 20 C-5.566875 18.9790625 -5.566875 18.9790625 -5.125 17.9375 C-2.89417651 12.11257199 -1.48551855 6.04818266 0 0 Z " fill="#8AC0E2" transform="translate(205,469)"/>
<path d="M0 0 C-0.56847656 0.29132813 -1.13695312 0.58265625 -1.72265625 0.8828125 C-7.11321119 3.74457623 -11.49755438 6.88074124 -16 11 C-15.62890625 9.078125 -15.62890625 9.078125 -15 7 C-12.9375 5.75 -12.9375 5.75 -11 5 C-11 4.34 -11 3.68 -11 3 C-4.03571429 -1.41964286 -4.03571429 -1.41964286 0 0 Z " fill="#57BFEE" transform="translate(27,321)"/>
<path d="M0 0 C0.66 0 1.32 0 2 0 C1.979375 0.763125 1.95875 1.52625 1.9375 2.3125 C1.87057159 5.10185786 1.87057159 5.10185786 3 8 C1.625 9.5 1.625 9.5 0 11 C-0.66 11 -1.32 11 -2 11 C-2.25 3.375 -2.25 3.375 0 0 Z " fill="#F7465D" transform="translate(85,388)"/>
<path d="M0 0 C0.99 0.33 1.98 0.66 3 1 C2.01 1.33 1.02 1.66 0 2 C-1.10836423 3.88316159 -1.10836423 3.88316159 -2 6 C-2.99 7.485 -2.99 7.485 -4 9 C-4.45394552 11.27912938 -4.45394552 11.27912938 -4.625 13.6875 C-4.69976562 14.49574219 -4.77453125 15.30398438 -4.8515625 16.13671875 C-4.90054688 16.75160156 -4.94953125 17.36648438 -5 18 C-5.33 18 -5.66 18 -6 18 C-6.55839416 7.34914842 -6.55839416 7.34914842 -3 3 C-1.3125 1.1875 -1.3125 1.1875 0 0 Z " fill="#FBDCDB" transform="translate(117,437)"/>
<path d="M0 0 C0.66 0.33 1.32 0.66 2 1 C0.02 4.63 -1.96 8.26 -4 12 C-5.23809524 7.04761905 -5.23809524 7.04761905 -4 4 C-1.9375 1.75 -1.9375 1.75 0 0 Z " fill="#5AC3F1" transform="translate(9,332)"/>
<path d="M0 0 C2.52259061 1.97420135 2.9929808 2.96745642 3.6875 6.1875 C3.790625 7.115625 3.89375 8.04375 4 9 C3.01 9 2.02 9 1 9 C0.34 8.34 -0.32 7.68 -1 7 C-0.625 3.375 -0.625 3.375 0 0 Z " fill="#F8586F" transform="translate(197,336)"/>
<path d="M0 0 C-3.06532816 2.04355211 -4.38354689 2.38658825 -7.9375 2.75 C-8.79214844 2.84796875 -9.64679687 2.9459375 -10.52734375 3.046875 C-13.23766556 2.99549449 -14.70187794 2.38633814 -17 1 C-16.06027344 0.90912109 -16.06027344 0.90912109 -15.1015625 0.81640625 C-13.87566406 0.69072266 -13.87566406 0.69072266 -12.625 0.5625 C-11.81289063 0.48128906 -11.00078125 0.40007812 -10.1640625 0.31640625 C-3.4214876 -0.66942149 -3.4214876 -0.66942149 0 0 Z " fill="#F62A44" transform="translate(67,444)"/>
<path d="M0 0 C0.33 0 0.66 0 1 0 C0.67 2.97 0.34 5.94 0 9 C-2 5 -2 5 -1.125 2.25 C-0.75375 1.5075 -0.3825 0.765 0 0 Z M-5 4 C-4.34 4.99 -3.68 5.98 -3 7 C-3.33 7.66 -3.66 8.32 -4 9 C-4.66 9 -5.32 9 -6 9 C-5.67 7.35 -5.34 5.7 -5 4 Z " fill="#F6273E" transform="translate(202,472)"/>
<path d="M0 0 C-0.185625 0.78375 -0.37125 1.5675 -0.5625 2.375 C-1.25962266 4.97089775 -1.25962266 4.97089775 0 7 C-2.97 6.505 -2.97 6.505 -6 6 C-6 5.01 -6 4.02 -6 3 C-2.66666667 0 -2.66666667 0 0 0 Z " fill="#F42A45" transform="translate(149,457)"/>
<path d="M0 0 C0.33 0.66 0.66 1.32 1 2 C0.0625 4.125 0.0625 4.125 -1 6 C-0.34 6.33 0.32 6.66 1 7 C-1.97 6.67 -4.94 6.34 -8 6 C-7.01 5.34 -6.02 4.68 -5 4 C-3.32576317 2.67618483 -1.65788785 1.34423339 0 0 Z " fill="#F3415A" transform="translate(76,471)"/>
<path d="M0 0 C1.0625 1.875 1.0625 1.875 2 4 C1.67 4.66 1.34 5.32 1 6 C-1.46800047 4.84826645 -3.04783565 3.95216435 -5 2 C-3.35 1.34 -1.7 0.68 0 0 Z " fill="#EF314E" transform="translate(22,498)"/>
<path d="M0 0 C1.125 1.75 1.125 1.75 2 4 C1.125 6.25 1.125 6.25 0 8 C-0.99 7.67 -1.98 7.34 -3 7 C-1.125 2.25 -1.125 2.25 0 0 Z " fill="#E85C7A" transform="translate(10,333)"/>
<path d="M0 0 C2.9375 0.375 2.9375 0.375 6 1 C6.33 1.66 6.66 2.32 7 3 C5.68 3 4.36 3 3 3 C2.67 3.66 2.34 4.32 2 5 C1.34 5 0.68 5 0 5 C0 3.35 0 1.7 0 0 Z " fill="#F75871" transform="translate(177,321)"/>
<path d="M0 0 C0.33 0.66 0.66 1.32 1 2 C-1.97 2.66 -4.94 3.32 -8 4 C-8 3.01 -8 2.02 -8 1 C-5.07175348 0.02391783 -3.04386724 -0.08226668 0 0 Z " fill="#E16A8B" transform="translate(36,318)"/>
<path d="M0 0 C0 0.66 0 1.32 0 2 C-3.71888239 1.49287967 -6.73454239 0.88391785 -10 -1 C-6.01146724 -2.23782051 -3.93203895 -1.31067965 0 0 Z " fill="#E9344D" transform="translate(37,507)"/>
<path d="M0 0 C-3 2 -3 2 -6 2 C-6 2.66 -6 3.32 -6 4 C-7.32 3.67 -8.64 3.34 -10 3 C-9.01 3 -8.02 3 -7 3 C-7 2.01 -7 1.02 -7 0 C-3.86650268 -1.04449911 -3.01031744 -0.93423645 0 0 Z " fill="#F8DBDE" transform="translate(145,460)"/>
<path d="M0 0 C0.66 0.33 1.32 0.66 2 1 C1.34 2.65 0.68 4.3 0 6 C-0.66 6 -1.32 6 -2 6 C-2.33 4.68 -2.66 3.36 -3 2 C-2.01 1.34 -1.02 0.68 0 0 Z " fill="#F82B45" transform="translate(112,438)"/>
<path d="M0 0 C0.99 0.33 1.98 0.66 3 1 C1.625 3.5 1.625 3.5 0 6 C-0.66 6 -1.32 6 -2 6 C-2 4.35 -2 2.7 -2 1 C-1.34 0.67 -0.68 0.34 0 0 Z " fill="#F95A72" transform="translate(190,329)"/>
<path d="M0 0 C0.6875 1.75 0.6875 1.75 1 4 C-0.3125 6.25 -0.3125 6.25 -2 8 C-2.66 8 -3.32 8 -4 8 C-2.87548273 5.0280615 -1.77706209 2.66559313 0 0 Z " fill="#94C4E4" transform="translate(198,489)"/>
<path d="M0 0 C0.66 0 1.32 0 2 0 C1.50168276 3.68754757 0.89932357 5.60490662 -2 8 C-2.66 7.67 -3.32 7.34 -4 7 C-3.34 5.68 -2.68 4.36 -2 3 C-1.34 3 -0.68 3 0 3 C0 2.01 0 1.02 0 0 Z " fill="#F3233C" transform="translate(80,466)"/>
</svg>
