<?xml version="1.0" encoding="UTF-8"?>
<svg version="1.1" xmlns="http://www.w3.org/2000/svg" width="2615" height="2615">
<path d="M0 0 C862.95 0 1725.9 0 2615 0 C2615 862.95 2615 1725.9 2615 2615 C1752.05 2615 889.1 2615 0 2615 C0 1752.05 0 889.1 0 0 Z " fill="#00C1F7" transform="translate(0,0)"/>
<path d="M0 0 C1.6365074 9.9461518 2.23663935 19.81859126 2.53515625 29.88671875 C2.57676008 31.22174777 2.61842802 32.55677479 2.66015625 33.89179993 C5.27450832 119.44696932 5.03707018 205.17423517 5.11840982 381.41044558 C5.11427593 396.20490772 5.11266924 410.99936817 5.11310768 425.79383087 C5.11315072 427.31147289 5.11315072 427.31147289 5.11319463 428.85977435 C5.1133511 434.02295544 5.11354304 439.18613654 5.11374746 444.34931764 C5.11513797 481.27743167 5.11178435 518.20554396 5.10573006 555.13365746 C5.09976633 591.59802446 5.09594681 628.06239071 5.09487724 664.52675819 C5.09484283 665.66773533 5.09480842 666.80871246 5.09477296 667.98426465 C5.09445968 678.40843305 5.094172 688.83260144 5.09391499 699.25676983 C5.09327637 725.14663773 5.09231752 751.03650561 5.09113979 776.92637348 C5.09108648 778.10411537 5.09103316 779.28185726 5.09097823 780.4952883 C5.08836952 837.50247438 5.08206735 894.50965997 5.07543945 951.5168457 C5.07314737 971.2491455 5.07087181 990.98144531 5.06866455 1010.71374512 C5.0685276 1011.93788496 5.06839065 1013.16202481 5.06824955 1014.4232598 C5.06188141 1071.54877401 5.05817216 1128.67428831 5.05512976 1185.79980278 C5.0549317 1189.51774763 5.0547325 1193.23569248 5.05453308 1196.95363732 C5.05321306 1221.59686416 5.05193845 1246.24009101 5.05069422 1270.88331785 C5.04821903 1319.89883318 5.0454774 1368.91434849 5.04255217 1417.92986378 C5.04241293 1420.26303637 5.04227387 1422.59620895 5.04213501 1424.92938153 C5.03786449 1496.66257181 5.03239404 1568.39576193 5.02565002 1640.12895203 C5.02537919 1643.01703545 5.02510836 1645.90511888 5.02483763 1648.7932023 C5.01729449 1728.86213494 5.0084828 1808.93106745 5 1889 C-123.04 1889 -251.08 1889 -383 1889 C-383 1839.17 -383 1789.34 -383 1738 C-393.60000593 1746.26080862 -393.60000593 1746.26080862 -403.8125 1754.875 C-410.19050455 1760.42703655 -416.84270916 1765.55952562 -423.58984375 1770.65234375 C-426.54506436 1772.88431817 -429.4723871 1775.14637675 -432.37890625 1777.44140625 C-443.29942358 1786.06242258 -454.51582576 1794.14732117 -466 1802 C-466.97501465 1802.67192383 -466.97501465 1802.67192383 -467.96972656 1803.35742188 C-485.29132141 1815.27705934 -503.42156921 1826.15900635 -522 1836 C-522.85513184 1836.45552246 -523.71026367 1836.91104492 -524.59130859 1837.38037109 C-557.4514564 1854.74100305 -592.90204244 1867.79139575 -629.02636719 1876.51464844 C-630.98637768 1876.99665003 -632.93439011 1877.51232881 -634.8828125 1878.0390625 C-646.45219879 1881.12822448 -658.19155887 1883.07209124 -670 1885 C-671.84464844 1885.309375 -671.84464844 1885.309375 -673.7265625 1885.625 C-682.77282015 1887.09072276 -691.88118842 1888.10532062 -701 1889 C-702.21163818 1889.12048706 -702.21163818 1889.12048706 -703.44775391 1889.2434082 C-735.57491405 1892.18162183 -768.03361125 1892.19698927 -800.27262878 1892.18803024 C-802.59211407 1892.18750741 -804.91159422 1892.188662 -807.2310791 1892.18997192 C-838.60686021 1892.19646165 -869.70435942 1891.83786893 -900.625 1886.0625 C-901.30854553 1885.93525543 -901.99209106 1885.80801086 -902.6963501 1885.6769104 C-910.02626076 1884.29986196 -917.25779486 1882.74943255 -924.43457031 1880.70776367 C-928.77202618 1879.51112449 -933.16805223 1878.58602354 -937.5625 1877.625 C-947.47826837 1875.41084013 -957.24915514 1872.84674711 -967 1870 C-968.22734863 1869.64558838 -969.45469727 1869.29117676 -970.71923828 1868.92602539 C-1049.78763792 1845.99409056 -1122.61275037 1808.88452183 -1186 1756 C-1186.59039063 1755.50870605 -1187.18078125 1755.01741211 -1187.7890625 1754.51123047 C-1194.22448463 1749.14537261 -1200.54799183 1743.67063483 -1206.75 1738.03515625 C-1208.74989375 1736.22622457 -1210.77269432 1734.45108199 -1212.8125 1732.6875 C-1224.76731306 1722.22645201 -1236.04291323 1711.11489603 -1247.25878906 1699.87158203 C-1249.88753409 1697.23744018 -1252.52163178 1694.60873496 -1255.15625 1691.98046875 C-1256.85188349 1690.28417497 -1258.54720703 1688.5875713 -1260.2421875 1686.890625 C-1261.01835419 1686.11648254 -1261.79452087 1685.34234009 -1262.59420776 1684.54473877 C-1266.72973447 1680.39155599 -1270.70755612 1676.15719227 -1274.52716064 1671.71095276 C-1276.58716244 1669.31791122 -1278.73254639 1667.006688 -1280.875 1664.6875 C-1284.89380593 1660.27646827 -1288.72865324 1655.76264642 -1292.47265625 1651.1171875 C-1294.35047916 1648.78762058 -1296.26024117 1646.48742603 -1298.18359375 1644.1953125 C-1320.14837682 1617.9526857 -1339.72898403 1589.53594035 -1357 1560 C-1357.65838867 1558.88044922 -1357.65838867 1558.88044922 -1358.33007812 1557.73828125 C-1378.52033008 1523.31095315 -1395.34347306 1487.4756986 -1409 1450 C-1409.26468079 1449.27490234 -1409.52936157 1448.54980469 -1409.80206299 1447.80273438 C-1424.56669966 1407.23104789 -1435.09637908 1365.88410038 -1441.44067383 1323.16455078 C-1441.72720825 1321.23844971 -1441.72720825 1321.23844971 -1442.01953125 1319.2734375 C-1442.18557861 1318.13310059 -1442.35162598 1316.99276367 -1442.52270508 1315.81787109 C-1442.93738791 1312.93224602 -1442.93738791 1312.93224602 -1444 1310 C-1454.18444287 1240.70100906 -1453.95599287 1169.3898624 -1445 1100 C-1444.76410156 1098.16622803 -1444.76410156 1098.16622803 -1444.5234375 1096.29541016 C-1436.884366 1038.37927164 -1421.29117577 980.62368784 -1398 927 C-1397.4829248 925.80793945 -1396.96584961 924.61587891 -1396.43310547 923.38769531 C-1386.33753838 900.20386141 -1375.29679716 877.69792869 -1362.62207031 855.80859375 C-1361.07515293 853.13012633 -1359.54810079 850.4411774 -1358.0234375 847.75 C-1334.42349702 806.52230173 -1304.92502564 768.10020902 -1273 733 C-1271.60395141 731.43769232 -1270.20812367 729.87518728 -1268.8125 728.3125 C-1257.68162247 715.97586158 -1246.19482289 704.03182663 -1234.4296875 692.29931641 C-1232.10298555 689.97803685 -1229.78176172 687.65137337 -1227.4609375 685.32421875 C-1225.95605012 683.81999133 -1224.45085303 682.31607369 -1222.9453125 680.8125 C-1222.26493927 680.13010254 -1221.58456604 679.44770508 -1220.88357544 678.74462891 C-1216.97619372 674.85605318 -1212.96709249 671.14305497 -1208.78691101 667.54879761 C-1206.01754329 665.14845978 -1203.36009299 662.6317952 -1200.6875 660.125 C-1195.84174969 655.61768528 -1190.87503817 651.33061802 -1185.7109375 647.1875 C-1182.95332163 644.96233446 -1180.26023923 642.67223453 -1177.5625 640.375 C-1107.39462125 581.81040328 -1020.04696892 542.27845614 -932 520 C-931.04625488 519.75652832 -930.09250977 519.51305664 -929.10986328 519.26220703 C-845.33847598 498.15262397 -750.07701188 495.12361012 -665.53125 512.49267578 C-662.98384898 513.00323706 -660.43215157 513.47453064 -657.875 513.93359375 C-590.06552715 526.14199048 -525.50662686 555.57237112 -472 599 C-471.07316406 599.74507812 -470.14632812 600.49015625 -469.19140625 601.2578125 C-448.98522749 617.62217788 -448.98522749 617.62217788 -440.2578125 626.76953125 C-436.98550096 630.00221272 -433.46170983 632.9710039 -430 636 C-418.12 647.88 -406.24 659.76 -394 672 C-393.67 476.97 -393.34 281.94 -393 81 C-384.42 79.02 -375.84 77.04 -367 75 C-360.7772752 73.52056819 -360.7772752 73.52056819 -354.55615234 72.03442383 C-336.4008591 67.69648494 -318.16757684 63.78782756 -299.88793945 60.01220703 C-296.4165566 59.29473134 -292.94658703 58.57077916 -289.47729492 57.84326172 C-274.18985167 54.63979515 -258.8807657 51.55233238 -243.5625 48.5 C-241.23370539 48.03524928 -238.90492931 47.5704057 -236.57617188 47.10546875 C-235.42679138 46.87604584 -234.27741089 46.64662292 -233.09320068 46.4102478 C-230.79570687 45.9516517 -228.49822143 45.49301364 -226.20074463 45.03433228 C-220.49286583 43.89513782 -214.78449906 42.75849762 -209.07519531 41.62646484 C-207.39815773 41.2931012 -207.39815773 41.2931012 -205.6872406 40.95300293 C-203.59117767 40.53634591 -201.49489222 40.12080587 -199.39833069 39.70666504 C-193.1132204 38.45560579 -186.86437652 37.08664316 -180.625 35.625 C-171.0581122 33.40398817 -161.44682227 31.46367087 -151.8125 29.5625 C-141.53382117 27.53332765 -131.28016113 25.44631886 -121.0625 23.125 C-108.22723963 20.21186422 -95.33681857 17.59505767 -82.43823242 14.97970581 C-70.12325309 12.48096304 -57.83069791 9.90653118 -45.5625 7.1875 C-36.76315646 5.24642779 -27.96459224 3.31282722 -19.125 1.5625 C-18.32908447 1.39838623 -17.53316895 1.23427246 -16.71313477 1.06518555 C-11.10532021 -0.01363506 -5.7022244 -0.16780022 0 0 Z " fill="#FEFEFE" transform="translate(2254,377)"/>
<path d="M0 0 C0.92975647 0.00310181 1.85951294 0.00620361 2.81744385 0.00939941 C22.2911817 0.08569304 40.66555383 1.56656278 59.70703125 5.69677734 C62.48480921 6.27276974 65.26860251 6.77795988 68.0625 7.26953125 C117.19446656 16.08880953 164.44792594 36.9857358 203.375 68.25 C204.38949219 69.05179688 205.40398438 69.85359375 206.44921875 70.6796875 C224.23215362 84.93647694 241.40752223 101.22652665 255.375 119.25 C256.93525217 121.06443536 258.49791451 122.87679993 260.0625 124.6875 C318.13223622 194.46121406 342.43840601 287.33137242 334.60571289 376.85229492 C332.97032381 392.18589146 329.91251832 407.25322249 326.375 422.25 C325.93994141 424.10310791 325.93994141 424.10310791 325.49609375 425.99365234 C315.67044069 467.02426093 298.12742369 506.03912713 273.375 540.25 C272.87822754 540.93755371 272.38145508 541.62510742 271.86962891 542.33349609 C266.43902972 549.80595919 260.92153571 557.08644083 254.60546875 563.84375 C252.7714723 565.82228207 251.01079252 567.83298718 249.25390625 569.87890625 C244.76033106 575.02933164 239.95477152 579.8542438 235.125 584.6875 C234.24714844 585.57759766 233.36929688 586.46769531 232.46484375 587.38476562 C226.41689548 593.44599636 220.08143194 598.93254877 213.375 604.25 C212.24068429 605.17915749 211.10760187 606.10982583 209.9765625 607.04296875 C153.31696888 652.62345548 87.53191561 672.68884873 15.48828125 672.56567383 C11.64293994 672.56251474 7.79837207 672.58608205 3.953125 672.61132812 C-92.5124496 672.8531428 -180.65989589 632.61787437 -249.3125 565.75 C-254.12250699 560.87921675 -258.36210546 555.59785506 -262.625 550.25 C-263.23601562 549.52941406 -263.84703125 548.80882812 -264.4765625 548.06640625 C-291.29477831 516.05572738 -310.45337366 475.26814813 -321.625 435.25 C-321.88877441 434.33331543 -322.15254883 433.41663086 -322.42431641 432.47216797 C-327.721747 413.91788042 -331.13507137 395.36222893 -333.625 376.25 C-333.71789307 375.55410767 -333.81078613 374.85821533 -333.90649414 374.14123535 C-335.46324252 362.28686989 -336.02679271 350.57667573 -336 338.625 C-335.99978851 337.7434726 -335.99957703 336.86194519 -335.99935913 335.95370483 C-335.9429936 312.17359572 -333.24475072 288.95209741 -327.30029297 265.88183594 C-326.59352697 263.12733938 -325.92249273 260.36555658 -325.25390625 257.6015625 C-312.48471128 205.71271626 -287.16949592 156.24331317 -251.625 116.25 C-250.97789063 115.51676514 -250.33078125 114.78353027 -249.6640625 114.02807617 C-244.04932698 107.71830671 -238.21948732 101.66137665 -232.25 95.6875 C-231.38117188 94.80642578 -230.51234375 93.92535156 -229.6171875 93.01757812 C-223.60178115 86.98882398 -217.29652882 81.53728722 -210.625 76.25 C-209.21193746 75.10063175 -207.79915335 73.95092107 -206.38671875 72.80078125 C-157.01077768 33.28563307 -97.67538583 11.56946774 -35.625 2.25 C-34.52478516 2.06904785 -33.42457031 1.8880957 -32.29101562 1.70166016 C-21.50516259 0.05569099 -10.89005745 -0.06446259 0 0 Z " fill="#00C1F7" transform="translate(1538.625,1233.75)"/>
<path d="M0 0 C0.33 0 0.66 0 1 0 C1 6.93 1 13.86 1 21 C-5.93 21 -12.86 21 -20 21 C-18.41623174 19.94415449 -16.82214558 18.89874812 -15.16796875 17.95703125 C-7.50699344 13.5296826 -3.04505069 8.28930465 0 0 Z " fill="#000000" transform="translate(2614,2594)"/>
<path d="M0 0 C1.05584551 1.58376826 2.10125188 3.17785442 3.04296875 4.83203125 C7.4703174 12.49300656 12.71069535 16.95494931 21 20 C21 20.33 21 20.66 21 21 C14.07 21 7.14 21 0 21 C0 14.07 0 7.14 0 0 Z " fill="#000000" transform="translate(0,2594)"/>
<path d="M0 0 C6.93 0 13.86 0 21 0 C21 6.93 21 13.86 21 21 C19.94415449 19.41623174 18.89874812 17.82214558 17.95703125 16.16796875 C13.5296826 8.50699344 8.28930465 4.04505069 0 1 C0 0.67 0 0.34 0 0 Z " fill="#000000" transform="translate(2594,0)"/>
<path d="M0 0 C6.93 0 13.86 0 21 0 C19.41623174 1.05584551 17.82214558 2.10125188 16.16796875 3.04296875 C8.50699344 7.4703174 4.04505069 12.71069535 1 21 C0.67 21 0.34 21 0 21 C0 14.07 0 7.14 0 0 Z " fill="#000000" transform="translate(0,0)"/>
</svg>
