<?xml version="1.0" encoding="UTF-8"?>
<!DOCTYPE svg PUBLIC "-//W3C//DTD SVG 1.1//EN" "http://www.w3.org/Graphics/SVG/1.1/DTD/svg11.dtd">
<svg xmlns="http://www.w3.org/2000/svg" version="1.1" width="512px" height="512px" style="shape-rendering:geometricPrecision; text-rendering:geometricPrecision; image-rendering:optimizeQuality; fill-rule:evenodd; clip-rule:evenodd" xmlns:xlink="http://www.w3.org/1999/xlink">
<g><path style="opacity:1" fill="#0865fe" d="M 222.5,-0.5 C 232.5,-0.5 242.5,-0.5 252.5,-0.5C 269.393,2.42941 286.393,5.59607 303.5,9C 315.125,12.5656 326.458,16.7322 337.5,21.5C 339.703,21.6036 341.703,22.2702 343.5,23.5C 343.369,24.3764 343.702,25.0431 344.5,25.5C 350.317,28.3195 355.984,31.3195 361.5,34.5C 366.709,36.7191 371.376,39.7191 375.5,43.5C 377.123,45.951 379.289,47.951 382,49.5C 382.399,49.2716 382.565,48.9382 382.5,48.5C 382.833,48.5 383.167,48.5 383.5,48.5C 384.167,51.1667 385.833,52.8333 388.5,53.5C 390.833,55.1667 392.833,57.1667 394.5,59.5C 397.231,63.2343 400.564,66.2343 404.5,68.5C 406.633,70.0905 408.299,72.0905 409.5,74.5C 412.51,77.8743 415.51,81.2077 418.5,84.5C 419.353,88.0204 421.353,90.6871 424.5,92.5C 426.898,95.5712 428.898,98.9046 430.5,102.5C 430.98,105.005 431.98,107.338 433.5,109.5C 434.325,110.386 435.325,110.719 436.5,110.5C 436.738,112.404 437.738,113.738 439.5,114.5C 440.079,117.331 441.412,119.664 443.5,121.5C 445.316,127.125 447.649,132.459 450.5,137.5C 451.674,138.514 452.34,139.847 452.5,141.5C 454.668,149.161 457.001,156.827 459.5,164.5C 462.217,180.207 465.551,195.541 469.5,210.5C 469.5,222.167 469.5,233.833 469.5,245.5C 467.883,246.589 467.05,248.256 467,250.5C 466.501,254.152 466.335,257.818 466.5,261.5C 466.5,261.833 466.5,262.167 466.5,262.5C 465.778,262.918 465.278,263.584 465,264.5C 464.358,268.491 463.858,272.491 463.5,276.5C 461.377,283.225 459.043,289.892 456.5,296.5C 455.651,298.5 454.151,299.833 452,300.5C 447.856,299.836 443.689,299.336 439.5,299C 399.5,298.333 359.5,298.333 319.5,299C 299.721,301.305 283.221,309.805 270,324.5C 269.758,328.43 268.925,332.097 267.5,335.5C 267.5,322.5 267.5,309.5 267.5,296.5C 288.167,296.5 308.833,296.5 329.5,296.5C 329.993,294.194 330.326,291.861 330.5,289.5C 330.704,286.482 331.037,283.482 331.5,280.5C 332.924,278.485 333.59,276.152 333.5,273.5C 335.775,258.121 338.442,242.788 341.5,227.5C 317.006,226.502 292.339,226.169 267.5,226.5C 267.5,214.833 267.5,203.167 267.5,191.5C 268.881,169.248 280.547,156.081 302.5,152C 313.828,151.5 325.162,151.333 336.5,151.5C 339.625,152.479 342.958,152.813 346.5,152.5C 346.831,131.327 346.497,110.327 345.5,89.5C 342.781,88.087 339.781,87.4203 336.5,87.5C 322.056,85.5389 307.556,84.2055 293,83.5C 285.391,83.3188 277.891,83.9855 270.5,85.5C 264.511,85.3671 258.844,86.3671 253.5,88.5C 219.317,97.0156 197.65,118.349 188.5,152.5C 186.319,160.225 184.819,168.225 184,176.5C 183.5,193.163 183.333,209.83 183.5,226.5C 167.833,226.5 152.167,226.5 136.5,226.5C 136.5,249.833 136.5,273.167 136.5,296.5C 152.167,296.5 167.833,296.5 183.5,296.5C 183.5,346.5 183.5,396.5 183.5,446.5C 171.805,443.047 160.138,439.38 148.5,435.5C 141.734,433.282 135.401,430.282 129.5,426.5C 125.005,422.749 120.005,419.749 114.5,417.5C 110.148,415.327 106.148,412.66 102.5,409.5C 98.2051,405.353 93.5384,401.687 88.5,398.5C 87.8611,396.24 86.6945,394.24 85,392.5C 80.2757,389.66 75.7757,385.993 71.5,381.5C 69.8333,380.5 68.5,379.167 67.5,377.5C 64.4608,373.139 61.1275,369.139 57.5,365.5C 55.4131,364.415 54.0798,362.749 53.5,360.5C 52.1667,358.167 50.8333,355.833 49.5,353.5C 48.4116,347.959 45.4116,343.959 40.5,341.5C 39.6618,341.158 39.3284,340.492 39.5,339.5C 36.3567,331.88 32.6901,324.547 28.5,317.5C 26.9348,315.491 25.9348,313.157 25.5,310.5C 21.7917,298.385 18.1251,286.385 14.5,274.5C 14.4512,270.922 13.7846,267.589 12.5,264.5C 11.6909,262.708 11.1909,260.708 11,258.5C 10.5001,241.17 10.3334,223.837 10.5,206.5C 11.2216,206.082 11.7216,205.416 12,204.5C 12.9178,193.746 14.4178,183.079 16.5,172.5C 19.5242,162.434 22.5242,152.434 25.5,142.5C 28.312,139.087 29.9787,135.087 30.5,130.5C 34.337,124.83 37.6704,118.83 40.5,112.5C 41.9063,112.027 42.573,111.027 42.5,109.5C 42.7497,107.326 43.7497,105.659 45.5,104.5C 48.2205,101.106 50.5538,97.4394 52.5,93.5C 52.8333,92.5 53.5,91.8333 54.5,91.5C 56.914,90.0892 58.5806,88.0892 59.5,85.5C 59.5,85.1667 59.5,84.8333 59.5,84.5C 60.9063,84.0269 61.573,83.0269 61.5,81.5C 73.216,72.7817 83.5494,62.7817 92.5,51.5C 97.0711,49.2624 101.071,46.2624 104.5,42.5C 106.975,39.7589 109.975,37.7589 113.5,36.5C 114.873,36.6567 116.207,36.49 117.5,36C 120.088,33.5838 122.422,31.0838 124.5,28.5C 124.833,28.5 125.167,28.5 125.5,28.5C 125.435,28.9382 125.601,29.2716 126,29.5C 129.644,27.5993 133.144,25.5993 136.5,23.5C 141.265,22.8143 145.265,20.8143 148.5,17.5C 148.5,16.8333 148.833,16.5 149.5,16.5C 149.56,17.0431 149.893,17.3764 150.5,17.5C 166.98,11.5512 183.646,6.55118 200.5,2.5C 208.078,2.28048 215.412,1.28048 222.5,-0.5 Z"/></g>
<g><path style="opacity:0.165" fill="#064cbf" d="M 213.5,-0.5 C 216.5,-0.5 219.5,-0.5 222.5,-0.5C 215.412,1.28048 208.078,2.28048 200.5,2.5C 204.816,1.4076 209.149,0.407598 213.5,-0.5 Z"/></g>
<g><path style="opacity:0.275" fill="#064bbb" d="M 200.5,2.5 C 183.646,6.55118 166.98,11.5512 150.5,17.5C 149.893,17.3764 149.56,17.0431 149.5,16.5C 165.843,9.82851 182.843,5.16184 200.5,2.5 Z"/></g>
<g><path style="opacity:0.188" fill="#064dbf" d="M 252.5,-0.5 C 256.5,-0.5 260.5,-0.5 264.5,-0.5C 285.578,2.55434 306.244,7.72101 326.5,15C 330.23,17.193 333.897,19.3596 337.5,21.5C 326.458,16.7322 315.125,12.5656 303.5,9C 286.393,5.59607 269.393,2.42941 252.5,-0.5 Z"/></g>
<g><path style="opacity:0.773" fill="#064dbe" d="M 148.5,17.5 C 145.265,20.8143 141.265,22.8143 136.5,23.5C 140.151,21.0078 144.151,19.0078 148.5,17.5 Z"/></g>
<g><path style="opacity:0.263" fill="#0543a8" d="M 136.5,23.5 C 133.144,25.5993 129.644,27.5993 126,29.5C 125.601,29.2716 125.435,28.9382 125.5,28.5C 128.751,26.0431 132.418,24.3764 136.5,23.5 Z"/></g>
<g><path style="opacity:0.643" fill="#0545ab" d="M 343.5,23.5 C 348.473,25.9867 353.473,28.4867 358.5,31C 359.71,32.0391 360.71,33.2058 361.5,34.5C 355.984,31.3195 350.317,28.3195 344.5,25.5C 343.702,25.0431 343.369,24.3764 343.5,23.5 Z"/></g>
<g><path style="opacity:0.996" fill="#064ebe" d="M 124.5,28.5 C 122.422,31.0838 120.088,33.5838 117.5,36C 116.207,36.49 114.873,36.6567 113.5,36.5C 116.597,33.1116 120.264,30.4449 124.5,28.5 Z"/></g>
<g><path style="opacity:0.373" fill="#0541a0" d="M 375.5,43.5 C 378.117,44.7859 380.45,46.4525 382.5,48.5C 382.565,48.9382 382.399,49.2716 382,49.5C 379.289,47.951 377.123,45.951 375.5,43.5 Z"/></g>
<g><path style="opacity:0.098" fill="#0543a6" d="M 104.5,42.5 C 101.071,46.2624 97.0711,49.2624 92.5,51.5C 95.9289,47.7376 99.9289,44.7376 104.5,42.5 Z"/></g>
<g><path style="opacity:0.141" fill="#043586" d="M 383.5,48.5 C 385.5,49.8333 387.167,51.5 388.5,53.5C 385.833,52.8333 384.167,51.1667 383.5,48.5 Z"/></g>
<g><path style="opacity:0.463" fill="#042d72" d="M 81.5,61.5 C 78.8333,64.8333 75.8333,67.8333 72.5,70.5C 74.5,66.5 77.5,63.5 81.5,61.5 Z"/></g>
<g><path style="opacity:1" fill="#0758d4" d="M 92.5,51.5 C 83.5494,62.7817 73.216,72.7817 61.5,81.5C 64.8333,77.5 68.5,73.8333 72.5,70.5C 75.8333,67.8333 78.8333,64.8333 81.5,61.5C 84.5425,57.4564 88.2092,54.1231 92.5,51.5 Z"/></g>
<g><path style="opacity:0.004" fill="#0542a5" d="M 394.5,59.5 C 398.68,61.585 402.013,64.585 404.5,68.5C 400.564,66.2343 397.231,63.2343 394.5,59.5 Z"/></g>
<g><path style="opacity:0.008" fill="#042d72" d="M 409.5,74.5 C 413.895,76.5622 416.895,79.8955 418.5,84.5C 415.51,81.2077 412.51,77.8743 409.5,74.5 Z"/></g>
<g><path style="opacity:0.247" fill="#03255d" d="M 61.5,81.5 C 61.573,83.0269 60.9063,84.0269 59.5,84.5C 59.427,82.9731 60.0937,81.9731 61.5,81.5 Z"/></g>
<g><path style="opacity:1" fill="#fefefe" d="M 336.5,87.5 C 338.78,89.2227 341.447,89.8893 344.5,89.5C 344.5,110.167 344.5,130.833 344.5,151.5C 341.833,151.5 339.167,151.5 336.5,151.5C 325.162,151.333 313.828,151.5 302.5,152C 280.547,156.081 268.881,169.248 267.5,191.5C 266.505,203.322 266.172,215.322 266.5,227.5C 291.5,227.5 316.5,227.5 341.5,227.5C 338.442,242.788 335.775,258.121 333.5,273.5C 332.076,275.515 331.41,277.848 331.5,280.5C 331.037,283.482 330.704,286.482 330.5,289.5C 329.262,291.214 328.595,293.214 328.5,295.5C 307.833,295.5 287.167,295.5 266.5,295.5C 266.5,347.833 266.5,400.167 266.5,452.5C 268.415,452.784 270.081,452.451 271.5,451.5C 271.833,451.5 272.167,451.5 272.5,451.5C 274.216,451.371 275.883,451.038 277.5,450.5C 278.5,450.5 279.5,450.5 280.5,450.5C 280.334,457.841 280.5,465.174 281,472.5C 281.278,473.416 281.778,474.082 282.5,474.5C 284.507,487.487 291.174,497.154 302.5,503.5C 305.437,505.589 308.77,507.089 312.5,508C 316.208,508.838 319.875,509.671 323.5,510.5C 323.5,510.833 323.5,511.167 323.5,511.5C 301.167,511.5 278.833,511.5 256.5,511.5C 254.229,506.084 252.729,500.417 252,494.5C 250.716,480.865 250.216,467.199 250.5,453.5C 238.167,453.5 225.833,453.5 213.5,453.5C 208.911,451.125 203.911,450.125 198.5,450.5C 193.38,449.969 188.38,448.969 183.5,447.5C 183.5,447.167 183.5,446.833 183.5,446.5C 183.5,396.5 183.5,346.5 183.5,296.5C 168.342,295.504 153.009,295.17 137.5,295.5C 137.5,272.833 137.5,250.167 137.5,227.5C 153.009,227.83 168.342,227.496 183.5,226.5C 184.331,210.338 184.831,194.005 185,177.5C 186.218,169.143 187.384,160.81 188.5,152.5C 197.65,118.349 219.317,97.0156 253.5,88.5C 259.478,88.5804 265.145,87.5804 270.5,85.5C 277.891,83.9855 285.391,83.3188 293,83.5C 307.556,84.2055 322.056,85.5389 336.5,87.5 Z"/></g>
<g><path style="opacity:0.996" fill="#c9dafd" d="M 270.5,85.5 C 265.145,87.5804 259.478,88.5804 253.5,88.5C 258.844,86.3671 264.511,85.3671 270.5,85.5 Z"/></g>
<g><path style="opacity:0.749" fill="#04409d" d="M 418.5,84.5 C 420.878,86.8785 422.878,89.5451 424.5,92.5C 421.353,90.6871 419.353,88.0204 418.5,84.5 Z"/></g>
<g><path style="opacity:0.373" fill="#053584" d="M 59.5,85.5 C 58.5806,88.0892 56.914,90.0892 54.5,91.5C 55.4194,88.9108 57.086,86.9108 59.5,85.5 Z"/></g>
<g><path style="opacity:0.98" fill="#dfe9fa" d="M 336.5,87.5 C 339.781,87.4203 342.781,88.087 345.5,89.5C 345.831,110.34 345.497,131.007 344.5,151.5C 344.5,130.833 344.5,110.167 344.5,89.5C 341.447,89.8893 338.78,89.2227 336.5,87.5 Z"/></g>
<g><path style="opacity:0.984" fill="#508efb" d="M 345.5,89.5 C 346.497,110.327 346.831,131.327 346.5,152.5C 342.958,152.813 339.625,152.479 336.5,151.5C 339.167,151.5 341.833,151.5 344.5,151.5C 345.497,131.007 345.831,110.34 345.5,89.5 Z"/></g>
<g><path style="opacity:0.224" fill="#052762" d="M 424.5,92.5 C 428.324,94.8226 430.657,98.1559 431.5,102.5C 431.167,102.5 430.833,102.5 430.5,102.5C 428.898,98.9046 426.898,95.5712 424.5,92.5 Z"/></g>
<g><path style="opacity:0.412" fill="#04245b" d="M 52.5,93.5 C 50.5538,97.4394 48.2205,101.106 45.5,104.5C 46.6571,100.024 48.9905,96.3577 52.5,93.5 Z"/></g>
<g><path style="opacity:0.996" fill="#0751c1" d="M 430.5,102.5 C 430.833,102.5 431.167,102.5 431.5,102.5C 433.95,104.629 435.617,107.296 436.5,110.5C 435.325,110.719 434.325,110.386 433.5,109.5C 431.98,107.338 430.98,105.005 430.5,102.5 Z"/></g>
<g><path style="opacity:0.412" fill="#082d70" d="M 42.5,109.5 C 42.573,111.027 41.9063,112.027 40.5,112.5C 40.427,110.973 41.0937,109.973 42.5,109.5 Z"/></g>
<g><path style="opacity:0.427" fill="#052c6d" d="M 436.5,110.5 C 438.262,111.262 439.262,112.596 439.5,114.5C 437.738,113.738 436.738,112.404 436.5,110.5 Z"/></g>
<g><path style="opacity:0.067" fill="#021f4e" d="M 439.5,114.5 C 441.588,116.336 442.921,118.669 443.5,121.5C 441.412,119.664 440.079,117.331 439.5,114.5 Z"/></g>
<g><path style="opacity:0.2" fill="#032a6a" d="M 40.5,112.5 C 37.6704,118.83 34.337,124.83 30.5,130.5C 32.8226,123.847 36.1559,117.847 40.5,112.5 Z"/></g>
<g><path style="opacity:0.584" fill="#042f76" d="M 443.5,121.5 C 446.9,126.307 449.234,131.64 450.5,137.5C 447.649,132.459 445.316,127.125 443.5,121.5 Z"/></g>
<g><path style="opacity:0.792" fill="#07398c" d="M 30.5,130.5 C 29.9787,135.087 28.312,139.087 25.5,142.5C 26.6546,138.203 28.3213,134.203 30.5,130.5 Z"/></g>
<g><path style="opacity:0.384" fill="#043583" d="M 25.5,142.5 C 22.5242,152.434 19.5242,162.434 16.5,172.5C 16.1667,172.5 15.8333,172.5 15.5,172.5C 17.4735,161.913 20.8068,151.913 25.5,142.5 Z"/></g>
<g><path style="opacity:0.016" fill="#032c6f" d="M 452.5,141.5 C 456.709,149.625 459.709,158.292 461.5,167.5C 460.833,166.5 460.167,165.5 459.5,164.5C 457.001,156.827 454.668,149.161 452.5,141.5 Z"/></g>
<g><path style="opacity:0.882" fill="#0651c9" d="M 15.5,172.5 C 15.8333,172.5 16.1667,172.5 16.5,172.5C 14.4178,183.079 12.9178,193.746 12,204.5C 11.7216,205.416 11.2216,206.082 10.5,206.5C 10.6498,194.936 12.3164,183.602 15.5,172.5 Z"/></g>
<g><path style="opacity:0.98" fill="#a7c4fb" d="M 188.5,152.5 C 187.384,160.81 186.218,169.143 185,177.5C 184.831,194.005 184.331,210.338 183.5,226.5C 183.333,209.83 183.5,193.163 184,176.5C 184.819,168.225 186.319,160.225 188.5,152.5 Z"/></g>
<g><path style="opacity:0.137" fill="#0548b3" d="M 459.5,164.5 C 460.167,165.5 460.833,166.5 461.5,167.5C 465.351,181.608 468.018,195.941 469.5,210.5C 465.551,195.541 462.217,180.207 459.5,164.5 Z"/></g>
<g><path style="opacity:0.984" fill="#b3cefa" d="M 267.5,191.5 C 267.5,203.167 267.5,214.833 267.5,226.5C 292.339,226.169 317.006,226.502 341.5,227.5C 316.5,227.5 291.5,227.5 266.5,227.5C 266.172,215.322 266.505,203.322 267.5,191.5 Z"/></g>
<g><path style="opacity:1" fill="#c0d6fd" d="M 183.5,226.5 C 168.342,227.496 153.009,227.83 137.5,227.5C 137.5,250.167 137.5,272.833 137.5,295.5C 153.009,295.17 168.342,295.504 183.5,296.5C 167.833,296.5 152.167,296.5 136.5,296.5C 136.5,273.167 136.5,249.833 136.5,226.5C 152.167,226.5 167.833,226.5 183.5,226.5 Z"/></g>
<g><path style="opacity:0.404" fill="#0540a0" d="M 469.5,245.5 C 469.632,251.166 468.632,256.5 466.5,261.5C 466.335,257.818 466.501,254.152 467,250.5C 467.05,248.256 467.883,246.589 469.5,245.5 Z"/></g>
<g><path style="opacity:0.275" fill="#053e9c" d="M 12.5,264.5 C 13.7846,267.589 14.4512,270.922 14.5,274.5C 12.9886,271.456 12.322,268.122 12.5,264.5 Z"/></g>
<g><path style="opacity:0.176" fill="#053b96" d="M 466.5,262.5 C 466.13,267.422 465.13,272.089 463.5,276.5C 463.858,272.491 464.358,268.491 465,264.5C 465.278,263.584 465.778,262.918 466.5,262.5 Z"/></g>
<g><path style="opacity:0.992" fill="#8cb3fd" d="M 333.5,273.5 C 333.59,276.152 332.924,278.485 331.5,280.5C 331.41,277.848 332.076,275.515 333.5,273.5 Z"/></g>
<g><path style="opacity:0.231" fill="#043482" d="M 14.5,274.5 C 18.1251,286.385 21.7917,298.385 25.5,310.5C 24.6851,309.571 23.8518,308.571 23,307.5C 19.0326,296.769 16.1993,285.769 14.5,274.5 Z"/></g>
<g><path style="opacity:0.255" fill="#103c8f" d="M 463.5,276.5 C 462.64,282.94 461.306,289.273 459.5,295.5C 458.425,299.14 456.759,302.474 454.5,305.5C 455.167,302.5 455.833,299.5 456.5,296.5C 459.043,289.892 461.377,283.225 463.5,276.5 Z"/></g>
<g><path style="opacity:0.143" fill="#fefdfd" d="M 459.5,295.5 C 485.988,299.005 503.322,313.339 511.5,338.5C 511.5,394.5 511.5,450.5 511.5,506.5C 510.463,507.93 509.796,509.597 509.5,511.5C 447.5,511.5 385.5,511.5 323.5,511.5C 323.5,511.167 323.5,510.833 323.5,510.5C 362.167,510.5 400.833,510.5 439.5,510.5C 443.971,511.089 447.971,510.423 451.5,508.5C 463.652,505.587 472.652,498.587 478.5,487.5C 480.663,484.166 481.996,480.5 482.5,476.5C 483.222,476.082 483.722,475.416 484,474.5C 484.831,433.665 484.665,392.998 483.5,352.5C 483.016,345.882 480.85,339.882 477,334.5C 473.318,330.985 469.818,327.318 466.5,323.5C 461.031,321.09 455.697,318.756 450.5,316.5C 451.847,312.826 453.18,309.16 454.5,305.5C 456.759,302.474 458.425,299.14 459.5,295.5 Z"/></g>
<g><path style="opacity:1" fill="#136cfe" d="M 456.5,296.5 C 455.833,299.5 455.167,302.5 454.5,305.5C 453.508,305.328 452.842,305.662 452.5,306.5C 451.883,306.611 451.383,306.944 451,307.5C 443.966,305.962 436.8,305.129 429.5,305C 398.167,304.333 366.833,304.333 335.5,305C 308.609,303.718 287.442,313.885 272,335.5C 270.18,339.496 268.68,343.496 267.5,347.5C 267.5,343.5 267.5,339.5 267.5,335.5C 268.925,332.097 269.758,328.43 270,324.5C 283.221,309.805 299.721,301.305 319.5,299C 359.5,298.333 399.5,298.333 439.5,299C 443.689,299.336 447.856,299.836 452,300.5C 454.151,299.833 455.651,298.5 456.5,296.5 Z"/></g>
<g><path style="opacity:1" fill="#1d73fe" d="M 452.5,306.5 C 452.473,308.199 451.806,309.533 450.5,310.5C 411.87,308.464 373.203,307.964 334.5,309C 313.118,308.343 294.951,315.51 280,330.5C 273.301,339.55 269.134,349.55 267.5,360.5C 267.5,356.167 267.5,351.833 267.5,347.5C 268.68,343.496 270.18,339.496 272,335.5C 287.442,313.885 308.609,303.718 335.5,305C 366.833,304.333 398.167,304.333 429.5,305C 436.8,305.129 443.966,305.962 451,307.5C 451.383,306.944 451.883,306.611 452.5,306.5 Z"/></g>
<g><path style="opacity:1" fill="#2a7afe" d="M 450.5,310.5 C 450.5,311.5 450.5,312.5 450.5,313.5C 407.517,311.05 364.517,310.883 321.5,313C 292.703,317.462 275.203,333.962 269,362.5C 268.5,392.165 268.333,421.831 268.5,451.5C 267.502,421.338 267.169,391.005 267.5,360.5C 269.134,349.55 273.301,339.55 280,330.5C 294.951,315.51 313.118,308.343 334.5,309C 373.203,307.964 411.87,308.464 450.5,310.5 Z"/></g>
<g><path style="opacity:1" fill="#4982f8" d="M 454.5,305.5 C 453.18,309.16 451.847,312.826 450.5,316.5C 407.847,315.372 365.18,315.205 322.5,316C 310.312,317.097 299.979,321.93 291.5,330.5C 290.5,330.5 289.5,330.5 288.5,330.5C 288.5,331.5 288.5,332.5 288.5,333.5C 286.058,333.119 285.391,333.786 286.5,335.5C 285.624,336.251 284.624,336.751 283.5,337C 283.957,337.414 284.291,337.914 284.5,338.5C 276.589,346.031 272.423,355.365 272,366.5C 271.825,394.905 271.325,423.239 270.5,451.5C 269.833,451.5 269.167,451.5 268.5,451.5C 268.333,421.831 268.5,392.165 269,362.5C 275.203,333.962 292.703,317.462 321.5,313C 364.517,310.883 407.517,311.05 450.5,313.5C 450.5,312.5 450.5,311.5 450.5,310.5C 451.806,309.533 452.473,308.199 452.5,306.5C 452.842,305.662 453.508,305.328 454.5,305.5 Z"/></g>
<g><path style="opacity:0.282" fill="#032b6b" d="M 28.5,317.5 C 32.6901,324.547 36.3567,331.88 39.5,339.5C 38.5416,339.047 37.7083,338.381 37,337.5C 33.8725,330.917 31.0391,324.25 28.5,317.5 Z"/></g>
<g><path style="opacity:1" fill="#fa556e" d="M 450.5,316.5 C 455.697,318.756 461.031,321.09 466.5,323.5C 469.818,327.318 473.318,330.985 477,334.5C 480.85,339.882 483.016,345.882 483.5,352.5C 482.5,352.5 481.5,352.5 480.5,352.5C 480.5,355.833 480.5,359.167 480.5,362.5C 479.5,362.5 478.5,362.5 477.5,362.5C 477.784,359.223 477.451,356.057 476.5,353C 462.833,352.333 449.167,352.333 435.5,353C 434.718,355.74 434.218,358.574 434,361.5C 432.93,355.445 432.597,349.445 433,343.5C 432.667,344.833 432.333,346.167 432,347.5C 431.013,343.233 430.179,342.9 429.5,346.5C 428.181,345.103 426.514,344.437 424.5,344.5C 419.075,345.131 413.742,346.131 408.5,347.5C 404.267,347.539 400.267,348.205 396.5,349.5C 385.898,351.769 375.232,353.935 364.5,356C 360.088,356.595 356.088,358.095 352.5,360.5C 351.909,359.849 351.243,359.182 350.5,358.5C 353.064,356.684 353.064,354.851 350.5,353C 347.183,352.502 343.85,352.335 340.5,352.5C 340.5,351.5 340.5,350.5 340.5,349.5C 337.5,349.5 334.5,349.5 331.5,349.5C 331.5,350.5 331.5,351.5 331.5,352.5C 317.421,353.138 303.588,352.472 290,350.5C 288.951,352.107 287.451,352.773 285.5,352.5C 285.307,348.551 284.807,348.551 284,352.5C 283.722,351.584 283.222,350.918 282.5,350.5C 283.475,347.933 284.142,345.267 284.5,342.5C 286.329,338.172 288.662,334.172 291.5,330.5C 299.979,321.93 310.312,317.097 322.5,316C 365.18,315.205 407.847,315.372 450.5,316.5 Z"/></g>
<g><path style="opacity:0.996" fill="#0752c4" d="M 40.5,341.5 C 45.4116,343.959 48.4116,347.959 49.5,353.5C 48.8333,353.167 48.1667,352.833 47.5,352.5C 44.8059,349.124 42.4726,345.457 40.5,341.5 Z"/></g>
<g><path style="opacity:1" fill="#fdf8f9" d="M 429.5,346.5 C 430.492,354.316 430.826,362.316 430.5,370.5C 430.667,396.835 430.5,423.169 430,449.5C 428.738,451.784 427.572,454.118 426.5,456.5C 423.152,460.517 418.819,462.85 413.5,463.5C 408.13,463.608 402.797,463.275 397.5,462.5C 393.982,459.637 391.649,455.97 390.5,451.5C 389.992,442.163 394.325,436.33 403.5,434C 408.5,433 413.5,432 418.5,431C 420.141,429.871 421.141,428.371 421.5,426.5C 422.496,410.342 422.83,394.009 422.5,377.5C 418.958,377.187 415.625,377.521 412.5,378.5C 398.223,381.15 383.889,383.65 369.5,386C 367.073,386.902 364.74,387.736 362.5,388.5C 361.883,388.611 361.383,388.944 361,389.5C 360.5,411.831 360.333,434.164 360.5,456.5C 360.664,459.187 360.497,461.854 360,464.5C 358.628,465.91 357.795,467.577 357.5,469.5C 349.175,477.162 339.508,479.329 328.5,476C 320.37,470.587 318.37,463.42 322.5,454.5C 325.003,452.167 327.669,450.001 330.5,448C 331.793,447.51 333.127,447.343 334.5,447.5C 336.898,447.741 338.898,447.074 340.5,445.5C 343.079,444.772 345.746,444.272 348.5,444C 350.426,443.578 351.426,442.411 351.5,440.5C 352.495,429.679 352.828,418.679 352.5,407.5C 352.5,391.833 352.5,376.167 352.5,360.5C 356.088,358.095 360.088,356.595 364.5,356C 375.232,353.935 385.898,351.769 396.5,349.5C 400.764,349.656 404.764,348.989 408.5,347.5C 413.742,346.131 419.075,345.131 424.5,344.5C 426.514,344.437 428.181,345.103 429.5,346.5 Z"/></g>
<g><path style="opacity:1" fill="#fc93a4" d="M 408.5,347.5 C 404.764,348.989 400.764,349.656 396.5,349.5C 400.267,348.205 404.267,347.539 408.5,347.5 Z"/></g>
<g><path style="opacity:1" fill="#fb4d66" d="M 352.5,360.5 C 352.5,376.167 352.5,391.833 352.5,407.5C 351.523,404.713 351.19,401.713 351.5,398.5C 351.5,392.5 351.5,386.5 351.5,380.5C 351.666,373.825 351.5,367.158 351,360.5C 350.502,363.817 350.335,367.15 350.5,370.5C 328.167,370.5 305.833,370.5 283.5,370.5C 283.666,366.486 283.499,362.486 283,358.5C 282.768,359.737 282.268,360.737 281.5,361.5C 281.185,357.629 281.518,353.962 282.5,350.5C 283.222,350.918 283.722,351.584 284,352.5C 284.807,348.551 285.307,348.551 285.5,352.5C 287.451,352.773 288.951,352.107 290,350.5C 303.588,352.472 317.421,353.138 331.5,352.5C 331.5,351.5 331.5,350.5 331.5,349.5C 334.5,349.5 337.5,349.5 340.5,349.5C 340.5,350.5 340.5,351.5 340.5,352.5C 343.85,352.335 347.183,352.502 350.5,353C 353.064,354.851 353.064,356.684 350.5,358.5C 351.243,359.182 351.909,359.849 352.5,360.5 Z"/></g>
<g><path style="opacity:1" fill="#fb4b65" d="M 483.5,352.5 C 483.5,354.5 483.5,356.5 483.5,358.5C 482.504,374.658 482.17,390.991 482.5,407.5C 481.434,396.26 479.934,384.927 478,373.5C 477.83,375.715 477.163,377.715 476,379.5C 463.246,378.511 450.413,378.178 437.5,378.5C 437.813,375.753 437.48,373.086 436.5,370.5C 435.833,379.991 435.167,389.325 434.5,398.5C 433.778,398.082 433.278,397.416 433,396.5C 433.142,387.442 432.309,378.775 430.5,370.5C 430.826,362.316 430.492,354.316 429.5,346.5C 430.179,342.9 431.013,343.233 432,347.5C 432.333,346.167 432.667,344.833 433,343.5C 432.597,349.445 432.93,355.445 434,361.5C 434.218,358.574 434.718,355.74 435.5,353C 449.167,352.333 462.833,352.333 476.5,353C 477.451,356.057 477.784,359.223 477.5,362.5C 478.5,362.5 479.5,362.5 480.5,362.5C 480.5,359.167 480.5,355.833 480.5,352.5C 481.5,352.5 482.5,352.5 483.5,352.5 Z"/></g>
<g><path style="opacity:0.098" fill="#032357" d="M 47.5,352.5 C 48.1667,352.833 48.8333,353.167 49.5,353.5C 50.8333,355.833 52.1667,358.167 53.5,360.5C 50.3528,358.687 48.3528,356.02 47.5,352.5 Z"/></g>
<g><path style="opacity:0.98" fill="#89b3f9" d="M 330.5,289.5 C 330.326,291.861 329.993,294.194 329.5,296.5C 308.833,296.5 288.167,296.5 267.5,296.5C 267.5,309.5 267.5,322.5 267.5,335.5C 267.5,339.5 267.5,343.5 267.5,347.5C 267.5,351.833 267.5,356.167 267.5,360.5C 267.169,391.005 267.502,421.338 268.5,451.5C 269.167,451.5 269.833,451.5 270.5,451.5C 270.833,451.5 271.167,451.5 271.5,451.5C 270.081,452.451 268.415,452.784 266.5,452.5C 266.5,400.167 266.5,347.833 266.5,295.5C 287.167,295.5 307.833,295.5 328.5,295.5C 328.595,293.214 329.262,291.214 330.5,289.5 Z"/></g>
<g><path style="opacity:0.408" fill="#042d71" d="M 57.5,365.5 C 61.1275,369.139 64.4608,373.139 67.5,377.5C 65.629,377.141 64.129,376.141 63,374.5C 60.6535,371.806 58.8202,368.806 57.5,365.5 Z"/></g>
<g><path style="opacity:1" fill="#4e91fe" d="M 291.5,330.5 C 288.662,334.172 286.329,338.172 284.5,342.5C 280.333,349.453 277.833,357.12 277,365.5C 275.826,393.151 275.159,420.817 275,448.5C 274.302,449.691 273.469,450.691 272.5,451.5C 272.167,451.5 271.833,451.5 271.5,451.5C 271.167,451.5 270.833,451.5 270.5,451.5C 271.325,423.239 271.825,394.905 272,366.5C 272.423,355.365 276.589,346.031 284.5,338.5C 284.291,337.914 283.957,337.414 283.5,337C 284.624,336.751 285.624,336.251 286.5,335.5C 285.391,333.786 286.058,333.119 288.5,333.5C 288.5,332.5 288.5,331.5 288.5,330.5C 289.5,330.5 290.5,330.5 291.5,330.5 Z"/></g>
<g><path style="opacity:1" fill="#fb4861" d="M 351.5,380.5 C 348.15,380.335 344.817,380.502 341.5,381C 344.146,381.497 346.813,381.664 349.5,381.5C 349.5,384.167 349.5,386.833 349.5,389.5C 327.486,389.501 305.486,389.834 283.5,390.5C 283.822,396.358 283.489,402.025 282.5,407.5C 282.829,392.324 282.496,377.324 281.5,362.5C 281.5,362.167 281.5,361.833 281.5,361.5C 282.268,360.737 282.768,359.737 283,358.5C 283.499,362.486 283.666,366.486 283.5,370.5C 305.833,370.5 328.167,370.5 350.5,370.5C 350.335,367.15 350.502,363.817 351,360.5C 351.5,367.158 351.666,373.825 351.5,380.5 Z"/></g>
<g><path style="opacity:1" fill="#72a5fc" d="M 280.5,361.5 C 280.5,391.167 280.5,420.833 280.5,450.5C 279.5,450.5 278.5,450.5 277.5,450.5C 278.007,420.719 279.007,391.053 280.5,361.5 Z"/></g>
<g><path style="opacity:1" fill="#609afd" d="M 284.5,342.5 C 284.142,345.267 283.475,347.933 282.5,350.5C 281.518,353.962 281.185,357.629 281.5,361.5C 281.167,361.5 280.833,361.5 280.5,361.5C 279.007,391.053 278.007,420.719 277.5,450.5C 275.883,451.038 274.216,451.371 272.5,451.5C 273.469,450.691 274.302,449.691 275,448.5C 275.159,420.817 275.826,393.151 277,365.5C 277.833,357.12 280.333,349.453 284.5,342.5 Z"/></g>
<g><path style="opacity:1" fill="#fa435a" d="M 412.5,378.5 C 413.167,378.5 413.833,378.5 414.5,378.5C 416.218,379.224 418.052,379.891 420,380.5C 420.167,382 420.333,383.5 420.5,385C 420.034,396.332 419.034,406.832 417.5,416.5C 414.5,416.5 411.5,416.5 408.5,416.5C 408.5,413.833 408.5,411.167 408.5,408.5C 398.833,408.5 389.167,408.5 379.5,408.5C 379.5,411.167 379.5,413.833 379.5,416.5C 376.223,416.216 373.057,416.549 370,417.5C 368.913,414.309 368.08,410.975 367.5,407.5C 366.833,410.5 366.167,413.5 365.5,416.5C 364.794,406.986 363.794,397.653 362.5,388.5C 364.74,387.736 367.073,386.902 369.5,386C 383.889,383.65 398.223,381.15 412.5,378.5 Z"/></g>
<g><path style="opacity:1" fill="#fd7f91" d="M 412.5,378.5 C 415.625,377.521 418.958,377.187 422.5,377.5C 422.83,394.009 422.496,410.342 421.5,426.5C 421.5,410.5 421.5,394.5 421.5,378.5C 419.167,378.5 416.833,378.5 414.5,378.5C 413.833,378.5 413.167,378.5 412.5,378.5 Z"/></g>
<g><path style="opacity:0.965" fill="#0652c6" d="M 71.5,381.5 C 75.7757,385.993 80.2757,389.66 85,392.5C 86.6945,394.24 87.8611,396.24 88.5,398.5C 84.7123,395.101 80.7123,391.934 76.5,389C 74.5854,386.6 72.9188,384.1 71.5,381.5 Z"/></g>
<g><path style="opacity:1" fill="#fb4159" d="M 351.5,380.5 C 351.5,386.5 351.5,392.5 351.5,398.5C 350.578,402.995 349.911,407.662 349.5,412.5C 346.428,412.183 343.428,412.516 340.5,413.5C 340.833,414.167 341.167,414.833 341.5,415.5C 338.232,416.487 334.898,416.82 331.5,416.5C 331.5,415.167 331.5,413.833 331.5,412.5C 328.167,412.5 324.833,412.5 321.5,412.5C 321.5,413.833 321.5,415.167 321.5,416.5C 315.132,416.83 308.798,416.496 302.5,415.5C 302.833,414.833 303.167,414.167 303.5,413.5C 296.866,412.503 290.2,412.17 283.5,412.5C 283.66,414.199 283.494,415.866 283,417.5C 282.502,414.183 282.335,410.85 282.5,407.5C 283.489,402.025 283.822,396.358 283.5,390.5C 305.486,389.834 327.486,389.501 349.5,389.5C 349.5,386.833 349.5,384.167 349.5,381.5C 346.813,381.664 344.146,381.497 341.5,381C 344.817,380.502 348.15,380.335 351.5,380.5 Z"/></g>
<g><path style="opacity:0.008" fill="#043b94" d="M 88.5,398.5 C 93.5384,401.687 98.2051,405.353 102.5,409.5C 97.0986,406.796 92.432,403.129 88.5,398.5 Z"/></g>
<g><path style="opacity:1" fill="#fb3b53" d="M 414.5,378.5 C 416.833,378.5 419.167,378.5 421.5,378.5C 421.5,394.5 421.5,410.5 421.5,426.5C 421.141,428.371 420.141,429.871 418.5,431C 413.5,432 408.5,433 403.5,434C 394.325,436.33 389.992,442.163 390.5,451.5C 389.883,451.389 389.383,451.056 389,450.5C 388.51,451.793 388.343,453.127 388.5,454.5C 382.107,454.793 375.773,454.46 369.5,453.5C 368.029,454.381 367.196,455.714 367,457.5C 364.322,453.667 362.822,449.334 362.5,444.5C 361.833,448.647 361.166,452.647 360.5,456.5C 360.333,434.164 360.5,411.831 361,389.5C 361.383,388.944 361.883,388.611 362.5,388.5C 363.794,397.653 364.794,406.986 365.5,416.5C 366.167,413.5 366.833,410.5 367.5,407.5C 368.08,410.975 368.913,414.309 370,417.5C 373.057,416.549 376.223,416.216 379.5,416.5C 379.5,413.833 379.5,411.167 379.5,408.5C 389.167,408.5 398.833,408.5 408.5,408.5C 408.5,411.167 408.5,413.833 408.5,416.5C 411.5,416.5 414.5,416.5 417.5,416.5C 419.034,406.832 420.034,396.332 420.5,385C 420.333,383.5 420.167,382 420,380.5C 418.052,379.891 416.218,379.224 414.5,378.5 Z"/></g>
<g><path style="opacity:0.894" fill="#fb657d" d="M 483.5,352.5 C 484.665,392.998 484.831,433.665 484,474.5C 483.722,475.416 483.222,476.082 482.5,476.5C 483.441,459.861 483.775,443.195 483.5,426.5C 483.5,403.833 483.5,381.167 483.5,358.5C 483.5,356.5 483.5,354.5 483.5,352.5 Z"/></g>
<g><path style="opacity:1" fill="#fb3b54" d="M 281.5,362.5 C 282.496,377.324 282.829,392.324 282.5,407.5C 282.335,410.85 282.502,414.183 283,417.5C 283.494,415.866 283.66,414.199 283.5,412.5C 290.2,412.17 296.866,412.503 303.5,413.5C 303.167,414.167 302.833,414.833 302.5,415.5C 308.798,416.496 315.132,416.83 321.5,416.5C 321.5,415.167 321.5,413.833 321.5,412.5C 324.833,412.5 328.167,412.5 331.5,412.5C 331.5,413.833 331.5,415.167 331.5,416.5C 334.898,416.82 338.232,416.487 341.5,415.5C 341.167,414.833 340.833,414.167 340.5,413.5C 343.428,412.516 346.428,412.183 349.5,412.5C 349.911,407.662 350.578,402.995 351.5,398.5C 351.19,401.713 351.523,404.713 352.5,407.5C 352.828,418.679 352.495,429.679 351.5,440.5C 351.827,435.786 351.493,431.12 350.5,426.5C 349.614,427.325 349.281,428.325 349.5,429.5C 327.435,428.851 305.602,429.517 284,431.5C 283.802,429.618 283.302,427.952 282.5,426.5C 282.167,426.5 281.833,426.5 281.5,426.5C 281.5,405.167 281.5,383.833 281.5,362.5 Z"/></g>
<g><path style="opacity:0.016" fill="#053f9d" d="M 114.5,417.5 C 120.005,419.749 125.005,422.749 129.5,426.5C 123.662,424.754 118.662,421.754 114.5,417.5 Z"/></g>
<g><path style="opacity:1" fill="#fb3850" d="M 483.5,358.5 C 483.5,381.167 483.5,403.833 483.5,426.5C 482.85,426.196 482.183,425.863 481.5,425.5C 480.213,428.709 480.213,431.875 481.5,435C 480.987,444.583 480.154,454.083 479,463.5C 478.667,456.833 478.333,450.167 478,443.5C 476.878,446.897 476.044,450.397 475.5,454C 462.838,454.5 450.171,454.667 437.5,454.5C 437.649,453.448 437.483,452.448 437,451.5C 434.922,454.354 432.755,454.688 430.5,452.5C 429.591,454.375 428.257,455.708 426.5,456.5C 427.572,454.118 428.738,451.784 430,449.5C 430.5,423.169 430.667,396.835 430.5,370.5C 432.309,378.775 433.142,387.442 433,396.5C 433.278,397.416 433.778,398.082 434.5,398.5C 434.334,407.839 434.5,417.173 435,426.5C 435.957,418.191 436.624,409.858 437,401.5C 437.499,406.489 437.666,411.489 437.5,416.5C 440.85,416.665 444.183,416.498 447.5,416C 446.663,414.989 446.33,413.822 446.5,412.5C 450.226,412.177 453.893,412.511 457.5,413.5C 457.167,414.167 456.833,414.833 456.5,415.5C 464.166,416.307 471.833,416.973 479.5,417.5C 479.334,412.489 479.501,407.489 480,402.5C 480.83,407.143 481.497,411.81 482,416.5C 482.498,413.518 482.665,410.518 482.5,407.5C 482.17,390.991 482.504,374.658 483.5,358.5 Z"/></g>
<g><path style="opacity:1" fill="#fa435a" d="M 482.5,407.5 C 482.665,410.518 482.498,413.518 482,416.5C 481.497,411.81 480.83,407.143 480,402.5C 479.501,407.489 479.334,412.489 479.5,417.5C 471.833,416.973 464.166,416.307 456.5,415.5C 456.833,414.833 457.167,414.167 457.5,413.5C 453.893,412.511 450.226,412.177 446.5,412.5C 446.33,413.822 446.663,414.989 447.5,416C 444.183,416.498 440.85,416.665 437.5,416.5C 437.666,411.489 437.499,406.489 437,401.5C 436.624,409.858 435.957,418.191 435,426.5C 434.5,417.173 434.334,407.839 434.5,398.5C 435.167,389.325 435.833,379.991 436.5,370.5C 437.48,373.086 437.813,375.753 437.5,378.5C 450.413,378.178 463.246,378.511 476,379.5C 477.163,377.715 477.83,375.715 478,373.5C 479.934,384.927 481.434,396.26 482.5,407.5 Z"/></g>
<g><path style="opacity:1" fill="#fb364e" d="M 282.5,426.5 C 283.302,427.952 283.802,429.618 284,431.5C 305.602,429.517 327.435,428.851 349.5,429.5C 349.281,428.325 349.614,427.325 350.5,426.5C 351.493,431.12 351.827,435.786 351.5,440.5C 351.426,442.411 350.426,443.578 348.5,444C 345.746,444.272 343.079,444.772 340.5,445.5C 338.102,445.259 336.102,445.926 334.5,447.5C 333.127,447.343 331.793,447.51 330.5,448C 327.669,450.001 325.003,452.167 322.5,454.5C 321.752,452.265 320.919,452.598 320,455.5C 318.964,458.753 318.297,462.086 318,465.5C 317.503,462.854 317.336,460.187 317.5,457.5C 314.671,457.325 313.004,458.658 312.5,461.5C 309.444,459.711 306.111,459.044 302.5,459.5C 302.5,457.833 302.5,456.167 302.5,454.5C 295.833,454.5 289.167,454.5 282.5,454.5C 282.5,445.167 282.5,435.833 282.5,426.5 Z"/></g>
<g><path style="opacity:0.361" fill="#0648b4" d="M 148.5,435.5 C 160.138,439.38 171.805,443.047 183.5,446.5C 183.5,446.833 183.5,447.167 183.5,447.5C 174.393,445.473 165.393,442.973 156.5,440C 153.367,439.14 150.7,437.64 148.5,435.5 Z"/></g>
<g><path style="opacity:1" fill="#feadb7" d="M 340.5,445.5 C 338.898,447.074 336.898,447.741 334.5,447.5C 336.102,445.926 338.102,445.259 340.5,445.5 Z"/></g>
<g><path style="opacity:0.868" fill="#ee718f" d="M 280.5,361.5 C 280.833,361.5 281.167,361.5 281.5,361.5C 281.5,361.833 281.5,362.167 281.5,362.5C 281.5,383.833 281.5,405.167 281.5,426.5C 281.3,442.517 281.634,458.517 282.5,474.5C 281.778,474.082 281.278,473.416 281,472.5C 280.5,465.174 280.334,457.841 280.5,450.5C 280.5,420.833 280.5,391.167 280.5,361.5 Z"/></g>
<g><path style="opacity:0.094" fill="#bbbbbb" d="M 198.5,450.5 C 203.911,450.125 208.911,451.125 213.5,453.5C 208.316,452.807 203.316,451.807 198.5,450.5 Z"/></g>
<g><path style="opacity:1" fill="#fa2f47" d="M 483.5,426.5 C 483.775,443.195 483.441,459.861 482.5,476.5C 481.996,480.5 480.663,484.166 478.5,487.5C 478.194,483.816 477.694,479.816 477,475.5C 476.682,473.939 475.849,472.772 474.5,472C 460.447,471.766 446.447,472.6 432.5,474.5C 429.32,473.897 426.153,473.231 423,472.5C 421.019,472.629 419.353,473.296 418,474.5C 410.04,474.136 401.874,474.136 393.5,474.5C 383.411,474.461 373.411,473.627 363.5,472C 361.508,471.426 360.008,470.259 359,468.5C 358.617,469.056 358.117,469.389 357.5,469.5C 357.795,467.577 358.628,465.91 360,464.5C 360.497,461.854 360.664,459.187 360.5,456.5C 361.166,452.647 361.833,448.647 362.5,444.5C 362.822,449.334 364.322,453.667 367,457.5C 367.196,455.714 368.029,454.381 369.5,453.5C 375.773,454.46 382.107,454.793 388.5,454.5C 388.343,453.127 388.51,451.793 389,450.5C 389.383,451.056 389.883,451.389 390.5,451.5C 391.649,455.97 393.982,459.637 397.5,462.5C 400.356,464.006 403.523,464.672 407,464.5C 409.361,464.496 411.527,464.163 413.5,463.5C 418.819,462.85 423.152,460.517 426.5,456.5C 428.257,455.708 429.591,454.375 430.5,452.5C 432.755,454.688 434.922,454.354 437,451.5C 437.483,452.448 437.649,453.448 437.5,454.5C 450.171,454.667 462.838,454.5 475.5,454C 476.044,450.397 476.878,446.897 478,443.5C 478.333,450.167 478.667,456.833 479,463.5C 480.154,454.083 480.987,444.583 481.5,435C 480.213,431.875 480.213,428.709 481.5,425.5C 482.183,425.863 482.85,426.196 483.5,426.5 Z"/></g>
<g><path style="opacity:1" fill="#f9c1c9" d="M 397.5,462.5 C 402.797,463.275 408.13,463.608 413.5,463.5C 411.527,464.163 409.361,464.496 407,464.5C 403.523,464.672 400.356,464.006 397.5,462.5 Z"/></g>
<g><path style="opacity:1" fill="#f92a44" d="M 281.5,426.5 C 281.833,426.5 282.167,426.5 282.5,426.5C 282.5,435.833 282.5,445.167 282.5,454.5C 289.167,454.5 295.833,454.5 302.5,454.5C 302.5,456.167 302.5,457.833 302.5,459.5C 306.111,459.044 309.444,459.711 312.5,461.5C 313.004,458.658 314.671,457.325 317.5,457.5C 317.336,460.187 317.503,462.854 318,465.5C 318.297,462.086 318.964,458.753 320,455.5C 320.919,452.598 321.752,452.265 322.5,454.5C 318.37,463.42 320.37,470.587 328.5,476C 339.508,479.329 349.175,477.162 357.5,469.5C 358.117,469.389 358.617,469.056 359,468.5C 360.008,470.259 361.508,471.426 363.5,472C 373.411,473.627 383.411,474.461 393.5,474.5C 401.874,474.136 410.04,474.136 418,474.5C 419.353,473.296 421.019,472.629 423,472.5C 426.153,473.231 429.32,473.897 432.5,474.5C 446.447,472.6 460.447,471.766 474.5,472C 475.849,472.772 476.682,473.939 477,475.5C 477.694,479.816 478.194,483.816 478.5,487.5C 472.652,498.587 463.652,505.587 451.5,508.5C 450.833,508.5 450.167,508.5 449.5,508.5C 449.179,506.952 448.179,506.285 446.5,506.5C 446.5,504.833 446.5,503.167 446.5,501.5C 449.073,501.852 451.406,501.352 453.5,500C 448.182,499.978 442.849,500.145 437.5,500.5C 437.492,497.455 437.159,494.455 436.5,491.5C 433.833,491.5 431.167,491.5 428.5,491.5C 427.705,495.785 427.372,500.119 427.5,504.5C 424.428,504.817 421.428,504.484 418.5,503.5C 418.296,499.637 417.963,495.637 417.5,491.5C 411.5,491.5 405.5,491.5 399.5,491.5C 398.841,494.455 398.508,497.455 398.5,500.5C 395.5,500.5 392.5,500.5 389.5,500.5C 389.492,497.455 389.159,494.455 388.5,491.5C 382.5,491.5 376.5,491.5 370.5,491.5C 369.705,495.785 369.372,500.119 369.5,504.5C 366.5,504.5 363.5,504.5 360.5,504.5C 360.5,503.167 360.5,501.833 360.5,500.5C 357.482,500.665 354.482,500.498 351.5,500C 350.556,497.281 350.223,494.448 350.5,491.5C 344.167,491.5 337.833,491.5 331.5,491.5C 331.664,494.187 331.497,496.854 331,499.5C 327.591,500.622 324.091,500.789 320.5,500C 321.523,497.226 321.523,494.393 320.5,491.5C 314.107,491.207 307.773,491.54 301.5,492.5C 300.833,491.833 300.167,491.167 299.5,490.5C 299.167,491 298.833,491.5 298.5,492C 299.134,496.115 301.134,499.282 304.5,501.5C 303.757,502.182 303.091,502.849 302.5,503.5C 291.174,497.154 284.507,487.487 282.5,474.5C 281.634,458.517 281.3,442.517 281.5,426.5 Z"/></g>
<g><path style="opacity:1" fill="#fa283f" d="M 449.5,508.5 C 446.017,509.01 442.684,509.677 439.5,510.5C 400.833,510.5 362.167,510.5 323.5,510.5C 319.875,509.671 316.208,508.838 312.5,508C 308.77,507.089 305.437,505.589 302.5,503.5C 303.091,502.849 303.757,502.182 304.5,501.5C 301.134,499.282 299.134,496.115 298.5,492C 298.833,491.5 299.167,491 299.5,490.5C 300.167,491.167 300.833,491.833 301.5,492.5C 307.773,491.54 314.107,491.207 320.5,491.5C 321.523,494.393 321.523,497.226 320.5,500C 324.091,500.789 327.591,500.622 331,499.5C 331.497,496.854 331.664,494.187 331.5,491.5C 337.833,491.5 344.167,491.5 350.5,491.5C 350.223,494.448 350.556,497.281 351.5,500C 354.482,500.498 357.482,500.665 360.5,500.5C 360.5,501.833 360.5,503.167 360.5,504.5C 363.5,504.5 366.5,504.5 369.5,504.5C 369.372,500.119 369.705,495.785 370.5,491.5C 376.5,491.5 382.5,491.5 388.5,491.5C 389.159,494.455 389.492,497.455 389.5,500.5C 392.5,500.5 395.5,500.5 398.5,500.5C 398.508,497.455 398.841,494.455 399.5,491.5C 405.5,491.5 411.5,491.5 417.5,491.5C 417.963,495.637 418.296,499.637 418.5,503.5C 421.428,504.484 424.428,504.817 427.5,504.5C 427.372,500.119 427.705,495.785 428.5,491.5C 431.167,491.5 433.833,491.5 436.5,491.5C 437.159,494.455 437.492,497.455 437.5,500.5C 442.849,500.145 448.182,499.978 453.5,500C 451.406,501.352 449.073,501.852 446.5,501.5C 446.5,503.167 446.5,504.833 446.5,506.5C 448.179,506.285 449.179,506.952 449.5,508.5 Z"/></g>
<g><path style="opacity:0.565" fill="#fec7ce" d="M 449.5,508.5 C 450.167,508.5 450.833,508.5 451.5,508.5C 447.971,510.423 443.971,511.089 439.5,510.5C 442.684,509.677 446.017,509.01 449.5,508.5 Z"/></g>
</svg>
