<?xml version="1.0" encoding="UTF-8"?>
<svg version="1.1" xmlns="http://www.w3.org/2000/svg" width="512" height="512">
<path d="M0 0 C0.76446472 -0.00235223 1.52892944 -0.00470446 2.31655976 -0.00712797 C4.89310376 -0.01381576 7.4695973 -0.01335981 10.04614925 -0.01294994 C11.9061724 -0.01624871 13.76619483 -0.0199743 15.62621635 -0.02409142 C20.74945464 -0.03411816 25.87268122 -0.0378293 30.99592793 -0.04048073 C36.51691539 -0.04438179 42.03789355 -0.05396028 47.55887508 -0.0626936 C60.8981248 -0.08246375 74.23737528 -0.09252498 87.57663599 -0.10142139 C93.85673647 -0.10580344 100.13683611 -0.11117047 106.41693592 -0.11641026 C127.29079566 -0.13342319 148.16465525 -0.14794249 169.03852081 -0.155159 C170.38847295 -0.15563375 171.73842509 -0.15610964 173.08837723 -0.15658666 C173.7578284 -0.15682303 174.42727957 -0.15705941 175.11701714 -0.15730295 C178.50875402 -0.15850414 181.90049088 -0.15971959 185.29222775 -0.16094494 C186.30187625 -0.16130516 186.30187625 -0.16130516 187.33192169 -0.16167267 C209.15114583 -0.16956407 230.97031557 -0.19299243 252.78951596 -0.22550088 C275.86110806 -0.25981247 298.93267471 -0.27951026 322.00429577 -0.28280324 C334.57961738 -0.28496911 347.15485906 -0.29372911 359.7301569 -0.31926441 C370.43938684 -0.34096011 381.14851745 -0.34902736 391.85776687 -0.33929763 C397.321379 -0.33474968 402.7847861 -0.33666815 408.24837017 -0.35605907 C413.25306363 -0.37366785 418.25740215 -0.37271139 423.26209926 -0.35716178 C425.06970477 -0.35478226 426.87733471 -0.35912711 428.68490285 -0.37099043 C441.73875941 -0.45133703 453.61783441 0.50334437 463.47557735 10.07172108 C471.59581061 18.65383916 474.63866956 26.93309561 474.61370468 38.66287708 C474.61605691 39.41607784 474.61840914 40.1692786 474.62083265 40.94530362 C474.62750712 43.47752887 474.6270649 46.00970262 474.62665462 48.54193592 C474.62995422 50.37252315 474.63367999 52.20310965 474.6377961 54.03369522 C474.6478134 59.07100194 474.65153247 64.10829674 474.65418541 69.145612 C474.65808927 74.57595816 474.66766757 80.00629488 474.67639828 85.43663502 C474.69616051 98.55448945 474.70622865 111.67234465 474.71512607 124.79021025 C474.71950941 130.96794052 474.72487611 137.14566994 474.73011494 143.32339954 C474.74712707 163.86016633 474.76162116 184.39693258 474.76886368 204.93370533 C474.77077357 210.26307647 474.77269224 215.59244761 474.77464962 220.92181873 C474.77488977 221.58390943 474.77512992 222.24600013 474.77537735 222.92815419 C474.78326754 244.38720349 474.80669374 265.84619748 474.83920556 287.30522263 C474.87352937 310.00173616 474.89321608 332.69821737 474.89650792 355.39475727 C474.89867269 367.76333034 474.90741663 380.13182211 474.93296909 392.50037098 C474.95468095 403.03421648 474.96272407 413.56796092 474.95300231 424.10182625 C474.94845906 429.47455748 474.95034558 434.84708022 474.96976376 440.21978283 C474.98740604 445.143741 474.98638889 450.06733876 474.97086646 454.99130082 C474.96849203 456.76728378 474.97280534 458.54329177 474.98469511 460.31923652 C475.06679388 473.39816035 474.36198232 485.82099163 465.3857336 496.20453358 C456.32163423 505.38007679 446.51931736 508.52289236 433.73856944 508.66354772 C431.18254853 508.66942002 428.6270213 508.65594231 426.07103634 508.64215565 C424.20496764 508.64676937 422.33890259 508.65312545 420.47284508 508.66106462 C415.36532362 508.67771619 410.25810227 508.66953052 405.15057993 508.65711975 C399.63447187 508.64805452 394.11841474 508.66204631 388.60231686 508.67303944 C377.80429016 508.69081347 367.00637477 508.68698961 356.20834374 508.67538887 C347.43151674 508.66635046 338.65472091 508.66513233 329.87789059 508.66948414 C328.62809365 508.67009707 327.37829671 508.67071 326.09062713 508.67134151 C323.55158304 508.67262043 321.01253896 508.67391728 318.47349489 508.67523187 C295.35062942 508.68630944 272.22782207 508.67482717 249.10496996 508.65386149 C228.0100488 508.63487996 206.91522424 508.63657851 185.82030392 508.65570545 C162.1035175 508.67713793 138.38677783 508.6855358 114.6699791 508.6732564 C112.14034495 508.67198222 109.61071079 508.67072474 107.08107662 508.66948414 C105.83649148 508.66886704 104.59190634 508.66824993 103.30960649 508.66761413 C94.54467562 508.66416237 85.77977904 508.66998586 77.01485348 508.67940235 C66.33139464 508.69062784 55.64805335 508.6875706 44.96460795 508.66627938 C39.51513593 508.65577649 34.06585979 508.65163432 28.61638927 508.66487598 C23.62490819 508.67682123 18.63380403 508.67020198 13.64235699 508.64896578 C11.8396794 508.64450878 10.03696977 508.64674562 8.23431289 508.65646893 C-4.94983043 508.72211069 -16.50976071 507.59353683 -26.5205164 498.13422108 C-37.74124966 486.77552798 -38.1102823 472.75074439 -38.02172184 457.74428272 C-38.02562064 455.90464941 -38.03126571 454.06501911 -38.03849274 452.22539586 C-38.05318167 447.20026463 -38.04310534 442.17544887 -38.02875602 437.15032804 C-38.01761292 431.71948803 -38.02959976 426.28869106 -38.03859806 420.85785389 C-38.05250896 410.23154897 -38.0449906 399.60536313 -38.02992248 388.97906391 C-38.01303867 376.59995542 -38.01627556 364.22087639 -38.02001656 351.84175994 C-38.02606838 329.08702988 -38.01030806 306.3323607 -37.98482892 283.57764655 C-37.96170698 262.81808314 -37.9563297 242.05858939 -37.96656132 221.299016 C-37.97798347 197.95468449 -37.97989871 174.61038783 -37.96546322 151.26605672 C-37.96393741 148.77663307 -37.96241705 146.28720941 -37.96090221 143.79778576 C-37.9601444 142.57299865 -37.95938659 141.34821154 -37.95860581 140.08630968 C-37.95386526 131.45965409 -37.95571273 122.83301425 -37.95996761 114.20635891 C-37.96489592 103.69421183 -37.95890223 93.18213678 -37.93907332 82.67000619 C-37.92920741 77.30776183 -37.92408876 71.94562709 -37.93196583 66.58337688 C-37.93903169 61.67288334 -37.93219672 56.76261085 -37.9143622 51.85214641 C-37.91032367 50.07781043 -37.91130756 48.30345425 -37.91788106 46.52912585 C-37.96586267 32.36325507 -36.73214853 20.900225 -26.6689539 10.15765858 C-18.89141626 2.87590023 -10.50791318 -0.0219108 0 0 Z " fill="#0273B2" transform="translate(37.52051639556885,3.865778923034668)"/>
<path d="M0 0 C0.70060547 -0.00206451 1.40121094 -0.00412903 2.12304688 -0.0062561 C25.21415569 0.00591304 47.99506787 6.0943238 64.83984375 22.59375 C78.63614088 37.00365576 84.10255075 55.76730643 87.25 75 C87.42934082 76.09586426 87.42934082 76.09586426 87.61230469 77.21386719 C89.44263429 89.31526377 89.70956094 101.48745916 89.67602539 113.70458984 C89.67574245 115.17461648 89.67590333 116.64464325 89.6764679 118.1146698 C89.67675171 122.05794262 89.67092301 126.00118425 89.66389394 129.9444499 C89.6575904 134.08305161 89.65705111 138.22165424 89.65586853 142.36026001 C89.65277567 150.17610455 89.64459019 157.9919349 89.63451904 165.80777323 C89.62119 176.38429531 89.61584145 186.96082133 89.61001682 197.5373497 C89.60064866 214.17074374 89.58071618 230.80410784 89.5625 247.4375 C64.4825 247.4375 39.4025 247.4375 13.5625 247.4375 C13.52511719 237.516875 13.48773438 227.59625 13.44921875 217.375 C13.41892158 211.06769468 13.38788192 204.76040729 13.35351562 198.453125 C13.29917644 188.45509519 13.24775759 178.45711506 13.21606445 168.45898438 C13.19296118 161.17508707 13.15942784 153.89132189 13.11379844 146.60752964 C13.0900309 142.75720378 13.07119508 138.90700743 13.06488609 135.05661011 C14.13871738 103.12214729 14.13871738 103.12214729 0.609375 75.375 C-1.36578534 73.81975564 -3.2153508 72.61504915 -5.4375 71.4375 C-5.96641846 71.10202148 -6.49533691 70.76654297 -7.0402832 70.42089844 C-13.14007095 66.85299352 -18.80964835 66.83769866 -25.75 66.9375 C-26.81412109 66.92203125 -27.87824219 66.9065625 -28.97460938 66.890625 C-39.42595796 66.94163829 -48.3354039 69.63190647 -56.43359375 76.3828125 C-69.60821629 89.89129487 -70.55922171 109.02967103 -70.64282227 126.76000977 C-70.65272186 128.06830246 -70.66262146 129.37659515 -70.67282104 130.72453308 C-70.69966399 134.28585104 -70.720784 137.84718196 -70.74082303 141.40854383 C-70.762811 145.14013817 -70.79013653 148.87169348 -70.81687927 152.60325623 C-70.86663405 159.65779574 -70.91163615 166.71235713 -70.95490164 173.7669391 C-71.01369438 183.30807211 -71.07988788 192.84915364 -71.14565182 202.39024067 C-71.24895694 217.40595901 -71.34242502 232.42172207 -71.4375 247.4375 C-96.1875 247.4375 -120.9375 247.4375 -146.4375 247.4375 C-146.4375 167.9075 -146.4375 88.3775 -146.4375 6.4375 C-122.6775 6.4375 -98.9175 6.4375 -74.4375 6.4375 C-74.4375 16.9975 -74.4375 27.5575 -74.4375 38.4375 C-73.7775 38.4375 -73.1175 38.4375 -72.4375 38.4375 C-72.21320313 37.73367187 -71.98890625 37.02984375 -71.7578125 36.3046875 C-70.1552979 32.82467059 -67.91848725 30.30972005 -65.3125 27.5625 C-64.56673706 26.76924316 -64.56673706 26.76924316 -63.8059082 25.95996094 C-62.36207844 24.43994393 -60.90433384 22.93529742 -59.4375 21.4375 C-58.44169922 20.42042969 -58.44169922 20.42042969 -57.42578125 19.3828125 C-41.55717107 4.44360032 -21.11412365 0.00155507 0 0 Z " fill="#FEFEFE" transform="translate(346.4375,188.5625)"/>
<path d="M0 0 C24.75 0 49.5 0 75 0 C75 79.86 75 159.72 75 242 C50.25 242 25.5 242 0 242 C0 162.14 0 82.28 0 0 Z " fill="#FEFEFE" transform="translate(77,194)"/>
<path d="M0 0 C7.05490744 5.43785969 12.21187089 13.7935286 14.671875 22.33203125 C16.4819735 37.04985593 15.32285369 49.1037449 6.3125 61.3125 C-1.02003453 69.88317357 -10.88283648 75.80145647 -22 78 C-35.96357426 78.98388328 -47.20222256 75.65523263 -58.125 66.875 C-66.15880793 59.4986494 -71.70561223 49.66899648 -72.27734375 38.75390625 C-72.52031663 30.81348652 -72.62337906 23.24675811 -69 16 C-68.48953125 14.88625 -68.48953125 14.88625 -67.96875 13.75 C-63.25103448 4.31456896 -55.58907036 -2.65854501 -46 -7 C-29.44282184 -12.39686619 -14.22836635 -10.37537511 0 0 Z " fill="#FCFDFE" transform="translate(143,84)"/>
</svg>
