<?xml version="1.0" encoding="UTF-8"?>
<!DOCTYPE svg PUBLIC "-//W3C//DTD SVG 1.1//EN" "http://www.w3.org/Graphics/SVG/1.1/DTD/svg11.dtd">
<svg xmlns="http://www.w3.org/2000/svg" version="1.1" width="512px" height="512px" style="shape-rendering:geometricPrecision; text-rendering:geometricPrecision; image-rendering:optimizeQuality; fill-rule:evenodd; clip-rule:evenodd" xmlns:xlink="http://www.w3.org/1999/xlink">
<g><path style="opacity:0.557" fill="#014063" d="M 29.5,4.5 C 179.999,3.33389 330.666,3.16722 481.5,4C 484.865,4.50531 487.865,5.67197 490.5,7.5C 487.157,6.77609 483.824,5.94276 480.5,5C 330.167,4.5 179.834,4.33333 29.5,4.5 Z"/></g>
<g><path style="opacity:1" fill="#0373b2" d="M 29.5,4.5 C 179.834,4.33333 330.167,4.5 480.5,5C 483.824,5.94276 487.157,6.77609 490.5,7.5C 495.436,11.0963 500.103,15.0963 504.5,19.5C 504.427,21.0269 505.094,22.0269 506.5,22.5C 507.256,26.767 508.589,30.767 510.5,34.5C 510.833,34.5 511.167,34.5 511.5,34.5C 511.5,131.167 511.5,227.833 511.5,324.5C 511.167,324.5 510.833,324.5 510.5,324.5C 510.005,322.518 509.505,320.518 509,318.5C 501.088,312.293 492.254,307.793 482.5,305C 467.37,302.213 452.203,301.379 437,302.5C 436.722,301.584 436.222,300.918 435.5,300.5C 435.851,278.302 432.684,256.635 426,235.5C 414.764,208.612 394.597,193.446 365.5,190C 331.26,183.022 302.427,192.189 279,217.5C 276.833,220.5 274.667,223.5 272.5,226.5C 271.501,215.854 271.168,205.187 271.5,194.5C 247.5,194.5 223.5,194.5 199.5,194.5C 199.5,274.833 199.5,355.167 199.5,435.5C 224.5,435.5 249.5,435.5 274.5,435.5C 274.04,387.807 274.54,340.14 276,292.5C 277.925,279.139 284.092,268.306 294.5,260C 297.975,257.926 301.642,256.426 305.5,255.5C 313.15,254.857 320.817,254.523 328.5,254.5C 344.072,257.572 353.572,266.905 357,282.5C 357.501,286.51 358.001,290.51 358.5,294.5C 358.5,297.5 358.5,300.5 358.5,303.5C 330.676,301.496 309.176,312.162 294,335.5C 289.182,344.954 286.182,354.954 285,365.5C 284.333,403.167 284.333,440.833 285,478.5C 285.817,490.116 289.317,500.783 295.5,510.5C 205.811,510.823 116.145,510.49 26.5,509.5C 26.1667,509.5 25.8333,509.5 25.5,509.5C 18.8311,506.159 12.8311,501.825 7.5,496.5C 6.09368,496.027 5.42702,495.027 5.5,493.5C 5.00751,491.181 4.00751,489.181 2.5,487.5C 2.43487,484.572 1.7682,481.905 0.5,479.5C 0.166667,479.5 -0.166667,479.5 -0.5,479.5C -0.5,331.167 -0.5,182.833 -0.5,34.5C -0.166667,34.5 0.166667,34.5 0.5,34.5C 2.41104,30.767 3.74437,26.767 4.5,22.5C 5.90632,22.0269 6.57298,21.0269 6.5,19.5C 9.63064,16.8712 12.6306,14.0379 15.5,11C 18.7672,8.87132 22.1005,7.03798 25.5,5.5C 26.5676,4.56552 27.901,4.23219 29.5,4.5 Z"/></g>
<g><path style="opacity:0.259" fill="#05293f" d="M 25.5,5.5 C 22.1005,7.03798 18.7672,8.87132 15.5,11C 12.6306,14.0379 9.63064,16.8712 6.5,19.5C 10.5624,11.7735 16.8957,7.10678 25.5,5.5 Z"/></g>
<g><path style="opacity:0.251" fill="#06273c" d="M 490.5,7.5 C 496.715,9.71629 501.381,13.7163 504.5,19.5C 500.103,15.0963 495.436,11.0963 490.5,7.5 Z"/></g>
<g><path style="opacity:0.102" fill="#041d2c" d="M 504.5,19.5 C 505.906,19.9731 506.573,20.9731 506.5,22.5C 505.094,22.0269 504.427,21.0269 504.5,19.5 Z"/></g>
<g><path style="opacity:0.22" fill="#022336" d="M 6.5,19.5 C 6.57298,21.0269 5.90632,22.0269 4.5,22.5C 4.42702,20.9731 5.09368,19.9731 6.5,19.5 Z"/></g>
<g><path style="opacity:0.839" fill="#043d5f" d="M 4.5,22.5 C 3.74437,26.767 2.41104,30.767 0.5,34.5C 0.459142,29.9555 1.79248,25.9555 4.5,22.5 Z"/></g>
<g><path style="opacity:0.835" fill="#043d5e" d="M 506.5,22.5 C 509.208,25.9555 510.541,29.9555 510.5,34.5C 508.589,30.767 507.256,26.767 506.5,22.5 Z"/></g>
<g><path style="opacity:1" fill="#fdfefe" d="M 108.5,73.5 C 133.561,73.086 149.728,84.7527 157,108.5C 159.801,135.43 148.301,152.597 122.5,160C 94.9352,163.084 77.7686,151.251 71,124.5C 68.6132,104.775 75.7799,89.6085 92.5,79C 97.8348,76.8339 103.168,75.0005 108.5,73.5 Z"/></g>
<g><path style="opacity:1" fill="#fefefe" d="M 435.5,300.5 C 435.5,305.5 435.5,310.5 435.5,315.5C 410.167,315.5 384.833,315.5 359.5,315.5C 359.825,308.313 359.491,301.313 358.5,294.5C 358.001,290.51 357.501,286.51 357,282.5C 353.572,266.905 344.072,257.572 328.5,254.5C 325.854,253.836 323.021,253.502 320,253.5C 314.921,253.405 310.088,254.072 305.5,255.5C 301.642,256.426 297.975,257.926 294.5,260C 284.092,268.306 277.925,279.139 276,292.5C 274.54,340.14 274.04,387.807 274.5,435.5C 249.5,435.5 224.5,435.5 199.5,435.5C 199.5,355.167 199.5,274.833 199.5,194.5C 223.5,194.5 247.5,194.5 271.5,194.5C 271.168,205.187 271.501,215.854 272.5,226.5C 274.667,223.5 276.833,220.5 279,217.5C 302.427,192.189 331.26,183.022 365.5,190C 394.597,193.446 414.764,208.612 426,235.5C 432.684,256.635 435.851,278.302 435.5,300.5 Z"/></g>
<g><path style="opacity:1" fill="#fefffe" d="M 76.5,194.5 C 101.167,194.5 125.833,194.5 150.5,194.5C 150.5,274.833 150.5,355.167 150.5,435.5C 125.833,435.5 101.167,435.5 76.5,435.5C 76.5,355.167 76.5,274.833 76.5,194.5 Z"/></g>
<g><path style="opacity:1" fill="#cfe3f0" d="M 76.5,194.5 C 101.328,193.502 126.328,193.169 151.5,193.5C 151.833,274.335 151.499,355.002 150.5,435.5C 150.5,355.167 150.5,274.833 150.5,194.5C 125.833,194.5 101.167,194.5 76.5,194.5 Z"/></g>
<g><path style="opacity:1" fill="#89bbda" d="M 328.5,254.5 C 320.817,254.523 313.15,254.857 305.5,255.5C 310.088,254.072 314.921,253.405 320,253.5C 323.021,253.502 325.854,253.836 328.5,254.5 Z"/></g>
<g><path style="opacity:1" fill="#137db8" d="M 358.5,303.5 C 358.5,304.833 358.5,306.167 358.5,307.5C 315.025,308.471 291.859,330.804 289,374.5C 288.333,406.167 288.333,437.833 289,469.5C 289.062,484.512 293.229,498.179 301.5,510.5C 299.5,510.5 297.5,510.5 295.5,510.5C 289.317,500.783 285.817,490.116 285,478.5C 284.333,440.833 284.333,403.167 285,365.5C 286.182,354.954 289.182,344.954 294,335.5C 309.176,312.162 330.676,301.496 358.5,303.5 Z"/></g>
<g><path style="opacity:1" fill="#2385bc" d="M 358.5,307.5 C 358.66,309.199 358.494,310.866 358,312.5C 327.226,311.585 307.226,325.918 298,355.5C 297.147,359.469 296.481,363.469 296,367.5C 295.333,404.167 295.333,440.833 296,477.5C 297.214,489.917 301.714,500.917 309.5,510.5C 306.833,510.5 304.167,510.5 301.5,510.5C 293.229,498.179 289.062,484.512 289,469.5C 288.333,437.833 288.333,406.167 289,374.5C 291.859,330.804 315.025,308.471 358.5,307.5 Z"/></g>
<g><path style="opacity:1" fill="#2884bb" d="M 435.5,300.5 C 436.222,300.918 436.722,301.584 437,302.5C 452.203,301.379 467.37,302.213 482.5,305C 492.254,307.793 501.088,312.293 509,318.5C 509.505,320.518 510.005,322.518 510.5,324.5C 510.826,328.884 510.492,333.217 509.5,337.5C 507.28,333.921 504.28,331.588 500.5,330.5C 499.957,325.908 497.29,323.908 492.5,324.5C 486.642,320.594 480.142,317.928 473,316.5C 460.522,315.569 448.022,315.236 435.5,315.5C 435.5,310.5 435.5,305.5 435.5,300.5 Z"/></g>
<g><path style="opacity:1" fill="#fa566e" d="M 359.5,315.5 C 384.833,315.5 410.167,315.5 435.5,315.5C 448.022,315.236 460.522,315.569 473,316.5C 480.142,317.928 486.642,320.594 492.5,324.5C 502.952,332.267 508.619,342.601 509.5,355.5C 509.167,355.5 508.833,355.5 508.5,355.5C 508.719,354.325 508.386,353.325 507.5,352.5C 506.513,355.768 506.18,359.102 506.5,362.5C 505.5,362.5 504.5,362.5 503.5,362.5C 503.784,359.223 503.451,356.057 502.5,353C 488.833,352.333 475.167,352.333 461.5,353C 460.718,355.74 460.218,358.574 460,361.5C 458.93,355.445 458.597,349.445 459,343.5C 458.667,344.833 458.333,346.167 458,347.5C 457.013,343.233 456.179,342.9 455.5,346.5C 454.181,345.103 452.514,344.437 450.5,344.5C 445.075,345.131 439.742,346.131 434.5,347.5C 430.267,347.539 426.267,348.205 422.5,349.5C 411.898,351.769 401.232,353.935 390.5,356C 386.088,356.595 382.088,358.095 378.5,360.5C 377.909,359.849 377.243,359.182 376.5,358.5C 379.064,356.684 379.064,354.851 376.5,353C 373.183,352.502 369.85,352.335 366.5,352.5C 366.5,351.5 366.5,350.5 366.5,349.5C 363.5,349.5 360.5,349.5 357.5,349.5C 357.5,350.5 357.5,351.5 357.5,352.5C 343.421,353.138 329.588,352.472 316,350.5C 314.951,352.107 313.451,352.773 311.5,352.5C 311.307,348.551 310.807,348.551 310,352.5C 309.722,351.584 309.222,350.918 308.5,350.5C 309.298,345.232 310.964,340.232 313.5,335.5C 325.262,321.034 340.596,314.368 359.5,315.5 Z"/></g>
<g><path style="opacity:1" fill="#6094bb" d="M 492.5,324.5 C 497.29,323.908 499.957,325.908 500.5,330.5C 504.28,331.588 507.28,333.921 509.5,337.5C 510.492,333.217 510.826,328.884 510.5,324.5C 510.833,324.5 511.167,324.5 511.5,324.5C 511.5,330.5 511.5,336.5 511.5,342.5C 510.514,346.97 510.181,351.637 510.5,356.5C 509.833,356.5 509.5,356.167 509.5,355.5C 508.619,342.601 502.952,332.267 492.5,324.5 Z"/></g>
<g><path style="opacity:1" fill="#fdf8f9" d="M 455.5,346.5 C 456.492,354.316 456.826,362.316 456.5,370.5C 456.5,379.833 456.5,389.167 456.5,398.5C 456.667,415.503 456.5,432.503 456,449.5C 454.738,451.784 453.572,454.118 452.5,456.5C 449.152,460.517 444.819,462.85 439.5,463.5C 434.13,463.608 428.797,463.275 423.5,462.5C 419.982,459.637 417.649,455.97 416.5,451.5C 415.992,442.163 420.325,436.33 429.5,434C 434.5,433 439.5,432 444.5,431C 446.141,429.871 447.141,428.371 447.5,426.5C 448.496,410.342 448.83,394.009 448.5,377.5C 444.958,377.187 441.625,377.521 438.5,378.5C 438.167,378.5 437.833,378.5 437.5,378.5C 431.884,378.656 426.551,379.656 421.5,381.5C 410.226,383.22 399.226,385.553 388.5,388.5C 387.883,388.611 387.383,388.944 387,389.5C 386.5,411.831 386.333,434.164 386.5,456.5C 385.641,470.684 377.975,477.684 363.5,477.5C 353.104,477.767 347.438,472.767 346.5,462.5C 346.385,459.591 347.051,456.925 348.5,454.5C 351.003,452.167 353.669,450.001 356.5,448C 357.793,447.51 359.127,447.343 360.5,447.5C 362.898,447.741 364.898,447.074 366.5,445.5C 369.079,444.772 371.746,444.272 374.5,444C 376.426,443.578 377.426,442.411 377.5,440.5C 378.498,414.005 378.831,387.339 378.5,360.5C 382.088,358.095 386.088,356.595 390.5,356C 401.232,353.935 411.898,351.769 422.5,349.5C 426.764,349.656 430.764,348.989 434.5,347.5C 439.742,346.131 445.075,345.131 450.5,344.5C 452.514,344.437 454.181,345.103 455.5,346.5 Z"/></g>
<g><path style="opacity:1" fill="#fc93a4" d="M 434.5,347.5 C 430.764,348.989 426.764,349.656 422.5,349.5C 426.267,348.205 430.267,347.539 434.5,347.5 Z"/></g>
<g><path style="opacity:1" fill="#fb4d66" d="M 378.5,360.5 C 378.831,387.339 378.498,414.005 377.5,440.5C 377.5,426.5 377.5,412.5 377.5,398.5C 377.5,392.5 377.5,386.5 377.5,380.5C 377.666,373.825 377.5,367.158 377,360.5C 376.502,363.817 376.335,367.15 376.5,370.5C 354.167,370.5 331.833,370.5 309.5,370.5C 309.666,366.486 309.499,362.486 309,358.5C 308.768,359.737 308.268,360.737 307.5,361.5C 307.185,357.629 307.518,353.962 308.5,350.5C 309.222,350.918 309.722,351.584 310,352.5C 310.807,348.551 311.307,348.551 311.5,352.5C 313.451,352.773 314.951,352.107 316,350.5C 329.588,352.472 343.421,353.138 357.5,352.5C 357.5,351.5 357.5,350.5 357.5,349.5C 360.5,349.5 363.5,349.5 366.5,349.5C 366.5,350.5 366.5,351.5 366.5,352.5C 369.85,352.335 373.183,352.502 376.5,353C 379.064,354.851 379.064,356.684 376.5,358.5C 377.243,359.182 377.909,359.849 378.5,360.5 Z"/></g>
<g><path style="opacity:1" fill="#fb4b65" d="M 508.5,355.5 C 508.5,372.833 508.5,390.167 508.5,407.5C 507.434,396.26 505.934,384.927 504,373.5C 503.83,375.715 503.163,377.715 502,379.5C 489.246,378.511 476.413,378.178 463.5,378.5C 463.813,375.753 463.48,373.086 462.5,370.5C 461.833,379.833 461.167,389.167 460.5,398.5C 460.167,398.167 459.833,397.833 459.5,397.5C 459.198,388.156 458.198,379.156 456.5,370.5C 456.826,362.316 456.492,354.316 455.5,346.5C 456.179,342.9 457.013,343.233 458,347.5C 458.333,346.167 458.667,344.833 459,343.5C 458.597,349.445 458.93,355.445 460,361.5C 460.218,358.574 460.718,355.74 461.5,353C 475.167,352.333 488.833,352.333 502.5,353C 503.451,356.057 503.784,359.223 503.5,362.5C 504.5,362.5 505.5,362.5 506.5,362.5C 506.18,359.102 506.513,355.768 507.5,352.5C 508.386,353.325 508.719,354.325 508.5,355.5 Z"/></g>
<g><path style="opacity:1" fill="#489ac8" d="M 308.5,342.5 C 308.66,344.199 308.494,345.866 308,347.5C 304.105,355.291 302.105,363.625 302,372.5C 301.333,408.833 301.333,445.167 302,481.5C 302.539,484.529 303.206,487.529 304,490.5C 307.06,493.952 309.06,497.952 310,502.5C 313.167,505 316.333,507.5 319.5,510C 317.866,510.494 316.199,510.66 314.5,510.5C 310.431,505.372 306.598,500.039 303,494.5C 300.879,489.018 299.546,483.351 299,477.5C 298.333,440.5 298.333,403.5 299,366.5C 299.546,360.649 300.879,354.982 303,349.5C 304.316,346.692 306.15,344.359 308.5,342.5 Z"/></g>
<g><path style="opacity:1" fill="#74aed1" d="M 306.5,361.5 C 306.168,396.004 306.502,430.337 307.5,464.5C 307.355,473.928 309.689,482.594 314.5,490.5C 320.524,499.197 328.524,505.197 338.5,508.5C 334.285,510.436 329.619,511.103 324.5,510.5C 315.449,504.585 309.616,496.252 307,485.5C 306.088,481.205 305.421,476.872 305,472.5C 304.333,438.833 304.333,405.167 305,371.5C 305.179,367.975 305.679,364.641 306.5,361.5 Z"/></g>
<g><path style="opacity:1" fill="#5aa2cb" d="M 313.5,335.5 C 310.964,340.232 309.298,345.232 308.5,350.5C 307.518,353.962 307.185,357.629 307.5,361.5C 307.167,361.5 306.833,361.5 306.5,361.5C 305.679,364.641 305.179,367.975 305,371.5C 304.333,405.167 304.333,438.833 305,472.5C 305.421,476.872 306.088,481.205 307,485.5C 309.616,496.252 315.449,504.585 324.5,510.5C 324.5,510.833 324.5,511.167 324.5,511.5C 316.833,511.5 309.167,511.5 301.5,511.5C 301.5,511.167 301.5,510.833 301.5,510.5C 304.167,510.5 306.833,510.5 309.5,510.5C 311.167,510.5 312.833,510.5 314.5,510.5C 316.199,510.66 317.866,510.494 319.5,510C 316.333,507.5 313.167,505 310,502.5C 309.06,497.952 307.06,493.952 304,490.5C 303.206,487.529 302.539,484.529 302,481.5C 301.333,445.167 301.333,408.833 302,372.5C 302.105,363.625 304.105,355.291 308,347.5C 308.494,345.866 308.66,344.199 308.5,342.5C 308.461,339.19 309.794,336.524 312.5,334.5C 313.107,334.624 313.44,334.957 313.5,335.5 Z"/></g>
<g><path style="opacity:1" fill="#f94b64" d="M 377.5,380.5 C 374.15,380.335 370.817,380.502 367.5,381C 370.146,381.497 372.813,381.664 375.5,381.5C 375.5,384.167 375.5,386.833 375.5,389.5C 353.486,389.501 331.486,389.834 309.5,390.5C 309.822,396.358 309.489,402.025 308.5,407.5C 308.667,392.496 308.5,377.496 308,362.5C 307.5,383.831 307.333,405.164 307.5,426.5C 307.5,439.167 307.5,451.833 307.5,464.5C 306.502,430.337 306.168,396.004 306.5,361.5C 306.833,361.5 307.167,361.5 307.5,361.5C 308.268,360.737 308.768,359.737 309,358.5C 309.499,362.486 309.666,366.486 309.5,370.5C 331.833,370.5 354.167,370.5 376.5,370.5C 376.335,367.15 376.502,363.817 377,360.5C 377.5,367.158 377.666,373.825 377.5,380.5 Z"/></g>
<g><path style="opacity:1" fill="#f77b86" d="M 437.5,378.5 C 436.152,379.186 434.985,380.186 434,381.5C 429.901,380.576 425.735,380.576 421.5,381.5C 426.551,379.656 431.884,378.656 437.5,378.5 Z"/></g>
<g><path style="opacity:1" fill="#3b91c2" d="M 358.5,294.5 C 359.491,301.313 359.825,308.313 359.5,315.5C 340.596,314.368 325.262,321.034 313.5,335.5C 313.44,334.957 313.107,334.624 312.5,334.5C 309.794,336.524 308.461,339.19 308.5,342.5C 306.15,344.359 304.316,346.692 303,349.5C 300.879,354.982 299.546,360.649 299,366.5C 298.333,403.5 298.333,440.5 299,477.5C 299.546,483.351 300.879,489.018 303,494.5C 306.598,500.039 310.431,505.372 314.5,510.5C 312.833,510.5 311.167,510.5 309.5,510.5C 301.714,500.917 297.214,489.917 296,477.5C 295.333,440.833 295.333,404.167 296,367.5C 296.481,363.469 297.147,359.469 298,355.5C 307.226,325.918 327.226,311.585 358,312.5C 358.494,310.866 358.66,309.199 358.5,307.5C 358.5,306.167 358.5,304.833 358.5,303.5C 358.5,300.5 358.5,297.5 358.5,294.5 Z"/></g>
<g><path style="opacity:1" fill="#fa425a" d="M 437.5,378.5 C 437.833,378.5 438.167,378.5 438.5,378.5C 439.167,378.5 439.833,378.5 440.5,378.5C 442.218,379.224 444.052,379.891 446,380.5C 446.167,382 446.333,383.5 446.5,385C 446.034,396.332 445.034,406.832 443.5,416.5C 440.5,416.5 437.5,416.5 434.5,416.5C 434.5,415.167 434.5,413.833 434.5,412.5C 424.833,412.5 415.167,412.5 405.5,412.5C 405.5,413.833 405.5,415.167 405.5,416.5C 402.223,416.216 399.057,416.549 396,417.5C 394.913,414.309 394.08,410.975 393.5,407.5C 392.833,410.5 392.167,413.5 391.5,416.5C 390.794,406.986 389.794,397.653 388.5,388.5C 399.226,385.553 410.226,383.22 421.5,381.5C 425.735,380.576 429.901,380.576 434,381.5C 434.985,380.186 436.152,379.186 437.5,378.5 Z"/></g>
<g><path style="opacity:1" fill="#fd7f91" d="M 438.5,378.5 C 441.625,377.521 444.958,377.187 448.5,377.5C 448.83,394.009 448.496,410.342 447.5,426.5C 447.5,410.5 447.5,394.5 447.5,378.5C 445.167,378.5 442.833,378.5 440.5,378.5C 439.833,378.5 439.167,378.5 438.5,378.5 Z"/></g>
<g><path style="opacity:1" fill="#fa425a" d="M 456.5,370.5 C 458.198,379.156 459.198,388.156 459.5,397.5C 459.833,397.833 460.167,398.167 460.5,398.5C 461.167,389.167 461.833,379.833 462.5,370.5C 463.48,373.086 463.813,375.753 463.5,378.5C 476.413,378.178 489.246,378.511 502,379.5C 503.163,377.715 503.83,375.715 504,373.5C 505.934,384.927 507.434,396.26 508.5,407.5C 508.665,410.518 508.498,413.518 508,416.5C 507.497,411.81 506.83,407.143 506,402.5C 505.501,407.489 505.334,412.489 505.5,417.5C 497.833,416.973 490.166,416.307 482.5,415.5C 482.833,414.833 483.167,414.167 483.5,413.5C 479.893,412.511 476.226,412.177 472.5,412.5C 472.33,413.822 472.663,414.989 473.5,416C 470.183,416.498 466.85,416.665 463.5,416.5C 463.666,411.489 463.499,406.489 463,401.5C 462.501,406.823 462.334,412.156 462.5,417.5C 461.681,420.305 461.181,423.305 461,426.5C 460.739,418.13 460.072,409.797 459,401.5C 458.764,399.881 457.931,398.881 456.5,398.5C 456.5,389.167 456.5,379.833 456.5,370.5 Z"/></g>
<g><path style="opacity:1" fill="#fb4159" d="M 377.5,380.5 C 377.5,386.5 377.5,392.5 377.5,398.5C 376.521,401.625 376.187,404.958 376.5,408.5C 375.566,409.568 375.232,410.901 375.5,412.5C 372.428,412.183 369.428,412.516 366.5,413.5C 366.833,414.167 367.167,414.833 367.5,415.5C 364.232,416.487 360.898,416.82 357.5,416.5C 357.5,415.167 357.5,413.833 357.5,412.5C 354.167,412.5 350.833,412.5 347.5,412.5C 347.5,413.833 347.5,415.167 347.5,416.5C 341.132,416.83 334.798,416.496 328.5,415.5C 328.833,414.833 329.167,414.167 329.5,413.5C 322.866,412.503 316.2,412.17 309.5,412.5C 309.66,414.199 309.494,415.866 309,417.5C 308.502,414.183 308.335,410.85 308.5,407.5C 309.489,402.025 309.822,396.358 309.5,390.5C 331.486,389.834 353.486,389.501 375.5,389.5C 375.5,386.833 375.5,384.167 375.5,381.5C 372.813,381.664 370.146,381.497 367.5,381C 370.817,380.502 374.15,380.335 377.5,380.5 Z"/></g>
<g><path style="opacity:1" fill="#f84059" d="M 508.5,355.5 C 508.833,355.5 509.167,355.5 509.5,355.5C 509.5,356.167 509.833,356.5 510.5,356.5C 510.5,394.167 510.5,431.833 510.5,469.5C 510.167,469.5 509.833,469.5 509.5,469.5C 509.824,454.921 509.49,440.421 508.5,426C 508.167,425.833 507.833,425.667 507.5,425.5C 506.213,428.709 506.213,431.875 507.5,435C 506.987,444.583 506.154,454.083 505,463.5C 504.598,451.135 503.765,438.801 502.5,426.5C 501.573,428.113 500.739,429.779 500,431.5C 488.084,429.533 475.918,428.866 463.5,429.5C 463.817,425.298 463.483,421.298 462.5,417.5C 462.334,412.156 462.501,406.823 463,401.5C 463.499,406.489 463.666,411.489 463.5,416.5C 466.85,416.665 470.183,416.498 473.5,416C 472.663,414.989 472.33,413.822 472.5,412.5C 476.226,412.177 479.893,412.511 483.5,413.5C 483.167,414.167 482.833,414.833 482.5,415.5C 490.166,416.307 497.833,416.973 505.5,417.5C 505.334,412.489 505.501,407.489 506,402.5C 506.83,407.143 507.497,411.81 508,416.5C 508.498,413.518 508.665,410.518 508.5,407.5C 508.5,390.167 508.5,372.833 508.5,355.5 Z"/></g>
<g><path style="opacity:1" fill="#fa3c53" d="M 440.5,378.5 C 442.833,378.5 445.167,378.5 447.5,378.5C 447.5,394.5 447.5,410.5 447.5,426.5C 447.141,428.371 446.141,429.871 444.5,431C 439.5,432 434.5,433 429.5,434C 420.325,436.33 415.992,442.163 416.5,451.5C 415.883,451.389 415.383,451.056 415,450.5C 414.51,451.793 414.343,453.127 414.5,454.5C 408.107,454.793 401.773,454.46 395.5,453.5C 394.029,454.381 393.196,455.714 393,457.5C 392.167,456.5 391.333,455.5 390.5,454.5C 390.664,441.796 389.831,429.129 388,416.5C 387.831,430.006 387.331,443.34 386.5,456.5C 386.333,434.164 386.5,411.831 387,389.5C 387.383,388.944 387.883,388.611 388.5,388.5C 389.794,397.653 390.794,406.986 391.5,416.5C 392.167,413.5 392.833,410.5 393.5,407.5C 394.08,410.975 394.913,414.309 396,417.5C 399.057,416.549 402.223,416.216 405.5,416.5C 405.5,415.167 405.5,413.833 405.5,412.5C 415.167,412.5 424.833,412.5 434.5,412.5C 434.5,413.833 434.5,415.167 434.5,416.5C 437.5,416.5 440.5,416.5 443.5,416.5C 445.034,406.832 446.034,396.332 446.5,385C 446.333,383.5 446.167,382 446,380.5C 444.052,379.891 442.218,379.224 440.5,378.5 Z"/></g>
<g><path style="opacity:1" fill="#fb3b54" d="M 308.5,407.5 C 308.335,410.85 308.502,414.183 309,417.5C 309.494,415.866 309.66,414.199 309.5,412.5C 316.2,412.17 322.866,412.503 329.5,413.5C 329.167,414.167 328.833,414.833 328.5,415.5C 334.798,416.496 341.132,416.83 347.5,416.5C 347.5,415.167 347.5,413.833 347.5,412.5C 350.833,412.5 354.167,412.5 357.5,412.5C 357.5,413.833 357.5,415.167 357.5,416.5C 360.898,416.82 364.232,416.487 367.5,415.5C 367.167,414.833 366.833,414.167 366.5,413.5C 369.428,412.516 372.428,412.183 375.5,412.5C 375.232,410.901 375.566,409.568 376.5,408.5C 376.72,415.543 376.386,422.543 375.5,429.5C 353.435,428.851 331.602,429.517 310,431.5C 309.802,429.618 309.302,427.952 308.5,426.5C 308.167,426.5 307.833,426.5 307.5,426.5C 307.333,405.164 307.5,383.831 308,362.5C 308.5,377.496 308.667,392.496 308.5,407.5 Z"/></g>
<g><path style="opacity:1" fill="#fb364e" d="M 456.5,398.5 C 457.931,398.881 458.764,399.881 459,401.5C 460.072,409.797 460.739,418.13 461,426.5C 461.181,423.305 461.681,420.305 462.5,417.5C 463.483,421.298 463.817,425.298 463.5,429.5C 475.918,428.866 488.084,429.533 500,431.5C 500.739,429.779 501.573,428.113 502.5,426.5C 503.765,438.801 504.598,451.135 505,463.5C 506.154,454.083 506.987,444.583 507.5,435C 506.213,431.875 506.213,428.709 507.5,425.5C 507.833,425.667 508.167,425.833 508.5,426C 509.49,440.421 509.824,454.921 509.5,469.5C 509.158,474.811 507.825,479.811 505.5,484.5C 505.649,483.448 505.483,482.448 505,481.5C 504.667,481.833 504.333,482.167 504,482.5C 502.927,469.914 502.594,457.248 503,444.5C 502.788,447.758 502.288,450.924 501.5,454C 488.838,454.5 476.171,454.667 463.5,454.5C 463.649,453.448 463.483,452.448 463,451.5C 460.922,454.354 458.755,454.688 456.5,452.5C 455.591,454.375 454.257,455.708 452.5,456.5C 453.572,454.118 454.738,451.784 456,449.5C 456.5,432.503 456.667,415.503 456.5,398.5 Z"/></g>
<g><path style="opacity:1" fill="#fb364e" d="M 377.5,398.5 C 377.5,412.5 377.5,426.5 377.5,440.5C 377.426,442.411 376.426,443.578 374.5,444C 371.746,444.272 369.079,444.772 366.5,445.5C 364.102,445.259 362.102,445.926 360.5,447.5C 359.127,447.343 357.793,447.51 356.5,448C 353.669,450.001 351.003,452.167 348.5,454.5C 347.752,452.265 346.919,452.598 346,455.5C 344.964,458.753 344.297,462.086 344,465.5C 343.503,462.854 343.336,460.187 343.5,457.5C 340.671,457.325 339.004,458.658 338.5,461.5C 335.444,459.711 332.111,459.044 328.5,459.5C 328.5,457.833 328.5,456.167 328.5,454.5C 321.833,454.5 315.167,454.5 308.5,454.5C 308.5,445.167 308.5,435.833 308.5,426.5C 309.302,427.952 309.802,429.618 310,431.5C 331.602,429.517 353.435,428.851 375.5,429.5C 376.386,422.543 376.72,415.543 376.5,408.5C 376.187,404.958 376.521,401.625 377.5,398.5 Z"/></g>
<g><path style="opacity:1" fill="#f92d46" d="M 416.5,451.5 C 417.649,455.97 419.982,459.637 423.5,462.5C 426.356,464.006 429.523,464.672 433,464.5C 435.361,464.496 437.527,464.163 439.5,463.5C 444.819,462.85 449.152,460.517 452.5,456.5C 454.257,455.708 455.591,454.375 456.5,452.5C 458.755,454.688 460.922,454.354 463,451.5C 463.483,452.448 463.649,453.448 463.5,454.5C 476.171,454.667 488.838,454.5 501.5,454C 502.288,450.924 502.788,447.758 503,444.5C 502.594,457.248 502.927,469.914 504,482.5C 504.333,482.167 504.667,481.833 505,481.5C 505.483,482.448 505.649,483.448 505.5,484.5C 505.008,486.819 504.008,488.819 502.5,490.5C 502.162,488.146 501.662,485.813 501,483.5C 500.667,484.167 500.333,484.833 500,485.5C 461.048,483.841 421.881,482.841 382.5,482.5C 382.192,481.692 381.692,481.025 381,480.5C 377.89,481.673 377.723,481.173 380.5,479C 377.131,479.883 373.631,480.716 370,481.5C 367.7,480.225 365.533,480.559 363.5,482.5C 359.721,482.055 356.221,482.055 353,482.5C 352.667,481.833 352.333,481.167 352,480.5C 341.333,481.833 330.667,481.833 320,480.5C 319.138,482.087 318.471,483.754 318,485.5C 317.55,482.894 316.05,481.561 313.5,481.5C 313.682,483.675 314.349,485.675 315.5,487.5C 315.315,488.584 314.982,489.584 314.5,490.5C 309.689,482.594 307.355,473.928 307.5,464.5C 307.5,451.833 307.5,439.167 307.5,426.5C 307.833,426.5 308.167,426.5 308.5,426.5C 308.5,435.833 308.5,445.167 308.5,454.5C 315.167,454.5 321.833,454.5 328.5,454.5C 328.5,456.167 328.5,457.833 328.5,459.5C 332.111,459.044 335.444,459.711 338.5,461.5C 339.004,458.658 340.671,457.325 343.5,457.5C 343.336,460.187 343.503,462.854 344,465.5C 344.297,462.086 344.964,458.753 346,455.5C 346.919,452.598 347.752,452.265 348.5,454.5C 347.051,456.925 346.385,459.591 346.5,462.5C 347.438,472.767 353.104,477.767 363.5,477.5C 377.975,477.684 385.641,470.684 386.5,456.5C 387.331,443.34 387.831,430.006 388,416.5C 389.831,429.129 390.664,441.796 390.5,454.5C 391.333,455.5 392.167,456.5 393,457.5C 393.196,455.714 394.029,454.381 395.5,453.5C 401.773,454.46 408.107,454.793 414.5,454.5C 414.343,453.127 414.51,451.793 415,450.5C 415.383,451.056 415.883,451.389 416.5,451.5 Z"/></g>
<g><path style="opacity:1" fill="#f9c1c9" d="M 423.5,462.5 C 428.797,463.275 434.13,463.608 439.5,463.5C 437.527,464.163 435.361,464.496 433,464.5C 429.523,464.672 426.356,464.006 423.5,462.5 Z"/></g>
<g><path style="opacity:1" fill="#feadb7" d="M 366.5,445.5 C 364.898,447.074 362.898,447.741 360.5,447.5C 362.102,445.926 364.102,445.259 366.5,445.5 Z"/></g>
<g><path style="opacity:0.339" fill="#f4edee" d="M 511.5,342.5 C 511.5,398.833 511.5,455.167 511.5,511.5C 500.5,511.5 489.5,511.5 478.5,511.5C 478.5,511.167 478.5,510.833 478.5,510.5C 493.069,508.128 503.236,500.128 509,486.5C 510.289,480.912 510.789,475.245 510.5,469.5C 510.5,431.833 510.5,394.167 510.5,356.5C 510.181,351.637 510.514,346.97 511.5,342.5 Z"/></g>
<g><path style="opacity:0.137" fill="#062437" d="M 0.5,479.5 C 1.7682,481.905 2.43487,484.572 2.5,487.5C 0.960457,485.162 0.29379,482.495 0.5,479.5 Z"/></g>
<g><path style="opacity:1" fill="#fa2742" d="M 502.5,490.5 C 499.115,496.219 494.448,500.552 488.5,503.5C 486.149,501.797 483.482,501.297 480.5,502C 481.167,502.333 481.833,502.667 482.5,503C 479.173,503.61 475.839,504.11 472.5,504.5C 472.5,503.5 472.5,502.5 472.5,501.5C 475.073,501.852 477.406,501.352 479.5,500C 474.182,499.978 468.849,500.145 463.5,500.5C 463.492,497.455 463.159,494.455 462.5,491.5C 459.833,491.5 457.167,491.5 454.5,491.5C 453.705,495.785 453.372,500.119 453.5,504.5C 450.428,504.817 447.428,504.484 444.5,503.5C 444.296,499.637 443.963,495.637 443.5,491.5C 437.5,491.5 431.5,491.5 425.5,491.5C 424.841,494.455 424.508,497.455 424.5,500.5C 421.5,500.5 418.5,500.5 415.5,500.5C 415.492,497.455 415.159,494.455 414.5,491.5C 408.5,491.5 402.5,491.5 396.5,491.5C 395.705,495.785 395.372,500.119 395.5,504.5C 392.5,504.5 389.5,504.5 386.5,504.5C 386.5,503.167 386.5,501.833 386.5,500.5C 383.482,500.665 380.482,500.498 377.5,500C 376.556,497.281 376.223,494.448 376.5,491.5C 370.167,491.5 363.833,491.5 357.5,491.5C 357.664,494.187 357.497,496.854 357,499.5C 353.333,500.833 349.667,500.833 346,499.5C 344.991,501.025 344.491,502.692 344.5,504.5C 342.396,504.201 340.396,504.534 338.5,505.5C 340.332,506.057 341.665,507.057 342.5,508.5C 341.167,508.5 339.833,508.5 338.5,508.5C 328.524,505.197 320.524,499.197 314.5,490.5C 314.982,489.584 315.315,488.584 315.5,487.5C 314.349,485.675 313.682,483.675 313.5,481.5C 316.05,481.561 317.55,482.894 318,485.5C 318.471,483.754 319.138,482.087 320,480.5C 330.667,481.833 341.333,481.833 352,480.5C 352.333,481.167 352.667,481.833 353,482.5C 356.221,482.055 359.721,482.055 363.5,482.5C 365.533,480.559 367.7,480.225 370,481.5C 373.631,480.716 377.131,479.883 380.5,479C 377.723,481.173 377.89,481.673 381,480.5C 381.692,481.025 382.192,481.692 382.5,482.5C 421.881,482.841 461.048,483.841 500,485.5C 500.333,484.833 500.667,484.167 501,483.5C 501.662,485.813 502.162,488.146 502.5,490.5 Z"/></g>
<g><path style="opacity:1" fill="#91b1cc" d="M 509.5,469.5 C 509.833,469.5 510.167,469.5 510.5,469.5C 510.789,475.245 510.289,480.912 509,486.5C 503.236,500.128 493.069,508.128 478.5,510.5C 476.265,510.795 474.265,510.461 472.5,509.5C 478.318,508.715 483.651,506.715 488.5,503.5C 494.448,500.552 499.115,496.219 502.5,490.5C 504.008,488.819 505.008,486.819 505.5,484.5C 507.825,479.811 509.158,474.811 509.5,469.5 Z"/></g>
<g><path style="opacity:0.004" fill="#081a27" d="M 2.5,487.5 C 4.00751,489.181 5.00751,491.181 5.5,493.5C 3.46095,492.089 2.46095,490.089 2.5,487.5 Z"/></g>
<g><path style="opacity:1" fill="#f9293f" d="M 488.5,503.5 C 483.651,506.715 478.318,508.715 472.5,509.5C 431.18,510.627 389.847,510.793 348.5,510C 346.292,509.809 344.292,509.309 342.5,508.5C 341.665,507.057 340.332,506.057 338.5,505.5C 340.396,504.534 342.396,504.201 344.5,504.5C 344.491,502.692 344.991,501.025 346,499.5C 349.667,500.833 353.333,500.833 357,499.5C 357.497,496.854 357.664,494.187 357.5,491.5C 363.833,491.5 370.167,491.5 376.5,491.5C 376.223,494.448 376.556,497.281 377.5,500C 380.482,500.498 383.482,500.665 386.5,500.5C 386.5,501.833 386.5,503.167 386.5,504.5C 389.5,504.5 392.5,504.5 395.5,504.5C 395.372,500.119 395.705,495.785 396.5,491.5C 402.5,491.5 408.5,491.5 414.5,491.5C 415.159,494.455 415.492,497.455 415.5,500.5C 418.5,500.5 421.5,500.5 424.5,500.5C 424.508,497.455 424.841,494.455 425.5,491.5C 431.5,491.5 437.5,491.5 443.5,491.5C 443.963,495.637 444.296,499.637 444.5,503.5C 447.428,504.484 450.428,504.817 453.5,504.5C 453.372,500.119 453.705,495.785 454.5,491.5C 457.167,491.5 459.833,491.5 462.5,491.5C 463.159,494.455 463.492,497.455 463.5,500.5C 468.849,500.145 474.182,499.978 479.5,500C 477.406,501.352 475.073,501.852 472.5,501.5C 472.5,502.5 472.5,503.5 472.5,504.5C 475.839,504.11 479.173,503.61 482.5,503C 481.833,502.667 481.167,502.333 480.5,502C 483.482,501.297 486.149,501.797 488.5,503.5 Z"/></g>
<g><path style="opacity:0.15" fill="#012e48" d="M 7.5,496.5 C 12.8311,501.825 18.8311,506.159 25.5,509.5C 17.6637,507.593 11.6637,503.26 7.5,496.5 Z"/></g>
<g><path style="opacity:0.557" fill="#014164" d="M 26.5,509.5 C 116.145,510.49 205.811,510.823 295.5,510.5C 297.5,510.5 299.5,510.5 301.5,510.5C 301.5,510.833 301.5,511.167 301.5,511.5C 210.833,511.5 120.167,511.5 29.5,511.5C 28.5,510.833 27.5,510.167 26.5,509.5 Z"/></g>
<g><path style="opacity:0.851" fill="#bdbfca" d="M 338.5,508.5 C 339.833,508.5 341.167,508.5 342.5,508.5C 344.292,509.309 346.292,509.809 348.5,510C 389.847,510.793 431.18,510.627 472.5,509.5C 474.265,510.461 476.265,510.795 478.5,510.5C 478.5,510.833 478.5,511.167 478.5,511.5C 427.167,511.5 375.833,511.5 324.5,511.5C 324.5,511.167 324.5,510.833 324.5,510.5C 329.619,511.103 334.285,510.436 338.5,508.5 Z"/></g>
</svg>
