<?xml version="1.0" encoding="UTF-8"?>
<!DOCTYPE svg PUBLIC "-//W3C//DTD SVG 1.1//EN" "http://www.w3.org/Graphics/SVG/1.1/DTD/svg11.dtd">
<svg xmlns="http://www.w3.org/2000/svg" version="1.1" width="512px" height="512px" style="shape-rendering:geometricPrecision; text-rendering:geometricPrecision; image-rendering:optimizeQuality; fill-rule:evenodd; clip-rule:evenodd" xmlns:xlink="http://www.w3.org/1999/xlink">
<g><path style="opacity:1" fill="#d53532" d="M -0.5,-0.5 C 170.167,-0.5 340.833,-0.5 511.5,-0.5C 511.5,170.167 511.5,340.833 511.5,511.5C 340.833,511.5 170.167,511.5 -0.5,511.5C -0.5,340.833 -0.5,170.167 -0.5,-0.5 Z"/></g>
<g><path style="opacity:1" fill="#d21d19" d="M 276.5,62.5 C 264.833,62.5 253.167,62.5 241.5,62.5C 247.295,61.1704 253.462,60.5038 260,60.5C 266.167,60.6667 272.333,60.8333 278.5,61C 277.584,61.2784 276.918,61.7784 276.5,62.5 Z"/></g>
<g><path style="opacity:1" fill="#dd5f5c" d="M 241.5,63.5 C 241.5,63.1667 241.5,62.8333 241.5,62.5C 253.167,62.5 264.833,62.5 276.5,62.5C 279.082,62.0254 281.082,62.6921 282.5,64.5C 280.167,64.5 277.833,64.5 275.5,64.5C 264.346,63.5052 253.012,63.1719 241.5,63.5 Z"/></g>
<g><path style="opacity:1" fill="#d11814" d="M 239.5,64.5 C 235.818,64.6653 232.152,64.4986 228.5,64C 232.523,61.9067 236.19,62.0734 239.5,64.5 Z"/></g>
<g><path style="opacity:1" fill="#ebaead" d="M 241.5,63.5 C 253.012,63.1719 264.346,63.5052 275.5,64.5C 273.5,64.5 271.5,64.5 269.5,64.5C 263.5,64.5 257.5,64.5 251.5,64.5C 247.466,64.5045 243.466,64.8379 239.5,65.5C 239.5,65.1667 239.5,64.8333 239.5,64.5C 240.492,64.6716 241.158,64.3382 241.5,63.5 Z"/></g>
<g><path style="opacity:1" fill="#f5dada" d="M 269.5,64.5 C 271.5,64.5 273.5,64.5 275.5,64.5C 277.833,64.5 280.167,64.5 282.5,64.5C 285.833,65.1667 289.167,65.8333 292.5,66.5C 286.491,66.6662 280.491,66.4995 274.5,66C 272.618,65.8019 270.952,65.3019 269.5,64.5 Z"/></g>
<g><path style="opacity:1" fill="#f4d3d3" d="M 251.5,64.5 C 246.75,66.0308 241.75,66.6975 236.5,66.5C 236.5,66.1667 236.5,65.8333 236.5,65.5C 237.5,65.5 238.5,65.5 239.5,65.5C 243.466,64.8379 247.466,64.5045 251.5,64.5 Z"/></g>
<g><path style="opacity:1" fill="#fefdfd" d="M 251.5,64.5 C 257.5,64.5 263.5,64.5 269.5,64.5C 270.952,65.3019 272.618,65.8019 274.5,66C 280.491,66.4995 286.491,66.6662 292.5,66.5C 294.565,66.5172 296.565,66.8505 298.5,67.5C 306.372,71.1223 314.706,73.7889 323.5,75.5C 325.167,76.1667 326.833,76.8333 328.5,77.5C 328.804,78.1499 329.137,78.8165 329.5,79.5C 333.544,81.1928 337.544,82.8595 341.5,84.5C 343.289,85.8772 345.289,86.8772 347.5,87.5C 349.167,88.8333 350.833,90.1667 352.5,91.5C 352.821,93.0481 353.821,93.7148 355.5,93.5C 357.833,95.5 360.167,97.5 362.5,99.5C 364.833,102.5 367.5,105.167 370.5,107.5C 371.5,107.833 372.167,108.5 372.5,109.5C 373.487,113.507 375.82,116.507 379.5,118.5C 379.427,120.027 380.094,121.027 381.5,121.5C 381.87,124.267 383.204,126.267 385.5,127.5C 385.738,129.404 386.738,130.738 388.5,131.5C 389.167,132.833 389.833,134.167 390.5,135.5C 390.157,137.483 390.824,138.817 392.5,139.5C 392.62,142.578 393.62,145.245 395.5,147.5C 395.557,148.609 395.89,149.609 396.5,150.5C 396.528,153.916 397.528,156.916 399.5,159.5C 400.376,164.132 401.043,168.799 401.5,173.5C 402.232,182.815 402.566,192.148 402.5,201.5C 402.5,204.5 402.5,207.5 402.5,210.5C 402.577,214.215 402.244,217.881 401.5,221.5C 399.837,223.438 399.171,225.772 399.5,228.5C 399.795,230.735 399.461,232.735 398.5,234.5C 396.086,239.682 394.753,245.349 394.5,251.5C 392.72,252.99 392.054,254.99 392.5,257.5C 391.326,258.514 390.66,259.847 390.5,261.5C 389.833,263.833 389.167,266.167 388.5,268.5C 387.542,268.953 386.708,269.619 386,270.5C 385.342,273.285 384.509,275.951 383.5,278.5C 382.094,278.973 381.427,279.973 381.5,281.5C 381.5,282.167 381.5,282.833 381.5,283.5C 379.088,283.694 378.088,285.027 378.5,287.5C 377.662,287.842 377.328,288.508 377.5,289.5C 375.457,290.579 374.124,292.246 373.5,294.5C 371.833,296.5 370.167,298.5 368.5,300.5C 363.145,306.187 357.812,311.854 352.5,317.5C 352.167,317.5 351.833,317.5 351.5,317.5C 350.167,317.5 349.5,318.167 349.5,319.5C 347.821,319.285 346.821,319.952 346.5,321.5C 344.596,321.738 343.262,322.738 342.5,324.5C 339.787,325.397 337.454,326.73 335.5,328.5C 333.517,328.157 332.183,328.824 331.5,330.5C 330.609,331.11 329.609,331.443 328.5,331.5C 325.209,332.514 322.209,333.847 319.5,335.5C 315.956,335.132 312.956,336.132 310.5,338.5C 308.833,338.5 307.167,338.5 305.5,338.5C 302.518,338.963 299.518,339.296 296.5,339.5C 286.094,339.696 275.76,339.029 265.5,337.5C 261.61,335.946 257.61,334.613 253.5,333.5C 251.664,331.412 249.331,330.079 246.5,329.5C 246.027,328.094 245.027,327.427 243.5,327.5C 241.596,327.262 240.262,326.262 239.5,324.5C 239.5,322.5 238.5,321.5 236.5,321.5C 236.5,320.167 235.833,319.5 234.5,319.5C 234.672,318.508 234.338,317.842 233.5,317.5C 233.5,316.833 233.167,316.5 232.5,316.5C 231.432,315.566 230.099,315.232 228.5,315.5C 228.5,317.5 228.5,319.5 228.5,321.5C 227.223,325.194 226.223,328.861 225.5,332.5C 223.71,336.072 222.71,340.072 222.5,344.5C 221.074,347.976 220.074,351.643 219.5,355.5C 219.326,357.861 218.993,360.194 218.5,362.5C 217.267,366.006 216.267,369.673 215.5,373.5C 214.17,378.15 212.837,382.817 211.5,387.5C 211.167,387.5 210.833,387.5 210.5,387.5C 209.326,388.514 208.66,389.847 208.5,391.5C 208.5,392.5 208.5,393.5 208.5,394.5C 206.953,395.768 205.953,397.435 205.5,399.5C 203.73,401.454 202.397,403.787 201.5,406.5C 200.216,410.014 198.55,413.347 196.5,416.5C 194.116,418.585 192.449,421.252 191.5,424.5C 190.662,424.842 190.328,425.508 190.5,426.5C 187.754,428.583 185.754,431.25 184.5,434.5C 182.413,435.585 181.08,437.251 180.5,439.5C 180.5,439.833 180.5,440.167 180.5,440.5C 179.167,440.5 178.5,441.167 178.5,442.5C 177.167,443.833 175.833,445.167 174.5,446.5C 173.167,446.167 171.833,445.833 170.5,445.5C 170.5,445.167 170.5,444.833 170.5,444.5C 170.802,440.21 170.136,436.21 168.5,432.5C 168.5,431.833 168.5,431.167 168.5,430.5C 168.333,412.497 168.5,394.497 169,376.5C 170.677,370.951 171.51,365.285 171.5,359.5C 173.326,354.739 174.659,349.739 175.5,344.5C 175.5,344.167 175.5,343.833 175.5,343.5C 177.223,341.22 177.889,338.553 177.5,335.5C 177.5,335.167 177.5,334.833 177.5,334.5C 178.151,333.909 178.818,333.243 179.5,332.5C 181.873,325.042 182.873,317.375 182.5,309.5C 182.833,309.5 183.167,309.5 183.5,309.5C 184.344,306.655 185.01,303.655 185.5,300.5C 186.404,299.791 186.737,298.791 186.5,297.5C 187.232,296.192 188.066,294.858 189,293.5C 189.558,287.416 190.392,281.416 191.5,275.5C 191.517,273.435 191.85,271.435 192.5,269.5C 192.5,269.167 192.5,268.833 192.5,268.5C 193.338,268.158 193.672,267.492 193.5,266.5C 195.223,264.22 195.889,261.553 195.5,258.5C 195.5,258.167 195.5,257.833 195.5,257.5C 196.407,255.343 197.073,253.01 197.5,250.5C 197.5,248.833 197.5,247.167 197.5,245.5C 199.743,243.162 200.076,240.496 198.5,237.5C 197.674,232.856 196.841,228.189 196,223.5C 195.066,222.142 194.232,220.808 193.5,219.5C 193.5,210.5 193.5,201.5 193.5,192.5C 194.924,190.485 195.59,188.152 195.5,185.5C 195.5,184.5 195.5,183.5 195.5,182.5C 196.906,182.027 197.573,181.027 197.5,179.5C 199.733,176.151 201.4,172.485 202.5,168.5C 202.833,167.5 203.5,166.833 204.5,166.5C 206.823,163.874 209.157,161.207 211.5,158.5C 212.436,157.026 213.77,156.026 215.5,155.5C 217.027,155.573 218.027,154.906 218.5,153.5C 221.59,152.647 224.59,151.647 227.5,150.5C 233.878,150.295 240.211,150.628 246.5,151.5C 249.995,152.644 252.995,154.644 255.5,157.5C 256.08,159.749 257.413,161.415 259.5,162.5C 264.149,175.6 264.816,188.933 261.5,202.5C 259.467,207.952 257.8,213.619 256.5,219.5C 255.256,221.663 254.256,223.997 253.5,226.5C 253.5,228.5 253.5,230.5 253.5,232.5C 252.351,232.791 251.684,233.624 251.5,235C 250.923,237.137 250.59,239.304 250.5,241.5C 249.593,243.657 248.927,245.99 248.5,248.5C 247.593,250.657 246.927,252.99 246.5,255.5C 244.541,261.75 243.874,268.416 244.5,275.5C 244.132,279.044 245.132,282.044 247.5,284.5C 247.427,286.027 248.094,287.027 249.5,287.5C 249.833,287.5 250.167,287.5 250.5,287.5C 250.833,288.167 251.167,288.833 251.5,289.5C 252.5,292.5 254.5,294.5 257.5,295.5C 258.401,297.727 260.067,298.727 262.5,298.5C 264.32,300.448 266.654,301.448 269.5,301.5C 270.568,302.434 271.901,302.768 273.5,302.5C 280.313,303.491 287.313,303.825 294.5,303.5C 294.5,302.5 294.5,301.5 294.5,300.5C 295.167,300.5 295.833,300.5 296.5,300.5C 298.38,300.771 299.713,300.104 300.5,298.5C 302.989,298.759 304.656,297.759 305.5,295.5C 309.636,295.354 312.303,293.354 313.5,289.5C 316.335,288.931 318.001,287.264 318.5,284.5C 319.5,282.833 320.833,281.5 322.5,280.5C 324.9,278.704 326.567,276.37 327.5,273.5C 328.458,273.047 329.292,272.381 330,271.5C 331.654,268.707 332.821,265.707 333.5,262.5C 334.492,260.544 335.492,258.544 336.5,256.5C 336.263,255.209 336.596,254.209 337.5,253.5C 338.117,253.389 338.617,253.056 339,252.5C 339.44,250.134 339.94,247.801 340.5,245.5C 340.5,244.833 340.5,244.167 340.5,243.5C 342.905,239.241 344.572,234.574 345.5,229.5C 345.19,226.287 345.523,223.287 346.5,220.5C 347.222,220.082 347.722,219.416 348,218.5C 348.497,215.854 348.664,213.187 348.5,210.5C 350.446,205.604 351.113,200.271 350.5,194.5C 350.666,186.826 350.5,179.159 350,171.5C 349.722,170.584 349.222,169.918 348.5,169.5C 349.114,164.931 348.114,160.931 345.5,157.5C 345.5,156.833 345.5,156.167 345.5,155.5C 345.573,153.973 344.906,152.973 343.5,152.5C 343.5,151.5 343.5,150.5 343.5,149.5C 341.966,145.839 340.299,142.172 338.5,138.5C 337.817,138.137 337.15,137.804 336.5,137.5C 333.177,133.54 329.844,129.54 326.5,125.5C 325.415,123.413 323.749,122.08 321.5,121.5C 319.833,120.167 318.167,118.833 316.5,117.5C 316.027,116.094 315.027,115.427 313.5,115.5C 313.047,114.542 312.381,113.708 311.5,113C 309.073,111.409 306.407,110.575 303.5,110.5C 302.817,108.824 301.483,108.157 299.5,108.5C 298.909,107.849 298.243,107.182 297.5,106.5C 293.723,105.601 290.056,104.601 286.5,103.5C 282.106,103.131 277.773,102.465 273.5,101.5C 271.5,101.5 269.5,101.5 267.5,101.5C 262.678,100.834 257.678,100.501 252.5,100.5C 247.119,100.506 242.119,101.172 237.5,102.5C 234.016,102.677 231.016,103.677 228.5,105.5C 225.417,105.916 222.417,106.583 219.5,107.5C 217.167,107.5 214.833,107.5 212.5,107.5C 212.5,108.5 212.5,109.5 212.5,110.5C 210.302,110.12 208.635,110.787 207.5,112.5C 204.413,113.247 201.746,114.58 199.5,116.5C 198.833,117.167 198.167,117.833 197.5,118.5C 194.281,119.069 191.948,120.736 190.5,123.5C 189.128,124.512 187.795,125.512 186.5,126.5C 182.9,128.43 179.9,131.097 177.5,134.5C 174.757,136.239 172.757,138.573 171.5,141.5C 171.5,141.833 171.5,142.167 171.5,142.5C 168.736,143.948 167.069,146.281 166.5,149.5C 165.599,150.29 164.932,151.29 164.5,152.5C 162.952,152.821 162.285,153.821 162.5,155.5C 160.801,157.566 159.468,159.9 158.5,162.5C 157.833,164.5 157.167,166.5 156.5,168.5C 154.182,170.185 153.182,172.519 153.5,175.5C 153.552,177.903 153.219,180.236 152.5,182.5C 151.596,183.209 151.263,184.209 151.5,185.5C 150.685,186.429 149.852,187.429 149,188.5C 148.333,198.5 148.333,208.5 149,218.5C 149.232,219.737 149.732,220.737 150.5,221.5C 151.167,223.833 151.833,226.167 152.5,228.5C 152.66,230.153 153.326,231.486 154.5,232.5C 154.5,233.167 154.5,233.833 154.5,234.5C 154.427,236.027 155.094,237.027 156.5,237.5C 156.5,238.167 156.5,238.833 156.5,239.5C 156.427,241.027 157.094,242.027 158.5,242.5C 158.738,244.404 159.738,245.738 161.5,246.5C 162.5,247.833 163.5,249.167 164.5,250.5C 164.427,252.027 165.094,253.027 166.5,253.5C 166.092,259.535 165.426,265.535 164.5,271.5C 164.5,272.167 164.5,272.833 164.5,273.5C 163.883,273.611 163.383,273.944 163,274.5C 162.505,276.473 162.338,278.473 162.5,280.5C 161.662,280.842 161.328,281.508 161.5,282.5C 160.167,283.167 159.167,284.167 158.5,285.5C 156.143,285.663 153.81,285.497 151.5,285C 149.423,283.295 147.09,282.128 144.5,281.5C 144.167,281.5 143.833,281.5 143.5,281.5C 143.027,280.094 142.027,279.427 140.5,279.5C 139.738,277.738 138.404,276.738 136.5,276.5C 135.833,276.5 135.5,276.167 135.5,275.5C 135.027,274.094 134.027,273.427 132.5,273.5C 131.167,271.5 129.5,269.833 127.5,268.5C 127.262,266.596 126.262,265.262 124.5,264.5C 122.5,261.5 120.5,258.5 118.5,255.5C 118.727,252.562 117.727,250.229 115.5,248.5C 113.965,244.562 112.632,240.562 111.5,236.5C 110.833,233.167 110.167,229.833 109.5,226.5C 107.862,213.24 107.195,199.907 107.5,186.5C 107.557,185.391 107.89,184.391 108.5,183.5C 109.491,178.95 110.491,174.283 111.5,169.5C 111.4,166.892 112.067,164.558 113.5,162.5C 113.5,162.167 113.5,161.833 113.5,161.5C 115.935,157.871 117.602,153.871 118.5,149.5C 119.11,148.609 119.443,147.609 119.5,146.5C 120.89,145.101 121.89,143.434 122.5,141.5C 122.5,141.167 122.5,140.833 122.5,140.5C 125.4,138.601 127.066,135.934 127.5,132.5C 130.015,130.236 132.015,127.569 133.5,124.5C 133.328,123.508 133.662,122.842 134.5,122.5C 136.86,121.135 138.527,119.135 139.5,116.5C 141.929,115.735 143.262,114.069 143.5,111.5C 147.5,109.5 150.5,106.5 152.5,102.5C 154.179,102.715 155.179,102.048 155.5,100.5C 157.027,100.573 158.027,99.9063 158.5,98.5C 159.945,96.9373 161.611,95.604 163.5,94.5C 165.23,93.9744 166.564,92.9744 167.5,91.5C 168.29,90.5987 169.29,89.9321 170.5,89.5C 172.027,89.573 173.027,88.9063 173.5,87.5C 174.995,87.0113 176.329,86.3446 177.5,85.5C 178.995,85.0113 180.329,84.3446 181.5,83.5C 182.995,83.0113 184.329,82.3446 185.5,81.5C 186.287,79.8958 187.62,79.2291 189.5,79.5C 191.544,78.4918 193.544,77.4918 195.5,76.5C 197.403,76.2041 199.07,75.5375 200.5,74.5C 202.898,74.7406 204.898,74.0739 206.5,72.5C 207.167,72.1667 207.833,71.8333 208.5,71.5C 210.435,70.8505 212.435,70.5172 214.5,70.5C 218.281,69.5615 221.947,68.5615 225.5,67.5C 225.833,67.5 226.167,67.5 226.5,67.5C 229.807,66.9492 233.14,66.6159 236.5,66.5C 241.75,66.6975 246.75,66.0308 251.5,64.5 Z"/></g>
<g><path style="opacity:1" fill="#e9a3a1" d="M 236.5,65.5 C 236.5,65.8333 236.5,66.1667 236.5,66.5C 233.14,66.6159 229.807,66.9492 226.5,67.5C 226.918,66.7784 227.584,66.2784 228.5,66C 231.146,65.5026 233.813,65.3359 236.5,65.5 Z"/></g>
<g><path style="opacity:1" fill="#ea9d9b" d="M 225.5,67.5 C 221.947,68.5615 218.281,69.5615 214.5,70.5C 214.5,70.1667 214.5,69.8333 214.5,69.5C 217.889,67.78 221.556,67.1134 225.5,67.5 Z"/></g>
<g><path style="opacity:1" fill="#e1716f" d="M 214.5,69.5 C 214.5,69.8333 214.5,70.1667 214.5,70.5C 212.435,70.5172 210.435,70.8505 208.5,71.5C 209.99,69.7202 211.99,69.0535 214.5,69.5 Z"/></g>
<g><path style="opacity:1" fill="#f4cbca" d="M 298.5,67.5 C 305.603,69.2514 312.603,71.2514 319.5,73.5C 320.833,74.1667 322.167,74.8333 323.5,75.5C 314.706,73.7889 306.372,71.1223 298.5,67.5 Z"/></g>
<g><path style="opacity:1" fill="#ecb1b0" d="M 206.5,72.5 C 204.898,74.0739 202.898,74.7406 200.5,74.5C 202.102,72.9261 204.102,72.2594 206.5,72.5 Z"/></g>
<g><path style="opacity:1" fill="#dd5e59" d="M 319.5,73.5 C 321.924,73.1924 324.257,73.5258 326.5,74.5C 327.624,75.8592 328.958,76.8592 330.5,77.5C 329.833,77.5 329.167,77.5 328.5,77.5C 326.833,76.8333 325.167,76.1667 323.5,75.5C 322.167,74.8333 320.833,74.1667 319.5,73.5 Z"/></g>
<g><path style="opacity:1" fill="#e89a99" d="M 200.5,74.5 C 199.07,75.5375 197.403,76.2041 195.5,76.5C 196.635,74.7868 198.302,74.1201 200.5,74.5 Z"/></g>
<g><path style="opacity:1" fill="#eba5a4" d="M 195.5,76.5 C 193.544,77.4918 191.544,78.4918 189.5,79.5C 190.687,77.0246 192.687,76.0246 195.5,76.5 Z"/></g>
<g><path style="opacity:1" fill="#f3c4c3" d="M 328.5,77.5 C 329.167,77.5 329.833,77.5 330.5,77.5C 333.99,79.7463 337.656,81.7463 341.5,83.5C 341.5,83.8333 341.5,84.1667 341.5,84.5C 337.544,82.8595 333.544,81.1928 329.5,79.5C 329.137,78.8165 328.804,78.1499 328.5,77.5 Z"/></g>
<g><path style="opacity:1" fill="#f0bab8" d="M 185.5,81.5 C 184.329,82.3446 182.995,83.0113 181.5,83.5C 182.183,81.8235 183.517,81.1568 185.5,81.5 Z"/></g>
<g><path style="opacity:1" fill="#edadac" d="M 181.5,83.5 C 180.329,84.3446 178.995,85.0113 177.5,85.5C 178.183,83.8235 179.517,83.1568 181.5,83.5 Z"/></g>
<g><path style="opacity:1" fill="#e06964" d="M 341.5,84.5 C 341.5,84.1667 341.5,83.8333 341.5,83.5C 343.966,84.2977 345.966,85.631 347.5,87.5C 345.289,86.8772 343.289,85.8772 341.5,84.5 Z"/></g>
<g><path style="opacity:1" fill="#ea9592" d="M 177.5,85.5 C 176.329,86.3446 174.995,87.0113 173.5,87.5C 174.183,85.8235 175.517,85.1568 177.5,85.5 Z"/></g>
<g><path style="opacity:1" fill="#eeb1b0" d="M 173.5,87.5 C 173.027,88.9063 172.027,89.573 170.5,89.5C 170.973,88.0937 171.973,87.427 173.5,87.5 Z"/></g>
<g><path style="opacity:1" fill="#e99895" d="M 167.5,91.5 C 166.564,92.9744 165.23,93.9744 163.5,94.5C 164.035,92.5544 165.368,91.5544 167.5,91.5 Z"/></g>
<g><path style="opacity:1" fill="#eeb5b5" d="M 352.5,91.5 C 353.71,91.9321 354.71,92.5987 355.5,93.5C 353.821,93.7148 352.821,93.0481 352.5,91.5 Z"/></g>
<g><path style="opacity:1" fill="#edb4b2" d="M 158.5,98.5 C 158.027,99.9063 157.027,100.573 155.5,100.5C 155.973,99.0937 156.973,98.427 158.5,98.5 Z"/></g>
<g><path style="opacity:1" fill="#f7dedd" d="M 267.5,101.5 C 258.983,101.174 250.65,101.507 242.5,102.5C 240.833,102.5 239.167,102.5 237.5,102.5C 242.119,101.172 247.119,100.506 252.5,100.5C 257.678,100.501 262.678,100.834 267.5,101.5 Z"/></g>
<g><path style="opacity:1" fill="#efbab8" d="M 155.5,100.5 C 155.179,102.048 154.179,102.715 152.5,102.5C 153.29,101.599 154.29,100.932 155.5,100.5 Z"/></g>
<g><path style="opacity:1" fill="#e37472" d="M 242.5,102.5 C 250.65,101.507 258.983,101.174 267.5,101.5C 269.5,101.5 271.5,101.5 273.5,101.5C 274.5,102.167 275.5,102.833 276.5,103.5C 266.532,102.604 256.532,102.271 246.5,102.5C 245.167,102.5 243.833,102.5 242.5,102.5 Z"/></g>
<g><path style="opacity:1" fill="#dd5b54" d="M 362.5,99.5 C 365.039,100.851 367.706,102.018 370.5,103C 369.587,104.414 369.587,105.914 370.5,107.5C 367.5,105.167 364.833,102.5 362.5,99.5 Z"/></g>
<g><path style="opacity:1" fill="#e7918f" d="M 237.5,102.5 C 239.167,102.5 240.833,102.5 242.5,102.5C 238.023,103.862 233.357,104.862 228.5,105.5C 231.016,103.677 234.016,102.677 237.5,102.5 Z"/></g>
<g><path style="opacity:1" fill="#eba2a1" d="M 273.5,101.5 C 277.773,102.465 282.106,103.131 286.5,103.5C 286.5,103.833 286.5,104.167 286.5,104.5C 286.167,104.5 285.833,104.5 285.5,104.5C 282.43,104.632 279.43,104.299 276.5,103.5C 275.5,102.833 274.5,102.167 273.5,101.5 Z"/></g>
<g><path style="opacity:1" fill="#f3cbca" d="M 286.5,104.5 C 286.5,104.167 286.5,103.833 286.5,103.5C 290.056,104.601 293.723,105.601 297.5,106.5C 298.243,107.182 298.909,107.849 299.5,108.5C 295.091,107.363 290.758,106.03 286.5,104.5 Z"/></g>
<g><path style="opacity:1" fill="#d42b26" d="M 246.5,102.5 C 256.532,102.271 266.532,102.604 276.5,103.5C 279.43,104.299 282.43,104.632 285.5,104.5C 285.5,105.5 285.5,106.5 285.5,107.5C 272.935,106.058 260.268,105.225 247.5,105C 246.167,104.667 244.833,104.333 243.5,104C 244.737,103.768 245.737,103.268 246.5,102.5 Z"/></g>
<g><path style="opacity:1" fill="#f2bcbb" d="M 152.5,102.5 C 150.5,106.5 147.5,109.5 143.5,111.5C 146.167,108.167 149.167,105.167 152.5,102.5 Z"/></g>
<g><path style="opacity:1" fill="#f4cecd" d="M 219.5,107.5 C 217.173,108.366 214.839,109.366 212.5,110.5C 212.5,109.5 212.5,108.5 212.5,107.5C 214.833,107.5 217.167,107.5 219.5,107.5 Z"/></g>
<g><path style="opacity:1" fill="#efb9b9" d="M 299.5,108.5 C 301.483,108.157 302.817,108.824 303.5,110.5C 301.847,110.34 300.514,109.674 299.5,108.5 Z"/></g>
<g><path style="opacity:1" fill="#eeb5b4" d="M 303.5,110.5 C 306.407,110.575 309.073,111.409 311.5,113C 312.381,113.708 313.047,114.542 313.5,115.5C 309.912,114.202 306.579,112.536 303.5,110.5 Z"/></g>
<g><path style="opacity:1" fill="#e99c9b" d="M 212.5,110.5 C 211.07,111.537 209.403,112.204 207.5,112.5C 208.635,110.787 210.302,110.12 212.5,110.5 Z"/></g>
<g><path style="opacity:1" fill="#f2c0bf" d="M 372.5,109.5 C 375.209,112.208 377.542,115.208 379.5,118.5C 375.82,116.507 373.487,113.507 372.5,109.5 Z"/></g>
<g><path style="opacity:1" fill="#f2c3c1" d="M 143.5,111.5 C 143.262,114.069 141.929,115.735 139.5,116.5C 140.124,114.246 141.457,112.579 143.5,111.5 Z"/></g>
<g><path style="opacity:1" fill="#f0b8b6" d="M 207.5,112.5 C 205.349,114.718 202.682,116.052 199.5,116.5C 201.746,114.58 204.413,113.247 207.5,112.5 Z"/></g>
<g><path style="opacity:1" fill="#ecb0ae" d="M 313.5,115.5 C 315.027,115.427 316.027,116.094 316.5,117.5C 314.973,117.573 313.973,116.906 313.5,115.5 Z"/></g>
<g><path style="opacity:1" fill="#eeb8b7" d="M 139.5,116.5 C 138.527,119.135 136.86,121.135 134.5,122.5C 135.443,119.891 137.11,117.891 139.5,116.5 Z"/></g>
<g><path style="opacity:1" fill="#e58380" d="M 197.5,118.5 C 195.469,120.522 193.135,122.189 190.5,123.5C 191.948,120.736 194.281,119.069 197.5,118.5 Z"/></g>
<g><path style="opacity:1" fill="#edb2b1" d="M 379.5,118.5 C 380.906,118.973 381.573,119.973 381.5,121.5C 380.094,121.027 379.427,120.027 379.5,118.5 Z"/></g>
<g><path style="opacity:1" fill="#eaa7a5" d="M 321.5,121.5 C 323.749,122.08 325.415,123.413 326.5,125.5C 324.251,124.92 322.585,123.587 321.5,121.5 Z"/></g>
<g><path style="opacity:1" fill="#f2c8c7" d="M 381.5,121.5 C 383.738,122.853 385.071,124.853 385.5,127.5C 383.204,126.267 381.87,124.267 381.5,121.5 Z"/></g>
<g><path style="opacity:1" fill="#edadab" d="M 133.5,124.5 C 132.015,127.569 130.015,130.236 127.5,132.5C 128.41,128.935 130.41,126.268 133.5,124.5 Z"/></g>
<g><path style="opacity:1" fill="#e99b99" d="M 385.5,127.5 C 387.262,128.262 388.262,129.596 388.5,131.5C 386.738,130.738 385.738,129.404 385.5,127.5 Z"/></g>
<g><path style="opacity:1" fill="#e37e7b" d="M 186.5,126.5 C 184.1,129.903 181.1,132.57 177.5,134.5C 179.9,131.097 182.9,128.43 186.5,126.5 Z"/></g>
<g><path style="opacity:1" fill="#f0b9b7" d="M 127.5,132.5 C 127.066,135.934 125.4,138.601 122.5,140.5C 123.433,137.356 125.1,134.689 127.5,132.5 Z"/></g>
<g><path style="opacity:1" fill="#e89a98" d="M 177.5,134.5 C 176.243,137.427 174.243,139.761 171.5,141.5C 172.757,138.573 174.757,136.239 177.5,134.5 Z"/></g>
<g><path style="opacity:1" fill="#f3c9c8" d="M 336.5,137.5 C 337.15,137.804 337.817,138.137 338.5,138.5C 340.299,142.172 341.966,145.839 343.5,149.5C 340.418,146.05 338.084,142.05 336.5,137.5 Z"/></g>
<g><path style="opacity:1" fill="#eeb3b1" d="M 390.5,135.5 C 391.345,136.671 392.011,138.005 392.5,139.5C 390.824,138.817 390.157,137.483 390.5,135.5 Z"/></g>
<g><path style="opacity:1" fill="#e99a98" d="M 122.5,141.5 C 121.89,143.434 120.89,145.101 119.5,146.5C 119.273,144.067 120.273,142.401 122.5,141.5 Z"/></g>
<g><path style="opacity:1" fill="#ecaaa9" d="M 392.5,139.5 C 394.38,141.755 395.38,144.422 395.5,147.5C 393.62,145.245 392.62,142.578 392.5,139.5 Z"/></g>
<g><path style="opacity:1" fill="#e37b78" d="M 171.5,142.5 C 170.189,145.135 168.522,147.469 166.5,149.5C 167.069,146.281 168.736,143.948 171.5,142.5 Z"/></g>
<g><path style="opacity:1" fill="#e3807d" d="M 119.5,146.5 C 119.443,147.609 119.11,148.609 118.5,149.5C 118.167,149.5 117.833,149.5 117.5,149.5C 117.427,147.973 118.094,146.973 119.5,146.5 Z"/></g>
<g><path style="opacity:1" fill="#efb8b7" d="M 227.5,150.5 C 227.5,150.167 227.5,149.833 227.5,149.5C 233.176,149.334 238.843,149.501 244.5,150C 245.416,150.278 246.082,150.778 246.5,151.5C 240.211,150.628 233.878,150.295 227.5,150.5 Z"/></g>
<g><path style="opacity:1" fill="#e38887" d="M 395.5,147.5 C 396.906,147.973 397.573,148.973 397.5,150.5C 397.167,150.5 396.833,150.5 396.5,150.5C 395.89,149.609 395.557,148.609 395.5,147.5 Z"/></g>
<g><path style="opacity:1" fill="#e58986" d="M 227.5,149.5 C 227.5,149.833 227.5,150.167 227.5,150.5C 224.59,151.647 221.59,152.647 218.5,153.5C 219.737,151.903 221.404,150.737 223.5,150C 224.793,149.51 226.127,149.343 227.5,149.5 Z"/></g>
<g><path style="opacity:1" fill="#ecabaa" d="M 164.5,152.5 C 164.068,153.71 163.401,154.71 162.5,155.5C 162.285,153.821 162.952,152.821 164.5,152.5 Z"/></g>
<g><path style="opacity:1" fill="#f0b5b3" d="M 218.5,153.5 C 218.027,154.906 217.027,155.573 215.5,155.5C 215.973,154.094 216.973,153.427 218.5,153.5 Z"/></g>
<g><path style="opacity:1" fill="#eaacab" d="M 343.5,152.5 C 344.906,152.973 345.573,153.973 345.5,155.5C 344.094,155.027 343.427,154.027 343.5,152.5 Z"/></g>
<g><path style="opacity:1" fill="#eeb5b3" d="M 117.5,149.5 C 117.833,149.5 118.167,149.5 118.5,149.5C 117.602,153.871 115.935,157.871 113.5,161.5C 114.52,157.429 115.854,153.429 117.5,149.5 Z"/></g>
<g><path style="opacity:1" fill="#efbebd" d="M 396.5,150.5 C 396.833,150.5 397.167,150.5 397.5,150.5C 397.604,152.703 398.27,154.703 399.5,156.5C 399.5,157.5 399.5,158.5 399.5,159.5C 397.528,156.916 396.528,153.916 396.5,150.5 Z"/></g>
<g><path style="opacity:1" fill="#f0bebd" d="M 255.5,157.5 C 257.587,158.585 258.92,160.251 259.5,162.5C 257.413,161.415 256.08,159.749 255.5,157.5 Z"/></g>
<g><path style="opacity:1" fill="#e99c9a" d="M 162.5,155.5 C 162.075,158.119 161.075,160.453 159.5,162.5C 159.167,162.5 158.833,162.5 158.5,162.5C 159.468,159.9 160.801,157.566 162.5,155.5 Z"/></g>
<g><path style="opacity:1" fill="#ea9b98" d="M 211.5,158.5 C 209.157,161.207 206.823,163.874 204.5,166.5C 205.45,162.587 207.783,159.92 211.5,158.5 Z"/></g>
<g><path style="opacity:1" fill="#e89896" d="M 345.5,157.5 C 348.114,160.931 349.114,164.931 348.5,169.5C 348.5,170.833 348.5,172.167 348.5,173.5C 347.65,168.26 346.65,162.927 345.5,157.5 Z"/></g>
<g><path style="opacity:1" fill="#e37a77" d="M 113.5,162.5 C 112.067,164.558 111.4,166.892 111.5,169.5C 111.167,169.5 110.833,169.5 110.5,169.5C 109.908,166.369 110.908,164.036 113.5,162.5 Z"/></g>
<g><path style="opacity:1" fill="#dc544e" d="M 158.5,162.5 C 158.833,162.5 159.167,162.5 159.5,162.5C 159.227,164.451 159.893,165.951 161.5,167C 160.207,167.49 158.873,167.657 157.5,167.5C 157.946,170.01 157.28,172.01 155.5,173.5C 156.038,171.883 156.371,170.216 156.5,168.5C 157.167,166.5 157.833,164.5 158.5,162.5 Z"/></g>
<g><path style="opacity:1" fill="#f0bbba" d="M 110.5,169.5 C 110.833,169.5 111.167,169.5 111.5,169.5C 110.491,174.283 109.491,178.95 108.5,183.5C 108.5,182.5 108.5,181.5 108.5,180.5C 108.751,176.751 109.417,173.085 110.5,169.5 Z"/></g>
<g><path style="opacity:1" fill="#eb9d9b" d="M 399.5,156.5 C 399.833,156.5 400.167,156.5 400.5,156.5C 401.466,162.112 402.132,167.779 402.5,173.5C 402.167,173.5 401.833,173.5 401.5,173.5C 401.043,168.799 400.376,164.132 399.5,159.5C 399.5,158.5 399.5,157.5 399.5,156.5 Z"/></g>
<g><path style="opacity:1" fill="#f0baba" d="M 156.5,168.5 C 156.371,170.216 156.038,171.883 155.5,173.5C 154.662,173.842 154.328,174.508 154.5,175.5C 154.167,175.5 153.833,175.5 153.5,175.5C 153.182,172.519 154.182,170.185 156.5,168.5 Z"/></g>
<g><path style="opacity:1" fill="#edaeac" d="M 348.5,169.5 C 349.222,169.918 349.722,170.584 350,171.5C 350.5,179.159 350.666,186.826 350.5,194.5C 350.167,194.5 349.833,194.5 349.5,194.5C 349.623,187.471 349.29,180.471 348.5,173.5C 348.5,172.167 348.5,170.833 348.5,169.5 Z"/></g>
<g><path style="opacity:1" fill="#eeb3b1" d="M 202.5,168.5 C 201.4,172.485 199.733,176.151 197.5,179.5C 198.209,175.365 199.875,171.698 202.5,168.5 Z"/></g>
<g><path style="opacity:1" fill="#ecabaa" d="M 259.5,162.5 C 263.306,168.288 265.306,174.788 265.5,182C 264.538,188.48 263.704,194.98 263,201.5C 262.617,202.056 262.117,202.389 261.5,202.5C 264.816,188.933 264.149,175.6 259.5,162.5 Z"/></g>
<g><path style="opacity:1" fill="#dd635e" d="M 153.5,175.5 C 153.833,175.5 154.167,175.5 154.5,175.5C 155.01,178.388 154.344,180.721 152.5,182.5C 153.219,180.236 153.552,177.903 153.5,175.5 Z"/></g>
<g><path style="opacity:1" fill="#e79a99" d="M 197.5,179.5 C 197.573,181.027 196.906,182.027 195.5,182.5C 195.427,180.973 196.094,179.973 197.5,179.5 Z"/></g>
<g><path style="opacity:1" fill="#e07b79" d="M 108.5,180.5 C 108.5,181.5 108.5,182.5 108.5,183.5C 107.89,184.391 107.557,185.391 107.5,186.5C 107.167,186.5 106.833,186.5 106.5,186.5C 106.5,185.167 106.5,183.833 106.5,182.5C 107.167,181.833 107.833,181.167 108.5,180.5 Z"/></g>
<g><path style="opacity:1" fill="#f1d0cf" d="M 401.5,173.5 C 401.833,173.5 402.167,173.5 402.5,173.5C 403.735,182.981 403.735,192.314 402.5,201.5C 402.566,192.148 402.232,182.815 401.5,173.5 Z"/></g>
<g><path style="opacity:1" fill="#edb6b5" d="M 195.5,185.5 C 195.59,188.152 194.924,190.485 193.5,192.5C 193.517,190.435 193.85,188.435 194.5,186.5C 194.5,185.833 194.833,185.5 195.5,185.5 Z"/></g>
<g><path style="opacity:1" fill="#e48c8a" d="M 402.5,173.5 C 403.167,173.5 403.5,173.833 403.5,174.5C 404.665,186.44 404.665,198.44 403.5,210.5C 403.167,210.5 402.833,210.5 402.5,210.5C 402.5,207.5 402.5,204.5 402.5,201.5C 403.735,192.314 403.735,182.981 402.5,173.5 Z"/></g>
<g><path style="opacity:1" fill="#e1716e" d="M 152.5,182.5 C 152.665,185.518 152.498,188.518 152,191.5C 151.722,192.416 151.222,193.082 150.5,193.5C 150.833,190.833 151.167,188.167 151.5,185.5C 151.263,184.209 151.596,183.209 152.5,182.5 Z"/></g>
<g><path style="opacity:1" fill="#dc524e" d="M 105.5,182.5 C 105.833,182.5 106.167,182.5 106.5,182.5C 106.5,183.833 106.5,185.167 106.5,186.5C 106.254,198.197 106.587,209.864 107.5,221.5C 106.833,221.5 106.167,221.5 105.5,221.5C 105.5,208.5 105.5,195.5 105.5,182.5 Z"/></g>
<g><path style="opacity:1" fill="#d21b16" d="M 105.5,182.5 C 105.5,195.5 105.5,208.5 105.5,221.5C 104.71,220.391 104.21,219.058 104,217.5C 103.833,211.667 103.667,205.833 103.5,200C 103.504,193.793 104.171,187.96 105.5,182.5 Z"/></g>
<g><path style="opacity:1" fill="#d32622" d="M 405.5,210.5 C 406.146,198.12 405.479,186.12 403.5,174.5C 403.5,173.833 403.167,173.5 402.5,173.5C 402.132,167.779 401.466,162.112 400.5,156.5C 400.811,155.522 401.478,154.855 402.5,154.5C 406.966,172.815 408.466,191.482 407,210.5C 406.31,211.738 405.81,211.738 405.5,210.5 Z"/></g>
<g><path style="opacity:1" fill="#e68784" d="M 194.5,186.5 C 193.85,188.435 193.517,190.435 193.5,192.5C 193.5,201.5 193.5,210.5 193.5,219.5C 193.5,220.833 193.5,222.167 193.5,223.5C 192.34,211.674 192.174,199.674 193,187.5C 193.383,186.944 193.883,186.611 194.5,186.5 Z"/></g>
<g><path style="opacity:1" fill="#d94b48" d="M 403.5,174.5 C 405.479,186.12 406.146,198.12 405.5,210.5C 404.833,210.5 404.167,210.5 403.5,210.5C 404.665,198.44 404.665,186.44 403.5,174.5 Z"/></g>
<g><path style="opacity:1" fill="#f6d8d7" d="M 151.5,185.5 C 151.167,188.167 150.833,190.833 150.5,193.5C 149.167,201.5 149.167,209.5 150.5,217.5C 150.5,218.833 150.5,220.167 150.5,221.5C 149.732,220.737 149.232,219.737 149,218.5C 148.333,208.5 148.333,198.5 149,188.5C 149.852,187.429 150.685,186.429 151.5,185.5 Z"/></g>
<g><path style="opacity:1" fill="#e99895" d="M 261.5,202.5 C 261.813,205.247 261.48,207.914 260.5,210.5C 259.901,213.955 258.568,216.955 256.5,219.5C 257.8,213.619 259.467,207.952 261.5,202.5 Z"/></g>
<g><path style="opacity:1" fill="#e2807e" d="M 349.5,194.5 C 349.528,199.862 349.194,205.195 348.5,210.5C 348.167,210.5 347.833,210.5 347.5,210.5C 347.255,204.916 347.922,199.583 349.5,194.5 Z"/></g>
<g><path style="opacity:1" fill="#f5dbda" d="M 349.5,194.5 C 349.833,194.5 350.167,194.5 350.5,194.5C 351.113,200.271 350.446,205.604 348.5,210.5C 349.194,205.195 349.528,199.862 349.5,194.5 Z"/></g>
<g><path style="opacity:1" fill="#f1c4c4" d="M 106.5,186.5 C 106.833,186.5 107.167,186.5 107.5,186.5C 107.195,199.907 107.862,213.24 109.5,226.5C 109.167,226.5 108.833,226.5 108.5,226.5C 108.784,224.585 108.451,222.919 107.5,221.5C 106.587,209.864 106.254,198.197 106.5,186.5 Z"/></g>
<g><path style="opacity:1" fill="#edacab" d="M 347.5,210.5 C 347.833,210.5 348.167,210.5 348.5,210.5C 348.664,213.187 348.497,215.854 348,218.5C 347.722,219.416 347.222,220.082 346.5,220.5C 347.051,217.193 347.384,213.86 347.5,210.5 Z"/></g>
<g><path style="opacity:1" fill="#de6663" d="M 150.5,217.5 C 152.414,220.684 153.08,224.351 152.5,228.5C 151.833,226.167 151.167,223.833 150.5,221.5C 150.5,220.167 150.5,218.833 150.5,217.5 Z"/></g>
<g><path style="opacity:1" fill="#f4cecd" d="M 256.5,219.5 C 256.795,221.735 256.461,223.735 255.5,225.5C 254.833,225.833 254.167,226.167 253.5,226.5C 254.256,223.997 255.256,221.663 256.5,219.5 Z"/></g>
<g><path style="opacity:1" fill="#f4d2d1" d="M 193.5,219.5 C 194.232,220.808 195.066,222.142 196,223.5C 196.841,228.189 197.674,232.856 198.5,237.5C 198.167,237.5 197.833,237.5 197.5,237.5C 196.076,232.91 194.742,228.244 193.5,223.5C 193.5,222.167 193.5,220.833 193.5,219.5 Z"/></g>
<g><path style="opacity:1" fill="#eebab9" d="M 401.5,221.5 C 401.326,223.861 400.993,226.194 400.5,228.5C 400.167,228.5 399.833,228.5 399.5,228.5C 399.171,225.772 399.837,223.438 401.5,221.5 Z"/></g>
<g><path style="opacity:1" fill="#eba3a1" d="M 255.5,225.5 C 255.073,228.01 254.407,230.343 253.5,232.5C 253.5,230.5 253.5,228.5 253.5,226.5C 254.167,226.167 254.833,225.833 255.5,225.5 Z"/></g>
<g><path style="opacity:1" fill="#d42824" d="M 400.5,234.5 C 400.5,232.5 400.5,230.5 400.5,228.5C 401.458,228.047 402.292,227.381 403,226.5C 403.172,221.798 403.672,217.132 404.5,212.5C 405.573,221.595 404.906,230.595 402.5,239.5C 401.83,237.709 401.163,236.042 400.5,234.5 Z"/></g>
<g><path style="opacity:1" fill="#e68c89" d="M 108.5,226.5 C 108.833,226.5 109.167,226.5 109.5,226.5C 110.167,229.833 110.833,233.167 111.5,236.5C 109.024,233.712 108.024,230.378 108.5,226.5 Z"/></g>
<g><path style="opacity:1" fill="#e07977" d="M 152.5,228.5 C 154.104,229.287 154.771,230.62 154.5,232.5C 153.326,231.486 152.66,230.153 152.5,228.5 Z"/></g>
<g><path style="opacity:1" fill="#e89593" d="M 253.5,232.5 C 253.117,235.811 252.117,238.811 250.5,241.5C 250.59,239.304 250.923,237.137 251.5,235C 251.684,233.624 252.351,232.791 253.5,232.5 Z"/></g>
<g><path style="opacity:1" fill="#e37b78" d="M 345.5,229.5 C 344.572,234.574 342.905,239.241 340.5,243.5C 341.752,240.017 342.586,236.351 343,232.5C 343.377,231.058 344.21,230.058 345.5,229.5 Z"/></g>
<g><path style="opacity:1" fill="#e06f6b" d="M 399.5,228.5 C 399.833,228.5 400.167,228.5 400.5,228.5C 400.5,230.5 400.5,232.5 400.5,234.5C 399.627,238.865 398.294,242.865 396.5,246.5C 397.259,242.523 397.925,238.523 398.5,234.5C 399.461,232.735 399.795,230.735 399.5,228.5 Z"/></g>
<g><path style="opacity:1" fill="#e58f8d" d="M 154.5,234.5 C 155.906,234.973 156.573,235.973 156.5,237.5C 155.094,237.027 154.427,236.027 154.5,234.5 Z"/></g>
<g><path style="opacity:1" fill="#edb6b4" d="M 156.5,239.5 C 157.906,239.973 158.573,240.973 158.5,242.5C 157.094,242.027 156.427,241.027 156.5,239.5 Z"/></g>
<g><path style="opacity:1" fill="#e17e7b" d="M 197.5,237.5 C 197.833,237.5 198.167,237.5 198.5,237.5C 200.076,240.496 199.743,243.162 197.5,245.5C 197.5,242.833 197.5,240.167 197.5,237.5 Z"/></g>
<g><path style="opacity:1" fill="#ea9e9c" d="M 158.5,242.5 C 160.262,243.262 161.262,244.596 161.5,246.5C 159.738,245.738 158.738,244.404 158.5,242.5 Z"/></g>
<g><path style="opacity:1" fill="#f5d4d3" d="M 398.5,234.5 C 397.925,238.523 397.259,242.523 396.5,246.5C 395.833,248.167 395.167,249.833 394.5,251.5C 394.753,245.349 396.086,239.682 398.5,234.5 Z"/></g>
<g><path style="opacity:1" fill="#df6662" d="M 250.5,241.5 C 251.01,244.388 250.344,246.721 248.5,248.5C 248.927,245.99 249.593,243.657 250.5,241.5 Z"/></g>
<g><path style="opacity:1" fill="#f0b9b7" d="M 115.5,248.5 C 117.727,250.229 118.727,252.562 118.5,255.5C 117.256,253.337 116.256,251.003 115.5,248.5 Z"/></g>
<g><path style="opacity:1" fill="#eba19f" d="M 340.5,245.5 C 339.94,247.801 339.44,250.134 339,252.5C 338.617,253.056 338.117,253.389 337.5,253.5C 338.06,251.199 338.56,248.866 339,246.5C 339.383,245.944 339.883,245.611 340.5,245.5 Z"/></g>
<g><path style="opacity:1" fill="#eaa5a3" d="M 164.5,250.5 C 165.5,250.833 166.167,251.5 166.5,252.5C 166.5,252.833 166.5,253.167 166.5,253.5C 165.094,253.027 164.427,252.027 164.5,250.5 Z"/></g>
<g><path style="opacity:1" fill="#efbab9" d="M 394.5,251.5 C 393.85,253.435 393.517,255.435 393.5,257.5C 393.167,257.5 392.833,257.5 392.5,257.5C 392.054,254.99 392.72,252.99 394.5,251.5 Z"/></g>
<g><path style="opacity:1" fill="#eaa4a2" d="M 197.5,250.5 C 197.073,253.01 196.407,255.343 195.5,257.5C 195.338,255.473 195.505,253.473 196,251.5C 196.383,250.944 196.883,250.611 197.5,250.5 Z"/></g>
<g><path style="opacity:1" fill="#dc5651" d="M 248.5,248.5 C 249.007,253.316 248.007,257.65 245.5,261.5C 245.517,259.435 245.85,257.435 246.5,255.5C 246.927,252.99 247.593,250.657 248.5,248.5 Z"/></g>
<g><path style="opacity:1" fill="#e48482" d="M 336.5,256.5 C 335.492,258.544 334.492,260.544 333.5,262.5C 333.025,259.687 334.025,257.687 336.5,256.5 Z"/></g>
<g><path style="opacity:1" fill="#ebabaa" d="M 392.5,257.5 C 392.771,259.38 392.104,260.713 390.5,261.5C 390.66,259.847 391.326,258.514 392.5,257.5 Z"/></g>
<g><path style="opacity:1" fill="#dc5a54" d="M 392.5,257.5 C 392.833,257.5 393.167,257.5 393.5,257.5C 392.548,262.724 390.548,267.391 387.5,271.5C 388.11,270.609 388.443,269.609 388.5,268.5C 389.167,266.167 389.833,263.833 390.5,261.5C 392.104,260.713 392.771,259.38 392.5,257.5 Z"/></g>
<g><path style="opacity:1" fill="#df6c69" d="M 194.5,260.5 C 193.85,262.435 193.517,264.435 193.5,266.5C 193.672,267.492 193.338,268.158 192.5,268.5C 192.337,266.143 192.503,263.81 193,261.5C 193.383,260.944 193.883,260.611 194.5,260.5 Z"/></g>
<g><path style="opacity:1" fill="#e8928f" d="M 246.5,255.5 C 245.85,257.435 245.517,259.435 245.5,261.5C 245.5,266.167 245.5,270.833 245.5,275.5C 245.167,275.5 244.833,275.5 244.5,275.5C 243.874,268.416 244.541,261.75 246.5,255.5 Z"/></g>
<g><path style="opacity:1" fill="#f6d9d9" d="M 166.5,253.5 C 167.736,257.701 167.736,262.035 166.5,266.5C 165.833,268.167 165.167,269.833 164.5,271.5C 165.426,265.535 166.092,259.535 166.5,253.5 Z"/></g>
<g><path style="opacity:1" fill="#e27977" d="M 124.5,264.5 C 126.262,265.262 127.262,266.596 127.5,268.5C 125.738,267.738 124.738,266.404 124.5,264.5 Z"/></g>
<g><path style="opacity:1" fill="#e16e6a" d="M 166.5,253.5 C 166.5,253.167 166.5,252.833 166.5,252.5C 167.805,254.397 168.471,256.731 168.5,259.5C 168.471,262.269 167.805,264.603 166.5,266.5C 167.736,262.035 167.736,257.701 166.5,253.5 Z"/></g>
<g><path style="opacity:1" fill="#efbebd" d="M 195.5,258.5 C 195.889,261.553 195.223,264.22 193.5,266.5C 193.517,264.435 193.85,262.435 194.5,260.5C 194.328,259.508 194.662,258.842 195.5,258.5 Z"/></g>
<g><path style="opacity:1" fill="#ecaba9" d="M 333.5,262.5 C 332.821,265.707 331.654,268.707 330,271.5C 329.292,272.381 328.458,273.047 327.5,273.5C 328.759,269.353 330.759,265.686 333.5,262.5 Z"/></g>
<g><path style="opacity:1" fill="#e0706c" d="M 127.5,268.5 C 129.5,269.833 131.167,271.5 132.5,273.5C 129.833,272.833 128.167,271.167 127.5,268.5 Z"/></g>
<g><path style="opacity:1" fill="#eba6a5" d="M 132.5,273.5 C 134.027,273.427 135.027,274.094 135.5,275.5C 133.973,275.573 132.973,274.906 132.5,273.5 Z"/></g>
<g><path style="opacity:1" fill="#dc5954" d="M 166.5,266.5 C 167.007,271.316 166.007,275.65 163.5,279.5C 163.517,277.435 163.85,275.435 164.5,273.5C 164.5,272.833 164.5,272.167 164.5,271.5C 165.167,269.833 165.833,268.167 166.5,266.5 Z"/></g>
<g><path style="opacity:1" fill="#edb2b0" d="M 327.5,273.5 C 326.567,276.37 324.9,278.704 322.5,280.5C 323.433,277.63 325.1,275.296 327.5,273.5 Z"/></g>
<g><path style="opacity:1" fill="#efbbb9" d="M 164.5,273.5 C 163.85,275.435 163.517,277.435 163.5,279.5C 163.5,279.833 163.5,280.167 163.5,280.5C 163.167,280.5 162.833,280.5 162.5,280.5C 162.338,278.473 162.505,276.473 163,274.5C 163.383,273.944 163.883,273.611 164.5,273.5 Z"/></g>
<g><path style="opacity:1" fill="#dc5752" d="M 192.5,269.5 C 191.85,271.435 191.517,273.435 191.5,275.5C 190.833,277.167 190.167,278.833 189.5,280.5C 189.18,277.102 189.513,273.768 190.5,270.5C 191.183,270.137 191.85,269.804 192.5,269.5 Z"/></g>
<g><path style="opacity:1" fill="#e89896" d="M 388.5,268.5 C 388.443,269.609 388.11,270.609 387.5,271.5C 386.896,274.218 385.563,276.551 383.5,278.5C 384.509,275.951 385.342,273.285 386,270.5C 386.708,269.619 387.542,268.953 388.5,268.5 Z"/></g>
<g><path style="opacity:1" fill="#eeafae" d="M 136.5,276.5 C 138.404,276.738 139.738,277.738 140.5,279.5C 138.596,279.262 137.262,278.262 136.5,276.5 Z"/></g>
<g><path style="opacity:1" fill="#edacaa" d="M 244.5,275.5 C 244.833,275.5 245.167,275.5 245.5,275.5C 246.461,278.426 247.127,281.426 247.5,284.5C 245.132,282.044 244.132,279.044 244.5,275.5 Z"/></g>
<g><path style="opacity:1" fill="#edb1af" d="M 140.5,279.5 C 142.027,279.427 143.027,280.094 143.5,281.5C 141.973,281.573 140.973,280.906 140.5,279.5 Z"/></g>
<g><path style="opacity:1" fill="#e6908d" d="M 383.5,278.5 C 383.573,280.027 382.906,281.027 381.5,281.5C 381.427,279.973 382.094,278.973 383.5,278.5 Z"/></g>
<g><path style="opacity:1" fill="#e27c79" d="M 162.5,280.5 C 162.833,280.5 163.167,280.5 163.5,280.5C 163.5,281.833 162.833,282.5 161.5,282.5C 161.328,281.508 161.662,280.842 162.5,280.5 Z"/></g>
<g><path style="opacity:1" fill="#e79896" d="M 161.5,282.5 C 161.5,284.5 160.5,285.5 158.5,285.5C 159.167,284.167 160.167,283.167 161.5,282.5 Z"/></g>
<g><path style="opacity:1" fill="#edaaa8" d="M 144.5,281.5 C 147.09,282.128 149.423,283.295 151.5,285C 153.81,285.497 156.143,285.663 158.5,285.5C 152.906,287.546 148.24,286.213 144.5,281.5 Z"/></g>
<g><path style="opacity:1" fill="#ecadac" d="M 247.5,284.5 C 248.906,284.973 249.573,285.973 249.5,287.5C 248.094,287.027 247.427,286.027 247.5,284.5 Z"/></g>
<g><path style="opacity:1" fill="#ea9693" d="M 381.5,283.5 C 380.488,284.872 379.488,286.205 378.5,287.5C 378.088,285.027 379.088,283.694 381.5,283.5 Z"/></g>
<g><path style="opacity:1" fill="#d3231d" d="M 260.5,296.5 C 259.609,295.89 258.609,295.557 257.5,295.5C 255.833,293.167 253.833,291.167 251.5,289.5C 251.167,288.833 250.833,288.167 250.5,287.5C 250.369,286.624 250.702,285.957 251.5,285.5C 254.832,289.163 258.498,292.496 262.5,295.5C 262.043,296.298 261.376,296.631 260.5,296.5 Z"/></g>
<g><path style="opacity:1" fill="#f1b9b8" d="M 318.5,284.5 C 318.001,287.264 316.335,288.931 313.5,289.5C 314.833,287.5 316.5,285.833 318.5,284.5 Z"/></g>
<g><path style="opacity:1" fill="#e68f8c" d="M 251.5,289.5 C 253.833,291.167 255.833,293.167 257.5,295.5C 254.5,294.5 252.5,292.5 251.5,289.5 Z"/></g>
<g><path style="opacity:1" fill="#e7908e" d="M 188.5,288.5 C 187.833,291.5 187.167,294.5 186.5,297.5C 186.737,298.791 186.404,299.791 185.5,300.5C 185.335,297.482 185.502,294.482 186,291.5C 186.377,290.058 187.21,289.058 188.5,288.5 Z"/></g>
<g><path style="opacity:1" fill="#f5d8d7" d="M 191.5,275.5 C 190.392,281.416 189.558,287.416 189,293.5C 188.066,294.858 187.232,296.192 186.5,297.5C 187.167,294.5 187.833,291.5 188.5,288.5C 188.401,285.763 188.735,283.096 189.5,280.5C 190.167,278.833 190.833,277.167 191.5,275.5 Z"/></g>
<g><path style="opacity:1" fill="#f2c0be" d="M 313.5,289.5 C 312.303,293.354 309.636,295.354 305.5,295.5C 307.896,293.232 310.562,291.232 313.5,289.5 Z"/></g>
<g><path style="opacity:1" fill="#df6b67" d="M 377.5,289.5 C 376.864,291.795 375.531,293.461 373.5,294.5C 374.124,292.246 375.457,290.579 377.5,289.5 Z"/></g>
<g><path style="opacity:1" fill="#e6837f" d="M 257.5,295.5 C 258.609,295.557 259.609,295.89 260.5,296.5C 261.167,297.167 261.833,297.833 262.5,298.5C 260.067,298.727 258.401,297.727 257.5,295.5 Z"/></g>
<g><path style="opacity:1" fill="#f3c8c8" d="M 305.5,295.5 C 304.656,297.759 302.989,298.759 300.5,298.5C 301.899,297.11 303.566,296.11 305.5,295.5 Z"/></g>
<g><path style="opacity:1" fill="#e68b88" d="M 262.5,298.5 C 265.157,298.935 267.491,299.935 269.5,301.5C 266.654,301.448 264.32,300.448 262.5,298.5 Z"/></g>
<g><path style="opacity:1" fill="#efbab9" d="M 300.5,298.5 C 299.713,300.104 298.38,300.771 296.5,300.5C 296.5,300.167 296.5,299.833 296.5,299.5C 297.833,299.167 299.167,298.833 300.5,298.5 Z"/></g>
<g><path style="opacity:1" fill="#d21c17" d="M 289.5,301.5 C 283.463,301.829 277.463,301.496 271.5,300.5C 274.5,300.167 277.5,299.833 280.5,299.5C 283.913,299.517 286.913,300.184 289.5,301.5 Z"/></g>
<g><path style="opacity:1" fill="#df706d" d="M 296.5,299.5 C 296.5,299.833 296.5,300.167 296.5,300.5C 295.833,300.5 295.167,300.5 294.5,300.5C 293.167,300.833 291.833,301.167 290.5,301.5C 291.99,299.72 293.99,299.054 296.5,299.5 Z"/></g>
<g><path style="opacity:1" fill="#f4d2d1" d="M 294.5,300.5 C 294.5,301.5 294.5,302.5 294.5,303.5C 287.313,303.825 280.313,303.491 273.5,302.5C 279.026,302.821 284.36,302.488 289.5,301.5C 289.833,301.5 290.167,301.5 290.5,301.5C 291.833,301.167 293.167,300.833 294.5,300.5 Z"/></g>
<g><path style="opacity:1" fill="#e37c79" d="M 368.5,300.5 C 364.57,307.432 359.236,313.099 352.5,317.5C 357.812,311.854 363.145,306.187 368.5,300.5 Z"/></g>
<g><path style="opacity:1" fill="#eba09e" d="M 185.5,300.5 C 185.01,303.655 184.344,306.655 183.5,309.5C 182.945,305.988 183.612,302.988 185.5,300.5 Z"/></g>
<g><path style="opacity:1" fill="#f0bebd" d="M 232.5,316.5 C 230.821,316.285 229.821,316.952 229.5,318.5C 229.5,319.5 229.5,320.5 229.5,321.5C 229.167,321.5 228.833,321.5 228.5,321.5C 228.5,319.5 228.5,317.5 228.5,315.5C 230.099,315.232 231.432,315.566 232.5,316.5 Z"/></g>
<g><path style="opacity:1" fill="#df7674" d="M 232.5,316.5 C 233.167,316.5 233.5,316.833 233.5,317.5C 232.041,317.433 230.708,317.766 229.5,318.5C 229.821,316.952 230.821,316.285 232.5,316.5 Z"/></g>
<g><path style="opacity:1" fill="#eca4a2" d="M 351.5,317.5 C 351.167,318.5 350.5,319.167 349.5,319.5C 349.5,318.167 350.167,317.5 351.5,317.5 Z"/></g>
<g><path style="opacity:1" fill="#eca4a2" d="M 234.5,319.5 C 235.833,319.5 236.5,320.167 236.5,321.5C 235.5,321.167 234.833,320.5 234.5,319.5 Z"/></g>
<g><path style="opacity:1" fill="#edb1af" d="M 349.5,319.5 C 348.71,320.401 347.71,321.068 346.5,321.5C 346.821,319.952 347.821,319.285 349.5,319.5 Z"/></g>
<g><path style="opacity:1" fill="#edaca9" d="M 236.5,321.5 C 238.5,321.5 239.5,322.5 239.5,324.5C 238.167,323.833 237.167,322.833 236.5,321.5 Z"/></g>
<g><path style="opacity:1" fill="#e48380" d="M 346.5,321.5 C 345.738,323.262 344.404,324.262 342.5,324.5C 343.262,322.738 344.596,321.738 346.5,321.5 Z"/></g>
<g><path style="opacity:1" fill="#e37a76" d="M 342.5,324.5 C 340.822,326.852 338.489,328.186 335.5,328.5C 337.454,326.73 339.787,325.397 342.5,324.5 Z"/></g>
<g><path style="opacity:1" fill="#edb1b0" d="M 243.5,327.5 C 245.027,327.427 246.027,328.094 246.5,329.5C 244.973,329.573 243.973,328.906 243.5,327.5 Z"/></g>
<g><path style="opacity:1" fill="#efbab9" d="M 335.5,328.5 C 334.329,329.345 332.995,330.011 331.5,330.5C 332.183,328.824 333.517,328.157 335.5,328.5 Z"/></g>
<g><path style="opacity:1" fill="#f4cecd" d="M 182.5,309.5 C 182.873,317.375 181.873,325.042 179.5,332.5C 178.818,333.243 178.151,333.909 177.5,334.5C 177.517,332.435 177.85,330.435 178.5,328.5C 180.551,322.264 181.885,315.931 182.5,309.5 Z"/></g>
<g><path style="opacity:1" fill="#df6c69" d="M 178.5,328.5 C 177.85,330.435 177.517,332.435 177.5,334.5C 177.5,334.833 177.5,335.167 177.5,335.5C 177.167,335.5 176.833,335.5 176.5,335.5C 175.99,332.612 176.656,330.279 178.5,328.5 Z"/></g>
<g><path style="opacity:1" fill="#f0bbba" d="M 246.5,329.5 C 249.331,330.079 251.664,331.412 253.5,333.5C 250.454,333.275 248.121,331.942 246.5,329.5 Z"/></g>
<g><path style="opacity:1" fill="#e27976" d="M 228.5,321.5 C 228.833,321.5 229.167,321.5 229.5,321.5C 228.654,326.523 227.321,331.19 225.5,335.5C 225.5,334.5 225.5,333.5 225.5,332.5C 226.223,328.861 227.223,325.194 228.5,321.5 Z"/></g>
<g><path style="opacity:1" fill="#eca6a4" d="M 328.5,331.5 C 328.047,332.458 327.381,333.292 326.5,334C 324.134,334.44 321.801,334.94 319.5,335.5C 322.209,333.847 325.209,332.514 328.5,331.5 Z"/></g>
<g><path style="opacity:1" fill="#f4cfce" d="M 225.5,332.5 C 225.5,333.5 225.5,334.5 225.5,335.5C 224.755,338.39 224.088,341.39 223.5,344.5C 223.167,344.5 222.833,344.5 222.5,344.5C 222.71,340.072 223.71,336.072 225.5,332.5 Z"/></g>
<g><path style="opacity:1" fill="#edaba9" d="M 253.5,333.5 C 257.61,334.613 261.61,335.946 265.5,337.5C 265.5,337.833 265.5,338.167 265.5,338.5C 260.931,337.983 256.931,336.317 253.5,333.5 Z"/></g>
<g><path style="opacity:1" fill="#e68e8b" d="M 319.5,335.5 C 316.855,337.31 313.855,338.31 310.5,338.5C 312.956,336.132 315.956,335.132 319.5,335.5 Z"/></g>
<g><path style="opacity:1" fill="#f8e3e3" d="M 265.5,338.5 C 265.5,338.167 265.5,337.833 265.5,337.5C 275.76,339.029 286.094,339.696 296.5,339.5C 296.5,339.833 296.5,340.167 296.5,340.5C 286.697,341.024 277.03,340.357 267.5,338.5C 266.833,338.5 266.167,338.5 265.5,338.5 Z"/></g>
<g><path style="opacity:1" fill="#ebaead" d="M 305.5,338.5 C 305.5,338.833 305.5,339.167 305.5,339.5C 302.57,340.299 299.57,340.632 296.5,340.5C 296.5,340.167 296.5,339.833 296.5,339.5C 299.518,339.296 302.518,338.963 305.5,338.5 Z"/></g>
<g><path style="opacity:1" fill="#e1706d" d="M 267.5,338.5 C 277.03,340.357 286.697,341.024 296.5,340.5C 299.57,340.632 302.57,340.299 305.5,339.5C 304.448,341.256 302.781,341.923 300.5,341.5C 289.833,341.5 279.167,341.5 268.5,341.5C 268.443,340.391 268.11,339.391 267.5,338.5 Z"/></g>
<g><path style="opacity:1" fill="#f2cac9" d="M 176.5,335.5 C 176.833,335.5 177.167,335.5 177.5,335.5C 177.889,338.553 177.223,341.22 175.5,343.5C 175.517,341.435 175.85,339.435 176.5,337.5C 176.5,336.833 176.5,336.167 176.5,335.5 Z"/></g>
<g><path style="opacity:1" fill="#d32621" d="M 268.5,341.5 C 279.167,341.5 289.833,341.5 300.5,341.5C 301.263,342.268 302.263,342.768 303.5,343C 297.667,343.167 291.833,343.333 286,343.5C 279.793,343.496 273.96,342.829 268.5,341.5 Z"/></g>
<g><path style="opacity:1" fill="#e4817e" d="M 176.5,337.5 C 175.85,339.435 175.517,341.435 175.5,343.5C 175.5,343.833 175.5,344.167 175.5,344.5C 175.167,344.5 174.833,344.5 174.5,344.5C 174.338,342.473 174.505,340.473 175,338.5C 175.383,337.944 175.883,337.611 176.5,337.5 Z"/></g>
<g><path style="opacity:1" fill="#dd5e5a" d="M 225.5,335.5 C 226.055,339.012 225.388,342.012 223.5,344.5C 224.088,341.39 224.755,338.39 225.5,335.5 Z"/></g>
<g><path style="opacity:1" fill="#edb2b1" d="M 174.5,344.5 C 174.833,344.5 175.167,344.5 175.5,344.5C 174.659,349.739 173.326,354.739 171.5,359.5C 171.5,358.833 171.5,358.167 171.5,357.5C 172.043,352.994 173.043,348.661 174.5,344.5 Z"/></g>
<g><path style="opacity:1" fill="#f1c2c1" d="M 222.5,344.5 C 222.586,348.319 221.919,351.985 220.5,355.5C 220.167,355.5 219.833,355.5 219.5,355.5C 220.074,351.643 221.074,347.976 222.5,344.5 Z"/></g>
<g><path style="opacity:1" fill="#dd615e" d="M 171.5,357.5 C 171.5,358.167 171.5,358.833 171.5,359.5C 170.833,361.167 170.167,362.833 169.5,364.5C 169.5,362.833 169.5,361.167 169.5,359.5C 169.5,358.167 170.167,357.5 171.5,357.5 Z"/></g>
<g><path style="opacity:1" fill="#e17773" d="M 219.5,355.5 C 219.833,355.5 220.167,355.5 220.5,355.5C 221.01,358.388 220.344,360.721 218.5,362.5C 218.993,360.194 219.326,357.861 219.5,355.5 Z"/></g>
<g><path style="opacity:1" fill="#e4817e" d="M 218.5,362.5 C 219.055,366.706 218.055,370.373 215.5,373.5C 216.267,369.673 217.267,366.006 218.5,362.5 Z"/></g>
<g><path style="opacity:1" fill="#df6966" d="M 169.5,366.5 C 169.01,369.655 168.344,372.655 167.5,375.5C 167.336,372.813 167.503,370.146 168,367.5C 168.383,366.944 168.883,366.611 169.5,366.5 Z"/></g>
<g><path style="opacity:1" fill="#efb7b6" d="M 171.5,359.5 C 171.51,365.285 170.677,370.951 169,376.5C 168.5,394.497 168.333,412.497 168.5,430.5C 166.546,414.345 166.213,398.011 167.5,381.5C 167.5,379.5 167.5,377.5 167.5,375.5C 168.344,372.655 169.01,369.655 169.5,366.5C 169.5,365.833 169.5,365.167 169.5,364.5C 170.167,362.833 170.833,361.167 171.5,359.5 Z"/></g>
<g><path style="opacity:1" fill="#edb8b6" d="M 210.5,387.5 C 210.771,389.38 210.104,390.713 208.5,391.5C 208.66,389.847 209.326,388.514 210.5,387.5 Z"/></g>
<g><path style="opacity:1" fill="#dd5d58" d="M 210.5,387.5 C 210.833,387.5 211.167,387.5 211.5,387.5C 211.818,390.481 210.818,392.815 208.5,394.5C 208.5,393.5 208.5,392.5 208.5,391.5C 210.104,390.713 210.771,389.38 210.5,387.5 Z"/></g>
<g><path style="opacity:1" fill="#d42a27" d="M 169.5,359.5 C 169.5,361.167 169.5,362.833 169.5,364.5C 169.5,365.167 169.5,365.833 169.5,366.5C 168.883,366.611 168.383,366.944 168,367.5C 167.503,370.146 167.336,372.813 167.5,375.5C 167.5,377.5 167.5,379.5 167.5,381.5C 166.849,382.091 166.182,382.757 165.5,383.5C 164.667,395.486 164.167,407.486 164,419.5C 161.591,398.866 162.757,378.533 167.5,358.5C 168.183,358.863 168.85,359.196 169.5,359.5 Z"/></g>
<g><path style="opacity:1" fill="#eba3a1" d="M 205.5,399.5 C 205.186,402.489 203.852,404.822 201.5,406.5C 202.397,403.787 203.73,401.454 205.5,399.5 Z"/></g>
<g><path style="opacity:1" fill="#e68885" d="M 196.5,416.5 C 195.551,419.748 193.884,422.415 191.5,424.5C 192.449,421.252 194.116,418.585 196.5,416.5 Z"/></g>
<g><path style="opacity:1" fill="#dd5850" d="M 190.5,426.5 C 190.354,430.636 188.354,433.303 184.5,434.5C 185.754,431.25 187.754,428.583 190.5,426.5 Z"/></g>
<g><path style="opacity:1" fill="#e99a98" d="M 184.5,434.5 C 183.92,436.749 182.587,438.415 180.5,439.5C 181.08,437.251 182.413,435.585 184.5,434.5 Z"/></g>
<g><path style="opacity:1" fill="#eaa3a2" d="M 168.5,432.5 C 170.136,436.21 170.802,440.21 170.5,444.5C 169.011,440.764 168.344,436.764 168.5,432.5 Z"/></g>
<g><path style="opacity:1" fill="#eb9e9c" d="M 180.5,440.5 C 180.167,441.5 179.5,442.167 178.5,442.5C 178.5,441.167 179.167,440.5 180.5,440.5 Z"/></g>
<g><path style="opacity:1" fill="#ebacac" d="M 170.5,445.5 C 171.833,445.833 173.167,446.167 174.5,446.5C 172.872,447.853 171.538,447.519 170.5,445.5 Z"/></g>
</svg>
