<?xml version="1.0" encoding="UTF-8"?>
<!DOCTYPE svg PUBLIC "-//W3C//DTD SVG 1.1//EN" "http://www.w3.org/Graphics/SVG/1.1/DTD/svg11.dtd">
<svg xmlns="http://www.w3.org/2000/svg" version="1.1" width="512px" height="512px" style="shape-rendering:geometricPrecision; text-rendering:geometricPrecision; image-rendering:optimizeQuality; fill-rule:evenodd; clip-rule:evenodd" xmlns:xlink="http://www.w3.org/1999/xlink">
<g><path style="opacity:1" fill="#d63632" d="M -0.5,-0.5 C 170.167,-0.5 340.833,-0.5 511.5,-0.5C 511.5,106.5 511.5,213.5 511.5,320.5C 499.783,310.313 486.116,304.48 470.5,303C 437.517,301.453 404.517,301.119 371.5,302C 370.178,304.168 369.511,304.001 369.5,301.5C 370.11,300.609 370.443,299.609 370.5,298.5C 372.934,294.618 375.601,290.952 378.5,287.5C 379.488,286.205 380.488,284.872 381.5,283.5C 381.5,282.833 381.5,282.167 381.5,281.5C 382.906,281.027 383.573,280.027 383.5,278.5C 385.757,275.52 387.423,272.187 388.5,268.5C 391.768,261.362 394.434,254.028 396.5,246.5C 398.177,243.908 399.343,240.908 400,237.5C 400.498,234.518 400.665,231.518 400.5,228.5C 400.993,226.194 401.326,223.861 401.5,221.5C 402.244,217.881 402.577,214.215 402.5,210.5C 404.654,198.643 404.988,186.643 403.5,174.5C 405.317,186.459 406.151,198.793 406,211.5C 407.15,205.164 407.65,198.664 407.5,192C 407.706,179.155 406.039,166.655 402.5,154.5C 401.478,154.855 400.811,155.522 400.5,156.5C 398.476,153.659 396.809,150.659 395.5,147.5C 395.38,144.422 394.38,141.755 392.5,139.5C 389.352,131.703 385.019,124.703 379.5,118.5C 377.542,115.208 375.209,112.208 372.5,109.5C 366.729,104.23 361.062,98.7304 355.5,93C 350.939,89.8911 346.273,87.0578 341.5,84.5C 337.653,81.3864 333.32,79.053 328.5,77.5C 317.028,72.0732 305.028,68.4065 292.5,66.5C 289.167,65.8333 285.833,65.1667 282.5,64.5C 281.082,62.6921 279.082,62.0254 276.5,62.5C 276.918,61.7784 277.584,61.2784 278.5,61C 272.333,60.8333 266.167,60.6667 260,60.5C 253.462,60.5038 247.295,61.1704 241.5,62.5C 241.5,62.8333 241.5,63.1667 241.5,63.5C 236.5,64.8333 231.5,66.1667 226.5,67.5C 226.167,67.5 225.833,67.5 225.5,67.5C 221.206,66.8073 217.539,67.8073 214.5,70.5C 211.659,70.5597 208.993,71.2264 206.5,72.5C 204.102,72.2594 202.102,72.9261 200.5,74.5C 197.445,75.0362 194.445,75.8695 191.5,77C 190.619,77.7083 189.953,78.5416 189.5,79.5C 184.889,80.4722 180.889,82.4722 177.5,85.5C 175.517,85.1568 174.183,85.8235 173.5,87.5C 166.24,92.087 159.24,97.087 152.5,102.5C 149.167,105.167 146.167,108.167 143.5,111.5C 141.457,112.579 140.124,114.246 139.5,116.5C 137.11,117.891 135.443,119.891 134.5,122.5C 133.662,122.842 133.328,123.508 133.5,124.5C 130.41,126.268 128.41,128.935 127.5,132.5C 125.1,134.689 123.433,137.356 122.5,140.5C 122.5,140.833 122.5,141.167 122.5,141.5C 120.381,142.986 118.881,144.986 118,147.5C 116.179,152.138 114.679,156.804 113.5,161.5C 113.5,161.833 113.5,162.167 113.5,162.5C 110.908,164.036 109.908,166.369 110.5,169.5C 105.915,188.296 105.248,207.296 108.5,226.5C 108.024,230.378 109.024,233.712 111.5,236.5C 112.632,240.562 113.965,244.562 115.5,248.5C 116.256,251.003 117.256,253.337 118.5,255.5C 121.263,260.037 124.263,264.37 127.5,268.5C 128.167,271.167 129.833,272.833 132.5,273.5C 135.707,277.377 139.707,280.044 144.5,281.5C 148.24,286.213 152.906,287.546 158.5,285.5C 160.5,285.5 161.5,284.5 161.5,282.5C 163.323,279.984 164.323,276.984 164.5,273.5C 164.927,270.99 165.593,268.657 166.5,266.5C 167.805,264.603 168.471,262.269 168.5,259.5C 168.884,255.519 167.55,252.519 164.5,250.5C 163.5,249.167 162.5,247.833 161.5,246.5C 161.262,244.596 160.262,243.262 158.5,242.5C 158.443,241.391 158.11,240.391 157.5,239.5C 155.787,231.689 153.454,224.356 150.5,217.5C 150.466,205.77 151.133,194.103 152.5,182.5C 153.219,180.236 153.552,177.903 153.5,175.5C 155.293,173.574 156.293,171.241 156.5,168.5C 157.167,166.5 157.833,164.5 158.5,162.5C 160.942,160.879 162.275,158.546 162.5,155.5C 163.833,153.5 165.167,151.5 166.5,149.5C 168.522,147.469 170.189,145.135 171.5,142.5C 171.5,142.167 171.5,141.833 171.5,141.5C 174.243,139.761 176.243,137.427 177.5,134.5C 181.1,132.57 184.1,129.903 186.5,126.5C 187.795,125.512 189.128,124.512 190.5,123.5C 193.135,122.189 195.469,120.522 197.5,118.5C 198.167,117.833 198.833,117.167 199.5,116.5C 202.682,116.052 205.349,114.718 207.5,112.5C 211.853,111.938 215.853,110.605 219.5,108.5C 219.611,107.883 219.944,107.383 220.5,107C 223.168,106.433 225.834,105.933 228.5,105.5C 233.357,104.862 238.023,103.862 242.5,102.5C 253.864,102.257 265.198,102.59 276.5,103.5C 284.378,104.277 292.045,105.944 299.5,108.5C 300.514,109.674 301.847,110.34 303.5,110.5C 306.579,112.536 309.912,114.202 313.5,115.5C 316.404,117.055 319.07,119.055 321.5,121.5C 322.585,123.587 324.251,124.92 326.5,125.5C 329.844,129.54 333.177,133.54 336.5,137.5C 338.084,142.05 340.418,146.05 343.5,149.5C 343.287,152.451 343.954,155.118 345.5,157.5C 348.134,169.677 349.467,182.01 349.5,194.5C 347.922,199.583 347.255,204.916 347.5,210.5C 346.511,216.459 345.844,222.459 345.5,228.5C 345.5,228.833 345.5,229.167 345.5,229.5C 344.21,230.058 343.377,231.058 343,232.5C 342.586,236.351 341.752,240.017 340.5,243.5C 340.5,244.167 340.5,244.833 340.5,245.5C 339.883,245.611 339.383,245.944 339,246.5C 338.56,248.866 338.06,251.199 337.5,253.5C 336.596,254.209 336.263,255.209 336.5,256.5C 334.025,257.687 333.025,259.687 333.5,262.5C 330.759,265.686 328.759,269.353 327.5,273.5C 325.1,275.296 323.433,277.63 322.5,280.5C 320.833,281.5 319.5,282.833 318.5,284.5C 316.5,285.833 314.833,287.5 313.5,289.5C 310.562,291.232 307.896,293.232 305.5,295.5C 294.228,302.257 282.228,304.257 269.5,301.5C 267.491,299.935 265.157,298.935 262.5,298.5C 260.067,298.727 258.401,297.727 257.5,295.5C 255.833,293.167 253.833,291.167 251.5,289.5C 250.396,287.611 249.063,285.945 247.5,284.5C 245.298,274.924 244.965,265.257 246.5,255.5C 247.32,250.571 248.654,245.904 250.5,241.5C 252.117,238.811 253.117,235.811 253.5,232.5C 255.322,228.467 256.322,224.133 256.5,219.5C 258.568,216.955 259.901,213.955 260.5,210.5C 261.48,207.914 261.813,205.247 261.5,202.5C 262.117,202.389 262.617,202.056 263,201.5C 263.704,194.98 264.538,188.48 265.5,182C 265.306,174.788 263.306,168.288 259.5,162.5C 256.648,156.974 252.315,153.307 246.5,151.5C 246.082,150.778 245.416,150.278 244.5,150C 237.5,149.333 230.5,149.333 223.5,150C 221.404,150.737 219.737,151.903 218.5,153.5C 215.883,154.786 213.55,156.453 211.5,158.5C 207.783,159.92 205.45,162.587 204.5,166.5C 203.5,166.833 202.833,167.5 202.5,168.5C 199.875,171.698 198.209,175.365 197.5,179.5C 195.087,180.68 194.087,182.68 194.5,185.5C 194.5,185.833 194.5,186.167 194.5,186.5C 193.883,186.611 193.383,186.944 193,187.5C 192.502,190.482 192.335,193.482 192.5,196.5C 192.334,205.506 192.5,214.506 193,223.5C 194.916,226.898 195.916,230.565 196,234.5C 196.852,235.571 197.685,236.571 198.5,237.5C 198.821,238.817 199.154,240.151 199.5,241.5C 198.068,244.327 197.401,247.327 197.5,250.5C 196.883,250.611 196.383,250.944 196,251.5C 195.505,253.473 195.338,255.473 195.5,257.5C 194.89,258.391 194.557,259.391 194.5,260.5C 193.883,260.611 193.383,260.944 193,261.5C 192.503,263.81 192.337,266.143 192.5,268.5C 192.007,270.806 191.674,273.139 191.5,275.5C 189.678,279.533 188.678,283.867 188.5,288.5C 187.21,289.058 186.377,290.058 186,291.5C 185.502,294.482 185.335,297.482 185.5,300.5C 182.438,311.569 179.771,322.903 177.5,334.5C 176.89,335.391 176.557,336.391 176.5,337.5C 175.883,337.611 175.383,337.944 175,338.5C 173.424,345.35 172.258,352.35 171.5,359.5C 170.593,361.657 169.927,363.99 169.5,366.5C 168.883,366.611 168.383,366.944 168,367.5C 167.503,370.146 167.336,372.813 167.5,375.5C 167.5,380.5 167.5,385.5 167.5,390.5C 166.18,393.428 165.514,396.761 165.5,400.5C 165.521,407.378 166.188,414.045 167.5,420.5C 166.885,428.858 167.885,436.858 170.5,444.5C 170.722,447.076 172.055,447.91 174.5,447C 176.674,444.563 178.674,442.063 180.5,439.5C 182.587,438.415 183.92,436.749 184.5,434.5C 186.35,430.789 188.684,427.456 191.5,424.5C 193.884,422.415 195.551,419.748 196.5,416.5C 198.55,413.347 200.216,410.014 201.5,406.5C 203.852,404.822 205.186,402.489 205.5,399.5C 209.918,391.317 213.252,382.65 215.5,373.5C 218.055,370.373 219.055,366.706 218.5,362.5C 220.344,360.721 221.01,358.388 220.5,355.5C 221.919,351.985 222.586,348.319 222.5,344.5C 223.117,344.389 223.617,344.056 224,343.5C 224.183,340.635 224.683,337.969 225.5,335.5C 227.321,331.19 228.654,326.523 229.5,321.5C 229.5,319.833 229.5,318.167 229.5,316.5C 230.833,316.5 232.167,316.5 233.5,316.5C 233.263,317.791 233.596,318.791 234.5,319.5C 237.619,323.957 241.619,327.291 246.5,329.5C 248.121,331.942 250.454,333.275 253.5,333.5C 256.931,336.317 260.931,337.983 265.5,338.5C 266.167,338.5 266.833,338.5 267.5,338.5C 267.804,339.15 268.137,339.817 268.5,340.5C 276.807,341.498 285.14,341.831 293.5,341.5C 295.167,341.5 296.833,341.5 298.5,341.5C 298.5,342.167 298.5,342.833 298.5,343.5C 297.167,343.5 295.833,343.5 294.5,343.5C 290.197,342.796 286.697,344.13 284,347.5C 282.568,353.426 281.568,359.426 281,365.5C 280.333,403.167 280.333,440.833 281,478.5C 281.804,490.051 284.638,501.051 289.5,511.5C 192.833,511.5 96.1667,511.5 -0.5,511.5C -0.5,340.833 -0.5,170.167 -0.5,-0.5 Z"/></g>
<g><path style="opacity:1" fill="#d31f1b" d="M 276.5,62.5 C 264.833,62.5 253.167,62.5 241.5,62.5C 247.295,61.1704 253.462,60.5038 260,60.5C 266.167,60.6667 272.333,60.8333 278.5,61C 277.584,61.2784 276.918,61.7784 276.5,62.5 Z"/></g>
<g><path style="opacity:1" fill="#dd5f5c" d="M 241.5,63.5 C 241.5,63.1667 241.5,62.8333 241.5,62.5C 253.167,62.5 264.833,62.5 276.5,62.5C 279.082,62.0254 281.082,62.6921 282.5,64.5C 268.853,63.6379 255.186,63.3045 241.5,63.5 Z"/></g>
<g><path style="opacity:1" fill="#f1c4c3" d="M 241.5,63.5 C 255.186,63.3045 268.853,63.6379 282.5,64.5C 285.833,65.1667 289.167,65.8333 292.5,66.5C 281.773,66.6449 271.106,65.9782 260.5,64.5C 249.178,65.6769 237.845,66.6769 226.5,67.5C 231.5,66.1667 236.5,64.8333 241.5,63.5 Z"/></g>
<g><path style="opacity:1" fill="#fefdfd" d="M 292.5,66.5 C 305.028,68.4065 317.028,72.0732 328.5,77.5C 328.804,78.1499 329.137,78.8165 329.5,79.5C 333.544,81.1928 337.544,82.8595 341.5,84.5C 346.273,87.0578 350.939,89.8911 355.5,93C 361.062,98.7304 366.729,104.23 372.5,109.5C 373.487,113.507 375.82,116.507 379.5,118.5C 385.019,124.703 389.352,131.703 392.5,139.5C 392.62,142.578 393.62,145.245 395.5,147.5C 398.39,155.948 400.39,164.615 401.5,173.5C 402.232,182.815 402.566,192.148 402.5,201.5C 402.5,204.5 402.5,207.5 402.5,210.5C 402.577,214.215 402.244,217.881 401.5,221.5C 399.837,223.438 399.171,225.772 399.5,228.5C 398.502,234.496 397.502,240.496 396.5,246.5C 394.434,254.028 391.768,261.362 388.5,268.5C 387.542,268.953 386.708,269.619 386,270.5C 385.342,273.285 384.509,275.951 383.5,278.5C 382.094,278.973 381.427,279.973 381.5,281.5C 381.5,282.167 381.5,282.833 381.5,283.5C 379.088,283.694 378.088,285.027 378.5,287.5C 375.601,290.952 372.934,294.618 370.5,298.5C 365.195,304.14 359.861,309.807 354.5,315.5C 348.448,315.912 342.448,316.745 336.5,318C 333.641,319.26 330.974,320.76 328.5,322.5C 321.902,326.096 316.569,331.096 312.5,337.5C 303.611,337.924 294.777,338.59 286,339.5C 279.123,339.07 272.289,338.404 265.5,337.5C 261.61,335.946 257.61,334.613 253.5,333.5C 251.664,331.412 249.331,330.079 246.5,329.5C 241.619,327.291 237.619,323.957 234.5,319.5C 235.158,315.323 233.492,313.823 229.5,315C 228.577,317.041 228.244,319.208 228.5,321.5C 226.948,326.02 225.948,330.687 225.5,335.5C 224.683,337.969 224.183,340.635 224,343.5C 223.617,344.056 223.117,344.389 222.5,344.5C 221.074,347.976 220.074,351.643 219.5,355.5C 219.326,357.861 218.993,360.194 218.5,362.5C 217.267,366.006 216.267,369.673 215.5,373.5C 213.252,382.65 209.918,391.317 205.5,399.5C 203.73,401.454 202.397,403.787 201.5,406.5C 200.216,410.014 198.55,413.347 196.5,416.5C 194.116,418.585 192.449,421.252 191.5,424.5C 188.684,427.456 186.35,430.789 184.5,434.5C 182.413,435.585 181.08,437.251 180.5,439.5C 178.674,442.063 176.674,444.563 174.5,447C 172.055,447.91 170.722,447.076 170.5,444.5C 169.187,436.57 168.52,428.57 168.5,420.5C 168.333,405.83 168.5,391.163 169,376.5C 170.677,370.951 171.51,365.285 171.5,359.5C 174.364,352.543 176.031,345.21 176.5,337.5C 176.557,336.391 176.89,335.391 177.5,334.5C 178.151,333.909 178.818,333.243 179.5,332.5C 181.13,322.199 183.63,312.199 187,302.5C 188.825,293.596 190.325,284.596 191.5,275.5C 191.674,273.139 192.007,270.806 192.5,268.5C 193.371,265.997 194.037,263.33 194.5,260.5C 194.557,259.391 194.89,258.391 195.5,257.5C 196.407,255.343 197.073,253.01 197.5,250.5C 197.401,247.327 198.068,244.327 199.5,241.5C 199.154,240.151 198.821,238.817 198.5,237.5C 197.616,231.297 196.116,225.297 194,219.5C 193.5,211.841 193.334,204.174 193.5,196.5C 193.5,195.833 193.5,195.167 193.5,194.5C 194.79,193.942 195.623,192.942 196,191.5C 197.109,183.481 199.275,175.815 202.5,168.5C 202.833,167.5 203.5,166.833 204.5,166.5C 206.823,163.874 209.157,161.207 211.5,158.5C 213.55,156.453 215.883,154.786 218.5,153.5C 227.52,150.286 236.854,149.619 246.5,151.5C 252.315,153.307 256.648,156.974 259.5,162.5C 264.149,175.6 264.816,188.933 261.5,202.5C 259.467,207.952 257.8,213.619 256.5,219.5C 254.185,223.413 253.185,227.746 253.5,232.5C 252.351,232.791 251.684,233.624 251.5,235C 250.923,237.137 250.59,239.304 250.5,241.5C 248.654,245.904 247.32,250.571 246.5,255.5C 244.584,259.707 243.584,264.374 243.5,269.5C 243.953,273.173 244.453,276.84 245,280.5C 245.608,282.066 246.442,283.4 247.5,284.5C 249.063,285.945 250.396,287.611 251.5,289.5C 252.5,292.5 254.5,294.5 257.5,295.5C 258.401,297.727 260.067,298.727 262.5,298.5C 264.32,300.448 266.654,301.448 269.5,301.5C 282.228,304.257 294.228,302.257 305.5,295.5C 309.636,295.354 312.303,293.354 313.5,289.5C 316.335,288.931 318.001,287.264 318.5,284.5C 319.5,282.833 320.833,281.5 322.5,280.5C 324.9,278.704 326.567,276.37 327.5,273.5C 328.458,273.047 329.292,272.381 330,271.5C 331.654,268.707 332.821,265.707 333.5,262.5C 334.492,260.544 335.492,258.544 336.5,256.5C 336.263,255.209 336.596,254.209 337.5,253.5C 338.117,253.389 338.617,253.056 339,252.5C 339.44,250.134 339.94,247.801 340.5,245.5C 340.5,244.833 340.5,244.167 340.5,243.5C 342.905,239.241 344.572,234.574 345.5,229.5C 345.5,229.167 345.5,228.833 345.5,228.5C 348.223,222.997 349.223,216.997 348.5,210.5C 349.194,205.195 349.528,199.862 349.5,194.5C 350.656,187.011 350.822,179.345 350,171.5C 348.847,168.289 348.18,164.956 348,161.5C 347.066,160.142 346.232,158.808 345.5,157.5C 343.954,155.118 343.287,152.451 343.5,149.5C 341.966,145.839 340.299,142.172 338.5,138.5C 337.817,138.137 337.15,137.804 336.5,137.5C 333.177,133.54 329.844,129.54 326.5,125.5C 325.415,123.413 323.749,122.08 321.5,121.5C 319.07,119.055 316.404,117.055 313.5,115.5C 313.047,114.542 312.381,113.708 311.5,113C 309.073,111.409 306.407,110.575 303.5,110.5C 301.847,110.34 300.514,109.674 299.5,108.5C 296.887,106.344 293.887,104.844 290.5,104C 284.711,103.69 279.044,102.857 273.5,101.5C 262.986,101.172 252.653,101.506 242.5,102.5C 238.973,102.504 235.473,102.837 232,103.5C 230.319,103.608 229.152,104.275 228.5,105.5C 225.834,105.933 223.168,106.433 220.5,107C 219.944,107.383 219.611,107.883 219.5,108.5C 215.835,109.219 212.168,110.052 208.5,111C 207.944,111.383 207.611,111.883 207.5,112.5C 204.413,113.247 201.746,114.58 199.5,116.5C 198.833,117.167 198.167,117.833 197.5,118.5C 194.281,119.069 191.948,120.736 190.5,123.5C 189.128,124.512 187.795,125.512 186.5,126.5C 182.9,128.43 179.9,131.097 177.5,134.5C 174.757,136.239 172.757,138.573 171.5,141.5C 171.5,141.833 171.5,142.167 171.5,142.5C 168.736,143.948 167.069,146.281 166.5,149.5C 165.167,151.5 163.833,153.5 162.5,155.5C 160.801,157.566 159.468,159.9 158.5,162.5C 157.833,164.5 157.167,166.5 156.5,168.5C 154.182,170.185 153.182,172.519 153.5,175.5C 153.552,177.903 153.219,180.236 152.5,182.5C 151.596,183.209 151.263,184.209 151.5,185.5C 150.685,186.429 149.852,187.429 149,188.5C 148.333,198.5 148.333,208.5 149,218.5C 149.232,219.737 149.732,220.737 150.5,221.5C 151.712,227.927 154.046,233.927 157.5,239.5C 158.11,240.391 158.443,241.391 158.5,242.5C 158.738,244.404 159.738,245.738 161.5,246.5C 162.5,247.833 163.5,249.167 164.5,250.5C 166.407,252.869 167.407,255.702 167.5,259C 167.375,261.551 167.042,264.051 166.5,266.5C 165.593,268.657 164.927,270.99 164.5,273.5C 163.883,273.611 163.383,273.944 163,274.5C 162.605,277.207 162.105,279.873 161.5,282.5C 160.167,283.167 159.167,284.167 158.5,285.5C 156.143,285.663 153.81,285.497 151.5,285C 149.423,283.295 147.09,282.128 144.5,281.5C 139.707,280.044 135.707,277.377 132.5,273.5C 131.167,271.5 129.5,269.833 127.5,268.5C 124.263,264.37 121.263,260.037 118.5,255.5C 118.727,252.562 117.727,250.229 115.5,248.5C 113.965,244.562 112.632,240.562 111.5,236.5C 110.833,233.167 110.167,229.833 109.5,226.5C 108.188,217.235 107.521,207.901 107.5,198.5C 107.667,193.833 107.833,189.167 108,184.5C 109.394,179.611 110.561,174.611 111.5,169.5C 111.4,166.892 112.067,164.558 113.5,162.5C 113.5,162.167 113.5,161.833 113.5,161.5C 116.14,157.585 117.807,153.252 118.5,148.5C 119.5,148.5 120.5,148.5 121.5,148.5C 121.448,146.097 121.781,143.764 122.5,141.5C 122.5,141.167 122.5,140.833 122.5,140.5C 125.4,138.601 127.066,135.934 127.5,132.5C 130.015,130.236 132.015,127.569 133.5,124.5C 133.328,123.508 133.662,122.842 134.5,122.5C 136.86,121.135 138.527,119.135 139.5,116.5C 140.124,114.246 141.457,112.579 143.5,111.5C 147.5,109.5 150.5,106.5 152.5,102.5C 159.24,97.087 166.24,92.087 173.5,87.5C 174.995,87.0113 176.329,86.3446 177.5,85.5C 180.889,82.4722 184.889,80.4722 189.5,79.5C 193.545,78.5594 197.212,76.8927 200.5,74.5C 202.898,74.7406 204.898,74.0739 206.5,72.5C 208.993,71.2264 211.659,70.5597 214.5,70.5C 218.281,69.5615 221.947,68.5615 225.5,67.5C 225.833,67.5 226.167,67.5 226.5,67.5C 237.845,66.6769 249.178,65.6769 260.5,64.5C 271.106,65.9782 281.773,66.6449 292.5,66.5 Z"/></g>
<g><path style="opacity:1" fill="#ea9d9b" d="M 225.5,67.5 C 221.947,68.5615 218.281,69.5615 214.5,70.5C 217.539,67.8073 221.206,66.8073 225.5,67.5 Z"/></g>
<g><path style="opacity:1" fill="#ecb1b0" d="M 206.5,72.5 C 204.898,74.0739 202.898,74.7406 200.5,74.5C 202.102,72.9261 204.102,72.2594 206.5,72.5 Z"/></g>
<g><path style="opacity:1" fill="#eeb1af" d="M 200.5,74.5 C 197.212,76.8927 193.545,78.5594 189.5,79.5C 189.953,78.5416 190.619,77.7083 191.5,77C 194.445,75.8695 197.445,75.0362 200.5,74.5 Z"/></g>
<g><path style="opacity:1" fill="#f3c4c3" d="M 328.5,77.5 C 333.32,79.053 337.653,81.3864 341.5,84.5C 337.544,82.8595 333.544,81.1928 329.5,79.5C 329.137,78.8165 328.804,78.1499 328.5,77.5 Z"/></g>
<g><path style="opacity:1" fill="#ea9592" d="M 177.5,85.5 C 176.329,86.3446 174.995,87.0113 173.5,87.5C 174.183,85.8235 175.517,85.1568 177.5,85.5 Z"/></g>
<g><path style="opacity:1" fill="#e37472" d="M 242.5,102.5 C 252.653,101.506 262.986,101.172 273.5,101.5C 274.5,102.167 275.5,102.833 276.5,103.5C 265.198,102.59 253.864,102.257 242.5,102.5 Z"/></g>
<g><path style="opacity:1" fill="#e7918f" d="M 242.5,102.5 C 238.023,103.862 233.357,104.862 228.5,105.5C 229.152,104.275 230.319,103.608 232,103.5C 235.473,102.837 238.973,102.504 242.5,102.5 Z"/></g>
<g><path style="opacity:1" fill="#f1bfbe" d="M 273.5,101.5 C 279.044,102.857 284.711,103.69 290.5,104C 293.887,104.844 296.887,106.344 299.5,108.5C 292.045,105.944 284.378,104.277 276.5,103.5C 275.5,102.833 274.5,102.167 273.5,101.5 Z"/></g>
<g><path style="opacity:1" fill="#f2bcbb" d="M 152.5,102.5 C 150.5,106.5 147.5,109.5 143.5,111.5C 146.167,108.167 149.167,105.167 152.5,102.5 Z"/></g>
<g><path style="opacity:1" fill="#e06b65" d="M 219.5,108.5 C 215.853,110.605 211.853,111.938 207.5,112.5C 207.611,111.883 207.944,111.383 208.5,111C 212.168,110.052 215.835,109.219 219.5,108.5 Z"/></g>
<g><path style="opacity:1" fill="#eeb5b4" d="M 303.5,110.5 C 306.407,110.575 309.073,111.409 311.5,113C 312.381,113.708 313.047,114.542 313.5,115.5C 309.912,114.202 306.579,112.536 303.5,110.5 Z"/></g>
<g><path style="opacity:1" fill="#f2c0bf" d="M 372.5,109.5 C 375.209,112.208 377.542,115.208 379.5,118.5C 375.82,116.507 373.487,113.507 372.5,109.5 Z"/></g>
<g><path style="opacity:1" fill="#f0b8b6" d="M 207.5,112.5 C 205.349,114.718 202.682,116.052 199.5,116.5C 201.746,114.58 204.413,113.247 207.5,112.5 Z"/></g>
<g><path style="opacity:1" fill="#eeb8b7" d="M 139.5,116.5 C 138.527,119.135 136.86,121.135 134.5,122.5C 135.443,119.891 137.11,117.891 139.5,116.5 Z"/></g>
<g><path style="opacity:1" fill="#e58380" d="M 197.5,118.5 C 195.469,120.522 193.135,122.189 190.5,123.5C 191.948,120.736 194.281,119.069 197.5,118.5 Z"/></g>
<g><path style="opacity:1" fill="#eaa7a5" d="M 321.5,121.5 C 323.749,122.08 325.415,123.413 326.5,125.5C 324.251,124.92 322.585,123.587 321.5,121.5 Z"/></g>
<g><path style="opacity:1" fill="#edadab" d="M 133.5,124.5 C 132.015,127.569 130.015,130.236 127.5,132.5C 128.41,128.935 130.41,126.268 133.5,124.5 Z"/></g>
<g><path style="opacity:1" fill="#e37e7b" d="M 186.5,126.5 C 184.1,129.903 181.1,132.57 177.5,134.5C 179.9,131.097 182.9,128.43 186.5,126.5 Z"/></g>
<g><path style="opacity:1" fill="#f0b9b7" d="M 127.5,132.5 C 127.066,135.934 125.4,138.601 122.5,140.5C 123.433,137.356 125.1,134.689 127.5,132.5 Z"/></g>
<g><path style="opacity:1" fill="#e89a98" d="M 177.5,134.5 C 176.243,137.427 174.243,139.761 171.5,141.5C 172.757,138.573 174.757,136.239 177.5,134.5 Z"/></g>
<g><path style="opacity:1" fill="#f3c9c8" d="M 336.5,137.5 C 337.15,137.804 337.817,138.137 338.5,138.5C 340.299,142.172 341.966,145.839 343.5,149.5C 340.418,146.05 338.084,142.05 336.5,137.5 Z"/></g>
<g><path style="opacity:1" fill="#ecaaa9" d="M 392.5,139.5 C 394.38,141.755 395.38,144.422 395.5,147.5C 393.62,145.245 392.62,142.578 392.5,139.5 Z"/></g>
<g><path style="opacity:1" fill="#e37b78" d="M 171.5,142.5 C 170.189,145.135 168.522,147.469 166.5,149.5C 167.069,146.281 168.736,143.948 171.5,142.5 Z"/></g>
<g><path style="opacity:1" fill="#f1bcba" d="M 122.5,141.5 C 121.781,143.764 121.448,146.097 121.5,148.5C 120.5,148.5 119.5,148.5 118.5,148.5C 117.807,153.252 116.14,157.585 113.5,161.5C 114.679,156.804 116.179,152.138 118,147.5C 118.881,144.986 120.381,142.986 122.5,141.5 Z"/></g>
<g><path style="opacity:1" fill="#edaba9" d="M 246.5,151.5 C 236.854,149.619 227.52,150.286 218.5,153.5C 219.737,151.903 221.404,150.737 223.5,150C 230.5,149.333 237.5,149.333 244.5,150C 245.416,150.278 246.082,150.778 246.5,151.5 Z"/></g>
<g><path style="opacity:1" fill="#e99c9a" d="M 162.5,155.5 C 162.275,158.546 160.942,160.879 158.5,162.5C 159.468,159.9 160.801,157.566 162.5,155.5 Z"/></g>
<g><path style="opacity:1" fill="#ea9b98" d="M 211.5,158.5 C 209.157,161.207 206.823,163.874 204.5,166.5C 205.45,162.587 207.783,159.92 211.5,158.5 Z"/></g>
<g><path style="opacity:1" fill="#eca7a5" d="M 395.5,147.5 C 396.809,150.659 398.476,153.659 400.5,156.5C 401.466,162.112 402.132,167.779 402.5,173.5C 402.167,173.5 401.833,173.5 401.5,173.5C 400.39,164.615 398.39,155.948 395.5,147.5 Z"/></g>
<g><path style="opacity:1" fill="#e37a77" d="M 113.5,162.5 C 112.067,164.558 111.4,166.892 111.5,169.5C 111.167,169.5 110.833,169.5 110.5,169.5C 109.908,166.369 110.908,164.036 113.5,162.5 Z"/></g>
<g><path style="opacity:1" fill="#f0baba" d="M 156.5,168.5 C 156.293,171.241 155.293,173.574 153.5,175.5C 153.182,172.519 154.182,170.185 156.5,168.5 Z"/></g>
<g><path style="opacity:1" fill="#eca8a6" d="M 345.5,157.5 C 346.232,158.808 347.066,160.142 348,161.5C 348.18,164.956 348.847,168.289 350,171.5C 350.822,179.345 350.656,187.011 349.5,194.5C 349.467,182.01 348.134,169.677 345.5,157.5 Z"/></g>
<g><path style="opacity:1" fill="#ecabaa" d="M 259.5,162.5 C 263.306,168.288 265.306,174.788 265.5,182C 264.538,188.48 263.704,194.98 263,201.5C 262.617,202.056 262.117,202.389 261.5,202.5C 264.816,188.933 264.149,175.6 259.5,162.5 Z"/></g>
<g><path style="opacity:1" fill="#e27572" d="M 197.5,179.5 C 196.492,181.544 195.492,183.544 194.5,185.5C 194.087,182.68 195.087,180.68 197.5,179.5 Z"/></g>
<g><path style="opacity:1" fill="#f1d0cf" d="M 401.5,173.5 C 401.833,173.5 402.167,173.5 402.5,173.5C 403.735,182.981 403.735,192.314 402.5,201.5C 402.566,192.148 402.232,182.815 401.5,173.5 Z"/></g>
<g><path style="opacity:1" fill="#e48c8a" d="M 402.5,173.5 C 403.167,173.5 403.5,173.833 403.5,174.5C 404.988,186.643 404.654,198.643 402.5,210.5C 402.5,207.5 402.5,204.5 402.5,201.5C 403.735,192.314 403.735,182.981 402.5,173.5 Z"/></g>
<g><path style="opacity:1" fill="#f5d3d2" d="M 202.5,168.5 C 199.275,175.815 197.109,183.481 196,191.5C 195.623,192.942 194.79,193.942 193.5,194.5C 193.401,191.763 193.735,189.096 194.5,186.5C 194.5,186.167 194.5,185.833 194.5,185.5C 195.492,183.544 196.492,181.544 197.5,179.5C 198.209,175.365 199.875,171.698 202.5,168.5 Z"/></g>
<g><path style="opacity:1" fill="#d21b16" d="M 103.5,182.5 C 104.83,188.631 105.497,195.131 105.5,202C 105.333,208.5 105.167,215 105,221.5C 103.578,208.561 103.078,195.561 103.5,182.5 Z"/></g>
<g><path style="opacity:1" fill="#d32622" d="M 403.5,174.5 C 403.5,173.833 403.167,173.5 402.5,173.5C 402.132,167.779 401.466,162.112 400.5,156.5C 400.811,155.522 401.478,154.855 402.5,154.5C 406.039,166.655 407.706,179.155 407.5,192C 407.65,198.664 407.15,205.164 406,211.5C 406.151,198.793 405.317,186.459 403.5,174.5 Z"/></g>
<g><path style="opacity:1" fill="#eeb1b0" d="M 110.5,169.5 C 110.833,169.5 111.167,169.5 111.5,169.5C 110.561,174.611 109.394,179.611 108,184.5C 107.833,189.167 107.667,193.833 107.5,198.5C 107.521,207.901 108.188,217.235 109.5,226.5C 109.167,226.5 108.833,226.5 108.5,226.5C 105.248,207.296 105.915,188.296 110.5,169.5 Z"/></g>
<g><path style="opacity:1" fill="#e37976" d="M 194.5,186.5 C 193.735,189.096 193.401,191.763 193.5,194.5C 193.5,195.167 193.5,195.833 193.5,196.5C 193.167,196.5 192.833,196.5 192.5,196.5C 192.335,193.482 192.502,190.482 193,187.5C 193.383,186.944 193.883,186.611 194.5,186.5 Z"/></g>
<g><path style="opacity:1" fill="#f6d8d7" d="M 151.5,185.5 C 149.384,196.247 149.051,206.914 150.5,217.5C 150.5,218.833 150.5,220.167 150.5,221.5C 149.732,220.737 149.232,219.737 149,218.5C 148.333,208.5 148.333,198.5 149,188.5C 149.852,187.429 150.685,186.429 151.5,185.5 Z"/></g>
<g><path style="opacity:1" fill="#e16e6b" d="M 152.5,182.5 C 151.133,194.103 150.466,205.77 150.5,217.5C 149.051,206.914 149.384,196.247 151.5,185.5C 151.263,184.209 151.596,183.209 152.5,182.5 Z"/></g>
<g><path style="opacity:1" fill="#e99895" d="M 261.5,202.5 C 261.813,205.247 261.48,207.914 260.5,210.5C 259.901,213.955 258.568,216.955 256.5,219.5C 257.8,213.619 259.467,207.952 261.5,202.5 Z"/></g>
<g><path style="opacity:1" fill="#e2807e" d="M 349.5,194.5 C 349.528,199.862 349.194,205.195 348.5,210.5C 348.167,210.5 347.833,210.5 347.5,210.5C 347.255,204.916 347.922,199.583 349.5,194.5 Z"/></g>
<g><path style="opacity:1" fill="#f1c2c1" d="M 347.5,210.5 C 347.833,210.5 348.167,210.5 348.5,210.5C 349.223,216.997 348.223,222.997 345.5,228.5C 345.844,222.459 346.511,216.459 347.5,210.5 Z"/></g>
<g><path style="opacity:1" fill="#f2c6c5" d="M 192.5,196.5 C 192.833,196.5 193.167,196.5 193.5,196.5C 193.334,204.174 193.5,211.841 194,219.5C 196.116,225.297 197.616,231.297 198.5,237.5C 197.685,236.571 196.852,235.571 196,234.5C 195.916,230.565 194.916,226.898 193,223.5C 192.5,214.506 192.334,205.506 192.5,196.5 Z"/></g>
<g><path style="opacity:1" fill="#eebab9" d="M 401.5,221.5 C 401.326,223.861 400.993,226.194 400.5,228.5C 400.167,228.5 399.833,228.5 399.5,228.5C 399.171,225.772 399.837,223.438 401.5,221.5 Z"/></g>
<g><path style="opacity:1" fill="#efb3b1" d="M 256.5,219.5 C 256.322,224.133 255.322,228.467 253.5,232.5C 253.185,227.746 254.185,223.413 256.5,219.5 Z"/></g>
<g><path style="opacity:1" fill="#dd5b55" d="M 150.5,217.5 C 153.454,224.356 155.787,231.689 157.5,239.5C 154.046,233.927 151.712,227.927 150.5,221.5C 150.5,220.167 150.5,218.833 150.5,217.5 Z"/></g>
<g><path style="opacity:1" fill="#e68c89" d="M 108.5,226.5 C 108.833,226.5 109.167,226.5 109.5,226.5C 110.167,229.833 110.833,233.167 111.5,236.5C 109.024,233.712 108.024,230.378 108.5,226.5 Z"/></g>
<g><path style="opacity:1" fill="#e89593" d="M 253.5,232.5 C 253.117,235.811 252.117,238.811 250.5,241.5C 250.59,239.304 250.923,237.137 251.5,235C 251.684,233.624 252.351,232.791 253.5,232.5 Z"/></g>
<g><path style="opacity:1" fill="#e37b78" d="M 345.5,229.5 C 344.572,234.574 342.905,239.241 340.5,243.5C 341.752,240.017 342.586,236.351 343,232.5C 343.377,231.058 344.21,230.058 345.5,229.5 Z"/></g>
<g><path style="opacity:1" fill="#e06f6b" d="M 399.5,228.5 C 399.833,228.5 400.167,228.5 400.5,228.5C 400.665,231.518 400.498,234.518 400,237.5C 399.343,240.908 398.177,243.908 396.5,246.5C 397.502,240.496 398.502,234.496 399.5,228.5 Z"/></g>
<g><path style="opacity:1" fill="#ea9e9c" d="M 158.5,242.5 C 160.262,243.262 161.262,244.596 161.5,246.5C 159.738,245.738 158.738,244.404 158.5,242.5 Z"/></g>
<g><path style="opacity:1" fill="#f0b9b7" d="M 115.5,248.5 C 117.727,250.229 118.727,252.562 118.5,255.5C 117.256,253.337 116.256,251.003 115.5,248.5 Z"/></g>
<g><path style="opacity:1" fill="#eba19f" d="M 340.5,245.5 C 339.94,247.801 339.44,250.134 339,252.5C 338.617,253.056 338.117,253.389 337.5,253.5C 338.06,251.199 338.56,248.866 339,246.5C 339.383,245.944 339.883,245.611 340.5,245.5 Z"/></g>
<g><path style="opacity:1" fill="#eaa4a2" d="M 197.5,250.5 C 197.073,253.01 196.407,255.343 195.5,257.5C 195.338,255.473 195.505,253.473 196,251.5C 196.383,250.944 196.883,250.611 197.5,250.5 Z"/></g>
<g><path style="opacity:1" fill="#e48482" d="M 336.5,256.5 C 335.492,258.544 334.492,260.544 333.5,262.5C 333.025,259.687 334.025,257.687 336.5,256.5 Z"/></g>
<g><path style="opacity:1" fill="#df6c69" d="M 194.5,260.5 C 194.037,263.33 193.371,265.997 192.5,268.5C 192.337,266.143 192.503,263.81 193,261.5C 193.383,260.944 193.883,260.611 194.5,260.5 Z"/></g>
<g><path style="opacity:1" fill="#e16f6b" d="M 164.5,250.5 C 167.55,252.519 168.884,255.519 168.5,259.5C 168.471,262.269 167.805,264.603 166.5,266.5C 167.042,264.051 167.375,261.551 167.5,259C 167.407,255.702 166.407,252.869 164.5,250.5 Z"/></g>
<g><path style="opacity:1" fill="#e89592" d="M 246.5,255.5 C 244.965,265.257 245.298,274.924 247.5,284.5C 246.442,283.4 245.608,282.066 245,280.5C 244.453,276.84 243.953,273.173 243.5,269.5C 243.584,264.374 244.584,259.707 246.5,255.5 Z"/></g>
<g><path style="opacity:1" fill="#ecaba9" d="M 333.5,262.5 C 332.821,265.707 331.654,268.707 330,271.5C 329.292,272.381 328.458,273.047 327.5,273.5C 328.759,269.353 330.759,265.686 333.5,262.5 Z"/></g>
<g><path style="opacity:1" fill="#e0706c" d="M 127.5,268.5 C 129.5,269.833 131.167,271.5 132.5,273.5C 129.833,272.833 128.167,271.167 127.5,268.5 Z"/></g>
<g><path style="opacity:1" fill="#edb2b0" d="M 327.5,273.5 C 326.567,276.37 324.9,278.704 322.5,280.5C 323.433,277.63 325.1,275.296 327.5,273.5 Z"/></g>
<g><path style="opacity:1" fill="#edaba9" d="M 164.5,273.5 C 164.323,276.984 163.323,279.984 161.5,282.5C 162.105,279.873 162.605,277.207 163,274.5C 163.383,273.944 163.883,273.611 164.5,273.5 Z"/></g>
<g><path style="opacity:1" fill="#e89896" d="M 388.5,268.5 C 387.423,272.187 385.757,275.52 383.5,278.5C 384.509,275.951 385.342,273.285 386,270.5C 386.708,269.619 387.542,268.953 388.5,268.5 Z"/></g>
<g><path style="opacity:1" fill="#e6908d" d="M 383.5,278.5 C 383.573,280.027 382.906,281.027 381.5,281.5C 381.427,279.973 382.094,278.973 383.5,278.5 Z"/></g>
<g><path style="opacity:1" fill="#e79896" d="M 161.5,282.5 C 161.5,284.5 160.5,285.5 158.5,285.5C 159.167,284.167 160.167,283.167 161.5,282.5 Z"/></g>
<g><path style="opacity:1" fill="#edaaa8" d="M 144.5,281.5 C 147.09,282.128 149.423,283.295 151.5,285C 153.81,285.497 156.143,285.663 158.5,285.5C 152.906,287.546 148.24,286.213 144.5,281.5 Z"/></g>
<g><path style="opacity:1" fill="#ea9693" d="M 381.5,283.5 C 380.488,284.872 379.488,286.205 378.5,287.5C 378.088,285.027 379.088,283.694 381.5,283.5 Z"/></g>
<g><path style="opacity:1" fill="#f1b9b8" d="M 318.5,284.5 C 318.001,287.264 316.335,288.931 313.5,289.5C 314.833,287.5 316.5,285.833 318.5,284.5 Z"/></g>
<g><path style="opacity:1" fill="#e68f8c" d="M 251.5,289.5 C 253.833,291.167 255.833,293.167 257.5,295.5C 254.5,294.5 252.5,292.5 251.5,289.5 Z"/></g>
<g><path style="opacity:1" fill="#e7908e" d="M 188.5,288.5 C 187.314,292.503 186.314,296.503 185.5,300.5C 185.335,297.482 185.502,294.482 186,291.5C 186.377,290.058 187.21,289.058 188.5,288.5 Z"/></g>
<g><path style="opacity:1" fill="#f2c0be" d="M 313.5,289.5 C 312.303,293.354 309.636,295.354 305.5,295.5C 307.896,293.232 310.562,291.232 313.5,289.5 Z"/></g>
<g><path style="opacity:1" fill="#e68b88" d="M 262.5,298.5 C 265.157,298.935 267.491,299.935 269.5,301.5C 266.654,301.448 264.32,300.448 262.5,298.5 Z"/></g>
<g><path style="opacity:1" fill="#d8413f" d="M 369.5,301.5 C 369.511,304.001 370.178,304.168 371.5,302C 404.517,301.119 437.517,301.453 470.5,303C 486.116,304.48 499.783,310.313 511.5,320.5C 511.5,322.167 511.5,323.833 511.5,325.5C 507.132,323.971 503.799,321.138 501.5,317C 496.952,316.06 492.952,314.06 489.5,311C 482.744,308.315 475.744,306.649 468.5,306C 452,305.833 435.5,305.667 419,305.5C 401.948,305.514 385.114,306.181 368.5,307.5C 366.061,309.095 363.728,310.928 361.5,313C 360.563,313.692 359.897,313.525 359.5,312.5C 362.862,308.808 366.195,305.141 369.5,301.5 Z"/></g>
<g><path style="opacity:1" fill="#d94846" d="M 511.5,325.5 C 511.5,326.833 511.5,328.167 511.5,329.5C 500.99,319.077 488.323,312.577 473.5,310C 438.355,308.896 403.355,308.063 368.5,307.5C 385.114,306.181 401.948,305.514 419,305.5C 435.5,305.667 452,305.833 468.5,306C 475.744,306.649 482.744,308.315 489.5,311C 492.952,314.06 496.952,316.06 501.5,317C 503.799,321.138 507.132,323.971 511.5,325.5 Z"/></g>
<g><path style="opacity:1" fill="#e78e8c" d="M 370.5,298.5 C 370.443,299.609 370.11,300.609 369.5,301.5C 366.195,305.141 362.862,308.808 359.5,312.5C 358.5,312.833 357.833,313.5 357.5,314.5C 356.833,314.5 356.5,314.833 356.5,315.5C 355.833,315.5 355.167,315.5 354.5,315.5C 359.861,309.807 365.195,304.14 370.5,298.5 Z"/></g>
<g><path style="opacity:1" fill="#e86d74" d="M 356.5,315.5 C 356.5,314.833 356.833,314.5 357.5,314.5C 394.835,314.333 432.168,314.5 469.5,315C 471.833,315.333 474.167,315.667 476.5,316C 477.056,316.383 477.389,316.883 477.5,317.5C 472.851,316.935 468.184,316.435 463.5,316C 427.835,315.5 392.168,315.333 356.5,315.5 Z"/></g>
<g><path style="opacity:1" fill="#f2c4c4" d="M 234.5,319.5 C 233.596,318.791 233.263,317.791 233.5,316.5C 232.167,316.5 230.833,316.5 229.5,316.5C 229.5,318.167 229.5,319.833 229.5,321.5C 229.167,321.5 228.833,321.5 228.5,321.5C 228.244,319.208 228.577,317.041 229.5,315C 233.492,313.823 235.158,315.323 234.5,319.5 Z"/></g>
<g><path style="opacity:1" fill="#fb5a72" d="M 354.5,315.5 C 355.167,315.5 355.833,315.5 356.5,315.5C 392.168,315.333 427.835,315.5 463.5,316C 468.184,316.435 472.851,316.935 477.5,317.5C 478.919,318.451 480.585,318.784 482.5,318.5C 485.009,319.921 487.343,321.588 489.5,323.5C 487.173,323.247 485.173,323.914 483.5,325.5C 480.63,324.878 477.796,324.211 475,323.5C 467.183,324.012 459.183,324.345 451,324.5C 443.782,324.295 436.615,323.628 429.5,322.5C 415.379,323.744 401.213,324.41 387,324.5C 373.015,324.127 359.182,324.127 345.5,324.5C 339.89,322.523 334.223,321.857 328.5,322.5C 330.974,320.76 333.641,319.26 336.5,318C 342.448,316.745 348.448,315.912 354.5,315.5 Z"/></g>
<g><path style="opacity:1" fill="#dc5653" d="M 368.5,307.5 C 403.355,308.063 438.355,308.896 473.5,310C 488.323,312.577 500.99,319.077 511.5,329.5C 511.5,332.5 511.5,335.5 511.5,338.5C 503.953,328.575 494.286,321.909 482.5,318.5C 480.585,318.784 478.919,318.451 477.5,317.5C 477.389,316.883 477.056,316.383 476.5,316C 474.167,315.667 471.833,315.333 469.5,315C 432.168,314.5 394.835,314.333 357.5,314.5C 357.833,313.5 358.5,312.833 359.5,312.5C 359.897,313.525 360.563,313.692 361.5,313C 363.728,310.928 366.061,309.095 368.5,307.5 Z"/></g>
<g><path style="opacity:1" fill="#fa546d" d="M 328.5,322.5 C 334.223,321.857 339.89,322.523 345.5,324.5C 359.182,324.127 373.015,324.127 387,324.5C 401.213,324.41 415.379,323.744 429.5,322.5C 436.615,323.628 443.782,324.295 451,324.5C 459.183,324.345 467.183,324.012 475,323.5C 477.796,324.211 480.63,324.878 483.5,325.5C 485.173,323.914 487.173,323.247 489.5,323.5C 498.047,327.714 503.714,334.381 506.5,343.5C 505.883,343.389 505.383,343.056 505,342.5C 504.14,345.792 503.64,349.125 503.5,352.5C 504.5,352.5 505.5,352.5 506.5,352.5C 506.5,355.833 506.5,359.167 506.5,362.5C 505.5,362.5 504.5,362.5 503.5,362.5C 503.784,359.223 503.451,356.057 502.5,353C 488.833,352.333 475.167,352.333 461.5,353C 460.718,355.74 460.218,358.574 460,361.5C 458.93,355.445 458.597,349.445 459,343.5C 458.667,344.833 458.333,346.167 458,347.5C 457.013,343.233 456.179,342.9 455.5,346.5C 454.833,346.167 454.167,345.833 453.5,345.5C 452.726,344.853 451.726,344.52 450.5,344.5C 445.884,344.862 441.551,345.862 437.5,347.5C 436.5,347.5 435.5,347.5 434.5,347.5C 430.267,347.539 426.267,348.205 422.5,349.5C 411.898,351.769 401.232,353.935 390.5,356C 386.088,356.595 382.088,358.095 378.5,360.5C 377.909,359.849 377.243,359.182 376.5,358.5C 379.064,356.684 379.064,354.851 376.5,353C 373.183,352.502 369.85,352.335 366.5,352.5C 366.5,351.5 366.5,350.5 366.5,349.5C 363.5,349.5 360.5,349.5 357.5,349.5C 357.5,350.5 357.5,351.5 357.5,352.5C 343.421,353.138 329.588,352.472 316,350.5C 314.951,352.107 313.451,352.773 311.5,352.5C 311.649,351.448 311.483,350.448 311,349.5C 310.012,352.424 309.346,355.424 309,358.5C 308.617,359.056 308.117,359.389 307.5,359.5C 307.771,352.087 309.437,345.087 312.5,338.5C 312.5,338.167 312.5,337.833 312.5,337.5C 316.569,331.096 321.902,326.096 328.5,322.5 Z"/></g>
<g><path style="opacity:1" fill="#f5d4d3" d="M 191.5,275.5 C 190.325,284.596 188.825,293.596 187,302.5C 183.63,312.199 181.13,322.199 179.5,332.5C 178.818,333.243 178.151,333.909 177.5,334.5C 179.771,322.903 182.438,311.569 185.5,300.5C 186.314,296.503 187.314,292.503 188.5,288.5C 188.678,283.867 189.678,279.533 191.5,275.5 Z"/></g>
<g><path style="opacity:1" fill="#f0bbba" d="M 246.5,329.5 C 249.331,330.079 251.664,331.412 253.5,333.5C 250.454,333.275 248.121,331.942 246.5,329.5 Z"/></g>
<g><path style="opacity:1" fill="#e26b6b" d="M 482.5,318.5 C 494.286,321.909 503.953,328.575 511.5,338.5C 511.5,344.167 511.5,349.833 511.5,355.5C 510.662,355.842 510.328,356.508 510.5,357.5C 509.167,352.833 507.833,348.167 506.5,343.5C 503.714,334.381 498.047,327.714 489.5,323.5C 487.343,321.588 485.009,319.921 482.5,318.5 Z"/></g>
<g><path style="opacity:1" fill="#e27976" d="M 228.5,321.5 C 228.833,321.5 229.167,321.5 229.5,321.5C 228.654,326.523 227.321,331.19 225.5,335.5C 225.948,330.687 226.948,326.02 228.5,321.5 Z"/></g>
<g><path style="opacity:1" fill="#edaba9" d="M 253.5,333.5 C 257.61,334.613 261.61,335.946 265.5,337.5C 265.5,337.833 265.5,338.167 265.5,338.5C 260.931,337.983 256.931,336.317 253.5,333.5 Z"/></g>
<g><path style="opacity:1" fill="#f7dedd" d="M 265.5,338.5 C 265.5,338.167 265.5,337.833 265.5,337.5C 272.289,338.404 279.123,339.07 286,339.5C 294.777,338.59 303.611,337.924 312.5,337.5C 312.5,337.833 312.5,338.167 312.5,338.5C 310.585,338.216 308.919,338.549 307.5,339.5C 302.897,340.383 298.23,340.717 293.5,340.5C 284.693,341.003 276.026,340.336 267.5,338.5C 266.833,338.5 266.167,338.5 265.5,338.5 Z"/></g>
<g><path style="opacity:1" fill="#e58380" d="M 267.5,338.5 C 276.026,340.336 284.693,341.003 293.5,340.5C 293.5,340.833 293.5,341.167 293.5,341.5C 285.14,341.831 276.807,341.498 268.5,340.5C 268.137,339.817 267.804,339.15 267.5,338.5 Z"/></g>
<g><path style="opacity:1" fill="#d73c39" d="M 294.5,343.5 C 293.152,344.186 291.985,345.186 291,346.5C 289.194,352.056 287.861,357.722 287,363.5C 285,402.5 285,441.5 287,480.5C 288.187,491.904 292.021,502.237 298.5,511.5C 295.5,511.5 292.5,511.5 289.5,511.5C 284.638,501.051 281.804,490.051 281,478.5C 280.333,440.833 280.333,403.167 281,365.5C 281.568,359.426 282.568,353.426 284,347.5C 286.697,344.13 290.197,342.796 294.5,343.5 Z"/></g>
<g><path style="opacity:1" fill="#d94542" d="M 294.5,343.5 C 295.833,343.5 297.167,343.5 298.5,343.5C 293.45,353.071 290.95,363.404 291,374.5C 290.333,406.167 290.333,437.833 291,469.5C 291.009,485.026 295.509,499.026 304.5,511.5C 302.5,511.5 300.5,511.5 298.5,511.5C 292.021,502.237 288.187,491.904 287,480.5C 285,441.5 285,402.5 287,363.5C 287.861,357.722 289.194,352.056 291,346.5C 291.985,345.186 293.152,344.186 294.5,343.5 Z"/></g>
<g><path style="opacity:1" fill="#facfd2" d="M 453.5,345.5 C 448.153,346.073 442.82,346.74 437.5,347.5C 441.551,345.862 445.884,344.862 450.5,344.5C 451.726,344.52 452.726,344.853 453.5,345.5 Z"/></g>
<g><path style="opacity:1" fill="#fdf9f9" d="M 453.5,345.5 C 454.167,345.833 454.833,346.167 455.5,346.5C 456.492,354.316 456.826,362.316 456.5,370.5C 456.667,396.835 456.5,423.169 456,449.5C 454.738,451.784 453.572,454.118 452.5,456.5C 449.152,460.517 444.819,462.85 439.5,463.5C 434.13,463.608 428.797,463.275 423.5,462.5C 419.982,459.637 417.649,455.97 416.5,451.5C 415.992,442.163 420.325,436.33 429.5,434C 434.5,433 439.5,432 444.5,431C 446.141,429.871 447.141,428.371 447.5,426.5C 448.496,410.342 448.83,394.009 448.5,377.5C 444.958,377.187 441.625,377.521 438.5,378.5C 438.167,378.5 437.833,378.5 437.5,378.5C 431.884,378.656 426.551,379.656 421.5,381.5C 410.226,383.22 399.226,385.553 388.5,388.5C 387.883,388.611 387.383,388.944 387,389.5C 386.5,411.831 386.333,434.164 386.5,456.5C 386.664,459.187 386.497,461.854 386,464.5C 384.628,465.91 383.795,467.577 383.5,469.5C 375.175,477.162 365.508,479.329 354.5,476C 351.614,474.615 349.614,472.449 348.5,469.5C 347.728,465.548 347.395,461.548 347.5,457.5C 347.557,456.391 347.89,455.391 348.5,454.5C 351.003,452.167 353.669,450.001 356.5,448C 357.793,447.51 359.127,447.343 360.5,447.5C 362.898,447.741 364.898,447.074 366.5,445.5C 369.271,445.579 371.937,445.079 374.5,444C 376.426,443.578 377.426,442.411 377.5,440.5C 378.495,429.679 378.828,418.679 378.5,407.5C 378.5,391.833 378.5,376.167 378.5,360.5C 382.088,358.095 386.088,356.595 390.5,356C 401.232,353.935 411.898,351.769 422.5,349.5C 426.764,349.656 430.764,348.989 434.5,347.5C 435.5,347.5 436.5,347.5 437.5,347.5C 442.82,346.74 448.153,346.073 453.5,345.5 Z"/></g>
<g><path style="opacity:1" fill="#eca7a5" d="M 176.5,337.5 C 176.031,345.21 174.364,352.543 171.5,359.5C 172.258,352.35 173.424,345.35 175,338.5C 175.383,337.944 175.883,337.611 176.5,337.5 Z"/></g>
<g><path style="opacity:1" fill="#fc93a4" d="M 434.5,347.5 C 430.764,348.989 426.764,349.656 422.5,349.5C 426.267,348.205 430.267,347.539 434.5,347.5 Z"/></g>
<g><path style="opacity:1" fill="#fc4d67" d="M 378.5,360.5 C 378.5,376.167 378.5,391.833 378.5,407.5C 377.523,404.713 377.19,401.713 377.5,398.5C 377.5,392.5 377.5,386.5 377.5,380.5C 377.666,373.825 377.5,367.158 377,360.5C 376.698,366.533 376.198,372.533 375.5,378.5C 353.5,378.5 331.5,378.5 309.5,378.5C 309.802,375.941 309.468,373.607 308.5,371.5C 307.462,383.812 307.129,402.146 307.5,426.5C 307.5,439.167 307.5,451.833 307.5,464.5C 306.502,430.337 306.168,396.004 306.5,361.5C 307.338,361.158 307.672,360.492 307.5,359.5C 308.117,359.389 308.617,359.056 309,358.5C 309.346,355.424 310.012,352.424 311,349.5C 311.483,350.448 311.649,351.448 311.5,352.5C 313.451,352.773 314.951,352.107 316,350.5C 329.588,352.472 343.421,353.138 357.5,352.5C 357.5,351.5 357.5,350.5 357.5,349.5C 360.5,349.5 363.5,349.5 366.5,349.5C 366.5,350.5 366.5,351.5 366.5,352.5C 369.85,352.335 373.183,352.502 376.5,353C 379.064,354.851 379.064,356.684 376.5,358.5C 377.243,359.182 377.909,359.849 378.5,360.5 Z"/></g>
<g><path style="opacity:1" fill="#f1c2c1" d="M 222.5,344.5 C 222.586,348.319 221.919,351.985 220.5,355.5C 220.167,355.5 219.833,355.5 219.5,355.5C 220.074,351.643 221.074,347.976 222.5,344.5 Z"/></g>
<g><path style="opacity:1" fill="#fb4d66" d="M 506.5,343.5 C 507.833,348.167 509.167,352.833 510.5,357.5C 510.832,395.004 510.498,432.337 509.5,469.5C 509.5,455.167 509.5,440.833 509.5,426.5C 509.667,403.831 509.5,381.164 509,358.5C 508.5,374.83 508.333,391.163 508.5,407.5C 507.934,396.27 507.1,384.937 506,373.5C 505.333,382.833 504.667,382.833 504,373.5C 503.83,375.715 503.163,377.715 502,379.5C 489.246,378.511 476.413,378.178 463.5,378.5C 463.813,375.753 463.48,373.086 462.5,370.5C 461.833,379.991 461.167,389.325 460.5,398.5C 459.778,398.082 459.278,397.416 459,396.5C 459.142,387.442 458.309,378.775 456.5,370.5C 456.826,362.316 456.492,354.316 455.5,346.5C 456.179,342.9 457.013,343.233 458,347.5C 458.333,346.167 458.667,344.833 459,343.5C 458.597,349.445 458.93,355.445 460,361.5C 460.218,358.574 460.718,355.74 461.5,353C 475.167,352.333 488.833,352.333 502.5,353C 503.451,356.057 503.784,359.223 503.5,362.5C 504.5,362.5 505.5,362.5 506.5,362.5C 506.5,359.167 506.5,355.833 506.5,352.5C 505.5,352.5 504.5,352.5 503.5,352.5C 503.64,349.125 504.14,345.792 505,342.5C 505.383,343.056 505.883,343.389 506.5,343.5 Z"/></g>
<g><path style="opacity:1" fill="#e17773" d="M 219.5,355.5 C 219.833,355.5 220.167,355.5 220.5,355.5C 221.01,358.388 220.344,360.721 218.5,362.5C 218.993,360.194 219.326,357.861 219.5,355.5 Z"/></g>
<g><path style="opacity:1" fill="#e4817e" d="M 218.5,362.5 C 219.055,366.706 218.055,370.373 215.5,373.5C 216.267,369.673 217.267,366.006 218.5,362.5 Z"/></g>
<g><path style="opacity:1" fill="#dc5351" d="M 298.5,341.5 C 300.288,341.215 301.955,341.548 303.5,342.5C 302.758,343.287 301.925,343.953 301,344.5C 297.053,354.033 295.053,364.033 295,374.5C 294.333,406.167 294.333,437.833 295,469.5C 295.251,478.958 296.251,488.291 298,497.5C 300.131,502.794 302.965,507.461 306.5,511.5C 305.833,511.5 305.167,511.5 304.5,511.5C 295.509,499.026 291.009,485.026 291,469.5C 290.333,437.833 290.333,406.167 291,374.5C 290.95,363.404 293.45,353.071 298.5,343.5C 298.5,342.833 298.5,342.167 298.5,341.5 Z"/></g>
<g><path style="opacity:1" fill="#e57d7b" d="M 307.5,339.5 C 308.919,338.549 310.585,338.216 312.5,338.5C 309.437,345.087 307.771,352.087 307.5,359.5C 307.672,360.492 307.338,361.158 306.5,361.5C 305.63,364.06 305.13,367.393 305,371.5C 304.333,405.167 304.333,438.833 305,472.5C 305.7,488.568 312.2,501.568 324.5,511.5C 323.5,511.5 322.5,511.5 321.5,511.5C 316.478,507.485 312.145,502.819 308.5,497.5C 305.574,490.797 303.741,483.797 303,476.5C 302.333,440.167 302.333,403.833 303,367.5C 304.959,358.731 307.126,350.065 309.5,341.5C 310.043,341.44 310.376,341.107 310.5,340.5C 309.675,339.614 308.675,339.281 307.5,339.5 Z"/></g>
<g><path style="opacity:1" fill="#de615f" d="M 307.5,339.5 C 308.675,339.281 309.675,339.614 310.5,340.5C 310.376,341.107 310.043,341.44 309.5,341.5C 307.925,343.525 306.092,345.525 304,347.5C 302.131,353.715 300.797,360.048 300,366.5C 299.333,403.5 299.333,440.5 300,477.5C 301.638,490.442 306.804,501.775 315.5,511.5C 312.5,511.5 309.5,511.5 306.5,511.5C 302.965,507.461 300.131,502.794 298,497.5C 296.251,488.291 295.251,478.958 295,469.5C 294.333,437.833 294.333,406.167 295,374.5C 295.053,364.033 297.053,354.033 301,344.5C 301.925,343.953 302.758,343.287 303.5,342.5C 301.955,341.548 300.288,341.215 298.5,341.5C 296.833,341.5 295.167,341.5 293.5,341.5C 293.5,341.167 293.5,340.833 293.5,340.5C 298.23,340.717 302.897,340.383 307.5,339.5 Z"/></g>
<g><path style="opacity:1" fill="#df6966" d="M 169.5,366.5 C 169.01,369.655 168.344,372.655 167.5,375.5C 167.336,372.813 167.503,370.146 168,367.5C 168.383,366.944 168.883,366.611 169.5,366.5 Z"/></g>
<g><path style="opacity:1" fill="#fb4760" d="M 377.5,380.5 C 374.15,380.335 370.817,380.502 367.5,381C 370.146,381.497 372.813,381.664 375.5,381.5C 375.5,384.167 375.5,386.833 375.5,389.5C 353.486,389.501 331.486,389.834 309.5,390.5C 309.822,396.358 309.489,402.025 308.5,407.5C 308.5,395.5 308.5,383.5 308.5,371.5C 309.468,373.607 309.802,375.941 309.5,378.5C 331.5,378.5 353.5,378.5 375.5,378.5C 376.198,372.533 376.698,366.533 377,360.5C 377.5,367.158 377.666,373.825 377.5,380.5 Z"/></g>
<g><path style="opacity:1" fill="#e27270" d="M 309.5,341.5 C 307.126,350.065 304.959,358.731 303,367.5C 302.333,403.833 302.333,440.167 303,476.5C 303.741,483.797 305.574,490.797 308.5,497.5C 312.145,502.819 316.478,507.485 321.5,511.5C 319.5,511.5 317.5,511.5 315.5,511.5C 306.804,501.775 301.638,490.442 300,477.5C 299.333,440.5 299.333,403.5 300,366.5C 300.797,360.048 302.131,353.715 304,347.5C 306.092,345.525 307.925,343.525 309.5,341.5 Z"/></g>
<g><path style="opacity:1" fill="#e78988" d="M 306.5,361.5 C 306.168,396.004 306.502,430.337 307.5,464.5C 307.217,475.813 310.55,485.813 317.5,494.5C 316.751,495.531 316.085,496.698 315.5,498C 319.402,503.404 324.069,507.904 329.5,511.5C 327.833,511.5 326.167,511.5 324.5,511.5C 312.2,501.568 305.7,488.568 305,472.5C 304.333,438.833 304.333,405.167 305,371.5C 305.13,367.393 305.63,364.06 306.5,361.5 Z"/></g>
<g><path style="opacity:1" fill="#f77b86" d="M 437.5,378.5 C 436.152,379.186 434.985,380.186 434,381.5C 429.901,380.576 425.735,380.576 421.5,381.5C 426.551,379.656 431.884,378.656 437.5,378.5 Z"/></g>
<g><path style="opacity:1" fill="#fa425a" d="M 437.5,378.5 C 437.833,378.5 438.167,378.5 438.5,378.5C 439.167,378.5 439.833,378.5 440.5,378.5C 442.218,379.224 444.052,379.891 446,380.5C 446.167,382 446.333,383.5 446.5,385C 446.034,396.332 445.034,406.832 443.5,416.5C 440.5,416.5 437.5,416.5 434.5,416.5C 434.5,415.167 434.5,413.833 434.5,412.5C 424.833,412.5 415.167,412.5 405.5,412.5C 405.5,413.833 405.5,415.167 405.5,416.5C 402.223,416.216 399.057,416.549 396,417.5C 394.913,414.309 394.08,410.975 393.5,407.5C 392.833,410.5 392.167,413.5 391.5,416.5C 390.794,406.986 389.794,397.653 388.5,388.5C 399.226,385.553 410.226,383.22 421.5,381.5C 425.735,380.576 429.901,380.576 434,381.5C 434.985,380.186 436.152,379.186 437.5,378.5 Z"/></g>
<g><path style="opacity:1" fill="#fd7f91" d="M 438.5,378.5 C 441.625,377.521 444.958,377.187 448.5,377.5C 448.83,394.009 448.496,410.342 447.5,426.5C 447.5,410.5 447.5,394.5 447.5,378.5C 445.167,378.5 442.833,378.5 440.5,378.5C 439.833,378.5 439.167,378.5 438.5,378.5 Z"/></g>
<g><path style="opacity:1" fill="#fa435a" d="M 508.5,407.5 C 508.665,410.518 508.498,413.518 508,416.5C 507.497,411.81 506.83,407.143 506,402.5C 505.501,407.489 505.334,412.489 505.5,417.5C 497.833,416.973 490.166,416.307 482.5,415.5C 482.833,414.833 483.167,414.167 483.5,413.5C 479.893,412.511 476.226,412.177 472.5,412.5C 472.33,413.822 472.663,414.989 473.5,416C 470.183,416.498 466.85,416.665 463.5,416.5C 463.666,411.489 463.499,406.489 463,401.5C 462.501,406.823 462.334,412.156 462.5,417.5C 461.681,420.305 461.181,423.305 461,426.5C 460.5,417.173 460.334,407.839 460.5,398.5C 461.167,389.325 461.833,379.991 462.5,370.5C 463.48,373.086 463.813,375.753 463.5,378.5C 476.413,378.178 489.246,378.511 502,379.5C 503.163,377.715 503.83,375.715 504,373.5C 504.667,382.833 505.333,382.833 506,373.5C 507.1,384.937 507.934,396.27 508.5,407.5 Z"/></g>
<g><path style="opacity:1" fill="#fb4159" d="M 377.5,380.5 C 377.5,386.5 377.5,392.5 377.5,398.5C 376.578,402.995 375.911,407.662 375.5,412.5C 372.428,412.183 369.428,412.516 366.5,413.5C 366.833,414.167 367.167,414.833 367.5,415.5C 364.232,416.487 360.898,416.82 357.5,416.5C 357.5,415.167 357.5,413.833 357.5,412.5C 354.167,412.5 350.833,412.5 347.5,412.5C 347.5,413.833 347.5,415.167 347.5,416.5C 341.132,416.83 334.798,416.496 328.5,415.5C 328.833,414.833 329.167,414.167 329.5,413.5C 322.866,412.503 316.2,412.17 309.5,412.5C 309.66,414.199 309.494,415.866 309,417.5C 308.502,414.183 308.335,410.85 308.5,407.5C 309.489,402.025 309.822,396.358 309.5,390.5C 331.486,389.834 353.486,389.501 375.5,389.5C 375.5,386.833 375.5,384.167 375.5,381.5C 372.813,381.664 370.146,381.497 367.5,381C 370.817,380.502 374.15,380.335 377.5,380.5 Z"/></g>
<g><path style="opacity:1" fill="#f2c8c7" d="M 171.5,359.5 C 171.51,365.285 170.677,370.951 169,376.5C 168.5,391.163 168.333,405.83 168.5,420.5C 168.167,420.5 167.833,420.5 167.5,420.5C 167.5,410.5 167.5,400.5 167.5,390.5C 167.5,385.5 167.5,380.5 167.5,375.5C 168.344,372.655 169.01,369.655 169.5,366.5C 169.927,363.99 170.593,361.657 171.5,359.5 Z"/></g>
<g><path style="opacity:1" fill="#e48b89" d="M 167.5,390.5 C 167.5,400.5 167.5,410.5 167.5,420.5C 166.188,414.045 165.521,407.378 165.5,400.5C 165.514,396.761 166.18,393.428 167.5,390.5 Z"/></g>
<g><path style="opacity:1" fill="#fb3a54" d="M 509.5,426.5 C 508.85,426.196 508.183,425.863 507.5,425.5C 507.058,438.06 506.391,450.726 505.5,463.5C 504.603,451.312 503.603,438.979 502.5,426.5C 501.573,428.113 500.739,429.779 500,431.5C 488.084,429.533 475.918,428.866 463.5,429.5C 463.817,425.298 463.483,421.298 462.5,417.5C 462.334,412.156 462.501,406.823 463,401.5C 463.499,406.489 463.666,411.489 463.5,416.5C 466.85,416.665 470.183,416.498 473.5,416C 472.663,414.989 472.33,413.822 472.5,412.5C 476.226,412.177 479.893,412.511 483.5,413.5C 483.167,414.167 482.833,414.833 482.5,415.5C 490.166,416.307 497.833,416.973 505.5,417.5C 505.334,412.489 505.501,407.489 506,402.5C 506.83,407.143 507.497,411.81 508,416.5C 508.498,413.518 508.665,410.518 508.5,407.5C 508.333,391.163 508.5,374.83 509,358.5C 509.5,381.164 509.667,403.831 509.5,426.5 Z"/></g>
<g><path style="opacity:1" fill="#eba3a1" d="M 205.5,399.5 C 205.186,402.489 203.852,404.822 201.5,406.5C 202.397,403.787 203.73,401.454 205.5,399.5 Z"/></g>
<g><path style="opacity:1" fill="#fa3c53" d="M 440.5,378.5 C 442.833,378.5 445.167,378.5 447.5,378.5C 447.5,394.5 447.5,410.5 447.5,426.5C 447.141,428.371 446.141,429.871 444.5,431C 439.5,432 434.5,433 429.5,434C 420.325,436.33 415.992,442.163 416.5,451.5C 415.883,451.389 415.383,451.056 415,450.5C 414.51,451.793 414.343,453.127 414.5,454.5C 408.107,454.793 401.773,454.46 395.5,453.5C 394.029,454.381 393.196,455.714 393,457.5C 392.167,456.5 391.333,455.5 390.5,454.5C 390.664,441.796 389.831,429.129 388,416.5C 387.831,430.006 387.331,443.34 386.5,456.5C 386.333,434.164 386.5,411.831 387,389.5C 387.383,388.944 387.883,388.611 388.5,388.5C 389.794,397.653 390.794,406.986 391.5,416.5C 392.167,413.5 392.833,410.5 393.5,407.5C 394.08,410.975 394.913,414.309 396,417.5C 399.057,416.549 402.223,416.216 405.5,416.5C 405.5,415.167 405.5,413.833 405.5,412.5C 415.167,412.5 424.833,412.5 434.5,412.5C 434.5,413.833 434.5,415.167 434.5,416.5C 437.5,416.5 440.5,416.5 443.5,416.5C 445.034,406.832 446.034,396.332 446.5,385C 446.333,383.5 446.167,382 446,380.5C 444.052,379.891 442.218,379.224 440.5,378.5 Z"/></g>
<g><path style="opacity:1" fill="#fb3b54" d="M 308.5,371.5 C 308.5,383.5 308.5,395.5 308.5,407.5C 308.335,410.85 308.502,414.183 309,417.5C 309.494,415.866 309.66,414.199 309.5,412.5C 316.2,412.17 322.866,412.503 329.5,413.5C 329.167,414.167 328.833,414.833 328.5,415.5C 334.798,416.496 341.132,416.83 347.5,416.5C 347.5,415.167 347.5,413.833 347.5,412.5C 350.833,412.5 354.167,412.5 357.5,412.5C 357.5,413.833 357.5,415.167 357.5,416.5C 360.898,416.82 364.232,416.487 367.5,415.5C 367.167,414.833 366.833,414.167 366.5,413.5C 369.428,412.516 372.428,412.183 375.5,412.5C 375.911,407.662 376.578,402.995 377.5,398.5C 377.19,401.713 377.523,404.713 378.5,407.5C 378.828,418.679 378.495,429.679 377.5,440.5C 377.827,435.786 377.493,431.12 376.5,426.5C 375.614,427.325 375.281,428.325 375.5,429.5C 353.269,428.861 331.269,429.528 309.5,431.5C 309.923,429.219 309.256,427.552 307.5,426.5C 307.129,402.146 307.462,383.812 308.5,371.5 Z"/></g>
<g><path style="opacity:1" fill="#e68885" d="M 196.5,416.5 C 195.551,419.748 193.884,422.415 191.5,424.5C 192.449,421.252 194.116,418.585 196.5,416.5 Z"/></g>
<g><path style="opacity:1" fill="#fb364f" d="M 456.5,370.5 C 458.309,378.775 459.142,387.442 459,396.5C 459.278,397.416 459.778,398.082 460.5,398.5C 460.334,407.839 460.5,417.173 461,426.5C 461.181,423.305 461.681,420.305 462.5,417.5C 463.483,421.298 463.817,425.298 463.5,429.5C 475.918,428.866 488.084,429.533 500,431.5C 500.739,429.779 501.573,428.113 502.5,426.5C 503.603,438.979 504.603,451.312 505.5,463.5C 505.754,479.291 504.754,479.291 502.5,463.5C 503.653,457.347 503.82,451.014 503,444.5C 502.788,447.758 502.288,450.924 501.5,454C 488.838,454.5 476.171,454.667 463.5,454.5C 463.649,453.448 463.483,452.448 463,451.5C 460.922,454.354 458.755,454.688 456.5,452.5C 455.591,454.375 454.257,455.708 452.5,456.5C 453.572,454.118 454.738,451.784 456,449.5C 456.5,423.169 456.667,396.835 456.5,370.5 Z"/></g>
<g><path style="opacity:1" fill="#e99a98" d="M 184.5,434.5 C 183.92,436.749 182.587,438.415 180.5,439.5C 181.08,437.251 182.413,435.585 184.5,434.5 Z"/></g>
<g><path style="opacity:1" fill="#e7908e" d="M 167.5,420.5 C 167.833,420.5 168.167,420.5 168.5,420.5C 168.52,428.57 169.187,436.57 170.5,444.5C 167.885,436.858 166.885,428.858 167.5,420.5 Z"/></g>
<g><path style="opacity:1" fill="#fa2f48" d="M 416.5,451.5 C 417.649,455.97 419.982,459.637 423.5,462.5C 426.356,464.006 429.523,464.672 433,464.5C 435.361,464.496 437.527,464.163 439.5,463.5C 444.819,462.85 449.152,460.517 452.5,456.5C 454.257,455.708 455.591,454.375 456.5,452.5C 458.755,454.688 460.922,454.354 463,451.5C 463.483,452.448 463.649,453.448 463.5,454.5C 476.171,454.667 488.838,454.5 501.5,454C 502.288,450.924 502.788,447.758 503,444.5C 503.82,451.014 503.653,457.347 502.5,463.5C 501.736,465.74 500.902,468.073 500,470.5C 488.084,468.533 475.918,467.866 463.5,468.5C 463.5,469.5 463.5,470.5 463.5,471.5C 469.842,471.334 476.175,471.5 482.5,472C 474.43,472.192 466.43,473.025 458.5,474.5C 455.32,473.897 452.153,473.231 449,472.5C 447.019,472.629 445.353,473.296 444,474.5C 436.04,474.136 427.874,474.136 419.5,474.5C 409.411,474.461 399.411,473.627 389.5,472C 387.508,471.426 386.008,470.259 385,468.5C 384.617,469.056 384.117,469.389 383.5,469.5C 383.795,467.577 384.628,465.91 386,464.5C 386.497,461.854 386.664,459.187 386.5,456.5C 387.331,443.34 387.831,430.006 388,416.5C 389.831,429.129 390.664,441.796 390.5,454.5C 391.333,455.5 392.167,456.5 393,457.5C 393.196,455.714 394.029,454.381 395.5,453.5C 401.773,454.46 408.107,454.793 414.5,454.5C 414.343,453.127 414.51,451.793 415,450.5C 415.383,451.056 415.883,451.389 416.5,451.5 Z"/></g>
<g><path style="opacity:1" fill="#f92a44" d="M 509.5,426.5 C 509.5,440.833 509.5,455.167 509.5,469.5C 507.376,490.619 496.043,503.619 475.5,508.5C 475.179,506.952 474.179,506.285 472.5,506.5C 472.5,504.833 472.5,503.167 472.5,501.5C 475.073,501.852 477.406,501.352 479.5,500C 474.182,499.978 468.849,500.145 463.5,500.5C 463.492,497.455 463.159,494.455 462.5,491.5C 459.833,491.5 457.167,491.5 454.5,491.5C 453.705,495.785 453.372,500.119 453.5,504.5C 450.428,504.817 447.428,504.484 444.5,503.5C 444.296,499.637 443.963,495.637 443.5,491.5C 437.5,491.5 431.5,491.5 425.5,491.5C 424.841,494.455 424.508,497.455 424.5,500.5C 421.5,500.5 418.5,500.5 415.5,500.5C 415.492,497.455 415.159,494.455 414.5,491.5C 408.5,491.5 402.5,491.5 396.5,491.5C 395.705,495.785 395.372,500.119 395.5,504.5C 392.5,504.5 389.5,504.5 386.5,504.5C 386.5,503.167 386.5,501.833 386.5,500.5C 383.482,500.665 380.482,500.498 377.5,500C 376.556,497.281 376.223,494.448 376.5,491.5C 370.167,491.5 363.833,491.5 357.5,491.5C 357.664,494.187 357.497,496.854 357,499.5C 353.591,500.622 350.091,500.789 346.5,500C 347.523,497.226 347.523,494.393 346.5,491.5C 340.107,491.207 333.773,491.54 327.5,492.5C 325.936,489.864 324.603,490.031 323.5,493C 322.207,493.49 320.873,493.657 319.5,493.5C 319.5,494.5 319.5,495.5 319.5,496.5C 318.5,496.167 317.833,495.5 317.5,494.5C 310.55,485.813 307.217,475.813 307.5,464.5C 307.5,451.833 307.5,439.167 307.5,426.5C 309.256,427.552 309.923,429.219 309.5,431.5C 309.5,439.167 309.5,446.833 309.5,454.5C 315.833,454.5 322.167,454.5 328.5,454.5C 328.5,456.167 328.5,457.833 328.5,459.5C 332.111,459.044 335.444,459.711 338.5,461.5C 339.004,458.658 340.671,457.325 343.5,457.5C 343.336,460.187 343.503,462.854 344,465.5C 343.965,460.705 345.298,456.372 348,452.5C 348.464,453.094 348.631,453.761 348.5,454.5C 347.89,455.391 347.557,456.391 347.5,457.5C 346.84,458.964 346.507,460.631 346.5,462.5C 346.316,465.205 346.983,467.538 348.5,469.5C 349.614,472.449 351.614,474.615 354.5,476C 365.508,479.329 375.175,477.162 383.5,469.5C 384.117,469.389 384.617,469.056 385,468.5C 386.008,470.259 387.508,471.426 389.5,472C 399.411,473.627 409.411,474.461 419.5,474.5C 427.874,474.136 436.04,474.136 444,474.5C 445.353,473.296 447.019,472.629 449,472.5C 452.153,473.231 455.32,473.897 458.5,474.5C 466.43,473.025 474.43,472.192 482.5,472C 476.175,471.5 469.842,471.334 463.5,471.5C 463.5,470.5 463.5,469.5 463.5,468.5C 475.918,467.866 488.084,468.533 500,470.5C 500.902,468.073 501.736,465.74 502.5,463.5C 504.754,479.291 505.754,479.291 505.5,463.5C 506.391,450.726 507.058,438.06 507.5,425.5C 508.183,425.863 508.85,426.196 509.5,426.5 Z"/></g>
<g><path style="opacity:1" fill="#f9c1c9" d="M 423.5,462.5 C 428.797,463.275 434.13,463.608 439.5,463.5C 437.527,464.163 435.361,464.496 433,464.5C 429.523,464.672 426.356,464.006 423.5,462.5 Z"/></g>
<g><path style="opacity:1" fill="#fcbcbe" d="M 347.5,457.5 C 347.395,461.548 347.728,465.548 348.5,469.5C 346.983,467.538 346.316,465.205 346.5,462.5C 346.507,460.631 346.84,458.964 347.5,457.5 Z"/></g>
<g><path style="opacity:1" fill="#feadb7" d="M 366.5,445.5 C 364.898,447.074 362.898,447.741 360.5,447.5C 362.102,445.926 364.102,445.259 366.5,445.5 Z"/></g>
<g><path style="opacity:1" fill="#fb364f" d="M 377.5,440.5 C 377.426,442.411 376.426,443.578 374.5,444C 371.937,445.079 369.271,445.579 366.5,445.5C 364.102,445.259 362.102,445.926 360.5,447.5C 359.127,447.343 357.793,447.51 356.5,448C 353.669,450.001 351.003,452.167 348.5,454.5C 348.631,453.761 348.464,453.094 348,452.5C 345.298,456.372 343.965,460.705 344,465.5C 343.503,462.854 343.336,460.187 343.5,457.5C 340.671,457.325 339.004,458.658 338.5,461.5C 335.444,459.711 332.111,459.044 328.5,459.5C 328.5,457.833 328.5,456.167 328.5,454.5C 322.167,454.5 315.833,454.5 309.5,454.5C 309.5,446.833 309.5,439.167 309.5,431.5C 331.269,429.528 353.269,428.861 375.5,429.5C 375.281,428.325 375.614,427.325 376.5,426.5C 377.493,431.12 377.827,435.786 377.5,440.5 Z"/></g>
<g><path style="opacity:1" fill="#ea8e8e" d="M 511.5,355.5 C 511.5,397.833 511.5,440.167 511.5,482.5C 508.427,494.315 502.094,503.982 492.5,511.5C 485.5,511.5 478.5,511.5 471.5,511.5C 469.735,510.539 467.735,510.205 465.5,510.5C 468.684,509.677 472.017,509.01 475.5,508.5C 496.043,503.619 507.376,490.619 509.5,469.5C 510.498,432.337 510.832,395.004 510.5,357.5C 510.328,356.508 510.662,355.842 511.5,355.5 Z"/></g>
<g><path style="opacity:1" fill="#f9283e" d="M 475.5,508.5 C 472.017,509.01 468.684,509.677 465.5,510.5C 426.499,510.667 387.499,510.5 348.5,510C 336.932,509.19 327.265,504.69 319.5,496.5C 319.5,495.5 319.5,494.5 319.5,493.5C 320.873,493.657 322.207,493.49 323.5,493C 324.603,490.031 325.936,489.864 327.5,492.5C 333.773,491.54 340.107,491.207 346.5,491.5C 347.523,494.393 347.523,497.226 346.5,500C 350.091,500.789 353.591,500.622 357,499.5C 357.497,496.854 357.664,494.187 357.5,491.5C 363.833,491.5 370.167,491.5 376.5,491.5C 376.223,494.448 376.556,497.281 377.5,500C 380.482,500.498 383.482,500.665 386.5,500.5C 386.5,501.833 386.5,503.167 386.5,504.5C 389.5,504.5 392.5,504.5 395.5,504.5C 395.372,500.119 395.705,495.785 396.5,491.5C 402.5,491.5 408.5,491.5 414.5,491.5C 415.159,494.455 415.492,497.455 415.5,500.5C 418.5,500.5 421.5,500.5 424.5,500.5C 424.508,497.455 424.841,494.455 425.5,491.5C 431.5,491.5 437.5,491.5 443.5,491.5C 443.963,495.637 444.296,499.637 444.5,503.5C 447.428,504.484 450.428,504.817 453.5,504.5C 453.372,500.119 453.705,495.785 454.5,491.5C 457.167,491.5 459.833,491.5 462.5,491.5C 463.159,494.455 463.492,497.455 463.5,500.5C 468.849,500.145 474.182,499.978 479.5,500C 477.406,501.352 475.073,501.852 472.5,501.5C 472.5,503.167 472.5,504.833 472.5,506.5C 474.179,506.285 475.179,506.952 475.5,508.5 Z"/></g>
<g><path style="opacity:1" fill="#ec9e9d" d="M 317.5,494.5 C 317.833,495.5 318.5,496.167 319.5,496.5C 327.265,504.69 336.932,509.19 348.5,510C 387.499,510.5 426.499,510.667 465.5,510.5C 467.735,510.205 469.735,510.539 471.5,511.5C 424.167,511.5 376.833,511.5 329.5,511.5C 324.069,507.904 319.402,503.404 315.5,498C 316.085,496.698 316.751,495.531 317.5,494.5 Z"/></g>
<g><path style="opacity:1" fill="#e47a78" d="M 511.5,482.5 C 511.5,487.833 511.5,493.167 511.5,498.5C 508.915,503.3 505.582,507.633 501.5,511.5C 498.5,511.5 495.5,511.5 492.5,511.5C 502.094,503.982 508.427,494.315 511.5,482.5 Z"/></g>
<g><path style="opacity:1" fill="#de625f" d="M 511.5,498.5 C 511.5,502.833 511.5,507.167 511.5,511.5C 508.167,511.5 504.833,511.5 501.5,511.5C 505.582,507.633 508.915,503.3 511.5,498.5 Z"/></g>
</svg>
