<?xml version="1.0" encoding="UTF-8"?>
<svg version="1.1" xmlns="http://www.w3.org/2000/svg" width="1441" height="1583">
<path d="M0 0 C0.7014917 0.16886719 1.4029834 0.33773438 2.12573242 0.51171875 C29.35363562 7.08532547 56.21497981 14.822921 83 23 C84.30354431 23.39638672 84.30354431 23.39638672 85.63342285 23.80078125 C137.10061719 39.45575957 187.80430258 58.21622022 237 80 C238.15790039 80.51095215 239.31580078 81.0219043 240.50878906 81.54833984 C273.76779625 96.25227439 307.15423371 111.27607894 339.21875 128.453125 C342.76404454 130.35217496 346.32934722 132.2080447 349.90625 134.046875 C363.25449029 140.91239565 376.38280001 148.07794545 389.41162109 155.53027344 C392.46802613 157.26575338 395.54546532 158.96007924 398.62792969 160.64868164 C424.5460536 174.86309681 449.99412184 190.28405079 474.70507812 206.49707031 C477.27321578 208.17892727 479.84720024 209.85160577 482.421875 211.5234375 C518.64750733 235.06151134 554.35114582 259.34124505 588.83837891 285.37402344 C591.19267103 287.14492761 593.55465827 288.90521324 595.91796875 290.6640625 C604.21234156 296.84390422 612.44520552 303.07025984 620.48413086 309.57983398 C625.12949238 313.3335279 629.86310778 316.95821827 634.625 320.5625 C640.31316044 324.8758939 645.84347752 329.31375291 651.25170898 333.97241211 C655.14067378 337.31145916 659.1354847 340.48654586 663.1875 343.625 C668.17832155 347.49765934 672.9221449 351.54131822 677.57421875 355.8203125 C680.15127574 358.13592892 682.80582391 360.32205066 685.5 362.5 C689.96997492 366.11615949 694.24131648 369.89592602 698.48828125 373.76953125 C700.99458744 375.99519351 703.56924393 378.09521561 706.1875 380.1875 C712.25607398 385.09235596 717.88706664 390.42755001 723.5625 395.77734375 C726.64706374 398.6819746 729.79978891 401.49037584 733.0078125 404.2578125 C740.4278894 410.7467425 747.59613011 417.53620033 754.8125 424.25 C755.42230713 424.815979 756.03211426 425.38195801 756.66040039 425.96508789 C759.64849654 428.75178498 762.5823416 431.57286772 765.44921875 434.484375 C767.66678499 436.72176584 769.93090293 438.8198682 772.34082031 440.84692383 C778.90166436 446.55928293 784.95512811 452.81153065 791.09765625 458.96484375 C792.45936258 460.32587513 793.82121722 461.68675815 795.18321228 463.04750061 C798.02651919 465.88933955 800.86802599 468.73296282 803.70825195 471.57788086 C807.33146031 475.20678592 810.95914043 478.8311822 814.58818913 482.45424557 C817.39799146 485.2604179 820.2053874 488.06898799 823.01208305 490.87826729 C824.3480657 492.21491246 825.68477894 493.55082784 827.02226448 494.88596916 C839.64543734 507.49186422 839.64543734 507.49186422 844.68885803 513.47210693 C846.77246805 515.90016841 849.07477424 518.09171147 851.375 520.3125 C855.8026523 524.65548918 859.80094981 529.22806048 863.63671875 534.1015625 C865.63855561 536.55670787 867.69902269 538.90331548 869.8203125 541.25390625 C873.85396637 545.76935117 877.56745859 550.46154694 881.1875 555.3125 C881.83041992 556.17351318 882.47333984 557.03452637 883.13574219 557.92163086 C926.26389216 616.30798146 952.10869366 685.66695807 958 758 C958.05784668 758.70543945 958.11569336 759.41087891 958.17529297 760.13769531 C963.47487226 828.41892166 950.34119446 901.25996167 918.02880859 962.04833984 C916.89782562 964.19382581 915.80166948 966.35528809 914.70703125 968.51953125 C897.74719603 1001.78335307 874.92361503 1031.17441273 849.51757812 1058.36914062 C847.95694223 1060.04627187 846.40680166 1061.73255296 844.859375 1063.421875 C839.97829522 1068.74724354 835.06655195 1073.99512324 829.91017151 1079.05738831 C828.15529814 1080.84206445 826.52895514 1082.6744233 824.90991211 1084.58178711 C820.42077392 1089.74324715 815.59435267 1094.54907432 810.75390625 1099.37890625 C809.77401947 1100.35946881 808.79428099 1101.34017959 807.81468201 1102.32102966 C805.7731736 1104.36400213 803.72989434 1106.40518169 801.68530273 1108.44506836 C799.08547596 1111.03919866 796.49016627 1113.63779434 793.89618015 1116.2377634 C791.87750604 1118.26007825 789.85642267 1120.2799719 787.8346386 1122.29917717 C786.41767676 1123.71516246 785.00270183 1125.13313515 783.58778381 1126.55116272 C779.07533891 1131.04740235 774.51814366 1135.41854025 769.66893005 1139.55125427 C767.1429389 1141.74398781 764.83704355 1144.10664215 762.5 1146.5 C758.91078381 1150.13773571 755.24670527 1153.60869984 751.359375 1156.92578125 C748.00318096 1159.87634256 744.75816547 1162.94199487 741.5 1166 C736.41281194 1170.765996 731.29396503 1175.46365187 726 1180 C723.53946228 1182.12245422 721.08203248 1184.2484897 718.625 1186.375 C717.64128418 1187.2254187 717.64128418 1187.2254187 716.63769531 1188.09301758 C712.96926298 1191.27064842 709.33880959 1194.48223408 705.75 1197.75 C701.60685292 1201.50472704 697.31955813 1205.04316677 692.97265625 1208.55859375 C689.66248454 1211.27719732 686.42508413 1214.07088495 683.1875 1216.875 C678.0302692 1221.32826809 672.76873898 1225.60859912 667.38696289 1229.78686523 C662.90787746 1233.26797791 658.51064053 1236.83966721 654.125 1240.4375 C647.5657321 1245.80115451 640.85691736 1250.9263345 634.0546875 1255.9765625 C629.89762414 1259.06472412 625.79208725 1262.21762519 621.6875 1265.375 C612.55492025 1272.38196551 603.29770757 1279.21420396 594 1286 C593.22978516 1286.56251465 592.45957031 1287.1250293 591.66601562 1287.70458984 C589.38388025 1289.36884817 587.09886297 1291.02905538 584.8125 1292.6875 C584.161604 1293.16123047 583.51070801 1293.63496094 582.84008789 1294.12304688 C554.02718683 1314.94540358 524.36045309 1335.06481127 493.84277344 1353.29541016 C490.93844762 1355.03690817 488.04957599 1356.80174413 485.1640625 1358.57421875 C459.59656424 1374.270884 433.57467921 1389.23672035 407.30517578 1403.72607422 C404.86598737 1405.07406036 402.43093887 1406.42934232 399.99609375 1407.78515625 C398.28916129 1408.73194896 396.58213215 1409.67856739 394.875 1410.625 C394.12468506 1411.04402588 393.37437012 1411.46305176 392.60131836 1411.89477539 C386.4337363 1415.3034348 380.1462043 1418.45548281 373.83691406 1421.59033203 C369.2125609 1423.8893359 364.60172727 1426.21472239 359.99143982 1428.54177856 C334.88694128 1441.21076168 309.82747249 1453.8527898 284 1465 C282.65391727 1465.58576496 281.30805883 1466.17204558 279.96240234 1466.75878906 C269.67118778 1471.24290274 259.3479176 1475.64841124 249 1480 C247.84084076 1480.48756775 247.84084076 1480.48756775 246.65826416 1480.98498535 C214.89613139 1494.32716506 182.80247173 1506.86185965 150.16650391 1517.91552734 C147.18502594 1518.93663183 144.2115389 1519.97880423 141.23977661 1521.02780151 C83.531278 1541.38107388 23.49479522 1561.0143745 -37 1571 C-38.11246094 1571.18481934 -39.22492188 1571.36963867 -40.37109375 1571.56005859 C-71.90255179 1576.49505047 -106.53726795 1576.27592069 -138 1571 C-139.22638184 1570.79600586 -140.45276367 1570.59201172 -141.71630859 1570.38183594 C-200.8224645 1560.26701987 -255.19310944 1536.58839907 -302 1499 C-302.59780273 1498.52079102 -303.19560547 1498.04158203 -303.81152344 1497.54785156 C-312.85118483 1490.20977349 -321.12564525 1482.07582264 -329.375 1473.875 C-329.88555939 1473.36979828 -330.39611877 1472.86459656 -330.92214966 1472.34408569 C-337.75266896 1465.56803119 -344.0228074 1458.55561193 -350 1451 C-350.90502952 1449.90026294 -351.81212901 1448.80222081 -352.72265625 1447.70703125 C-364.99378857 1432.52688259 -375.88911964 1416.01969007 -385.04394531 1398.77978516 C-385.97849487 1397.04003382 -386.95370903 1395.32232157 -387.9296875 1393.60546875 C-433.82214966 1311.49666598 -447.93348477 1202.77514987 -479.6875 937.25 C-479.74843842 936.18208221 -479.80937683 935.11416443 -479.87216187 934.0138855 C-481.30257138 908.60781439 -482.15717519 883.22018701 -482.203125 857.7734375 C-482.21010968 855.34721867 -482.21715058 852.92100001 -482.22424316 850.49478149 C-482.24349788 842.7881853 -482.24841933 835.08161764 -482.25 827.375 C-482.25058914 826.06094177 -482.25117828 824.74688354 -482.25178528 823.39300537 C-482.26688946 783.33272175 -481.89501608 743.41738766 -479.22784424 703.43603516 C-478.99780782 699.96694059 -478.77873187 696.49729373 -478.56201172 693.02734375 C-472.05737487 589.94175039 -457.24066787 487.48174424 -409 274 C-408.76774719 273.13826172 -408.53549438 272.27652344 -408.29620361 271.38867188 C-402.28400219 249.1532375 -396.06746152 227.21793562 -387 206 C-386.62278809 205.10780762 -386.24557617 204.21561523 -385.85693359 203.29638672 C-370.55917581 167.38942599 -349.5099205 133.61965801 -323.40625 104.56933594 C-322.17502453 103.19532251 -320.96103125 101.80590745 -319.75 100.4140625 C-315.01370409 95.01396755 -310.00250998 89.90193648 -304.9375 84.8125 C-304.27645264 84.14677979 -303.61540527 83.48105957 -302.93432617 82.79516602 C-255.71978305 35.73279572 -193.26159822 5.52478496 -128 -6 C-126.9879248 -6.18079102 -125.97584961 -6.36158203 -124.93310547 -6.54785156 C-83.80894279 -13.49977689 -40.25819028 -9.7300762 0 0 Z M-13 534 C-23.55878529 545.78921284 -31.65717407 558.81988172 -37.375 573.5625 C-37.69686279 574.3882251 -38.01872559 575.2139502 -38.3503418 576.06469727 C-43.96774013 591.28857472 -45.40924707 607.50026243 -47.375 623.5 C-47.52618286 624.72085297 -47.67736572 625.94170593 -47.83312988 627.19955444 C-52.25399643 663.06262948 -55.62616248 698.98961693 -57.75 735.0625 C-57.80925659 736.06785797 -57.86851318 737.07321594 -57.92956543 738.10903931 C-59.57096542 766.48586938 -60.20666327 794.83221597 -60.1875 823.25 C-60.18738041 824.04082977 -60.18726082 824.83165955 -60.1871376 825.64645386 C-60.17916054 867.531692 -58.65754247 909.26510329 -55 951 C-54.88543457 952.31081543 -54.77086914 953.62163086 -54.65283203 954.97216797 C-51.65668763 987.74711769 -42.52506499 1016.22542675 -19 1040 C-18.33484375 1040.72574219 -17.6696875 1041.45148437 -16.984375 1042.19921875 C-1.28538223 1058.98658707 24.31508075 1070.72618965 47.16918945 1072.20507812 C50.53237445 1072.3030908 53.88544705 1072.3289555 57.25 1072.3125 C59.03615723 1072.30512817 59.03615723 1072.30512817 60.85839844 1072.29760742 C82.5545986 1072.0090154 101.32619758 1064.16414028 120.75 1055.25 C122.60366803 1054.40459968 124.45734658 1053.55922245 126.31103516 1052.71386719 C152.25985442 1040.84476458 177.84716921 1028.40756109 202.87939453 1014.70507812 C205.83895014 1013.08799657 208.80631599 1011.4865089 211.77734375 1009.890625 C225.36862058 1002.57113737 238.71779814 994.86472972 252 987 C252.88993652 986.47374023 253.77987305 985.94748047 254.69677734 985.40527344 C257.23807723 983.89970739 259.77611828 982.38883485 262.3125 980.875 C263.01455566 980.45734375 263.71661133 980.0396875 264.43994141 979.609375 C279.27615984 970.70297742 293.77776042 961.25982842 308.16210938 951.64550781 C310.62921713 949.99718245 313.09959804 948.35385036 315.5703125 946.7109375 C330.28222198 936.90755663 344.75000286 926.81431297 358.8359375 916.12890625 C361.75935031 913.92198872 364.70377471 911.74704236 367.6640625 909.58984375 C378.0391745 902.02796508 388.1525121 894.2388143 398 886 C398.79792969 885.33484375 399.59585937 884.6696875 400.41796875 883.984375 C425.04696564 862.94403435 441.50105399 834.4568897 445 802 C445.65529399 787.21533171 445.83847312 772.37587056 442 758 C441.71793701 756.93724854 441.71793701 756.93724854 441.43017578 755.85302734 C436.51050368 738.08819705 427.97426061 721.99136424 416 708 C415.57638184 707.4942041 415.15276367 706.9884082 414.71630859 706.46728516 C408.64716165 699.26145707 402.02722872 693.38614078 394.52734375 687.70703125 C391.1357326 685.13532937 387.90691166 682.40726949 384.6875 679.625 C377.80332227 673.72457652 370.60780674 668.2618884 363.37451172 662.79931641 C360.86860187 660.9004314 358.37285189 658.98878651 355.87890625 657.07421875 C345.44880564 649.07462926 334.921279 641.24245997 324.22802734 633.59863281 C321.91213389 631.93695515 319.60543062 630.26317046 317.30078125 628.5859375 C309.89501488 623.19971577 302.47501699 617.88956897 294.81640625 612.8671875 C291.88079183 610.92096879 289.00428622 608.90350358 286.125 606.875 C277.52161829 600.89585553 268.6434204 595.34674549 259.78369141 589.7578125 C257.14814731 588.09355031 254.51670747 586.42302342 251.88671875 584.75 C242.34272561 578.68523921 232.7420451 572.74112025 223 567 C221.73905518 566.25459961 221.73905518 566.25459961 220.45263672 565.49414062 C205.48699709 556.658845 190.37325474 548.11329886 175.14697266 539.73583984 C172.31491676 538.17370506 169.49025531 536.59922107 166.66796875 535.01953125 C155.86132888 529.00368713 144.88840386 523.33235708 133.84176636 517.77261353 C132.26268039 516.97782917 130.68446475 516.18131283 129.10720825 515.38290405 C117.24975457 509.39037292 105.37435093 503.6007819 92.3125 500.75 C91.58828857 500.58725586 90.86407715 500.42451172 90.11791992 500.25683594 C84.75669619 499.08746366 79.49355466 498.19711663 74 498 C72.93652344 497.96003906 71.87304688 497.92007812 70.77734375 497.87890625 C38.59157206 497.27297256 9.01914606 510.7209028 -13 534 Z " fill="#85C742" transform="translate(482,9)"/>
</svg>
