<?xml version="1.0" encoding="UTF-8"?>
<!DOCTYPE svg PUBLIC "-//W3C//DTD SVG 1.1//EN" "http://www.w3.org/Graphics/SVG/1.1/DTD/svg11.dtd">
<svg xmlns="http://www.w3.org/2000/svg" version="1.1" width="512px" height="512px" style="shape-rendering:geometricPrecision; text-rendering:geometricPrecision; image-rendering:optimizeQuality; fill-rule:evenodd; clip-rule:evenodd" xmlns:xlink="http://www.w3.org/1999/xlink">
<g><path style="opacity:1" fill="#84c641" d="M 133.5,-0.5 C 142.167,-0.5 150.833,-0.5 159.5,-0.5C 163.407,0.491976 167.407,1.49198 171.5,2.5C 173.78,4.22267 176.447,4.88934 179.5,4.5C 188.433,6.23135 197.1,8.56469 205.5,11.5C 206.469,12.3094 207.302,13.3094 208,14.5C 208.414,14.0426 208.914,13.7093 209.5,13.5C 216.203,15.1861 222.87,17.6861 229.5,21C 231.81,21.4966 234.143,21.6633 236.5,21.5C 263.493,30.6656 289.493,41.9989 314.5,55.5C 314.987,56.4734 315.487,57.4734 316,58.5C 316.986,57.8288 318.153,57.8288 319.5,58.5C 326.732,61.7347 333.732,65.4014 340.5,69.5C 340.33,70.8221 340.663,71.9887 341.5,73C 344.279,73.561 346.946,74.3944 349.5,75.5C 361.523,81.8398 372.856,89.1731 383.5,97.5C 380.999,97.5109 380.832,98.1776 383,99.5C 383.333,99.1667 383.667,98.8333 384,98.5C 385.448,100.894 387.614,102.394 390.5,103C 391.211,104.255 392.044,105.421 393,106.5C 393.986,105.829 395.153,105.829 396.5,106.5C 397.167,106.5 397.5,106.833 397.5,107.5C 394.999,107.511 394.832,108.178 397,109.5C 397.333,109.167 397.667,108.833 398,108.5C 401.112,111.698 404.445,114.698 408,117.5C 408.986,116.829 410.153,116.829 411.5,117.5C 436.9,136.395 460.566,157.395 482.5,180.5C 482.427,182.027 483.094,183.027 484.5,183.5C 485.5,183.833 486.167,184.5 486.5,185.5C 486.427,187.027 487.094,188.027 488.5,188.5C 497.122,199.077 503.122,211.077 506.5,224.5C 506.742,228.479 507.742,232.146 509.5,235.5C 509.5,235.833 509.5,236.167 509.5,236.5C 509.335,239.85 509.502,243.183 510,246.5C 510.232,247.737 510.732,248.737 511.5,249.5C 511.5,256.833 511.5,264.167 511.5,271.5C 510.833,273.833 510.167,276.167 509.5,278.5C 508.087,281.219 507.42,284.219 507.5,287.5C 506.565,291.969 505.232,296.303 503.5,300.5C 503.167,301.167 502.833,301.833 502.5,302.5C 501.883,302.389 501.383,302.056 501,301.5C 500.027,303.392 499.36,305.392 499,307.5C 497.085,305.122 494.585,303.622 491.5,303C 484.99,300.898 478.323,299.565 471.5,299C 429.5,297 387.5,297 345.5,299C 306.402,304.098 284.902,326.264 281,365.5C 280.171,400.738 280.338,435.905 281.5,471C 279.563,471.122 278.23,471.955 277.5,473.5C 277.5,474.167 277.167,474.5 276.5,474.5C 237.566,490.562 197.566,502.896 156.5,511.5C 145.167,511.5 133.833,511.5 122.5,511.5C 118.5,510.5 114.5,509.5 110.5,508.5C 108.485,507.076 106.152,506.41 103.5,506.5C 93.7302,504.58 84.7302,500.914 76.5,495.5C 76.0269,494.094 75.0269,493.427 73.5,493.5C 72.5084,493.672 71.8417,493.338 71.5,492.5C 71.0269,491.094 70.0269,490.427 68.5,490.5C 65.4669,488.984 62.8003,486.984 60.5,484.5C 59.7377,482.738 58.4044,481.738 56.5,481.5C 50.4623,476.463 45.1289,470.797 40.5,464.5C 39.8288,463.153 39.8288,461.986 40.5,461C 39.6721,460.085 38.6721,459.419 37.5,459C 37.8333,458.667 38.1667,458.333 38.5,458C 37.4366,456.812 36.1033,456.312 34.5,456.5C 29.4728,448.778 25.8061,440.444 23.5,431.5C 23.2865,429.856 23.6198,428.356 24.5,427C 23.3094,426.302 22.3094,425.469 21.5,424.5C 19.0773,419.16 17.4107,413.493 16.5,407.5C 16.8294,404.772 16.1628,402.438 14.5,400.5C 13.2066,397.321 12.5399,393.988 12.5,390.5C 12.6621,388.473 12.4955,386.473 12,384.5C 11.6174,383.944 11.1174,383.611 10.5,383.5C 9.78138,381.236 9.44805,378.903 9.5,376.5C 9.88934,373.447 9.22267,370.78 7.5,368.5C 6.50823,363.548 5.84157,358.548 5.5,353.5C 5.36446,350.449 5.69779,347.449 6.5,344.5C 5.2569,342.309 4.42356,339.976 4,337.5C 2.7503,321.985 1.2503,306.652 -0.5,291.5C -0.5,290.5 -0.5,289.5 -0.5,288.5C 0.2492,270.662 0.915866,252.662 1.5,234.5C 1.49535,232.304 1.16202,230.304 0.5,228.5C 1.021,217.768 2.021,207.102 3.5,196.5C 4.22158,196.082 4.72158,195.416 5,194.5C 5.49863,190.848 5.6653,187.182 5.5,183.5C 7.4439,165.122 10.7772,147.122 15.5,129.5C 17.0395,127.162 17.7062,124.495 17.5,121.5C 18.7422,113.527 20.7422,105.86 23.5,98.5C 24.9238,96.4855 25.5905,94.1522 25.5,91.5C 27.4145,81.0793 31.0811,71.4126 36.5,62.5C 37.9063,62.0269 38.573,61.0269 38.5,59.5C 38.3284,58.5084 38.6618,57.8417 39.5,57.5C 40.9063,57.0269 41.573,56.0269 41.5,54.5C 42.9063,54.0269 43.573,53.0269 43.5,51.5C 45.2624,50.7377 46.2624,49.4044 46.5,47.5C 48.2624,46.7377 49.2624,45.4044 49.5,43.5C 51.117,40.2157 53.4503,37.5491 56.5,35.5C 59.7642,33.9059 62.4309,31.5725 64.5,28.5C 75.0393,18.3873 87.3727,11.054 101.5,6.5C 104.152,6.59047 106.485,5.92381 108.5,4.5C 112.163,2.58413 116.163,1.58413 120.5,1.5C 125.076,1.56214 129.409,0.895475 133.5,-0.5 Z M 225.5,173.5 C 231.182,177.008 237.182,180.008 243.5,182.5C 256.159,189.83 268.825,197.163 281.5,204.5C 281.973,205.906 282.973,206.573 284.5,206.5C 284.973,207.906 285.973,208.573 287.5,208.5C 289.223,210.218 291.223,211.551 293.5,212.5C 293.973,213.906 294.973,214.573 296.5,214.5C 304.435,220.59 312.268,226.923 320,233.5C 322.461,237.096 324.627,240.763 326.5,244.5C 326.721,247.067 327.388,249.401 328.5,251.5C 329.452,264.648 325.452,275.981 316.5,285.5C 314.251,286.08 312.585,287.413 311.5,289.5C 278.094,313.043 242.094,332.21 203.5,347C 185.355,351.451 170.355,346.617 158.5,332.5C 158.573,330.973 157.906,329.973 156.5,329.5C 153.737,322.779 152.07,315.779 151.5,308.5C 151.1,302.171 150.767,295.838 150.5,289.5C 149.528,271.796 149.862,254.129 151.5,236.5C 151.968,227.484 152.635,218.484 153.5,209.5C 153.682,192.97 160.348,179.803 173.5,170C 182.887,164.876 192.887,163.209 203.5,165C 210.964,167.543 218.297,170.376 225.5,173.5 Z"/></g>
<g><path style="opacity:0.878" fill="#619130" d="M 126.5,-0.5 C 128.833,-0.5 131.167,-0.5 133.5,-0.5C 129.409,0.895475 125.076,1.56214 120.5,1.5C 122.5,0.833333 124.5,0.166667 126.5,-0.5 Z"/></g>
<g><path style="opacity:0.353" fill="#56812a" d="M 171.5,2.5 C 174.373,2.80233 177.039,3.46899 179.5,4.5C 176.447,4.88934 173.78,4.22267 171.5,2.5 Z"/></g>
<g><path style="opacity:0.82" fill="#58842c" d="M 108.5,4.5 C 106.485,5.92381 104.152,6.59047 101.5,6.5C 103.515,5.07619 105.848,4.40953 108.5,4.5 Z"/></g>
<g><path style="opacity:1" fill="#6ba035" d="M 205.5,11.5 C 216.176,14.0595 226.509,17.3929 236.5,21.5C 234.143,21.6633 231.81,21.4966 229.5,21C 222.87,17.6861 216.203,15.1861 209.5,13.5C 208.914,13.7093 208.414,14.0426 208,14.5C 207.302,13.3094 206.469,12.3094 205.5,11.5 Z"/></g>
<g><path style="opacity:0.796" fill="#4b7126" d="M 64.5,28.5 C 62.4309,31.5725 59.7642,33.9059 56.5,35.5C 58.5691,32.4275 61.2358,30.0941 64.5,28.5 Z"/></g>
<g><path style="opacity:0.867" fill="#456724" d="M 49.5,43.5 C 49.2624,45.4044 48.2624,46.7377 46.5,47.5C 46.7376,45.5956 47.7376,44.2623 49.5,43.5 Z"/></g>
<g><path style="opacity:0.898" fill="#456724" d="M 46.5,47.5 C 46.2624,49.4044 45.2624,50.7377 43.5,51.5C 43.7376,49.5956 44.7376,48.2623 46.5,47.5 Z"/></g>
<g><path style="opacity:0.498" fill="#3a551e" d="M 43.5,51.5 C 43.573,53.0269 42.9063,54.0269 41.5,54.5C 41.427,52.9731 42.0937,51.9731 43.5,51.5 Z"/></g>
<g><path style="opacity:0.4" fill="#37521d" d="M 41.5,54.5 C 41.573,56.0269 40.9063,57.0269 39.5,57.5C 39.427,55.9731 40.0937,54.9731 41.5,54.5 Z"/></g>
<g><path style="opacity:1" fill="#57832c" d="M 314.5,55.5 C 316.674,55.7497 318.341,56.7497 319.5,58.5C 318.153,57.8288 316.986,57.8288 316,58.5C 315.487,57.4734 314.987,56.4734 314.5,55.5 Z"/></g>
<g><path style="opacity:0.322" fill="#304719" d="M 38.5,59.5 C 38.573,61.0269 37.9063,62.0269 36.5,62.5C 36.427,60.9731 37.0937,59.9731 38.5,59.5 Z"/></g>
<g><path style="opacity:1" fill="#659732" d="M 340.5,69.5 C 343.709,71.2651 346.709,73.2651 349.5,75.5C 346.946,74.3944 344.279,73.561 341.5,73C 340.663,71.9887 340.33,70.8221 340.5,69.5 Z"/></g>
<g><path style="opacity:0.804" fill="#466923" d="M 25.5,91.5 C 25.5905,94.1522 24.9238,96.4855 23.5,98.5C 23.4095,95.8478 24.0762,93.5145 25.5,91.5 Z"/></g>
<g><path style="opacity:1" fill="#669832" d="M 383.5,97.5 C 388.365,99.7629 392.698,102.763 396.5,106.5C 395.153,105.829 393.986,105.829 393,106.5C 392.044,105.421 391.211,104.255 390.5,103C 387.614,102.394 385.448,100.894 384,98.5C 383.667,98.8333 383.333,99.1667 383,99.5C 380.832,98.1776 380.999,97.5109 383.5,97.5 Z"/></g>
<g><path style="opacity:1" fill="#6ca236" d="M 397.5,107.5 C 402.527,110.345 407.194,113.679 411.5,117.5C 410.153,116.829 408.986,116.829 408,117.5C 404.445,114.698 401.112,111.698 398,108.5C 397.667,108.833 397.333,109.167 397,109.5C 394.832,108.178 394.999,107.511 397.5,107.5 Z"/></g>
<g><path style="opacity:0.671" fill="#507727" d="M 17.5,121.5 C 17.7062,124.495 17.0395,127.162 15.5,129.5C 15.5651,126.572 16.2318,123.905 17.5,121.5 Z"/></g>
<g><path style="opacity:1" fill="#689c34" d="M 225.5,173.5 C 227.199,173.34 228.866,173.506 230.5,174C 233.893,176.363 237.56,178.196 241.5,179.5C 242.425,180.357 243.092,181.357 243.5,182.5C 237.182,180.008 231.182,177.008 225.5,173.5 Z"/></g>
<g><path style="opacity:0.769" fill="#406022" d="M 482.5,180.5 C 483.906,180.973 484.573,181.973 484.5,183.5C 483.094,183.027 482.427,182.027 482.5,180.5 Z"/></g>
<g><path style="opacity:0.541" fill="#3c581f" d="M 486.5,185.5 C 487.906,185.973 488.573,186.973 488.5,188.5C 487.094,188.027 486.427,187.027 486.5,185.5 Z"/></g>
<g><path style="opacity:0.984" fill="#5b882d" d="M 5.5,183.5 C 5.6653,187.182 5.49863,190.848 5,194.5C 4.72158,195.416 4.22158,196.082 3.5,196.5C 3.62446,191.951 4.29112,187.618 5.5,183.5 Z"/></g>
<g><path style="opacity:0.435" fill="#436521" d="M 281.5,204.5 C 283.027,204.427 284.027,205.094 284.5,206.5C 282.973,206.573 281.973,205.906 281.5,204.5 Z"/></g>
<g><path style="opacity:0.424" fill="#3d5c1f" d="M 284.5,206.5 C 286.027,206.427 287.027,207.094 287.5,208.5C 285.973,208.573 284.973,207.906 284.5,206.5 Z"/></g>
<g><path style="opacity:0.518" fill="#446622" d="M 293.5,212.5 C 295.027,212.427 296.027,213.094 296.5,214.5C 294.973,214.573 293.973,213.906 293.5,212.5 Z"/></g>
<g><path style="opacity:0.794" fill="#4c7226" d="M 153.5,209.5 C 152.635,218.484 151.968,227.484 151.5,236.5C 150.839,234.866 150.506,233.033 150.5,231C 150.818,223.592 151.818,216.425 153.5,209.5 Z"/></g>
<g><path style="opacity:0.839" fill="#4d7326" d="M 506.5,224.5 C 508.258,227.854 509.258,231.521 509.5,235.5C 507.742,232.146 506.742,228.479 506.5,224.5 Z"/></g>
<g><path style="opacity:0.992" fill="#5f8f2f" d="M 509.5,236.5 C 510.167,238.833 510.833,241.167 511.5,243.5C 511.5,245.5 511.5,247.5 511.5,249.5C 510.732,248.737 510.232,247.737 510,246.5C 509.502,243.183 509.335,239.85 509.5,236.5 Z"/></g>
<g><path style="opacity:0.592" fill="#456622" d="M 326.5,244.5 C 328.163,246.438 328.829,248.772 328.5,251.5C 327.388,249.401 326.721,247.067 326.5,244.5 Z"/></g>
<g><path style="opacity:0.872" fill="#71aa38" d="M 0.5,228.5 C 1.16202,230.304 1.49535,232.304 1.5,234.5C 0.915866,252.662 0.2492,270.662 -0.5,288.5C -0.5,269.833 -0.5,251.167 -0.5,232.5C 0.434475,231.432 0.767809,230.099 0.5,228.5 Z"/></g>
<g><path style="opacity:0.102" fill="#3b581d" d="M 509.5,278.5 C 509.58,281.781 508.913,284.781 507.5,287.5C 507.42,284.219 508.087,281.219 509.5,278.5 Z"/></g>
<g><path style="opacity:0.698" fill="#547f2a" d="M 316.5,285.5 C 315.415,287.587 313.749,288.92 311.5,289.5C 312.585,287.413 314.251,286.08 316.5,285.5 Z"/></g>
<g><path style="opacity:0.718" fill="#57832b" d="M 150.5,289.5 C 150.767,295.838 151.1,302.171 151.5,308.5C 149.655,302.216 149.321,295.882 150.5,289.5 Z"/></g>
<g><path style="opacity:1" fill="#89c849" d="M 502.5,302.5 C 500.93,306.403 498.93,310.069 496.5,313.5C 484.265,309.02 471.598,306.52 458.5,306C 425.5,305.333 392.5,305.333 359.5,306C 334.082,305.557 313.915,315.39 299,335.5C 294.616,342.984 291.616,350.984 290,359.5C 288.539,395.798 288.039,432.132 288.5,468.5C 285.215,470.975 281.548,472.642 277.5,473.5C 278.23,471.955 279.563,471.122 281.5,471C 280.338,435.905 280.171,400.738 281,365.5C 284.902,326.264 306.402,304.098 345.5,299C 387.5,297 429.5,297 471.5,299C 478.323,299.565 484.99,300.898 491.5,303C 494.585,303.622 497.085,305.122 499,307.5C 499.36,305.392 500.027,303.392 501,301.5C 501.383,302.056 501.883,302.389 502.5,302.5 Z"/></g>
<g><path style="opacity:0.986" fill="#5c8a2e" d="M -0.5,291.5 C 1.2503,306.652 2.7503,321.985 4,337.5C 4.42356,339.976 5.2569,342.309 6.5,344.5C 5.69779,347.449 5.36446,350.449 5.5,353.5C 2.84179,337.575 0.841791,321.575 -0.5,305.5C -0.5,300.833 -0.5,296.167 -0.5,291.5 Z"/></g>
<g><path style="opacity:0.109" fill="#fcf9f9" d="M 503.5,300.5 C 506.167,301.833 508.833,303.167 511.5,304.5C 511.5,322.5 511.5,340.5 511.5,358.5C 511.167,358.5 510.833,358.5 510.5,358.5C 510.795,356.265 510.461,354.265 509.5,352.5C 509.087,347.182 507.587,342.182 505,337.5C 500.634,332.305 496.134,327.305 491.5,322.5C 492.11,321.609 492.443,320.609 492.5,319.5C 494.326,317.853 495.66,315.853 496.5,313.5C 498.93,310.069 500.93,306.403 502.5,302.5C 502.833,301.833 503.167,301.167 503.5,300.5 Z"/></g>
<g><path style="opacity:1" fill="#91cc56" d="M 496.5,313.5 C 495.66,315.853 494.326,317.853 492.5,319.5C 489.525,316.679 485.858,314.845 481.5,314C 475.282,312.278 468.949,311.278 462.5,311C 426.5,310.333 390.5,310.333 354.5,311C 320.206,312.965 300.039,330.799 294,364.5C 292.598,398.48 292.098,432.48 292.5,466.5C 291.713,468.104 290.38,468.771 288.5,468.5C 288.039,432.132 288.539,395.798 290,359.5C 291.616,350.984 294.616,342.984 299,335.5C 313.915,315.39 334.082,305.557 359.5,306C 392.5,305.333 425.5,305.333 458.5,306C 471.598,306.52 484.265,309.02 496.5,313.5 Z"/></g>
<g><path style="opacity:1" fill="#9ece66" d="M 492.5,319.5 C 492.443,320.609 492.11,321.609 491.5,322.5C 487.813,321.824 484.48,320.324 481.5,318C 477.531,317.147 473.531,316.481 469.5,316C 429.167,315.333 388.833,315.333 348.5,316C 337.306,316.711 327.639,320.878 319.5,328.5C 316.215,328.269 313.715,329.603 312,332.5C 311.508,333.549 311.674,334.549 312.5,335.5C 305.421,342.661 301.255,351.327 300,361.5C 298.208,395.542 298.042,429.542 299.5,463.5C 297.539,465.312 295.206,466.312 292.5,466.5C 292.098,432.48 292.598,398.48 294,364.5C 300.039,330.799 320.206,312.965 354.5,311C 390.5,310.333 426.5,310.333 462.5,311C 468.949,311.278 475.282,312.278 481.5,314C 485.858,314.845 489.525,316.679 492.5,319.5 Z"/></g>
<g><path style="opacity:1" fill="#fa566e" d="M 491.5,322.5 C 496.134,327.305 500.634,332.305 505,337.5C 507.587,342.182 509.087,347.182 509.5,352.5C 508.5,352.5 507.5,352.5 506.5,352.5C 506.5,355.833 506.5,359.167 506.5,362.5C 505.5,362.5 504.5,362.5 503.5,362.5C 503.784,359.223 503.451,356.057 502.5,353C 488.833,352.333 475.167,352.333 461.5,353C 460.718,355.74 460.218,358.574 460,361.5C 458.93,355.445 458.597,349.445 459,343.5C 458.667,344.833 458.333,346.167 458,347.5C 457.013,343.233 456.179,342.9 455.5,346.5C 454.181,345.103 452.514,344.437 450.5,344.5C 445.075,345.131 439.742,346.131 434.5,347.5C 430.267,347.539 426.267,348.205 422.5,349.5C 411.898,351.769 401.232,353.935 390.5,356C 386.088,356.595 382.088,358.095 378.5,360.5C 377.909,359.849 377.243,359.182 376.5,358.5C 379.064,356.684 379.064,354.851 376.5,353C 373.183,352.502 369.85,352.335 366.5,352.5C 366.5,351.5 366.5,350.5 366.5,349.5C 363.5,349.5 360.5,349.5 357.5,349.5C 357.5,350.5 357.5,351.5 357.5,352.5C 343.421,353.138 329.588,352.472 316,350.5C 314.951,352.107 313.451,352.773 311.5,352.5C 311.307,348.551 310.807,348.551 310,352.5C 309.722,351.584 309.222,350.918 308.5,350.5C 308.448,348.097 308.781,345.764 309.5,343.5C 312.089,337.984 315.422,332.984 319.5,328.5C 327.639,320.878 337.306,316.711 348.5,316C 388.833,315.333 429.167,315.333 469.5,316C 473.531,316.481 477.531,317.147 481.5,318C 484.48,320.324 487.813,321.824 491.5,322.5 Z"/></g>
<g><path style="opacity:0.424" fill="#364f1c" d="M 156.5,329.5 C 157.906,329.973 158.573,330.973 158.5,332.5C 157.094,332.027 156.427,331.027 156.5,329.5 Z"/></g>
<g><path style="opacity:1" fill="#fdf8f9" d="M 455.5,346.5 C 456.492,354.316 456.826,362.316 456.5,370.5C 456.5,379.833 456.5,389.167 456.5,398.5C 456.667,415.503 456.5,432.503 456,449.5C 454.738,451.784 453.572,454.118 452.5,456.5C 449.152,460.517 444.819,462.85 439.5,463.5C 434.13,463.608 428.797,463.275 423.5,462.5C 419.982,459.637 417.649,455.97 416.5,451.5C 415.992,442.163 420.325,436.33 429.5,434C 434.5,433 439.5,432 444.5,431C 446.141,429.871 447.141,428.371 447.5,426.5C 448.496,410.342 448.83,394.009 448.5,377.5C 444.958,377.187 441.625,377.521 438.5,378.5C 438.167,378.5 437.833,378.5 437.5,378.5C 431.884,378.656 426.551,379.656 421.5,381.5C 410.226,383.22 399.226,385.553 388.5,388.5C 387.883,388.611 387.383,388.944 387,389.5C 386.5,411.831 386.333,434.164 386.5,456.5C 385.641,470.684 377.975,477.684 363.5,477.5C 353.104,477.767 347.438,472.767 346.5,462.5C 346.385,459.591 347.051,456.925 348.5,454.5C 351.003,452.167 353.669,450.001 356.5,448C 357.793,447.51 359.127,447.343 360.5,447.5C 362.898,447.741 364.898,447.074 366.5,445.5C 369.079,444.772 371.746,444.272 374.5,444C 376.426,443.578 377.426,442.411 377.5,440.5C 378.498,414.005 378.831,387.339 378.5,360.5C 382.088,358.095 386.088,356.595 390.5,356C 401.232,353.935 411.898,351.769 422.5,349.5C 426.764,349.656 430.764,348.989 434.5,347.5C 439.742,346.131 445.075,345.131 450.5,344.5C 452.514,344.437 454.181,345.103 455.5,346.5 Z"/></g>
<g><path style="opacity:1" fill="#fc93a4" d="M 434.5,347.5 C 430.764,348.989 426.764,349.656 422.5,349.5C 426.267,348.205 430.267,347.539 434.5,347.5 Z"/></g>
<g><path style="opacity:1" fill="#fc4d66" d="M 378.5,360.5 C 378.831,387.339 378.498,414.005 377.5,440.5C 377.5,426.5 377.5,412.5 377.5,398.5C 377.5,392.5 377.5,386.5 377.5,380.5C 377.666,373.825 377.5,367.158 377,360.5C 376.502,363.817 376.335,367.15 376.5,370.5C 354.167,370.5 331.833,370.5 309.5,370.5C 309.666,366.486 309.499,362.486 309,358.5C 308.768,359.737 308.268,360.737 307.5,361.5C 307.185,357.629 307.518,353.962 308.5,350.5C 309.222,350.918 309.722,351.584 310,352.5C 310.807,348.551 311.307,348.551 311.5,352.5C 313.451,352.773 314.951,352.107 316,350.5C 329.588,352.472 343.421,353.138 357.5,352.5C 357.5,351.5 357.5,350.5 357.5,349.5C 360.5,349.5 363.5,349.5 366.5,349.5C 366.5,350.5 366.5,351.5 366.5,352.5C 369.85,352.335 373.183,352.502 376.5,353C 379.064,354.851 379.064,356.684 376.5,358.5C 377.243,359.182 377.909,359.849 378.5,360.5 Z"/></g>
<g><path style="opacity:1" fill="#fb4b65" d="M 509.5,352.5 C 509.5,354.5 509.5,356.5 509.5,358.5C 508.504,374.658 508.17,390.991 508.5,407.5C 507.434,396.26 505.934,384.927 504,373.5C 503.83,375.715 503.163,377.715 502,379.5C 489.246,378.511 476.413,378.178 463.5,378.5C 463.813,375.753 463.48,373.086 462.5,370.5C 461.833,379.833 461.167,389.167 460.5,398.5C 460.167,398.167 459.833,397.833 459.5,397.5C 459.198,388.156 458.198,379.156 456.5,370.5C 456.826,362.316 456.492,354.316 455.5,346.5C 456.179,342.9 457.013,343.233 458,347.5C 458.333,346.167 458.667,344.833 459,343.5C 458.597,349.445 458.93,355.445 460,361.5C 460.218,358.574 460.718,355.74 461.5,353C 475.167,352.333 488.833,352.333 502.5,353C 503.451,356.057 503.784,359.223 503.5,362.5C 504.5,362.5 505.5,362.5 506.5,362.5C 506.5,359.167 506.5,355.833 506.5,352.5C 507.5,352.5 508.5,352.5 509.5,352.5 Z"/></g>
<g><path style="opacity:1" fill="#b5da8a" d="M 309.5,343.5 C 308.781,345.764 308.448,348.097 308.5,350.5C 307.518,353.962 307.185,357.629 307.5,361.5C 306.502,394.329 306.168,427.329 306.5,460.5C 305.292,461.234 303.959,461.567 302.5,461.5C 302.333,433.165 302.5,404.831 303,376.5C 303.609,367.787 304.609,359.12 306,350.5C 306.728,347.813 307.895,345.48 309.5,343.5 Z"/></g>
<g><path style="opacity:0.694" fill="#496d24" d="M 7.5,368.5 C 9.22267,370.78 9.88934,373.447 9.5,376.5C 8.46899,374.039 7.80233,371.373 7.5,368.5 Z"/></g>
<g><path style="opacity:1" fill="#a9d779" d="M 319.5,328.5 C 315.422,332.984 312.089,337.984 309.5,343.5C 307.895,345.48 306.728,347.813 306,350.5C 304.609,359.12 303.609,367.787 303,376.5C 302.5,404.831 302.333,433.165 302.5,461.5C 301.71,462.401 300.71,463.068 299.5,463.5C 298.042,429.542 298.208,395.542 300,361.5C 301.255,351.327 305.421,342.661 312.5,335.5C 311.674,334.549 311.508,333.549 312,332.5C 313.715,329.603 316.215,328.269 319.5,328.5 Z"/></g>
<g><path style="opacity:1" fill="#fb4861" d="M 377.5,380.5 C 374.15,380.335 370.817,380.502 367.5,381C 370.146,381.497 372.813,381.664 375.5,381.5C 375.5,384.167 375.5,386.833 375.5,389.5C 353.486,389.501 331.486,389.834 309.5,390.5C 309.822,396.358 309.489,402.025 308.5,407.5C 308.829,392.324 308.496,377.324 307.5,362.5C 307.5,362.167 307.5,361.833 307.5,361.5C 308.268,360.737 308.768,359.737 309,358.5C 309.499,362.486 309.666,366.486 309.5,370.5C 331.833,370.5 354.167,370.5 376.5,370.5C 376.335,367.15 376.502,363.817 377,360.5C 377.5,367.158 377.666,373.825 377.5,380.5 Z"/></g>
<g><path style="opacity:1" fill="#f77b86" d="M 437.5,378.5 C 436.152,379.186 434.985,380.186 434,381.5C 429.901,380.576 425.735,380.576 421.5,381.5C 426.551,379.656 431.884,378.656 437.5,378.5 Z"/></g>
<g><path style="opacity:0.82" fill="#517928" d="M 10.5,383.5 C 11.1174,383.611 11.6174,383.944 12,384.5C 12.4955,386.473 12.6621,388.473 12.5,390.5C 11.3882,388.401 10.7215,386.067 10.5,383.5 Z"/></g>
<g><path style="opacity:1" fill="#fa425a" d="M 437.5,378.5 C 437.833,378.5 438.167,378.5 438.5,378.5C 439.167,378.5 439.833,378.5 440.5,378.5C 442.218,379.224 444.052,379.891 446,380.5C 446.167,382 446.333,383.5 446.5,385C 446.034,396.332 445.034,406.832 443.5,416.5C 440.5,416.5 437.5,416.5 434.5,416.5C 434.5,415.167 434.5,413.833 434.5,412.5C 424.833,412.5 415.167,412.5 405.5,412.5C 405.5,413.833 405.5,415.167 405.5,416.5C 402.223,416.216 399.057,416.549 396,417.5C 394.913,414.309 394.08,410.975 393.5,407.5C 392.833,410.5 392.167,413.5 391.5,416.5C 390.794,406.986 389.794,397.653 388.5,388.5C 399.226,385.553 410.226,383.22 421.5,381.5C 425.735,380.576 429.901,380.576 434,381.5C 434.985,380.186 436.152,379.186 437.5,378.5 Z"/></g>
<g><path style="opacity:1" fill="#fd7f91" d="M 438.5,378.5 C 441.625,377.521 444.958,377.187 448.5,377.5C 448.83,394.009 448.496,410.342 447.5,426.5C 447.5,410.5 447.5,394.5 447.5,378.5C 445.167,378.5 442.833,378.5 440.5,378.5C 439.833,378.5 439.167,378.5 438.5,378.5 Z"/></g>
<g><path style="opacity:1" fill="#fa425a" d="M 456.5,370.5 C 458.198,379.156 459.198,388.156 459.5,397.5C 459.833,397.833 460.167,398.167 460.5,398.5C 461.167,389.167 461.833,379.833 462.5,370.5C 463.48,373.086 463.813,375.753 463.5,378.5C 476.413,378.178 489.246,378.511 502,379.5C 503.163,377.715 503.83,375.715 504,373.5C 505.934,384.927 507.434,396.26 508.5,407.5C 508.665,410.518 508.498,413.518 508,416.5C 507.497,411.81 506.83,407.143 506,402.5C 505.501,407.489 505.334,412.489 505.5,417.5C 497.833,416.973 490.166,416.307 482.5,415.5C 482.833,414.833 483.167,414.167 483.5,413.5C 479.893,412.511 476.226,412.177 472.5,412.5C 472.33,413.822 472.663,414.989 473.5,416C 470.183,416.498 466.85,416.665 463.5,416.5C 463.666,411.489 463.499,406.489 463,401.5C 462.501,406.823 462.334,412.156 462.5,417.5C 461.681,420.305 461.181,423.305 461,426.5C 460.739,418.13 460.072,409.797 459,401.5C 458.764,399.881 457.931,398.881 456.5,398.5C 456.5,389.167 456.5,379.833 456.5,370.5 Z"/></g>
<g><path style="opacity:1" fill="#fb4159" d="M 377.5,380.5 C 377.5,386.5 377.5,392.5 377.5,398.5C 376.521,401.625 376.187,404.958 376.5,408.5C 375.566,409.568 375.232,410.901 375.5,412.5C 372.428,412.183 369.428,412.516 366.5,413.5C 366.833,414.167 367.167,414.833 367.5,415.5C 364.232,416.487 360.898,416.82 357.5,416.5C 357.5,415.167 357.5,413.833 357.5,412.5C 354.167,412.5 350.833,412.5 347.5,412.5C 347.5,413.833 347.5,415.167 347.5,416.5C 341.132,416.83 334.798,416.496 328.5,415.5C 328.833,414.833 329.167,414.167 329.5,413.5C 322.866,412.503 316.2,412.17 309.5,412.5C 309.66,414.199 309.494,415.866 309,417.5C 308.502,414.183 308.335,410.85 308.5,407.5C 309.489,402.025 309.822,396.358 309.5,390.5C 331.486,389.834 353.486,389.501 375.5,389.5C 375.5,386.833 375.5,384.167 375.5,381.5C 372.813,381.664 370.146,381.497 367.5,381C 370.817,380.502 374.15,380.335 377.5,380.5 Z"/></g>
<g><path style="opacity:1" fill="#ed7a80" d="M 307.5,361.5 C 307.5,361.833 307.5,362.167 307.5,362.5C 307.5,383.833 307.5,405.167 307.5,426.5C 307.3,442.517 307.634,458.517 308.5,474.5C 307.778,474.082 307.278,473.416 307,472.5C 306.501,468.514 306.334,464.514 306.5,460.5C 306.168,427.329 306.502,394.329 307.5,361.5 Z"/></g>
<g><path style="opacity:0.604" fill="#446722" d="M 14.5,400.5 C 16.1628,402.438 16.8294,404.772 16.5,407.5C 15.3882,405.401 14.7215,403.067 14.5,400.5 Z"/></g>
<g><path style="opacity:1" fill="#fb3a54" d="M 509.5,358.5 C 509.5,381.167 509.5,403.833 509.5,426.5C 508.85,426.196 508.183,425.863 507.5,425.5C 506.213,428.709 506.213,431.875 507.5,435C 506.987,444.583 506.154,454.083 505,463.5C 504.598,451.135 503.765,438.801 502.5,426.5C 501.573,428.113 500.739,429.779 500,431.5C 488.084,429.533 475.918,428.866 463.5,429.5C 463.817,425.298 463.483,421.298 462.5,417.5C 462.334,412.156 462.501,406.823 463,401.5C 463.499,406.489 463.666,411.489 463.5,416.5C 466.85,416.665 470.183,416.498 473.5,416C 472.663,414.989 472.33,413.822 472.5,412.5C 476.226,412.177 479.893,412.511 483.5,413.5C 483.167,414.167 482.833,414.833 482.5,415.5C 490.166,416.307 497.833,416.973 505.5,417.5C 505.334,412.489 505.501,407.489 506,402.5C 506.83,407.143 507.497,411.81 508,416.5C 508.498,413.518 508.665,410.518 508.5,407.5C 508.17,390.991 508.504,374.658 509.5,358.5 Z"/></g>
<g><path style="opacity:1" fill="#fa3c53" d="M 440.5,378.5 C 442.833,378.5 445.167,378.5 447.5,378.5C 447.5,394.5 447.5,410.5 447.5,426.5C 447.141,428.371 446.141,429.871 444.5,431C 439.5,432 434.5,433 429.5,434C 420.325,436.33 415.992,442.163 416.5,451.5C 415.883,451.389 415.383,451.056 415,450.5C 414.51,451.793 414.343,453.127 414.5,454.5C 408.107,454.793 401.773,454.46 395.5,453.5C 394.029,454.381 393.196,455.714 393,457.5C 392.167,456.5 391.333,455.5 390.5,454.5C 390.664,441.796 389.831,429.129 388,416.5C 387.831,430.006 387.331,443.34 386.5,456.5C 386.333,434.164 386.5,411.831 387,389.5C 387.383,388.944 387.883,388.611 388.5,388.5C 389.794,397.653 390.794,406.986 391.5,416.5C 392.167,413.5 392.833,410.5 393.5,407.5C 394.08,410.975 394.913,414.309 396,417.5C 399.057,416.549 402.223,416.216 405.5,416.5C 405.5,415.167 405.5,413.833 405.5,412.5C 415.167,412.5 424.833,412.5 434.5,412.5C 434.5,413.833 434.5,415.167 434.5,416.5C 437.5,416.5 440.5,416.5 443.5,416.5C 445.034,406.832 446.034,396.332 446.5,385C 446.333,383.5 446.167,382 446,380.5C 444.052,379.891 442.218,379.224 440.5,378.5 Z"/></g>
<g><path style="opacity:1" fill="#fb3b54" d="M 307.5,362.5 C 308.496,377.324 308.829,392.324 308.5,407.5C 308.335,410.85 308.502,414.183 309,417.5C 309.494,415.866 309.66,414.199 309.5,412.5C 316.2,412.17 322.866,412.503 329.5,413.5C 329.167,414.167 328.833,414.833 328.5,415.5C 334.798,416.496 341.132,416.83 347.5,416.5C 347.5,415.167 347.5,413.833 347.5,412.5C 350.833,412.5 354.167,412.5 357.5,412.5C 357.5,413.833 357.5,415.167 357.5,416.5C 360.898,416.82 364.232,416.487 367.5,415.5C 367.167,414.833 366.833,414.167 366.5,413.5C 369.428,412.516 372.428,412.183 375.5,412.5C 375.232,410.901 375.566,409.568 376.5,408.5C 376.72,415.543 376.386,422.543 375.5,429.5C 353.435,428.851 331.602,429.517 310,431.5C 309.802,429.618 309.302,427.952 308.5,426.5C 308.167,426.5 307.833,426.5 307.5,426.5C 307.5,405.167 307.5,383.833 307.5,362.5 Z"/></g>
<g><path style="opacity:1" fill="#58832c" d="M 21.5,424.5 C 22.3094,425.469 23.3094,426.302 24.5,427C 23.6198,428.356 23.2865,429.856 23.5,431.5C 22.3882,429.401 21.7215,427.067 21.5,424.5 Z"/></g>
<g><path style="opacity:1" fill="#fb354e" d="M 456.5,398.5 C 457.931,398.881 458.764,399.881 459,401.5C 460.072,409.797 460.739,418.13 461,426.5C 461.181,423.305 461.681,420.305 462.5,417.5C 463.483,421.298 463.817,425.298 463.5,429.5C 475.918,428.866 488.084,429.533 500,431.5C 500.739,429.779 501.573,428.113 502.5,426.5C 503.765,438.801 504.598,451.135 505,463.5C 506.154,454.083 506.987,444.583 507.5,435C 506.213,431.875 506.213,428.709 507.5,425.5C 508.183,425.863 508.85,426.196 509.5,426.5C 509.775,443.195 509.441,459.861 508.5,476.5C 507.996,480.5 506.663,484.166 504.5,487.5C 503.999,480.131 503.332,472.464 502.5,464.5C 503.628,457.884 503.795,451.218 503,444.5C 502.788,447.758 502.288,450.924 501.5,454C 488.838,454.5 476.171,454.667 463.5,454.5C 463.649,453.448 463.483,452.448 463,451.5C 460.922,454.354 458.755,454.688 456.5,452.5C 455.591,454.375 454.257,455.708 452.5,456.5C 453.572,454.118 454.738,451.784 456,449.5C 456.5,432.503 456.667,415.503 456.5,398.5 Z"/></g>
<g><path style="opacity:1" fill="#fb364e" d="M 377.5,398.5 C 377.5,412.5 377.5,426.5 377.5,440.5C 377.426,442.411 376.426,443.578 374.5,444C 371.746,444.272 369.079,444.772 366.5,445.5C 364.102,445.259 362.102,445.926 360.5,447.5C 359.127,447.343 357.793,447.51 356.5,448C 353.669,450.001 351.003,452.167 348.5,454.5C 347.752,452.265 346.919,452.598 346,455.5C 344.964,458.753 344.297,462.086 344,465.5C 343.503,462.854 343.336,460.187 343.5,457.5C 340.671,457.325 339.004,458.658 338.5,461.5C 335.444,459.711 332.111,459.044 328.5,459.5C 328.5,457.833 328.5,456.167 328.5,454.5C 321.833,454.5 315.167,454.5 308.5,454.5C 308.5,445.167 308.5,435.833 308.5,426.5C 309.302,427.952 309.802,429.618 310,431.5C 331.602,429.517 353.435,428.851 375.5,429.5C 376.386,422.543 376.72,415.543 376.5,408.5C 376.187,404.958 376.521,401.625 377.5,398.5 Z"/></g>
<g><path style="opacity:0.894" fill="#fb657c" d="M 509.5,352.5 C 510.461,354.265 510.795,356.265 510.5,358.5C 510.667,397.168 510.5,435.835 510,474.5C 509.722,475.416 509.222,476.082 508.5,476.5C 509.441,459.861 509.775,443.195 509.5,426.5C 509.5,403.833 509.5,381.167 509.5,358.5C 509.5,356.5 509.5,354.5 509.5,352.5 Z"/></g>
<g><path style="opacity:0.984" fill="#619131" d="M 34.5,456.5 C 36.1033,456.312 37.4366,456.812 38.5,458C 38.1667,458.333 37.8333,458.667 37.5,459C 38.6721,459.419 39.6721,460.085 40.5,461C 39.8288,461.986 39.8288,463.153 40.5,464.5C 38.1468,462.14 36.1468,459.473 34.5,456.5 Z"/></g>
<g><path style="opacity:0.192" fill="#fefcfc" d="M 306.5,460.5 C 306.334,464.514 306.501,468.514 307,472.5C 307.278,473.416 307.778,474.082 308.5,474.5C 309.139,480.425 311.139,485.759 314.5,490.5C 317.906,496.241 322.572,500.574 328.5,503.5C 331.437,505.589 334.77,507.089 338.5,508C 342.208,508.838 345.875,509.671 349.5,510.5C 349.5,510.833 349.5,511.167 349.5,511.5C 327.167,511.5 304.833,511.5 282.5,511.5C 278.338,499.58 276.338,487.246 276.5,474.5C 277.167,474.5 277.5,474.167 277.5,473.5C 281.548,472.642 285.215,470.975 288.5,468.5C 290.38,468.771 291.713,468.104 292.5,466.5C 295.206,466.312 297.539,465.312 299.5,463.5C 300.71,463.068 301.71,462.401 302.5,461.5C 303.959,461.567 305.292,461.234 306.5,460.5 Z"/></g>
<g><path style="opacity:0.382" fill="#fef2f3" d="M 510.5,358.5 C 510.833,358.5 511.167,358.5 511.5,358.5C 511.5,409.5 511.5,460.5 511.5,511.5C 457.5,511.5 403.5,511.5 349.5,511.5C 349.5,511.167 349.5,510.833 349.5,510.5C 388.167,510.5 426.833,510.5 465.5,510.5C 469.971,511.089 473.971,510.423 477.5,508.5C 488.127,505.686 496.461,499.686 502.5,490.5C 503.401,489.71 504.068,488.71 504.5,487.5C 506.663,484.166 507.996,480.5 508.5,476.5C 509.222,476.082 509.722,475.416 510,474.5C 510.5,435.835 510.667,397.168 510.5,358.5 Z"/></g>
<g><path style="opacity:1" fill="#f92d46" d="M 416.5,451.5 C 417.649,455.97 419.982,459.637 423.5,462.5C 426.356,464.006 429.523,464.672 433,464.5C 435.361,464.496 437.527,464.163 439.5,463.5C 444.819,462.85 449.152,460.517 452.5,456.5C 454.257,455.708 455.591,454.375 456.5,452.5C 458.755,454.688 460.922,454.354 463,451.5C 463.483,452.448 463.649,453.448 463.5,454.5C 476.171,454.667 488.838,454.5 501.5,454C 502.288,450.924 502.788,447.758 503,444.5C 503.795,451.218 503.628,457.884 502.5,464.5C 503.332,472.464 503.999,480.131 504.5,487.5C 504.068,488.71 503.401,489.71 502.5,490.5C 502.162,488.146 501.662,485.813 501,483.5C 500.667,484.167 500.333,484.833 500,485.5C 461.048,483.841 421.881,482.841 382.5,482.5C 382.192,481.692 381.692,481.025 381,480.5C 377.89,481.673 377.723,481.173 380.5,479C 377.131,479.883 373.631,480.716 370,481.5C 367.7,480.225 365.533,480.559 363.5,482.5C 359.721,482.055 356.221,482.055 353,482.5C 352.667,481.833 352.333,481.167 352,480.5C 341.333,481.833 330.667,481.833 320,480.5C 318.728,484.239 316.894,487.573 314.5,490.5C 311.139,485.759 309.139,480.425 308.5,474.5C 307.634,458.517 307.3,442.517 307.5,426.5C 307.833,426.5 308.167,426.5 308.5,426.5C 308.5,435.833 308.5,445.167 308.5,454.5C 315.167,454.5 321.833,454.5 328.5,454.5C 328.5,456.167 328.5,457.833 328.5,459.5C 332.111,459.044 335.444,459.711 338.5,461.5C 339.004,458.658 340.671,457.325 343.5,457.5C 343.336,460.187 343.503,462.854 344,465.5C 344.297,462.086 344.964,458.753 346,455.5C 346.919,452.598 347.752,452.265 348.5,454.5C 347.051,456.925 346.385,459.591 346.5,462.5C 347.438,472.767 353.104,477.767 363.5,477.5C 377.975,477.684 385.641,470.684 386.5,456.5C 387.331,443.34 387.831,430.006 388,416.5C 389.831,429.129 390.664,441.796 390.5,454.5C 391.333,455.5 392.167,456.5 393,457.5C 393.196,455.714 394.029,454.381 395.5,453.5C 401.773,454.46 408.107,454.793 414.5,454.5C 414.343,453.127 414.51,451.793 415,450.5C 415.383,451.056 415.883,451.389 416.5,451.5 Z"/></g>
<g><path style="opacity:1" fill="#f9c1c9" d="M 423.5,462.5 C 428.797,463.275 434.13,463.608 439.5,463.5C 437.527,464.163 435.361,464.496 433,464.5C 429.523,464.672 426.356,464.006 423.5,462.5 Z"/></g>
<g><path style="opacity:1" fill="#feadb7" d="M 366.5,445.5 C 364.898,447.074 362.898,447.741 360.5,447.5C 362.102,445.926 364.102,445.259 366.5,445.5 Z"/></g>
<g><path style="opacity:0.839" fill="#436323" d="M 56.5,481.5 C 58.4044,481.738 59.7377,482.738 60.5,484.5C 58.5956,484.262 57.2623,483.262 56.5,481.5 Z"/></g>
<g><path style="opacity:1" fill="#fa2842" d="M 502.5,490.5 C 496.461,499.686 488.127,505.686 477.5,508.5C 476.833,508.5 476.167,508.5 475.5,508.5C 475.179,506.952 474.179,506.285 472.5,506.5C 472.5,504.833 472.5,503.167 472.5,501.5C 475.073,501.852 477.406,501.352 479.5,500C 474.182,499.978 468.849,500.145 463.5,500.5C 463.492,497.455 463.159,494.455 462.5,491.5C 459.833,491.5 457.167,491.5 454.5,491.5C 453.705,495.785 453.372,500.119 453.5,504.5C 450.428,504.817 447.428,504.484 444.5,503.5C 444.296,499.637 443.963,495.637 443.5,491.5C 437.5,491.5 431.5,491.5 425.5,491.5C 424.841,494.455 424.508,497.455 424.5,500.5C 421.5,500.5 418.5,500.5 415.5,500.5C 415.492,497.455 415.159,494.455 414.5,491.5C 408.5,491.5 402.5,491.5 396.5,491.5C 395.705,495.785 395.372,500.119 395.5,504.5C 392.5,504.5 389.5,504.5 386.5,504.5C 386.5,503.167 386.5,501.833 386.5,500.5C 383.482,500.665 380.482,500.498 377.5,500C 376.556,497.281 376.223,494.448 376.5,491.5C 370.167,491.5 363.833,491.5 357.5,491.5C 357.664,494.187 357.497,496.854 357,499.5C 353.591,500.622 350.091,500.789 346.5,500C 347.523,497.226 347.523,494.393 346.5,491.5C 340.107,491.207 333.773,491.54 327.5,492.5C 326.833,491.833 326.167,491.167 325.5,490.5C 325.167,491 324.833,491.5 324.5,492C 325.134,496.115 327.134,499.282 330.5,501.5C 329.757,502.182 329.091,502.849 328.5,503.5C 322.572,500.574 317.906,496.241 314.5,490.5C 316.894,487.573 318.728,484.239 320,480.5C 330.667,481.833 341.333,481.833 352,480.5C 352.333,481.167 352.667,481.833 353,482.5C 356.221,482.055 359.721,482.055 363.5,482.5C 365.533,480.559 367.7,480.225 370,481.5C 373.631,480.716 377.131,479.883 380.5,479C 377.723,481.173 377.89,481.673 381,480.5C 381.692,481.025 382.192,481.692 382.5,482.5C 421.881,482.841 461.048,483.841 500,485.5C 500.333,484.833 500.667,484.167 501,483.5C 501.662,485.813 502.162,488.146 502.5,490.5 Z"/></g>
<g><path style="opacity:0.471" fill="#426321" d="M 68.5,490.5 C 70.0269,490.427 71.0269,491.094 71.5,492.5C 69.9731,492.573 68.9731,491.906 68.5,490.5 Z"/></g>
<g><path style="opacity:0.427" fill="#456822" d="M 73.5,493.5 C 75.0269,493.427 76.0269,494.094 76.5,495.5C 74.9731,495.573 73.9731,494.906 73.5,493.5 Z"/></g>
<g><path style="opacity:1" fill="#fa283f" d="M 475.5,508.5 C 472.017,509.01 468.684,509.677 465.5,510.5C 426.833,510.5 388.167,510.5 349.5,510.5C 345.875,509.671 342.208,508.838 338.5,508C 334.77,507.089 331.437,505.589 328.5,503.5C 329.091,502.849 329.757,502.182 330.5,501.5C 327.134,499.282 325.134,496.115 324.5,492C 324.833,491.5 325.167,491 325.5,490.5C 326.167,491.167 326.833,491.833 327.5,492.5C 333.773,491.54 340.107,491.207 346.5,491.5C 347.523,494.393 347.523,497.226 346.5,500C 350.091,500.789 353.591,500.622 357,499.5C 357.497,496.854 357.664,494.187 357.5,491.5C 363.833,491.5 370.167,491.5 376.5,491.5C 376.223,494.448 376.556,497.281 377.5,500C 380.482,500.498 383.482,500.665 386.5,500.5C 386.5,501.833 386.5,503.167 386.5,504.5C 389.5,504.5 392.5,504.5 395.5,504.5C 395.372,500.119 395.705,495.785 396.5,491.5C 402.5,491.5 408.5,491.5 414.5,491.5C 415.159,494.455 415.492,497.455 415.5,500.5C 418.5,500.5 421.5,500.5 424.5,500.5C 424.508,497.455 424.841,494.455 425.5,491.5C 431.5,491.5 437.5,491.5 443.5,491.5C 443.963,495.637 444.296,499.637 444.5,503.5C 447.428,504.484 450.428,504.817 453.5,504.5C 453.372,500.119 453.705,495.785 454.5,491.5C 457.167,491.5 459.833,491.5 462.5,491.5C 463.159,494.455 463.492,497.455 463.5,500.5C 468.849,500.145 474.182,499.978 479.5,500C 477.406,501.352 475.073,501.852 472.5,501.5C 472.5,503.167 472.5,504.833 472.5,506.5C 474.179,506.285 475.179,506.952 475.5,508.5 Z"/></g>
<g><path style="opacity:0.616" fill="#57832b" d="M 103.5,506.5 C 106.152,506.41 108.485,507.076 110.5,508.5C 107.848,508.59 105.515,507.924 103.5,506.5 Z"/></g>
<g><path style="opacity:0.565" fill="#fec7ce" d="M 475.5,508.5 C 476.167,508.5 476.833,508.5 477.5,508.5C 473.971,510.423 469.971,511.089 465.5,510.5C 468.684,509.677 472.017,509.01 475.5,508.5 Z"/></g>
</svg>
