<?xml version="1.0" encoding="UTF-8"?>
<!DOCTYPE svg PUBLIC "-//W3C//DTD SVG 1.1//EN" "http://www.w3.org/Graphics/SVG/1.1/DTD/svg11.dtd">
<svg xmlns="http://www.w3.org/2000/svg" version="1.1" width="512px" height="512px" style="shape-rendering:geometricPrecision; text-rendering:geometricPrecision; image-rendering:optimizeQuality; fill-rule:evenodd; clip-rule:evenodd" xmlns:xlink="http://www.w3.org/1999/xlink">
<g><path style="opacity:0.993" fill="#000000" d="M 392.5,416.5 C 392.103,415.475 391.437,415.308 390.5,416C 387.98,417.697 385.647,419.53 383.5,421.5C 381.147,422.34 379.147,423.674 377.5,425.5C 375.326,425.75 373.659,426.75 372.5,428.5C 365.731,430.414 359.397,433.081 353.5,436.5C 351.698,437.458 349.698,438.125 347.5,438.5C 345.473,438.338 343.473,438.505 341.5,439C 340.944,439.383 340.611,439.883 340.5,440.5C 338.833,440.5 337.167,440.5 335.5,440.5C 328.141,441.703 320.808,441.703 313.5,440.5C 304.603,439.873 297.27,436.206 291.5,429.5C 290.167,427.5 288.5,425.833 286.5,424.5C 281.704,419.113 275.704,415.78 268.5,414.5C 253,413.607 237.333,413.607 221.5,414.5C 218.214,413.793 214.881,413.46 211.5,413.5C 205.155,411.488 199.488,408.154 194.5,403.5C 193.92,401.251 192.587,399.585 190.5,398.5C 185.652,390.796 180.819,383.129 176,375.5C 171.952,370.573 167.785,365.74 163.5,361C 161.286,359.727 158.953,358.727 156.5,358C 147.817,357.413 139.151,357.58 130.5,358.5C 119.91,360.613 109.244,362.78 98.5,365C 97.944,365.383 97.6107,365.883 97.5,366.5C 94.7531,366.187 92.0865,366.52 89.5,367.5C 86.7051,367.938 84.3717,368.938 82.5,370.5C 70.4892,372.909 59.4892,370.742 49.5,364C 47.2507,362.255 45.5841,360.088 44.5,357.5C 43.3347,348.518 43.168,339.518 44,330.5C 47.5017,322.48 51.0017,314.48 54.5,306.5C 55.7348,306.279 56.7348,305.612 57.5,304.5C 58.4749,301.848 59.8082,299.514 61.5,297.5C 63.9547,295.368 65.6214,292.701 66.5,289.5C 69.2956,282.378 73.2956,276.045 78.5,270.5C 80.9535,263.4 84.6202,257.066 89.5,251.5C 91.2451,249.967 92.2451,247.967 92.5,245.5C 94.1284,240.91 96.2951,236.577 99,232.5C 99.49,231.207 99.6567,229.873 99.5,228.5C 100.117,228.389 100.617,228.056 101,227.5C 101.816,222.316 101.65,217.316 100.5,212.5C 99.9049,209.683 98.5716,207.35 96.5,205.5C 94.1298,202.14 91.7965,198.807 89.5,195.5C 87.727,190.465 86.0603,185.465 84.5,180.5C 84.5,174.5 84.5,168.5 84.5,162.5C 86.1988,157.654 87.5321,152.654 88.5,147.5C 89.5905,143.558 91.2572,139.891 93.5,136.5C 95.942,134.879 97.2753,132.546 97.5,129.5C 104.279,117.378 112.946,106.712 123.5,97.5C 126.167,95.5 128.5,93.1667 130.5,90.5C 130.5,89.8333 130.5,89.1667 130.5,88.5C 157.371,67.1566 187.704,53.6566 221.5,48C 316.942,35.5986 390.442,70.0986 442,151.5C 465.438,194.497 473.771,240.497 467,289.5C 458.169,334.994 437.335,374.16 404.5,407C 400.649,410.35 396.649,413.517 392.5,416.5 Z M 315.5,296.5 C 314.508,296.328 313.842,296.662 313.5,297.5C 309.993,299.754 306.327,301.754 302.5,303.5C 296.474,305.884 290.474,308.218 284.5,310.5C 283.167,310.833 281.833,311.167 280.5,311.5C 279.833,311.5 279.167,311.5 278.5,311.5C 263.42,316.641 252.587,311.975 246,297.5C 238.61,274.522 237.61,251.189 243,227.5C 244.58,221.008 247.246,215.008 251,209.5C 253.559,206.469 256.726,204.302 260.5,203C 276.98,201.962 292.313,205.628 306.5,214C 321.79,221.899 334.624,232.732 345,246.5C 349.667,254.167 349.667,261.833 345,269.5C 340.844,274.988 336.344,280.154 331.5,285C 326.265,289.084 320.931,292.917 315.5,296.5 Z"/></g>
<g><path style="opacity:0.863" fill="#51470a" d="M 130.5,90.5 C 128.5,93.1667 126.167,95.5 123.5,97.5C 124.833,94.1667 127.167,91.8333 130.5,90.5 Z"/></g>
<g><path style="opacity:0.971" fill="#f8d401" d="M 130.5,88.5 C 130.5,89.1667 130.5,89.8333 130.5,90.5C 127.167,91.8333 124.833,94.1667 123.5,97.5C 112.946,106.712 104.279,117.378 97.5,129.5C 95.8009,131.566 94.4676,133.9 93.5,136.5C 91.2572,139.891 89.5905,143.558 88.5,147.5C 86.0085,152.021 84.6752,157.021 84.5,162.5C 84.5,168.5 84.5,174.5 84.5,180.5C 84.5916,186.213 86.2583,191.213 89.5,195.5C 90.2534,199.923 92.5867,203.256 96.5,205.5C 98.5716,207.35 99.9049,209.683 100.5,212.5C 100.733,217.895 100.4,223.228 99.5,228.5C 99.6567,229.873 99.49,231.207 99,232.5C 96.2951,236.577 94.1284,240.91 92.5,245.5C 90.7549,247.033 89.7549,249.033 89.5,251.5C 84.6202,257.066 80.9535,263.4 78.5,270.5C 73.2956,276.045 69.2956,282.378 66.5,289.5C 64.1204,291.582 62.4538,294.249 61.5,297.5C 59.8082,299.514 58.4749,301.848 57.5,304.5C 56.7348,305.612 55.7348,306.279 54.5,306.5C 36.8433,227.859 56.1766,160.026 112.5,103C 118.085,97.574 124.085,92.7407 130.5,88.5 Z"/></g>
<g><path style="opacity:0.91" fill="#564a0d" d="M 97.5,129.5 C 97.2753,132.546 95.942,134.879 93.5,136.5C 94.4676,133.9 95.8009,131.566 97.5,129.5 Z"/></g>
<g><path style="opacity:0.925" fill="#71600b" d="M 88.5,147.5 C 87.5321,152.654 86.1988,157.654 84.5,162.5C 84.6752,157.021 86.0085,152.021 88.5,147.5 Z"/></g>
<g><path style="opacity:0.914" fill="#9d850b" d="M 260.5,155.5 C 265.783,155.096 270.783,155.762 275.5,157.5C 270.269,157.556 265.269,156.889 260.5,155.5 Z"/></g>
<g><path style="opacity:0.831" fill="#72610a" d="M 245.5,155.5 C 243.967,157.245 241.967,158.245 239.5,158.5C 241.033,156.755 243.033,155.755 245.5,155.5 Z"/></g>
<g><path style="opacity:0.979" fill="#f8d401" d="M 245.5,155.5 C 250.5,155.5 255.5,155.5 260.5,155.5C 265.269,156.889 270.269,157.556 275.5,157.5C 280.907,159.174 286.241,160.84 291.5,162.5C 293.033,164.245 295.033,165.245 297.5,165.5C 300.927,166.05 303.927,167.384 306.5,169.5C 308.612,171.771 311.279,173.104 314.5,173.5C 332.47,183.611 348.637,196.277 363,211.5C 364.856,214.556 366.689,217.556 368.5,220.5C 368.642,224.056 369.476,227.39 371,230.5C 371.499,234.821 371.666,239.154 371.5,243.5C 370.774,246.179 369.941,248.846 369,251.5C 357.913,267.755 344.079,281.089 327.5,291.5C 324.249,292.454 321.582,294.12 319.5,296.5C 317.965,297.354 316.632,297.354 315.5,296.5C 320.931,292.917 326.265,289.084 331.5,285C 336.344,280.154 340.844,274.988 345,269.5C 349.667,261.833 349.667,254.167 345,246.5C 334.624,232.732 321.79,221.899 306.5,214C 292.313,205.628 276.98,201.962 260.5,203C 256.726,204.302 253.559,206.469 251,209.5C 247.246,215.008 244.58,221.008 243,227.5C 237.61,251.189 238.61,274.522 246,297.5C 252.587,311.975 263.42,316.641 278.5,311.5C 279.674,313.368 279.007,314.368 276.5,314.5C 263.644,317.473 250.978,317.14 238.5,313.5C 235.606,312.118 233.106,310.118 231,307.5C 228.853,304.347 226.686,301.18 224.5,298C 223.091,292.611 221.425,287.445 219.5,282.5C 219.662,280.473 219.495,278.473 219,276.5C 218.044,273.353 216.877,270.353 215.5,267.5C 215.736,264.391 215.403,261.391 214.5,258.5C 213.597,236.958 214.93,215.624 218.5,194.5C 218.216,192.585 218.549,190.919 219.5,189.5C 222.114,184.87 224.114,179.87 225.5,174.5C 228.073,167.265 232.74,161.931 239.5,158.5C 241.967,158.245 243.967,157.245 245.5,155.5 Z"/></g>
<g><path style="opacity:0.922" fill="#7d6b0a" d="M 291.5,162.5 C 293.967,162.755 295.967,163.755 297.5,165.5C 295.033,165.245 293.033,164.245 291.5,162.5 Z"/></g>
<g><path style="opacity:0.878" fill="#76650b" d="M 306.5,169.5 C 309.545,170.279 312.211,171.613 314.5,173.5C 311.279,173.104 308.612,171.771 306.5,169.5 Z"/></g>
<g><path style="opacity:0.945" fill="#927d0b" d="M 225.5,174.5 C 224.114,179.87 222.114,184.87 219.5,189.5C 220.333,183.995 222.333,178.995 225.5,174.5 Z"/></g>
<g><path style="opacity:0.82" fill="#6e5d0b" d="M 84.5,180.5 C 86.0603,185.465 87.727,190.465 89.5,195.5C 86.2583,191.213 84.5916,186.213 84.5,180.5 Z"/></g>
<g><path style="opacity:0.918" fill="#98820b" d="M 89.5,195.5 C 91.7965,198.807 94.1298,202.14 96.5,205.5C 92.5867,203.256 90.2534,199.923 89.5,195.5 Z"/></g>
<g><path style="opacity:0.82" fill="#77660a" d="M 100.5,212.5 C 101.65,217.316 101.816,222.316 101,227.5C 100.617,228.056 100.117,228.389 99.5,228.5C 100.4,223.228 100.733,217.895 100.5,212.5 Z"/></g>
<g><path style="opacity:0.965" fill="#8b760b" d="M 218.5,194.5 C 214.93,215.624 213.597,236.958 214.5,258.5C 213.146,240.644 213.313,222.644 215,204.5C 215.852,200.941 217.019,197.607 218.5,194.5 Z"/></g>
<g><path style="opacity:0.969" fill="#c1a508" d="M 368.5,220.5 C 370.163,222.493 371.33,224.826 372,227.5C 372.817,233.016 372.651,238.35 371.5,243.5C 371.666,239.154 371.499,234.821 371,230.5C 369.476,227.39 368.642,224.056 368.5,220.5 Z"/></g>
<g><path style="opacity:0.863" fill="#52470c" d="M 92.5,245.5 C 92.2451,247.967 91.2451,249.967 89.5,251.5C 89.7549,249.033 90.7549,247.033 92.5,245.5 Z"/></g>
<g><path style="opacity:0.867" fill="#8c7709" d="M 215.5,267.5 C 216.877,270.353 218.044,273.353 219,276.5C 219.495,278.473 219.662,280.473 219.5,282.5C 217.221,277.926 215.888,272.926 215.5,267.5 Z"/></g>
<g><path style="opacity:0.961" fill="#554a0c" d="M 327.5,291.5 C 325.371,293.95 322.704,295.617 319.5,296.5C 321.582,294.12 324.249,292.454 327.5,291.5 Z"/></g>
<g><path style="opacity:0.902" fill="#4e430b" d="M 66.5,289.5 C 65.6214,292.701 63.9547,295.368 61.5,297.5C 62.4538,294.249 64.1204,291.582 66.5,289.5 Z"/></g>
<g><path style="opacity:0.349" fill="#8e7c09" d="M 313.5,297.5 C 314.774,298.189 314.774,299.023 313.5,300C 310.281,301.757 306.948,303.257 303.5,304.5C 302.893,304.376 302.56,304.043 302.5,303.5C 306.327,301.754 309.993,299.754 313.5,297.5 Z"/></g>
<g><path style="opacity:0.259" fill="#c3a905" d="M 284.5,310.5 C 284.38,311.586 283.713,312.253 282.5,312.5C 281.584,312.457 280.917,312.124 280.5,311.5C 281.833,311.167 283.167,310.833 284.5,310.5 Z"/></g>
<g><path style="opacity:0.984" fill="#af950a" d="M 238.5,313.5 C 250.978,317.14 263.644,317.473 276.5,314.5C 276.082,315.222 275.416,315.722 274.5,316C 264.866,317.365 255.199,317.698 245.5,317C 243.006,315.968 240.672,314.802 238.5,313.5 Z"/></g>
<g><path style="opacity:0.981" fill="#f9d401" d="M 190.5,398.5 C 191.08,400.749 192.413,402.415 194.5,403.5C 199.488,408.154 205.155,411.488 211.5,413.5C 213.834,414.124 216.167,414.957 218.5,416C 226.012,416.822 233.345,416.655 240.5,415.5C 249.78,414.553 259.114,414.22 268.5,414.5C 275.704,415.78 281.704,419.113 286.5,424.5C 287.167,427.167 288.833,428.833 291.5,429.5C 297.27,436.206 304.603,439.873 313.5,440.5C 313.611,441.117 313.944,441.617 314.5,442C 317.5,442.167 320.5,442.333 323.5,442.5C 327.797,442.722 331.797,442.055 335.5,440.5C 337.167,440.5 338.833,440.5 340.5,440.5C 343.01,440.073 345.343,439.407 347.5,438.5C 349.698,438.125 351.698,437.458 353.5,436.5C 355.199,436.66 356.866,436.494 358.5,436C 363.282,433.584 367.948,431.084 372.5,428.5C 373.659,426.75 375.326,425.75 377.5,425.5C 380.198,425.155 382.198,423.822 383.5,421.5C 384.5,421.5 385.5,421.5 386.5,421.5C 358.368,443.945 326.368,457.778 290.5,463C 215.965,472.659 152.798,450.159 101,395.5C 94.3364,387.493 88.1697,379.16 82.5,370.5C 84.3717,368.938 86.7051,367.938 89.5,367.5C 92.0865,366.52 94.7531,366.187 97.5,366.5C 108.86,364.564 119.86,361.898 130.5,358.5C 139.151,357.58 147.817,357.413 156.5,358C 158.953,358.727 161.286,359.727 163.5,361C 167.785,365.74 171.952,370.573 176,375.5C 180.819,383.129 185.652,390.796 190.5,398.5 Z"/></g>
<g><path style="opacity:0.855" fill="#67580c" d="M 130.5,358.5 C 119.86,361.898 108.86,364.564 97.5,366.5C 97.6107,365.883 97.944,365.383 98.5,365C 109.244,362.78 119.91,360.613 130.5,358.5 Z"/></g>
<g><path style="opacity:0.863" fill="#7f6c09" d="M 190.5,398.5 C 192.587,399.585 193.92,401.251 194.5,403.5C 192.413,402.415 191.08,400.749 190.5,398.5 Z"/></g>
<g><path style="opacity:0.973" fill="#463c0b" d="M 268.5,414.5 C 259.114,414.22 249.78,414.553 240.5,415.5C 233.978,415.823 227.645,415.49 221.5,414.5C 237.333,413.607 253,413.607 268.5,414.5 Z"/></g>
<g><path style="opacity:0.878" fill="#9c850c" d="M 211.5,413.5 C 214.881,413.46 218.214,413.793 221.5,414.5C 227.645,415.49 233.978,415.823 240.5,415.5C 233.345,416.655 226.012,416.822 218.5,416C 216.167,414.957 213.834,414.124 211.5,413.5 Z"/></g>
<g><path style="opacity:0.561" fill="#988309" d="M 392.5,416.5 C 391.109,418.89 389.109,420.557 386.5,421.5C 385.5,421.5 384.5,421.5 383.5,421.5C 385.647,419.53 387.98,417.697 390.5,416C 391.437,415.308 392.103,415.475 392.5,416.5 Z"/></g>
<g><path style="opacity:0.655" fill="#817009" d="M 383.5,421.5 C 382.198,423.822 380.198,425.155 377.5,425.5C 379.147,423.674 381.147,422.34 383.5,421.5 Z"/></g>
<g><path style="opacity:0.855" fill="#8f7908" d="M 286.5,424.5 C 288.5,425.833 290.167,427.5 291.5,429.5C 288.833,428.833 287.167,427.167 286.5,424.5 Z"/></g>
<g><path style="opacity:0.91" fill="#8c780b" d="M 372.5,428.5 C 367.948,431.084 363.282,433.584 358.5,436C 356.866,436.494 355.199,436.66 353.5,436.5C 359.397,433.081 365.731,430.414 372.5,428.5 Z"/></g>
<g><path style="opacity:0.925" fill="#816e0b" d="M 347.5,438.5 C 345.343,439.407 343.01,440.073 340.5,440.5C 340.611,439.883 340.944,439.383 341.5,439C 343.473,438.505 345.473,438.338 347.5,438.5 Z"/></g>
<g><path style="opacity:0.89" fill="#78670b" d="M 313.5,440.5 C 320.808,441.703 328.141,441.703 335.5,440.5C 331.797,442.055 327.797,442.722 323.5,442.5C 320.5,442.333 317.5,442.167 314.5,442C 313.944,441.617 313.611,441.117 313.5,440.5 Z"/></g>
</svg>
