<?xml version="1.0" encoding="UTF-8"?>
<!DOCTYPE svg PUBLIC "-//W3C//DTD SVG 1.1//EN" "http://www.w3.org/Graphics/SVG/1.1/DTD/svg11.dtd">
<svg xmlns="http://www.w3.org/2000/svg" version="1.1" width="512px" height="512px" style="shape-rendering:geometricPrecision; text-rendering:geometricPrecision; image-rendering:optimizeQuality; fill-rule:evenodd; clip-rule:evenodd" xmlns:xlink="http://www.w3.org/1999/xlink">
<g><path style="opacity:0.989" fill="#000000" d="M 218.5,-0.5 C 245.5,-0.5 272.5,-0.5 299.5,-0.5C 299.577,0.749754 300.244,1.58309 301.5,2C 350.38,10.7501 393.38,31.7501 430.5,65C 451.251,85.0179 468.751,107.518 483,132.5C 492.572,152.546 500.572,173.213 507,194.5C 507.755,200.878 508.755,207.211 510,213.5C 510.383,212.944 510.883,212.611 511.5,212.5C 511.5,240.5 511.5,268.5 511.5,296.5C 509.552,298.32 508.552,300.654 508.5,303.5C 508.829,306.228 508.163,308.562 506.5,310.5C 505.504,310.414 504.671,310.748 504,311.5C 490.226,303.743 475.393,299.91 459.5,300C 423.325,299.209 387.158,299.376 351,300.5C 348.39,300.467 346.223,299.8 344.5,298.5C 347.833,295.833 351.167,293.167 354.5,290.5C 355.5,289.833 356.5,289.167 357.5,288.5C 361.572,286.792 364.905,284.126 367.5,280.5C 371.167,276.167 375.167,272.167 379.5,268.5C 382.973,266.363 385.306,263.363 386.5,259.5C 390.638,256.106 393.305,251.772 394.5,246.5C 395.167,244.5 395.833,242.5 396.5,240.5C 399.905,228.236 397.239,217.569 388.5,208.5C 388.672,207.508 388.338,206.842 387.5,206.5C 386.92,204.251 385.587,202.585 383.5,201.5C 382.92,199.251 381.587,197.585 379.5,196.5C 376.833,191.833 373.167,188.167 368.5,185.5C 366.833,183.167 364.833,181.167 362.5,179.5C 361.508,179.672 360.842,179.338 360.5,178.5C 358.761,175.757 356.427,173.757 353.5,172.5C 353.167,172.5 352.833,172.5 352.5,172.5C 350.704,170.1 348.37,168.433 345.5,167.5C 343.097,164.791 340.097,162.791 336.5,161.5C 334.853,159.674 332.853,158.34 330.5,157.5C 330.167,157.5 329.833,157.5 329.5,157.5C 327.66,155.331 325.326,153.998 322.5,153.5C 318.117,150.642 313.45,148.308 308.5,146.5C 306.245,144.62 303.578,143.62 300.5,143.5C 298.113,141.897 295.446,140.897 292.5,140.5C 285.268,136.954 277.602,134.454 269.5,133C 260.833,132.333 252.167,132.333 243.5,133C 242.244,133.417 241.577,134.25 241.5,135.5C 240.833,135.5 240.167,135.5 239.5,135.5C 237.847,135.66 236.514,136.326 235.5,137.5C 232.796,137.67 231.129,139.003 230.5,141.5C 228.659,142.402 227.326,143.736 226.5,145.5C 223.109,147.926 220.943,151.259 220,155.5C 219,156.5 218,157.5 217,158.5C 215.392,161.621 214.559,164.954 214.5,168.5C 213.027,170.583 211.86,172.916 211,175.5C 209.1,182.357 207.934,189.357 207.5,196.5C 206.448,200.652 205.614,204.985 205,209.5C 203.9,230.242 204.567,250.909 207,271.5C 207.998,277.089 209.498,282.423 211.5,287.5C 211.927,290.01 212.593,292.343 213.5,294.5C 214.359,298.964 216.026,302.964 218.5,306.5C 218.654,308.97 219.654,310.97 221.5,312.5C 222.488,313.795 223.488,315.128 224.5,316.5C 226.22,319.731 228.553,322.564 231.5,325C 236.31,327.476 241.31,329.476 246.5,331C 256.591,331.776 266.591,331.276 276.5,329.5C 279.526,328.826 282.526,327.993 285.5,327C 283.406,325.648 281.073,325.148 278.5,325.5C 280.948,324.527 283.615,324.194 286.5,324.5C 286.97,325.693 287.97,326.36 289.5,326.5C 290.5,326.167 291.5,325.833 292.5,325.5C 291.41,324.391 291.41,323.391 292.5,322.5C 293.548,323.383 294.715,324.05 296,324.5C 297.393,323.385 298.893,322.885 300.5,323C 291.662,332.845 286.162,344.345 284,357.5C 283.224,389.153 282.058,420.487 280.5,451.5C 279.833,451.5 279.167,451.5 278.5,451.5C 277.432,450.566 276.099,450.232 274.5,450.5C 274.389,449.883 274.056,449.383 273.5,449C 263.506,448.5 253.506,448.334 243.5,448.5C 232.854,449.312 222.187,449.646 211.5,449.5C 208.209,448.743 204.876,448.076 201.5,447.5C 198.347,445.115 194.68,443.782 190.5,443.5C 187.526,440.862 184.526,438.195 181.5,435.5C 180.92,433.251 179.587,431.585 177.5,430.5C 177.167,429.5 176.5,428.833 175.5,428.5C 174.331,425.489 172.664,422.822 170.5,420.5C 169.66,418.147 168.326,416.147 166.5,414.5C 166.727,412.067 165.727,410.401 163.5,409.5C 163.573,407.973 162.906,406.973 161.5,406.5C 160.488,405.128 159.488,403.795 158.5,402.5C 157.92,400.251 156.587,398.585 154.5,397.5C 154.5,397.167 154.5,396.833 154.5,396.5C 154.573,394.973 153.906,393.973 152.5,393.5C 152.262,391.596 151.262,390.262 149.5,389.5C 147.329,384.662 143.663,381.662 138.5,380.5C 137.041,380.567 135.708,380.234 134.5,379.5C 127.679,378.345 120.679,378.179 113.5,379C 109.687,380.262 105.687,380.929 101.5,381C 100.944,381.383 100.611,381.883 100.5,382.5C 97.8127,382.336 95.146,382.503 92.5,383C 91.944,383.383 91.6107,383.883 91.5,384.5C 91.1667,384.5 90.8333,384.5 90.5,384.5C 88.1432,384.337 85.8098,384.503 83.5,385C 73.6333,387.362 63.9667,389.862 54.5,392.5C 52.1667,392.5 49.8333,392.5 47.5,392.5C 47.2627,393.791 47.596,394.791 48.5,395.5C 48.8333,396.167 49.1667,396.833 49.5,397.5C 49.5,398.167 49.5,398.833 49.5,399.5C 48.1943,398.032 46.6943,396.699 45,395.5C 28.7959,399.444 14.7959,395.777 3,384.5C 2.9428,382.09 1.77613,380.756 -0.5,380.5C -0.5,369.167 -0.5,357.833 -0.5,346.5C 0.789915,345.942 1.62325,344.942 2,343.5C 2.43263,339.732 3.76596,336.399 6,333.5C 8.0789,327.758 10.2456,322.091 12.5,316.5C 14.2741,317.881 15.7741,317.548 17,315.5C 18.511,312.478 20.011,309.478 21.5,306.5C 21.5,306.167 21.5,305.833 21.5,305.5C 26.6407,298.681 30.9741,291.348 34.5,283.5C 38.3198,278.539 41.6532,273.206 44.5,267.5C 45.4013,266.71 46.0679,265.71 46.5,264.5C 46.5,264.167 46.5,263.833 46.5,263.5C 48.7379,262.147 50.0713,260.147 50.5,257.5C 50.5,257.167 50.5,256.833 50.5,256.5C 53.7707,253.264 56.604,249.598 59,245.5C 59.3519,243.753 59.8519,242.086 60.5,240.5C 61.3446,239.329 62.0113,237.995 62.5,236.5C 64.733,233.61 66.0663,230.277 66.5,226.5C 66.2322,224.901 66.5655,223.568 67.5,222.5C 68.1174,222.389 68.6174,222.056 69,221.5C 69.6667,215.5 69.6667,209.5 69,203.5C 68.124,201.242 66.9573,199.242 65.5,197.5C 64.6618,197.158 64.3284,196.492 64.5,195.5C 63.2427,192.573 61.2427,190.239 58.5,188.5C 58.6716,187.508 58.3382,186.842 57.5,186.5C 55.8623,182.231 53.8623,178.231 51.5,174.5C 50.0917,166.952 49.425,159.286 49.5,151.5C 49.5523,146.452 49.8856,141.452 50.5,136.5C 51.4067,134.343 52.0733,132.01 52.5,129.5C 54.4583,125.039 56.1249,120.372 57.5,115.5C 57.8333,114.833 58.1667,114.167 58.5,113.5C 61.0637,109.827 63.0637,105.827 64.5,101.5C 65.9063,101.027 66.573,100.027 66.5,98.5C 67.9063,98.0269 68.573,97.0269 68.5,95.5C 70.9748,93.2297 72.9748,90.563 74.5,87.5C 76.984,85.1997 78.984,82.5331 80.5,79.5C 80.8102,77.8564 81.8102,76.8564 83.5,76.5C 86.2427,74.7607 88.2427,72.4274 89.5,69.5C 92.1667,66.1667 95.1667,63.1667 98.5,60.5C 100.797,58.7059 102.963,56.7059 105,54.5C 105.528,53.184 105.028,52.5173 103.5,52.5C 127.784,33.0737 154.784,18.5737 184.5,9C 194.855,5.60352 205.522,3.27019 216.5,2C 217.756,1.58309 218.423,0.749754 218.5,-0.5 Z"/></g>
<g><path style="opacity:0.239" fill="#2d2703" d="M 103.5,52.5 C 105.028,52.5173 105.528,53.184 105,54.5C 102.963,56.7059 100.797,58.7059 98.5,60.5C 98.2249,58.2417 97.2249,57.9084 95.5,59.5C 92.7689,63.2343 89.4356,66.2343 85.5,68.5C 90.2012,61.832 96.2012,56.4987 103.5,52.5 Z"/></g>
<g><path style="opacity:0.745" fill="#837102" d="M 98.5,60.5 C 95.1667,63.1667 92.1667,66.1667 89.5,69.5C 88.5,70.1667 87.5,70.8333 86.5,71.5C 86.1583,70.6618 85.4916,70.3284 84.5,70.5C 84.8333,69.8333 85.1667,69.1667 85.5,68.5C 89.4356,66.2343 92.7689,63.2343 95.5,59.5C 97.2249,57.9084 98.2249,58.2417 98.5,60.5 Z"/></g>
<g><path style="opacity:0.918" fill="#40360b" d="M 89.5,69.5 C 88.2427,72.4274 86.2427,74.7607 83.5,76.5C 84.075,74.5887 85.075,72.922 86.5,71.5C 87.5,70.8333 88.5,70.1667 89.5,69.5 Z"/></g>
<g><path style="opacity:0.753" fill="#9d8800" d="M 84.5,70.5 C 82.5698,74.1002 79.9031,77.1002 76.5,79.5C 78.4302,75.8998 81.0969,72.8998 84.5,70.5 Z"/></g>
<g><path style="opacity:0.847" fill="#5b4e0a" d="M 80.5,79.5 C 78.984,82.5331 76.984,85.1997 74.5,87.5C 75.5293,84.1092 77.5293,81.4426 80.5,79.5 Z"/></g>
<g><path style="opacity:0.192" fill="#231e02" d="M 85.5,68.5 C 85.1667,69.1667 84.8333,69.8333 84.5,70.5C 81.0969,72.8998 78.4302,75.8998 76.5,79.5C 75.1667,80.1667 74.1667,81.1667 73.5,82.5C 66.3721,88.9563 60.3721,96.2897 55.5,104.5C 51.5722,109.638 47.9055,114.971 44.5,120.5C 43.0937,120.973 42.427,121.973 42.5,123.5C 41.0937,123.973 40.427,124.973 40.5,126.5C 39.1667,128.167 37.8333,129.833 36.5,131.5C 36.8923,129.821 37.3923,128.154 38,126.5C 48.2275,110.938 59.2275,95.9384 71,81.5C 75.3747,76.6237 80.2081,72.2903 85.5,68.5 Z"/></g>
<g><path style="opacity:0.871" fill="#7b690a" d="M 74.5,87.5 C 72.9748,90.563 70.9748,93.2297 68.5,95.5C 69.6401,93.2198 70.8068,90.8864 72,88.5C 72.6708,87.7476 73.5041,87.4142 74.5,87.5 Z"/></g>
<g><path style="opacity:0.824" fill="#a88f00" d="M 73.5,82.5 C 67.8715,90.1294 61.8715,97.4627 55.5,104.5C 60.3721,96.2897 66.3721,88.9563 73.5,82.5 Z"/></g>
<g><path style="opacity:0.859" fill="#6d5d08" d="M 68.5,95.5 C 68.573,97.0269 67.9063,98.0269 66.5,98.5C 66.427,96.9731 67.0937,95.9731 68.5,95.5 Z"/></g>
<g><path style="opacity:0.831" fill="#736208" d="M 66.5,98.5 C 66.573,100.027 65.9063,101.027 64.5,101.5C 64.427,99.9731 65.0937,98.9731 66.5,98.5 Z"/></g>
<g><path style="opacity:0.82" fill="#675809" d="M 64.5,101.5 C 63.0637,105.827 61.0637,109.827 58.5,113.5C 59.5623,108.947 61.5623,104.947 64.5,101.5 Z"/></g>
<g><path style="opacity:1" fill="#f7d400" d="M 84.5,70.5 C 85.4916,70.3284 86.1583,70.6618 86.5,71.5C 85.075,72.922 84.075,74.5887 83.5,76.5C 81.8102,76.8564 80.8102,77.8564 80.5,79.5C 77.5293,81.4426 75.5293,84.1092 74.5,87.5C 73.5041,87.4142 72.6708,87.7476 72,88.5C 70.8068,90.8864 69.6401,93.2198 68.5,95.5C 67.0937,95.9731 66.427,96.9731 66.5,98.5C 65.0937,98.9731 64.427,99.9731 64.5,101.5C 61.5623,104.947 59.5623,108.947 58.5,113.5C 58.1667,114.167 57.8333,114.833 57.5,115.5C 53.8761,119.365 52.2095,124.032 52.5,129.5C 50.6565,131.279 49.9898,133.612 50.5,136.5C 49.1721,141.288 48.5054,146.454 48.5,152C 47.9786,159.882 48.9786,167.382 51.5,174.5C 52.225,179.201 54.225,183.201 57.5,186.5C 58.3382,186.842 58.6716,187.508 58.5,188.5C 59.8103,191.473 61.8103,193.807 64.5,195.5C 64.3284,196.492 64.6618,197.158 65.5,197.5C 65.2639,200.226 66.0972,202.559 68,204.5C 68.746,210.551 68.5793,216.551 67.5,222.5C 66.5655,223.568 66.2322,224.901 66.5,226.5C 65.8826,226.611 65.3826,226.944 65,227.5C 63.617,230.368 62.7837,233.368 62.5,236.5C 60.8235,237.183 60.1568,238.517 60.5,240.5C 56.263,245.116 52.9297,250.45 50.5,256.5C 50.5,256.833 50.5,257.167 50.5,257.5C 48.631,259.034 47.2977,261.034 46.5,263.5C 46.5,263.833 46.5,264.167 46.5,264.5C 44.9519,264.821 44.2852,265.821 44.5,267.5C 40.1848,272.111 36.8515,277.444 34.5,283.5C 29.1148,290.088 24.7815,297.421 21.5,305.5C 21.5,305.833 21.5,306.167 21.5,306.5C 18.8194,309.187 16.486,312.187 14.5,315.5C 13.92,312.553 12.92,309.886 11.5,307.5C 11.5,307.167 11.5,306.833 11.5,306.5C 11.569,301.384 10.9024,296.384 9.5,291.5C 8.20294,266.169 8.20294,240.836 9.5,215.5C 9.5,214.5 9.5,213.5 9.5,212.5C 10.2216,212.082 10.7216,211.416 11,210.5C 11.4974,207.854 11.6641,205.187 11.5,202.5C 11.5,202.167 11.5,201.833 11.5,201.5C 13.0739,199.898 13.7406,197.898 13.5,195.5C 13.5172,193.435 13.8505,191.435 14.5,189.5C 15.7362,187.351 16.7362,185.018 17.5,182.5C 17.5,181.5 17.5,180.5 17.5,179.5C 19.0739,177.898 19.7406,175.898 19.5,173.5C 19.5,173.167 19.5,172.833 19.5,172.5C 23.0915,168.637 25.0915,163.97 25.5,158.5C 25.5,157.833 25.5,157.167 25.5,156.5C 29.4934,151.511 32.1601,145.844 33.5,139.5C 36.7521,135.816 39.0855,131.483 40.5,126.5C 41.9063,126.027 42.573,125.027 42.5,123.5C 43.9063,123.027 44.573,122.027 44.5,120.5C 47.9055,114.971 51.5722,109.638 55.5,104.5C 61.8715,97.4627 67.8715,90.1294 73.5,82.5C 74.1667,81.1667 75.1667,80.1667 76.5,79.5C 79.9031,77.1002 82.5698,74.1002 84.5,70.5 Z"/></g>
<g><path style="opacity:0.812" fill="#716008" d="M 57.5,115.5 C 56.1249,120.372 54.4583,125.039 52.5,129.5C 52.2095,124.032 53.8761,119.365 57.5,115.5 Z"/></g>
<g><path style="opacity:0.502" fill="#7b6a00" d="M 44.5,120.5 C 44.573,122.027 43.9063,123.027 42.5,123.5C 42.427,121.973 43.0937,120.973 44.5,120.5 Z"/></g>
<g><path style="opacity:0.451" fill="#6c5d00" d="M 42.5,123.5 C 42.573,125.027 41.9063,126.027 40.5,126.5C 40.427,124.973 41.0937,123.973 42.5,123.5 Z"/></g>
<g><path style="opacity:0.898" fill="#6a5a0a" d="M 52.5,129.5 C 52.0733,132.01 51.4067,134.343 50.5,136.5C 49.9898,133.612 50.6565,131.279 52.5,129.5 Z"/></g>
<g><path style="opacity:0.004" fill="#1b1700" d="M 36.5,131.5 C 35.5515,134.14 34.5515,136.807 33.5,139.5C 32.8571,141.076 31.8571,142.41 30.5,143.5C 31.4699,138.893 33.4699,134.893 36.5,131.5 Z"/></g>
<g><path style="opacity:0.906" fill="#897509" d="M 292.5,140.5 C 284.723,139.093 277.056,137.26 269.5,135C 260.119,134.22 250.786,134.387 241.5,135.5C 241.577,134.25 242.244,133.417 243.5,133C 252.167,132.333 260.833,132.333 269.5,133C 277.602,134.454 285.268,136.954 292.5,140.5 Z"/></g>
<g><path style="opacity:1" fill="#f7d300" d="M 292.5,140.5 C 295.446,140.897 298.113,141.897 300.5,143.5C 302.707,145.515 305.374,146.515 308.5,146.5C 313.45,148.308 318.117,150.642 322.5,153.5C 324.008,156.093 326.341,157.426 329.5,157.5C 329.833,157.5 330.167,157.5 330.5,157.5C 331.802,159.822 333.802,161.155 336.5,161.5C 338.951,164.277 341.951,166.277 345.5,167.5C 347.296,169.9 349.63,171.567 352.5,172.5C 352.833,172.5 353.167,172.5 353.5,172.5C 355.239,175.243 357.573,177.243 360.5,178.5C 360.842,179.338 361.508,179.672 362.5,179.5C 363.5,182.5 365.5,184.5 368.5,185.5C 371.833,189.5 375.5,193.167 379.5,196.5C 380.08,198.749 381.413,200.415 383.5,201.5C 384.08,203.749 385.413,205.415 387.5,206.5C 388.338,206.842 388.672,207.508 388.5,208.5C 391.281,213.331 393.781,218.331 396,223.5C 396.499,229.157 396.666,234.824 396.5,240.5C 395.833,242.5 395.167,244.5 394.5,246.5C 391.534,250.506 388.867,254.839 386.5,259.5C 383.791,262.208 381.458,265.208 379.5,268.5C 375.167,272.167 371.167,276.167 367.5,280.5C 363.793,282.688 360.46,285.355 357.5,288.5C 356.5,289.167 355.5,289.833 354.5,290.5C 353.761,290.631 353.094,290.464 352.5,290C 355.548,286.71 358.215,283.21 360.5,279.5C 362.822,278.198 364.155,276.198 364.5,273.5C 366.408,272.514 367.408,270.848 367.5,268.5C 367.5,268.167 367.5,267.833 367.5,267.5C 368.117,267.389 368.617,267.056 369,266.5C 369.816,261.316 369.65,256.316 368.5,251.5C 368.245,249.033 367.245,247.033 365.5,245.5C 363.251,241.246 360.585,237.246 357.5,233.5C 355.167,229.167 351.833,225.833 347.5,223.5C 334.153,212.797 319.819,203.797 304.5,196.5C 300.277,193.048 295.277,191.381 289.5,191.5C 289.167,191.5 288.833,191.5 288.5,191.5C 286.485,190.076 284.152,189.41 281.5,189.5C 280.833,189.5 280.167,189.5 279.5,189.5C 276.814,188.009 273.814,187.343 270.5,187.5C 267.473,187.287 264.807,187.953 262.5,189.5C 261.833,189.5 261.167,189.5 260.5,189.5C 253.226,192.441 247.893,197.441 244.5,204.5C 244.5,205.167 244.5,205.833 244.5,206.5C 241.303,209.733 239.636,213.733 239.5,218.5C 238.549,219.919 238.216,221.585 238.5,223.5C 236.599,227.837 235.432,232.503 235,237.5C 234.173,250.673 234.34,263.673 235.5,276.5C 235.588,281.536 236.088,286.536 237,291.5C 237.383,292.056 237.883,292.389 238.5,292.5C 238.5,293.167 238.5,293.833 238.5,294.5C 238.528,297.916 239.528,300.916 241.5,303.5C 244.681,316.682 252.681,324.682 265.5,327.5C 266.953,328.825 266.619,329.658 264.5,330C 248.784,332.151 235.45,327.651 224.5,316.5C 223.488,315.128 222.488,313.795 221.5,312.5C 221.346,310.03 220.346,308.03 218.5,306.5C 217.641,302.036 215.974,298.036 213.5,294.5C 214.01,291.612 213.344,289.279 211.5,287.5C 208.838,275.756 207.005,263.756 206,251.5C 205.333,238.167 205.333,224.833 206,211.5C 207.442,206.691 207.942,201.691 207.5,196.5C 210.012,187.33 212.346,177.997 214.5,168.5C 218.433,160.872 222.433,153.206 226.5,145.5C 227.326,143.736 228.659,142.402 230.5,141.5C 232.389,140.396 234.055,139.063 235.5,137.5C 237.38,137.771 238.713,137.104 239.5,135.5C 240.167,135.5 240.833,135.5 241.5,135.5C 250.786,134.387 260.119,134.22 269.5,135C 277.056,137.26 284.723,139.093 292.5,140.5 Z"/></g>
<g><path style="opacity:0.812" fill="#675808" d="M 239.5,135.5 C 238.713,137.104 237.38,137.771 235.5,137.5C 236.514,136.326 237.847,135.66 239.5,135.5 Z"/></g>
<g><path style="opacity:0.749" fill="#8c7900" d="M 40.5,126.5 C 39.0855,131.483 36.7521,135.816 33.5,139.5C 34.5515,136.807 35.5515,134.14 36.5,131.5C 37.8333,129.833 39.1667,128.167 40.5,126.5 Z"/></g>
<g><path style="opacity:0.827" fill="#62540a" d="M 235.5,137.5 C 234.055,139.063 232.389,140.396 230.5,141.5C 231.129,139.003 232.796,137.67 235.5,137.5 Z"/></g>
<g><path style="opacity:0.933" fill="#968007" d="M 300.5,143.5 C 303.578,143.62 306.245,144.62 308.5,146.5C 305.374,146.515 302.707,145.515 300.5,143.5 Z"/></g>
<g><path style="opacity:0.067" fill="#161200" d="M 30.5,143.5 C 29.7206,146.545 28.3873,149.211 26.5,151.5C 26.5176,148.079 27.851,145.412 30.5,143.5 Z"/></g>
<g><path style="opacity:0.663" fill="#837000" d="M 33.5,139.5 C 32.1601,145.844 29.4934,151.511 25.5,156.5C 26.038,154.883 26.3713,153.216 26.5,151.5C 28.3873,149.211 29.7206,146.545 30.5,143.5C 31.8571,142.41 32.8571,141.076 33.5,139.5 Z"/></g>
<g><path style="opacity:0.967" fill="#68590a" d="M 50.5,136.5 C 49.8856,141.452 49.5523,146.452 49.5,151.5C 49.425,159.286 50.0917,166.952 51.5,174.5C 48.9786,167.382 47.9786,159.882 48.5,152C 48.5054,146.454 49.1721,141.288 50.5,136.5 Z"/></g>
<g><path style="opacity:0.941" fill="#8f7a09" d="M 226.5,145.5 C 222.433,153.206 218.433,160.872 214.5,168.5C 214.559,164.954 215.392,161.621 217,158.5C 218,157.5 219,156.5 220,155.5C 220.943,151.259 223.109,147.926 226.5,145.5 Z"/></g>
<g><path style="opacity:0.953" fill="#957e09" d="M 322.5,153.5 C 325.326,153.998 327.66,155.331 329.5,157.5C 326.341,157.426 324.008,156.093 322.5,153.5 Z"/></g>
<g><path style="opacity:0.882" fill="#665709" d="M 330.5,157.5 C 332.853,158.34 334.853,159.674 336.5,161.5C 333.802,161.155 331.802,159.822 330.5,157.5 Z"/></g>
<g><path style="opacity:0.902" fill="#816e08" d="M 336.5,161.5 C 340.097,162.791 343.097,164.791 345.5,167.5C 341.951,166.277 338.951,164.277 336.5,161.5 Z"/></g>
<g><path style="opacity:0.035" fill="#1e1901" d="M 26.5,151.5 C 26.3713,153.216 26.038,154.883 25.5,156.5C 25.5,157.167 25.5,157.833 25.5,158.5C 22.5537,162.644 20.5537,167.311 19.5,172.5C 19.5,172.833 19.5,173.167 19.5,173.5C 19.1667,173.5 18.8333,173.5 18.5,173.5C 19.6637,165.44 22.3304,158.107 26.5,151.5 Z"/></g>
<g><path style="opacity:0.729" fill="#9b8500" d="M 25.5,158.5 C 25.0915,163.97 23.0915,168.637 19.5,172.5C 20.5537,167.311 22.5537,162.644 25.5,158.5 Z"/></g>
<g><path style="opacity:0.867" fill="#836f09" d="M 345.5,167.5 C 348.37,168.433 350.704,170.1 352.5,172.5C 349.63,171.567 347.296,169.9 345.5,167.5 Z"/></g>
<g><path style="opacity:0.927" fill="#69590a" d="M 214.5,168.5 C 212.346,177.997 210.012,187.33 207.5,196.5C 207.934,189.357 209.1,182.357 211,175.5C 211.86,172.916 213.027,170.583 214.5,168.5 Z"/></g>
<g><path style="opacity:0.835" fill="#64560b" d="M 353.5,172.5 C 356.427,173.757 358.761,175.757 360.5,178.5C 357.573,177.243 355.239,175.243 353.5,172.5 Z"/></g>
<g><path style="opacity:0.671" fill="#7c6a01" d="M 18.5,173.5 C 18.8333,173.5 19.1667,173.5 19.5,173.5C 19.7406,175.898 19.0739,177.898 17.5,179.5C 17.366,177.708 17.6993,176.042 18.5,174.5C 18.5,174.167 18.5,173.833 18.5,173.5 Z"/></g>
<g><path style="opacity:0.839" fill="#645509" d="M 51.5,174.5 C 53.8623,178.231 55.8623,182.231 57.5,186.5C 54.225,183.201 52.225,179.201 51.5,174.5 Z"/></g>
<g><path style="opacity:0.894" fill="#7f6c0a" d="M 362.5,179.5 C 364.833,181.167 366.833,183.167 368.5,185.5C 365.5,184.5 363.5,182.5 362.5,179.5 Z"/></g>
<g><path style="opacity:0.022" fill="#231f02" d="M 18.5,174.5 C 17.6993,176.042 17.366,177.708 17.5,179.5C 17.5,180.5 17.5,181.5 17.5,182.5C 15.179,184.09 14.179,186.423 14.5,189.5C 13.8505,191.435 13.5172,193.435 13.5,195.5C 13.1667,195.5 12.8333,195.5 12.5,195.5C 12.8062,188.995 13.9728,182.662 16,176.5C 16.4169,175.244 17.2502,174.577 18.5,174.5 Z"/></g>
<g><path style="opacity:0.827" fill="#5d4f08" d="M 368.5,185.5 C 373.167,188.167 376.833,191.833 379.5,196.5C 375.5,193.167 371.833,189.5 368.5,185.5 Z"/></g>
<g><path style="opacity:0.713" fill="#a38b00" d="M 279.5,189.5 C 273.833,189.5 268.167,189.5 262.5,189.5C 264.807,187.953 267.473,187.287 270.5,187.5C 273.814,187.343 276.814,188.009 279.5,189.5 Z"/></g>
<g><path style="opacity:0.459" fill="#6e5f00" d="M 17.5,182.5 C 16.7362,185.018 15.7362,187.351 14.5,189.5C 14.179,186.423 15.179,184.09 17.5,182.5 Z"/></g>
<g><path style="opacity:0.139" fill="#272101" d="M 260.5,189.5 C 261.167,189.5 261.833,189.5 262.5,189.5C 268.167,189.5 273.833,189.5 279.5,189.5C 280.167,189.5 280.833,189.5 281.5,189.5C 283.515,190.924 285.848,191.59 288.5,191.5C 288.833,191.5 289.167,191.5 289.5,191.5C 289.5,191.833 289.5,192.167 289.5,192.5C 279.441,191.343 269.441,191.343 259.5,192.5C 259.557,191.391 259.89,190.391 260.5,189.5 Z"/></g>
<g><path style="opacity:0.69" fill="#907b00" d="M 281.5,189.5 C 284.152,189.41 286.485,190.076 288.5,191.5C 285.848,191.59 283.515,190.924 281.5,189.5 Z"/></g>
<g><path style="opacity:0.867" fill="#786709" d="M 58.5,188.5 C 61.2427,190.239 63.2427,192.573 64.5,195.5C 61.8103,193.807 59.8103,191.473 58.5,188.5 Z"/></g>
<g><path style="opacity:0.898" fill="#ba9e00" d="M 289.5,192.5 C 289.5,192.167 289.5,191.833 289.5,191.5C 295.277,191.381 300.277,193.048 304.5,196.5C 299.868,194.253 294.868,192.919 289.5,192.5 Z"/></g>
<g><path style="opacity:0.22" fill="#493f07" d="M 260.5,189.5 C 259.89,190.391 259.557,191.391 259.5,192.5C 256.357,194.242 253.357,196.242 250.5,198.5C 248.139,200.194 246.139,202.194 244.5,204.5C 247.893,197.441 253.226,192.441 260.5,189.5 Z"/></g>
<g><path style="opacity:0.878" fill="#806d09" d="M 379.5,196.5 C 381.587,197.585 382.92,199.251 383.5,201.5C 381.413,200.415 380.08,198.749 379.5,196.5 Z"/></g>
<g><path style="opacity:0.184" fill="#221e01" d="M 12.5,195.5 C 11.8505,197.435 11.5172,199.435 11.5,201.5C 11.5,201.833 11.5,202.167 11.5,202.5C 10.4192,205.627 9.75258,208.96 9.5,212.5C 9.5,213.5 9.5,214.5 9.5,215.5C 8.54885,216.919 8.21552,218.585 8.5,220.5C 7.83333,221.5 7.16667,222.5 6.5,223.5C 7.89851,214.876 9.06518,206.21 10,197.5C 10.7083,196.619 11.5416,195.953 12.5,195.5 Z"/></g>
<g><path style="opacity:0.482" fill="#746300" d="M 12.5,195.5 C 12.8333,195.5 13.1667,195.5 13.5,195.5C 13.7406,197.898 13.0739,199.898 11.5,201.5C 11.5172,199.435 11.8505,197.435 12.5,195.5 Z"/></g>
<g><path style="opacity:0.906" fill="#9f8709" d="M 383.5,201.5 C 385.587,202.585 386.92,204.251 387.5,206.5C 385.413,205.415 384.08,203.749 383.5,201.5 Z"/></g>
<g><path style="opacity:0.086" fill="#1f1a02" d="M 250.5,198.5 C 248.483,201.874 246.483,205.207 244.5,208.5C 244.5,207.833 244.5,207.167 244.5,206.5C 244.5,205.833 244.5,205.167 244.5,204.5C 246.139,202.194 248.139,200.194 250.5,198.5 Z"/></g>
<g><path style="opacity:0.678" fill="#7f6d00" d="M 11.5,202.5 C 11.6641,205.187 11.4974,207.854 11,210.5C 10.7216,211.416 10.2216,212.082 9.5,212.5C 9.75258,208.96 10.4192,205.627 11.5,202.5 Z"/></g>
<g><path style="opacity:0.812" fill="#695908" d="M 65.5,197.5 C 66.9573,199.242 68.124,201.242 69,203.5C 69.6667,209.5 69.6667,215.5 69,221.5C 68.6174,222.056 68.1174,222.389 67.5,222.5C 68.5793,216.551 68.746,210.551 68,204.5C 66.0972,202.559 65.2639,200.226 65.5,197.5 Z"/></g>
<g><path style="opacity:0.008" fill="#181400" d="M 244.5,208.5 C 244.834,211.491 243.834,213.824 241.5,215.5C 242.088,212.937 243.088,210.604 244.5,208.5 Z"/></g>
<g><path style="opacity:0.427" fill="#756501" d="M 244.5,206.5 C 244.5,207.167 244.5,207.833 244.5,208.5C 243.088,210.604 242.088,212.937 241.5,215.5C 240.833,216.5 240.167,217.5 239.5,218.5C 239.636,213.733 241.303,209.733 244.5,206.5 Z"/></g>
<g><path style="opacity:0.804" fill="#695a09" d="M 388.5,208.5 C 397.239,217.569 399.905,228.236 396.5,240.5C 396.666,234.824 396.499,229.157 396,223.5C 393.781,218.331 391.281,213.331 388.5,208.5 Z"/></g>
<g><path style="opacity:0.847" fill="#a89000" d="M 347.5,223.5 C 351.833,225.833 355.167,229.167 357.5,233.5C 353.833,230.5 350.5,227.167 347.5,223.5 Z"/></g>
<g><path style="opacity:0.941" fill="#6e5e09" d="M 207.5,196.5 C 207.942,201.691 207.442,206.691 206,211.5C 205.333,224.833 205.333,238.167 206,251.5C 207.005,263.756 208.838,275.756 211.5,287.5C 209.498,282.423 207.998,277.089 207,271.5C 204.567,250.909 203.9,230.242 205,209.5C 205.614,204.985 206.448,200.652 207.5,196.5 Z"/></g>
<g><path style="opacity:0.204" fill="#4c4201" d="M 8.5,220.5 C 8.31041,225.37 7.64374,230.036 6.5,234.5C 6.5,234.167 6.5,233.833 6.5,233.5C 6.5,230.167 6.5,226.833 6.5,223.5C 7.16667,222.5 7.83333,221.5 8.5,220.5 Z"/></g>
<g><path style="opacity:0.047" fill="#211c02" d="M 241.5,215.5 C 241.142,219.509 240.642,223.509 240,227.5C 239.392,229.066 238.558,230.4 237.5,231.5C 237.833,228.833 238.167,226.167 238.5,223.5C 238.216,221.585 238.549,219.919 239.5,218.5C 240.167,217.5 240.833,216.5 241.5,215.5 Z"/></g>
<g><path style="opacity:0.859" fill="#6d5d09" d="M 66.5,226.5 C 66.0663,230.277 64.733,233.61 62.5,236.5C 62.7837,233.368 63.617,230.368 65,227.5C 65.3826,226.944 65.8826,226.611 66.5,226.5 Z"/></g>
<g><path style="opacity:0.902" fill="#574909" d="M 62.5,236.5 C 62.0113,237.995 61.3446,239.329 60.5,240.5C 60.1568,238.517 60.8235,237.183 62.5,236.5 Z"/></g>
<g><path style="opacity:0.075" fill="#2a2403" d="M 289.5,192.5 C 294.868,192.919 299.868,194.253 304.5,196.5C 319.819,203.797 334.153,212.797 347.5,223.5C 350.5,227.167 353.833,230.5 357.5,233.5C 360.585,237.246 363.251,241.246 365.5,245.5C 366.038,247.117 366.371,248.784 366.5,250.5C 359.83,238.661 351.163,228.494 340.5,220C 332.614,214.606 324.614,209.439 316.5,204.5C 308.792,199.872 300.458,196.706 291.5,195C 290.619,194.292 289.953,193.458 289.5,192.5 Z"/></g>
<g><path style="opacity:0.914" fill="#bea200" d="M 9.5,215.5 C 8.20294,240.836 8.20294,266.169 9.5,291.5C 9.16667,291.5 8.83333,291.5 8.5,291.5C 8.5,291.167 8.5,290.833 8.5,290.5C 8.04752,285.002 7.38085,279.669 6.5,274.5C 6.5,261.167 6.5,247.833 6.5,234.5C 7.64374,230.036 8.31041,225.37 8.5,220.5C 8.21552,218.585 8.54885,216.919 9.5,215.5 Z"/></g>
<g><path style="opacity:0.447" fill="#695b01" d="M 365.5,245.5 C 367.245,247.033 368.245,249.033 368.5,251.5C 367.833,251.167 367.167,250.833 366.5,250.5C 366.371,248.784 366.038,247.117 365.5,245.5 Z"/></g>
<g><path style="opacity:0.812" fill="#64550a" d="M 60.5,240.5 C 59.8519,242.086 59.3519,243.753 59,245.5C 56.604,249.598 53.7707,253.264 50.5,256.5C 52.9297,250.45 56.263,245.116 60.5,240.5 Z"/></g>
<g><path style="opacity:0.013" fill="#131100" d="M 237.5,234.5 C 236.25,249.841 236.25,265.175 237.5,280.5C 236.833,279.167 236.167,277.833 235.5,276.5C 235.333,264.162 235.5,251.829 236,239.5C 236.198,237.618 236.698,235.952 237.5,234.5 Z"/></g>
<g><path style="opacity:0.326" fill="#645600" d="M 238.5,223.5 C 238.167,226.167 237.833,228.833 237.5,231.5C 237.5,232.5 237.5,233.5 237.5,234.5C 236.698,235.952 236.198,237.618 236,239.5C 235.5,251.829 235.333,264.162 235.5,276.5C 234.34,263.673 234.173,250.673 235,237.5C 235.432,232.503 236.599,227.837 238.5,223.5 Z"/></g>
<g><path style="opacity:0.012" fill="#211d03" d="M 6.5,233.5 C 6.5,233.833 6.5,234.167 6.5,234.5C 6.5,247.833 6.5,261.167 6.5,274.5C 6.5,275.167 6.5,275.833 6.5,276.5C 4.83559,275.051 4.00225,273.051 4,270.5C 3.29065,259.819 3.45732,249.153 4.5,238.5C 4.55608,236.36 5.22275,234.694 6.5,233.5 Z"/></g>
<g><path style="opacity:0.031" fill="#221d01" d="M 366.5,250.5 C 367.167,250.833 367.833,251.167 368.5,251.5C 368.733,256.895 368.4,262.228 367.5,267.5C 367.5,267.833 367.5,268.167 367.5,268.5C 365.75,269.659 364.75,271.326 364.5,273.5C 363.833,273.833 363.167,274.167 362.5,274.5C 363.782,270.727 365.282,267.06 367,263.5C 367.629,259.129 367.463,254.796 366.5,250.5 Z"/></g>
<g><path style="opacity:0.378" fill="#786700" d="M 368.5,251.5 C 369.65,256.316 369.816,261.316 369,266.5C 368.617,267.056 368.117,267.389 367.5,267.5C 368.4,262.228 368.733,256.895 368.5,251.5 Z"/></g>
<g><path style="opacity:0.843" fill="#6e5e0a" d="M 394.5,246.5 C 393.305,251.772 390.638,256.106 386.5,259.5C 388.867,254.839 391.534,250.506 394.5,246.5 Z"/></g>
<g><path style="opacity:0.855" fill="#816e08" d="M 50.5,257.5 C 50.0713,260.147 48.7379,262.147 46.5,263.5C 47.2977,261.034 48.631,259.034 50.5,257.5 Z"/></g>
<g><path style="opacity:0.89" fill="#5c4f0a" d="M 386.5,259.5 C 385.306,263.363 382.973,266.363 379.5,268.5C 381.458,265.208 383.791,262.208 386.5,259.5 Z"/></g>
<g><path style="opacity:0.886" fill="#826f07" d="M 46.5,264.5 C 46.0679,265.71 45.4013,266.71 44.5,267.5C 44.2852,265.821 44.9519,264.821 46.5,264.5 Z"/></g>
<g><path style="opacity:0.886" fill="#9f8800" d="M 367.5,268.5 C 367.408,270.848 366.408,272.514 364.5,273.5C 364.75,271.326 365.75,269.659 367.5,268.5 Z"/></g>
<g><path style="opacity:0.294" fill="#483f01" d="M 6.5,274.5 C 7.38085,279.669 8.04752,285.002 8.5,290.5C 7.83333,289.833 7.16667,289.167 6.5,288.5C 6.5,284.5 6.5,280.5 6.5,276.5C 6.5,275.833 6.5,275.167 6.5,274.5 Z"/></g>
<g><path style="opacity:0.812" fill="#796709" d="M 44.5,267.5 C 41.6532,273.206 38.3198,278.539 34.5,283.5C 36.8515,277.444 40.1848,272.111 44.5,267.5 Z"/></g>
<g><path style="opacity:0.561" fill="#7c6a00" d="M 364.5,273.5 C 364.155,276.198 362.822,278.198 360.5,279.5C 361.167,277.833 361.833,276.167 362.5,274.5C 363.167,274.167 363.833,273.833 364.5,273.5 Z"/></g>
<g><path style="opacity:0.898" fill="#5f510a" d="M 367.5,280.5 C 364.905,284.126 361.572,286.792 357.5,288.5C 360.46,285.355 363.793,282.688 367.5,280.5 Z"/></g>
<g><path style="opacity:0.635" fill="#6f6001" d="M 235.5,276.5 C 236.167,277.833 236.833,279.167 237.5,280.5C 237.5,282.5 237.5,284.5 237.5,286.5C 238.15,288.435 238.483,290.435 238.5,292.5C 237.883,292.389 237.383,292.056 237,291.5C 236.088,286.536 235.588,281.536 235.5,276.5 Z"/></g>
<g><path style="opacity:0.871" fill="#927c08" d="M 211.5,287.5 C 213.344,289.279 214.01,291.612 213.5,294.5C 212.593,292.343 211.927,290.01 211.5,287.5 Z"/></g>
<g><path style="opacity:0.071" fill="#2a2406" d="M 362.5,274.5 C 361.833,276.167 361.167,277.833 360.5,279.5C 354.824,286.175 348.491,292.175 341.5,297.5C 340.542,297.953 339.708,298.619 339,299.5C 338.601,299.272 338.435,298.938 338.5,298.5C 339.833,297.167 341.167,295.833 342.5,294.5C 343.987,293.196 345.654,292.03 347.5,291C 352.391,285.373 357.391,279.873 362.5,274.5 Z"/></g>
<g><path style="opacity:0.855" fill="#ad9303" d="M 360.5,279.5 C 358.215,283.21 355.548,286.71 352.5,290C 353.094,290.464 353.761,290.631 354.5,290.5C 351.167,293.167 347.833,295.833 344.5,298.5C 343.609,299.11 342.609,299.443 341.5,299.5C 341.5,298.833 341.5,298.167 341.5,297.5C 348.491,292.175 354.824,286.175 360.5,279.5 Z"/></g>
<g><path style="opacity:0.01" fill="#fcfcfc" d="M 342.5,294.5 C 341.167,295.833 339.833,297.167 338.5,298.5C 335.883,299.786 333.55,301.453 331.5,303.5C 323.116,308.206 314.783,312.873 306.5,317.5C 299.969,319.123 293.636,321.123 287.5,323.5C 294.259,311.593 304.259,303.427 317.5,299C 325.692,296.661 334.025,295.161 342.5,294.5 Z"/></g>
<g><path style="opacity:0.075" fill="#1d1900" d="M 237.5,286.5 C 238.79,287.058 239.623,288.058 240,289.5C 240.548,293.17 241.048,296.837 241.5,300.5C 240.5,298.5 239.5,296.5 238.5,294.5C 238.5,293.833 238.5,293.167 238.5,292.5C 238.483,290.435 238.15,288.435 237.5,286.5 Z"/></g>
<g><path style="opacity:0.004" fill="#171300" d="M 6.5,288.5 C 7.16667,289.167 7.83333,289.833 8.5,290.5C 8.5,290.833 8.5,291.167 8.5,291.5C 8.54863,296.816 9.54863,301.816 11.5,306.5C 11.5,306.833 11.5,307.167 11.5,307.5C 11.448,309.903 11.7814,312.236 12.5,314.5C 11.0689,314.119 10.2355,313.119 10,311.5C 8.83097,303.82 7.6643,296.154 6.5,288.5 Z"/></g>
<g><path style="opacity:0.82" fill="#796809" d="M 34.5,283.5 C 30.9741,291.348 26.6407,298.681 21.5,305.5C 24.7815,297.421 29.1148,290.088 34.5,283.5 Z"/></g>
<g><path style="opacity:0.612" fill="#756500" d="M 238.5,294.5 C 239.5,296.5 240.5,298.5 241.5,300.5C 241.5,300.833 241.5,301.167 241.5,301.5C 241.5,302.167 241.5,302.833 241.5,303.5C 239.528,300.916 238.528,297.916 238.5,294.5 Z"/></g>
<g><path style="opacity:0.933" fill="#736209" d="M 213.5,294.5 C 215.974,298.036 217.641,302.036 218.5,306.5C 216.026,302.964 214.359,298.964 213.5,294.5 Z"/></g>
<g><path style="opacity:0.999" fill="#100f0f" d="M 344.5,298.5 C 346.223,299.8 348.39,300.467 351,300.5C 387.158,299.376 423.325,299.209 459.5,300C 475.393,299.91 490.226,303.743 504,311.5C 504.671,310.748 505.504,310.414 506.5,310.5C 506.675,312.621 506.341,314.621 505.5,316.5C 504.167,316.5 503.5,317.167 503.5,318.5C 502.85,318.804 502.183,319.137 501.5,319.5C 491.461,312.987 480.461,309.153 468.5,308C 428.5,307.333 388.5,307.333 348.5,308C 313.441,313.059 293.941,333.226 290,368.5C 289.833,397.506 289.333,426.506 288.5,455.5C 287.378,454.37 286.044,453.703 284.5,453.5C 283.005,453.011 281.671,452.345 280.5,451.5C 282.058,420.487 283.224,389.153 284,357.5C 286.162,344.345 291.662,332.845 300.5,323C 298.893,322.885 297.393,323.385 296,324.5C 294.715,324.05 293.548,323.383 292.5,322.5C 291.41,323.391 291.41,324.391 292.5,325.5C 291.5,325.833 290.5,326.167 289.5,326.5C 287.97,326.36 286.97,325.693 286.5,324.5C 286.5,323.833 286.833,323.5 287.5,323.5C 293.636,321.123 299.969,319.123 306.5,317.5C 307.583,317.539 308.583,317.873 309.5,318.5C 316.257,314.82 322.923,311.153 329.5,307.5C 333.881,305.316 337.881,302.65 341.5,299.5C 342.609,299.443 343.609,299.11 344.5,298.5 Z"/></g>
<g><path style="opacity:0.134" fill="#fbf9f9" d="M 508.5,303.5 C 509.609,303.557 510.609,303.89 511.5,304.5C 511.5,322.5 511.5,340.5 511.5,358.5C 511.167,358.5 510.833,358.5 510.5,358.5C 510.795,356.265 510.461,354.265 509.5,352.5C 508.977,344.924 506.311,338.257 501.5,332.5C 502.167,329.5 502.833,326.5 503.5,323.5C 504.167,321.167 504.833,318.833 505.5,316.5C 506.341,314.621 506.675,312.621 506.5,310.5C 508.163,308.562 508.829,306.228 508.5,303.5 Z"/></g>
<g><path style="opacity:0.329" fill="#675901" d="M 8.5,291.5 C 8.83333,291.5 9.16667,291.5 9.5,291.5C 10.9024,296.384 11.569,301.384 11.5,306.5C 9.54863,301.816 8.54863,296.816 8.5,291.5 Z"/></g>
<g><path style="opacity:0.627" fill="#574d19" d="M 341.5,297.5 C 341.5,298.167 341.5,298.833 341.5,299.5C 337.881,302.65 333.881,305.316 329.5,307.5C 329.062,307.565 328.728,307.399 328.5,307C 329.71,305.961 330.71,304.794 331.5,303.5C 333.55,301.453 335.883,299.786 338.5,298.5C 338.435,298.938 338.601,299.272 339,299.5C 339.708,298.619 340.542,297.953 341.5,297.5 Z"/></g>
<g><path style="opacity:0.882" fill="#6e5e09" d="M 218.5,306.5 C 220.346,308.03 221.346,310.03 221.5,312.5C 219.654,310.97 218.654,308.97 218.5,306.5 Z"/></g>
<g><path style="opacity:1" fill="#1e1d1d" d="M 503.5,318.5 C 503.24,320.595 502.074,321.928 500,322.5C 488.581,315.25 476.081,311.417 462.5,311C 426.5,310.333 390.5,310.333 354.5,311C 314.315,314.855 293.815,337.022 293,377.5C 292.832,404.67 292.332,431.67 291.5,458.5C 290.395,457.4 289.062,456.733 287.5,456.5C 286.833,456.167 286.167,455.833 285.5,455.5C 285.167,454.833 284.833,454.167 284.5,453.5C 286.044,453.703 287.378,454.37 288.5,455.5C 289.333,426.506 289.833,397.506 290,368.5C 293.941,333.226 313.441,313.059 348.5,308C 388.5,307.333 428.5,307.333 468.5,308C 480.461,309.153 491.461,312.987 501.5,319.5C 502.183,319.137 502.85,318.804 503.5,318.5 Z"/></g>
<g><path style="opacity:0.627" fill="#454028" d="M 331.5,303.5 C 330.71,304.794 329.71,305.961 328.5,307C 328.728,307.399 329.062,307.565 329.5,307.5C 322.923,311.153 316.257,314.82 309.5,318.5C 308.583,317.873 307.583,317.539 306.5,317.5C 314.783,312.873 323.116,308.206 331.5,303.5 Z"/></g>
<g><path style="opacity:1" fill="#292929" d="M 503.5,318.5 C 503.5,317.167 504.167,316.5 505.5,316.5C 504.833,318.833 504.167,321.167 503.5,323.5C 502.262,324.412 500.928,324.579 499.5,324C 492.16,319.108 484.16,315.775 475.5,314C 433.2,311.081 390.867,310.748 348.5,313C 322.42,317.066 305.587,331.899 298,357.5C 297.005,362.453 296.338,367.453 296,372.5C 296.161,402.517 295.327,432.184 293.5,461.5C 292.094,461.027 291.427,460.027 291.5,458.5C 292.332,431.67 292.832,404.67 293,377.5C 293.815,337.022 314.315,314.855 354.5,311C 390.5,310.333 426.5,310.333 462.5,311C 476.081,311.417 488.581,315.25 500,322.5C 502.074,321.928 503.24,320.595 503.5,318.5 Z"/></g>
<g><path style="opacity:0.999" fill="#3f3939" d="M 503.5,323.5 C 502.833,326.5 502.167,329.5 501.5,332.5C 492.906,323.036 482.24,317.536 469.5,316C 429.167,315.333 388.833,315.333 348.5,316C 336.353,317.075 326.02,321.908 317.5,330.5C 314.386,331.091 311.886,332.758 310,335.5C 309.508,336.549 309.674,337.549 310.5,338.5C 307.785,341.057 305.618,344.057 304,347.5C 302.488,352.106 301.155,356.773 300,361.5C 299.219,396.152 298.052,430.486 296.5,464.5C 295.167,463.833 294.167,462.833 293.5,461.5C 295.327,432.184 296.161,402.517 296,372.5C 296.338,367.453 297.005,362.453 298,357.5C 305.587,331.899 322.42,317.066 348.5,313C 390.867,310.748 433.2,311.081 475.5,314C 484.16,315.775 492.16,319.108 499.5,324C 500.928,324.579 502.262,324.412 503.5,323.5 Z"/></g>
<g><path style="opacity:0.471" fill="#726105" d="M 21.5,306.5 C 20.011,309.478 18.511,312.478 17,315.5C 15.7741,317.548 14.2741,317.881 12.5,316.5C 12.5,315.833 12.5,315.167 12.5,314.5C 11.7814,312.236 11.448,309.903 11.5,307.5C 12.92,309.886 13.92,312.553 14.5,315.5C 16.486,312.187 18.8194,309.187 21.5,306.5 Z"/></g>
<g><path style="opacity:1" fill="#fa556d" d="M 501.5,332.5 C 506.311,338.257 508.977,344.924 509.5,352.5C 508.5,352.5 507.5,352.5 506.5,352.5C 507.069,356.329 506.402,359.663 504.5,362.5C 503.799,359.437 503.132,356.27 502.5,353C 488.833,352.333 475.167,352.333 461.5,353C 460.718,355.74 460.218,358.574 460,361.5C 458.93,355.445 458.597,349.445 459,343.5C 458.667,344.833 458.333,346.167 458,347.5C 457.013,343.233 456.179,342.9 455.5,346.5C 454.181,345.103 452.514,344.437 450.5,344.5C 445.075,345.131 439.742,346.131 434.5,347.5C 430.267,347.539 426.267,348.205 422.5,349.5C 411.898,351.769 401.232,353.935 390.5,356C 386.088,356.595 382.088,358.095 378.5,360.5C 377.909,359.849 377.243,359.182 376.5,358.5C 379.064,356.684 379.064,354.851 376.5,353C 373.183,352.502 369.85,352.335 366.5,352.5C 366.5,351.5 366.5,350.5 366.5,349.5C 363.5,349.5 360.5,349.5 357.5,349.5C 357.5,350.5 357.5,351.5 357.5,352.5C 343.421,353.138 329.588,352.472 316,350.5C 314.951,352.107 313.451,352.773 311.5,352.5C 311.5,351.5 311.5,350.5 311.5,349.5C 310.5,349.5 309.5,349.5 308.5,349.5C 310.144,342.544 313.144,336.211 317.5,330.5C 326.02,321.908 336.353,317.075 348.5,316C 388.833,315.333 429.167,315.333 469.5,316C 482.24,317.536 492.906,323.036 501.5,332.5 Z"/></g>
<g><path style="opacity:0.224" fill="#332c04" d="M 241.5,301.5 C 244.555,307.094 247.721,312.76 251,318.5C 254.255,321.094 257.755,323.261 261.5,325C 267.157,325.499 272.824,325.666 278.5,325.5C 281.073,325.148 283.406,325.648 285.5,327C 282.526,327.993 279.526,328.826 276.5,329.5C 276.611,328.883 276.944,328.383 277.5,328C 273.514,327.501 269.514,327.334 265.5,327.5C 252.681,324.682 244.681,316.682 241.5,303.5C 241.5,302.833 241.5,302.167 241.5,301.5 Z"/></g>
<g><path style="opacity:0.637" fill="#937d06" d="M 224.5,316.5 C 235.45,327.651 248.784,332.151 264.5,330C 266.619,329.658 266.953,328.825 265.5,327.5C 269.514,327.334 273.514,327.501 277.5,328C 276.944,328.383 276.611,328.883 276.5,329.5C 266.591,331.276 256.591,331.776 246.5,331C 241.31,329.476 236.31,327.476 231.5,325C 228.553,322.564 226.22,319.731 224.5,316.5 Z"/></g>
<g><path style="opacity:1" fill="#fdf8f9" d="M 455.5,346.5 C 456.492,354.316 456.826,362.316 456.5,370.5C 456.667,396.835 456.5,423.169 456,449.5C 454.738,451.784 453.572,454.118 452.5,456.5C 449.152,460.517 444.819,462.85 439.5,463.5C 434.13,463.608 428.797,463.275 423.5,462.5C 419.982,459.637 417.649,455.97 416.5,451.5C 415.992,442.163 420.325,436.33 429.5,434C 434.5,433 439.5,432 444.5,431C 446.141,429.871 447.141,428.371 447.5,426.5C 448.496,410.342 448.83,394.009 448.5,377.5C 444.958,377.187 441.625,377.521 438.5,378.5C 424.223,381.15 409.889,383.65 395.5,386C 393.073,386.902 390.74,387.736 388.5,388.5C 387.883,388.611 387.383,388.944 387,389.5C 386.5,411.831 386.333,434.164 386.5,456.5C 385.641,470.684 377.975,477.684 363.5,477.5C 353.104,477.767 347.438,472.767 346.5,462.5C 346.385,459.591 347.051,456.925 348.5,454.5C 351.003,452.167 353.669,450.001 356.5,448C 357.793,447.51 359.127,447.343 360.5,447.5C 362.898,447.741 364.898,447.074 366.5,445.5C 369.079,444.772 371.746,444.272 374.5,444C 376.426,443.578 377.426,442.411 377.5,440.5C 378.498,414.005 378.831,387.339 378.5,360.5C 382.088,358.095 386.088,356.595 390.5,356C 401.232,353.935 411.898,351.769 422.5,349.5C 426.764,349.656 430.764,348.989 434.5,347.5C 439.742,346.131 445.075,345.131 450.5,344.5C 452.514,344.437 454.181,345.103 455.5,346.5 Z"/></g>
<g><path style="opacity:1" fill="#fc93a4" d="M 434.5,347.5 C 430.764,348.989 426.764,349.656 422.5,349.5C 426.267,348.205 430.267,347.539 434.5,347.5 Z"/></g>
<g><path style="opacity:1" fill="#fc4b65" d="M 504.5,362.5 C 504.95,368.432 504.116,374.099 502,379.5C 489.246,378.511 476.413,378.178 463.5,378.5C 463.813,375.753 463.48,373.086 462.5,370.5C 461.833,379.991 461.167,389.325 460.5,398.5C 459.778,398.082 459.278,397.416 459,396.5C 459.142,387.442 458.309,378.775 456.5,370.5C 456.826,362.316 456.492,354.316 455.5,346.5C 456.179,342.9 457.013,343.233 458,347.5C 458.333,346.167 458.667,344.833 459,343.5C 458.597,349.445 458.93,355.445 460,361.5C 460.218,358.574 460.718,355.74 461.5,353C 475.167,352.333 488.833,352.333 502.5,353C 503.132,356.27 503.799,359.437 504.5,362.5 Z"/></g>
<g><path style="opacity:1" fill="#4b4b4b" d="M 317.5,330.5 C 313.144,336.211 310.144,342.544 308.5,349.5C 307.89,350.391 307.557,351.391 307.5,352.5C 305.497,355.855 303.997,359.522 303,363.5C 303.162,398.848 302.328,433.848 300.5,468.5C 298.833,467.5 297.5,466.167 296.5,464.5C 298.052,430.486 299.219,396.152 300,361.5C 301.155,356.773 302.488,352.106 304,347.5C 305.618,344.057 307.785,341.057 310.5,338.5C 309.674,337.549 309.508,336.549 310,335.5C 311.886,332.758 314.386,331.091 317.5,330.5 Z"/></g>
<g><path style="opacity:1" fill="#5f5e5e" d="M 307.5,352.5 C 307.81,355.713 307.477,358.713 306.5,361.5C 305.667,397.331 305.167,433.331 305,469.5C 303.586,470.413 302.086,470.413 300.5,469.5C 300.5,469.167 300.5,468.833 300.5,468.5C 302.328,433.848 303.162,398.848 303,363.5C 303.997,359.522 305.497,355.855 307.5,352.5 Z"/></g>
<g><path style="opacity:1" fill="#fa4a63" d="M 308.5,349.5 C 309.5,349.5 310.5,349.5 311.5,349.5C 311.5,350.5 311.5,351.5 311.5,352.5C 313.451,352.773 314.951,352.107 316,350.5C 329.588,352.472 343.421,353.138 357.5,352.5C 357.5,351.5 357.5,350.5 357.5,349.5C 360.5,349.5 363.5,349.5 366.5,349.5C 366.5,350.5 366.5,351.5 366.5,352.5C 369.85,352.335 373.183,352.502 376.5,353C 379.064,354.851 379.064,356.684 376.5,358.5C 377.243,359.182 377.909,359.849 378.5,360.5C 378.831,387.339 378.498,414.005 377.5,440.5C 377.5,426.5 377.5,412.5 377.5,398.5C 377.5,392.5 377.5,386.5 377.5,380.5C 374.15,380.335 370.817,380.502 367.5,381C 370.146,381.497 372.813,381.664 375.5,381.5C 375.5,384.167 375.5,386.833 375.5,389.5C 353.486,389.501 331.486,389.834 309.5,390.5C 309.822,396.358 309.489,402.025 308.5,407.5C 308.667,392.496 308.5,377.496 308,362.5C 307.5,383.831 307.333,405.164 307.5,426.5C 307.5,439.167 307.5,451.833 307.5,464.5C 306.502,430.337 306.168,396.004 306.5,361.5C 307.477,358.713 307.81,355.713 307.5,352.5C 307.557,351.391 307.89,350.391 308.5,349.5 Z"/></g>
<g><path style="opacity:0.978" fill="#4e4309" d="M 134.5,379.5 C 128.158,379.334 121.825,379.5 115.5,380C 114.584,380.278 113.918,380.778 113.5,381.5C 111.167,381.5 108.833,381.5 106.5,381.5C 104.435,381.517 102.435,381.85 100.5,382.5C 100.611,381.883 100.944,381.383 101.5,381C 105.687,380.929 109.687,380.262 113.5,379C 120.679,378.179 127.679,378.345 134.5,379.5 Z"/></g>
<g><path style="opacity:0.894" fill="#aa9004" d="M 134.5,379.5 C 135.708,380.234 137.041,380.567 138.5,380.5C 138.5,380.833 138.5,381.167 138.5,381.5C 130.162,380.208 121.829,380.208 113.5,381.5C 113.918,380.778 114.584,380.278 115.5,380C 121.825,379.5 128.158,379.334 134.5,379.5 Z"/></g>
<g><path style="opacity:1" fill="#f8d401" d="M 138.5,381.5 C 142.702,383.36 146.369,386.026 149.5,389.5C 149.738,391.404 150.738,392.738 152.5,393.5C 152.427,395.027 153.094,396.027 154.5,396.5C 154.5,396.833 154.5,397.167 154.5,397.5C 155.08,399.749 156.413,401.415 158.5,402.5C 159.488,403.795 160.488,405.128 161.5,406.5C 161.427,408.027 162.094,409.027 163.5,409.5C 164.11,411.434 165.11,413.101 166.5,414.5C 165.862,417.856 167.196,419.856 170.5,420.5C 170.536,424.2 172.203,426.867 175.5,428.5C 176.5,428.833 177.167,429.5 177.5,430.5C 178.08,432.749 179.413,434.415 181.5,435.5C 182.038,437.117 182.371,438.784 182.5,440.5C 185.406,440.957 188.072,441.957 190.5,443.5C 193.968,445.287 197.635,446.62 201.5,447.5C 201.611,448.117 201.944,448.617 202.5,449C 214.797,451.648 227.13,452.148 239.5,450.5C 251.178,449.215 262.844,449.215 274.5,450.5C 276.099,450.232 277.432,450.566 278.5,451.5C 280.566,453.199 282.9,454.532 285.5,455.5C 286.167,455.833 286.833,456.167 287.5,456.5C 287.5,456.833 287.5,457.167 287.5,457.5C 288.249,459.795 287.915,462.128 286.5,464.5C 286.873,470.929 287.873,477.429 289.5,484C 288.978,484.561 288.645,485.228 288.5,486C 290.647,492.157 292.814,498.324 295,504.5C 296.699,505.406 298.533,505.739 300.5,505.5C 300.5,505.833 300.5,506.167 300.5,506.5C 299.5,506.5 298.5,506.5 297.5,506.5C 292.972,506.77 288.639,507.437 284.5,508.5C 268.5,508.5 252.5,508.5 236.5,508.5C 230.489,507.927 224.489,507.26 218.5,506.5C 215.391,506.736 212.391,506.403 209.5,505.5C 207.485,504.076 205.152,503.41 202.5,503.5C 191.492,501.84 181.159,498.507 171.5,493.5C 168.992,491.446 165.992,490.446 162.5,490.5C 162.167,490.5 161.833,490.5 161.5,490.5C 159.165,487.835 156.165,486.502 152.5,486.5C 151.833,486.5 151.167,486.5 150.5,486.5C 149.833,485.833 149.167,485.167 148.5,484.5C 146.383,482.345 143.716,481.345 140.5,481.5C 140.5,480.5 140.5,479.5 140.5,478.5C 137.996,477.361 135.33,476.694 132.5,476.5C 124.82,471.994 117.487,466.994 110.5,461.5C 109.089,459.086 107.089,457.419 104.5,456.5C 102.596,456.262 101.262,455.262 100.5,453.5C 98.4309,450.427 95.7642,448.094 92.5,446.5C 91.5,446.167 90.8333,445.5 90.5,444.5C 89.0892,442.086 87.0892,440.419 84.5,439.5C 83.8333,436.833 82.1667,435.167 79.5,434.5C 78.5,431.5 76.5,429.5 73.5,428.5C 64.7426,418.599 56.7426,408.266 49.5,397.5C 49.1667,396.833 48.8333,396.167 48.5,395.5C 50.1561,393.94 52.1561,392.94 54.5,392.5C 61.8971,391.659 69.2305,390.659 76.5,389.5C 85.7085,387.228 95.0418,385.228 104.5,383.5C 105.243,382.818 105.909,382.151 106.5,381.5C 108.833,381.5 111.167,381.5 113.5,381.5C 121.829,380.208 130.162,380.208 138.5,381.5 Z"/></g>
<g><path style="opacity:0.824" fill="#4f4409" d="M 100.5,382.5 C 97.6553,383.344 94.6553,384.01 91.5,384.5C 91.6107,383.883 91.944,383.383 92.5,383C 95.146,382.503 97.8127,382.336 100.5,382.5 Z"/></g>
<g><path style="opacity:0.847" fill="#5b4e08" d="M 138.5,381.5 C 138.5,381.167 138.5,380.833 138.5,380.5C 143.663,381.662 147.329,384.662 149.5,389.5C 146.369,386.026 142.702,383.36 138.5,381.5 Z"/></g>
<g><path style="opacity:0.967" fill="#c5a805" d="M 106.5,381.5 C 105.909,382.151 105.243,382.818 104.5,383.5C 95.0418,385.228 85.7085,387.228 76.5,389.5C 76.6107,388.883 76.944,388.383 77.5,388C 81.9714,386.957 86.3048,385.791 90.5,384.5C 90.8333,384.5 91.1667,384.5 91.5,384.5C 94.6553,384.01 97.6553,383.344 100.5,382.5C 102.435,381.85 104.435,381.517 106.5,381.5 Z"/></g>
<g><path style="opacity:1" fill="#fa425a" d="M 438.5,378.5 C 439.167,378.5 439.833,378.5 440.5,378.5C 442.218,379.224 444.052,379.891 446,380.5C 446.167,382 446.333,383.5 446.5,385C 446.034,396.332 445.034,406.832 443.5,416.5C 440.5,416.5 437.5,416.5 434.5,416.5C 434.5,413.833 434.5,411.167 434.5,408.5C 424.833,408.5 415.167,408.5 405.5,408.5C 405.5,411.167 405.5,413.833 405.5,416.5C 402.223,416.216 399.057,416.549 396,417.5C 394.913,414.309 394.08,410.975 393.5,407.5C 392.833,410.5 392.167,413.5 391.5,416.5C 390.794,406.986 389.794,397.653 388.5,388.5C 390.74,387.736 393.073,386.902 395.5,386C 409.889,383.65 424.223,381.15 438.5,378.5 Z"/></g>
<g><path style="opacity:1" fill="#fd7f91" d="M 438.5,378.5 C 441.625,377.521 444.958,377.187 448.5,377.5C 448.83,394.009 448.496,410.342 447.5,426.5C 447.5,410.5 447.5,394.5 447.5,378.5C 445.167,378.5 442.833,378.5 440.5,378.5C 439.833,378.5 439.167,378.5 438.5,378.5 Z"/></g>
<g><path style="opacity:1" fill="#fa435a" d="M 509.5,352.5 C 509.5,354.5 509.5,356.5 509.5,358.5C 508.668,377.662 508.168,396.996 508,416.5C 507.497,411.81 506.83,407.143 506,402.5C 505.667,413.5 505.333,424.5 505,435.5C 504.501,429.509 504.334,423.509 504.5,417.5C 497.174,416.938 489.841,416.272 482.5,415.5C 482.833,414.833 483.167,414.167 483.5,413.5C 479.893,412.511 476.226,412.177 472.5,412.5C 472.33,413.822 472.663,414.989 473.5,416C 470.183,416.498 466.85,416.665 463.5,416.5C 463.666,411.489 463.499,406.489 463,401.5C 462.624,409.858 461.957,418.191 461,426.5C 460.5,417.173 460.334,407.839 460.5,398.5C 461.167,389.325 461.833,379.991 462.5,370.5C 463.48,373.086 463.813,375.753 463.5,378.5C 476.413,378.178 489.246,378.511 502,379.5C 504.116,374.099 504.95,368.432 504.5,362.5C 506.402,359.663 507.069,356.329 506.5,352.5C 507.5,352.5 508.5,352.5 509.5,352.5 Z"/></g>
<g><path style="opacity:0.896" fill="#5a4d09" d="M 90.5,384.5 C 86.3048,385.791 81.9714,386.957 77.5,388C 76.944,388.383 76.6107,388.883 76.5,389.5C 69.2305,390.659 61.8971,391.659 54.5,392.5C 63.9667,389.862 73.6333,387.362 83.5,385C 85.8098,384.503 88.1432,384.337 90.5,384.5 Z"/></g>
<g><path style="opacity:0.871" fill="#6c5c0a" d="M 149.5,389.5 C 151.262,390.262 152.262,391.596 152.5,393.5C 150.738,392.738 149.738,391.404 149.5,389.5 Z"/></g>
<g><path style="opacity:1" fill="#fb4159" d="M 377.5,398.5 C 376.521,401.625 376.187,404.958 376.5,408.5C 375.566,409.568 375.232,410.901 375.5,412.5C 372.428,412.183 369.428,412.516 366.5,413.5C 366.833,414.167 367.167,414.833 367.5,415.5C 364.232,416.487 360.898,416.82 357.5,416.5C 357.5,415.167 357.5,413.833 357.5,412.5C 354.167,412.5 350.833,412.5 347.5,412.5C 347.5,413.833 347.5,415.167 347.5,416.5C 341.132,416.83 334.798,416.496 328.5,415.5C 328.833,414.833 329.167,414.167 329.5,413.5C 322.866,412.503 316.2,412.17 309.5,412.5C 309.66,414.199 309.494,415.866 309,417.5C 308.502,414.183 308.335,410.85 308.5,407.5C 309.489,402.025 309.822,396.358 309.5,390.5C 331.486,389.834 353.486,389.501 375.5,389.5C 375.5,386.833 375.5,384.167 375.5,381.5C 372.813,381.664 370.146,381.497 367.5,381C 370.817,380.502 374.15,380.335 377.5,380.5C 377.5,386.5 377.5,392.5 377.5,398.5 Z"/></g>
<g><path style="opacity:0.867" fill="#6b5c06" d="M 54.5,392.5 C 52.1561,392.94 50.1561,393.94 48.5,395.5C 47.596,394.791 47.2627,393.791 47.5,392.5C 49.8333,392.5 52.1667,392.5 54.5,392.5 Z"/></g>
<g><path style="opacity:0.831" fill="#6b5c0a" d="M 152.5,393.5 C 153.906,393.973 154.573,394.973 154.5,396.5C 153.094,396.027 152.427,395.027 152.5,393.5 Z"/></g>
<g><path style="opacity:0.914" fill="#a68d07" d="M 154.5,397.5 C 156.587,398.585 157.92,400.251 158.5,402.5C 156.413,401.415 155.08,399.749 154.5,397.5 Z"/></g>
<g><path style="opacity:0.835" fill="#5e500a" d="M 161.5,406.5 C 162.906,406.973 163.573,407.973 163.5,409.5C 162.094,409.027 161.427,408.027 161.5,406.5 Z"/></g>
<g><path style="opacity:1" fill="#fb3c53" d="M 440.5,378.5 C 442.833,378.5 445.167,378.5 447.5,378.5C 447.5,394.5 447.5,410.5 447.5,426.5C 447.141,428.371 446.141,429.871 444.5,431C 439.5,432 434.5,433 429.5,434C 420.325,436.33 415.992,442.163 416.5,451.5C 415.883,451.389 415.383,451.056 415,450.5C 414.51,451.793 414.343,453.127 414.5,454.5C 408.107,454.793 401.773,454.46 395.5,453.5C 394.029,454.381 393.196,455.714 393,457.5C 390.322,453.667 388.822,449.334 388.5,444.5C 387.833,448.647 387.166,452.647 386.5,456.5C 386.333,434.164 386.5,411.831 387,389.5C 387.383,388.944 387.883,388.611 388.5,388.5C 389.794,397.653 390.794,406.986 391.5,416.5C 392.167,413.5 392.833,410.5 393.5,407.5C 394.08,410.975 394.913,414.309 396,417.5C 399.057,416.549 402.223,416.216 405.5,416.5C 405.5,413.833 405.5,411.167 405.5,408.5C 415.167,408.5 424.833,408.5 434.5,408.5C 434.5,411.167 434.5,413.833 434.5,416.5C 437.5,416.5 440.5,416.5 443.5,416.5C 445.034,406.832 446.034,396.332 446.5,385C 446.333,383.5 446.167,382 446,380.5C 444.052,379.891 442.218,379.224 440.5,378.5 Z"/></g>
<g><path style="opacity:1" fill="#fb3b54" d="M 308.5,407.5 C 308.335,410.85 308.502,414.183 309,417.5C 309.494,415.866 309.66,414.199 309.5,412.5C 316.2,412.17 322.866,412.503 329.5,413.5C 329.167,414.167 328.833,414.833 328.5,415.5C 334.798,416.496 341.132,416.83 347.5,416.5C 347.5,415.167 347.5,413.833 347.5,412.5C 350.833,412.5 354.167,412.5 357.5,412.5C 357.5,413.833 357.5,415.167 357.5,416.5C 360.898,416.82 364.232,416.487 367.5,415.5C 367.167,414.833 366.833,414.167 366.5,413.5C 369.428,412.516 372.428,412.183 375.5,412.5C 375.232,410.901 375.566,409.568 376.5,408.5C 376.72,415.543 376.386,422.543 375.5,429.5C 353.269,428.861 331.269,429.528 309.5,431.5C 309.923,429.219 309.256,427.552 307.5,426.5C 307.333,405.164 307.5,383.831 308,362.5C 308.5,377.496 308.667,392.496 308.5,407.5 Z"/></g>
<g><path style="opacity:0.886" fill="#5a4d0a" d="M 163.5,409.5 C 165.727,410.401 166.727,412.067 166.5,414.5C 165.11,413.101 164.11,411.434 163.5,409.5 Z"/></g>
<g><path style="opacity:0.231" fill="#292404" d="M 49.5,397.5 C 56.7426,408.266 64.7426,418.599 73.5,428.5C 75.1667,430.833 77.1667,432.833 79.5,434.5C 80.8333,436.5 82.5,438.167 84.5,439.5C 85.9108,441.914 87.9108,443.581 90.5,444.5C 90.8333,445.5 91.5,446.167 92.5,446.5C 94.1667,448.5 95.8333,450.5 97.5,452.5C 88.2679,445.774 79.7679,438.108 72,429.5C 67.3586,423.193 62.3586,417.193 57,411.5C 54.2279,407.612 51.7279,403.612 49.5,399.5C 49.5,398.833 49.5,398.167 49.5,397.5 Z"/></g>
<g><path style="opacity:0.914" fill="#988209" d="M 166.5,414.5 C 168.326,416.147 169.66,418.147 170.5,420.5C 167.196,419.856 165.862,417.856 166.5,414.5 Z"/></g>
<g><path style="opacity:0.914" fill="#9c8508" d="M 170.5,420.5 C 172.664,422.822 174.331,425.489 175.5,428.5C 172.203,426.867 170.536,424.2 170.5,420.5 Z"/></g>
<g><path style="opacity:1" fill="#fb3850" d="M 509.5,358.5 C 509.5,381.167 509.5,403.833 509.5,426.5C 508.85,426.196 508.183,425.863 507.5,425.5C 506.213,428.709 506.213,431.875 507.5,435C 506.987,444.583 506.154,454.083 505,463.5C 504.667,456.833 504.333,450.167 504,443.5C 502.878,446.897 502.044,450.397 501.5,454C 488.838,454.5 476.171,454.667 463.5,454.5C 463.649,453.448 463.483,452.448 463,451.5C 460.922,454.354 458.755,454.688 456.5,452.5C 455.591,454.375 454.257,455.708 452.5,456.5C 453.572,454.118 454.738,451.784 456,449.5C 456.5,423.169 456.667,396.835 456.5,370.5C 458.309,378.775 459.142,387.442 459,396.5C 459.278,397.416 459.778,398.082 460.5,398.5C 460.334,407.839 460.5,417.173 461,426.5C 461.957,418.191 462.624,409.858 463,401.5C 463.499,406.489 463.666,411.489 463.5,416.5C 466.85,416.665 470.183,416.498 473.5,416C 472.663,414.989 472.33,413.822 472.5,412.5C 476.226,412.177 479.893,412.511 483.5,413.5C 483.167,414.167 482.833,414.833 482.5,415.5C 489.841,416.272 497.174,416.938 504.5,417.5C 504.334,423.509 504.501,429.509 505,435.5C 505.333,424.5 505.667,413.5 506,402.5C 506.83,407.143 507.497,411.81 508,416.5C 508.168,396.996 508.668,377.662 509.5,358.5 Z"/></g>
<g><path style="opacity:0.722" fill="#937e00" d="M 73.5,428.5 C 76.5,429.5 78.5,431.5 79.5,434.5C 77.1667,432.833 75.1667,430.833 73.5,428.5 Z"/></g>
<g><path style="opacity:0.847" fill="#6b5c07" d="M 177.5,430.5 C 179.587,431.585 180.92,433.251 181.5,435.5C 179.413,434.415 178.08,432.749 177.5,430.5 Z"/></g>
<g><path style="opacity:1" fill="#fb364e" d="M 377.5,398.5 C 377.5,412.5 377.5,426.5 377.5,440.5C 377.426,442.411 376.426,443.578 374.5,444C 371.746,444.272 369.079,444.772 366.5,445.5C 364.102,445.259 362.102,445.926 360.5,447.5C 359.127,447.343 357.793,447.51 356.5,448C 353.669,450.001 351.003,452.167 348.5,454.5C 347.752,452.265 346.919,452.598 346,455.5C 344.964,458.753 344.297,462.086 344,465.5C 343.503,462.854 343.336,460.187 343.5,457.5C 340.671,457.325 339.004,458.658 338.5,461.5C 335.444,459.711 332.111,459.044 328.5,459.5C 328.5,457.833 328.5,456.167 328.5,454.5C 322.167,454.5 315.833,454.5 309.5,454.5C 309.5,446.833 309.5,439.167 309.5,431.5C 331.269,429.528 353.269,428.861 375.5,429.5C 376.386,422.543 376.72,415.543 376.5,408.5C 376.187,404.958 376.521,401.625 377.5,398.5 Z"/></g>
<g><path style="opacity:0.757" fill="#978200" d="M 79.5,434.5 C 82.1667,435.167 83.8333,436.833 84.5,439.5C 82.5,438.167 80.8333,436.5 79.5,434.5 Z"/></g>
<g><path style="opacity:1" fill="#7d7473" d="M 306.5,361.5 C 306.168,396.004 306.502,430.337 307.5,464.5C 307.5,467.833 307.5,471.167 307.5,474.5C 307.167,474.5 306.833,474.5 306.5,474.5C 304.46,472.823 302.46,471.156 300.5,469.5C 302.086,470.413 303.586,470.413 305,469.5C 305.167,433.331 305.667,397.331 306.5,361.5 Z"/></g>
<g><path style="opacity:0.78" fill="#927e00" d="M 84.5,439.5 C 87.0892,440.419 89.0892,442.086 90.5,444.5C 87.9108,443.581 85.9108,441.914 84.5,439.5 Z"/></g>
<g><path style="opacity:0.914" fill="#b89c04" d="M 181.5,435.5 C 184.526,438.195 187.526,440.862 190.5,443.5C 188.072,441.957 185.406,440.957 182.5,440.5C 182.371,438.784 182.038,437.117 181.5,435.5 Z"/></g>
<g><path style="opacity:0.922" fill="#63540a" d="M 190.5,443.5 C 194.68,443.782 198.347,445.115 201.5,447.5C 197.635,446.62 193.968,445.287 190.5,443.5 Z"/></g>
<g><path style="opacity:0.894" fill="#fb657c" d="M 509.5,352.5 C 510.461,354.265 510.795,356.265 510.5,358.5C 510.667,397.168 510.5,435.835 510,474.5C 509.722,475.416 509.222,476.082 508.5,476.5C 509.441,459.861 509.775,443.195 509.5,426.5C 509.5,403.833 509.5,381.167 509.5,358.5C 509.5,356.5 509.5,354.5 509.5,352.5 Z"/></g>
<g><path style="opacity:0.792" fill="#937e00" d="M 92.5,446.5 C 95.7642,448.094 98.4309,450.427 100.5,453.5C 99.391,453.443 98.391,453.11 97.5,452.5C 95.8333,450.5 94.1667,448.5 92.5,446.5 Z"/></g>
<g><path style="opacity:0.888" fill="#716009" d="M 243.5,448.5 C 253.506,448.334 263.506,448.5 273.5,449C 274.056,449.383 274.389,449.883 274.5,450.5C 262.844,449.215 251.178,449.215 239.5,450.5C 240.833,449.833 242.167,449.167 243.5,448.5 Z"/></g>
<g><path style="opacity:0.805" fill="#342c0a" d="M 243.5,448.5 C 242.167,449.167 240.833,449.833 239.5,450.5C 229.985,450.827 220.652,450.494 211.5,449.5C 222.187,449.646 232.854,449.312 243.5,448.5 Z"/></g>
<g><path style="opacity:0.847" fill="#8b7609" d="M 201.5,447.5 C 204.876,448.076 208.209,448.743 211.5,449.5C 220.652,450.494 229.985,450.827 239.5,450.5C 227.13,452.148 214.797,451.648 202.5,449C 201.944,448.617 201.611,448.117 201.5,447.5 Z"/></g>
<g><path style="opacity:0.843" fill="#756412" d="M 278.5,451.5 C 279.167,451.5 279.833,451.5 280.5,451.5C 281.671,452.345 283.005,453.011 284.5,453.5C 284.833,454.167 285.167,454.833 285.5,455.5C 282.9,454.532 280.566,453.199 278.5,451.5 Z"/></g>
<g><path style="opacity:0.031" fill="#1d1a00" d="M 97.5,452.5 C 98.391,453.11 99.391,453.443 100.5,453.5C 101.262,455.262 102.596,456.262 104.5,456.5C 105.5,457.833 106.5,459.167 107.5,460.5C 103.251,458.912 99.9179,456.245 97.5,452.5 Z"/></g>
<g><path style="opacity:0.588" fill="#7f6c00" d="M 104.5,456.5 C 107.089,457.419 109.089,459.086 110.5,461.5C 109.391,461.443 108.391,461.11 107.5,460.5C 106.5,459.167 105.5,457.833 104.5,456.5 Z"/></g>
<g><path style="opacity:0.898" fill="#9b8b35" d="M 287.5,457.5 C 287.5,457.167 287.5,456.833 287.5,456.5C 289.062,456.733 290.395,457.4 291.5,458.5C 291.427,460.027 292.094,461.027 293.5,461.5C 294.167,462.833 295.167,463.833 296.5,464.5C 297.5,466.167 298.833,467.5 300.5,468.5C 300.5,468.833 300.5,469.167 300.5,469.5C 300.167,469.5 299.833,469.5 299.5,469.5C 295.14,465.806 291.14,461.806 287.5,457.5 Z"/></g>
<g><path style="opacity:1" fill="#fadb27" d="M 287.5,457.5 C 291.14,461.806 295.14,465.806 299.5,469.5C 300.41,481.701 304.076,493.035 310.5,503.5C 307.344,504.434 304.011,505.101 300.5,505.5C 298.533,505.739 296.699,505.406 295,504.5C 292.814,498.324 290.647,492.157 288.5,486C 288.645,485.228 288.978,484.561 289.5,484C 287.873,477.429 286.873,470.929 286.5,464.5C 287.915,462.128 288.249,459.795 287.5,457.5 Z"/></g>
<g><path style="opacity:0.02" fill="#272201" d="M 107.5,460.5 C 108.391,461.11 109.391,461.443 110.5,461.5C 117.487,466.994 124.82,471.994 132.5,476.5C 134.751,477.411 136.751,478.744 138.5,480.5C 133.418,478.273 128.418,475.773 123.5,473C 117.915,468.887 112.582,464.72 107.5,460.5 Z"/></g>
<g><path style="opacity:0.382" fill="#fef2f2" d="M 510.5,358.5 C 510.833,358.5 511.167,358.5 511.5,358.5C 511.5,409.5 511.5,460.5 511.5,511.5C 438.5,511.5 365.5,511.5 292.5,511.5C 292.5,510.167 293.167,509.5 294.5,509.5C 299.412,508.584 304.079,507.251 308.5,505.5C 311.785,505.072 314.785,504.072 317.5,502.5C 319.786,502.405 321.786,501.738 323.5,500.5C 330.967,505.63 339.3,508.797 348.5,510C 387.5,510.667 426.5,510.667 465.5,510C 468.88,509.661 472.213,509.161 475.5,508.5C 493.069,504.598 504.069,493.931 508.5,476.5C 509.222,476.082 509.722,475.416 510,474.5C 510.5,435.835 510.667,397.168 510.5,358.5 Z"/></g>
<g><path style="opacity:1" fill="#f92b44" d="M 509.5,426.5 C 509.775,443.195 509.441,459.861 508.5,476.5C 504.069,493.931 493.069,504.598 475.5,508.5C 475.179,506.952 474.179,506.285 472.5,506.5C 472.5,504.833 472.5,503.167 472.5,501.5C 475.073,501.852 477.406,501.352 479.5,500C 474.182,499.978 468.849,500.145 463.5,500.5C 463.492,497.455 463.159,494.455 462.5,491.5C 459.833,491.5 457.167,491.5 454.5,491.5C 453.705,495.785 453.372,500.119 453.5,504.5C 450.428,504.817 447.428,504.484 444.5,503.5C 444.296,499.637 443.963,495.637 443.5,491.5C 437.5,491.5 431.5,491.5 425.5,491.5C 424.841,494.455 424.508,497.455 424.5,500.5C 421.5,500.5 418.5,500.5 415.5,500.5C 415.492,497.455 415.159,494.455 414.5,491.5C 408.5,491.5 402.5,491.5 396.5,491.5C 395.705,495.785 395.372,500.119 395.5,504.5C 392.5,504.5 389.5,504.5 386.5,504.5C 386.5,503.167 386.5,501.833 386.5,500.5C 383.482,500.665 380.482,500.498 377.5,500C 376.556,497.281 376.223,494.448 376.5,491.5C 370.167,491.5 363.833,491.5 357.5,491.5C 357.664,494.187 357.497,496.854 357,499.5C 353.591,500.622 350.091,500.789 346.5,500C 347.523,497.226 347.523,494.393 346.5,491.5C 340.107,491.207 333.773,491.54 327.5,492.5C 326.833,491.833 326.167,491.167 325.5,490.5C 324.269,491.651 324.269,492.817 325.5,494C 323.575,493.865 321.575,493.698 319.5,493.5C 319.5,494.5 319.5,495.5 319.5,496.5C 313.414,490.33 309.414,482.997 307.5,474.5C 307.5,471.167 307.5,467.833 307.5,464.5C 307.5,451.833 307.5,439.167 307.5,426.5C 309.256,427.552 309.923,429.219 309.5,431.5C 309.5,439.167 309.5,446.833 309.5,454.5C 315.833,454.5 322.167,454.5 328.5,454.5C 328.5,456.167 328.5,457.833 328.5,459.5C 332.111,459.044 335.444,459.711 338.5,461.5C 339.004,458.658 340.671,457.325 343.5,457.5C 343.336,460.187 343.503,462.854 344,465.5C 344.297,462.086 344.964,458.753 346,455.5C 346.919,452.598 347.752,452.265 348.5,454.5C 347.051,456.925 346.385,459.591 346.5,462.5C 347.438,472.767 353.104,477.767 363.5,477.5C 377.975,477.684 385.641,470.684 386.5,456.5C 387.166,452.647 387.833,448.647 388.5,444.5C 388.822,449.334 390.322,453.667 393,457.5C 393.196,455.714 394.029,454.381 395.5,453.5C 401.773,454.46 408.107,454.793 414.5,454.5C 414.343,453.127 414.51,451.793 415,450.5C 415.383,451.056 415.883,451.389 416.5,451.5C 417.649,455.97 419.982,459.637 423.5,462.5C 426.356,464.006 429.523,464.672 433,464.5C 435.361,464.496 437.527,464.163 439.5,463.5C 444.819,462.85 449.152,460.517 452.5,456.5C 454.257,455.708 455.591,454.375 456.5,452.5C 458.755,454.688 460.922,454.354 463,451.5C 463.483,452.448 463.649,453.448 463.5,454.5C 476.171,454.667 488.838,454.5 501.5,454C 502.044,450.397 502.878,446.897 504,443.5C 504.333,450.167 504.667,456.833 505,463.5C 506.154,454.083 506.987,444.583 507.5,435C 506.213,431.875 506.213,428.709 507.5,425.5C 508.183,425.863 508.85,426.196 509.5,426.5 Z"/></g>
<g><path style="opacity:1" fill="#f9c1c9" d="M 423.5,462.5 C 428.797,463.275 434.13,463.608 439.5,463.5C 437.527,464.163 435.361,464.496 433,464.5C 429.523,464.672 426.356,464.006 423.5,462.5 Z"/></g>
<g><path style="opacity:1" fill="#feadb7" d="M 366.5,445.5 C 364.898,447.074 362.898,447.741 360.5,447.5C 362.102,445.926 364.102,445.259 366.5,445.5 Z"/></g>
<g><path style="opacity:0.357" fill="#615405" d="M 132.5,476.5 C 135.33,476.694 137.996,477.361 140.5,478.5C 140.5,479.5 140.5,480.5 140.5,481.5C 143.716,481.345 146.383,482.345 148.5,484.5C 146.421,484.029 144.421,483.363 142.5,482.5C 140.62,482.771 139.287,482.104 138.5,480.5C 136.751,478.744 134.751,477.411 132.5,476.5 Z"/></g>
<g><path style="opacity:0.012" fill="#201b00" d="M 142.5,482.5 C 144.421,483.363 146.421,484.029 148.5,484.5C 149.167,485.167 149.833,485.833 150.5,486.5C 147.101,486.391 144.434,485.058 142.5,482.5 Z"/></g>
<g><path style="opacity:0.757" fill="#8b7700" d="M 152.5,486.5 C 156.165,486.502 159.165,487.835 161.5,490.5C 159.167,489.833 156.833,489.167 154.5,488.5C 153.833,487.833 153.167,487.167 152.5,486.5 Z"/></g>
<g><path style="opacity:0.047" fill="#1b1700" d="M 150.5,486.5 C 151.167,486.5 151.833,486.5 152.5,486.5C 153.167,487.167 153.833,487.833 154.5,488.5C 152.62,488.771 151.287,488.104 150.5,486.5 Z"/></g>
<g><path style="opacity:0.949" fill="#ba9f00" d="M 162.5,490.5 C 165.992,490.446 168.992,491.446 171.5,493.5C 167.845,494.075 164.845,493.075 162.5,490.5 Z"/></g>
<g><path style="opacity:1" fill="#fbe358" d="M 299.5,469.5 C 299.833,469.5 300.167,469.5 300.5,469.5C 302.46,471.156 304.46,472.823 306.5,474.5C 307.142,483.066 309.642,491.066 314,498.5C 315.255,499.211 316.421,500.044 317.5,501C 316.263,501.232 315.263,501.732 314.5,502.5C 313.292,503.234 311.959,503.567 310.5,503.5C 304.076,493.035 300.41,481.701 299.5,469.5 Z"/></g>
<g><path style="opacity:1" fill="#fae175" d="M 306.5,474.5 C 306.833,474.5 307.167,474.5 307.5,474.5C 309.414,482.997 313.414,490.33 319.5,496.5C 320.5,498.167 321.833,499.5 323.5,500.5C 321.786,501.738 319.786,502.405 317.5,502.5C 316.5,502.5 315.5,502.5 314.5,502.5C 315.263,501.732 316.263,501.232 317.5,501C 316.421,500.044 315.255,499.211 314,498.5C 309.642,491.066 307.142,483.066 306.5,474.5 Z"/></g>
<g><path style="opacity:0.129" fill="#302a04" d="M 154.5,488.5 C 156.833,489.167 159.167,489.833 161.5,490.5C 161.833,490.5 162.167,490.5 162.5,490.5C 164.845,493.075 167.845,494.075 171.5,493.5C 181.159,498.507 191.492,501.84 202.5,503.5C 204.515,504.924 206.848,505.59 209.5,505.5C 212.391,506.403 215.391,506.736 218.5,506.5C 221.78,507.712 225.113,508.712 228.5,509.5C 227.167,509.5 225.833,509.5 224.5,509.5C 204.654,506.746 185.321,501.912 166.5,495C 162.278,493.059 158.278,490.892 154.5,488.5 Z"/></g>
<g><path style="opacity:1" fill="#fa293f" d="M 475.5,508.5 C 472.213,509.161 468.88,509.661 465.5,510C 426.5,510.667 387.5,510.667 348.5,510C 339.3,508.797 330.967,505.63 323.5,500.5C 321.833,499.5 320.5,498.167 319.5,496.5C 319.5,495.5 319.5,494.5 319.5,493.5C 321.575,493.698 323.575,493.865 325.5,494C 324.269,492.817 324.269,491.651 325.5,490.5C 326.167,491.167 326.833,491.833 327.5,492.5C 333.773,491.54 340.107,491.207 346.5,491.5C 347.523,494.393 347.523,497.226 346.5,500C 350.091,500.789 353.591,500.622 357,499.5C 357.497,496.854 357.664,494.187 357.5,491.5C 363.833,491.5 370.167,491.5 376.5,491.5C 376.223,494.448 376.556,497.281 377.5,500C 380.482,500.498 383.482,500.665 386.5,500.5C 386.5,501.833 386.5,503.167 386.5,504.5C 389.5,504.5 392.5,504.5 395.5,504.5C 395.372,500.119 395.705,495.785 396.5,491.5C 402.5,491.5 408.5,491.5 414.5,491.5C 415.159,494.455 415.492,497.455 415.5,500.5C 418.5,500.5 421.5,500.5 424.5,500.5C 424.508,497.455 424.841,494.455 425.5,491.5C 431.5,491.5 437.5,491.5 443.5,491.5C 443.963,495.637 444.296,499.637 444.5,503.5C 447.428,504.484 450.428,504.817 453.5,504.5C 453.372,500.119 453.705,495.785 454.5,491.5C 457.167,491.5 459.833,491.5 462.5,491.5C 463.159,494.455 463.492,497.455 463.5,500.5C 468.849,500.145 474.182,499.978 479.5,500C 477.406,501.352 475.073,501.852 472.5,501.5C 472.5,503.167 472.5,504.833 472.5,506.5C 474.179,506.285 475.179,506.952 475.5,508.5 Z"/></g>
<g><path style="opacity:0.518" fill="#776800" d="M 202.5,503.5 C 205.152,503.41 207.485,504.076 209.5,505.5C 206.848,505.59 204.515,504.924 202.5,503.5 Z"/></g>
<g><path style="opacity:0.569" fill="#b6a755" d="M 314.5,502.5 C 315.5,502.5 316.5,502.5 317.5,502.5C 314.785,504.072 311.785,505.072 308.5,505.5C 305.833,505.833 303.167,506.167 300.5,506.5C 300.5,506.167 300.5,505.833 300.5,505.5C 304.011,505.101 307.344,504.434 310.5,503.5C 311.959,503.567 313.292,503.234 314.5,502.5 Z"/></g>
<g><path style="opacity:0.463" fill="#938011" d="M 297.5,506.5 C 296.5,507.167 295.5,507.833 294.5,508.5C 291.167,508.5 287.833,508.5 284.5,508.5C 288.639,507.437 292.972,506.77 297.5,506.5 Z"/></g>
<g><path style="opacity:0.165" fill="#958e6f" d="M 308.5,505.5 C 304.079,507.251 299.412,508.584 294.5,509.5C 294.5,509.167 294.5,508.833 294.5,508.5C 295.5,507.833 296.5,507.167 297.5,506.5C 298.5,506.5 299.5,506.5 300.5,506.5C 303.167,506.167 305.833,505.833 308.5,505.5 Z"/></g>
<g><path style="opacity:0.455" fill="#6c5d00" d="M 218.5,506.5 C 224.489,507.26 230.489,507.927 236.5,508.5C 236.5,508.833 236.5,509.167 236.5,509.5C 233.833,509.5 231.167,509.5 228.5,509.5C 225.113,508.712 221.78,507.712 218.5,506.5 Z"/></g>
<g><path style="opacity:0.028" fill="#0a0800" d="M 224.5,509.5 C 225.833,509.5 227.167,509.5 228.5,509.5C 231.167,509.5 233.833,509.5 236.5,509.5C 237.338,509.842 237.672,510.508 237.5,511.5C 232.833,511.5 228.167,511.5 223.5,511.5C 223.833,510.833 224.167,510.167 224.5,509.5 Z"/></g>
<g><path style="opacity:0.533" fill="#827000" d="M 236.5,509.5 C 236.5,509.167 236.5,508.833 236.5,508.5C 252.5,508.5 268.5,508.5 284.5,508.5C 284.5,508.833 284.5,509.167 284.5,509.5C 281.813,509.336 279.146,509.503 276.5,510C 275.944,510.383 275.611,510.883 275.5,511.5C 262.833,511.5 250.167,511.5 237.5,511.5C 237.672,510.508 237.338,509.842 236.5,509.5 Z"/></g>
<g><path style="opacity:0.145" fill="#252105" d="M 284.5,509.5 C 285.833,509.5 286.5,510.167 286.5,511.5C 282.833,511.5 279.167,511.5 275.5,511.5C 275.611,510.883 275.944,510.383 276.5,510C 279.146,509.503 281.813,509.336 284.5,509.5 Z"/></g>
<g><path style="opacity:0.043" fill="#595543" d="M 284.5,509.5 C 284.5,509.167 284.5,508.833 284.5,508.5C 287.833,508.5 291.167,508.5 294.5,508.5C 294.5,508.833 294.5,509.167 294.5,509.5C 293.167,509.5 292.5,510.167 292.5,511.5C 290.5,511.5 288.5,511.5 286.5,511.5C 286.5,510.167 285.833,509.5 284.5,509.5 Z"/></g>
</svg>
