<?xml version="1.0" encoding="UTF-8"?>
<!DOCTYPE svg PUBLIC "-//W3C//DTD SVG 1.1//EN" "http://www.w3.org/Graphics/SVG/1.1/DTD/svg11.dtd">
<svg xmlns="http://www.w3.org/2000/svg" version="1.1" width="512px" height="512px" style="shape-rendering:geometricPrecision; text-rendering:geometricPrecision; image-rendering:optimizeQuality; fill-rule:evenodd; clip-rule:evenodd" xmlns:xlink="http://www.w3.org/1999/xlink">
<g><path style="opacity:0.827" fill="#c8c870" d="M 103.5,0.5 C 103.5,0.166667 103.5,-0.166667 103.5,-0.5C 204.833,-0.5 306.167,-0.5 407.5,-0.5C 410.833,0.166667 414.167,0.833333 417.5,1.5C 413.958,1.18723 410.625,1.52056 407.5,2.5C 407.167,2.5 406.833,2.5 406.5,2.5C 405.5,2.5 404.5,2.5 403.5,2.5C 402.737,1.73209 401.737,1.23209 400.5,1C 327.501,0.500003 254.501,0.333337 181.5,0.5C 157.833,0.5 134.167,0.5 110.5,0.5C 108.167,0.5 105.833,0.5 103.5,0.5 Z"/></g>
<g><path style="opacity:1" fill="#fffeb5" d="M 181.5,1.5 C 181.5,1.16667 181.5,0.833333 181.5,0.5C 254.501,0.333337 327.501,0.500003 400.5,1C 401.737,1.23209 402.737,1.73209 403.5,2.5C 402.167,2.5 400.833,2.5 399.5,2.5C 327.002,1.50077 254.335,1.16744 181.5,1.5 Z"/></g>
<g><path style="opacity:0.839" fill="#878716" d="M 89.5,2.5 C 87.4855,3.92381 85.1522,4.59047 82.5,4.5C 84.5145,3.07619 86.8478,2.40953 89.5,2.5 Z"/></g>
<g><path style="opacity:1" fill="#fffec8" d="M 150.5,2.5 C 154.167,2.5 157.833,2.5 161.5,2.5C 161.389,3.11742 161.056,3.61742 160.5,4C 150.668,5.01038 150.335,6.34371 159.5,8C 189.676,10.8857 219.843,13.0523 250,14.5C 298.03,14.8727 346.197,14.3727 394.5,13C 402.936,13.3361 410.936,11.8361 418.5,8.5C 417.174,7.35782 416.174,6.02449 415.5,4.5C 417.199,4.33982 418.866,4.50649 420.5,5C 422.095,7.10189 424.095,8.60189 426.5,9.5C 426.586,10.4959 426.252,11.3292 425.5,12C 419.738,14.4409 413.738,15.6076 407.5,15.5C 357.143,17.2038 306.976,17.8704 257,17.5C 225.484,16.4193 193.984,14.2526 162.5,11C 154.349,10.0046 146.349,8.50462 138.5,6.5C 142.329,4.32633 146.329,2.993 150.5,2.5 Z"/></g>
<g><path style="opacity:1" fill="#fdfd4f" d="M 103.5,0.5 C 105.833,0.5 108.167,0.5 110.5,0.5C 110.167,1.5 109.5,2.16667 108.5,2.5C 106.901,2.23219 105.568,2.56552 104.5,3.5C 96.2192,4.85005 94.8859,8.35005 100.5,14C 108.505,17.4452 116.838,20.1118 125.5,22C 220.777,35.9711 316.11,38.9711 411.5,31C 421.175,30.105 430.175,27.2716 438.5,22.5C 440.608,20.6179 441.941,18.2846 442.5,15.5C 441.268,13.9501 440.768,12.2834 441,10.5C 441.383,11.056 441.883,11.3893 442.5,11.5C 445.544,12.2206 447.211,14.2206 447.5,17.5C 447.451,20.0991 446.451,22.2658 444.5,24C 421.563,34.3529 397.896,39.1863 373.5,38.5C 362.97,39.1557 352.47,39.8223 342,40.5C 266.998,40.354 191.164,34.5207 114.5,23C 107.5,20.6667 100.5,18.3333 93.5,16C 88.8035,12.6232 88.4701,8.95655 92.5,5C 92.2716,4.60123 91.9382,4.43456 91.5,4.5C 92.6602,2.79734 91.9935,2.13068 89.5,2.5C 93.8807,0.78945 98.5474,0.122783 103.5,0.5 Z"/></g>
<g><path style="opacity:1" fill="#fdfd34" d="M 89.5,2.5 C 91.9935,2.13068 92.6602,2.79734 91.5,4.5C 87.2593,8.92554 87.5926,13.0922 92.5,17C 99.3724,21.1021 106.706,24.1021 114.5,26C 178.464,35.9334 242.297,42.1 306,44.5C 313.435,45.4327 320.935,46.2661 328.5,47C 332.723,47.3551 336.39,48.3551 339.5,50C 329.861,57.3025 319.861,63.8025 309.5,69.5C 284.728,57.9276 258.728,53.9276 231.5,57.5C 229.615,55.6885 227.281,54.5218 224.5,54C 186.379,47.9798 148.379,41.3132 110.5,34C 101.276,30.7211 92.6089,26.3878 84.5,21C 78.3351,16.5385 77.6684,11.7051 82.5,6.5C 78.8262,5.83065 75.4928,6.83065 72.5,9.5C 71.8165,9.13727 71.1499,8.80393 70.5,8.5C 74.0845,6.19393 78.0845,4.8606 82.5,4.5C 85.1522,4.59047 87.4855,3.92381 89.5,2.5 Z"/></g>
<g><path style="opacity:0.008" fill="#010200" d="M 63.5,9.5 C 63.8966,8.47498 64.5632,8.30831 65.5,9C 64.9056,9.46434 64.2389,9.63101 63.5,9.5 Z"/></g>
<g><path style="opacity:1" fill="#fdfd1b" d="M 231.5,57.5 C 190.342,64.1655 161.675,86.6655 145.5,125C 143.376,131.702 141.876,138.535 141,145.5C 140.33,168.193 140.83,190.86 142.5,213.5C 138.524,214.331 134.524,214.497 130.5,214C 123.719,211.129 116.719,208.962 109.5,207.5C 98.992,208.559 92.3253,214.059 89.5,224C 91.5324,233.039 96.8657,239.372 105.5,243C 110.332,245.332 115.332,247.166 120.5,248.5C 122.162,254.65 124.496,260.483 127.5,266C 125.612,272.949 123.112,279.782 120,286.5C 119.667,289.167 119.333,291.833 119,294.5C 117.842,298.314 116.009,301.814 113.5,305C 113.743,305.902 114.077,306.735 114.5,307.5C 111.5,311.167 108.167,314.5 104.5,317.5C 104.265,316.903 103.765,316.57 103,316.5C 98.5518,317.862 94.2185,319.529 90,321.5C 86.1895,320.852 83.3562,318.852 81.5,315.5C 80.2054,314.902 78.8721,314.402 77.5,314C 77.6938,312.097 77.6938,310.263 77.5,308.5C 73.8823,304.197 72.8823,299.364 74.5,294C 73.8333,292.667 73.1667,291.333 72.5,290C 73.1667,285.667 73.8333,281.333 74.5,277C 74.0224,271.659 74.6891,266.325 76.5,261C 76.0058,257.609 76.6724,254.276 78.5,251C 78.1667,250.667 77.8333,250.333 77.5,250C 78.7444,245.139 80.0778,240.306 81.5,235.5C 80.9665,232.893 81.6331,230.393 83.5,228C 81.5666,224.879 81.5666,221.546 83.5,218C 81.579,215.098 81.579,212.431 83.5,210C 82.1667,208.667 82.1667,207.333 83.5,206C 82.0393,204.024 81.706,202.024 82.5,200C 81.7411,196.356 81.0744,192.689 80.5,189C 82.0568,161.991 85.2235,134.491 90,106.5C 94.7506,97.326 100.251,88.6594 106.5,80.5C 112.474,76.5092 118.808,73.0092 125.5,70C 124.549,69.2825 124.383,68.4491 125,67.5C 126.487,66.8448 127.653,65.8448 128.5,64.5C 127.586,62.3359 126.419,60.3359 125,58.5C 122.645,58.3999 120.478,57.2332 118.5,55C 114.755,53.6297 111.088,51.963 107.5,50C 98.6752,43.4207 89.6752,37.0873 80.5,31C 77.6412,28.4712 74.8079,25.9712 72,23.5C 69.9128,20.3272 68.0795,16.9939 66.5,13.5C 64.9547,12.5481 63.288,12.2148 61.5,12.5C 64.2558,10.7962 67.2558,9.46291 70.5,8.5C 71.1499,8.80393 71.8165,9.13727 72.5,9.5C 75.4928,6.83065 78.8262,5.83065 82.5,6.5C 77.6684,11.7051 78.3351,16.5385 84.5,21C 92.6089,26.3878 101.276,30.7211 110.5,34C 148.379,41.3132 186.379,47.9798 224.5,54C 227.281,54.5218 229.615,55.6885 231.5,57.5 Z"/></g>
<g><path style="opacity:1" fill="#fffeba" d="M 150.5,2.5 C 146.329,2.993 142.329,4.32633 138.5,6.5C 146.349,8.50462 154.349,10.0046 162.5,11C 193.984,14.2526 225.484,16.4193 257,17.5C 306.976,17.8704 357.143,17.2038 407.5,15.5C 389.086,17.9003 370.419,19.067 351.5,19C 304.495,19.5736 257.495,19.2403 210.5,18C 181.213,17.0793 152.213,13.7459 123.5,8C 122.448,6.28355 123.114,5.28355 125.5,5C 133.748,3.2739 142.082,2.44056 150.5,2.5 Z"/></g>
<g><path style="opacity:1" fill="#fefed5" d="M 177.5,1.5 C 178.833,1.5 180.167,1.5 181.5,1.5C 254.335,1.16744 327.002,1.50077 399.5,2.5C 332.166,2.33334 264.833,2.5 197.5,3C 192.47,3.44774 187.47,4.11441 182.5,5C 186.381,6.19014 190.381,6.85681 194.5,7C 267.607,9.2748 338.94,9.60813 408.5,8C 409.5,7.66667 410.5,7.33333 411.5,7C 409.308,5.93309 407.642,4.43309 406.5,2.5C 406.833,2.5 407.167,2.5 407.5,2.5C 410.327,2.58378 412.994,3.25045 415.5,4.5C 416.174,6.02449 417.174,7.35782 418.5,8.5C 410.936,11.8361 402.936,13.3361 394.5,13C 346.197,14.3727 298.03,14.8727 250,14.5C 219.843,13.0523 189.676,10.8857 159.5,8C 150.335,6.34371 150.668,5.01038 160.5,4C 161.056,3.61742 161.389,3.11742 161.5,2.5C 167.026,2.82141 172.36,2.48808 177.5,1.5 Z"/></g>
<g><path style="opacity:1" fill="#fffeea" d="M 399.5,2.5 C 400.833,2.5 402.167,2.5 403.5,2.5C 404.5,2.5 405.5,2.5 406.5,2.5C 407.642,4.43309 409.308,5.93309 411.5,7C 410.5,7.33333 409.5,7.66667 408.5,8C 338.94,9.60813 267.607,9.2748 194.5,7C 190.381,6.85681 186.381,6.19014 182.5,5C 187.47,4.11441 192.47,3.44774 197.5,3C 264.833,2.5 332.166,2.33334 399.5,2.5 Z"/></g>
<g><path style="opacity:0.008" fill="#010200" d="M 444.5,9.5 C 444.897,8.47498 445.563,8.30831 446.5,9C 445.906,9.46434 445.239,9.63101 444.5,9.5 Z"/></g>
<g><path style="opacity:1" fill="#fdfd38" d="M 444.5,10.5 C 449.885,12.0263 454.885,14.3596 459.5,17.5C 459.5,17.8333 459.5,18.1667 459.5,18.5C 457.202,18.5699 454.868,18.5699 452.5,18.5C 453.877,21.5766 453.71,24.5766 452,27.5C 448.592,30.4532 445.092,33.2865 441.5,36C 439.604,37.8083 439.104,39.975 440,42.5C 447.061,50.2944 453.395,58.6277 459,67.5C 461.652,74.4288 463.152,81.5954 463.5,89C 455.369,157.211 447.036,225.378 438.5,293.5C 439.609,295.385 440.443,297.385 441,299.5C 449.214,307.036 458.047,313.87 467.5,320C 484.338,332.171 493.505,348.671 495,369.5C 495.5,387.83 495.667,406.164 495.5,424.5C 493.953,431.065 493.286,437.732 493.5,444.5C 492.778,444.918 492.278,445.584 492,446.5C 491.667,444.833 491.333,443.167 491,441.5C 490.916,414.475 490.25,387.475 489,360.5C 486.451,351.287 483.451,342.287 480,333.5C 477.97,330.437 475.136,328.771 471.5,328.5C 471.719,327.325 471.386,326.325 470.5,325.5C 467.643,323.232 464.976,320.732 462.5,318C 448.622,311.137 434.956,303.804 421.5,296C 425.5,295 425.5,294 421.5,293C 423.603,287.709 425.603,282.042 427.5,276C 433.024,246.373 438.857,216.54 445,186.5C 450.068,153.857 454.901,121.19 459.5,88.5C 458.732,80.4277 456.566,72.761 453,65.5C 446.724,55.9398 438.224,49.1064 427.5,45C 423.5,42 423.5,39 427.5,36C 434.446,33.1939 441.112,29.8606 447.5,26C 448.627,24.2467 449.627,22.4134 450.5,20.5C 450.121,18.7869 449.121,17.7869 447.5,17.5C 447.211,14.2206 445.544,12.2206 442.5,11.5C 443.167,11.1667 443.833,10.8333 444.5,10.5 Z"/></g>
<g><path style="opacity:0.01" fill="#020200" d="M 459.5,17.5 C 459.897,16.475 460.563,16.3083 461.5,17C 462.598,17.7697 462.598,18.603 461.5,19.5C 460.833,19.5 460.5,19.1667 460.5,18.5C 460.5,17.8333 460.167,17.5 459.5,17.5 Z"/></g>
<g><path style="opacity:1" fill="#fcfc0f" d="M 61.5,12.5 C 63.288,12.2148 64.9547,12.5481 66.5,13.5C 68.0795,16.9939 69.9128,20.3272 72,23.5C 74.8079,25.9712 77.6412,28.4712 80.5,31C 89.6752,37.0873 98.6752,43.4207 107.5,50C 111.088,51.963 114.755,53.6297 118.5,55C 120.478,57.2332 122.645,58.3999 125,58.5C 126.419,60.3359 127.586,62.3359 128.5,64.5C 127.653,65.8448 126.487,66.8448 125,67.5C 124.383,68.4491 124.549,69.2825 125.5,70C 118.808,73.0092 112.474,76.5092 106.5,80.5C 100.251,88.6594 94.7506,97.326 90,106.5C 85.2235,134.491 82.0568,161.991 80.5,189C 81.0744,192.689 81.7411,196.356 82.5,200C 81.706,202.024 82.0393,204.024 83.5,206C 82.1667,207.333 82.1667,208.667 83.5,210C 81.579,212.431 81.579,215.098 83.5,218C 81.5666,221.546 81.5666,224.879 83.5,228C 81.6331,230.393 80.9665,232.893 81.5,235.5C 80.0778,240.306 78.7444,245.139 77.5,250C 77.8333,250.333 78.1667,250.667 78.5,251C 76.6724,254.276 76.0058,257.609 76.5,261C 74.6891,266.325 74.0224,271.659 74.5,277C 73.8333,281.333 73.1667,285.667 72.5,290C 73.1667,291.333 73.8333,292.667 74.5,294C 72.8823,299.364 73.8823,304.197 77.5,308.5C 77.6938,310.263 77.6938,312.097 77.5,314C 78.8721,314.402 80.2054,314.902 81.5,315.5C 83.3562,318.852 86.1895,320.852 90,321.5C 94.2185,319.529 98.5518,317.862 103,316.5C 103.765,316.57 104.265,316.903 104.5,317.5C 92.6471,329.426 78.3138,336.593 61.5,339C 45.284,345.769 44.284,354.436 58.5,365C 72.7902,371.823 87.7902,376.323 103.5,378.5C 105.29,382.658 106.29,386.991 106.5,391.5C 106.849,394.045 106.016,396.045 104,397.5C 102.75,396.427 101.416,396.427 100,397.5C 98.7147,397.05 97.548,396.383 96.5,395.5C 93.9901,397.511 91.6568,399.678 89.5,402C 91.2826,403.067 91.7826,404.567 91,406.5C 90.3333,407.833 89.6667,407.833 89,406.5C 89.9822,409.909 88.6489,412.242 85,413.5C 73.8989,411.743 63.3989,408.077 53.5,402.5C 48.0519,395.323 41.7185,389.989 34.5,386.5C 31.9982,386.621 29.3315,386.788 26.5,387C 21.3057,390.524 18.139,395.357 17,401.5C 14.7519,404.328 12.7519,407.328 11,410.5C 10.5173,419.839 10.0173,429.172 9.5,438.5C 8.83333,438.5 8.16667,438.5 7.5,438.5C 5.41105,434.499 4.07772,430.165 3.5,425.5C 3.73731,424.209 3.40397,423.209 2.5,422.5C 2.5,421.833 2.16667,421.5 1.5,421.5C 1.08855,416.662 0.421887,411.995 -0.5,407.5C -0.5,306.167 -0.5,204.833 -0.5,103.5C 0.236339,98.2399 1.23634,92.9065 2.5,87.5C 3.33825,87.1583 3.67158,86.4916 3.5,85.5C 3.26269,84.209 3.59603,83.209 4.5,82.5C 4.26057,84.4672 4.59391,86.3005 5.5,88C 2.59449,91.2834 1.92782,94.95 3.5,99C 2.73622,101.069 2.23622,103.236 2,105.5C 1.33333,193.833 1.33333,282.167 2,370.5C 2.33333,375.167 2.66667,379.833 3,384.5C 3.42258,385.956 4.25591,386.456 5.5,386C 5.16667,385.667 4.83333,385.333 4.5,385C 5.86328,383.055 6.69661,380.888 7,378.5C 9.4477,361.766 13.4477,345.766 19,330.5C 22.7568,324.698 27.0902,319.365 32,314.5C 33.164,314.165 34.4974,314.165 36,314.5C 38.773,312.673 41.6063,310.839 44.5,309C 44.1667,308.667 43.8333,308.333 43.5,308C 45.447,304.388 47.7803,301.055 50.5,298C 50.5,296.333 50.5,294.667 50.5,293C 52.5384,291.764 53.7051,289.931 54,287.5C 57.1524,275.734 59.6524,263.901 61.5,252C 60.7539,249.907 60.4205,247.907 60.5,246C 61.8583,244.168 62.1916,242.335 61.5,240.5C 63.4718,230.65 65.1385,220.983 66.5,211.5C 66.7074,202.507 66.7074,193.674 66.5,185C 68.0455,168.604 70.0455,152.437 72.5,136.5C 72.1943,132.569 72.1943,128.403 72.5,124C 73.1667,121.333 73.8333,118.667 74.5,116C 74.3842,114.732 74.0509,113.398 73.5,112C 78.9066,97.1136 83.9066,82.1136 88.5,67C 87.4267,65.7496 87.4267,64.4162 88.5,63C 88.2409,61.7387 87.5742,60.7387 86.5,60C 87.2583,58.6361 86.7583,57.4695 85,56.5C 84.654,54.7818 84.154,53.1151 83.5,51.5C 74.5248,41.6029 65.0248,32.2695 55,23.5C 48.5244,24.8313 42.6911,27.998 37.5,33C 35.0302,33.9888 32.6968,35.1554 30.5,36.5C 33.5,33.1667 36.5,29.8333 39.5,26.5C 40.1667,26.5 40.5,26.1667 40.5,25.5C 43.1667,23.8333 45.8333,22.1667 48.5,20.5C 50.0269,20.573 51.0269,19.9063 51.5,18.5C 54.1612,15.4977 57.4945,13.4977 61.5,12.5 Z"/></g>
<g><path style="opacity:1" fill="#fefd43" d="M 91.5,4.5 C 91.9382,4.43456 92.2716,4.60123 92.5,5C 88.4701,8.95655 88.8035,12.6232 93.5,16C 100.5,18.3333 107.5,20.6667 114.5,23C 191.164,34.5207 266.998,40.354 342,40.5C 352.47,39.8223 362.97,39.1557 373.5,38.5C 397.896,39.1863 421.563,34.3529 444.5,24C 446.451,22.2658 447.451,20.0991 447.5,17.5C 449.121,17.7869 450.121,18.7869 450.5,20.5C 449.627,22.4134 448.627,24.2467 447.5,26C 441.112,29.8606 434.446,33.1939 427.5,36C 423.5,39 423.5,42 427.5,45C 438.224,49.1064 446.724,55.9398 453,65.5C 456.566,72.761 458.732,80.4277 459.5,88.5C 454.901,121.19 450.068,153.857 445,186.5C 438.857,216.54 433.024,246.373 427.5,276C 425.603,282.042 423.603,287.709 421.5,293C 425.5,294 425.5,295 421.5,296C 434.956,303.804 448.622,311.137 462.5,318C 464.976,320.732 467.643,323.232 470.5,325.5C 471.386,326.325 471.719,327.325 471.5,328.5C 465.4,323.115 458.4,319.282 450.5,317C 432.537,315.6 414.537,315.1 396.5,315.5C 396.167,314.5 395.5,313.833 394.5,313.5C 390.805,309.474 387.138,305.474 383.5,301.5C 376.289,292.415 370.622,282.415 366.5,271.5C 370.729,268.775 374.562,265.441 378,261.5C 380.809,255.693 384.976,251.193 390.5,248C 389.944,247.617 389.611,247.117 389.5,246.5C 397.618,243.853 404.784,239.519 411,233.5C 416.564,222.772 413.731,214.938 402.5,210C 398.993,208.442 395.327,207.608 391.5,207.5C 384.8,208.788 378.3,210.788 372,213.5C 368.493,214.764 364.993,214.764 361.5,213.5C 362.218,200.169 362.884,186.836 363.5,173.5C 364.117,173.611 364.617,173.944 365,174.5C 365.333,172.167 365.667,169.833 366,167.5C 367.887,177.939 372.887,186.606 381,193.5C 381.333,193.167 381.667,192.833 382,192.5C 383.243,194.833 384.909,195.5 387,194.5C 394.647,198.069 401.814,202.069 408.5,206.5C 409.72,207.711 410.887,207.711 412,206.5C 415.322,208.884 418.822,211.05 422.5,213C 424.521,213.14 426.355,213.307 428,213.5C 433.676,198.137 438.343,182.471 442,166.5C 447.2,140.598 451.7,114.598 455.5,88.5C 453.465,64.4647 440.465,51.4647 416.5,49.5C 393.257,51.9861 370.59,56.1528 348.5,62C 343.084,64.1389 337.751,66.4722 332.5,69C 329.333,71.5 326.5,74.3333 324,77.5C 323.329,76.7476 322.496,76.4142 321.5,76.5C 317.492,74.1633 313.492,71.83 309.5,69.5C 319.861,63.8025 329.861,57.3025 339.5,50C 336.39,48.3551 332.723,47.3551 328.5,47C 320.935,46.2661 313.435,45.4327 306,44.5C 242.297,42.1 178.464,35.9334 114.5,26C 106.706,24.1021 99.3724,21.1021 92.5,17C 87.5926,13.0922 87.2593,8.92554 91.5,4.5 Z"/></g>
<g><path style="opacity:1" fill="#fdfc1f" d="M 459.5,18.5 C 459.833,18.5 460.167,18.5 460.5,18.5C 460.5,19.1667 460.833,19.5 461.5,19.5C 463.001,20.7515 464.668,21.7515 466.5,22.5C 466.5,22.8333 466.5,23.1667 466.5,23.5C 465.153,22.9717 463.819,22.805 462.5,23C 464.357,24.1824 465.357,25.849 465.5,28C 463.865,33.2659 462.532,38.5992 461.5,44C 463.721,52.9982 466.555,61.8315 470,70.5C 471.65,77.2349 472.484,84.0682 472.5,91C 468.042,154.374 463.042,217.708 457.5,281C 457.422,286.964 457.589,293.131 458,299.5C 459.343,301.839 460.676,304.172 462,306.5C 470.696,315.531 479.696,324.197 489,332.5C 495.829,342.827 499.829,354.16 501,366.5C 501.333,380.5 501.667,394.5 502,408.5C 502.813,403.185 503.479,397.852 504,392.5C 504.81,363.88 505.977,335.714 507.5,308C 507.167,307 506.833,306 506.5,305C 507.318,296.578 507.818,288.078 508,279.5C 508.436,216.946 508.936,154.946 509.5,93.5C 509.833,93.5 510.167,93.5 510.5,93.5C 510.5,96.8333 510.5,100.167 510.5,103.5C 510.667,190.167 510.5,276.834 510,363.5C 509.667,362.167 509.333,360.833 509,359.5C 508.781,375.683 508.281,391.849 507.5,408C 505.526,414.685 503.026,421.185 500,427.5C 499.83,425.285 499.163,423.285 498,421.5C 497.623,422.942 496.79,423.942 495.5,424.5C 495.667,406.164 495.5,387.83 495,369.5C 493.505,348.671 484.338,332.171 467.5,320C 458.047,313.87 449.214,307.036 441,299.5C 440.443,297.385 439.609,295.385 438.5,293.5C 447.036,225.378 455.369,157.211 463.5,89C 463.152,81.5954 461.652,74.4288 459,67.5C 453.395,58.6277 447.061,50.2944 440,42.5C 439.104,39.975 439.604,37.8083 441.5,36C 445.092,33.2865 448.592,30.4532 452,27.5C 453.71,24.5766 453.877,21.5766 452.5,18.5C 454.868,18.5699 457.202,18.5699 459.5,18.5 Z"/></g>
<g><path style="opacity:0.78" fill="#7d7d0f" d="M 51.5,18.5 C 51.0269,19.9063 50.0269,20.573 48.5,20.5C 48.9731,19.0937 49.9731,18.427 51.5,18.5 Z"/></g>
<g><path style="opacity:1" fill="#fffe95" d="M 136.5,1.5 C 128.508,1.95022 120.508,3.11689 112.5,5C 111.833,5.66667 111.167,6.33333 110.5,7C 115.779,8.65251 121.112,10.3192 126.5,12C 156.167,15.4844 185.833,18.4844 215.5,21C 239.132,22.8509 262.798,23.6842 286.5,23.5C 293.492,24.1663 300.659,24.4997 308,24.5C 333.499,23.9273 358.999,23.4273 384.5,23C 394.552,22.5128 404.552,21.5128 414.5,20C 420.463,17.8458 426.463,16.0124 432.5,14.5C 432.385,12.0532 431.385,10.0532 429.5,8.5C 435.587,11.023 435.92,14.1896 430.5,18C 422.465,19.8156 414.465,21.8156 406.5,24C 355.524,26.3617 304.524,27.0283 253.5,26C 229.085,24.4614 204.752,22.1281 180.5,19C 157.275,18.7967 134.275,16.4634 111.5,12C 109.365,11.2411 108.032,9.74108 107.5,7.5C 109.167,5.66667 110.833,3.83333 112.5,2C 120.493,1.50029 128.493,1.33362 136.5,1.5 Z"/></g>
<g><path style="opacity:1" fill="#fefeab" d="M 136.5,1.5 C 150.167,1.5 163.833,1.5 177.5,1.5C 172.36,2.48808 167.026,2.82141 161.5,2.5C 157.833,2.5 154.167,2.5 150.5,2.5C 142.082,2.44056 133.748,3.2739 125.5,5C 123.114,5.28355 122.448,6.28355 123.5,8C 152.213,13.7459 181.213,17.0793 210.5,18C 257.495,19.2403 304.495,19.5736 351.5,19C 370.419,19.067 389.086,17.9003 407.5,15.5C 413.738,15.6076 419.738,14.4409 425.5,12C 426.252,11.3292 426.586,10.4959 426.5,9.5C 427.922,9.74962 428.922,10.583 429.5,12C 427.999,13.2515 426.332,14.2515 424.5,15C 415.898,16.7271 407.231,18.0604 398.5,19C 360.844,20.9176 323.511,22.4176 286.5,23.5C 262.798,23.6842 239.132,22.8509 215.5,21C 185.833,18.4844 156.167,15.4844 126.5,12C 121.112,10.3192 115.779,8.65251 110.5,7C 111.167,6.33333 111.833,5.66667 112.5,5C 120.508,3.11689 128.508,1.95022 136.5,1.5 Z"/></g>
<g><path style="opacity:1" fill="#fdfd9f" d="M 407.5,2.5 C 410.625,1.52056 413.958,1.18723 417.5,1.5C 422.809,2.07562 427.809,3.40896 432.5,5.5C 430.901,5.23219 429.568,5.56552 428.5,6.5C 427.561,7.32744 427.895,7.9941 429.5,8.5C 431.385,10.0532 432.385,12.0532 432.5,14.5C 426.463,16.0124 420.463,17.8458 414.5,20C 404.552,21.5128 394.552,22.5128 384.5,23C 358.999,23.4273 333.499,23.9273 308,24.5C 300.659,24.4997 293.492,24.1663 286.5,23.5C 323.511,22.4176 360.844,20.9176 398.5,19C 407.231,18.0604 415.898,16.7271 424.5,15C 426.332,14.2515 427.999,13.2515 429.5,12C 428.922,10.583 427.922,9.74962 426.5,9.5C 424.095,8.60189 422.095,7.10189 420.5,5C 418.866,4.50649 417.199,4.33982 415.5,4.5C 412.994,3.25045 410.327,2.58378 407.5,2.5 Z"/></g>
<g><path style="opacity:0.009" fill="#020200" d="M 466.5,22.5 C 466.897,21.475 467.563,21.3083 468.5,22C 469.598,22.7697 469.598,23.603 468.5,24.5C 467.833,24.5 467.5,24.1667 467.5,23.5C 467.5,22.8333 467.167,22.5 466.5,22.5 Z"/></g>
<g><path style="opacity:1" fill="#fefe00" d="M 4.5,82.5 C 6.2766,79.4954 7.2766,76.1621 7.5,72.5C 7.89254,70.7162 8.5592,69.0495 9.5,67.5C 10.3382,67.1583 10.6716,66.4916 10.5,65.5C 11.3382,65.1583 11.6716,64.4916 11.5,63.5C 12.3382,63.1583 12.6716,62.4916 12.5,61.5C 13.3382,61.1583 13.6716,60.4916 13.5,59.5C 13.5,59.1667 13.5,58.8333 13.5,58.5C 14.1667,58.5 14.5,58.1667 14.5,57.5C 14.5,57.1667 14.5,56.8333 14.5,56.5C 15.1667,56.5 15.5,56.1667 15.5,55.5C 15.5,55.1667 15.5,54.8333 15.5,54.5C 16.1667,54.5 16.5,54.1667 16.5,53.5C 17.1667,53.5 17.5,53.1667 17.5,52.5C 17.5,52.1667 17.5,51.8333 17.5,51.5C 18.1667,51.5 18.5,51.1667 18.5,50.5C 19.1667,50.5 19.5,50.1667 19.5,49.5C 19.8333,48.8333 20.1667,48.1667 20.5,47.5C 21.1667,47.5 21.5,47.1667 21.5,46.5C 22.1667,46.5 22.5,46.1667 22.5,45.5C 22.5,45.1667 22.5,44.8333 22.5,44.5C 23.1667,44.5 23.5,44.1667 23.5,43.5C 24.1667,43.5 24.5,43.1667 24.5,42.5C 24.8333,41.8333 25.1667,41.1667 25.5,40.5C 26.1667,40.5 26.5,40.1667 26.5,39.5C 27.8333,38.5 29.1667,37.5 30.5,36.5C 32.6968,35.1554 35.0302,33.9888 37.5,33C 42.6911,27.998 48.5244,24.8313 55,23.5C 65.0248,32.2695 74.5248,41.6029 83.5,51.5C 84.154,53.1151 84.654,54.7818 85,56.5C 86.7583,57.4695 87.2583,58.6361 86.5,60C 87.5742,60.7387 88.2409,61.7387 88.5,63C 87.4267,64.4162 87.4267,65.7496 88.5,67C 83.9066,82.1136 78.9066,97.1136 73.5,112C 74.0509,113.398 74.3842,114.732 74.5,116C 73.8333,118.667 73.1667,121.333 72.5,124C 72.1943,128.403 72.1943,132.569 72.5,136.5C 70.0455,152.437 68.0455,168.604 66.5,185C 66.7074,193.674 66.7074,202.507 66.5,211.5C 65.1385,220.983 63.4718,230.65 61.5,240.5C 62.1916,242.335 61.8583,244.168 60.5,246C 60.4205,247.907 60.7539,249.907 61.5,252C 59.6524,263.901 57.1524,275.734 54,287.5C 53.7051,289.931 52.5384,291.764 50.5,293C 50.5,294.667 50.5,296.333 50.5,298C 47.7803,301.055 45.447,304.388 43.5,308C 43.8333,308.333 44.1667,308.667 44.5,309C 41.6063,310.839 38.773,312.673 36,314.5C 34.4974,314.165 33.164,314.165 32,314.5C 27.0902,319.365 22.7568,324.698 19,330.5C 13.4477,345.766 9.4477,361.766 7,378.5C 6.69661,380.888 5.86328,383.055 4.5,385C 4.83333,385.333 5.16667,385.667 5.5,386C 4.25591,386.456 3.42258,385.956 3,384.5C 2.66667,379.833 2.33333,375.167 2,370.5C 1.33333,282.167 1.33333,193.833 2,105.5C 2.23622,103.236 2.73622,101.069 3.5,99C 1.92782,94.95 2.59449,91.2834 5.5,88C 4.59391,86.3005 4.26057,84.4672 4.5,82.5 Z"/></g>
<g><path style="opacity:0.006" fill="#010100" d="M 40.5,25.5 C 39.8333,25.5 39.5,25.8333 39.5,26.5C 36.5,29.8333 33.5,33.1667 30.5,36.5C 29.1667,37.5 27.8333,38.5 26.5,39.5C 25.8333,39.5 25.5,39.8333 25.5,40.5C 24.475,40.1034 24.3083,39.4368 25,38.5C 29.5,34 34,29.5 38.5,25C 39.4368,24.3083 40.1034,24.475 40.5,25.5 Z"/></g>
<g><path style="opacity:0.006" fill="#010100" d="M 470.5,25.5 C 470.897,24.475 471.563,24.3083 472.5,25C 477,29.5 481.5,34 486,38.5C 486.692,39.4368 486.525,40.1034 485.5,40.5C 485.5,39.8333 485.167,39.5 484.5,39.5C 479.833,35.5 475.5,31.1667 471.5,26.5C 471.5,25.8333 471.167,25.5 470.5,25.5 Z"/></g>
<g><path style="opacity:1" fill="#fffe84" d="M 110.5,0.5 C 134.167,0.5 157.833,0.5 181.5,0.5C 181.5,0.833333 181.5,1.16667 181.5,1.5C 180.167,1.5 178.833,1.5 177.5,1.5C 163.833,1.5 150.167,1.5 136.5,1.5C 128.493,1.33362 120.493,1.50029 112.5,2C 110.833,3.83333 109.167,5.66667 107.5,7.5C 108.032,9.74108 109.365,11.2411 111.5,12C 134.275,16.4634 157.275,18.7967 180.5,19C 204.752,22.1281 229.085,24.4614 253.5,26C 304.524,27.0283 355.524,26.3617 406.5,24C 414.465,21.8156 422.465,19.8156 430.5,18C 435.92,14.1896 435.587,11.023 429.5,8.5C 427.895,7.9941 427.561,7.32744 428.5,6.5C 430.945,7.31238 433.278,8.31238 435.5,9.5C 435.888,11.6847 436.888,13.518 438.5,15C 436.672,16.6629 435.005,18.4962 433.5,20.5C 408.78,25.3591 383.78,27.8591 358.5,28C 277.397,31.2044 196.73,26.8711 116.5,15C 112.905,14.4156 109.405,13.5823 106,12.5C 105.333,9.83333 105.333,7.16667 106,4.5C 106.995,3.93406 107.828,3.26739 108.5,2.5C 109.5,2.16667 110.167,1.5 110.5,0.5 Z"/></g>
<g><path style="opacity:1" fill="#fefe60" d="M 104.5,3.5 C 103.378,4.94727 101.878,5.94727 100,6.5C 99.9214,9.30805 101.088,11.6414 103.5,13.5C 106.656,15.1632 109.989,16.3299 113.5,17C 208.552,31.217 304.219,35.0504 400.5,28.5C 412.209,26.2916 423.875,23.9583 435.5,21.5C 440.753,17.3291 440.753,13.3291 435.5,9.5C 433.278,8.31238 430.945,7.31238 428.5,6.5C 429.568,5.56552 430.901,5.23219 432.5,5.5C 436.698,6.26721 440.698,7.60055 444.5,9.5C 444.5,9.83333 444.5,10.1667 444.5,10.5C 443.833,10.8333 443.167,11.1667 442.5,11.5C 441.883,11.3893 441.383,11.056 441,10.5C 440.768,12.2834 441.268,13.9501 442.5,15.5C 441.941,18.2846 440.608,20.6179 438.5,22.5C 430.175,27.2716 421.175,30.105 411.5,31C 316.11,38.9711 220.777,35.9711 125.5,22C 116.838,20.1118 108.505,17.4452 100.5,14C 94.8859,8.35005 96.2192,4.85005 104.5,3.5 Z"/></g>
<g><path style="opacity:1" fill="#fffe72" d="M 108.5,2.5 C 107.828,3.26739 106.995,3.93406 106,4.5C 105.333,7.16667 105.333,9.83333 106,12.5C 109.405,13.5823 112.905,14.4156 116.5,15C 196.73,26.8711 277.397,31.2044 358.5,28C 383.78,27.8591 408.78,25.3591 433.5,20.5C 435.005,18.4962 436.672,16.6629 438.5,15C 436.888,13.518 435.888,11.6847 435.5,9.5C 440.753,13.3291 440.753,17.3291 435.5,21.5C 423.875,23.9583 412.209,26.2916 400.5,28.5C 304.219,35.0504 208.552,31.217 113.5,17C 109.989,16.3299 106.656,15.1632 103.5,13.5C 101.088,11.6414 99.9214,9.30805 100,6.5C 101.878,5.94727 103.378,4.94727 104.5,3.5C 105.568,2.56552 106.901,2.23219 108.5,2.5 Z"/></g>
<g><path style="opacity:0.01" fill="#020200" d="M 24.5,42.5 C 24.5,43.1667 24.1667,43.5 23.5,43.5C 22.8333,43.5 22.5,43.8333 22.5,44.5C 22.1667,44.5 21.8333,44.5 21.5,44.5C 21.6322,41.9931 22.6322,41.3264 24.5,42.5 Z"/></g>
<g><path style="opacity:0.012" fill="#020300" d="M 489.5,44.5 C 489.167,44.5 488.833,44.5 488.5,44.5C 488.5,43.8333 488.167,43.5 487.5,43.5C 486.833,43.5 486.5,43.1667 486.5,42.5C 488.368,41.3264 489.368,41.9931 489.5,44.5 Z"/></g>
<g><path style="opacity:0.011" fill="#050500" d="M 21.5,44.5 C 21.5,45.1667 21.8333,45.5 22.5,45.5C 22.5,46.1667 22.1667,46.5 21.5,46.5C 20.8333,46.5 20.5,46.8333 20.5,47.5C 19.2848,46.221 19.6182,45.221 21.5,44.5 Z"/></g>
<g><path style="opacity:0.011" fill="#050500" d="M 489.5,44.5 C 491.382,45.221 491.715,46.221 490.5,47.5C 490.5,46.8333 490.167,46.5 489.5,46.5C 488.833,46.5 488.5,46.1667 488.5,45.5C 489.167,45.5 489.5,45.1667 489.5,44.5 Z"/></g>
<g><path style="opacity:0.011" fill="#020200" d="M 19.5,49.5 C 19.5,50.1667 19.1667,50.5 18.5,50.5C 17.8333,50.5 17.5,50.8333 17.5,51.5C 17.1667,51.5 16.8333,51.5 16.5,51.5C 16.6322,48.9931 17.6322,48.3264 19.5,49.5 Z"/></g>
<g><path style="opacity:0.012" fill="#020300" d="M 494.5,51.5 C 494.167,51.5 493.833,51.5 493.5,51.5C 493.5,50.8333 493.167,50.5 492.5,50.5C 491.833,50.5 491.5,50.1667 491.5,49.5C 493.368,48.3264 494.368,48.9931 494.5,51.5 Z"/></g>
<g><path style="opacity:1" fill="#fefe4d" d="M 363.5,173.5 C 363.5,166.5 363.5,159.5 363.5,152.5C 364.302,151.048 364.802,149.382 365,147.5C 368.953,157.071 372.62,166.737 376,176.5C 377.743,180.431 380.243,183.764 383.5,186.5C 389.262,188.047 394.929,189.714 400.5,191.5C 401.086,191.291 401.586,190.957 402,190.5C 405.767,191.879 408.767,194.213 411,197.5C 411.333,197.167 411.667,196.833 412,196.5C 413.441,197.87 415.108,198.87 417,199.5C 420.018,198.972 422.851,197.972 425.5,196.5C 431.709,184.406 436.542,171.739 440,158.5C 444.555,139.277 448.555,119.944 452,100.5C 457.292,67.7982 443.458,51.9648 410.5,53C 397.11,55.5178 383.444,58.1844 369.5,61C 358.058,63.0349 347.391,67.0349 337.5,73C 334.23,75.5984 331.73,78.7651 330,82.5C 329.329,81.7476 328.496,81.4142 327.5,81.5C 325.46,79.823 323.46,78.1563 321.5,76.5C 322.496,76.4142 323.329,76.7476 324,77.5C 326.5,74.3333 329.333,71.5 332.5,69C 337.751,66.4722 343.084,64.1389 348.5,62C 370.59,56.1528 393.257,51.9861 416.5,49.5C 440.465,51.4647 453.465,64.4647 455.5,88.5C 451.7,114.598 447.2,140.598 442,166.5C 438.343,182.471 433.676,198.137 428,213.5C 426.355,213.307 424.521,213.14 422.5,213C 418.822,211.05 415.322,208.884 412,206.5C 410.887,207.711 409.72,207.711 408.5,206.5C 401.814,202.069 394.647,198.069 387,194.5C 384.909,195.5 383.243,194.833 382,192.5C 381.667,192.833 381.333,193.167 381,193.5C 372.887,186.606 367.887,177.939 366,167.5C 365.667,169.833 365.333,172.167 365,174.5C 364.617,173.944 364.117,173.611 363.5,173.5 Z"/></g>
<g><path style="opacity:1" fill="#fefe04" d="M 466.5,23.5 C 466.833,23.5 467.167,23.5 467.5,23.5C 467.5,24.1667 467.833,24.5 468.5,24.5C 469.167,24.8333 469.833,25.1667 470.5,25.5C 471.167,25.5 471.5,25.8333 471.5,26.5C 475.5,31.1667 479.833,35.5 484.5,39.5C 485.167,39.5 485.5,39.8333 485.5,40.5C 485.833,41.1667 486.167,41.8333 486.5,42.5C 486.5,43.1667 486.833,43.5 487.5,43.5C 488.167,43.5 488.5,43.8333 488.5,44.5C 488.5,44.8333 488.5,45.1667 488.5,45.5C 488.5,46.1667 488.833,46.5 489.5,46.5C 490.167,46.5 490.5,46.8333 490.5,47.5C 490.833,48.1667 491.167,48.8333 491.5,49.5C 491.5,50.1667 491.833,50.5 492.5,50.5C 493.167,50.5 493.5,50.8333 493.5,51.5C 493.5,51.8333 493.5,52.1667 493.5,52.5C 493.5,53.1667 493.833,53.5 494.5,53.5C 494.5,54.1667 494.833,54.5 495.5,54.5C 495.5,54.8333 495.5,55.1667 495.5,55.5C 495.5,56.1667 495.833,56.5 496.5,56.5C 496.5,56.8333 496.5,57.1667 496.5,57.5C 496.5,58.1667 496.833,58.5 497.5,58.5C 497.5,58.8333 497.5,59.1667 497.5,59.5C 497.5,60.1667 497.833,60.5 498.5,60.5C 498.5,60.8333 498.5,61.1667 498.5,61.5C 498.328,62.4916 498.662,63.1583 499.5,63.5C 499.328,64.4916 499.662,65.1583 500.5,65.5C 500.328,66.4916 500.662,67.1583 501.5,67.5C 502.441,69.0495 503.107,70.7162 503.5,72.5C 503.191,80.2798 505.191,87.2798 509.5,93.5C 508.936,154.946 508.436,216.946 508,279.5C 507.818,288.078 507.318,296.578 506.5,305C 506.833,306 507.167,307 507.5,308C 505.977,335.714 504.81,363.88 504,392.5C 503.479,397.852 502.813,403.185 502,408.5C 501.667,394.5 501.333,380.5 501,366.5C 499.829,354.16 495.829,342.827 489,332.5C 479.696,324.197 470.696,315.531 462,306.5C 460.676,304.172 459.343,301.839 458,299.5C 457.589,293.131 457.422,286.964 457.5,281C 463.042,217.708 468.042,154.374 472.5,91C 472.484,84.0682 471.65,77.2349 470,70.5C 466.555,61.8315 463.721,52.9982 461.5,44C 462.532,38.5992 463.865,33.2659 465.5,28C 465.357,25.849 464.357,24.1824 462.5,23C 463.819,22.805 465.153,22.9717 466.5,23.5 Z"/></g>
<g><path style="opacity:0.01" fill="#050500" d="M 16.5,51.5 C 16.5,52.1667 16.8333,52.5 17.5,52.5C 17.5,53.1667 17.1667,53.5 16.5,53.5C 15.8333,53.5 15.5,53.8333 15.5,54.5C 15.1667,54.5 14.8333,54.5 14.5,54.5C 14.427,52.9731 15.0937,51.9731 16.5,51.5 Z"/></g>
<g><path style="opacity:0.01" fill="#050500" d="M 494.5,51.5 C 495.906,51.9731 496.573,52.9731 496.5,54.5C 496.167,54.5 495.833,54.5 495.5,54.5C 494.833,54.5 494.5,54.1667 494.5,53.5C 493.833,53.5 493.5,53.1667 493.5,52.5C 494.167,52.5 494.5,52.1667 494.5,51.5 Z"/></g>
<g><path style="opacity:0.009" fill="#121003" d="M 14.5,54.5 C 14.5,55.1667 14.8333,55.5 15.5,55.5C 15.5,56.1667 15.1667,56.5 14.5,56.5C 13.1667,56.8333 13.1667,57.1667 14.5,57.5C 14.5,58.1667 14.1667,58.5 13.5,58.5C 12.1667,58.8333 12.1667,59.1667 13.5,59.5C 13.6716,60.4916 13.3382,61.1583 12.5,61.5C 12.6716,62.4916 12.3382,63.1583 11.5,63.5C 11.5,62.8333 11.1667,62.5 10.5,62.5C 10.7936,59.2459 12.127,56.5792 14.5,54.5 Z"/></g>
<g><path style="opacity:1" fill="#fefe58" d="M 363.5,152.5 C 361.278,123.722 349.278,100.055 327.5,81.5C 328.496,81.4142 329.329,81.7476 330,82.5C 331.73,78.7651 334.23,75.5984 337.5,73C 347.391,67.0349 358.058,63.0349 369.5,61C 383.444,58.1844 397.11,55.5178 410.5,53C 443.458,51.9648 457.292,67.7982 452,100.5C 448.555,119.944 444.555,139.277 440,158.5C 436.542,171.739 431.709,184.406 425.5,196.5C 422.851,197.972 420.018,198.972 417,199.5C 415.108,198.87 413.441,197.87 412,196.5C 411.667,196.833 411.333,197.167 411,197.5C 408.767,194.213 405.767,191.879 402,190.5C 401.586,190.957 401.086,191.291 400.5,191.5C 394.929,189.714 389.262,188.047 383.5,186.5C 380.243,183.764 377.743,180.431 376,176.5C 372.62,166.737 368.953,157.071 365,147.5C 364.802,149.382 364.302,151.048 363.5,152.5 Z"/></g>
<g><path style="opacity:0.009" fill="#111002" d="M 496.5,54.5 C 500.191,58.1903 501.858,62.5236 501.5,67.5C 500.662,67.1583 500.328,66.4916 500.5,65.5C 499.662,65.1583 499.328,64.4916 499.5,63.5C 498.662,63.1583 498.328,62.4916 498.5,61.5C 499.833,61.1667 499.833,60.8333 498.5,60.5C 497.833,60.5 497.5,60.1667 497.5,59.5C 498.833,59.1667 498.833,58.8333 497.5,58.5C 496.833,58.5 496.5,58.1667 496.5,57.5C 497.833,57.1667 497.833,56.8333 496.5,56.5C 495.833,56.5 495.5,56.1667 495.5,55.5C 496.167,55.5 496.5,55.1667 496.5,54.5 Z"/></g>
<g><path style="opacity:1" fill="#0a0905" d="M 309.5,69.5 C 313.492,71.83 317.492,74.1633 321.5,76.5C 323.46,78.1563 325.46,79.823 327.5,81.5C 349.278,100.055 361.278,123.722 363.5,152.5C 363.5,159.5 363.5,166.5 363.5,173.5C 362.884,186.836 362.218,200.169 361.5,213.5C 364.993,214.764 368.493,214.764 372,213.5C 378.3,210.788 384.8,208.788 391.5,207.5C 395.327,207.608 398.993,208.442 402.5,210C 413.731,214.938 416.564,222.772 411,233.5C 404.784,239.519 397.618,243.853 389.5,246.5C 380.465,248.267 372.632,252.267 366,258.5C 363.865,263.051 364.032,267.385 366.5,271.5C 370.622,282.415 376.289,292.415 383.5,301.5C 379.82,302.339 376.153,302.672 372.5,302.5C 365.122,292.415 359.288,281.415 355,269.5C 353.827,256.036 359.661,246.869 372.5,242C 381.408,239.274 390.075,235.941 398.5,232C 406.749,226.077 406.082,221.41 396.5,218C 393.5,217.333 390.5,217.333 387.5,218C 378.918,222.064 369.918,223.731 360.5,223C 357.241,221.789 354.408,219.956 352,217.5C 353.281,193.864 353.614,170.197 353,146.5C 345.957,109.779 324.79,84.9458 289.5,72C 251.167,59.9452 215.834,65.6118 183.5,89C 165.795,103.914 154.961,122.748 151,145.5C 150.334,169.534 150.668,193.534 152,217.5C 147.41,221.861 141.91,223.861 135.5,223.5C 128.048,223.377 121.048,221.543 114.5,218C 107.509,216.331 102.509,218.664 99.5,225C 101.112,227.616 103.112,229.95 105.5,232C 116.446,236.818 127.446,241.485 138.5,246C 150.097,254.177 152.597,264.677 146,277.5C 128.624,315.599 99.7903,340.265 59.5,351.5C 64.1576,356.502 69.8242,360.002 76.5,362C 87.0253,364.972 97.6919,367.305 108.5,369C 111.106,370.938 112.939,373.438 114,376.5C 115.169,382.186 116.336,387.853 117.5,393.5C 127.934,391.986 138.434,390.986 149,390.5C 162.031,389.772 174.197,392.605 185.5,399C 198.036,408.521 211.369,416.854 225.5,424C 236.827,427.985 248.493,429.485 260.5,428.5C 262.167,428.5 263.833,428.5 265.5,428.5C 265.5,431.5 265.5,434.5 265.5,437.5C 263.435,437.517 261.435,437.85 259.5,438.5C 242.936,439.607 227.269,436.441 212.5,429C 205.665,424.978 198.999,420.811 192.5,416.5C 185.01,409.753 176.343,405.087 166.5,402.5C 165.391,401.71 164.058,401.21 162.5,401C 153.657,400.176 144.99,400.343 136.5,401.5C 128.902,403.05 121.235,403.55 113.5,403C 112.069,402.535 110.903,401.701 110,400.5C 108.704,397.429 107.538,394.429 106.5,391.5C 106.29,386.991 105.29,382.658 103.5,378.5C 87.7902,376.323 72.7902,371.823 58.5,365C 44.284,354.436 45.284,345.769 61.5,339C 78.3138,336.593 92.6471,329.426 104.5,317.5C 108.167,314.5 111.5,311.167 114.5,307.5C 126.298,295.08 134.632,280.58 139.5,264C 139.203,259.691 137.203,256.357 133.5,254C 129.376,251.603 125.043,249.769 120.5,248.5C 115.332,247.166 110.332,245.332 105.5,243C 96.8657,239.372 91.5324,233.039 89.5,224C 92.3253,214.059 98.992,208.559 109.5,207.5C 116.719,208.962 123.719,211.129 130.5,214C 134.524,214.497 138.524,214.331 142.5,213.5C 140.83,190.86 140.33,168.193 141,145.5C 141.876,138.535 143.376,131.702 145.5,125C 161.675,86.6655 190.342,64.1655 231.5,57.5C 258.728,53.9276 284.728,57.9276 309.5,69.5 Z"/></g>
<g><path style="opacity:1" fill="#fffe60" d="M 415.5,56.5 C 437.004,56.015 448.671,66.3483 450.5,87.5C 447.907,99.4552 445.407,111.455 443,123.5C 439.803,139.602 433.97,154.602 425.5,168.5C 423,170.5 420.166,171.833 417,172.5C 414.57,170.766 412.07,170.1 409.5,170.5C 404.201,165.042 398.201,161.542 391.5,160C 388.292,158.557 385.126,156.391 382,153.5C 374.549,137.427 366.549,121.76 358,106.5C 351.369,101.736 346.536,95.5695 343.5,88C 344.642,81.2317 348.309,76.2317 354.5,73C 360.964,70.1023 367.63,67.769 374.5,66C 388.408,63.2466 402.074,60.0799 415.5,56.5 Z"/></g>
<g><path style="opacity:1" fill="#fffe66" d="M 414.5,58.5 C 435.13,57.1332 446.797,66.6332 449.5,87C 445.547,101.753 441.713,116.586 438,131.5C 435.148,140.869 430.981,149.536 425.5,157.5C 420,161.62 414.667,161.453 409.5,157C 407.126,154.961 405.126,152.628 403.5,150C 393.656,145.383 385.156,139.55 378,132.5C 372.631,119.727 365.298,108.394 356,98.5C 347.932,86.7373 350.766,78.2373 364.5,73C 368.833,71.3333 373.167,69.6667 377.5,68C 390.142,65.4611 402.475,62.2944 414.5,58.5 Z"/></g>
<g><path style="opacity:0.01" fill="#171503" d="M 10.5,62.5 C 11.1667,62.5 11.5,62.8333 11.5,63.5C 11.6716,64.4916 11.3382,65.1583 10.5,65.5C 10.5,64.8333 10.1667,64.5 9.5,64.5C 9.32842,63.5084 9.66175,62.8417 10.5,62.5 Z"/></g>
<g><path style="opacity:1" fill="#fffe71" d="M 416.5,60.5 C 436.816,60.3168 446.983,70.3168 447,90.5C 442.577,101.84 438.91,113.506 436,125.5C 433.613,131.943 430.446,137.943 426.5,143.5C 415.371,147.936 408.038,144.27 404.5,132.5C 403.448,132.649 402.448,132.483 401.5,132C 392.085,124.756 383.419,116.589 375.5,107.5C 368.866,104.033 363.7,99.0332 360,92.5C 358.419,86.9384 359.919,82.4384 364.5,79C 368.257,77.1899 371.924,75.1899 375.5,73C 389.224,68.5037 402.89,64.337 416.5,60.5 Z"/></g>
<g><path style="opacity:1" fill="#fffe7b" d="M 420.5,63.5 C 434.321,64.9859 442.321,72.6526 444.5,86.5C 443.985,90.2424 443.152,93.9091 442,97.5C 437.22,104.726 433.22,112.392 430,120.5C 426.899,126.083 422.399,127.917 416.5,126C 410.191,121.059 405.858,114.726 403.5,107C 393.233,105.121 384.733,100.287 378,92.5C 375.382,87.054 376.549,82.554 381.5,79C 391.089,74.3698 400.756,70.0364 410.5,66C 413.952,65.1153 417.286,64.282 420.5,63.5 Z"/></g>
<g><path style="opacity:0.008" fill="#151302" d="M 9.5,64.5 C 10.1667,64.5 10.5,64.8333 10.5,65.5C 10.6716,66.4916 10.3382,67.1583 9.5,67.5C 8.37505,66.3478 8.37505,65.3478 9.5,64.5 Z"/></g>
<g><path style="opacity:1" fill="#fefefe" d="M 372.5,302.5 C 375.486,306.817 378.82,310.817 382.5,314.5C 382.5,314.833 382.5,315.167 382.5,315.5C 362.497,315.333 342.497,315.5 322.5,316C 301.394,317.943 288.061,329.11 282.5,349.5C 281.57,353.4 281.237,357.4 281.5,361.5C 280.503,381.66 280.17,401.993 280.5,422.5C 275.478,424.396 270.478,426.063 265.5,427.5C 263.585,427.216 261.919,427.549 260.5,428.5C 248.493,429.485 236.827,427.985 225.5,424C 211.369,416.854 198.036,408.521 185.5,399C 174.197,392.605 162.031,389.772 149,390.5C 138.434,390.986 127.934,391.986 117.5,393.5C 116.336,387.853 115.169,382.186 114,376.5C 112.939,373.438 111.106,370.938 108.5,369C 97.6919,367.305 87.0253,364.972 76.5,362C 69.8242,360.002 64.1576,356.502 59.5,351.5C 99.7903,340.265 128.624,315.599 146,277.5C 152.597,264.677 150.097,254.177 138.5,246C 127.446,241.485 116.446,236.818 105.5,232C 103.112,229.95 101.112,227.616 99.5,225C 102.509,218.664 107.509,216.331 114.5,218C 121.048,221.543 128.048,223.377 135.5,223.5C 141.91,223.861 147.41,221.861 152,217.5C 150.668,193.534 150.334,169.534 151,145.5C 154.961,122.748 165.795,103.914 183.5,89C 215.834,65.6118 251.167,59.9452 289.5,72C 324.79,84.9458 345.957,109.779 353,146.5C 353.614,170.197 353.281,193.864 352,217.5C 354.408,219.956 357.241,221.789 360.5,223C 369.918,223.731 378.918,222.064 387.5,218C 390.5,217.333 393.5,217.333 396.5,218C 406.082,221.41 406.749,226.077 398.5,232C 390.075,235.941 381.408,239.274 372.5,242C 359.661,246.869 353.827,256.036 355,269.5C 359.288,281.415 365.122,292.415 372.5,302.5 Z"/></g>
<g><path style="opacity:1" fill="#fffe8d" d="M 418.5,67.5 C 435.212,68.3783 442.045,77.045 439,93.5C 432.475,108.601 422.308,111.767 408.5,103C 405,98.1667 400.833,94 396,90.5C 393.874,87.376 394.041,84.376 396.5,81.5C 400.471,79.3577 403.805,76.5244 406.5,73C 410.284,70.4713 414.284,68.638 418.5,67.5 Z"/></g>
<g><path style="opacity:1" fill="#fffe9a" d="M 419.5,74.5 C 432.462,75.1837 436.296,81.5171 431,93.5C 422.973,99.5874 416.306,98.254 411,89.5C 409.204,81.7491 412.037,76.7491 419.5,74.5 Z"/></g>
<g><path style="opacity:0.957" fill="#8f8e0b" d="M 7.5,72.5 C 7.2766,76.1621 6.2766,79.4954 4.5,82.5C 4.7234,78.8379 5.7234,75.5046 7.5,72.5 Z"/></g>
<g><path style="opacity:0.998" fill="#c9c90d" d="M 503.5,72.5 C 505.589,76.5015 506.922,80.8348 507.5,85.5C 507.328,86.4916 507.662,87.1583 508.5,87.5C 508.328,88.4916 508.662,89.1583 509.5,89.5C 509.5,90.8333 509.5,92.1667 509.5,93.5C 505.191,87.2798 503.191,80.2798 503.5,72.5 Z"/></g>
<g><path style="opacity:0.009" fill="#0a0900" d="M 3.5,85.5 C 3.67158,86.4916 3.33825,87.1583 2.5,87.5C 1.52692,85.9317 1.36026,84.265 2,82.5C 2.23209,83.7375 2.73209,84.7375 3.5,85.5 Z"/></g>
<g><path style="opacity:0.01" fill="#090800" d="M 510.5,89.5 C 510.167,89.5 509.833,89.5 509.5,89.5C 509.754,87.5992 509.42,86.9326 508.5,87.5C 507.662,87.1583 507.328,86.4916 507.5,85.5C 508.268,84.7375 508.768,83.7375 509,82.5C 509.977,84.74 510.477,87.0733 510.5,89.5 Z"/></g>
<g><path style="opacity:0.01" fill="#020200" d="M 510.5,89.5 C 510.833,89.5 511.167,89.5 511.5,89.5C 511.5,90.8333 511.5,92.1667 511.5,93.5C 511.167,93.5 510.833,93.5 510.5,93.5C 510.5,92.1667 510.5,90.8333 510.5,89.5 Z"/></g>
<g><path style="opacity:1" fill="#e2e025" d="M 389.5,246.5 C 389.611,247.117 389.944,247.617 390.5,248C 384.976,251.193 380.809,255.693 378,261.5C 374.562,265.441 370.729,268.775 366.5,271.5C 364.032,267.385 363.865,263.051 366,258.5C 372.632,252.267 380.465,248.267 389.5,246.5 Z"/></g>
<g><path style="opacity:1" fill="#edeb15" d="M 120.5,248.5 C 125.043,249.769 129.376,251.603 133.5,254C 137.203,256.357 139.203,259.691 139.5,264C 134.632,280.58 126.298,295.08 114.5,307.5C 114.077,306.735 113.743,305.902 113.5,305C 116.009,301.814 117.842,298.314 119,294.5C 119.333,291.833 119.667,289.167 120,286.5C 123.112,279.782 125.612,272.949 127.5,266C 124.496,260.483 122.162,254.65 120.5,248.5 Z"/></g>
<g><path style="opacity:1" fill="#21211f" d="M 383.5,301.5 C 387.138,305.474 390.805,309.474 394.5,313.5C 390.702,314.483 386.702,314.817 382.5,314.5C 378.82,310.817 375.486,306.817 372.5,302.5C 376.153,302.672 379.82,302.339 383.5,301.5 Z"/></g>
<g><path style="opacity:1" fill="#8a595d" d="M 394.5,313.5 C 395.5,313.833 396.167,314.5 396.5,315.5C 391.833,315.5 387.167,315.5 382.5,315.5C 382.5,315.167 382.5,314.833 382.5,314.5C 386.702,314.817 390.702,314.483 394.5,313.5 Z"/></g>
<g><path style="opacity:1" fill="#fa566e" d="M 382.5,315.5 C 387.167,315.5 391.833,315.5 396.5,315.5C 414.537,315.1 432.537,315.6 450.5,317C 458.4,319.282 465.4,323.115 471.5,328.5C 478.588,336.088 482.588,345.088 483.5,355.5C 482.732,354.737 482.232,353.737 482,352.5C 480.595,355.619 480.095,358.952 480.5,362.5C 479.5,362.5 478.5,362.5 477.5,362.5C 477.784,359.223 477.451,356.057 476.5,353C 462.833,352.333 449.167,352.333 435.5,353C 434.718,355.74 434.218,358.574 434,361.5C 432.93,355.445 432.597,349.445 433,343.5C 432.667,344.833 432.333,346.167 432,347.5C 431.013,343.233 430.179,342.9 429.5,346.5C 428.181,345.103 426.514,344.437 424.5,344.5C 404.521,348.327 384.521,352.16 364.5,356C 360.088,356.595 356.088,358.095 352.5,360.5C 351.909,359.849 351.243,359.182 350.5,358.5C 353.064,356.684 353.064,354.851 350.5,353C 347.183,352.502 343.85,352.335 340.5,352.5C 340.5,351.5 340.5,350.5 340.5,349.5C 337.5,349.5 334.5,349.5 331.5,349.5C 331.5,350.5 331.5,351.5 331.5,352.5C 317.421,353.138 303.588,352.472 290,350.5C 288.951,352.107 287.451,352.773 285.5,352.5C 285.313,350.436 284.813,348.436 284,346.5C 283.768,347.737 283.268,348.737 282.5,349.5C 288.061,329.11 301.394,317.943 322.5,316C 342.497,315.5 362.497,315.333 382.5,315.5 Z"/></g>
<g><path style="opacity:1" fill="#fdf8f8" d="M 429.5,346.5 C 430.492,354.316 430.826,362.316 430.5,370.5C 430.667,396.835 430.5,423.169 430,449.5C 428.738,451.784 427.572,454.118 426.5,456.5C 423.032,460.389 418.699,462.889 413.5,464C 401.524,467.278 393.857,463.111 390.5,451.5C 389.992,442.163 394.325,436.33 403.5,434C 408.5,433 413.5,432 418.5,431C 420.141,429.871 421.141,428.371 421.5,426.5C 422.496,410.342 422.83,394.009 422.5,377.5C 418.958,377.187 415.625,377.521 412.5,378.5C 398.223,381.15 383.889,383.65 369.5,386C 366.457,386.798 363.624,387.965 361,389.5C 360.5,411.831 360.333,434.164 360.5,456.5C 359.641,470.684 351.975,477.684 337.5,477.5C 327.104,477.767 321.438,472.767 320.5,462.5C 320.385,459.591 321.051,456.925 322.5,454.5C 329.803,447.989 338.47,444.489 348.5,444C 350.426,443.578 351.426,442.411 351.5,440.5C 352.498,414.005 352.831,387.339 352.5,360.5C 356.088,358.095 360.088,356.595 364.5,356C 384.521,352.16 404.521,348.327 424.5,344.5C 426.514,344.437 428.181,345.103 429.5,346.5 Z"/></g>
<g><path style="opacity:1" fill="#fc4d66" d="M 352.5,360.5 C 352.831,387.339 352.498,414.005 351.5,440.5C 351.5,426.5 351.5,412.5 351.5,398.5C 351.5,392.5 351.5,386.5 351.5,380.5C 351.666,373.825 351.5,367.158 351,360.5C 350.502,363.817 350.335,367.15 350.5,370.5C 328.167,370.5 305.833,370.5 283.5,370.5C 283.666,366.486 283.499,362.486 283,358.5C 282.768,359.737 282.268,360.737 281.5,361.5C 281.237,357.4 281.57,353.4 282.5,349.5C 283.268,348.737 283.768,347.737 284,346.5C 284.813,348.436 285.313,350.436 285.5,352.5C 287.451,352.773 288.951,352.107 290,350.5C 303.588,352.472 317.421,353.138 331.5,352.5C 331.5,351.5 331.5,350.5 331.5,349.5C 334.5,349.5 337.5,349.5 340.5,349.5C 340.5,350.5 340.5,351.5 340.5,352.5C 343.85,352.335 347.183,352.502 350.5,353C 353.064,354.851 353.064,356.684 350.5,358.5C 351.243,359.182 351.909,359.849 352.5,360.5 Z"/></g>
<g><path style="opacity:1" fill="#fb4b65" d="M 483.5,355.5 C 483.5,355.833 483.5,356.167 483.5,356.5C 482.503,373.325 482.17,390.325 482.5,407.5C 481.434,396.26 479.934,384.927 478,373.5C 477.83,375.715 477.163,377.715 476,379.5C 463.246,378.511 450.413,378.178 437.5,378.5C 437.813,375.753 437.48,373.086 436.5,370.5C 435.833,379.991 435.167,389.325 434.5,398.5C 433.778,398.082 433.278,397.416 433,396.5C 433.142,387.442 432.309,378.775 430.5,370.5C 430.826,362.316 430.492,354.316 429.5,346.5C 430.179,342.9 431.013,343.233 432,347.5C 432.333,346.167 432.667,344.833 433,343.5C 432.597,349.445 432.93,355.445 434,361.5C 434.218,358.574 434.718,355.74 435.5,353C 449.167,352.333 462.833,352.333 476.5,353C 477.451,356.057 477.784,359.223 477.5,362.5C 478.5,362.5 479.5,362.5 480.5,362.5C 480.095,358.952 480.595,355.619 482,352.5C 482.232,353.737 482.732,354.737 483.5,355.5 Z"/></g>
<g><path style="opacity:1" fill="#fbfa56" d="M 471.5,328.5 C 475.136,328.771 477.97,330.437 480,333.5C 483.451,342.287 486.451,351.287 489,360.5C 490.25,387.475 490.916,414.475 491,441.5C 491.333,443.167 491.667,444.833 492,446.5C 492.278,445.584 492.778,444.918 493.5,444.5C 493.21,448.554 493.877,449.054 495.5,446C 497.078,444.906 498.745,444.072 500.5,443.5C 497.359,452.457 492.692,460.457 486.5,467.5C 485.833,430.5 485.167,393.5 484.5,356.5C 484.167,356.5 483.833,356.5 483.5,356.5C 483.5,356.167 483.5,355.833 483.5,355.5C 482.588,345.088 478.588,336.088 471.5,328.5 Z"/></g>
<g><path style="opacity:1" fill="#fb4c64" d="M 351.5,380.5 C 348.15,380.335 344.817,380.502 341.5,381C 344.146,381.497 346.813,381.664 349.5,381.5C 349.5,384.167 349.5,386.833 349.5,389.5C 327.486,389.501 305.486,389.834 283.5,390.5C 283.822,396.358 283.489,402.025 282.5,407.5C 282.667,392.496 282.5,377.496 282,362.5C 281.5,383.831 281.333,405.164 281.5,426.5C 281.5,439.167 281.5,451.833 281.5,464.5C 280.506,454.347 280.172,444.014 280.5,433.5C 280.5,429.833 280.5,426.167 280.5,422.5C 280.17,401.993 280.503,381.66 281.5,361.5C 282.268,360.737 282.768,359.737 283,358.5C 283.499,362.486 283.666,366.486 283.5,370.5C 305.833,370.5 328.167,370.5 350.5,370.5C 350.335,367.15 350.502,363.817 351,360.5C 351.5,367.158 351.666,373.825 351.5,380.5 Z"/></g>
<g><path style="opacity:1" fill="#fefe24" d="M 106.5,391.5 C 107.538,394.429 108.704,397.429 110,400.5C 110.903,401.701 112.069,402.535 113.5,403C 121.235,403.55 128.902,403.05 136.5,401.5C 144.507,401.334 152.507,401.5 160.5,402C 159.112,402.889 159.278,403.389 161,403.5C 162.766,402.767 164.599,402.433 166.5,402.5C 176.343,405.087 185.01,409.753 192.5,416.5C 191.218,417.708 191.218,419.042 192.5,420.5C 198.034,422.39 201.367,426.224 202.5,432C 198.014,433.733 193.18,435.567 188,437.5C 184.942,436.88 181.942,436.546 179,436.5C 170.843,437.596 162.51,438.596 154,439.5C 150.11,439.408 146.11,438.741 142,437.5C 139.563,437.868 136.897,438.534 134,439.5C 133.692,438.692 133.192,438.025 132.5,437.5C 130.629,438.767 128.796,438.767 127,437.5C 126,438.167 125,438.833 124,439.5C 122.601,439.499 121.101,439.165 119.5,438.5C 116.917,440.917 114.917,443.751 113.5,447C 118.006,454.681 123.506,462.181 130,469.5C 135.466,477.467 134.3,484.301 126.5,490C 118.488,492.583 110.822,495.917 103.5,500C 95.1925,502.202 86.8591,503.035 78.5,502.5C 76.369,501.686 74.0356,501.186 71.5,501C 109.316,500.923 117.15,485.423 95,454.5C 87.8165,447.284 80.9832,439.784 74.5,432C 64.8333,425 55.1667,418 45.5,411C 40.0875,408.397 34.4208,406.563 28.5,405.5C 21.523,406.307 16.6897,409.974 14,416.5C 12.0427,423.843 10.5427,431.176 9.5,438.5C 10.0173,429.172 10.5173,419.839 11,410.5C 12.7519,407.328 14.7519,404.328 17,401.5C 18.139,395.357 21.3057,390.524 26.5,387C 29.3315,386.788 31.9982,386.621 34.5,386.5C 41.7185,389.989 48.0519,395.323 53.5,402.5C 63.3989,408.077 73.8989,411.743 85,413.5C 88.6489,412.242 89.9822,409.909 89,406.5C 89.6667,407.833 90.3333,407.833 91,406.5C 91.7826,404.567 91.2826,403.067 89.5,402C 91.6568,399.678 93.9901,397.511 96.5,395.5C 97.548,396.383 98.7147,397.05 100,397.5C 101.416,396.427 102.75,396.427 104,397.5C 106.016,396.045 106.849,394.045 106.5,391.5 Z"/></g>
<g><path style="opacity:1" fill="#fa435a" d="M 412.5,378.5 C 413.167,378.5 413.833,378.5 414.5,378.5C 416.218,379.224 418.052,379.891 420,380.5C 420.167,382 420.333,383.5 420.5,385C 420.034,396.332 419.034,406.832 417.5,416.5C 414.5,416.5 411.5,416.5 408.5,416.5C 408.5,415.167 408.5,413.833 408.5,412.5C 398.833,412.5 389.167,412.5 379.5,412.5C 379.5,413.833 379.5,415.167 379.5,416.5C 376.223,416.216 373.057,416.549 370,417.5C 368.913,414.309 368.08,410.975 367.5,407.5C 366.752,421.333 366.086,435.167 365.5,449C 365.833,450.5 366.167,452 366.5,453.5C 367.818,442.915 368.485,442.915 368.5,453.5C 367.967,458.223 366.634,458.556 364.5,454.5C 363.462,449.69 363.462,444.856 364.5,440C 364.059,432.1 363.226,424.267 362,416.5C 361.831,430.006 361.331,443.34 360.5,456.5C 360.333,434.164 360.5,411.831 361,389.5C 363.624,387.965 366.457,386.798 369.5,386C 383.889,383.65 398.223,381.15 412.5,378.5 Z"/></g>
<g><path style="opacity:1" fill="#fd7f91" d="M 412.5,378.5 C 415.625,377.521 418.958,377.187 422.5,377.5C 422.83,394.009 422.496,410.342 421.5,426.5C 421.5,410.5 421.5,394.5 421.5,378.5C 419.167,378.5 416.833,378.5 414.5,378.5C 413.833,378.5 413.167,378.5 412.5,378.5 Z"/></g>
<g><path style="opacity:1" fill="#fb4159" d="M 351.5,380.5 C 351.5,386.5 351.5,392.5 351.5,398.5C 350.578,402.995 349.911,407.662 349.5,412.5C 346.428,412.183 343.428,412.516 340.5,413.5C 340.833,414.167 341.167,414.833 341.5,415.5C 338.232,416.487 334.898,416.82 331.5,416.5C 331.5,415.167 331.5,413.833 331.5,412.5C 328.167,412.5 324.833,412.5 321.5,412.5C 321.5,413.833 321.5,415.167 321.5,416.5C 315.132,416.83 308.798,416.496 302.5,415.5C 302.833,414.833 303.167,414.167 303.5,413.5C 296.866,412.503 290.2,412.17 283.5,412.5C 283.66,414.199 283.494,415.866 283,417.5C 282.502,414.183 282.335,410.85 282.5,407.5C 283.489,402.025 283.822,396.358 283.5,390.5C 305.486,389.834 327.486,389.501 349.5,389.5C 349.5,386.833 349.5,384.167 349.5,381.5C 346.813,381.664 344.146,381.497 341.5,381C 344.817,380.502 348.15,380.335 351.5,380.5 Z"/></g>
<g><path style="opacity:1" fill="#cccc17" d="M 136.5,401.5 C 144.99,400.343 153.657,400.176 162.5,401C 164.058,401.21 165.391,401.71 166.5,402.5C 164.599,402.433 162.766,402.767 161,403.5C 159.278,403.389 159.112,402.889 160.5,402C 152.507,401.5 144.507,401.334 136.5,401.5 Z"/></g>
<g><path style="opacity:1" fill="#fb736f" d="M 483.5,356.5 C 483.833,356.5 484.167,356.5 484.5,356.5C 484.5,394.167 484.5,431.833 484.5,469.5C 484.829,472.228 484.163,474.562 482.5,476.5C 483.477,436.524 483.81,396.524 483.5,356.5 Z"/></g>
<g><path style="opacity:1" fill="#fb3a52" d="M 414.5,378.5 C 416.833,378.5 419.167,378.5 421.5,378.5C 421.5,394.5 421.5,410.5 421.5,426.5C 421.141,428.371 420.141,429.871 418.5,431C 413.5,432 408.5,433 403.5,434C 394.325,436.33 389.992,442.163 390.5,451.5C 389.883,451.389 389.383,451.056 389,450.5C 388.51,451.793 388.343,453.127 388.5,454.5C 381.776,454.756 375.109,454.423 368.5,453.5C 368.485,442.915 367.818,442.915 366.5,453.5C 366.167,452 365.833,450.5 365.5,449C 366.086,435.167 366.752,421.333 367.5,407.5C 368.08,410.975 368.913,414.309 370,417.5C 373.057,416.549 376.223,416.216 379.5,416.5C 379.5,415.167 379.5,413.833 379.5,412.5C 389.167,412.5 398.833,412.5 408.5,412.5C 408.5,413.833 408.5,415.167 408.5,416.5C 411.5,416.5 414.5,416.5 417.5,416.5C 419.034,406.832 420.034,396.332 420.5,385C 420.333,383.5 420.167,382 420,380.5C 418.052,379.891 416.218,379.224 414.5,378.5 Z"/></g>
<g><path style="opacity:1" fill="#fefe3e" d="M 78.5,502.5 C 77.209,502.263 76.209,502.596 75.5,503.5C 74.5,503.5 73.5,503.5 72.5,503.5C 71.5084,503.672 70.8417,503.338 70.5,502.5C 70.4386,500.408 69.4386,498.908 67.5,498C 63.8332,496.896 60.4999,495.229 57.5,493C 60.9358,494.085 64.6025,494.585 68.5,494.5C 68.9175,495.222 69.5842,495.722 70.5,496C 79.6293,498.209 87.4627,496.042 94,489.5C 94.7956,483.995 94.129,478.662 92,473.5C 86.1104,464.222 79.6104,455.389 72.5,447C 66.5,441.667 60.5,436.333 54.5,431C 46.2413,425.204 37.2413,421.037 27.5,418.5C 21.377,419.119 17.5437,422.452 16,428.5C 15.3333,432.5 15.3333,436.5 16,440.5C 16.2401,442.852 17.0735,444.852 18.5,446.5C 18.5516,449.346 19.5516,451.68 21.5,453.5C 21.8511,455.869 22.0178,458.203 22,460.5C 20.9887,459.663 19.8221,459.33 18.5,459.5C 18.1667,459.5 17.8333,459.5 17.5,459.5C 17.5,459.167 17.5,458.833 17.5,458.5C 17.5,457.833 17.1667,457.5 16.5,457.5C 16.5,456.833 16.1667,456.5 15.5,456.5C 15.5,456.167 15.5,455.833 15.5,455.5C 15.6716,454.508 15.3382,453.842 14.5,453.5C 14.6716,452.508 14.3382,451.842 13.5,451.5C 13.6716,450.508 13.3382,449.842 12.5,449.5C 12.6716,448.508 12.3382,447.842 11.5,447.5C 11.6716,446.508 11.3382,445.842 10.5,445.5C 10.6716,444.508 10.3382,443.842 9.5,443.5C 8.5592,441.95 7.89254,440.284 7.5,438.5C 8.16667,438.5 8.83333,438.5 9.5,438.5C 10.5427,431.176 12.0427,423.843 14,416.5C 16.6897,409.974 21.523,406.307 28.5,405.5C 34.4208,406.563 40.0875,408.397 45.5,411C 55.1667,418 64.8333,425 74.5,432C 80.9832,439.784 87.8165,447.284 95,454.5C 117.15,485.423 109.316,500.923 71.5,501C 74.0356,501.186 76.369,501.686 78.5,502.5 Z"/></g>
<g><path style="opacity:1" fill="#dddc16" d="M 510.5,103.5 C 510.833,103.5 511.167,103.5 511.5,103.5C 511.5,201.833 511.5,300.167 511.5,398.5C 510.465,404.993 509.632,411.66 509,418.5C 506.718,425.013 505.051,431.68 504,438.5C 502.811,440.233 501.644,441.9 500.5,443.5C 498.745,444.072 497.078,444.906 495.5,446C 493.877,449.054 493.21,448.554 493.5,444.5C 493.286,437.732 493.953,431.065 495.5,424.5C 496.79,423.942 497.623,422.942 498,421.5C 499.163,423.285 499.83,425.285 500,427.5C 503.026,421.185 505.526,414.685 507.5,408C 508.281,391.849 508.781,375.683 509,359.5C 509.333,360.833 509.667,362.167 510,363.5C 510.5,276.834 510.667,190.167 510.5,103.5 Z"/></g>
<g><path style="opacity:1" fill="#fbe47a" d="M 484.5,356.5 C 485.167,393.5 485.833,430.5 486.5,467.5C 486.167,468.5 485.5,469.167 484.5,469.5C 484.5,431.833 484.5,394.167 484.5,356.5 Z"/></g>
<g><path style="opacity:0.165" fill="#fbf8f8" d="M 511.5,398.5 C 511.5,434.5 511.5,470.5 511.5,506.5C 510.463,507.93 509.796,509.597 509.5,511.5C 472.5,511.5 435.5,511.5 398.5,511.5C 398.5,511.167 398.5,510.833 398.5,510.5C 415.584,511.003 432.584,510.336 449.5,508.5C 461.005,506.248 470.005,500.248 476.5,490.5C 477.401,489.71 478.068,488.71 478.5,487.5C 480.663,484.166 481.996,480.5 482.5,476.5C 484.163,474.562 484.829,472.228 484.5,469.5C 485.5,469.167 486.167,468.5 486.5,467.5C 492.692,460.457 497.359,452.457 500.5,443.5C 501.644,441.9 502.811,440.233 504,438.5C 505.051,431.68 506.718,425.013 509,418.5C 509.632,411.66 510.465,404.993 511.5,398.5 Z"/></g>
<g><path style="opacity:0.01" fill="#121002" d="M 1.5,421.5 C 2.16667,421.5 2.5,421.833 2.5,422.5C 3.40397,423.209 3.73731,424.209 3.5,425.5C 2.73209,426.263 2.23209,427.263 2,428.5C 1.57786,426.645 1.07786,424.811 0.5,423C 0.569925,422.235 0.903259,421.735 1.5,421.5 Z"/></g>
<g><path style="opacity:1" fill="#545453" d="M 280.5,422.5 C 280.5,426.167 280.5,429.833 280.5,433.5C 277.603,434.129 274.936,435.129 272.5,436.5C 272.167,436.5 271.833,436.5 271.5,436.5C 271.664,433.813 271.497,431.146 271,428.5C 269.301,427.594 267.467,427.261 265.5,427.5C 270.478,426.063 275.478,424.396 280.5,422.5 Z"/></g>
<g><path style="opacity:1" fill="#fffe72" d="M 68.5,494.5 C 66.5242,492.989 64.1909,492.156 61.5,492C 59.9069,491.051 58.5736,489.885 57.5,488.5C 59.1172,489.038 60.7839,489.371 62.5,489.5C 62.9175,490.222 63.5842,490.722 64.5,491C 68.5,491.667 72.5,491.667 76.5,491C 81.1433,488.928 82.6433,485.428 81,480.5C 79.573,475.878 77.573,471.545 75,467.5C 64.7704,456.935 54.2704,446.769 43.5,437C 23.4507,425.609 16.1174,431.109 21.5,453.5C 19.5516,451.68 18.5516,449.346 18.5,446.5C 13.5127,426.308 20.5127,419.808 39.5,427C 56.1609,436.99 70.3275,449.823 82,465.5C 85.3831,471.482 87.8831,477.816 89.5,484.5C 89.1806,487.645 88.1806,490.478 86.5,493C 80.5933,494.361 74.5933,494.861 68.5,494.5 Z"/></g>
<g><path style="opacity:1" fill="#fb374f" d="M 483.5,356.5 C 483.81,396.524 483.477,436.524 482.5,476.5C 481.996,480.5 480.663,484.166 478.5,487.5C 477.999,480.131 477.332,472.464 476.5,464.5C 477.628,457.884 477.795,451.218 477,444.5C 476.788,447.758 476.288,450.924 475.5,454C 462.838,454.5 450.171,454.667 437.5,454.5C 437.649,453.448 437.483,452.448 437,451.5C 434.922,454.354 432.755,454.688 430.5,452.5C 429.591,454.375 428.257,455.708 426.5,456.5C 427.572,454.118 428.738,451.784 430,449.5C 430.5,423.169 430.667,396.835 430.5,370.5C 432.309,378.775 433.142,387.442 433,396.5C 433.278,397.416 433.778,398.082 434.5,398.5C 434.334,407.839 434.5,417.173 435,426.5C 435.957,418.191 436.624,409.858 437,401.5C 437.499,406.489 437.666,411.489 437.5,416.5C 440.85,416.665 444.183,416.498 447.5,416C 446.663,414.989 446.33,413.822 446.5,412.5C 450.226,412.177 453.893,412.511 457.5,413.5C 457.167,414.167 456.833,414.833 456.5,415.5C 464.166,416.307 471.833,416.973 479.5,417.5C 479.334,412.489 479.501,407.489 480,402.5C 480.83,407.143 481.497,411.81 482,416.5C 482.498,413.518 482.665,410.518 482.5,407.5C 482.17,390.325 482.503,373.325 483.5,356.5 Z"/></g>
<g><path style="opacity:1" fill="#fa435a" d="M 482.5,407.5 C 482.665,410.518 482.498,413.518 482,416.5C 481.497,411.81 480.83,407.143 480,402.5C 479.501,407.489 479.334,412.489 479.5,417.5C 471.833,416.973 464.166,416.307 456.5,415.5C 456.833,414.833 457.167,414.167 457.5,413.5C 453.893,412.511 450.226,412.177 446.5,412.5C 446.33,413.822 446.663,414.989 447.5,416C 444.183,416.498 440.85,416.665 437.5,416.5C 437.666,411.489 437.499,406.489 437,401.5C 436.624,409.858 435.957,418.191 435,426.5C 434.5,417.173 434.334,407.839 434.5,398.5C 435.167,389.325 435.833,379.991 436.5,370.5C 437.48,373.086 437.813,375.753 437.5,378.5C 450.413,378.178 463.246,378.511 476,379.5C 477.163,377.715 477.83,375.715 478,373.5C 479.934,384.927 481.434,396.26 482.5,407.5 Z"/></g>
<g><path style="opacity:1" fill="#2c2c2b" d="M 260.5,428.5 C 261.919,427.549 263.585,427.216 265.5,427.5C 267.467,427.261 269.301,427.594 271,428.5C 271.497,431.146 271.664,433.813 271.5,436.5C 269.585,436.216 267.919,436.549 266.5,437.5C 266.167,437.5 265.833,437.5 265.5,437.5C 265.5,434.5 265.5,431.5 265.5,428.5C 263.833,428.5 262.167,428.5 260.5,428.5 Z"/></g>
<g><path style="opacity:1" fill="#fffe5a" d="M 68.5,494.5 C 74.5933,494.861 80.5933,494.361 86.5,493C 88.1806,490.478 89.1806,487.645 89.5,484.5C 87.8831,477.816 85.3831,471.482 82,465.5C 70.3275,449.823 56.1609,436.99 39.5,427C 20.5127,419.808 13.5127,426.308 18.5,446.5C 17.0735,444.852 16.2401,442.852 16,440.5C 15.3333,436.5 15.3333,432.5 16,428.5C 17.5437,422.452 21.377,419.119 27.5,418.5C 37.2413,421.037 46.2413,425.204 54.5,431C 60.5,436.333 66.5,441.667 72.5,447C 79.6104,455.389 86.1104,464.222 92,473.5C 94.129,478.662 94.7956,483.995 94,489.5C 87.4627,496.042 79.6293,498.209 70.5,496C 69.5842,495.722 68.9175,495.222 68.5,494.5 Z"/></g>
<g><path style="opacity:1" fill="#fb3850" d="M 282.5,407.5 C 282.335,410.85 282.502,414.183 283,417.5C 283.494,415.866 283.66,414.199 283.5,412.5C 290.2,412.17 296.866,412.503 303.5,413.5C 303.167,414.167 302.833,414.833 302.5,415.5C 308.798,416.496 315.132,416.83 321.5,416.5C 321.5,415.167 321.5,413.833 321.5,412.5C 324.833,412.5 328.167,412.5 331.5,412.5C 331.5,413.833 331.5,415.167 331.5,416.5C 334.898,416.82 338.232,416.487 341.5,415.5C 341.167,414.833 340.833,414.167 340.5,413.5C 343.428,412.516 346.428,412.183 349.5,412.5C 349.911,407.662 350.578,402.995 351.5,398.5C 351.5,412.5 351.5,426.5 351.5,440.5C 351.426,442.411 350.426,443.578 348.5,444C 338.47,444.489 329.803,447.989 322.5,454.5C 321.752,452.265 320.919,452.598 320,455.5C 318.964,458.753 318.297,462.086 318,465.5C 317.503,462.854 317.336,460.187 317.5,457.5C 314.671,457.325 313.004,458.658 312.5,461.5C 309.444,459.711 306.111,459.044 302.5,459.5C 302.5,457.833 302.5,456.167 302.5,454.5C 296.167,454.5 289.833,454.5 283.5,454.5C 284.139,444.773 283.472,435.44 281.5,426.5C 281.333,405.164 281.5,383.831 282,362.5C 282.5,377.496 282.667,392.496 282.5,407.5 Z"/></g>
<g><path style="opacity:1" fill="#fdfa6e" d="M 280.5,433.5 C 280.172,444.014 280.506,454.347 281.5,464.5C 281.841,473.538 283.841,482.204 287.5,490.5C 291.209,498.279 296.876,504.612 304.5,509.5C 302.369,510.169 300.369,510.835 298.5,511.5C 294.833,511.5 291.167,511.5 287.5,511.5C 287.5,510.833 287.833,510.5 288.5,510.5C 291.572,510.817 294.572,510.484 297.5,509.5C 294.813,505.979 291.647,502.979 288,500.5C 285.473,496.779 283.473,492.779 282,488.5C 278.712,471.085 276.545,453.752 275.5,436.5C 274.5,436.5 273.5,436.5 272.5,436.5C 274.936,435.129 277.603,434.129 280.5,433.5 Z"/></g>
<g><path style="opacity:1" fill="#f5f52e" d="M 265.5,437.5 C 265.833,437.5 266.167,437.5 266.5,437.5C 267.833,437.5 269.167,437.5 270.5,437.5C 272.256,453.884 274.423,470.217 277,486.5C 278.964,495.264 283.13,502.764 289.5,509C 288.944,509.383 288.611,509.883 288.5,510.5C 287.833,510.5 287.5,510.833 287.5,511.5C 226.167,511.5 164.833,511.5 103.5,511.5C 103.5,511.167 103.5,510.833 103.5,510.5C 161.501,510.667 219.501,510.5 277.5,510C 278.517,508.951 278.684,507.784 278,506.5C 274.382,501.33 271.716,495.663 270,489.5C 266.966,472.37 263.466,455.37 259.5,438.5C 261.435,437.85 263.435,437.517 265.5,437.5 Z"/></g>
<g><path style="opacity:1" fill="#fffea2" d="M 62.5,489.5 C 60.7839,489.371 59.1172,489.038 57.5,488.5C 56.8333,488.5 56.1667,488.5 55.5,488.5C 44.1914,480.525 34.5248,470.858 26.5,459.5C 24.2729,458.599 23.2729,456.933 23.5,454.5C 22.4332,449.218 22.2665,443.885 23,438.5C 24.255,436.406 26.0884,435.406 28.5,435.5C 37.9034,438.385 46.2367,443.218 53.5,450C 59.7836,456.739 65.9503,463.572 72,470.5C 74.4273,474.787 76.2606,479.287 77.5,484C 77.0418,486.398 75.7085,488.064 73.5,489C 69.8484,489.499 66.1817,489.665 62.5,489.5 Z"/></g>
<g><path style="opacity:0.008" fill="#161404" d="M 9.5,443.5 C 10.3382,443.842 10.6716,444.508 10.5,445.5C 9.83333,445.5 9.5,445.833 9.5,446.5C 8.37505,445.652 8.37505,444.652 9.5,443.5 Z"/></g>
<g><path style="opacity:1" fill="#fffe8d" d="M 62.5,489.5 C 66.1817,489.665 69.8484,489.499 73.5,489C 75.7085,488.064 77.0418,486.398 77.5,484C 76.2606,479.287 74.4273,474.787 72,470.5C 65.9503,463.572 59.7836,456.739 53.5,450C 46.2367,443.218 37.9034,438.385 28.5,435.5C 26.0884,435.406 24.255,436.406 23,438.5C 22.2665,443.885 22.4332,449.218 23.5,454.5C 22.8333,454.167 22.1667,453.833 21.5,453.5C 16.1174,431.109 23.4507,425.609 43.5,437C 54.2704,446.769 64.7704,456.935 75,467.5C 77.573,471.545 79.573,475.878 81,480.5C 82.6433,485.428 81.1433,488.928 76.5,491C 72.5,491.667 68.5,491.667 64.5,491C 63.5842,490.722 62.9175,490.222 62.5,489.5 Z"/></g>
<g><path style="opacity:0.012" fill="#181606" d="M 10.5,445.5 C 11.3382,445.842 11.6716,446.508 11.5,447.5C 10.8333,447.5 10.5,447.833 10.5,448.5C 9.66175,448.158 9.32842,447.492 9.5,446.5C 10.1667,446.5 10.5,446.167 10.5,445.5 Z"/></g>
<g><path style="opacity:0.009" fill="#161506" d="M 11.5,447.5 C 12.3382,447.842 12.6716,448.508 12.5,449.5C 13.3382,449.842 13.6716,450.508 13.5,451.5C 14.3382,451.842 14.6716,452.508 14.5,453.5C 15.3382,453.842 15.6716,454.508 15.5,455.5C 14.8333,455.5 14.5,455.833 14.5,456.5C 12.127,454.421 10.7936,451.754 10.5,448.5C 11.1667,448.5 11.5,448.167 11.5,447.5 Z"/></g>
<g><path style="opacity:1" fill="#fffebd" d="M 27.5,443.5 C 32.5971,443.543 37.2638,445.043 41.5,448C 52.8752,456.7 62.0419,467.2 69,479.5C 69.1805,481.488 69.0138,483.488 68.5,485.5C 58.8877,487.011 50.721,484.344 44,477.5C 37.5753,471.079 31.9086,464.079 27,456.5C 26.2316,452.08 26.3982,447.747 27.5,443.5 Z"/></g>
<g><path style="opacity:0.01" fill="#050501" d="M 14.5,456.5 C 14.8333,456.5 15.1667,456.5 15.5,456.5C 16.1667,456.5 16.5,456.833 16.5,457.5C 17.1667,457.5 17.5,457.833 17.5,458.5C 16.8333,458.5 16.5,458.833 16.5,459.5C 15.0937,459.027 14.427,458.027 14.5,456.5 Z"/></g>
<g><path style="opacity:1" fill="#fefe0e" d="M 192.5,416.5 C 198.999,420.811 205.665,424.978 212.5,429C 227.269,436.441 242.936,439.607 259.5,438.5C 263.466,455.37 266.966,472.37 270,489.5C 271.716,495.663 274.382,501.33 278,506.5C 278.684,507.784 278.517,508.951 277.5,510C 219.501,510.5 161.501,510.667 103.5,510.5C 100.167,510.5 96.8333,510.5 93.5,510.5C 93.5,510.167 93.5,509.833 93.5,509.5C 91.4855,508.076 89.1522,507.41 86.5,507.5C 84.901,507.768 83.5676,507.434 82.5,506.5C 80.3206,505.323 77.9872,504.323 75.5,503.5C 76.209,502.596 77.209,502.263 78.5,502.5C 86.8591,503.035 95.1925,502.202 103.5,500C 110.822,495.917 118.488,492.583 126.5,490C 134.3,484.301 135.466,477.467 130,469.5C 123.506,462.181 118.006,454.681 113.5,447C 114.917,443.751 116.917,440.917 119.5,438.5C 121.101,439.165 122.601,439.499 124,439.5C 125,438.833 126,438.167 127,437.5C 128.796,438.767 130.629,438.767 132.5,437.5C 133.192,438.025 133.692,438.692 134,439.5C 136.897,438.534 139.563,437.868 142,437.5C 146.11,438.741 150.11,439.408 154,439.5C 162.51,438.596 170.843,437.596 179,436.5C 181.942,436.546 184.942,436.88 188,437.5C 193.18,435.567 198.014,433.733 202.5,432C 201.367,426.224 198.034,422.39 192.5,420.5C 191.218,419.042 191.218,417.708 192.5,416.5 Z"/></g>
<g><path style="opacity:0.011" fill="#020200" d="M 16.5,459.5 C 16.8333,459.5 17.1667,459.5 17.5,459.5C 17.5,460.167 17.8333,460.5 18.5,460.5C 19.1667,460.5 19.5,460.833 19.5,461.5C 17.6322,462.674 16.6322,462.007 16.5,459.5 Z"/></g>
<g><path style="opacity:0.011" fill="#050500" d="M 20.5,463.5 C 20.5,464.167 20.8333,464.5 21.5,464.5C 22.1667,464.5 22.5,464.833 22.5,465.5C 21.8333,465.5 21.5,465.833 21.5,466.5C 19.6182,465.779 19.2848,464.779 20.5,463.5 Z"/></g>
<g><path style="opacity:0.011" fill="#020200" d="M 21.5,466.5 C 21.8333,466.5 22.1667,466.5 22.5,466.5C 22.5,467.167 22.8333,467.5 23.5,467.5C 24.1667,467.5 24.5,467.833 24.5,468.5C 22.6322,469.674 21.6322,469.007 21.5,466.5 Z"/></g>
<g><path style="opacity:0.006" fill="#010100" d="M 25.5,470.5 C 25.5,471.167 25.8333,471.5 26.5,471.5C 27.1667,471.5 27.5,471.833 27.5,472.5C 27.5,473.167 27.8333,473.5 28.5,473.5C 28.5,474.167 28.8333,474.5 29.5,474.5C 33.1667,477.5 36.5,480.833 39.5,484.5C 39.5,485.167 39.8333,485.5 40.5,485.5C 40.1034,486.525 39.4368,486.692 38.5,486C 34,481.5 29.5,477 25,472.5C 24.3083,471.563 24.475,470.897 25.5,470.5 Z"/></g>
<g><path style="opacity:1" fill="#f92d46" d="M 368.5,453.5 C 375.109,454.423 381.776,454.756 388.5,454.5C 388.343,453.127 388.51,451.793 389,450.5C 389.383,451.056 389.883,451.389 390.5,451.5C 393.857,463.111 401.524,467.278 413.5,464C 418.699,462.889 423.032,460.389 426.5,456.5C 428.257,455.708 429.591,454.375 430.5,452.5C 432.755,454.688 434.922,454.354 437,451.5C 437.483,452.448 437.649,453.448 437.5,454.5C 450.171,454.667 462.838,454.5 475.5,454C 476.288,450.924 476.788,447.758 477,444.5C 477.795,451.218 477.628,457.884 476.5,464.5C 477.332,472.464 477.999,480.131 478.5,487.5C 478.068,488.71 477.401,489.71 476.5,490.5C 476.162,488.146 475.662,485.813 475,483.5C 474.667,484.167 474.333,484.833 474,485.5C 435.048,483.841 395.881,482.841 356.5,482.5C 356.192,481.692 355.692,481.025 355,480.5C 351.89,481.673 351.723,481.173 354.5,479C 351.131,479.883 347.631,480.716 344,481.5C 341.7,480.225 339.533,480.559 337.5,482.5C 333.721,482.055 330.221,482.055 327,482.5C 326.667,481.833 326.333,481.167 326,480.5C 315.333,481.833 304.667,481.833 294,480.5C 292.745,484.229 290.912,487.562 288.5,490.5C 288.167,490.5 287.833,490.5 287.5,490.5C 283.841,482.204 281.841,473.538 281.5,464.5C 281.5,451.833 281.5,439.167 281.5,426.5C 283.472,435.44 284.139,444.773 283.5,454.5C 289.833,454.5 296.167,454.5 302.5,454.5C 302.5,456.167 302.5,457.833 302.5,459.5C 306.111,459.044 309.444,459.711 312.5,461.5C 313.004,458.658 314.671,457.325 317.5,457.5C 317.336,460.187 317.503,462.854 318,465.5C 318.297,462.086 318.964,458.753 320,455.5C 320.919,452.598 321.752,452.265 322.5,454.5C 321.051,456.925 320.385,459.591 320.5,462.5C 321.438,472.767 327.104,477.767 337.5,477.5C 351.975,477.684 359.641,470.684 360.5,456.5C 361.331,443.34 361.831,430.006 362,416.5C 363.226,424.267 364.059,432.1 364.5,440C 363.462,444.856 363.462,449.69 364.5,454.5C 366.634,458.556 367.967,458.223 368.5,453.5 Z"/></g>
<g><path style="opacity:1" fill="#fdfd55" d="M 266.5,437.5 C 267.919,436.549 269.585,436.216 271.5,436.5C 271.833,436.5 272.167,436.5 272.5,436.5C 273.5,436.5 274.5,436.5 275.5,436.5C 276.545,453.752 278.712,471.085 282,488.5C 283.473,492.779 285.473,496.779 288,500.5C 291.647,502.979 294.813,505.979 297.5,509.5C 294.572,510.484 291.572,510.817 288.5,510.5C 288.611,509.883 288.944,509.383 289.5,509C 283.13,502.764 278.964,495.264 277,486.5C 274.423,470.217 272.256,453.884 270.5,437.5C 269.167,437.5 267.833,437.5 266.5,437.5 Z"/></g>
<g><path style="opacity:1" fill="#e9e94a" d="M 21.5,453.5 C 22.1667,453.833 22.8333,454.167 23.5,454.5C 23.2729,456.933 24.2729,458.599 26.5,459.5C 27.4972,464.355 29.6638,468.688 33,472.5C 38.9854,480.085 46.4854,485.419 55.5,488.5C 56.1667,488.5 56.8333,488.5 57.5,488.5C 58.5736,489.885 59.9069,491.051 61.5,492C 64.1909,492.156 66.5242,492.989 68.5,494.5C 64.6025,494.585 60.9358,494.085 57.5,493C 60.4999,495.229 63.8332,496.896 67.5,498C 69.4386,498.908 70.4386,500.408 70.5,502.5C 63.768,500.3 57.4347,497.3 51.5,493.5C 51.5,492.833 51.1667,492.5 50.5,492.5C 50.5,491.833 50.1667,491.5 49.5,491.5C 47.9991,490.248 46.3325,489.248 44.5,488.5C 44.5,487.833 44.1667,487.5 43.5,487.5C 43.5,486.833 43.1667,486.5 42.5,486.5C 41.8333,486.167 41.1667,485.833 40.5,485.5C 39.8333,485.5 39.5,485.167 39.5,484.5C 36.5,480.833 33.1667,477.5 29.5,474.5C 28.8333,474.5 28.5,474.167 28.5,473.5C 27.8333,473.5 27.5,473.167 27.5,472.5C 27.5,471.833 27.1667,471.5 26.5,471.5C 25.8333,471.5 25.5,471.167 25.5,470.5C 25.1667,469.833 24.8333,469.167 24.5,468.5C 24.5,467.833 24.1667,467.5 23.5,467.5C 22.8333,467.5 22.5,467.167 22.5,466.5C 22.5,466.167 22.5,465.833 22.5,465.5C 22.5,464.833 22.1667,464.5 21.5,464.5C 20.8333,464.5 20.5,464.167 20.5,463.5C 20.1667,462.833 19.8333,462.167 19.5,461.5C 19.5,460.833 19.1667,460.5 18.5,460.5C 18.5,460.167 18.5,459.833 18.5,459.5C 19.8221,459.33 20.9887,459.663 22,460.5C 22.0178,458.203 21.8511,455.869 21.5,453.5 Z"/></g>
<g><path style="opacity:1" fill="#fa2742" d="M 476.5,490.5 C 470.005,500.248 461.005,506.248 449.5,508.5C 449.179,506.952 448.179,506.285 446.5,506.5C 446.5,504.833 446.5,503.167 446.5,501.5C 449.073,501.852 451.406,501.352 453.5,500C 448.182,499.978 442.849,500.145 437.5,500.5C 437.492,497.455 437.159,494.455 436.5,491.5C 433.833,491.5 431.167,491.5 428.5,491.5C 427.705,495.785 427.372,500.119 427.5,504.5C 424.428,504.817 421.428,504.484 418.5,503.5C 418.296,499.637 417.963,495.637 417.5,491.5C 411.5,491.5 405.5,491.5 399.5,491.5C 398.841,494.455 398.508,497.455 398.5,500.5C 395.5,500.5 392.5,500.5 389.5,500.5C 389.492,497.455 389.159,494.455 388.5,491.5C 382.5,491.5 376.5,491.5 370.5,491.5C 369.705,495.785 369.372,500.119 369.5,504.5C 366.5,504.5 363.5,504.5 360.5,504.5C 360.5,503.167 360.5,501.833 360.5,500.5C 357.482,500.665 354.482,500.498 351.5,500C 350.556,497.281 350.223,494.448 350.5,491.5C 344.167,491.5 337.833,491.5 331.5,491.5C 331.664,494.187 331.497,496.854 331,499.5C 327.591,500.622 324.091,500.789 320.5,500C 321.523,497.226 321.523,494.393 320.5,491.5C 314.107,491.207 307.773,491.54 301.5,492.5C 300.833,491.833 300.167,491.167 299.5,490.5C 298.269,491.651 298.269,492.817 299.5,494C 297.575,493.865 295.575,493.698 293.5,493.5C 293.5,494.5 293.5,495.5 293.5,496.5C 291.844,494.54 290.177,492.54 288.5,490.5C 290.912,487.562 292.745,484.229 294,480.5C 304.667,481.833 315.333,481.833 326,480.5C 326.333,481.167 326.667,481.833 327,482.5C 330.221,482.055 333.721,482.055 337.5,482.5C 339.533,480.559 341.7,480.225 344,481.5C 347.631,480.716 351.131,479.883 354.5,479C 351.723,481.173 351.89,481.673 355,480.5C 355.692,481.025 356.192,481.692 356.5,482.5C 395.881,482.841 435.048,483.841 474,485.5C 474.333,484.833 474.667,484.167 475,483.5C 475.662,485.813 476.162,488.146 476.5,490.5 Z"/></g>
<g><path style="opacity:1" fill="#fffe7e" d="M 26.5,459.5 C 34.5248,470.858 44.1914,480.525 55.5,488.5C 46.4854,485.419 38.9854,480.085 33,472.5C 29.6638,468.688 27.4972,464.355 26.5,459.5 Z"/></g>
<g><path style="opacity:0.009" fill="#020200" d="M 42.5,486.5 C 43.1667,486.5 43.5,486.833 43.5,487.5C 44.1667,487.5 44.5,487.833 44.5,488.5C 44.1034,489.525 43.4368,489.692 42.5,489C 41.4019,488.23 41.4019,487.397 42.5,486.5 Z"/></g>
<g><path style="opacity:0.009" fill="#020200" d="M 49.5,491.5 C 50.1667,491.5 50.5,491.833 50.5,492.5C 51.1667,492.5 51.5,492.833 51.5,493.5C 51.1034,494.525 50.4368,494.692 49.5,494C 48.4019,493.23 48.4019,492.397 49.5,491.5 Z"/></g>
<g><path style="opacity:1" fill="#fa2a3e" d="M 449.5,508.5 C 432.584,510.336 415.584,511.003 398.5,510.5C 371.479,510.789 344.479,510.456 317.5,509.5C 308.015,507.76 300.015,503.427 293.5,496.5C 293.5,495.5 293.5,494.5 293.5,493.5C 295.575,493.698 297.575,493.865 299.5,494C 298.269,492.817 298.269,491.651 299.5,490.5C 300.167,491.167 300.833,491.833 301.5,492.5C 307.773,491.54 314.107,491.207 320.5,491.5C 321.523,494.393 321.523,497.226 320.5,500C 324.091,500.789 327.591,500.622 331,499.5C 331.497,496.854 331.664,494.187 331.5,491.5C 337.833,491.5 344.167,491.5 350.5,491.5C 350.223,494.448 350.556,497.281 351.5,500C 354.482,500.498 357.482,500.665 360.5,500.5C 360.5,501.833 360.5,503.167 360.5,504.5C 363.5,504.5 366.5,504.5 369.5,504.5C 369.372,500.119 369.705,495.785 370.5,491.5C 376.5,491.5 382.5,491.5 388.5,491.5C 389.159,494.455 389.492,497.455 389.5,500.5C 392.5,500.5 395.5,500.5 398.5,500.5C 398.508,497.455 398.841,494.455 399.5,491.5C 405.5,491.5 411.5,491.5 417.5,491.5C 417.963,495.637 418.296,499.637 418.5,503.5C 421.428,504.484 424.428,504.817 427.5,504.5C 427.372,500.119 427.705,495.785 428.5,491.5C 431.167,491.5 433.833,491.5 436.5,491.5C 437.159,494.455 437.492,497.455 437.5,500.5C 442.849,500.145 448.182,499.978 453.5,500C 451.406,501.352 449.073,501.852 446.5,501.5C 446.5,503.167 446.5,504.833 446.5,506.5C 448.179,506.285 449.179,506.952 449.5,508.5 Z"/></g>
<g><path style="opacity:1" fill="#fbf384" d="M 287.5,490.5 C 287.833,490.5 288.167,490.5 288.5,490.5C 290.177,492.54 291.844,494.54 293.5,496.5C 300.015,503.427 308.015,507.76 317.5,509.5C 315.833,510.167 314.167,510.833 312.5,511.5C 307.833,511.5 303.167,511.5 298.5,511.5C 300.369,510.835 302.369,510.169 304.5,509.5C 296.876,504.612 291.209,498.279 287.5,490.5 Z"/></g>
<g><path style="opacity:0.949" fill="#8b8b12" d="M 72.5,503.5 C 73.5,503.5 74.5,503.5 75.5,503.5C 77.9872,504.323 80.3206,505.323 82.5,506.5C 78.8379,506.277 75.5046,505.277 72.5,503.5 Z"/></g>
<g><path style="opacity:0.902" fill="#8f8f0e" d="M 86.5,507.5 C 89.1522,507.41 91.4855,508.076 93.5,509.5C 90.8478,509.59 88.5145,508.924 86.5,507.5 Z"/></g>
<g><path style="opacity:0.009" fill="#020200" d="M 89.5,511.5 C 90.5676,510.566 91.901,510.232 93.5,510.5C 93.5,510.833 93.5,511.167 93.5,511.5C 92.1667,511.5 90.8333,511.5 89.5,511.5 Z"/></g>
<g><path style="opacity:0.941" fill="#f0e0a4" d="M 317.5,509.5 C 344.479,510.456 371.479,510.789 398.5,510.5C 398.5,510.833 398.5,511.167 398.5,511.5C 369.833,511.5 341.167,511.5 312.5,511.5C 314.167,510.833 315.833,510.167 317.5,509.5 Z"/></g>
</svg>
