<?xml version="1.0" encoding="UTF-8"?>
<!DOCTYPE svg PUBLIC "-//W3C//DTD SVG 1.1//EN" "http://www.w3.org/Graphics/SVG/1.1/DTD/svg11.dtd">
<svg xmlns="http://www.w3.org/2000/svg" version="1.1" width="512px" height="512px" style="shape-rendering:geometricPrecision; text-rendering:geometricPrecision; image-rendering:optimizeQuality; fill-rule:evenodd; clip-rule:evenodd" xmlns:xlink="http://www.w3.org/1999/xlink">
<g><path style="opacity:0.827" fill="#c8c870" d="M 103.5,0.5 C 103.5,0.166667 103.5,-0.166667 103.5,-0.5C 204.833,-0.5 306.167,-0.5 407.5,-0.5C 410.833,0.166667 414.167,0.833333 417.5,1.5C 413.958,1.18723 410.625,1.52056 407.5,2.5C 407.167,2.5 406.833,2.5 406.5,2.5C 405.5,2.5 404.5,2.5 403.5,2.5C 402.737,1.73209 401.737,1.23209 400.5,1C 327.501,0.500003 254.501,0.333337 181.5,0.5C 157.833,0.5 134.167,0.5 110.5,0.5C 108.167,0.5 105.833,0.5 103.5,0.5 Z"/></g>
<g><path style="opacity:1" fill="#fffeb5" d="M 181.5,1.5 C 181.5,1.16667 181.5,0.833333 181.5,0.5C 254.501,0.333337 327.501,0.500003 400.5,1C 401.737,1.23209 402.737,1.73209 403.5,2.5C 402.167,2.5 400.833,2.5 399.5,2.5C 327.002,1.50077 254.335,1.16744 181.5,1.5 Z"/></g>
<g><path style="opacity:0.839" fill="#878716" d="M 89.5,2.5 C 87.4855,3.92381 85.1522,4.59047 82.5,4.5C 84.5145,3.07619 86.8478,2.40953 89.5,2.5 Z"/></g>
<g><path style="opacity:1" fill="#fdfd4f" d="M 103.5,0.5 C 105.833,0.5 108.167,0.5 110.5,0.5C 110.167,1.5 109.5,2.16667 108.5,2.5C 106.901,2.23219 105.568,2.56552 104.5,3.5C 96.2192,4.85005 94.8859,8.35005 100.5,14C 108.505,17.4452 116.838,20.1118 125.5,22C 220.777,35.9711 316.11,38.9711 411.5,31C 421.175,30.105 430.175,27.2716 438.5,22.5C 440.608,20.6179 441.941,18.2846 442.5,15.5C 441.268,13.9501 440.768,12.2834 441,10.5C 441.383,11.056 441.883,11.3893 442.5,11.5C 445.544,12.2206 447.211,14.2206 447.5,17.5C 447.451,20.0991 446.451,22.2658 444.5,24C 421.563,34.3529 397.896,39.1863 373.5,38.5C 362.97,39.1557 352.47,39.8223 342,40.5C 266.998,40.354 191.164,34.5207 114.5,23C 107.5,20.6667 100.5,18.3333 93.5,16C 88.8035,12.6232 88.4701,8.95655 92.5,5C 92.2716,4.60123 91.9382,4.43456 91.5,4.5C 92.6602,2.79734 91.9935,2.13068 89.5,2.5C 93.8807,0.78945 98.5474,0.122783 103.5,0.5 Z"/></g>
<g><path style="opacity:1" fill="#fdfd34" d="M 89.5,2.5 C 91.9935,2.13068 92.6602,2.79734 91.5,4.5C 87.2593,8.92554 87.5926,13.0922 92.5,17C 99.3724,21.1021 106.706,24.1021 114.5,26C 178.464,35.9334 242.297,42.1 306,44.5C 313.435,45.4327 320.935,46.2661 328.5,47C 332.723,47.3551 336.39,48.3551 339.5,50C 329.861,57.3025 319.861,63.8025 309.5,69.5C 284.728,57.9276 258.728,53.9276 231.5,57.5C 229.615,55.6885 227.281,54.5218 224.5,54C 186.379,47.9798 148.379,41.3132 110.5,34C 101.276,30.7211 92.6089,26.3878 84.5,21C 78.3351,16.5385 77.6684,11.7051 82.5,6.5C 78.8262,5.83065 75.4928,6.83065 72.5,9.5C 71.8165,9.13727 71.1499,8.80393 70.5,8.5C 74.0845,6.19393 78.0845,4.8606 82.5,4.5C 85.1522,4.59047 87.4855,3.92381 89.5,2.5 Z"/></g>
<g><path style="opacity:0.008" fill="#010200" d="M 63.5,9.5 C 63.8966,8.47498 64.5632,8.30831 65.5,9C 64.9056,9.46434 64.2389,9.63101 63.5,9.5 Z"/></g>
<g><path style="opacity:1" fill="#fdfd1b" d="M 231.5,57.5 C 190.342,64.1655 161.675,86.6655 145.5,125C 143.376,131.702 141.876,138.535 141,145.5C 140.33,168.193 140.83,190.86 142.5,213.5C 138.524,214.331 134.524,214.497 130.5,214C 123.719,211.129 116.719,208.962 109.5,207.5C 98.992,208.559 92.3253,214.059 89.5,224C 91.5324,233.039 96.8657,239.372 105.5,243C 110.332,245.332 115.332,247.166 120.5,248.5C 122.162,254.65 124.496,260.483 127.5,266C 125.612,272.949 123.112,279.782 120,286.5C 119.667,289.167 119.333,291.833 119,294.5C 117.842,298.314 116.009,301.814 113.5,305C 113.743,305.902 114.077,306.735 114.5,307.5C 111.5,311.167 108.167,314.5 104.5,317.5C 104.265,316.903 103.765,316.57 103,316.5C 98.5518,317.862 94.2185,319.529 90,321.5C 86.1895,320.852 83.3562,318.852 81.5,315.5C 80.2054,314.902 78.8721,314.402 77.5,314C 77.6938,312.097 77.6938,310.263 77.5,308.5C 73.8823,304.197 72.8823,299.364 74.5,294C 73.8333,292.667 73.1667,291.333 72.5,290C 73.1667,285.667 73.8333,281.333 74.5,277C 74.0224,271.659 74.6891,266.325 76.5,261C 76.0058,257.609 76.6724,254.276 78.5,251C 78.1667,250.667 77.8333,250.333 77.5,250C 78.7444,245.139 80.0778,240.306 81.5,235.5C 80.9665,232.893 81.6331,230.393 83.5,228C 81.5666,224.879 81.5666,221.546 83.5,218C 81.579,215.098 81.579,212.431 83.5,210C 82.1667,208.667 82.1667,207.333 83.5,206C 82.0393,204.024 81.706,202.024 82.5,200C 81.7411,196.356 81.0744,192.689 80.5,189C 82.0568,161.991 85.2235,134.491 90,106.5C 94.7506,97.326 100.251,88.6594 106.5,80.5C 112.474,76.5092 118.808,73.0092 125.5,70C 124.549,69.2825 124.383,68.4491 125,67.5C 126.487,66.8448 127.653,65.8448 128.5,64.5C 127.586,62.3359 126.419,60.3359 125,58.5C 122.645,58.3999 120.478,57.2332 118.5,55C 114.755,53.6297 111.088,51.963 107.5,50C 98.6752,43.4207 89.6752,37.0873 80.5,31C 77.6412,28.4712 74.8079,25.9712 72,23.5C 69.9128,20.3272 68.0795,16.9939 66.5,13.5C 64.9547,12.5481 63.288,12.2148 61.5,12.5C 64.2558,10.7962 67.2558,9.46291 70.5,8.5C 71.1499,8.80393 71.8165,9.13727 72.5,9.5C 75.4928,6.83065 78.8262,5.83065 82.5,6.5C 77.6684,11.7051 78.3351,16.5385 84.5,21C 92.6089,26.3878 101.276,30.7211 110.5,34C 148.379,41.3132 186.379,47.9798 224.5,54C 227.281,54.5218 229.615,55.6885 231.5,57.5 Z"/></g>
<g><path style="opacity:0.008" fill="#010200" d="M 444.5,9.5 C 444.897,8.47498 445.563,8.30831 446.5,9C 445.906,9.46434 445.239,9.63101 444.5,9.5 Z"/></g>
<g><path style="opacity:1" fill="#fdfd36" d="M 444.5,10.5 C 449.885,12.0263 454.885,14.3596 459.5,17.5C 459.5,17.8333 459.5,18.1667 459.5,18.5C 457.202,18.5699 454.868,18.5699 452.5,18.5C 453.877,21.5766 453.71,24.5766 452,27.5C 448.592,30.4532 445.092,33.2865 441.5,36C 439.604,37.8083 439.104,39.975 440,42.5C 447.061,50.2944 453.395,58.6277 459,67.5C 461.652,74.4288 463.152,81.5954 463.5,89C 455.544,154.482 447.711,219.982 440,285.5C 439.021,294.718 437.187,303.718 434.5,312.5C 431.892,312.606 429.892,313.772 428.5,316C 427.167,316.167 425.833,316.333 424.5,316.5C 403.419,312.919 386.919,302.253 375,284.5C 374.517,285.448 374.351,286.448 374.5,287.5C 370.798,282.764 368.132,277.43 366.5,271.5C 370.729,268.775 374.562,265.441 378,261.5C 380.809,255.693 384.976,251.193 390.5,248C 389.944,247.617 389.611,247.117 389.5,246.5C 391.214,245.262 393.214,244.595 395.5,244.5C 396.873,244.343 398.207,244.51 399.5,245C 398.809,246.067 398.309,247.234 398,248.5C 393.107,252.273 388.44,256.273 384,260.5C 382.382,266.753 383.382,272.753 387,278.5C 394.487,288.824 404.32,295.824 416.5,299.5C 418.739,296.346 421.073,293.179 423.5,290C 431.183,256.213 438.35,221.713 445,186.5C 450.068,153.857 454.901,121.19 459.5,88.5C 458.732,80.4277 456.566,72.761 453,65.5C 446.724,55.9398 438.224,49.1064 427.5,45C 423.5,42 423.5,39 427.5,36C 434.446,33.1939 441.112,29.8606 447.5,26C 448.627,24.2467 449.627,22.4134 450.5,20.5C 450.121,18.7869 449.121,17.7869 447.5,17.5C 447.211,14.2206 445.544,12.2206 442.5,11.5C 443.167,11.1667 443.833,10.8333 444.5,10.5 Z"/></g>
<g><path style="opacity:0.01" fill="#020200" d="M 459.5,17.5 C 459.897,16.475 460.563,16.3083 461.5,17C 462.598,17.7697 462.598,18.603 461.5,19.5C 460.833,19.5 460.5,19.1667 460.5,18.5C 460.5,17.8333 460.167,17.5 459.5,17.5 Z"/></g>
<g><path style="opacity:1" fill="#fcfc0f" d="M 61.5,12.5 C 63.288,12.2148 64.9547,12.5481 66.5,13.5C 68.0795,16.9939 69.9128,20.3272 72,23.5C 74.8079,25.9712 77.6412,28.4712 80.5,31C 89.6752,37.0873 98.6752,43.4207 107.5,50C 111.088,51.963 114.755,53.6297 118.5,55C 120.478,57.2332 122.645,58.3999 125,58.5C 126.419,60.3359 127.586,62.3359 128.5,64.5C 127.653,65.8448 126.487,66.8448 125,67.5C 124.383,68.4491 124.549,69.2825 125.5,70C 118.808,73.0092 112.474,76.5092 106.5,80.5C 100.251,88.6594 94.7506,97.326 90,106.5C 85.2235,134.491 82.0568,161.991 80.5,189C 81.0744,192.689 81.7411,196.356 82.5,200C 81.706,202.024 82.0393,204.024 83.5,206C 82.1667,207.333 82.1667,208.667 83.5,210C 81.579,212.431 81.579,215.098 83.5,218C 81.5666,221.546 81.5666,224.879 83.5,228C 81.6331,230.393 80.9665,232.893 81.5,235.5C 80.0778,240.306 78.7444,245.139 77.5,250C 77.8333,250.333 78.1667,250.667 78.5,251C 76.6724,254.276 76.0058,257.609 76.5,261C 74.6891,266.325 74.0224,271.659 74.5,277C 73.8333,281.333 73.1667,285.667 72.5,290C 73.1667,291.333 73.8333,292.667 74.5,294C 72.8823,299.364 73.8823,304.197 77.5,308.5C 77.6938,310.263 77.6938,312.097 77.5,314C 78.8721,314.402 80.2054,314.902 81.5,315.5C 83.3562,318.852 86.1895,320.852 90,321.5C 94.2185,319.529 98.5518,317.862 103,316.5C 103.765,316.57 104.265,316.903 104.5,317.5C 92.6471,329.426 78.3138,336.593 61.5,339C 45.284,345.769 44.284,354.436 58.5,365C 72.7902,371.823 87.7902,376.323 103.5,378.5C 105.29,382.658 106.29,386.991 106.5,391.5C 106.849,394.045 106.016,396.045 104,397.5C 102.75,396.427 101.416,396.427 100,397.5C 98.7147,397.05 97.548,396.383 96.5,395.5C 93.9901,397.511 91.6568,399.678 89.5,402C 91.2826,403.067 91.7826,404.567 91,406.5C 90.3333,407.833 89.6667,407.833 89,406.5C 89.9822,409.909 88.6489,412.242 85,413.5C 73.8989,411.743 63.3989,408.077 53.5,402.5C 48.0519,395.323 41.7185,389.989 34.5,386.5C 31.9982,386.621 29.3315,386.788 26.5,387C 21.3057,390.524 18.139,395.357 17,401.5C 14.7519,404.328 12.7519,407.328 11,410.5C 10.5173,419.839 10.0173,429.172 9.5,438.5C 8.83333,438.5 8.16667,438.5 7.5,438.5C 5.41105,434.499 4.07772,430.165 3.5,425.5C 3.73731,424.209 3.40397,423.209 2.5,422.5C 2.5,421.833 2.16667,421.5 1.5,421.5C 1.08855,416.662 0.421887,411.995 -0.5,407.5C -0.5,306.167 -0.5,204.833 -0.5,103.5C 0.236339,98.2399 1.23634,92.9065 2.5,87.5C 3.33825,87.1583 3.67158,86.4916 3.5,85.5C 3.26269,84.209 3.59603,83.209 4.5,82.5C 4.26057,84.4672 4.59391,86.3005 5.5,88C 2.59449,91.2834 1.92782,94.95 3.5,99C 2.73622,101.069 2.23622,103.236 2,105.5C 1.33333,193.833 1.33333,282.167 2,370.5C 2.33333,375.167 2.66667,379.833 3,384.5C 3.42258,385.956 4.25591,386.456 5.5,386C 5.16667,385.667 4.83333,385.333 4.5,385C 5.86328,383.055 6.69661,380.888 7,378.5C 9.4477,361.766 13.4477,345.766 19,330.5C 22.7568,324.698 27.0902,319.365 32,314.5C 33.164,314.165 34.4974,314.165 36,314.5C 38.773,312.673 41.6063,310.839 44.5,309C 44.1667,308.667 43.8333,308.333 43.5,308C 45.447,304.388 47.7803,301.055 50.5,298C 50.5,296.333 50.5,294.667 50.5,293C 52.5384,291.764 53.7051,289.931 54,287.5C 57.1524,275.734 59.6524,263.901 61.5,252C 60.7539,249.907 60.4205,247.907 60.5,246C 61.8583,244.168 62.1916,242.335 61.5,240.5C 63.4718,230.65 65.1385,220.983 66.5,211.5C 66.7074,202.507 66.7074,193.674 66.5,185C 68.0455,168.604 70.0455,152.437 72.5,136.5C 72.1943,132.569 72.1943,128.403 72.5,124C 73.1667,121.333 73.8333,118.667 74.5,116C 74.3842,114.732 74.0509,113.398 73.5,112C 78.9066,97.1136 83.9066,82.1136 88.5,67C 87.4267,65.7496 87.4267,64.4162 88.5,63C 88.2409,61.7387 87.5742,60.7387 86.5,60C 87.2583,58.6361 86.7583,57.4695 85,56.5C 84.654,54.7818 84.154,53.1151 83.5,51.5C 74.5248,41.6029 65.0248,32.2695 55,23.5C 48.5244,24.8313 42.6911,27.998 37.5,33C 35.0302,33.9888 32.6968,35.1554 30.5,36.5C 33.5,33.1667 36.5,29.8333 39.5,26.5C 40.1667,26.5 40.5,26.1667 40.5,25.5C 43.1667,23.8333 45.8333,22.1667 48.5,20.5C 50.0269,20.573 51.0269,19.9063 51.5,18.5C 54.1612,15.4977 57.4945,13.4977 61.5,12.5 Z"/></g>
<g><path style="opacity:1" fill="#fefe43" d="M 91.5,4.5 C 91.9382,4.43456 92.2716,4.60123 92.5,5C 88.4701,8.95655 88.8035,12.6232 93.5,16C 100.5,18.3333 107.5,20.6667 114.5,23C 191.164,34.5207 266.998,40.354 342,40.5C 352.47,39.8223 362.97,39.1557 373.5,38.5C 397.896,39.1863 421.563,34.3529 444.5,24C 446.451,22.2658 447.451,20.0991 447.5,17.5C 449.121,17.7869 450.121,18.7869 450.5,20.5C 449.627,22.4134 448.627,24.2467 447.5,26C 441.112,29.8606 434.446,33.1939 427.5,36C 423.5,39 423.5,42 427.5,45C 438.224,49.1064 446.724,55.9398 453,65.5C 456.566,72.761 458.732,80.4277 459.5,88.5C 454.901,121.19 450.068,153.857 445,186.5C 438.35,221.713 431.183,256.213 423.5,290C 421.073,293.179 418.739,296.346 416.5,299.5C 404.32,295.824 394.487,288.824 387,278.5C 383.382,272.753 382.382,266.753 384,260.5C 388.44,256.273 393.107,252.273 398,248.5C 398.309,247.234 398.809,246.067 399.5,245C 398.207,244.51 396.873,244.343 395.5,244.5C 404.022,241.474 410.189,235.807 414,227.5C 414.236,219.057 410.402,213.223 402.5,210C 398.993,208.442 395.327,207.608 391.5,207.5C 384.8,208.788 378.3,210.788 372,213.5C 368.493,214.764 364.993,214.764 361.5,213.5C 362.218,200.169 362.884,186.836 363.5,173.5C 364.117,173.611 364.617,173.944 365,174.5C 365.333,172.167 365.667,169.833 366,167.5C 367.887,177.939 372.887,186.606 381,193.5C 381.333,193.167 381.667,192.833 382,192.5C 383.243,194.833 384.909,195.5 387,194.5C 394.647,198.069 401.814,202.069 408.5,206.5C 409.72,207.711 410.887,207.711 412,206.5C 415.322,208.884 418.822,211.05 422.5,213C 424.521,213.14 426.355,213.307 428,213.5C 433.676,198.137 438.343,182.471 442,166.5C 447.2,140.598 451.7,114.598 455.5,88.5C 453.465,64.4647 440.465,51.4647 416.5,49.5C 393.257,51.9861 370.59,56.1528 348.5,62C 343.084,64.1389 337.751,66.4722 332.5,69C 329.333,71.5 326.5,74.3333 324,77.5C 323.329,76.7476 322.496,76.4142 321.5,76.5C 317.492,74.1633 313.492,71.83 309.5,69.5C 319.861,63.8025 329.861,57.3025 339.5,50C 336.39,48.3551 332.723,47.3551 328.5,47C 320.935,46.2661 313.435,45.4327 306,44.5C 242.297,42.1 178.464,35.9334 114.5,26C 106.706,24.1021 99.3724,21.1021 92.5,17C 87.5926,13.0922 87.2593,8.92554 91.5,4.5 Z"/></g>
<g><path style="opacity:0.78" fill="#7d7d0f" d="M 51.5,18.5 C 51.0269,19.9063 50.0269,20.573 48.5,20.5C 48.9731,19.0937 49.9731,18.427 51.5,18.5 Z"/></g>
<g><path style="opacity:1" fill="#fdfd9c" d="M 136.5,1.5 C 131.015,2.32716 125.348,2.82716 119.5,3C 117.589,4.4959 115.589,5.82923 113.5,7C 117.481,9.48661 121.814,11.1533 126.5,12C 156.167,15.4844 185.833,18.4844 215.5,21C 252.381,24.1004 289.214,24.2671 326,21.5C 326.333,21.8333 326.667,22.1667 327,22.5C 344.946,21.8032 362.779,20.8032 380.5,19.5C 393.934,19.5391 407.268,18.3724 420.5,16C 423.874,15.479 426.874,14.1457 429.5,12C 428.922,10.583 427.922,9.74962 426.5,9.5C 425.167,8.83333 423.833,8.16667 422.5,7.5C 420.964,4.90781 418.631,3.90781 415.5,4.5C 412.994,3.25045 410.327,2.58378 407.5,2.5C 410.625,1.52056 413.958,1.18723 417.5,1.5C 422.809,2.07562 427.809,3.40896 432.5,5.5C 430.901,5.23219 429.568,5.56552 428.5,6.5C 428.062,6.43456 427.728,6.60123 427.5,7C 430.242,8.8864 431.909,11.3864 432.5,14.5C 426.463,16.0124 420.463,17.8458 414.5,20C 397.412,21.9081 380.412,23.5748 363.5,25C 325.5,25.6667 287.5,25.6667 249.5,25C 214.091,22.8582 178.757,20.1915 143.5,17C 132.731,15.983 122.065,14.3163 111.5,12C 109.365,11.2411 108.032,9.74108 107.5,7.5C 109.167,5.66667 110.833,3.83333 112.5,2C 120.493,1.50029 128.493,1.33362 136.5,1.5 Z"/></g>
<g><path style="opacity:1" fill="#fefea8" d="M 136.5,1.5 C 150.167,1.5 163.833,1.5 177.5,1.5C 168.682,2.4933 159.682,2.82664 150.5,2.5C 142.447,1.80708 134.78,3.14041 127.5,6.5C 128.025,7.19238 128.692,7.69238 129.5,8C 150.702,11.9665 172.035,14.7998 193.5,16.5C 256.14,21.206 318.473,22.206 380.5,19.5C 362.779,20.8032 344.946,21.8032 327,22.5C 326.667,22.1667 326.333,21.8333 326,21.5C 289.214,24.2671 252.381,24.1004 215.5,21C 185.833,18.4844 156.167,15.4844 126.5,12C 121.814,11.1533 117.481,9.48661 113.5,7C 115.589,5.82923 117.589,4.4959 119.5,3C 125.348,2.82716 131.015,2.32716 136.5,1.5 Z"/></g>
<g><path style="opacity:1" fill="#fefed0" d="M 177.5,1.5 C 178.833,1.5 180.167,1.5 181.5,1.5C 254.335,1.16744 327.002,1.50077 399.5,2.5C 332.167,2.5 264.833,2.5 197.5,2.5C 188.763,2.60702 180.096,3.44035 171.5,5C 171.167,5.33333 170.833,5.66667 170.5,6C 176.283,6.83514 181.949,7.83514 187.5,9C 264.14,14.5906 340.473,14.7573 416.5,9.5C 417.167,9.16667 417.833,8.83333 418.5,8.5C 417.174,7.35782 416.174,6.02449 415.5,4.5C 418.631,3.90781 420.964,4.90781 422.5,7.5C 422.414,8.4959 422.748,9.32924 423.5,10C 411.802,13.6234 399.802,15.2901 387.5,15C 305.036,18.7237 223.036,16.3903 141.5,8C 137.622,7.0514 137.622,5.88473 141.5,4.5C 144.642,3.83262 147.642,3.16596 150.5,2.5C 159.682,2.82664 168.682,2.4933 177.5,1.5 Z"/></g>
<g><path style="opacity:1" fill="#fffec0" d="M 150.5,2.5 C 147.642,3.16596 144.642,3.83262 141.5,4.5C 137.622,5.88473 137.622,7.0514 141.5,8C 223.036,16.3903 305.036,18.7237 387.5,15C 399.802,15.2901 411.802,13.6234 423.5,10C 422.748,9.32924 422.414,8.4959 422.5,7.5C 423.833,8.16667 425.167,8.83333 426.5,9.5C 426.586,10.4959 426.252,11.3292 425.5,12C 422.226,13.2023 418.893,14.2023 415.5,15C 405.47,15.8528 395.47,16.8528 385.5,18C 321.488,18.8332 257.488,18.3332 193.5,16.5C 172.035,14.7998 150.702,11.9665 129.5,8C 128.692,7.69238 128.025,7.19238 127.5,6.5C 134.78,3.14041 142.447,1.80708 150.5,2.5 Z"/></g>
<g><path style="opacity:1" fill="#fffed9" d="M 197.5,2.5 C 192.661,3.43438 187.661,4.26771 182.5,5C 186.381,6.19014 190.381,6.85681 194.5,7C 267.607,9.2748 338.94,9.60813 408.5,8C 409.5,7.66667 410.5,7.33333 411.5,7C 409.308,5.93309 407.642,4.43309 406.5,2.5C 406.833,2.5 407.167,2.5 407.5,2.5C 410.327,2.58378 412.994,3.25045 415.5,4.5C 416.174,6.02449 417.174,7.35782 418.5,8.5C 417.833,8.83333 417.167,9.16667 416.5,9.5C 340.473,14.7573 264.14,14.5906 187.5,9C 181.949,7.83514 176.283,6.83514 170.5,6C 170.833,5.66667 171.167,5.33333 171.5,5C 180.096,3.44035 188.763,2.60702 197.5,2.5 Z"/></g>
<g><path style="opacity:1" fill="#fffeee" d="M 197.5,2.5 C 264.833,2.5 332.167,2.5 399.5,2.5C 400.833,2.5 402.167,2.5 403.5,2.5C 404.5,2.5 405.5,2.5 406.5,2.5C 407.642,4.43309 409.308,5.93309 411.5,7C 410.5,7.33333 409.5,7.66667 408.5,8C 338.94,9.60813 267.607,9.2748 194.5,7C 190.381,6.85681 186.381,6.19014 182.5,5C 187.661,4.26771 192.661,3.43438 197.5,2.5 Z"/></g>
<g><path style="opacity:1" fill="#fefe25" d="M 459.5,18.5 C 459.833,18.5 460.167,18.5 460.5,18.5C 460.5,19.1667 460.833,19.5 461.5,19.5C 463.001,20.7515 464.668,21.7515 466.5,22.5C 466.5,22.8333 466.5,23.1667 466.5,23.5C 465.153,22.9717 463.819,22.805 462.5,23C 464.357,24.1824 465.357,25.849 465.5,28C 463.865,33.2659 462.532,38.5992 461.5,44C 463.721,52.9982 466.555,61.8315 470,70.5C 473.116,83.6761 473.283,96.8428 470.5,110C 466.157,178.844 460.991,247.344 455,315.5C 452.972,324.475 451.138,333.475 449.5,342.5C 416.283,335.272 391.283,316.938 374.5,287.5C 374.351,286.448 374.517,285.448 375,284.5C 386.919,302.253 403.419,312.919 424.5,316.5C 425.833,316.333 427.167,316.167 428.5,316C 429.892,313.772 431.892,312.606 434.5,312.5C 437.187,303.718 439.021,294.718 440,285.5C 447.711,219.982 455.544,154.482 463.5,89C 463.152,81.5954 461.652,74.4288 459,67.5C 453.395,58.6277 447.061,50.2944 440,42.5C 439.104,39.975 439.604,37.8083 441.5,36C 445.092,33.2865 448.592,30.4532 452,27.5C 453.71,24.5766 453.877,21.5766 452.5,18.5C 454.868,18.5699 457.202,18.5699 459.5,18.5 Z"/></g>
<g><path style="opacity:0.009" fill="#020200" d="M 466.5,22.5 C 466.897,21.475 467.563,21.3083 468.5,22C 469.598,22.7697 469.598,23.603 468.5,24.5C 467.833,24.5 467.5,24.1667 467.5,23.5C 467.5,22.8333 467.167,22.5 466.5,22.5 Z"/></g>
<g><path style="opacity:1" fill="#fefe00" d="M 4.5,82.5 C 6.2766,79.4954 7.2766,76.1621 7.5,72.5C 7.89254,70.7162 8.5592,69.0495 9.5,67.5C 10.3382,67.1583 10.6716,66.4916 10.5,65.5C 11.3382,65.1583 11.6716,64.4916 11.5,63.5C 12.3382,63.1583 12.6716,62.4916 12.5,61.5C 13.3382,61.1583 13.6716,60.4916 13.5,59.5C 13.5,59.1667 13.5,58.8333 13.5,58.5C 14.1667,58.5 14.5,58.1667 14.5,57.5C 14.5,57.1667 14.5,56.8333 14.5,56.5C 15.1667,56.5 15.5,56.1667 15.5,55.5C 15.5,55.1667 15.5,54.8333 15.5,54.5C 16.1667,54.5 16.5,54.1667 16.5,53.5C 17.1667,53.5 17.5,53.1667 17.5,52.5C 17.5,52.1667 17.5,51.8333 17.5,51.5C 18.1667,51.5 18.5,51.1667 18.5,50.5C 19.1667,50.5 19.5,50.1667 19.5,49.5C 19.8333,48.8333 20.1667,48.1667 20.5,47.5C 21.1667,47.5 21.5,47.1667 21.5,46.5C 22.1667,46.5 22.5,46.1667 22.5,45.5C 22.5,45.1667 22.5,44.8333 22.5,44.5C 23.1667,44.5 23.5,44.1667 23.5,43.5C 24.1667,43.5 24.5,43.1667 24.5,42.5C 24.8333,41.8333 25.1667,41.1667 25.5,40.5C 26.1667,40.5 26.5,40.1667 26.5,39.5C 27.8333,38.5 29.1667,37.5 30.5,36.5C 32.6968,35.1554 35.0302,33.9888 37.5,33C 42.6911,27.998 48.5244,24.8313 55,23.5C 65.0248,32.2695 74.5248,41.6029 83.5,51.5C 84.154,53.1151 84.654,54.7818 85,56.5C 86.7583,57.4695 87.2583,58.6361 86.5,60C 87.5742,60.7387 88.2409,61.7387 88.5,63C 87.4267,64.4162 87.4267,65.7496 88.5,67C 83.9066,82.1136 78.9066,97.1136 73.5,112C 74.0509,113.398 74.3842,114.732 74.5,116C 73.8333,118.667 73.1667,121.333 72.5,124C 72.1943,128.403 72.1943,132.569 72.5,136.5C 70.0455,152.437 68.0455,168.604 66.5,185C 66.7074,193.674 66.7074,202.507 66.5,211.5C 65.1385,220.983 63.4718,230.65 61.5,240.5C 62.1916,242.335 61.8583,244.168 60.5,246C 60.4205,247.907 60.7539,249.907 61.5,252C 59.6524,263.901 57.1524,275.734 54,287.5C 53.7051,289.931 52.5384,291.764 50.5,293C 50.5,294.667 50.5,296.333 50.5,298C 47.7803,301.055 45.447,304.388 43.5,308C 43.8333,308.333 44.1667,308.667 44.5,309C 41.6063,310.839 38.773,312.673 36,314.5C 34.4974,314.165 33.164,314.165 32,314.5C 27.0902,319.365 22.7568,324.698 19,330.5C 13.4477,345.766 9.4477,361.766 7,378.5C 6.69661,380.888 5.86328,383.055 4.5,385C 4.83333,385.333 5.16667,385.667 5.5,386C 4.25591,386.456 3.42258,385.956 3,384.5C 2.66667,379.833 2.33333,375.167 2,370.5C 1.33333,282.167 1.33333,193.833 2,105.5C 2.23622,103.236 2.73622,101.069 3.5,99C 1.92782,94.95 2.59449,91.2834 5.5,88C 4.59391,86.3005 4.26057,84.4672 4.5,82.5 Z"/></g>
<g><path style="opacity:0.006" fill="#010100" d="M 40.5,25.5 C 39.8333,25.5 39.5,25.8333 39.5,26.5C 36.5,29.8333 33.5,33.1667 30.5,36.5C 29.1667,37.5 27.8333,38.5 26.5,39.5C 25.8333,39.5 25.5,39.8333 25.5,40.5C 24.475,40.1034 24.3083,39.4368 25,38.5C 29.5,34 34,29.5 38.5,25C 39.4368,24.3083 40.1034,24.475 40.5,25.5 Z"/></g>
<g><path style="opacity:1" fill="#fefe5f" d="M 104.5,3.5 C 103.378,4.94727 101.878,5.94727 100,6.5C 99.9214,9.30805 101.088,11.6414 103.5,13.5C 106.656,15.1632 109.989,16.3299 113.5,17C 208.552,31.217 304.219,35.0504 400.5,28.5C 412.209,26.2916 423.875,23.9583 435.5,21.5C 440.753,17.3291 440.753,13.3291 435.5,9.5C 433.278,8.31238 430.945,7.31238 428.5,6.5C 429.568,5.56552 430.901,5.23219 432.5,5.5C 436.698,6.26721 440.698,7.60055 444.5,9.5C 444.5,9.83333 444.5,10.1667 444.5,10.5C 443.833,10.8333 443.167,11.1667 442.5,11.5C 441.883,11.3893 441.383,11.056 441,10.5C 440.768,12.2834 441.268,13.9501 442.5,15.5C 441.941,18.2846 440.608,20.6179 438.5,22.5C 430.175,27.2716 421.175,30.105 411.5,31C 316.11,38.9711 220.777,35.9711 125.5,22C 116.838,20.1118 108.505,17.4452 100.5,14C 94.8859,8.35005 96.2192,4.85005 104.5,3.5 Z"/></g>
<g><path style="opacity:0.006" fill="#010100" d="M 470.5,25.5 C 470.897,24.475 471.563,24.3083 472.5,25C 477,29.5 481.5,34 486,38.5C 486.692,39.4368 486.525,40.1034 485.5,40.5C 485.5,39.8333 485.167,39.5 484.5,39.5C 479.833,35.5 475.5,31.1667 471.5,26.5C 471.5,25.8333 471.167,25.5 470.5,25.5 Z"/></g>
<g><path style="opacity:1" fill="#fffe87" d="M 110.5,0.5 C 134.167,0.5 157.833,0.5 181.5,0.5C 181.5,0.833333 181.5,1.16667 181.5,1.5C 180.167,1.5 178.833,1.5 177.5,1.5C 163.833,1.5 150.167,1.5 136.5,1.5C 128.493,1.33362 120.493,1.50029 112.5,2C 110.833,3.83333 109.167,5.66667 107.5,7.5C 108.032,9.74108 109.365,11.2411 111.5,12C 122.065,14.3163 132.731,15.983 143.5,17C 178.757,20.1915 214.091,22.8582 249.5,25C 287.5,25.6667 325.5,25.6667 363.5,25C 380.412,23.5748 397.412,21.9081 414.5,20C 420.463,17.8458 426.463,16.0124 432.5,14.5C 431.909,11.3864 430.242,8.8864 427.5,7C 427.728,6.60123 428.062,6.43456 428.5,6.5C 430.945,7.31238 433.278,8.31238 435.5,9.5C 435.888,11.6847 436.888,13.518 438.5,15C 436.672,16.6629 435.005,18.4962 433.5,20.5C 408.78,25.3591 383.78,27.8591 358.5,28C 277.397,31.2044 196.73,26.8711 116.5,15C 112.905,14.4156 109.405,13.5823 106,12.5C 105.333,9.83333 105.333,7.16667 106,4.5C 106.995,3.93406 107.828,3.26739 108.5,2.5C 109.5,2.16667 110.167,1.5 110.5,0.5 Z"/></g>
<g><path style="opacity:1" fill="#fffe72" d="M 108.5,2.5 C 107.828,3.26739 106.995,3.93406 106,4.5C 105.333,7.16667 105.333,9.83333 106,12.5C 109.405,13.5823 112.905,14.4156 116.5,15C 196.73,26.8711 277.397,31.2044 358.5,28C 383.78,27.8591 408.78,25.3591 433.5,20.5C 435.005,18.4962 436.672,16.6629 438.5,15C 436.888,13.518 435.888,11.6847 435.5,9.5C 440.753,13.3291 440.753,17.3291 435.5,21.5C 423.875,23.9583 412.209,26.2916 400.5,28.5C 304.219,35.0504 208.552,31.217 113.5,17C 109.989,16.3299 106.656,15.1632 103.5,13.5C 101.088,11.6414 99.9214,9.30805 100,6.5C 101.878,5.94727 103.378,4.94727 104.5,3.5C 105.568,2.56552 106.901,2.23219 108.5,2.5 Z"/></g>
<g><path style="opacity:1" fill="#fffeb3" d="M 426.5,9.5 C 427.922,9.74962 428.922,10.583 429.5,12C 426.874,14.1457 423.874,15.479 420.5,16C 407.268,18.3724 393.934,19.5391 380.5,19.5C 318.473,22.206 256.14,21.206 193.5,16.5C 257.488,18.3332 321.488,18.8332 385.5,18C 395.47,16.8528 405.47,15.8528 415.5,15C 418.893,14.2023 422.226,13.2023 425.5,12C 426.252,11.3292 426.586,10.4959 426.5,9.5 Z"/></g>
<g><path style="opacity:1" fill="#fcfc0e" d="M 466.5,23.5 C 466.833,23.5 467.167,23.5 467.5,23.5C 467.5,24.1667 467.833,24.5 468.5,24.5C 469.167,24.8333 469.833,25.1667 470.5,25.5C 471.167,25.5 471.5,25.8333 471.5,26.5C 475.5,31.1667 479.833,35.5 484.5,39.5C 485.167,39.5 485.5,39.8333 485.5,40.5C 485.833,41.1667 486.167,41.8333 486.5,42.5C 486.5,43.1667 486.833,43.5 487.5,43.5C 487.5,44.1667 487.833,44.5 488.5,44.5C 488.5,44.8333 488.5,45.1667 488.5,45.5C 488.5,46.1667 488.833,46.5 489.5,46.5C 489.5,47.1667 489.833,47.5 490.5,47.5C 490.833,48.1667 491.167,48.8333 491.5,49.5C 491.5,50.1667 491.833,50.5 492.5,50.5C 492.5,51.1667 492.833,51.5 493.5,51.5C 493.5,51.8333 493.5,52.1667 493.5,52.5C 493.5,53.1667 493.833,53.5 494.5,53.5C 494.5,54.1667 494.833,54.5 495.5,54.5C 495.5,54.8333 495.5,55.1667 495.5,55.5C 495.5,56.1667 495.833,56.5 496.5,56.5C 496.5,56.8333 496.5,57.1667 496.5,57.5C 496.5,58.1667 496.833,58.5 497.5,58.5C 497.5,58.8333 497.5,59.1667 497.5,59.5C 497.5,60.1667 497.833,60.5 498.5,60.5C 498.5,60.8333 498.5,61.1667 498.5,61.5C 498.328,62.4916 498.662,63.1583 499.5,63.5C 499.328,64.4916 499.662,65.1583 500.5,65.5C 500.328,66.4916 500.662,67.1583 501.5,67.5C 502.441,69.0495 503.107,70.7162 503.5,72.5C 503.5,74.1667 503.5,75.8333 503.5,77.5C 499.894,69.6919 495.561,62.1919 490.5,55C 487.875,52.5398 484.875,50.7064 481.5,49.5C 480.368,51.6936 479.701,54.027 479.5,56.5C 480.853,67.1564 482.187,77.9898 483.5,89C 480.803,120.827 479.136,152.494 478.5,184C 477.804,188.134 477.137,192.3 476.5,196.5C 476.477,201.97 476.477,207.47 476.5,213C 473.09,246.555 470.757,280.221 469.5,314C 466.609,337.146 464.776,360.312 464,383.5C 461.479,423.355 440.812,448.022 402,457.5C 401.667,457.167 401.333,456.833 401,456.5C 388.58,457.827 376.413,459.161 364.5,460.5C 361.996,460.57 359.663,460.237 357.5,459.5C 353.3,460.137 349.134,460.804 345,461.5C 343.732,461.384 342.398,461.051 341,460.5C 336.667,461.167 332.333,461.833 328,462.5C 326.755,462.539 325.422,462.205 324,461.5C 305.938,462.562 287.938,463.896 270,465.5C 268.026,465.353 266.026,465.019 264,464.5C 261.753,466.155 259.42,466.488 257,465.5C 245.266,466.74 233.766,469.24 222.5,473C 221.333,473.5 220.5,474.333 220,475.5C 219.586,475.043 219.086,474.709 218.5,474.5C 216.831,475.671 215.331,477.004 214,478.5C 205.192,483.684 196.192,488.684 187,493.5C 186.667,493.167 186.333,492.833 186,492.5C 184.068,494.038 181.901,495.205 179.5,496C 168.107,499.468 156.607,502.302 145,504.5C 142.023,503.543 139.523,504.376 137.5,507C 138.253,508.487 139.086,508.654 140,507.5C 144.414,508.303 148.914,508.803 153.5,509C 236.833,509.667 320.167,509.667 403.5,509C 411.617,509.317 419.284,507.817 426.5,504.5C 428.409,505.348 430.409,505.682 432.5,505.5C 432.5,505.833 432.5,506.167 432.5,506.5C 430.901,506.232 429.568,506.566 428.5,507.5C 427.209,507.263 426.209,507.596 425.5,508.5C 423.901,508.232 422.568,508.566 421.5,509.5C 419.901,509.232 418.568,509.566 417.5,510.5C 413.629,510.185 409.962,510.518 406.5,511.5C 305.5,511.5 204.5,511.5 103.5,511.5C 100.375,510.521 97.0419,510.187 93.5,510.5C 93.5,510.167 93.5,509.833 93.5,509.5C 92.5,508.833 91.5,508.167 90.5,507.5C 110.834,503.057 131.168,497.891 151.5,492C 161.225,486.258 167.058,477.758 169,466.5C 171.866,464.269 174.533,461.936 177,459.5C 177.414,459.957 177.914,460.291 178.5,460.5C 188.662,455.904 199.162,453.571 210,453.5C 213.3,452.374 216.634,451.374 220,450.5C 226.604,450.179 233.27,450.179 240,450.5C 243.485,448.664 247.152,448.664 251,450.5C 254.453,450.651 257.786,450.318 261,449.5C 263.4,450.044 265.733,450.711 268,451.5C 287.964,451.3 307.298,451.3 326,451.5C 339.343,450.651 352.676,449.651 366,448.5C 367.398,449.051 368.732,449.384 370,449.5C 431.793,450.228 459.293,420.228 452.5,359.5C 454.35,355.355 454.85,351.021 454,346.5C 452.629,344.959 451.129,343.625 449.5,342.5C 451.138,333.475 452.972,324.475 455,315.5C 460.991,247.344 466.157,178.844 470.5,110C 473.283,96.8428 473.116,83.6761 470,70.5C 466.555,61.8315 463.721,52.9982 461.5,44C 462.532,38.5992 463.865,33.2659 465.5,28C 465.357,25.849 464.357,24.1824 462.5,23C 463.819,22.805 465.153,22.9717 466.5,23.5 Z"/></g>
<g><path style="opacity:0.01" fill="#020200" d="M 24.5,42.5 C 24.5,43.1667 24.1667,43.5 23.5,43.5C 22.8333,43.5 22.5,43.8333 22.5,44.5C 22.1667,44.5 21.8333,44.5 21.5,44.5C 21.6322,41.9931 22.6322,41.3264 24.5,42.5 Z"/></g>
<g><path style="opacity:0.012" fill="#020300" d="M 489.5,44.5 C 489.167,44.5 488.833,44.5 488.5,44.5C 487.833,44.5 487.5,44.1667 487.5,43.5C 486.833,43.5 486.5,43.1667 486.5,42.5C 488.368,41.3264 489.368,41.9931 489.5,44.5 Z"/></g>
<g><path style="opacity:0.011" fill="#050500" d="M 21.5,44.5 C 21.5,45.1667 21.8333,45.5 22.5,45.5C 22.5,46.1667 22.1667,46.5 21.5,46.5C 20.8333,46.5 20.5,46.8333 20.5,47.5C 19.2848,46.221 19.6182,45.221 21.5,44.5 Z"/></g>
<g><path style="opacity:0.011" fill="#050500" d="M 489.5,44.5 C 491.382,45.221 491.715,46.221 490.5,47.5C 489.833,47.5 489.5,47.1667 489.5,46.5C 488.833,46.5 488.5,46.1667 488.5,45.5C 489.167,45.5 489.5,45.1667 489.5,44.5 Z"/></g>
<g><path style="opacity:0.011" fill="#020200" d="M 19.5,49.5 C 19.5,50.1667 19.1667,50.5 18.5,50.5C 17.8333,50.5 17.5,50.8333 17.5,51.5C 17.1667,51.5 16.8333,51.5 16.5,51.5C 16.6322,48.9931 17.6322,48.3264 19.5,49.5 Z"/></g>
<g><path style="opacity:0.012" fill="#020300" d="M 494.5,51.5 C 494.167,51.5 493.833,51.5 493.5,51.5C 492.833,51.5 492.5,51.1667 492.5,50.5C 491.833,50.5 491.5,50.1667 491.5,49.5C 493.368,48.3264 494.368,48.9931 494.5,51.5 Z"/></g>
<g><path style="opacity:1" fill="#fefe4d" d="M 363.5,173.5 C 363.5,166.5 363.5,159.5 363.5,152.5C 364.302,151.048 364.802,149.382 365,147.5C 368.953,157.071 372.62,166.737 376,176.5C 377.743,180.431 380.243,183.764 383.5,186.5C 389.262,188.047 394.929,189.714 400.5,191.5C 401.086,191.291 401.586,190.957 402,190.5C 405.767,191.879 408.767,194.213 411,197.5C 411.333,197.167 411.667,196.833 412,196.5C 413.441,197.87 415.108,198.87 417,199.5C 420.018,198.972 422.851,197.972 425.5,196.5C 431.709,184.406 436.542,171.739 440,158.5C 444.555,139.277 448.555,119.944 452,100.5C 457.292,67.7982 443.458,51.9648 410.5,53C 397.11,55.5178 383.444,58.1844 369.5,61C 358.058,63.0349 347.391,67.0349 337.5,73C 334.23,75.5984 331.73,78.7651 330,82.5C 329.329,81.7476 328.496,81.4142 327.5,81.5C 325.46,79.823 323.46,78.1563 321.5,76.5C 322.496,76.4142 323.329,76.7476 324,77.5C 326.5,74.3333 329.333,71.5 332.5,69C 337.751,66.4722 343.084,64.1389 348.5,62C 370.59,56.1528 393.257,51.9861 416.5,49.5C 440.465,51.4647 453.465,64.4647 455.5,88.5C 451.7,114.598 447.2,140.598 442,166.5C 438.343,182.471 433.676,198.137 428,213.5C 426.355,213.307 424.521,213.14 422.5,213C 418.822,211.05 415.322,208.884 412,206.5C 410.887,207.711 409.72,207.711 408.5,206.5C 401.814,202.069 394.647,198.069 387,194.5C 384.909,195.5 383.243,194.833 382,192.5C 381.667,192.833 381.333,193.167 381,193.5C 372.887,186.606 367.887,177.939 366,167.5C 365.667,169.833 365.333,172.167 365,174.5C 364.617,173.944 364.117,173.611 363.5,173.5 Z"/></g>
<g><path style="opacity:1" fill="#fefe00" d="M 503.5,77.5 C 504.146,83.4489 506.146,88.7822 509.5,93.5C 508.936,154.946 508.436,216.946 508,279.5C 506.235,316.913 504.735,354.746 503.5,393C 503.232,401.602 501.399,410.102 498,418.5C 490.896,434.166 483.229,449.5 475,464.5C 469.254,472.917 462.754,480.75 455.5,488C 450.372,491.297 445.706,495.13 441.5,499.5C 438.077,500.64 434.744,501.974 431.5,503.5C 431.863,504.183 432.196,504.85 432.5,505.5C 430.409,505.682 428.409,505.348 426.5,504.5C 419.284,507.817 411.617,509.317 403.5,509C 320.167,509.667 236.833,509.667 153.5,509C 148.914,508.803 144.414,508.303 140,507.5C 139.086,508.654 138.253,508.487 137.5,507C 139.523,504.376 142.023,503.543 145,504.5C 156.607,502.302 168.107,499.468 179.5,496C 181.901,495.205 184.068,494.038 186,492.5C 186.333,492.833 186.667,493.167 187,493.5C 196.192,488.684 205.192,483.684 214,478.5C 215.331,477.004 216.831,475.671 218.5,474.5C 219.086,474.709 219.586,475.043 220,475.5C 220.5,474.333 221.333,473.5 222.5,473C 233.766,469.24 245.266,466.74 257,465.5C 259.42,466.488 261.753,466.155 264,464.5C 266.026,465.019 268.026,465.353 270,465.5C 287.938,463.896 305.938,462.562 324,461.5C 325.422,462.205 326.755,462.539 328,462.5C 332.333,461.833 336.667,461.167 341,460.5C 342.398,461.051 343.732,461.384 345,461.5C 349.134,460.804 353.3,460.137 357.5,459.5C 359.663,460.237 361.996,460.57 364.5,460.5C 376.413,459.161 388.58,457.827 401,456.5C 401.333,456.833 401.667,457.167 402,457.5C 440.812,448.022 461.479,423.355 464,383.5C 464.776,360.312 466.609,337.146 469.5,314C 470.757,280.221 473.09,246.555 476.5,213C 476.477,207.47 476.477,201.97 476.5,196.5C 477.137,192.3 477.804,188.134 478.5,184C 479.136,152.494 480.803,120.827 483.5,89C 482.187,77.9898 480.853,67.1564 479.5,56.5C 479.701,54.027 480.368,51.6936 481.5,49.5C 484.875,50.7064 487.875,52.5398 490.5,55C 495.561,62.1919 499.894,69.6919 503.5,77.5 Z"/></g>
<g><path style="opacity:0.01" fill="#050500" d="M 16.5,51.5 C 16.5,52.1667 16.8333,52.5 17.5,52.5C 17.5,53.1667 17.1667,53.5 16.5,53.5C 15.8333,53.5 15.5,53.8333 15.5,54.5C 15.1667,54.5 14.8333,54.5 14.5,54.5C 14.427,52.9731 15.0937,51.9731 16.5,51.5 Z"/></g>
<g><path style="opacity:0.01" fill="#050500" d="M 494.5,51.5 C 495.906,51.9731 496.573,52.9731 496.5,54.5C 496.167,54.5 495.833,54.5 495.5,54.5C 494.833,54.5 494.5,54.1667 494.5,53.5C 493.833,53.5 493.5,53.1667 493.5,52.5C 494.167,52.5 494.5,52.1667 494.5,51.5 Z"/></g>
<g><path style="opacity:0.009" fill="#121003" d="M 14.5,54.5 C 14.5,55.1667 14.8333,55.5 15.5,55.5C 15.5,56.1667 15.1667,56.5 14.5,56.5C 13.1667,56.8333 13.1667,57.1667 14.5,57.5C 14.5,58.1667 14.1667,58.5 13.5,58.5C 12.1667,58.8333 12.1667,59.1667 13.5,59.5C 13.6716,60.4916 13.3382,61.1583 12.5,61.5C 12.6716,62.4916 12.3382,63.1583 11.5,63.5C 11.5,62.8333 11.1667,62.5 10.5,62.5C 10.7936,59.2459 12.127,56.5792 14.5,54.5 Z"/></g>
<g><path style="opacity:1" fill="#fefe58" d="M 363.5,152.5 C 361.278,123.722 349.278,100.055 327.5,81.5C 328.496,81.4142 329.329,81.7476 330,82.5C 331.73,78.7651 334.23,75.5984 337.5,73C 347.391,67.0349 358.058,63.0349 369.5,61C 383.444,58.1844 397.11,55.5178 410.5,53C 443.458,51.9648 457.292,67.7982 452,100.5C 448.555,119.944 444.555,139.277 440,158.5C 436.542,171.739 431.709,184.406 425.5,196.5C 422.851,197.972 420.018,198.972 417,199.5C 415.108,198.87 413.441,197.87 412,196.5C 411.667,196.833 411.333,197.167 411,197.5C 408.767,194.213 405.767,191.879 402,190.5C 401.586,190.957 401.086,191.291 400.5,191.5C 394.929,189.714 389.262,188.047 383.5,186.5C 380.243,183.764 377.743,180.431 376,176.5C 372.62,166.737 368.953,157.071 365,147.5C 364.802,149.382 364.302,151.048 363.5,152.5 Z"/></g>
<g><path style="opacity:0.009" fill="#111002" d="M 496.5,54.5 C 500.191,58.1903 501.858,62.5236 501.5,67.5C 500.662,67.1583 500.328,66.4916 500.5,65.5C 499.662,65.1583 499.328,64.4916 499.5,63.5C 498.662,63.1583 498.328,62.4916 498.5,61.5C 499.833,61.1667 499.833,60.8333 498.5,60.5C 497.833,60.5 497.5,60.1667 497.5,59.5C 498.833,59.1667 498.833,58.8333 497.5,58.5C 496.833,58.5 496.5,58.1667 496.5,57.5C 497.833,57.1667 497.833,56.8333 496.5,56.5C 495.833,56.5 495.5,56.1667 495.5,55.5C 496.167,55.5 496.5,55.1667 496.5,54.5 Z"/></g>
<g><path style="opacity:1" fill="#090905" d="M 309.5,69.5 C 313.492,71.83 317.492,74.1633 321.5,76.5C 323.46,78.1563 325.46,79.823 327.5,81.5C 349.278,100.055 361.278,123.722 363.5,152.5C 363.5,159.5 363.5,166.5 363.5,173.5C 362.884,186.836 362.218,200.169 361.5,213.5C 364.993,214.764 368.493,214.764 372,213.5C 378.3,210.788 384.8,208.788 391.5,207.5C 395.327,207.608 398.993,208.442 402.5,210C 410.402,213.223 414.236,219.057 414,227.5C 410.189,235.807 404.022,241.474 395.5,244.5C 393.214,244.595 391.214,245.262 389.5,246.5C 380.465,248.267 372.632,252.267 366,258.5C 363.865,263.051 364.032,267.385 366.5,271.5C 368.132,277.43 370.798,282.764 374.5,287.5C 391.283,316.938 416.283,335.272 449.5,342.5C 451.129,343.625 452.629,344.959 454,346.5C 454.85,351.021 454.35,355.355 452.5,359.5C 441.062,367.757 428.395,373.09 414.5,375.5C 409.471,375.698 404.638,376.698 400,378.5C 398.745,384.934 397.078,391.268 395,397.5C 393.833,400 392,401.833 389.5,403C 377.499,402.502 365.499,401.669 353.5,400.5C 343.177,399.798 333.51,401.964 324.5,407C 317.086,411.362 310.086,416.196 303.5,421.5C 274.617,441.17 244.284,443.67 212.5,429C 205.665,424.978 198.999,420.811 192.5,416.5C 185.01,409.753 176.343,405.087 166.5,402.5C 165.391,401.71 164.058,401.21 162.5,401C 153.657,400.176 144.99,400.343 136.5,401.5C 128.902,403.05 121.235,403.55 113.5,403C 112.069,402.535 110.903,401.701 110,400.5C 108.704,397.429 107.538,394.429 106.5,391.5C 106.29,386.991 105.29,382.658 103.5,378.5C 87.7902,376.323 72.7902,371.823 58.5,365C 44.284,354.436 45.284,345.769 61.5,339C 78.3138,336.593 92.6471,329.426 104.5,317.5C 108.167,314.5 111.5,311.167 114.5,307.5C 126.298,295.08 134.632,280.58 139.5,264C 139.203,259.691 137.203,256.357 133.5,254C 129.376,251.603 125.043,249.769 120.5,248.5C 115.332,247.166 110.332,245.332 105.5,243C 96.8657,239.372 91.5324,233.039 89.5,224C 92.3253,214.059 98.992,208.559 109.5,207.5C 116.719,208.962 123.719,211.129 130.5,214C 134.524,214.497 138.524,214.331 142.5,213.5C 140.83,190.86 140.33,168.193 141,145.5C 141.876,138.535 143.376,131.702 145.5,125C 161.675,86.6655 190.342,64.1655 231.5,57.5C 258.728,53.9276 284.728,57.9276 309.5,69.5 Z"/></g>
<g><path style="opacity:1" fill="#fffe60" d="M 415.5,56.5 C 437.004,56.015 448.671,66.3483 450.5,87.5C 447.907,99.4552 445.407,111.455 443,123.5C 439.803,139.602 433.97,154.602 425.5,168.5C 423,170.5 420.166,171.833 417,172.5C 414.57,170.766 412.07,170.1 409.5,170.5C 404.201,165.042 398.201,161.542 391.5,160C 388.292,158.557 385.126,156.391 382,153.5C 374.549,137.427 366.549,121.76 358,106.5C 351.369,101.736 346.536,95.5695 343.5,88C 344.642,81.2317 348.309,76.2317 354.5,73C 360.964,70.1023 367.63,67.769 374.5,66C 388.408,63.2466 402.074,60.0799 415.5,56.5 Z"/></g>
<g><path style="opacity:1" fill="#fffe68" d="M 414.5,58.5 C 435.13,57.1332 446.797,66.6332 449.5,87C 445.547,101.753 441.713,116.586 438,131.5C 435.148,140.869 430.981,149.536 425.5,157.5C 420,161.62 414.667,161.453 409.5,157C 407.126,154.961 405.126,152.628 403.5,150C 393.656,145.383 385.156,139.55 378,132.5C 372.631,119.727 365.298,108.394 356,98.5C 347.932,86.7373 350.766,78.2373 364.5,73C 368.833,71.3333 373.167,69.6667 377.5,68C 390.142,65.4611 402.475,62.2944 414.5,58.5 Z"/></g>
<g><path style="opacity:0.01" fill="#171503" d="M 10.5,62.5 C 11.1667,62.5 11.5,62.8333 11.5,63.5C 11.6716,64.4916 11.3382,65.1583 10.5,65.5C 10.5,64.8333 10.1667,64.5 9.5,64.5C 9.32842,63.5084 9.66175,62.8417 10.5,62.5 Z"/></g>
<g><path style="opacity:1" fill="#fffe75" d="M 414.5,62.5 C 437.16,61.3255 447.326,71.9922 445,94.5C 439.911,104.019 435.911,114.019 433,124.5C 431.082,128.004 428.916,131.337 426.5,134.5C 424.979,135.937 423.145,136.604 421,136.5C 418.994,135.927 417.16,135.927 415.5,136.5C 413.81,133.976 411.643,131.976 409,130.5C 406.868,126.09 404.368,121.923 401.5,118C 397.508,115.008 393.842,111.674 390.5,108C 382.382,105.859 375.549,101.692 370,95.5C 368.688,93.0448 367.522,90.5448 366.5,88C 368.438,82.3966 372.104,78.3966 377.5,76C 390.004,71.6362 402.338,67.1362 414.5,62.5 Z"/></g>
<g><path style="opacity:0.008" fill="#151302" d="M 9.5,64.5 C 10.1667,64.5 10.5,64.8333 10.5,65.5C 10.6716,66.4916 10.3382,67.1583 9.5,67.5C 8.37505,66.3478 8.37505,65.3478 9.5,64.5 Z"/></g>
<g><path style="opacity:1" fill="#fffe81" d="M 416.5,65.5 C 434.29,65.1228 442.79,73.7895 442,91.5C 440.665,98.1879 437.332,103.521 432,107.5C 425.431,121.662 418.098,121.996 410,108.5C 407.926,106.548 405.759,104.715 403.5,103C 398.175,100.673 393.175,97.8395 388.5,94.5C 382.986,88.8617 383.32,83.695 389.5,79C 399.158,75.4325 408.158,70.9325 416.5,65.5 Z"/></g>
<g><path style="opacity:1" fill="#fefefe" d="M 235.5,66.5 C 266.916,63.0724 295.249,70.5724 320.5,89C 345.181,110.017 356.181,136.684 353.5,169C 353.136,185.189 352.636,201.355 352,217.5C 355.847,221.424 360.514,223.424 366,223.5C 373.466,222.842 380.633,221.008 387.5,218C 394.333,216.277 399.833,218.111 404,223.5C 404.667,224.5 404.667,225.5 404,226.5C 402.167,228.333 400.333,230.167 398.5,232C 390.075,235.941 381.408,239.274 372.5,242C 359.661,246.869 353.827,256.036 355,269.5C 371.069,312.077 400.902,339.411 444.5,351.5C 443.352,353.149 442.019,354.649 440.5,356C 434.947,358.61 429.281,360.943 423.5,363C 413.381,364.907 403.381,367.241 393.5,370C 389.849,377.407 387.516,385.241 386.5,393.5C 375.695,392.266 364.862,391.266 354,390.5C 340.4,389.367 327.9,392.534 316.5,400C 303.847,409.984 290.18,418.318 275.5,425C 250.131,432.592 226.798,428.592 205.5,413C 195.632,404.562 184.632,397.895 172.5,393C 164.767,391.229 156.934,390.395 149,390.5C 138.434,390.986 127.934,391.986 117.5,393.5C 116.336,387.853 115.169,382.186 114,376.5C 112.939,373.438 111.106,370.938 108.5,369C 92.7067,367.303 77.7067,362.969 63.5,356C 61.981,354.649 60.6477,353.149 59.5,351.5C 102.433,339.736 131.933,313.069 148,271.5C 150.86,256.742 145.027,246.909 130.5,242C 121.779,239.648 113.446,236.315 105.5,232C 97.1205,224.208 98.7872,219.375 110.5,217.5C 115.231,218.694 119.898,220.194 124.5,222C 131.509,223.946 138.509,223.946 145.5,222C 148.102,221.117 150.269,219.617 152,217.5C 150.668,193.534 150.334,169.534 151,145.5C 158.004,110.484 178.171,86.3178 211.5,73C 219.58,70.6263 227.58,68.4596 235.5,66.5 Z"/></g>
<g><path style="opacity:1" fill="#fffe96" d="M 420.5,69.5 C 430.565,70.2303 436.565,75.5636 438.5,85.5C 437.119,100.084 429.452,105.917 415.5,103C 404.624,97.3083 401.457,88.8083 406,77.5C 409.853,72.8448 414.686,70.1781 420.5,69.5 Z"/></g>
<g><path style="opacity:0.957" fill="#8f8e0b" d="M 7.5,72.5 C 7.2766,76.1621 6.2766,79.4954 4.5,82.5C 4.7234,78.8379 5.7234,75.5046 7.5,72.5 Z"/></g>
<g><path style="opacity:0.998" fill="#c9c90d" d="M 503.5,72.5 C 505.589,76.5015 506.922,80.8348 507.5,85.5C 507.328,86.4916 507.662,87.1583 508.5,87.5C 508.328,88.4916 508.662,89.1583 509.5,89.5C 509.5,90.8333 509.5,92.1667 509.5,93.5C 506.146,88.7822 504.146,83.4489 503.5,77.5C 503.5,75.8333 503.5,74.1667 503.5,72.5 Z"/></g>
<g><path style="opacity:0.009" fill="#0a0900" d="M 3.5,85.5 C 3.67158,86.4916 3.33825,87.1583 2.5,87.5C 1.52692,85.9317 1.36026,84.265 2,82.5C 2.23209,83.7375 2.73209,84.7375 3.5,85.5 Z"/></g>
<g><path style="opacity:0.01" fill="#090800" d="M 510.5,89.5 C 510.167,89.5 509.833,89.5 509.5,89.5C 509.754,87.5992 509.42,86.9326 508.5,87.5C 507.662,87.1583 507.328,86.4916 507.5,85.5C 508.268,84.7375 508.768,83.7375 509,82.5C 509.977,84.74 510.477,87.0733 510.5,89.5 Z"/></g>
<g><path style="opacity:0.01" fill="#020200" d="M 510.5,89.5 C 510.833,89.5 511.167,89.5 511.5,89.5C 511.5,90.8333 511.5,92.1667 511.5,93.5C 511.167,93.5 510.833,93.5 510.5,93.5C 510.5,92.1667 510.5,90.8333 510.5,89.5 Z"/></g>
<g><path style="opacity:1" fill="#e2e025" d="M 389.5,246.5 C 389.611,247.117 389.944,247.617 390.5,248C 384.976,251.193 380.809,255.693 378,261.5C 374.562,265.441 370.729,268.775 366.5,271.5C 364.032,267.385 363.865,263.051 366,258.5C 372.632,252.267 380.465,248.267 389.5,246.5 Z"/></g>
<g><path style="opacity:1" fill="#edeb15" d="M 120.5,248.5 C 125.043,249.769 129.376,251.603 133.5,254C 137.203,256.357 139.203,259.691 139.5,264C 134.632,280.58 126.298,295.08 114.5,307.5C 114.077,306.735 113.743,305.902 113.5,305C 116.009,301.814 117.842,298.314 119,294.5C 119.333,291.833 119.667,289.167 120,286.5C 123.112,279.782 125.612,272.949 127.5,266C 124.496,260.483 122.162,254.65 120.5,248.5 Z"/></g>
<g><path style="opacity:1" fill="#eae904" d="M 509.5,93.5 C 509.833,93.5 510.167,93.5 510.5,93.5C 510.187,97.0419 510.521,100.375 511.5,103.5C 511.5,204.833 511.5,306.167 511.5,407.5C 510.662,407.842 510.328,408.508 510.5,409.5C 509.523,412.287 509.19,415.287 509.5,418.5C 509.5,419.5 509.5,420.5 509.5,421.5C 508.662,421.842 508.328,422.508 508.5,423.5C 508.167,423.5 507.833,423.5 507.5,423.5C 505.439,422.318 503.939,422.985 503,425.5C 494.832,447.852 482.332,467.519 465.5,484.5C 463.097,484.393 461.264,485.393 460,487.5C 458.274,489.591 457.107,491.924 456.5,494.5C 456.5,494.833 456.5,495.167 456.5,495.5C 455.833,495.5 455.5,495.833 455.5,496.5C 454.508,496.328 453.842,496.662 453.5,497.5C 452.508,497.328 451.842,497.662 451.5,498.5C 450.508,498.328 449.842,498.662 449.5,499.5C 448.508,499.328 447.842,499.662 447.5,500.5C 445.447,500.402 443.78,501.069 442.5,502.5C 441.508,502.328 440.842,502.662 440.5,503.5C 439.508,503.328 438.842,503.662 438.5,504.5C 437.209,504.263 436.209,504.596 435.5,505.5C 434.5,505.5 433.5,505.5 432.5,505.5C 432.196,504.85 431.863,504.183 431.5,503.5C 434.744,501.974 438.077,500.64 441.5,499.5C 445.706,495.13 450.372,491.297 455.5,488C 462.754,480.75 469.254,472.917 475,464.5C 483.229,449.5 490.896,434.166 498,418.5C 501.399,410.102 503.232,401.602 503.5,393C 504.735,354.746 506.235,316.913 508,279.5C 508.436,216.946 508.936,154.946 509.5,93.5 Z"/></g>
<g><path style="opacity:1" fill="#fefe19" d="M 452.5,359.5 C 459.293,420.228 431.793,450.228 370,449.5C 368.732,449.384 367.398,449.051 366,448.5C 352.676,449.651 339.343,450.651 326,451.5C 307.298,451.3 287.964,451.3 268,451.5C 265.733,450.711 263.4,450.044 261,449.5C 257.786,450.318 254.453,450.651 251,450.5C 247.152,448.664 243.485,448.664 240,450.5C 233.27,450.179 226.604,450.179 220,450.5C 216.634,451.374 213.3,452.374 210,453.5C 199.162,453.571 188.662,455.904 178.5,460.5C 177.914,460.291 177.414,459.957 177,459.5C 174.533,461.936 171.866,464.269 169,466.5C 167.058,477.758 161.225,486.258 151.5,492C 131.168,497.891 110.834,503.057 90.5,507.5C 89.1667,507.5 87.8333,507.5 86.5,507.5C 84.901,507.768 83.5676,507.434 82.5,506.5C 80.3206,505.323 77.9872,504.323 75.5,503.5C 76.209,502.596 77.209,502.263 78.5,502.5C 86.8591,503.035 95.1925,502.202 103.5,500C 110.822,495.917 118.488,492.583 126.5,490C 134.3,484.301 135.466,477.467 130,469.5C 123.506,462.181 118.006,454.681 113.5,447C 114.917,443.751 116.917,440.917 119.5,438.5C 121.101,439.165 122.601,439.499 124,439.5C 125,438.833 126,438.167 127,437.5C 128.796,438.767 130.629,438.767 132.5,437.5C 133.192,438.025 133.692,438.692 134,439.5C 136.897,438.534 139.563,437.868 142,437.5C 146.11,438.741 150.11,439.408 154,439.5C 162.51,438.596 170.843,437.596 179,436.5C 181.942,436.546 184.942,436.88 188,437.5C 193.18,435.567 198.014,433.733 202.5,432C 201.367,426.224 198.034,422.39 192.5,420.5C 191.218,419.042 191.218,417.708 192.5,416.5C 198.999,420.811 205.665,424.978 212.5,429C 244.284,443.67 274.617,441.17 303.5,421.5C 304.497,421.47 305.164,421.97 305.5,423C 303.967,424.698 302.634,426.531 301.5,428.5C 301.608,429.442 301.941,430.275 302.5,431C 308.034,432.781 313.534,434.614 319,436.5C 347.71,435.435 376.544,433.269 405.5,430C 429.984,420.153 439.65,402.653 434.5,377.5C 431.821,377.327 429.487,376.327 427.5,374.5C 423.979,377.397 419.979,378.563 415.5,378C 417.878,377.489 420.212,376.822 422.5,376C 419.657,376.257 416.99,376.09 414.5,375.5C 428.395,373.09 441.062,367.757 452.5,359.5 Z"/></g>
<g><path style="opacity:1" fill="#fdfd2c" d="M 303.5,421.5 C 310.086,416.196 317.086,411.362 324.5,407C 333.51,401.964 343.177,399.798 353.5,400.5C 365.499,401.669 377.499,402.502 389.5,403C 392,401.833 393.833,400 395,397.5C 397.078,391.268 398.745,384.934 400,378.5C 404.638,376.698 409.471,375.698 414.5,375.5C 416.99,376.09 419.657,376.257 422.5,376C 420.212,376.822 417.878,377.489 415.5,378C 419.979,378.563 423.979,377.397 427.5,374.5C 429.487,376.327 431.821,377.327 434.5,377.5C 439.65,402.653 429.984,420.153 405.5,430C 376.544,433.269 347.71,435.435 319,436.5C 313.534,434.614 308.034,432.781 302.5,431C 301.941,430.275 301.608,429.442 301.5,428.5C 302.634,426.531 303.967,424.698 305.5,423C 305.164,421.97 304.497,421.47 303.5,421.5 Z"/></g>
<g><path style="opacity:1" fill="#fefe24" d="M 106.5,391.5 C 107.538,394.429 108.704,397.429 110,400.5C 110.903,401.701 112.069,402.535 113.5,403C 121.235,403.55 128.902,403.05 136.5,401.5C 144.507,401.334 152.507,401.5 160.5,402C 159.112,402.889 159.278,403.389 161,403.5C 162.766,402.767 164.599,402.433 166.5,402.5C 176.343,405.087 185.01,409.753 192.5,416.5C 191.218,417.708 191.218,419.042 192.5,420.5C 198.034,422.39 201.367,426.224 202.5,432C 198.014,433.733 193.18,435.567 188,437.5C 184.942,436.88 181.942,436.546 179,436.5C 170.843,437.596 162.51,438.596 154,439.5C 150.11,439.408 146.11,438.741 142,437.5C 139.563,437.868 136.897,438.534 134,439.5C 133.692,438.692 133.192,438.025 132.5,437.5C 130.629,438.767 128.796,438.767 127,437.5C 126,438.167 125,438.833 124,439.5C 122.601,439.499 121.101,439.165 119.5,438.5C 116.917,440.917 114.917,443.751 113.5,447C 118.006,454.681 123.506,462.181 130,469.5C 135.466,477.467 134.3,484.301 126.5,490C 118.488,492.583 110.822,495.917 103.5,500C 95.1925,502.202 86.8591,503.035 78.5,502.5C 76.1667,501.833 73.8333,501.167 71.5,500.5C 109.335,500.885 117.169,485.552 95,454.5C 88.924,449.095 83.5907,443.095 79,436.5C 71.224,430.692 63.724,424.525 56.5,418C 52.6641,415.916 48.9974,413.583 45.5,411C 40.0875,408.397 34.4208,406.563 28.5,405.5C 21.523,406.307 16.6897,409.974 14,416.5C 12.0427,423.843 10.5427,431.176 9.5,438.5C 10.0173,429.172 10.5173,419.839 11,410.5C 12.7519,407.328 14.7519,404.328 17,401.5C 18.139,395.357 21.3057,390.524 26.5,387C 29.3315,386.788 31.9982,386.621 34.5,386.5C 41.7185,389.989 48.0519,395.323 53.5,402.5C 63.3989,408.077 73.8989,411.743 85,413.5C 88.6489,412.242 89.9822,409.909 89,406.5C 89.6667,407.833 90.3333,407.833 91,406.5C 91.7826,404.567 91.2826,403.067 89.5,402C 91.6568,399.678 93.9901,397.511 96.5,395.5C 97.548,396.383 98.7147,397.05 100,397.5C 101.416,396.427 102.75,396.427 104,397.5C 106.016,396.045 106.849,394.045 106.5,391.5 Z"/></g>
<g><path style="opacity:1" fill="#cccc17" d="M 136.5,401.5 C 144.99,400.343 153.657,400.176 162.5,401C 164.058,401.21 165.391,401.71 166.5,402.5C 164.599,402.433 162.766,402.767 161,403.5C 159.278,403.389 159.112,402.889 160.5,402C 152.507,401.5 144.507,401.334 136.5,401.5 Z"/></g>
<g><path style="opacity:1" fill="#fefe3a" d="M 71.5,500.5 C 66.7013,498.267 62.0346,495.767 57.5,493C 60.9358,494.085 64.6025,494.585 68.5,494.5C 69.1667,495.167 69.8333,495.833 70.5,496.5C 73.1459,497.164 75.9792,497.498 79,497.5C 96.4867,498.021 102.487,490.021 97,473.5C 82.3732,448.872 62.5399,429.705 37.5,416C 32.9922,414.049 28.3255,413.382 23.5,414C 13.8347,420.634 10.668,429.8 14,441.5C 15.4287,444.95 15.5953,448.283 14.5,451.5C 14.1667,451.5 13.8333,451.5 13.5,451.5C 13.6716,450.508 13.3382,449.842 12.5,449.5C 12.6716,448.508 12.3382,447.842 11.5,447.5C 11.6716,446.508 11.3382,445.842 10.5,445.5C 10.6716,444.508 10.3382,443.842 9.5,443.5C 8.5592,441.95 7.89254,440.284 7.5,438.5C 8.16667,438.5 8.83333,438.5 9.5,438.5C 10.5427,431.176 12.0427,423.843 14,416.5C 16.6897,409.974 21.523,406.307 28.5,405.5C 34.4208,406.563 40.0875,408.397 45.5,411C 48.9974,413.583 52.6641,415.916 56.5,418C 63.724,424.525 71.224,430.692 79,436.5C 83.5907,443.095 88.924,449.095 95,454.5C 117.169,485.552 109.335,500.885 71.5,500.5 Z"/></g>
<g><path style="opacity:1" fill="#fefe4b" d="M 70.5,496.5 C 79.6337,498.212 87.467,495.879 94,489.5C 94.7956,483.995 94.129,478.662 92,473.5C 86.1104,464.222 79.6104,455.389 72.5,447C 66.5,441.667 60.5,436.333 54.5,431C 46.2413,425.204 37.2413,421.037 27.5,418.5C 21.377,419.119 17.5437,422.452 16,428.5C 15.3333,432.5 15.3333,436.5 16,440.5C 16.2401,442.852 17.0735,444.852 18.5,446.5C 18.5516,449.346 19.5516,451.68 21.5,453.5C 21.8511,455.869 22.0178,458.203 22,460.5C 20.9887,459.663 19.8221,459.33 18.5,459.5C 18.1667,459.5 17.8333,459.5 17.5,459.5C 17.5,459.167 17.5,458.833 17.5,458.5C 17.5,457.833 17.1667,457.5 16.5,457.5C 16.5,456.833 16.1667,456.5 15.5,456.5C 15.5,456.167 15.5,455.833 15.5,455.5C 15.6716,454.508 15.3382,453.842 14.5,453.5C 14.5,452.833 14.5,452.167 14.5,451.5C 15.5953,448.283 15.4287,444.95 14,441.5C 10.668,429.8 13.8347,420.634 23.5,414C 28.3255,413.382 32.9922,414.049 37.5,416C 62.5399,429.705 82.3732,448.872 97,473.5C 102.487,490.021 96.4867,498.021 79,497.5C 75.9792,497.498 73.1459,497.164 70.5,496.5 Z"/></g>
<g><path style="opacity:0.013" fill="#1f1e06" d="M 510.5,409.5 C 510.194,412.385 510.527,415.052 511.5,417.5C 511.5,418.833 511.5,420.167 511.5,421.5C 511.167,421.5 510.833,421.5 510.5,421.5C 510.737,420.209 510.404,419.209 509.5,418.5C 509.19,415.287 509.523,412.287 510.5,409.5 Z"/></g>
<g><path style="opacity:0.012" fill="#010200" d="M 509.5,421.5 C 509.833,421.5 510.167,421.5 510.5,421.5C 510.737,422.791 510.404,423.791 509.5,424.5C 509.5,423.5 509.5,422.5 509.5,421.5 Z"/></g>
<g><path style="opacity:0.01" fill="#121002" d="M 1.5,421.5 C 2.16667,421.5 2.5,421.833 2.5,422.5C 3.40397,423.209 3.73731,424.209 3.5,425.5C 2.73209,426.263 2.23209,427.263 2,428.5C 1.57786,426.645 1.07786,424.811 0.5,423C 0.569925,422.235 0.903259,421.735 1.5,421.5 Z"/></g>
<g><path style="opacity:0.009" fill="#080800" d="M 507.5,423.5 C 507.833,423.5 508.167,423.5 508.5,423.5C 508.5,424.167 508.833,424.5 509.5,424.5C 509.768,426.099 509.434,427.432 508.5,428.5C 508.737,427.209 508.404,426.209 507.5,425.5C 507.5,424.833 507.5,424.167 507.5,423.5 Z"/></g>
<g><path style="opacity:1" fill="#fffe72" d="M 68.5,494.5 C 66.5242,492.989 64.1909,492.156 61.5,492C 59.9069,491.051 58.5736,489.885 57.5,488.5C 81.1628,496.012 86.9961,489.012 75,467.5C 64.7704,456.935 54.2704,446.769 43.5,437C 23.4507,425.609 16.1174,431.109 21.5,453.5C 19.5516,451.68 18.5516,449.346 18.5,446.5C 13.5127,426.308 20.5127,419.808 39.5,427C 56.1609,436.99 70.3275,449.823 82,465.5C 85.3831,471.482 87.8831,477.816 89.5,484.5C 89.1806,487.645 88.1806,490.478 86.5,493C 80.5933,494.361 74.5933,494.861 68.5,494.5 Z"/></g>
<g><path style="opacity:0.009" fill="#010100" d="M 507.5,428.5 C 507.833,428.5 508.167,428.5 508.5,428.5C 508.768,430.099 508.434,431.432 507.5,432.5C 507.5,431.167 507.5,429.833 507.5,428.5 Z"/></g>
<g><path style="opacity:1" fill="#fffe5a" d="M 70.5,496.5 C 69.8333,495.833 69.1667,495.167 68.5,494.5C 74.5933,494.861 80.5933,494.361 86.5,493C 88.1806,490.478 89.1806,487.645 89.5,484.5C 87.8831,477.816 85.3831,471.482 82,465.5C 70.3275,449.823 56.1609,436.99 39.5,427C 20.5127,419.808 13.5127,426.308 18.5,446.5C 17.0735,444.852 16.2401,442.852 16,440.5C 15.3333,436.5 15.3333,432.5 16,428.5C 17.5437,422.452 21.377,419.119 27.5,418.5C 37.2413,421.037 46.2413,425.204 54.5,431C 60.5,436.333 66.5,441.667 72.5,447C 79.6104,455.389 86.1104,464.222 92,473.5C 94.129,478.662 94.7956,483.995 94,489.5C 87.467,495.879 79.6337,498.212 70.5,496.5 Z"/></g>
<g><path style="opacity:0.012" fill="#010100" d="M 506.5,432.5 C 506.833,432.5 507.167,432.5 507.5,432.5C 507.737,433.791 507.404,434.791 506.5,435.5C 506.5,434.5 506.5,433.5 506.5,432.5 Z"/></g>
<g><path style="opacity:0.009" fill="#010100" d="M 505.5,435.5 C 505.833,435.5 506.167,435.5 506.5,435.5C 506.737,436.791 506.404,437.791 505.5,438.5C 505.5,437.5 505.5,436.5 505.5,435.5 Z"/></g>
<g><path style="opacity:0.01" fill="#010200" d="M 504.5,438.5 C 504.833,438.5 505.167,438.5 505.5,438.5C 505.672,439.492 505.338,440.158 504.5,440.5C 504.5,439.833 504.5,439.167 504.5,438.5 Z"/></g>
<g><path style="opacity:0.01" fill="#010200" d="M 503.5,440.5 C 503.833,440.5 504.167,440.5 504.5,440.5C 504.672,441.492 504.338,442.158 503.5,442.5C 503.5,441.833 503.5,441.167 503.5,440.5 Z"/></g>
<g><path style="opacity:0.01" fill="#020200" d="M 502.5,442.5 C 502.833,442.5 503.167,442.5 503.5,442.5C 503.672,443.492 503.338,444.158 502.5,444.5C 502.5,443.833 502.5,443.167 502.5,442.5 Z"/></g>
<g><path style="opacity:0.008" fill="#161404" d="M 9.5,443.5 C 10.3382,443.842 10.6716,444.508 10.5,445.5C 9.83333,445.5 9.5,445.833 9.5,446.5C 8.37505,445.652 8.37505,444.652 9.5,443.5 Z"/></g>
<g><path style="opacity:1" fill="#fffe8e" d="M 57.5,488.5 C 56.1266,488.657 54.7932,488.49 53.5,488C 43.89,483.731 36.0566,477.231 30,468.5C 27.7132,465.928 26.5465,462.928 26.5,459.5C 24.4842,457.751 22.8175,455.751 21.5,453.5C 16.1174,431.109 23.4507,425.609 43.5,437C 54.2704,446.769 64.7704,456.935 75,467.5C 86.9961,489.012 81.1628,496.012 57.5,488.5 Z"/></g>
<g><path style="opacity:1" fill="#fffea8" d="M 56.5,485.5 C 60.5,485.5 64.5,485.5 68.5,485.5C 69.0138,483.488 69.1805,481.488 69,479.5C 66.3331,474.162 63.1664,469.162 59.5,464.5C 54.3481,459.848 49.3481,455.015 44.5,450C 40.2033,447.018 35.5367,444.851 30.5,443.5C 29.2284,443.57 28.0617,443.903 27,444.5C 26.1215,449.287 26.4548,453.953 28,458.5C 35.8379,469.174 45.0046,478.174 55.5,485.5C 51.8534,484.684 48.5201,483.184 45.5,481C 38.1857,474.53 31.8524,467.363 26.5,459.5C 25.41,454.79 24.41,450.124 23.5,445.5C 22.6791,438.49 25.6791,435.99 32.5,438C 40.2951,441.46 47.2951,446.126 53.5,452C 58.0012,456.949 62.5012,461.782 67,466.5C 70.8903,471.614 73.7237,477.281 75.5,483.5C 75.1243,485.383 74.1243,486.883 72.5,488C 68.5,488.667 64.5,488.667 60.5,488C 58.6803,487.8 57.347,486.966 56.5,485.5 Z"/></g>
<g><path style="opacity:0.01" fill="#010100" d="M 501.5,444.5 C 501.833,444.5 502.167,444.5 502.5,444.5C 502.672,445.492 502.338,446.158 501.5,446.5C 501.5,445.833 501.5,445.167 501.5,444.5 Z"/></g>
<g><path style="opacity:0.012" fill="#181606" d="M 10.5,445.5 C 11.3382,445.842 11.6716,446.508 11.5,447.5C 10.8333,447.5 10.5,447.833 10.5,448.5C 9.66175,448.158 9.32842,447.492 9.5,446.5C 10.1667,446.5 10.5,446.167 10.5,445.5 Z"/></g>
<g><path style="opacity:0.012" fill="#151303" d="M 500.5,445.5 C 500.5,446.167 500.833,446.5 501.5,446.5C 500.873,450.42 499.207,453.753 496.5,456.5C 496.5,455.833 496.167,455.5 495.5,455.5C 495.328,454.508 495.662,453.842 496.5,453.5C 496.5,452.833 496.5,452.167 496.5,451.5C 496.833,451.5 497.167,451.5 497.5,451.5C 497.328,450.508 497.662,449.842 498.5,449.5C 498.328,448.508 498.662,447.842 499.5,447.5C 499.328,446.508 499.662,445.842 500.5,445.5 Z"/></g>
<g><path style="opacity:0.009" fill="#161506" d="M 11.5,447.5 C 12.3382,447.842 12.6716,448.508 12.5,449.5C 13.3382,449.842 13.6716,450.508 13.5,451.5C 13.8333,451.5 14.1667,451.5 14.5,451.5C 14.5,452.167 14.5,452.833 14.5,453.5C 15.3382,453.842 15.6716,454.508 15.5,455.5C 14.8333,455.5 14.5,455.833 14.5,456.5C 12.127,454.421 10.7936,451.754 10.5,448.5C 11.1667,448.5 11.5,448.167 11.5,447.5 Z"/></g>
<g><path style="opacity:1" fill="#fffebe" d="M 56.5,485.5 C 56.1667,485.5 55.8333,485.5 55.5,485.5C 45.0046,478.174 35.8379,469.174 28,458.5C 26.4548,453.953 26.1215,449.287 27,444.5C 28.0617,443.903 29.2284,443.57 30.5,443.5C 35.5367,444.851 40.2033,447.018 44.5,450C 49.3481,455.015 54.3481,459.848 59.5,464.5C 63.1664,469.162 66.3331,474.162 69,479.5C 69.1805,481.488 69.0138,483.488 68.5,485.5C 64.5,485.5 60.5,485.5 56.5,485.5 Z"/></g>
<g><path style="opacity:0.01" fill="#050501" d="M 14.5,456.5 C 14.8333,456.5 15.1667,456.5 15.5,456.5C 16.1667,456.5 16.5,456.833 16.5,457.5C 17.1667,457.5 17.5,457.833 17.5,458.5C 16.8333,458.5 16.5,458.833 16.5,459.5C 15.0937,459.027 14.427,458.027 14.5,456.5 Z"/></g>
<g><path style="opacity:0.01" fill="#030300" d="M 495.5,456.5 C 495.833,456.5 496.167,456.5 496.5,456.5C 496.573,458.027 495.906,459.027 494.5,459.5C 494.5,458.833 494.167,458.5 493.5,458.5C 493.5,457.833 493.833,457.5 494.5,457.5C 495.167,457.5 495.5,457.167 495.5,456.5 Z"/></g>
<g><path style="opacity:0.011" fill="#020200" d="M 16.5,459.5 C 16.8333,459.5 17.1667,459.5 17.5,459.5C 17.5,460.167 17.8333,460.5 18.5,460.5C 19.1667,460.5 19.5,460.833 19.5,461.5C 17.6322,462.674 16.6322,462.007 16.5,459.5 Z"/></g>
<g><path style="opacity:0.011" fill="#010200" d="M 493.5,459.5 C 493.833,459.5 494.167,459.5 494.5,459.5C 494.573,461.027 493.906,462.027 492.5,462.5C 492.5,461.833 492.167,461.5 491.5,461.5C 491.5,460.833 491.833,460.5 492.5,460.5C 493.167,460.5 493.5,460.167 493.5,459.5 Z"/></g>
<g><path style="opacity:0.016" fill="#010200" d="M 491.5,462.5 C 491.833,462.5 492.167,462.5 492.5,462.5C 492.315,463.17 491.981,463.17 491.5,462.5 Z"/></g>
<g><path style="opacity:0.011" fill="#050500" d="M 20.5,463.5 C 20.5,464.167 20.8333,464.5 21.5,464.5C 22.1667,464.5 22.5,464.833 22.5,465.5C 21.8333,465.5 21.5,465.833 21.5,466.5C 19.6182,465.779 19.2848,464.779 20.5,463.5 Z"/></g>
<g><path style="opacity:0.011" fill="#020200" d="M 490.5,463.5 C 490.833,463.5 491.167,463.5 491.5,463.5C 491.573,465.027 490.906,466.027 489.5,466.5C 489.5,465.833 489.167,465.5 488.5,465.5C 488.5,464.833 488.833,464.5 489.5,464.5C 490.167,464.5 490.5,464.167 490.5,463.5 Z"/></g>
<g><path style="opacity:0.011" fill="#020200" d="M 21.5,466.5 C 21.8333,466.5 22.1667,466.5 22.5,466.5C 22.5,467.167 22.8333,467.5 23.5,467.5C 24.1667,467.5 24.5,467.833 24.5,468.5C 22.6322,469.674 21.6322,469.007 21.5,466.5 Z"/></g>
<g><path style="opacity:0.01" fill="#010200" d="M 488.5,466.5 C 488.833,466.5 489.167,466.5 489.5,466.5C 489.573,468.027 488.906,469.027 487.5,469.5C 487.5,468.833 487.167,468.5 486.5,468.5C 486.5,467.833 486.833,467.5 487.5,467.5C 488.167,467.5 488.5,467.167 488.5,466.5 Z"/></g>
<g><path style="opacity:0.016" fill="#010200" d="M 486.5,469.5 C 486.833,469.5 487.167,469.5 487.5,469.5C 487.315,470.17 486.981,470.17 486.5,469.5 Z"/></g>
<g><path style="opacity:0.006" fill="#010100" d="M 25.5,470.5 C 25.5,471.167 25.8333,471.5 26.5,471.5C 27.1667,471.5 27.5,471.833 27.5,472.5C 27.5,473.167 27.8333,473.5 28.5,473.5C 28.5,474.167 28.8333,474.5 29.5,474.5C 33.1667,477.5 36.5,480.833 39.5,484.5C 39.5,485.167 39.8333,485.5 40.5,485.5C 40.1034,486.525 39.4368,486.692 38.5,486C 34,481.5 29.5,477 25,472.5C 24.3083,471.563 24.475,470.897 25.5,470.5 Z"/></g>
<g><path style="opacity:0.006" fill="#000000" d="M 485.5,470.5 C 485.833,470.5 486.167,470.5 486.5,470.5C 482.167,476.833 476.833,482.167 470.5,486.5C 470.5,486.167 470.5,485.833 470.5,485.5C 471.167,485.5 471.5,485.167 471.5,484.5C 475.5,479.833 479.833,475.5 484.5,471.5C 485.167,471.5 485.5,471.167 485.5,470.5 Z"/></g>
<g><path style="opacity:1" fill="#e9e949" d="M 21.5,453.5 C 22.8175,455.751 24.4842,457.751 26.5,459.5C 26.5465,462.928 27.7132,465.928 30,468.5C 36.0566,477.231 43.89,483.731 53.5,488C 54.7932,488.49 56.1266,488.657 57.5,488.5C 58.5736,489.885 59.9069,491.051 61.5,492C 64.1909,492.156 66.5242,492.989 68.5,494.5C 64.6025,494.585 60.9358,494.085 57.5,493C 62.0346,495.767 66.7013,498.267 71.5,500.5C 73.8333,501.167 76.1667,501.833 78.5,502.5C 77.209,502.263 76.209,502.596 75.5,503.5C 74.5,503.5 73.5,503.5 72.5,503.5C 65.1168,500.93 58.1168,497.597 51.5,493.5C 51.5,492.833 51.1667,492.5 50.5,492.5C 50.5,491.833 50.1667,491.5 49.5,491.5C 47.9991,490.248 46.3325,489.248 44.5,488.5C 44.5,487.833 44.1667,487.5 43.5,487.5C 43.5,486.833 43.1667,486.5 42.5,486.5C 41.8333,486.167 41.1667,485.833 40.5,485.5C 39.8333,485.5 39.5,485.167 39.5,484.5C 36.5,480.833 33.1667,477.5 29.5,474.5C 28.8333,474.5 28.5,474.167 28.5,473.5C 27.8333,473.5 27.5,473.167 27.5,472.5C 27.5,471.833 27.1667,471.5 26.5,471.5C 25.8333,471.5 25.5,471.167 25.5,470.5C 25.1667,469.833 24.8333,469.167 24.5,468.5C 24.5,467.833 24.1667,467.5 23.5,467.5C 22.8333,467.5 22.5,467.167 22.5,466.5C 22.5,466.167 22.5,465.833 22.5,465.5C 22.5,464.833 22.1667,464.5 21.5,464.5C 20.8333,464.5 20.5,464.167 20.5,463.5C 20.1667,462.833 19.8333,462.167 19.5,461.5C 19.5,460.833 19.1667,460.5 18.5,460.5C 18.5,460.167 18.5,459.833 18.5,459.5C 19.8221,459.33 20.9887,459.663 22,460.5C 22.0178,458.203 21.8511,455.869 21.5,453.5 Z"/></g>
<g><path style="opacity:1" fill="#e1e003" d="M 507.5,423.5 C 507.5,424.167 507.5,424.833 507.5,425.5C 507.5,426.5 507.5,427.5 507.5,428.5C 506.566,429.568 506.232,430.901 506.5,432.5C 505.596,433.209 505.263,434.209 505.5,435.5C 504.596,436.209 504.263,437.209 504.5,438.5C 503.662,438.842 503.328,439.508 503.5,440.5C 502.662,440.842 502.328,441.508 502.5,442.5C 501.662,442.842 501.328,443.508 501.5,444.5C 500.833,444.5 500.5,444.833 500.5,445.5C 499.662,445.842 499.328,446.508 499.5,447.5C 498.662,447.842 498.328,448.508 498.5,449.5C 497.662,449.842 497.328,450.508 497.5,451.5C 497.167,451.5 496.833,451.5 496.5,451.5C 489.355,461.767 480.855,471.767 471,481.5C 470.517,482.448 470.351,483.448 470.5,484.5C 469.778,484.082 469.278,483.416 469,482.5C 468.667,483.5 468.333,484.5 468,485.5C 467.049,485.116 466.216,484.783 465.5,484.5C 482.332,467.519 494.832,447.852 503,425.5C 503.939,422.985 505.439,422.318 507.5,423.5 Z"/></g>
<g><path style="opacity:1" fill="#bcba0c" d="M 496.5,451.5 C 496.5,452.167 496.5,452.833 496.5,453.5C 495.662,453.842 495.328,454.508 495.5,455.5C 495.5,455.833 495.5,456.167 495.5,456.5C 494.833,456.5 494.5,456.833 494.5,457.5C 493.833,457.5 493.5,457.833 493.5,458.5C 493.5,458.833 493.5,459.167 493.5,459.5C 492.833,459.5 492.5,459.833 492.5,460.5C 491.833,460.5 491.5,460.833 491.5,461.5C 491.5,461.833 491.5,462.167 491.5,462.5C 490.833,462.5 490.5,462.833 490.5,463.5C 489.833,463.5 489.5,463.833 489.5,464.5C 488.833,464.5 488.5,464.833 488.5,465.5C 488.5,465.833 488.5,466.167 488.5,466.5C 487.833,466.5 487.5,466.833 487.5,467.5C 486.833,467.5 486.5,467.833 486.5,468.5C 486.5,468.833 486.5,469.167 486.5,469.5C 485.833,469.5 485.5,469.833 485.5,470.5C 484.833,470.5 484.5,470.833 484.5,471.5C 479.833,475.5 475.5,479.833 471.5,484.5C 471.167,484.5 470.833,484.5 470.5,484.5C 470.351,483.448 470.517,482.448 471,481.5C 480.855,471.767 489.355,461.767 496.5,451.5 Z"/></g>
<g><path style="opacity:1" fill="#c3c10d" d="M 470.5,484.5 C 470.5,484.833 470.5,485.167 470.5,485.5C 469.833,485.5 469.5,485.833 469.5,486.5C 468.833,486.5 468.5,486.833 468.5,487.5C 467.508,487.328 466.842,487.662 466.5,488.5C 465.833,488.5 465.5,488.833 465.5,489.5C 464.508,489.328 463.842,489.662 463.5,490.5C 462.833,490.5 462.5,490.833 462.5,491.5C 461.833,491.5 461.5,491.833 461.5,492.5C 460.508,492.328 459.842,492.662 459.5,493.5C 458.833,493.5 458.5,493.833 458.5,494.5C 457.833,494.5 457.167,494.5 456.5,494.5C 457.107,491.924 458.274,489.591 460,487.5C 461.264,485.393 463.097,484.393 465.5,484.5C 466.216,484.783 467.049,485.116 468,485.5C 468.333,484.5 468.667,483.5 469,482.5C 469.278,483.416 469.778,484.082 470.5,484.5 Z"/></g>
<g><path style="opacity:0.009" fill="#020200" d="M 42.5,486.5 C 43.1667,486.5 43.5,486.833 43.5,487.5C 44.1667,487.5 44.5,487.833 44.5,488.5C 44.1034,489.525 43.4368,489.692 42.5,489C 41.4019,488.23 41.4019,487.397 42.5,486.5 Z"/></g>
<g><path style="opacity:0.016" fill="#010200" d="M 469.5,486.5 C 469.833,486.5 470.167,486.5 470.5,486.5C 470.315,487.17 469.981,487.17 469.5,486.5 Z"/></g>
<g><path style="opacity:0.008" fill="#010200" d="M 468.5,487.5 C 468.833,487.5 469.167,487.5 469.5,487.5C 469.315,488.17 468.981,488.17 468.5,487.5 Z"/></g>
<g><path style="opacity:0.01" fill="#000100" d="M 466.5,489.5 C 466.5,489.167 466.5,488.833 466.5,488.5C 467.167,488.5 467.833,488.5 468.5,488.5C 468.158,489.338 467.492,489.672 466.5,489.5 Z"/></g>
<g><path style="opacity:0.012" fill="#020300" d="M 465.5,489.5 C 465.833,489.5 466.167,489.5 466.5,489.5C 466.315,490.17 465.981,490.17 465.5,489.5 Z"/></g>
<g><path style="opacity:0.008" fill="#010100" d="M 463.5,491.5 C 463.5,491.167 463.5,490.833 463.5,490.5C 464.167,490.5 464.833,490.5 465.5,490.5C 465.158,491.338 464.492,491.672 463.5,491.5 Z"/></g>
<g><path style="opacity:0.009" fill="#020200" d="M 49.5,491.5 C 50.1667,491.5 50.5,491.833 50.5,492.5C 51.1667,492.5 51.5,492.833 51.5,493.5C 51.1034,494.525 50.4368,494.692 49.5,494C 48.4019,493.23 48.4019,492.397 49.5,491.5 Z"/></g>
<g><path style="opacity:0.016" fill="#010200" d="M 462.5,491.5 C 462.833,491.5 463.167,491.5 463.5,491.5C 463.315,492.17 462.981,492.17 462.5,491.5 Z"/></g>
<g><path style="opacity:0.008" fill="#010200" d="M 461.5,492.5 C 461.833,492.5 462.167,492.5 462.5,492.5C 462.315,493.17 461.981,493.17 461.5,492.5 Z"/></g>
<g><path style="opacity:0.01" fill="#000100" d="M 459.5,494.5 C 459.5,494.167 459.5,493.833 459.5,493.5C 460.167,493.5 460.833,493.5 461.5,493.5C 461.158,494.338 460.492,494.672 459.5,494.5 Z"/></g>
<g><path style="opacity:0.012" fill="#020300" d="M 458.5,494.5 C 458.833,494.5 459.167,494.5 459.5,494.5C 459.315,495.17 458.981,495.17 458.5,494.5 Z"/></g>
<g><path style="opacity:0.006" fill="#010100" d="M 456.5,496.5 C 456.5,496.167 456.5,495.833 456.5,495.5C 457.167,495.5 457.833,495.5 458.5,495.5C 458.158,496.338 457.492,496.672 456.5,496.5 Z"/></g>
<g><path style="opacity:0.012" fill="#020300" d="M 455.5,496.5 C 455.833,496.5 456.167,496.5 456.5,496.5C 456.315,497.17 455.981,497.17 455.5,496.5 Z"/></g>
<g><path style="opacity:0.01" fill="#010100" d="M 453.5,498.5 C 453.5,498.167 453.5,497.833 453.5,497.5C 454.167,497.5 454.833,497.5 455.5,497.5C 455.158,498.338 454.492,498.672 453.5,498.5 Z"/></g>
<g><path style="opacity:0.01" fill="#010100" d="M 451.5,499.5 C 451.5,499.167 451.5,498.833 451.5,498.5C 452.167,498.5 452.833,498.5 453.5,498.5C 453.158,499.338 452.492,499.672 451.5,499.5 Z"/></g>
<g><path style="opacity:0.008" fill="#010200" d="M 449.5,500.5 C 449.5,500.167 449.5,499.833 449.5,499.5C 450.167,499.5 450.833,499.5 451.5,499.5C 451.158,500.338 450.492,500.672 449.5,500.5 Z"/></g>
<g><path style="opacity:0.008" fill="#010100" d="M 447.5,500.5 C 448.167,500.5 448.833,500.5 449.5,500.5C 448.833,501.833 448.167,501.833 447.5,500.5 Z"/></g>
<g><path style="opacity:0.012" fill="#020300" d="M 445.5,501.5 C 446.833,502.167 446.833,502.167 445.5,501.5 Z"/></g>
<g><path style="opacity:0.008" fill="#010200" d="M 442.5,503.5 C 442.5,503.167 442.5,502.833 442.5,502.5C 445.167,502.833 445.167,503.167 442.5,503.5 Z"/></g>
<g><path style="opacity:0.949" fill="#8b8b12" d="M 72.5,503.5 C 73.5,503.5 74.5,503.5 75.5,503.5C 77.9872,504.323 80.3206,505.323 82.5,506.5C 78.8379,506.277 75.5046,505.277 72.5,503.5 Z"/></g>
<g><path style="opacity:0.01" fill="#020200" d="M 440.5,504.5 C 440.5,504.167 440.5,503.833 440.5,503.5C 441.167,503.5 441.833,503.5 442.5,503.5C 442.158,504.338 441.492,504.672 440.5,504.5 Z"/></g>
<g><path style="opacity:0.01" fill="#010200" d="M 438.5,505.5 C 438.5,505.167 438.5,504.833 438.5,504.5C 439.167,504.5 439.833,504.5 440.5,504.5C 440.158,505.338 439.492,505.672 438.5,505.5 Z"/></g>
<g><path style="opacity:0.009" fill="#020200" d="M 435.5,506.5 C 435.5,506.167 435.5,505.833 435.5,505.5C 436.5,505.5 437.5,505.5 438.5,505.5C 437.791,506.404 436.791,506.737 435.5,506.5 Z"/></g>
<g><path style="opacity:0.01" fill="#010200" d="M 432.5,507.5 C 432.5,507.167 432.5,506.833 432.5,506.5C 433.5,506.5 434.5,506.5 435.5,506.5C 434.791,507.404 433.791,507.737 432.5,507.5 Z"/></g>
<g><path style="opacity:0.902" fill="#8f8f0e" d="M 86.5,507.5 C 87.8333,507.5 89.1667,507.5 90.5,507.5C 91.5,508.167 92.5,508.833 93.5,509.5C 90.8478,509.59 88.5145,508.924 86.5,507.5 Z"/></g>
<g><path style="opacity:0.009" fill="#020200" d="M 428.5,508.5 C 428.5,508.167 428.5,507.833 428.5,507.5C 429.833,507.5 431.167,507.5 432.5,507.5C 431.432,508.434 430.099,508.768 428.5,508.5 Z"/></g>
<g><path style="opacity:0.01" fill="#010200" d="M 425.5,509.5 C 425.5,509.167 425.5,508.833 425.5,508.5C 426.5,508.5 427.5,508.5 428.5,508.5C 427.791,509.404 426.791,509.737 425.5,509.5 Z"/></g>
<g><path style="opacity:0.009" fill="#020200" d="M 421.5,510.5 C 421.5,510.167 421.5,509.833 421.5,509.5C 422.833,509.5 424.167,509.5 425.5,509.5C 424.432,510.434 423.099,510.768 421.5,510.5 Z"/></g>
<g><path style="opacity:0.009" fill="#020200" d="M 89.5,511.5 C 90.5676,510.566 91.901,510.232 93.5,510.5C 93.5,510.833 93.5,511.167 93.5,511.5C 92.1667,511.5 90.8333,511.5 89.5,511.5 Z"/></g>
<g><path style="opacity:0.009" fill="#020200" d="M 417.5,511.5 C 417.5,511.167 417.5,510.833 417.5,510.5C 418.833,510.5 420.167,510.5 421.5,510.5C 421.5,510.833 421.5,511.167 421.5,511.5C 420.167,511.5 418.833,511.5 417.5,511.5 Z"/></g>
</svg>
