<?xml version="1.0" encoding="UTF-8"?>
<svg version="1.1" xmlns="http://www.w3.org/2000/svg" width="512" height="512">
<path d="M0 0 C0.92892059 0.00215515 1.85784119 0.0043103 2.81491089 0.00653076 C16.20527413 0.05639961 29.1909301 0.42741361 42.3125 3.3125 C43.75254395 3.61051514 43.75254395 3.61051514 45.22167969 3.91455078 C67.40507181 8.557829 88.1629112 15.95699838 108.3125 26.3125 C108.92464355 26.62622559 109.53678711 26.93995117 110.16748047 27.26318359 C138.11217188 41.83720926 164.35238312 64.1382666 183.3125 89.3125 C183.73160645 89.8605127 184.15071289 90.40852539 184.58251953 90.97314453 C216.95201279 133.39195226 234.84867302 184.91784667 234.625 238.375 C234.62483887 239.17122772 234.62467773 239.96745544 234.62451172 240.78781128 C234.60635899 253.75939616 233.73771789 266.43028799 231.58789062 279.24243164 C231.22458485 281.6252934 231.22458485 281.6252934 231.3125 285.3125 C233.2226347 286.80926592 233.2226347 286.80926592 235.75 288 C247.2289274 294.52469357 255.23231257 305.05087626 259.39843369 317.57772636 C260.32710816 321.37218734 260.56406885 324.59917242 260.56646729 328.49856567 C260.56958727 329.18705562 260.57270725 329.87554556 260.57592177 330.58489883 C260.58384758 332.87325743 260.57759959 335.16134684 260.57128906 337.44970703 C260.57400129 339.09777989 260.57756352 340.74585154 260.58190918 342.3939209 C260.59100648 346.85654008 260.58750028 351.31906651 260.58115101 355.78168726 C260.57607895 360.45585024 260.58078566 365.1300054 260.58392334 369.8041687 C260.58755874 377.65054751 260.58277429 385.49688863 260.57324219 393.34326172 C260.56235087 402.41318945 260.56588984 411.48302732 260.576895 420.55295289 C260.58597094 428.34504755 260.58725187 436.13711516 260.58201766 443.9292134 C260.57890063 448.5811211 260.57848146 453.23298654 260.58509064 457.88489151 C260.59086819 462.25649475 260.58685969 466.62798204 260.57530212 470.99957275 C260.57265806 472.6035836 260.57341631 474.20760421 260.57782745 475.81161118 C260.5832942 478.00133966 260.57643539 480.19069677 260.56646729 482.38040161 C260.56533621 484.21818522 260.56533621 484.21818522 260.56418228 486.09309578 C260.3125 489.3125 260.3125 489.3125 258.3125 494.3125 C174.8225 494.3125 91.3325 494.3125 5.3125 494.3125 C1.9375 486.4375 1.9375 486.4375 1.625 482.375 C1.55925781 481.60285156 1.49351562 480.83070313 1.42578125 480.03515625 C1.36970703 479.18244141 1.36970703 479.18244141 1.3125 478.3125 C0.2915625 478.34730469 -0.729375 478.38210938 -1.78125 478.41796875 C-44.22437895 479.39692864 -86.95468897 465.81616755 -122.6875 443.3125 C-124.28658203 442.31089844 -124.28658203 442.31089844 -125.91796875 441.2890625 C-139.73369738 432.34625269 -151.8724036 421.71568136 -163.6875 410.3125 C-164.62851563 409.41273438 -165.56953125 408.51296875 -166.5390625 407.5859375 C-180.29337341 394.17229064 -192.26250305 378.05201237 -201.6875 361.3125 C-202.16445312 360.47025879 -202.64140625 359.62801758 -203.1328125 358.76025391 C-215.49398645 336.6677001 -224.71801249 313.17863743 -229.6875 288.3125 C-229.88069824 287.40000488 -230.07389648 286.48750977 -230.27294922 285.54736328 C-239.57349803 240.16827737 -234.65552612 189.91931642 -216.6875 147.3125 C-216.39262695 146.60222656 -216.09775391 145.89195312 -215.79394531 145.16015625 C-205.18458484 119.78564437 -190.45937389 96.52964488 -171.62109375 76.45703125 C-169.65316437 74.46616313 -169.65316437 74.46616313 -168.6875 72.3125 C-168.0275 72.3125 -167.3675 72.3125 -166.6875 72.3125 C-166.47480469 71.7659375 -166.26210937 71.219375 -166.04296875 70.65625 C-164.20786517 67.48316024 -161.69329241 65.24322624 -159 62.8125 C-158.42620605 62.29059082 -157.85241211 61.76868164 -157.26123047 61.23095703 C-146.12933905 51.22095389 -134.38265764 42.2442949 -121.6875 34.3125 C-120.98705566 33.8705127 -120.28661133 33.42852539 -119.56494141 32.97314453 C-97.5450111 19.21618208 -73.27695852 10.19512643 -48 4.5625 C-46.66569946 4.26412231 -46.66569946 4.26412231 -45.30444336 3.9597168 C-30.1833995 0.76211603 -15.40212443 -0.06436555 0 0 Z " fill="#010101" transform="translate(251.6875,17.6875)"/>
<path d="M0 0 C17.16 0 34.32 0 52 0 C52.33 4.62 52.66 9.24 53 14 C53.56650746 16.95140271 54.12594151 19.6020255 55 22.4375 C55.32266846 23.49553833 55.32266846 23.49553833 55.65185547 24.57495117 C61.59796389 42.71971411 75.05567878 58.54140958 91.85546875 67.52734375 C102.43762027 72.56298827 111.49502418 73.26964787 123 73 C123 77.62 123 82.24 123 87 C127.95 87 132.9 87 138 87 C138 104.16 138 121.32 138 139 C115.63043478 139 115.63043478 139 105 136 C104.02160156 135.74476563 103.04320312 135.48953125 102.03515625 135.2265625 C95.88373798 133.42655017 90.39345482 130.78484523 84.8125 127.6875 C84.17135254 127.33284668 83.53020508 126.97819336 82.86962891 126.61279297 C77.41900583 123.47489278 73.08862378 119.95781849 68 116 C67.67 149.66 67.34 183.32 67 218 C75.94480469 217.95359375 84.88960937 217.9071875 94.10546875 217.859375 C100.51178805 217.83632233 106.91807597 217.81582012 113.32441044 217.79898453 C121.61179397 217.77686773 129.89901546 217.74884322 138.1862793 217.69824219 C144.75041985 217.65818169 151.3144378 217.63252186 157.87869722 217.62364602 C161.34956036 217.61846347 164.82007298 217.60641605 168.29082298 217.57707977 C172.17986646 217.5444792 176.06857734 217.5440528 179.95776367 217.54589844 C181.08921814 217.53151733 182.22067261 217.51713623 183.38641357 217.50231934 C195.65853702 217.56491379 205.88258195 221.16390672 216 228 C218.67642489 230.18490007 218.67642489 230.18490007 221 230 C221.12503906 229.19175781 221.25007813 228.38351562 221.37890625 227.55078125 C222.10565596 223.39596685 222.99489371 219.2978241 223.9375 215.1875 C224.10701172 214.41212891 224.27652344 213.63675781 224.45117188 212.83789062 C224.90262431 210.87587489 225.44441651 208.93510776 226 207 C226.66 206.67 227.32 206.34 228 206 C241.04143765 211.67019028 249.08197803 222.5395125 255 235 C256.61866697 239.8670689 257.25081788 244.06573139 257.25396729 249.18606567 C257.25708727 249.87455562 257.26020725 250.56304556 257.26342177 251.27239883 C257.27134758 253.56075743 257.26509959 255.84884684 257.25878906 258.13720703 C257.26150129 259.78527989 257.26506352 261.43335154 257.26940918 263.0814209 C257.27850648 267.54404008 257.27500028 272.00656651 257.26865101 276.46918726 C257.26357895 281.14335024 257.26828566 285.8175054 257.27142334 290.4916687 C257.27505874 298.33804751 257.27027429 306.18438863 257.26074219 314.03076172 C257.24985087 323.10068945 257.25338984 332.17052732 257.264395 341.24045289 C257.27347094 349.03254755 257.27475187 356.82461516 257.26951766 364.6167134 C257.26640063 369.2686211 257.26598146 373.92048654 257.27259064 378.57239151 C257.27836819 382.94399475 257.27435969 387.31548204 257.26280212 391.68707275 C257.26015806 393.2910836 257.26091631 394.89510421 257.26532745 396.49911118 C257.2707942 398.68883966 257.26393539 400.87819677 257.25396729 403.06790161 C257.25283621 404.90568522 257.25283621 404.90568522 257.25168228 406.78059578 C257 410 257 410 255 415 C171.51 415 88.02 415 2 415 C-1.375 407.125 -1.375 407.125 -1.6875 403.0625 C-1.75324219 402.29035156 -1.81898438 401.51820313 -1.88671875 400.72265625 C-1.94279297 399.86994141 -1.94279297 399.86994141 -2 399 C-1.44650879 398.9498877 -0.89301758 398.89977539 -0.32275391 398.84814453 C13.04033434 397.72421149 13.04033434 397.72421149 26.22265625 395.3671875 C28 395 28 395 31 395 C30.73445312 394.41734375 30.46890625 393.8346875 30.1953125 393.234375 C27.66057836 387.35083152 26.26922562 381.81232789 25.39453125 375.46875 C25.12753323 373.00468108 25.12753323 373.00468108 24 371 C23.87962039 368.96839528 23.82260878 366.9329256 23.79467773 364.89794922 C23.77473251 363.61677216 23.75478729 362.33559509 23.73423767 361.01559448 C23.71725331 359.61196006 23.70037451 358.20832437 23.68359375 356.8046875 C23.6630246 355.37264403 23.64202814 353.94060663 23.62062073 352.50857544 C23.56539597 348.73733437 23.51598853 344.96603848 23.46777344 341.19470215 C23.41756133 337.34719964 23.36187376 333.49977687 23.30664062 329.65234375 C23.19905413 322.10163 23.09761029 314.55085 23 307 C20.43342107 308.02072522 17.87921938 309.05221986 15.34375 310.1484375 C-6.41321485 319.53262289 -30.86521833 324.24516684 -54 317 C-55.0003125 316.70996094 -56.000625 316.41992188 -57.03125 316.12109375 C-72.9608563 311.21493923 -85.35500851 302.47631825 -97.5 291.24609375 C-100.10790607 288.90305314 -102.81224741 286.73596351 -105.5625 284.5625 C-115.23438373 276.67514693 -121.7972952 267.77311887 -128 257 C-128.4846875 256.2059375 -128.969375 255.411875 -129.46875 254.59375 C-141.00457524 235.1798002 -143.17998876 209.32609201 -138.03515625 187.57421875 C-133.14302199 170.68250988 -125.827087 156.21341222 -114 143 C-113.46117187 142.37867188 -112.92234375 141.75734375 -112.3671875 141.1171875 C-97.62619681 125.19099152 -74.32770713 113.76575382 -52.66455078 112.9074707 C-50.21296197 112.86676713 -47.7643741 112.86338892 -45.3125 112.875 C-44.48427734 112.87113281 -43.65605469 112.86726563 -42.80273438 112.86328125 C-41.99771484 112.86457031 -41.19269531 112.86585938 -40.36328125 112.8671875 C-39.64438721 112.86831543 -38.92549316 112.86944336 -38.18481445 112.87060547 C-36 113 -36 113 -31 114 C-31 131.49 -31 148.98 -31 167 C-38.92 167 -46.84 167 -55 167 C-68.03733622 172.21493449 -77.8711443 178.79271006 -83.875 191.8125 C-88.4436561 202.53825222 -88.92634131 215.13720688 -84.875 226.1875 C-80.10133769 236.73769484 -71.93833798 246.46510364 -61 251 C-48.18931523 255.2157147 -37.62783839 254.91485329 -25 250 C-14.77798204 244.50653456 -6.96426956 235.95741925 -3 225 C-1.39369046 218.50941044 -0.70554106 212.30670094 -0.7215271 205.63522339 C-0.7128385 204.30546138 -0.7128385 204.30546138 -0.70397437 202.94883549 C-0.68710772 200.00865834 -0.68410945 197.06863941 -0.68115234 194.12841797 C-0.67184495 192.00873943 -0.66167508 189.88906454 -0.65071106 187.76939392 C-0.62348852 182.03670555 -0.60828463 176.30404165 -0.59528303 170.57130575 C-0.57961855 164.57217711 -0.55283892 158.57309818 -0.5272522 152.57400513 C-0.48052311 141.22353939 -0.44375059 129.87306423 -0.41057932 118.52255166 C-0.37231644 105.59629546 -0.32291719 92.67008927 -0.27259517 79.74387527 C-0.16936259 53.16261589 -0.08154394 26.58133537 0 0 Z " fill="#FA3F57" transform="translate(255,97)"/>
<path d="M0 0 C17.16 0 34.32 0 52 0 C52.33 4.62 52.66 9.24 53 14 C53.56650746 16.95140271 54.12594151 19.6020255 55 22.4375 C55.32266846 23.49553833 55.32266846 23.49553833 55.65185547 24.57495117 C61.59796389 42.71971411 75.05567878 58.54140958 91.85546875 67.52734375 C102.82399553 72.7468496 110.20459642 73 123 73 C123 90.49 123 107.98 123 126 C97.33698944 126 75.70715049 121.3455556 55.29541016 105.36328125 C54.48963531 104.73333252 53.68386047 104.10338379 52.85366821 103.4543457 C52.2419577 102.97441162 51.63024719 102.49447754 51 102 C51.01244421 102.93483687 51.01244421 102.93483687 51.02513981 103.88855934 C51.22401085 119.0620508 51.37288296 134.23514182 51.46630955 149.40960121 C51.51269294 156.74799055 51.57591119 164.08550935 51.67895508 171.42333984 C51.76874004 177.82004867 51.82674169 184.21612707 51.84679645 190.6134485 C51.85851835 194.00033207 51.88600099 197.38541241 51.95157051 200.77171707 C52.01684049 204.55544536 52.02590495 208.33542899 52.02172852 212.11962891 C52.054086 213.23884735 52.08644348 214.3580658 52.11978149 215.51119995 C52.03060972 222.96940118 52.03060972 222.96940118 49.01516533 225.98481369 C46.73638164 227.50395499 44.433506 228.75088745 42 230 C34.3724733 236.96894904 28.60417408 245.95603581 27.81494141 256.46386719 C27.7495546 258.28606811 27.6860657 260.10833791 27.62426758 261.93066406 C27.00075697 276.39023041 27.00075697 276.39023041 21.8125 281.75 C19.09375 283.90625 19.09375 283.90625 16 286 C14.84180431 286.86197514 13.68564067 287.72668565 12.53125 288.59375 C4.23517153 294.6289677 -4.35128814 298.63078623 -14 302 C-14.84304687 302.31582031 -15.68609375 302.63164062 -16.5546875 302.95703125 C-34.15244037 309.31351494 -53.36791868 308.69851107 -71 303 C-71.6305127 302.80212891 -72.26102539 302.60425781 -72.91064453 302.40039062 C-79.47246022 300.32239826 -85.61232553 298.11320107 -91.25390625 294.11328125 C-93.01746572 292.89629559 -93.01746572 292.89629559 -95.30078125 292.1875 C-113.54178873 284.16251263 -126.94004292 262.17356629 -134.40625 244.7109375 C-135.4324495 241.82669496 -136.25672203 238.96917919 -137 236 C-137.29519531 234.91332031 -137.59039062 233.82664062 -137.89453125 232.70703125 C-144.14095515 206.55191382 -138.7734908 180.10066778 -125.140625 157.2578125 C-121.79440705 152.16521074 -118.06058708 147.53655333 -114 143 C-113.46117187 142.37867188 -112.92234375 141.75734375 -112.3671875 141.1171875 C-97.62619681 125.19099152 -74.32770713 113.76575382 -52.66455078 112.9074707 C-50.21296197 112.86676713 -47.7643741 112.86338892 -45.3125 112.875 C-44.48427734 112.87113281 -43.65605469 112.86726563 -42.80273438 112.86328125 C-41.99771484 112.86457031 -41.19269531 112.86585938 -40.36328125 112.8671875 C-39.64438721 112.86831543 -38.92549316 112.86944336 -38.18481445 112.87060547 C-36 113 -36 113 -31 114 C-31 131.49 -31 148.98 -31 167 C-38.92 167 -46.84 167 -55 167 C-68.03733622 172.21493449 -77.8711443 178.79271006 -83.875 191.8125 C-88.4436561 202.53825222 -88.92634131 215.13720688 -84.875 226.1875 C-80.10133769 236.73769484 -71.93833798 246.46510364 -61 251 C-48.18931523 255.2157147 -37.62783839 254.91485329 -25 250 C-14.77798204 244.50653456 -6.96426956 235.95741925 -3 225 C-1.39369046 218.50941044 -0.70554106 212.30670094 -0.7215271 205.63522339 C-0.7128385 204.30546138 -0.7128385 204.30546138 -0.70397437 202.94883549 C-0.68710772 200.00865834 -0.68410945 197.06863941 -0.68115234 194.12841797 C-0.67184495 192.00873943 -0.66167508 189.88906454 -0.65071106 187.76939392 C-0.62348852 182.03670555 -0.60828463 176.30404165 -0.59528303 170.57130575 C-0.57961855 164.57217711 -0.55283892 158.57309818 -0.5272522 152.57400513 C-0.48052311 141.22353939 -0.44375059 129.87306423 -0.41057932 118.52255166 C-0.37231644 105.59629546 -0.32291719 92.67008927 -0.27259517 79.74387527 C-0.16936259 53.16261589 -0.08154394 26.58133537 0 0 Z " fill="#FDFDFE" transform="translate(255,97)"/>
<path d="M0 0 C13.74605847 5.55691726 21.8478347 15.89649107 28 29 C29.61666586 33.86762985 30.25081782 38.06563774 30.25396729 43.18606567 C30.25708727 43.87455562 30.26020725 44.56304556 30.26342177 45.27239883 C30.27134758 47.56075743 30.26509959 49.84884684 30.25878906 52.13720703 C30.26150129 53.78527989 30.26506352 55.43335154 30.26940918 57.0814209 C30.27850648 61.54404008 30.27500028 66.00656651 30.26865101 70.46918726 C30.26357895 75.14335024 30.26828566 79.8175054 30.27142334 84.4916687 C30.27505874 92.33804751 30.27027429 100.18438863 30.26074219 108.03076172 C30.24985087 117.10068945 30.25338984 126.17052732 30.264395 135.24045289 C30.27347094 143.03254755 30.27475187 150.82461516 30.26951766 158.6167134 C30.26640063 163.2686211 30.26598146 167.92048654 30.27259064 172.57239151 C30.27836819 176.94399475 30.27435969 181.31548204 30.26280212 185.68707275 C30.26015806 187.2910836 30.26091631 188.89510421 30.26532745 190.49911118 C30.2707942 192.68883966 30.26393539 194.87819677 30.25396729 197.06790161 C30.25283621 198.90568522 30.25283621 198.90568522 30.25168228 200.78059578 C30 204 30 204 28 209 C-55.49 209 -138.98 209 -225 209 C-228.375 201.125 -228.375 201.125 -228.6875 197.0625 C-228.75324219 196.29035156 -228.81898438 195.51820313 -228.88671875 194.72265625 C-228.92410156 194.15417969 -228.96148437 193.58570313 -229 193 C-224.71372553 192.56834947 -220.42702672 192.14126791 -216.13989258 191.71826172 C-214.684041 191.57398378 -213.22830867 191.42849701 -211.77270508 191.28173828 C-209.67039323 191.06999464 -207.56767908 190.86272229 -205.46484375 190.65625 C-204.202771 190.53056641 -202.94069824 190.40488281 -201.64038086 190.27539062 C-191.6228422 189.51757535 -191.6228422 189.51757535 -189.25 191.35546875 C-188.8375 191.96003906 -188.425 192.56460938 -188 193.1875 C-181.39863067 201.68719057 -172.40087533 205.11149974 -162 207 C-152.96586052 207.89659293 -143.85180921 207.65688716 -134.78515625 207.59375 C-132.15832067 207.59203501 -129.53148338 207.59210852 -126.90464783 207.59387207 C-121.42204081 207.59381884 -115.93978225 207.57426865 -110.45727539 207.54199219 C-104.16671496 207.50513273 -97.87661005 207.49631789 -91.58595568 207.5032897 C-85.47448135 207.50965019 -79.36318401 207.49851715 -73.25173759 207.47932434 C-70.67845847 207.47235452 -68.10516594 207.46916239 -65.53187752 207.47001648 C-37.72382127 208.10035953 -37.72382127 208.10035953 -13 197 C-10.68163232 194.66679477 -8.56382507 192.30112071 -6.5234375 189.72265625 C-6.02070313 189.15417969 -5.51796875 188.58570313 -5 188 C-4.34 188 -3.68 188 -3 188 C-2.53963371 186.64652311 -2.08183463 185.292173 -1.625 183.9375 C-1.36976563 183.18339844 -1.11453125 182.42929687 -0.8515625 181.65234375 C-0.57054687 180.77707031 -0.28953125 179.90179688 0 179 C0.34124405 178.03720123 0.6824881 177.07440247 1.03407288 176.08242798 C2.51842716 170.8155703 2.30315503 165.4610465 2.30639648 160.02880859 C2.31888176 158.2444339 2.31888176 158.2444339 2.33161926 156.42401123 C2.35152707 153.17569062 2.3623496 149.92751869 2.36744571 146.67914534 C2.37110307 144.64324951 2.37735034 142.6073778 2.3844471 140.57149124 C2.40891018 133.45015647 2.42198568 126.32889415 2.42553711 119.20751953 C2.42916506 112.60058811 2.45901477 105.99412329 2.50094169 99.38733423 C2.53580509 93.69105514 2.55108834 87.99492941 2.55178314 82.29854453 C2.55257084 78.90711009 2.56107118 75.5161512 2.58978081 72.12482834 C2.6168344 68.33200008 2.6118261 64.54043617 2.59936523 60.74755859 C2.61419952 59.64580292 2.62903381 58.54404724 2.64431763 57.40890503 C2.55945025 48.27246613 0.39127487 39.06221798 -5.375 31.75 C-7.7767632 27.68547767 -7.01085028 24.39306632 -6 20 C-4.24987961 13.24953565 -2.23506363 6.60496384 0 0 Z " fill="#FEFCFD" transform="translate(482,303)"/>
<path d="M0 0 C3 2 3 2 3.38311005 3.82954502 C3.38683876 4.57556949 3.39056747 5.32159395 3.39440918 6.09022522 C3.40575897 6.94662598 3.41710876 7.80302673 3.42880249 8.68537903 C3.42587189 9.62717514 3.42294128 10.56897125 3.41992188 11.53930664 C3.42839142 12.52975983 3.43686096 13.52021301 3.44558716 14.54067993 C3.46907423 17.83063446 3.46997602 21.12012404 3.46875 24.41015625 C3.47584803 26.6950245 3.4835465 28.97989096 3.49182129 31.26475525 C3.50529553 36.06416771 3.50682322 40.86341567 3.50097656 45.6628418 C3.49509882 51.80082602 3.52557909 57.93801425 3.56609344 64.07584476 C3.59200996 68.80035117 3.59484383 73.52466746 3.59120178 78.24923515 C3.59289147 80.51097032 3.60251933 82.77271442 3.62034607 85.03437996 C3.64259683 88.20842833 3.63279942 91.38088651 3.61523438 94.55493164 C3.62849762 95.48255814 3.64176086 96.41018463 3.65542603 97.36592102 C3.57213353 103.87650566 2.01508888 108.79976358 -2 114 C-4.63651793 116.33082111 -5.40754609 117 -9 117 C-9 117.66 -9 118.32 -9 119 C-16.07529906 120.62059923 -23.86084336 121.43189601 -30.5625 118.375 C-34.90740384 114.14150395 -37.22723832 111.08993957 -37.4375 104.9375 C-37.19292416 99.49976384 -35.71254393 96.7644392 -31.9375 92.875 C-27.03668809 89.74682219 -21.5790414 88.63643011 -15.9765625 87.25390625 C-14.99429688 87.00511719 -14.01203125 86.75632812 -13 86.5 C-12.0925 86.2834375 -11.185 86.066875 -10.25 85.84375 C-7.65949372 85.12223736 -7.65949372 85.12223736 -6 82 C-5.67299844 79.71909256 -5.67299844 79.71909256 -5.68115234 77.16137695 C-5.66128265 76.1805867 -5.64141296 75.19979645 -5.62094116 74.18928528 C-5.60938995 73.13295395 -5.59783875 72.07662262 -5.5859375 70.98828125 C-5.56657135 69.90491989 -5.5472052 68.82155853 -5.5272522 67.70536804 C-5.46741656 64.24115907 -5.4210547 60.77691695 -5.375 57.3125 C-5.33682393 54.96548021 -5.29777242 52.61847448 -5.2578125 50.27148438 C-5.16171176 44.51444766 -5.07667587 38.75732641 -5 33 C-22.67613419 35.10898404 -22.67613419 35.10898404 -40.125 38.5625 C-47.32910378 40.22233829 -54.42414609 41.65997001 -61.76953125 42.54296875 C-64.19348479 42.82630172 -64.19348479 42.82630172 -66 45 C-66.21705637 47.40679241 -66.31134857 49.70219803 -66.31884766 52.11181641 C-66.33391609 53.20953117 -66.33391609 53.20953117 -66.34928894 54.329422 C-66.38023236 56.75346068 -66.39718674 59.17738838 -66.4140625 61.6015625 C-66.43276521 63.28023237 -66.45233794 64.95889275 -66.4727478 66.63754272 C-66.52416995 71.05979835 -66.56374152 75.48208449 -66.60089111 79.90447998 C-66.64086774 84.41556407 -66.69198892 88.92652013 -66.7421875 93.4375 C-66.83906607 102.29157686 -66.92343249 111.14572584 -67 120 C-67.66 120 -68.32 120 -69 120 C-69.020625 120.70125 -69.04125 121.4025 -69.0625 122.125 C-70.47124721 126.44515811 -73.28659503 128.52190112 -77 131 C-83.25750953 133.75330419 -90.27639601 133.68449061 -97 133 C-101.55798098 131.00088554 -104.07330844 128.28802621 -106.30859375 123.9296875 C-107.86863067 119.57568616 -107.67378453 115.60959638 -105.875 111.3125 C-99.22233232 103.1075432 -91.80979222 100.87820835 -81.671875 99.52734375 C-78.78811805 99.13542114 -78.78811805 99.13542114 -76 97 C-75.69959658 94.38482648 -75.59364384 92.00298144 -75.61523438 89.38500977 C-75.6098616 88.59949738 -75.60448883 87.81398499 -75.59895325 87.00466919 C-75.589157 85.29625983 -75.58623666 83.5878006 -75.58930969 81.87936592 C-75.59377356 79.17714168 -75.57982864 76.4755773 -75.56091309 73.77342224 C-75.52406259 68.03645907 -75.51040971 62.29956413 -75.5 56.5625 C-75.48793817 49.91934457 -75.46646809 43.27650883 -75.41999817 36.63349724 C-75.40638741 33.96831228 -75.41060641 31.30352724 -75.41540527 28.63832092 C-75.4060669 27.00700363 -75.39589865 25.3756908 -75.38476562 23.74438477 C-75.39091385 23.00090286 -75.39706207 22.25742096 -75.40339661 21.4914093 C-75.34325201 16.48504575 -75.34325201 16.48504575 -73.63188171 14.06672668 C-71.32736905 12.56031532 -69.18366821 12.12217209 -66.48828125 11.5703125 C-65.35261719 11.33473633 -64.21695313 11.09916016 -63.046875 10.85644531 C-61.81453125 10.61506836 -60.5821875 10.37369141 -59.3125 10.125 C-58.04277344 9.8681543 -56.77304687 9.61130859 -55.46484375 9.34667969 C-44.15090668 7.09130577 -32.76574083 5.2960412 -21.34887695 3.64892578 C-19.42821411 3.36637939 -19.42821411 3.36637939 -17.46875 3.078125 C-16.33888672 2.91731445 -15.20902344 2.75650391 -14.04492188 2.59082031 C-0.47823929 -0.04158603 -0.47823929 -0.04158603 0 0 Z " fill="#FCF8F9" transform="translate(428,345)"/>
<path d="M0 0 C17.16 0 34.32 0 52 0 C52 4.29 52 8.58 52 13 C39.79 13 27.58 13 15 13 C15.01110306 15.72952942 15.02220612 18.45905884 15.03364563 21.27130127 C15.13587056 46.99134661 15.21025288 72.71136514 15.25906086 98.43156815 C15.28482164 111.65465576 15.31993181 124.87759413 15.37719727 138.10058594 C15.42709697 149.62828764 15.45930646 161.15588122 15.47044247 172.68368793 C15.47695001 178.7853069 15.49220086 184.88661661 15.52865028 190.98813629 C15.56271316 196.73700224 15.57303202 202.48543298 15.56553841 208.23439026 C15.56690834 210.33859882 15.57677894 212.44282269 15.59602737 214.54694366 C15.69249128 225.64058939 15.71090584 235.10207936 10 245 C9.51314382 245.85167377 9.02628763 246.70334755 8.52467823 247.58082962 C2.39216619 257.81562492 -6.61918068 263.32763438 -17.625 267.3125 C-30.15175392 269.89899575 -41.50614425 268.4167828 -52.33984375 261.5078125 C-56.61977659 258.4313617 -61.60690134 254.78619731 -64 250 C-63.00419922 250.30744141 -63.00419922 250.30744141 -61.98828125 250.62109375 C-60.66376953 251.02521484 -60.66376953 251.02521484 -59.3125 251.4375 C-58.44238281 251.70433594 -57.57226562 251.97117187 -56.67578125 252.24609375 C-44.7860291 255.59605311 -33.11800399 254.36273684 -22.12890625 248.45703125 C-11.94814623 241.68535374 -4.50751303 232.51093775 -1.95221901 220.40512276 C-0.98641309 215.43490293 -0.70942168 210.68719548 -0.7215271 205.63522339 C-0.7157347 204.74871538 -0.7099423 203.86220738 -0.70397437 202.94883549 C-0.68710772 200.00865834 -0.68410945 197.06863941 -0.68115234 194.12841797 C-0.67184495 192.00873943 -0.66167508 189.88906454 -0.65071106 187.76939392 C-0.62348852 182.03670555 -0.60828463 176.30404165 -0.59528303 170.57130575 C-0.57961855 164.57217711 -0.55283892 158.57309818 -0.5272522 152.57400513 C-0.48052311 141.22353939 -0.44375059 129.87306423 -0.41057932 118.52255166 C-0.37231644 105.59629546 -0.32291719 92.67008927 -0.27259517 79.74387527 C-0.16936259 53.16261589 -0.08154394 26.58133537 0 0 Z " fill="#1DEFE6" transform="translate(255,97)"/>
<path d="M0 0 C0.82822266 -0.00386719 1.65644531 -0.00773438 2.50976562 -0.01171875 C3.31478516 -0.01042969 4.11980469 -0.00914062 4.94921875 -0.0078125 C5.66811279 -0.00668457 6.38700684 -0.00555664 7.12768555 -0.00439453 C9.3125 0.125 9.3125 0.125 14.3125 1.125 C14.3125 5.415 14.3125 9.705 14.3125 14.125 C13.11496094 14.21136719 11.91742188 14.29773438 10.68359375 14.38671875 C-15.11487549 16.50440414 -38.65198064 27.24381826 -55.6875 47.125 C-58.18486573 50.36034532 -60.46600182 53.69559501 -62.6875 57.125 C-63.20183594 57.89457031 -63.71617187 58.66414063 -64.24609375 59.45703125 C-77.42662152 80.10081889 -81.68851629 106.92971314 -76.55541992 130.88037109 C-75.75371624 134.02285891 -74.76143735 137.06560441 -73.6875 140.125 C-73.46255859 140.77001465 -73.23761719 141.4150293 -73.00585938 142.07958984 C-70.09071093 150.28095445 -66.50998112 157.8541823 -61.6875 165.125 C-61.12289062 165.98609375 -60.55828125 166.8471875 -59.9765625 167.734375 C-58.56087062 169.87452893 -57.13205715 172.00426717 -55.6875 174.125 C-71.39998816 166.9733518 -82.51859843 147.26590833 -89.03125 131.96875 C-90.06981211 129.04189314 -90.91697175 126.13317342 -91.6875 123.125 C-91.98398438 122.03574219 -92.28046875 120.94648438 -92.5859375 119.82421875 C-98.81829086 93.66548792 -93.46266689 67.2284762 -79.828125 44.3828125 C-76.48190705 39.29021074 -72.74808708 34.66155333 -68.6875 30.125 C-68.14867187 29.50367188 -67.60984375 28.88234375 -67.0546875 28.2421875 C-49.98736033 9.80261292 -24.7484448 -0.11719863 0 0 Z " fill="#1EEEE5" transform="translate(209.6875,209.875)"/>
<path d="M0 0 C4.95 0 9.9 0 15 0 C15 17.16 15 34.32 15 52 C-7.36956522 52 -7.36956522 52 -18 49 C-18.97839844 48.74476563 -19.95679688 48.48953125 -20.96484375 48.2265625 C-27.11626202 46.42655017 -32.60654518 43.78484523 -38.1875 40.6875 C-38.82864746 40.33284668 -39.46979492 39.97819336 -40.13037109 39.61279297 C-45.58099417 36.47489278 -49.91137622 32.95781849 -55 29 C-55.33 62.99 -55.66 96.98 -56 132 C-61.94 132.99 -61.94 132.99 -68 134 C-68.99 134.33 -69.98 134.66 -71 135 C-72 134 -72 134 -72.12304783 132.01848507 C-72.12212604 131.14185994 -72.12120424 130.26523481 -72.12025452 129.36204529 C-72.12162918 128.35938629 -72.12300385 127.35672729 -72.12442017 126.32368469 C-72.12082489 125.21454208 -72.11722961 124.10539948 -72.11352539 122.96264648 C-72.11367142 121.80182556 -72.11381744 120.64100464 -72.1139679 119.44500732 C-72.11326817 115.58701748 -72.10547298 111.72907522 -72.09765625 107.87109375 C-72.09579228 105.20451272 -72.09431912 102.53793436 -72.09336853 99.87135315 C-72.09025548 93.5567112 -72.08204244 87.24208649 -72.07201904 80.92745215 C-72.0608571 73.74014367 -72.05534725 66.55283439 -72.05032361 59.3655194 C-72.0398598 44.57700411 -72.02226086 29.78850235 -72 15 C-68.9790116 16.46641516 -66.43634444 18.10554526 -63.75 20.125 C-43.83397721 34.12161924 -23.94289761 37.56080943 0 39 C0 26.13 0 13.26 0 0 Z " fill="#FB2E57" transform="translate(378,184)"/>
<path d="M0 0 C8 0 8 0 15 1 C15 18.49 15 35.98 15 54 C7.74 54 0.48 54 -7 54 C-19.17522703 57.01367006 -28.25726887 64.49357952 -35.25 74.8515625 C-39.51464596 81.96975833 -40.34133784 88.14080031 -40.3125 96.25 C-40.32861328 97.14074219 -40.34472656 98.03148437 -40.36132812 98.94921875 C-40.36732779 107.21675043 -38.27530968 114.44159304 -35 122 C-43.83840135 118.96083041 -49.00355651 111.79028388 -53 103.6875 C-57.92494736 93.32458992 -58.88775145 81.57541637 -56.09375 70.36328125 C-50.93508556 57.45008597 -41.73957478 47.79868978 -29.1640625 41.91015625 C-25.77361881 40.48421152 -23.12330586 39.87235578 -19.47265625 39.8671875 C-18.59802734 39.86589844 -17.72339844 39.86460937 -16.82226562 39.86328125 C-15.91154297 39.86714844 -15.00082031 39.87101562 -14.0625 39.875 C-13.15564453 39.87113281 -12.24878906 39.86726563 -11.31445312 39.86328125 C-10.43853516 39.86457031 -9.56261719 39.86585938 -8.66015625 39.8671875 C-7.86230713 39.86831543 -7.06445801 39.86944336 -6.24243164 39.87060547 C-4 40 -4 40 0 41 C0 27.47 0 13.94 0 0 Z " fill="#FC2B55" transform="translate(224,223)"/>
<path d="M0 0 C0.33 0 0.66 0 1 0 C1 7.26 1 14.52 1 22 C-0.485 22.495 -0.485 22.495 -2 23 C-2.2578125 23.79148437 -2.515625 24.58296875 -2.78125 25.3984375 C-4 28 -4 28 -6.90625 29.4765625 C-8.0921875 29.85554688 -9.278125 30.23453125 -10.5 30.625 C-11.44830688 30.93401245 -11.44830688 30.93401245 -12.41577148 31.24926758 C-14.27198619 31.84916339 -16.13590595 32.4250553 -18 33 C-18.88816406 33.30035156 -19.77632813 33.60070312 -20.69140625 33.91015625 C-37.75530638 39.50441675 -57.80860798 40.38386336 -75 35 C-76.0003125 34.70996094 -77.000625 34.41992188 -78.03125 34.12109375 C-92.71353086 29.59910261 -105.28957315 22.06031375 -116 11 C-112.09960191 11 -110.06155273 12.41202348 -106.625 14.25 C-86.54026546 24.65121033 -61.80286221 27.85997615 -40 21 C-29.41909609 17.46221311 -19.53151475 13.40154742 -10.5078125 6.76171875 C-7.79136544 4.85343585 -4.96815512 3.47580972 -2 2 C-1.34 1.34 -0.68 0.68 0 0 Z " fill="#FB345D" transform="translate(276,379)"/>
<path d="M0 0 C2.31 0 4.62 0 7 0 C7.19573608 1.43640171 7.38127816 2.87419504 7.5625 4.3125 C7.66691406 5.11300781 7.77132813 5.91351563 7.87890625 6.73828125 C8 9 8 9 7 12 C8.98 11.67 10.96 11.34 13 11 C13.103125 11.639375 13.20625 12.27875 13.3125 12.9375 C13.539375 13.618125 13.76625 14.29875 14 15 C14.99 15.33 15.98 15.66 17 16 C17 16.99 17 17.98 17 19 C17.86625 18.7525 17.86625 18.7525 18.75 18.5 C23.11508588 17.52998092 26.02958818 18.23537253 30 20 C30 20.99 30 21.98 30 23 C29.34 23.33 28.68 23.66 28 24 C29.98 24.66 31.96 25.32 34 26 C34 25.01 34 24.02 34 23 C34.66 23 35.32 23 36 23 C36.43881343 23.48742046 36.87762686 23.97484093 37.32973766 24.47703171 C39.54202886 26.49422941 40.76109684 26.37263618 43.72419739 26.36749268 C44.69569229 26.37306183 45.66718719 26.37863098 46.66812134 26.3843689 C47.73259491 26.37515411 48.79706848 26.36593933 49.89379883 26.35644531 C51.01601334 26.35848969 52.13822784 26.36053406 53.29444885 26.36264038 C57.01547378 26.3656558 60.73605874 26.34714445 64.45703125 26.328125 C67.03911733 26.32506794 69.62120506 26.32319142 72.20329285 26.32244873 C77.62135524 26.31784048 83.03926062 26.30378722 88.45727539 26.28125 C95.40122739 26.25242332 102.34507719 26.24203042 109.28908253 26.2375679 C114.62421296 26.23400778 119.95932072 26.22358642 125.29443932 26.21169281 C127.85448709 26.2059958 130.41453712 26.20123522 132.97458839 26.19742584 C136.55577188 26.19054509 140.13686355 26.17690269 143.71801758 26.16113281 C145.3056189 26.15945602 145.3056189 26.15945602 146.92529297 26.15774536 C151.7268828 26.12976674 156.28026101 26.00760906 161 25 C161 23.68 161 22.36 161 21 C161.33 20.01 161.66 19.02 162 18 C166.46008823 18 170.47707422 18.20758539 174.89453125 18.87890625 C177.34505382 19.12470663 177.34505382 19.12470663 181 18 C181 15.03 181 12.06 181 9 C182.98 9.495 182.98 9.495 185 10 C187.65466049 9.76956136 187.65466049 9.76956136 190 9 C190.33 8.34 190.66 7.68 191 7 C190.19765903 13.25609107 186.70504323 16.1109043 182 20 C166.39082549 31.43134947 144.99999994 29.4748397 126.65234375 29.46875 C124.0245396 29.4758675 121.39673698 29.48356876 118.76893616 29.49182129 C113.28822499 29.50632647 107.80762774 29.50705074 102.3269043 29.50097656 C96.03562085 29.49433149 89.74492299 29.51725312 83.45375818 29.55429029 C77.34175225 29.58893526 71.23001898 29.5953052 65.11792183 29.59120178 C62.54379084 29.59288237 59.96965133 29.60242111 57.3955822 29.62034607 C23.12124249 29.83288389 23.12124249 29.83288389 10.125 18.17578125 C0.16984527 7.9827276 0.16984527 7.9827276 0 0 Z " fill="#FA3753" transform="translate(286,482)"/>
<path d="M0 0 C4.62 0 9.24 0 14 0 C14.0825 1.670625 14.165 3.34125 14.25 5.0625 C15.56669632 20.02017016 20.58437943 34.17914303 30 46 C29.67 46.66 29.34 47.32 29 48 C14.48696115 35.99586415 3.70017177 21.73373682 0 3 C0 2.01 0 1.02 0 0 Z " fill="#F92B54" transform="translate(308,111)"/>
<path d="M0 0 C1.32 0 2.64 0 4 0 C3.835 0.66 3.67 1.32 3.5 2 C2.59832116 7.41007305 2.10622436 11.88934123 4.6875 16.8125 C7.0616959 20.08504029 8.41950466 21.2734169 12 23 C19.41509967 23.97971524 27.30665413 23.57723704 34 20 C36.87685203 17.45911321 36.87685203 17.45911321 39 15 C39.66 15 40.32 15 41 15 C41 14.01 41 13.02 41 12 C41.66 12 42.32 12 43 12 C42.835 13.051875 42.67 14.10375 42.5 15.1875 C41.93769202 18.83424047 41.93769202 18.83424047 42 21.875 C42 22.57625 42 23.2775 42 24 C41.505 24.495 41.505 24.495 41 25 C41.495 26.485 41.495 26.485 42 28 C38.60972554 29.13009149 37.41451141 28.71989699 34 28 C32.10463073 27.95805545 30.20788184 27.95862741 28.3125 28 C23.22049287 28.11024643 23.22049287 28.11024643 21 27 C18.1335252 27.11546726 15.29604146 27.2806507 12.4375 27.5 C9.62138865 27.71504018 6.82330485 27.88223963 4 28 C3 27 3 27 2.90234375 25.15234375 C2.95117188 22.07617188 2.95117188 22.07617188 3 19 C2.05125 19.020625 1.1025 19.04125 0.125 19.0625 C-3 19 -3 19 -5 18 C-5 15.36 -5 12.72 -5 10 C-5.66 10 -6.32 10 -7 10 C-7 9.34 -7 8.68 -7 8 C-6.34 8 -5.68 8 -5 8 C-5.33 7.01 -5.66 6.02 -6 5 C-5.01 4.67 -4.02 4.34 -3 4 C-2.34 5.65 -1.68 7.3 -1 9 C-0.67 6.03 -0.34 3.06 0 0 Z " fill="#F52E47" transform="translate(319,454)"/>
<path d="M0 0 C1.87465691 -0.00043808 1.87465691 -0.00043808 3.78718567 -0.00088501 C7.18746793 0.00026322 10.58750231 0.01023999 13.98774076 0.02426291 C17.55114071 0.03683122 21.11454456 0.03794555 24.67796326 0.04031372 C31.41381193 0.04651066 38.14959509 0.0628971 44.88541502 0.0830127 C52.55898722 0.10542754 60.23256269 0.11637913 67.90615952 0.12640357 C83.68023468 0.14726507 99.45424461 0.18240602 115.22827148 0.22705078 C115.22827148 0.55705078 115.22827148 0.88705078 115.22827148 1.22705078 C114.6593496 1.23128272 114.09042772 1.23551466 113.50426579 1.23987484 C99.63133972 1.34338929 85.75846282 1.45211592 71.88562107 1.56639004 C65.17669401 1.62155862 58.46776164 1.67501276 51.75878906 1.72436523 C45.28133927 1.77218964 38.80394025 1.82453827 32.32655144 1.87999153 C29.85830898 1.90033341 27.39005264 1.91905956 24.92178535 1.9361248 C21.45822273 1.96035042 17.99475448 1.9903791 14.53125 2.02172852 C13.51632477 2.02748398 12.50139954 2.03323944 11.45571899 2.03916931 C5.64753209 2.09871878 -0.039476 2.24011684 -5.77172852 3.22705078 C-6.43172852 4.21705078 -7.09172852 5.20705078 -7.77172852 6.22705078 C-8.51422852 6.00017578 -9.25672852 5.77330078 -10.02172852 5.53955078 C-12.79690527 4.9019309 -12.79690527 4.9019309 -14.64672852 6.66455078 C-17.66580795 8.88446213 -20.1269216 8.4373281 -23.77172852 8.22705078 C-23.77172852 8.88705078 -23.77172852 9.54705078 -23.77172852 10.22705078 C-25.09172852 10.55705078 -26.41172852 10.88705078 -27.77172852 11.22705078 C-27.11172852 13.86705078 -26.45172852 16.50705078 -25.77172852 19.22705078 C-29.77172852 18.22705078 -29.77172852 18.22705078 -31.77172852 17.22705078 C-32.10172852 16.23705078 -32.43172852 15.24705078 -32.77172852 14.22705078 C-35.22807805 18.96429632 -37.08229967 22.79205552 -36.77172852 28.22705078 C-38.42172852 28.22705078 -40.07172852 28.22705078 -41.77172852 28.22705078 C-42.42797852 26.49658203 -42.42797852 26.49658203 -42.77172852 24.22705078 C-38.91677143 15.81764842 -32.05166345 9.07818331 -23.77172852 5.22705078 C-23.11172852 4.23705078 -22.45172852 3.24705078 -21.77172852 2.22705078 C-15.04277536 -0.6075952 -7.14152459 -0.04409607 0 0 Z " fill="#ED5B71" transform="translate(328.771728515625,315.77294921875)"/>
<path d="M0 0 C1.16015625 0.50660156 1.16015625 0.50660156 2.34375 1.0234375 C13.8035359 5.93072206 22.61196633 7.29034454 35 7 C35 11.29 35 15.58 35 20 C23.49557988 18.97738488 14.91296648 14.11622562 6 7 C5.33226562 6.48566406 4.66453125 5.97132813 3.9765625 5.44140625 C2.60175637 4.35382487 1.29076453 3.18610795 0 2 C0 1.34 0 0.68 0 0 Z " fill="#22EEE6" transform="translate(343,163)"/>
<path d="M0 0 C3.88317773 0.00535947 7.76623984 0.00002785 11.64941406 -0.00634766 C44.23288499 -0.01626064 44.23288499 -0.01626064 53.89160156 2.13037109 C53.89160156 2.46037109 53.89160156 2.79037109 53.89160156 3.13037109 C20.89160156 3.13037109 -12.10839844 3.13037109 -46.10839844 3.13037109 C-46.10839844 2.80037109 -46.10839844 2.47037109 -46.10839844 2.13037109 C-31.23754609 -1.1746481 -15.1222759 -0.02482819 0 0 Z " fill="#303030" transform="translate(379.1083984375,311.86962890625)"/>
<path d="M0 0 C0 16.17 0 32.34 0 49 C-0.33 49 -0.66 49 -1 49 C-1 33.16 -1 17.32 -1 1 C-11.395 2.485 -11.395 2.485 -22 4 C-23.65 4 -25.3 4 -27 4 C-26.505 5.98 -26.505 5.98 -26 8 C-24.865625 8.12375 -23.73125 8.2475 -22.5625 8.375 C-21.386875 8.58125 -20.21125 8.7875 -19 9 C-18.505 9.99 -18.505 9.99 -18 11 C-19.65614657 11.38218767 -21.32457024 11.71395102 -23 12 C-23.495 11.505 -23.495 11.505 -24 11 C-29.6047709 10.78673597 -29.6047709 10.78673597 -35 12 C-35 11.34 -35 10.68 -35 10 C-35.99 10.33 -36.98 10.66 -38 11 C-42.08594833 12.1865126 -45.76342394 12.14865179 -50 12 C-49.67 11.34 -49.34 10.68 -49 10 C-52.63 10.33 -56.26 10.66 -60 11 C-59.67 10.34 -59.34 9.68 -59 9 C-57.07666016 8.46923828 -57.07666016 8.46923828 -54.5390625 8.0703125 C-53.60126953 7.91667236 -52.66347656 7.76303223 -51.69726562 7.60473633 C-50.68341797 7.44642334 -49.66957031 7.28811035 -48.625 7.125 C-40.09858316 5.72634277 -31.64370584 4.16571037 -23.20556641 2.30712891 C-15.26238979 0.57151003 -8.27554067 0 0 0 Z " fill="#F8687C" transform="translate(423,378)"/>
<path d="M0 0 C0.00586624 0.77657455 0.01173248 1.55314911 0.01777649 2.35325623 C0.07620765 9.75038441 0.1485609 17.14719487 0.23571491 24.54403591 C0.28002979 28.34484589 0.31936543 32.14555818 0.34643555 35.9465332 C0.0753694 65.35236106 0.0753694 65.35236106 9 93 C0.585 93.99 0.585 93.99 -8 95 C-5.41073669 92.41073669 -3.97294721 92.62601957 -0.375 92.375 C1.12933594 92.26285156 1.12933594 92.26285156 2.6640625 92.1484375 C3.82035156 92.07496094 3.82035156 92.07496094 5 92 C4.73445313 91.41734375 4.46890625 90.8346875 4.1953125 90.234375 C1.66057836 84.35083152 0.26922562 78.81232789 -0.60546875 72.46875 C-0.87246677 70.00468108 -0.87246677 70.00468108 -2 68 C-2.12037961 65.96839528 -2.17739122 63.9329256 -2.20532227 61.89794922 C-2.22526749 60.61677216 -2.24521271 59.33559509 -2.26576233 58.01559448 C-2.28274669 56.61196006 -2.29962549 55.20832437 -2.31640625 53.8046875 C-2.3369754 52.37264403 -2.35797186 50.94060663 -2.37937927 49.50857544 C-2.43460403 45.73733437 -2.48401147 41.96603848 -2.53222656 38.19470215 C-2.58243867 34.34719964 -2.63812624 30.49977687 -2.69335938 26.65234375 C-2.80094587 19.10163 -2.90238971 11.55085 -3 4 C-4.65 4.33 -6.3 4.66 -8 5 C-7.67 4.01 -7.34 3.02 -7 2 C-4.56723614 0.81480735 -2.71982714 0 0 0 Z " fill="#736B6C" transform="translate(281,400)"/>
<path d="M0 0 C2.31 0 4.62 0 7 0 C7.19573608 1.43640171 7.38127816 2.87419504 7.5625 4.3125 C7.66691406 5.11300781 7.77132813 5.91351563 7.87890625 6.73828125 C8 9 8 9 7 12 C8.98 11.67 10.96 11.34 13 11 C13.103125 11.639375 13.20625 12.27875 13.3125 12.9375 C13.539375 13.618125 13.76625 14.29875 14 15 C14.99 15.33 15.98 15.66 17 16 C17 16.99 17 17.98 17 19 C17.86625 18.7525 17.86625 18.7525 18.75 18.5 C23.11508588 17.52998092 26.02958818 18.23537253 30 20 C30 20.99 30 21.98 30 23 C29.34 23.33 28.68 23.66 28 24 C28.99 24.33 29.98 24.66 31 25 C31 25.66 31 26.32 31 27 C19.49149659 25.56143707 11.35849418 20.31815458 4 11.5 C1.10956755 7.60826301 0.10259967 4.82218428 0 0 Z " fill="#F42A41" transform="translate(286,482)"/>
<path d="M0 0 C0.495 1.485 0.495 1.485 1 3 C-4.82199501 12.54725756 -15.10853376 17.88277735 -25.5625 20.6875 C-28.7217373 21.09253042 -31.81910501 21.06237049 -35 21 C-35 20.34 -35 19.68 -35 19 C-33.02 18.67 -31.04 18.34 -29 18 C-29 16.68 -29 15.36 -29 14 C-28.67 13.01 -28.34 12.02 -28 11 C-23.53991177 11 -19.52292578 11.20758539 -15.10546875 11.87890625 C-12.65494618 12.12470663 -12.65494618 12.12470663 -9 11 C-9 8.03 -9 5.06 -9 2 C-7.68 2.33 -6.36 2.66 -5 3 C-2.31850007 2.61432869 -2.31850007 2.61432869 0 2 C0 1.34 0 0.68 0 0 Z " fill="#F7263E" transform="translate(476,489)"/>
<path d="M0 0 C0.33 0 0.66 0 1 0 C1.06991506 8.39805072 1.12301976 16.79597716 1.15543652 25.1942482 C1.17100523 29.09509915 1.19207974 32.99574907 1.22631836 36.89648438 C1.25922949 40.67016285 1.27691889 44.44364957 1.28463173 48.21746063 C1.29011891 49.64777387 1.30083163 51.07807819 1.31719017 52.50830841 C1.41330158 61.27031595 1.07986392 69.68387024 -2 78 C-2.99 78.99 -2.99 78.99 -4 80 C-4.99 80 -5.98 80 -7 80 C-7.31174429 73.51110041 -7.48149172 68.70964642 -4 63 C-3.31363375 60.76474965 -3.31363375 60.76474965 -3 59 C-2.34 59.33 -1.68 59.66 -1 60 C-0.505 30.3 -0.505 30.3 0 0 Z " fill="#F82A46" transform="translate(483,408)"/>
<path d="M0 0 C6.93 0 13.86 0 21 0 C21 0.99 21 1.98 21 3 C29.91 2.01 29.91 2.01 39 1 C35.99812293 4.00187707 32.32479358 3.92651603 28.2734375 4.5078125 C26.97921371 4.70333206 26.97921371 4.70333206 25.65884399 4.90280151 C22.89865845 5.31796115 20.1369262 5.72159953 17.375 6.125 C15.50509526 6.40419166 13.63530187 6.68413018 11.765625 6.96484375 C7.17833119 7.65190705 2.58961741 8.32864135 -2 9 C-2 8.34 -2 7.68 -2 7 C-1.34 7 -0.68 7 0 7 C0 4.69 0 2.38 0 0 Z " fill="#F84F69" transform="translate(380,345)"/>
<path d="M0 0 C16.20380148 -0.09373615 32.40751405 -0.16412181 48.61152172 -0.20724869 C56.13653351 -0.22781183 63.66137614 -0.25581166 71.1862793 -0.30175781 C77.75041985 -0.34181831 84.3144378 -0.36747814 90.87869722 -0.37635398 C94.34956036 -0.38153653 97.82007298 -0.39358395 101.29082298 -0.42292023 C105.17986646 -0.4555208 109.06857734 -0.4559472 112.95776367 -0.45410156 C114.08921814 -0.46848267 115.22067261 -0.48286377 116.38641357 -0.49768066 C124.35890238 -0.45701667 131.62307114 0.86742074 139 4 C139.33 4.66 139.66 5.32 140 6 C137.74888027 5.71710528 135.49912314 5.42335307 133.25 5.125 C131.99703125 4.96257812 130.7440625 4.80015625 129.453125 4.6328125 C126 4 126 4 124.1037178 2.97785378 C121.55115987 1.79136935 119.69740397 1.73887286 116.88739014 1.7215271 C115.85536469 1.71036362 114.82333923 1.69920013 113.76004028 1.68769836 C112.63363129 1.68553818 111.50722229 1.68337799 110.34667969 1.68115234 C109.15615997 1.67110672 107.96564026 1.6610611 106.73904419 1.65071106 C103.47904622 1.62512491 100.2191431 1.60826616 96.95907497 1.59528303 C93.55040475 1.57964596 90.14182262 1.55285759 86.73321533 1.5272522 C80.28059245 1.48047456 73.82795297 1.44372558 67.37524724 1.41057932 C60.02820237 1.37235073 52.68124599 1.32294252 45.33427572 1.27259517 C30.2229159 1.16929045 15.11150238 1.08002533 0 1 C0 0.67 0 0.34 0 0 Z " fill="#82515A" transform="translate(322,315)"/>
<path d="M0 0 C2.64 0 5.28 0 8 0 C8.05058526 7.08411622 8.08568494 14.16818612 8.10986328 21.25244141 C8.11993954 23.66391744 8.13360081 26.07538122 8.15087891 28.48681641 C8.1750559 31.94697085 8.18646669 35.4069642 8.1953125 38.8671875 C8.20563507 39.95055389 8.21595764 41.03392029 8.22659302 42.15011597 C8.22674408 43.1510025 8.22689514 44.15188904 8.22705078 45.18310547 C8.231492 46.06690887 8.23593323 46.95071228 8.24050903 47.86129761 C8 50 8 50 6 52 C0.78555016 53.87720194 -3.54513151 54.19139889 -9 54 C-9.495 52.515 -9.495 52.515 -10 51 C-12.00016466 49.79117904 -12.00016466 49.79117904 -14 49 C-10.32431536 48.08107884 -8.83619425 48.04095144 -5 49 C-1.37 48.34 2.26 47.68 6 47 C6 32.15 6 17.3 6 2 C3.03 1.505 3.03 1.505 0 1 C0 0.67 0 0.34 0 0 Z " fill="#F7344E" transform="translate(414,379)"/>
<path d="M0 0 C0.33 0 0.66 0 1 0 C1.0988364 5.21438043 1.17145206 10.42821643 1.21972656 15.64331055 C1.23984903 17.41749569 1.2671503 19.19161446 1.30175781 20.96557617 C1.35024992 23.51497767 1.37296153 26.06350295 1.390625 28.61328125 C1.41127014 29.40712723 1.43191528 30.20097321 1.45318604 31.01887512 C1.45410156 33.26293945 1.45410156 33.26293945 1 37 C-1.02441406 39.02416992 -1.02441406 39.02416992 -3 40 C-3.66 39.67 -4.32 39.34 -5 39 C-5 32.07 -5 25.14 -5 18 C-5.99 18.99 -6.98 19.98 -8 21 C-8.66 20.67 -9.32 20.34 -10 20 C-9.36191406 19.47792969 -8.72382813 18.95585937 -8.06640625 18.41796875 C-3.36239286 14.22765417 -0.4566478 11.40172749 0.0625 4.9375 C0.08281901 3.29166024 0.07683042 1.64417106 0 0 Z " fill="#FE7C95" transform="translate(281,362)"/>
<path d="M0 0 C2.64 0 5.28 0 8 0 C8 0.66 8 1.32 8 2 C8.99 2.33 9.98 2.66 11 3 C10.67 4.32 10.34 5.64 10 7 C6.19755532 8.1326431 2.45731367 9.11767512 -1.4375 9.875 C-5.39289383 10.71872735 -8.64970485 12.13872492 -12.17578125 14.09765625 C-14.09677247 15.04786818 -15.90972903 15.55241438 -18 16 C-19 10.25 -19 10.25 -19 8 C-12.73 7.67 -6.46 7.34 0 7 C0 4.69 0 2.38 0 0 Z " fill="#F6354E" transform="translate(341,437)"/>
<path d="M0 0 C-0.66 0.66 -1.32 1.32 -2 2 C-2.64767793 4.57061311 -2.64767793 4.57061311 -3 7 C-3.66 7 -4.32 7 -5 7 C-5 7.66 -5 8.32 -5 9 C-5.66 9 -6.32 9 -7 9 C-7 8.34 -7 7.68 -7 7 C-8.794375 7.2165625 -8.794375 7.2165625 -10.625 7.4375 C-11.71554687 7.56898438 -11.71554687 7.56898438 -12.828125 7.703125 C-14.68867186 7.95744435 -16.53494083 8.31267313 -18.375 8.6875 C-19.24125 8.790625 -20.1075 8.89375 -21 9 C-23 7 -23 7 -23.125 3.375 C-23.08375 2.26125 -23.0425 1.1475 -23 0 C-21.97519531 0.01160156 -20.95039063 0.02320313 -19.89453125 0.03515625 C-18.533856 0.04454022 -17.17317876 0.05363977 -15.8125 0.0625 C-15.13896484 0.07087891 -14.46542969 0.07925781 -13.77148438 0.08789062 C-10.82548826 0.10226134 -8.0920485 0.01861511 -5.19921875 -0.56640625 C-3 -1 -3 -1 0 0 Z " fill="#F72C46" transform="translate(422,464)"/>
<path d="M0 0 C0.66 0 1.32 0 2 0 C2.03758423 1.5634314 2.03758423 1.5634314 2.07592773 3.15844727 C2.17154069 7.10042461 2.27135701 11.04228708 2.37231445 14.98413086 C2.41509183 16.67616044 2.45679438 18.3682176 2.49731445 20.06030273 C2.72986502 29.73842559 3.07978785 39.36340474 3.89868164 49.01147461 C3.9878724 51.64227953 3.81734505 53.52288594 3 56 C2.01 56 1.02 56 0 56 C0 37.52 0 19.04 0 0 Z " fill="#F93049" transform="translate(431,399)"/>
<path d="M0 0 C0.66 1.32 1.32 2.64 2 4 C2.33 4.33 2.66 4.66 3 5 C3.15686249 6.55948542 3.25076639 8.12542668 3.31640625 9.69140625 C3.35830078 10.63564453 3.40019531 11.57988281 3.44335938 12.55273438 C3.48267578 13.54595703 3.52199219 14.53917969 3.5625 15.5625 C3.62727539 17.05813477 3.62727539 17.05813477 3.69335938 18.58398438 C3.79980298 21.0558415 3.90181928 23.5278031 4 26 C4.66 26 5.32 26 6 26 C6 28.97 6 31.94 6 35 C4.68 35 3.36 35 2 35 C1.67 32.69 1.34 30.38 1 28 C0.67 28 0.34 28 0 28 C0 18.76 0 9.52 0 0 Z " fill="#F9344E" transform="translate(362,419)"/>
<path d="M0 0 C0.99 0.33 1.98 0.66 3 1 C2.01 1.33 1.02 1.66 0 2 C-1.51617907 3.69863938 -1.51617907 3.69863938 -2 6 C-1.2884375 7.1446875 -1.2884375 7.1446875 -0.5625 8.3125 C1.5201261 11.89461689 0.85256866 14.04718167 0 18 C-1.65 18.66 -3.3 19.32 -5 20 C-6.84193854 16.31612293 -6.36231308 12.02993847 -6 8 C-4.52091164 4.68965938 -2.6773109 2.42232891 0 0 Z " fill="#FCFAFB" transform="translate(397,437)"/>
<path d="M0 0 C0.33 0 0.66 0 1 0 C1.33 15.84 1.66 31.68 2 48 C3.485 47.505 3.485 47.505 5 47 C3.79618552 49.49361571 2.54571278 51.68143083 1 54 C0.34 54 -0.32 54 -1 54 C-1 53.34 -1 52.68 -1 52 C-5.455 52.495 -5.455 52.495 -10 53 C-8 51 -8 51 -4.9375 50 C-1.87849194 49.34247444 -1.87849194 49.34247444 -1 47 C-0.88194823 45.4892243 -0.82303551 43.97361169 -0.79467773 42.45849609 C-0.77473251 41.51767181 -0.75478729 40.57684753 -0.73423767 39.60751343 C-0.71752518 38.58976837 -0.70081268 37.57202332 -0.68359375 36.5234375 C-0.6524221 34.96286118 -0.6524221 34.96286118 -0.62062073 33.37075806 C-0.55510128 30.03890751 -0.49622908 26.7069765 -0.4375 23.375 C-0.39431706 21.11978326 -0.35070285 18.86457473 -0.30664062 16.609375 C-0.19941748 11.07300236 -0.09765554 5.53654922 0 0 Z " fill="#FBE2E5" transform="translate(423,380)"/>
<path d="M0 0 C2.64 0 5.28 0 8 0 C8 0.66 8 1.32 8 2 C8.66 1.67 9.32 1.34 10 1 C11.87379605 0.92966231 13.75001102 0.9156978 15.625 0.9375 C17.12933594 0.95103516 17.12933594 0.95103516 18.6640625 0.96484375 C19.43492187 0.97644531 20.20578125 0.98804688 21 1 C21 1.33 21 1.66 21 2 C20.16021606 2.16604736 20.16021606 2.16604736 19.3034668 2.33544922 C16.76337823 2.84172841 14.22547661 3.35824231 11.6875 3.875 C10.80642578 4.04902344 9.92535156 4.22304688 9.01757812 4.40234375 C7.74624023 4.66337891 7.74624023 4.66337891 6.44921875 4.9296875 C5.66893311 5.08679199 4.88864746 5.24389648 4.0847168 5.40576172 C1.72270755 5.96432022 1.72270755 5.96432022 -1 8 C-1.66 7.67 -2.32 7.34 -3 7 C-3 6.34 -3 5.68 -3 5 C-2.34 5 -1.68 5 -1 5 C-0.67 3.35 -0.34 1.7 0 0 Z " fill="#F4536C" transform="translate(354,353)"/>
<path d="M0 0 C3.63 0 7.26 0 11 0 C11 0.99 11 1.98 11 3 C19.91 2.01 19.91 2.01 29 1 C26.3575074 3.6424926 24.57865459 3.55439422 20.8984375 4.0703125 C19.68671875 4.24433594 18.475 4.41835938 17.2265625 4.59765625 C15.95554687 4.77167969 14.68453125 4.94570313 13.375 5.125 C11.456875 5.39763672 11.456875 5.39763672 9.5 5.67578125 C6.33430681 6.12464819 3.16772046 6.56571065 0 7 C0.33 6.34 0.66 5.68 1 5 C3.5625 4.375 3.5625 4.375 6 4 C4.68 3.67 3.36 3.34 2 3 C2 2.34 2 1.68 2 1 C1.34 0.67 0.68 0.34 0 0 Z " fill="#F87B90" transform="translate(390,345)"/>
<path d="M0 0 C0.33 0 0.66 0 1 0 C1.15855469 1.09957031 1.31710937 2.19914062 1.48046875 3.33203125 C2.86918622 12.33169481 4.74414981 19.83336855 9 28 C3.39 28.66 -2.22 29.32 -8 30 C-5.41073669 27.41073669 -3.97294721 27.62601957 -0.375 27.375 C0.62789063 27.30023438 1.63078125 27.22546875 2.6640625 27.1484375 C3.82035156 27.07496094 3.82035156 27.07496094 5 27 C4.73445313 26.41734375 4.46890625 25.8346875 4.1953125 25.234375 C0.76907775 17.28150895 -2.18708101 8.63818327 0 0 Z " fill="#986F75" transform="translate(281,465)"/>
<path d="M0 0 C0 3.74110761 -0.25884204 7.4560694 -0.5 11.1875 C-0.54769531 11.93708984 -0.59539062 12.68667969 -0.64453125 13.45898438 C-0.76217832 15.30604344 -0.88097771 17.15302904 -1 19 C-1.99 18.67 -2.98 18.34 -4 18 C-5.63186199 13.10441403 -5.83931781 8.75493725 -3.625 4.125 C-2 2 -2 2 0 0 Z " fill="#FBE7E8" transform="translate(326,452)"/>
<path d="M0 0 C-0.48578543 3.12290635 -0.9986012 5.99580359 -2 9 C-2.99 9.495 -2.99 9.495 -4 10 C-4.46751788 12.35599235 -4.46751788 12.35599235 -4.625 15.0625 C-4.69976562 15.98160156 -4.77453125 16.90070313 -4.8515625 17.84765625 C-4.90054687 18.55792969 -4.94953125 19.26820313 -5 20 C-5.33 20 -5.66 20 -6 20 C-6 14.39 -6 8.78 -6 3 C-7.32 2.67 -8.64 2.34 -10 2 C-6.5980513 -0.09350689 -3.94727588 -0.17942163 0 0 Z " fill="#F75369" transform="translate(438,344)"/>
<path d="M0 0 C0.804375 0.185625 1.60875 0.37125 2.4375 0.5625 C2.953125 0.706875 3.46875 0.85125 4 1 C0.7394904 4.2605096 -2.89083745 4.05467405 -7.3125 4.0625 C-9.1378125 4.0315625 -9.1378125 4.0315625 -11 4 C-10.67 3.34 -10.34 2.68 -10 2 C-13.63 2.33 -17.26 2.66 -21 3 C-20.67 2.34 -20.34 1.68 -20 1 C-13.31447623 -0.6568472 -6.73735102 -1.57682684 0 0 Z " fill="#F95E75" transform="translate(384,386)"/>
<path d="M0 0 C0.99 0.495 0.99 0.495 2 1 C2 1.99 2 2.98 2 4 C4.31 4.33 6.62 4.66 9 5 C9.66 6.98 10.32 8.96 11 11 C9.6078125 10.7215625 9.6078125 10.7215625 8.1875 10.4375 C4.98656229 9.75876119 4.98656229 9.75876119 2 11 C1.855625 10.2575 1.71125 9.515 1.5625 8.75 C1.22422828 7.09622716 0.85788484 5.44732994 0.4375 3.8125 C0 2 0 2 0 0 Z " fill="#F2566D" transform="translate(466,324)"/>
<path d="M0 0 C3.36179774 1.44077046 5.59156268 3.24750021 8 6 C8 6.66 8 7.32 8 8 C5.36 8 2.72 8 0 8 C-0.79953138 4.71303767 -1.09658936 3.28976808 0 0 Z " fill="#F8304B" transform="translate(390,456)"/>
<path d="M0 0 C2.31 0 4.62 0 7 0 C6.67 0.99 6.34 1.98 6 3 C3.79355164 3.36572637 1.58471965 3.71708834 -0.625 4.0625 C-2.46964844 4.35833984 -2.46964844 4.35833984 -4.3515625 4.66015625 C-7.84573059 4.98563015 -10.59044235 4.75010268 -14 4 C-12 2 -12 2 -9.1796875 1.8046875 C-8.08914063 1.82789063 -6.99859375 1.85109375 -5.875 1.875 C-4.77929688 1.89304687 -3.68359375 1.91109375 -2.5546875 1.9296875 C-1.71164062 1.95289063 -0.86859375 1.97609375 0 2 C0 1.34 0 0.68 0 0 Z " fill="#F64E68" transform="translate(416,343)"/>
<path d="M0 0 C0.66 0 1.32 0 2 0 C1.835 1.051875 1.67 2.10375 1.5 3.1875 C1.10430322 6.20468796 0.90821029 8.97093972 1 12 C0.34 12 -0.32 12 -1 12 C-1 11.34 -1 10.68 -1 10 C-2.32 10.33 -3.64 10.66 -5 11 C-4.1875 7.5625 -4.1875 7.5625 -3 4 C-2.01 3.67 -1.02 3.34 0 3 C0 2.01 0 1.02 0 0 Z " fill="#FA2D45" transform="translate(360,466)"/>
<path d="M0 0 C0.99 0 1.98 0 3 0 C2.67 0.99 2.34 1.98 2 3 C0.02 3 -1.96 3 -4 3 C-4 3.66 -4 4.32 -4 5 C-6.97 5.66 -9.94 6.32 -13 7 C-10.13493591 3.61401517 -8.67554243 2.13510849 -4.25 1.25 C-2.64125 1.12625 -2.64125 1.12625 -1 1 C-0.67 0.67 -0.34 0.34 0 0 Z " fill="#F7667B" transform="translate(309,321)"/>
<path d="M0 0 C4.11050664 1.45076705 7.53714127 3.34245725 11 6 C11 6.99 11 7.98 11 9 C8.83125748 8.49396008 7.00032373 8.00016187 5 7 C4.67 6.01 4.34 5.02 4 4 C1.99983534 2.79117904 1.99983534 2.79117904 0 2 C0 1.34 0 0.68 0 0 Z " fill="#6F4A51" transform="translate(463,321)"/>
<path d="M0 0 C0.66 0 1.32 0 2 0 C1.979375 0.763125 1.95875 1.52625 1.9375 2.3125 C1.87057159 5.10185786 1.87057159 5.10185786 3 8 C1.625 9.5 1.625 9.5 0 11 C-0.66 11 -1.32 11 -2 11 C-2.25 3.375 -2.25 3.375 0 0 Z " fill="#F7465D" transform="translate(365,388)"/>
<path d="M0 0 C0 0.66 0 1.32 0 2 C-2.10320063 2.50404808 -4.20759791 3.00310508 -6.3125 3.5 C-8.07013672 3.91765625 -8.07013672 3.91765625 -9.86328125 4.34375 C-13 5 -13 5 -16 5 C-14 2 -14 2 -12.01171875 1.26953125 C-7.96093659 0.47299089 -4.15399957 -0.26799997 0 0 Z " fill="#FC6280" transform="translate(321,316)"/>
<path d="M0 0 C-5.27377728 2.92987626 -10.02749309 3.11710798 -16 3 C-16 2.34 -16 1.68 -16 1 C-10.26696495 -0.57300962 -5.84340558 -1.24327778 0 0 Z " fill="#FB2E47" transform="translate(457,507)"/>
<path d="M0 0 C2.96783129 1.45668783 5.86415313 3.01232086 8.75 4.625 C9.94882813 5.29402344 9.94882813 5.29402344 11.171875 5.9765625 C11.77515625 6.31429688 12.3784375 6.65203125 13 7 C11.02 7.99 11.02 7.99 9 9 C7.68103535 8.07161713 6.37001311 7.13194268 5.0625 6.1875 C4.33160156 5.66542969 3.60070312 5.14335937 2.84765625 4.60546875 C1 3 1 3 0 0 Z " fill="#EF3359" transform="translate(160,389)"/>
<path d="M0 0 C0.99 0.33 1.98 0.66 3 1 C2.01 1.33 1.02 1.66 0 2 C-1.10836423 3.88316159 -1.10836423 3.88316159 -2 6 C-2.99 7.485 -2.99 7.485 -4 9 C-4.45394552 11.27912938 -4.45394552 11.27912938 -4.625 13.6875 C-4.69976562 14.49574219 -4.77453125 15.30398438 -4.8515625 16.13671875 C-4.90054687 16.75160156 -4.94953125 17.36648438 -5 18 C-5.33 18 -5.66 18 -6 18 C-6.55839416 7.34914842 -6.55839416 7.34914842 -3 3 C-1.3125 1.1875 -1.3125 1.1875 0 0 Z " fill="#FBDCDB" transform="translate(397,437)"/>
<path d="M0 0 C0.66 0 1.32 0 2 0 C2.66 1.32 3.32 2.64 4 4 C-1.61 4.66 -7.22 5.32 -13 6 C-10.41073669 3.41073669 -8.97294721 3.62601957 -5.375 3.375 C-4.37210937 3.30023438 -3.36921875 3.22546875 -2.3359375 3.1484375 C-1.56507813 3.09945313 -0.79421875 3.05046875 0 3 C0 2.01 0 1.02 0 0 Z " fill="#888081" transform="translate(286,489)"/>
<path d="M0 0 C-3.06532816 2.04355211 -4.38354689 2.38658825 -7.9375 2.75 C-8.79214844 2.84796875 -9.64679688 2.9459375 -10.52734375 3.046875 C-13.23766556 2.99549449 -14.70187794 2.38633814 -17 1 C-16.06027344 0.90912109 -16.06027344 0.90912109 -15.1015625 0.81640625 C-13.87566406 0.69072266 -13.87566406 0.69072266 -12.625 0.5625 C-11.81289063 0.48128906 -11.00078125 0.40007812 -10.1640625 0.31640625 C-3.4214876 -0.66942149 -3.4214876 -0.66942149 0 0 Z " fill="#F62A44" transform="translate(347,444)"/>
<path d="M0 0 C2.72168665 3.17530109 4.85559053 5.94254825 6 10 C5.625 12.3125 5.625 12.3125 5 14 C4.54625 13.071875 4.0925 12.14375 3.625 11.1875 C2.0578367 7.96078611 2.0578367 7.96078611 0 5 C-0.125 2.3125 -0.125 2.3125 0 0 Z " fill="#F96F88" transform="translate(477,335)"/>
<path d="M0 0 C2.31 0.33 4.62 0.66 7 1 C7.33 1.99 7.66 2.98 8 4 C6.68 4 5.36 4 4 4 C3.67 4.66 3.34 5.32 3 6 C2.34 6 1.68 6 1 6 C0.67 4.02 0.34 2.04 0 0 Z " fill="#EB556C" transform="translate(456,320)"/>
<path d="M0 0 C0.33 0.99 0.66 1.98 1 3 C1.99 3.33 2.98 3.66 4 4 C3.67 4.99 3.34 5.98 3 7 C2.34 7 1.68 7 1 7 C1 6.34 1 5.68 1 5 C-0.32 5 -1.64 5 -3 5 C-1.125 1.125 -1.125 1.125 0 0 Z " fill="#F8253C" transform="translate(299,494)"/>
<path d="M0 0 C-0.185625 0.78375 -0.37125 1.5675 -0.5625 2.375 C-1.25962266 4.97089775 -1.25962266 4.97089775 0 7 C-2.97 6.505 -2.97 6.505 -6 6 C-6 5.01 -6 4.02 -6 3 C-2.66666667 0 -2.66666667 0 0 0 Z " fill="#F42A45" transform="translate(429,457)"/>
<path d="M0 0 C0.33 0.66 0.66 1.32 1 2 C0.0625 4.125 0.0625 4.125 -1 6 C-0.34 6.33 0.32 6.66 1 7 C-1.97 6.67 -4.94 6.34 -8 6 C-7.01 5.34 -6.02 4.68 -5 4 C-3.32576317 2.67618483 -1.65788785 1.34423339 0 0 Z " fill="#F3415A" transform="translate(356,471)"/>
<path d="M0 0 C2.56616632 3.84924948 2.55097676 6.4349304 3 11 C2.67 10.34 2.34 9.68 2 9 C1.34 9 0.68 9 0 9 C-1.10844919 5.67465243 -0.84454356 3.37817425 0 0 Z " fill="#F85167" transform="translate(481,346)"/>
<path d="M0 0 C2.97 0.33 5.94 0.66 9 1 C9 1.33 9 1.66 9 2 C7.35 2 5.7 2 4 2 C3.67 2.99 3.34 3.98 3 5 C2.01 4.67 1.02 4.34 0 4 C0 2.68 0 1.36 0 0 Z " fill="#F95772" transform="translate(447,318)"/>
<path d="M0 0 C0.66 0 1.32 0 2 0 C3.38232443 1.62626404 4.71937515 3.2925002 6 5 C3.03 4.67 0.06 4.34 -3 4 C-2.01 3.67 -1.02 3.34 0 3 C0 2.01 0 1.02 0 0 Z " fill="#F71F36" transform="translate(320,505)"/>
<path d="M0 0 C0.99 1.32 1.98 2.64 3 4 C2.67 4.66 2.34 5.32 2 6 C-0.4375 5.1875 -0.4375 5.1875 -3 4 C-3.33 3.01 -3.66 2.02 -4 1 C-2.68 0.67 -1.36 0.34 0 0 Z " fill="#EA6E84" transform="translate(474,329)"/>
<path d="M0 0 C0.33 0.66 0.66 1.32 1 2 C-1.60582371 2.93065133 -2.64198224 3.14917407 -5.25 2.0625 C-5.8275 1.711875 -6.405 1.36125 -7 1 C-3.375 -1.125 -3.375 -1.125 0 0 Z " fill="#F73B51" transform="translate(310,504)"/>
<path d="M0 0 C-3 2 -3 2 -6 2 C-6 2.66 -6 3.32 -6 4 C-7.32 3.67 -8.64 3.34 -10 3 C-9.01 3 -8.02 3 -7 3 C-7 2.01 -7 1.02 -7 0 C-3.86650268 -1.04449911 -3.01031744 -0.93423645 0 0 Z " fill="#F8DBDE" transform="translate(425,460)"/>
<path d="M0 0 C0.66 0.33 1.32 0.66 2 1 C1.34 2.65 0.68 4.3 0 6 C-0.66 6 -1.32 6 -2 6 C-2.33 4.68 -2.66 3.36 -3 2 C-2.01 1.34 -1.02 0.68 0 0 Z " fill="#F82B45" transform="translate(392,438)"/>
<path d="M0 0 C0.66 0 1.32 0 2 0 C1.50168276 3.68754757 0.89932357 5.60490662 -2 8 C-2.66 7.67 -3.32 7.34 -4 7 C-3.34 5.68 -2.68 4.36 -2 3 C-1.34 3 -0.68 3 0 3 C0 2.01 0 1.02 0 0 Z " fill="#F3233C" transform="translate(360,466)"/>
</svg>
