<?xml version="1.0" encoding="UTF-8"?>
<svg version="1.1" xmlns="http://www.w3.org/2000/svg" width="640" height="640">
<path d="M0 0 C1.08453964 -0.00570007 2.16907928 -0.01140015 3.28648376 -0.01727295 C5.58005818 -0.02668257 7.87364587 -0.03324078 10.16723633 -0.03710938 C13.59026474 -0.04670105 17.0126619 -0.07771597 20.43554688 -0.109375 C35.37542536 -0.18143815 49.82879892 0.91227042 64.58984375 3.203125 C66.53322632 3.50138184 66.53322632 3.50138184 68.51586914 3.80566406 C71.55252281 4.3066585 74.57044283 4.85757633 77.58984375 5.453125 C79.19255127 5.76781738 79.19255127 5.76781738 80.82763672 6.08886719 C116.46970912 13.36104625 150.5206517 27.43021934 181.58984375 46.203125 C182.23856445 46.59322754 182.88728516 46.98333008 183.55566406 47.38525391 C199.40032614 56.99998482 214.14875534 68.33729785 227.91210938 80.72265625 C230.32016448 82.84757566 232.80588682 84.87826025 235.29589844 86.90625 C236.58984375 88.203125 236.58984375 88.203125 236.58984375 90.203125 C237.45609375 90.574375 237.45609375 90.574375 238.33984375 90.953125 C240.91924354 92.38612488 242.65105967 93.98737176 244.58984375 96.203125 C244.58984375 96.863125 244.58984375 97.523125 244.58984375 98.203125 C245.24984375 98.203125 245.90984375 98.203125 246.58984375 98.203125 C248 99.6015625 248 99.6015625 249.65234375 101.578125 C252.29105476 104.69462731 254.99300043 107.71628399 257.77734375 110.703125 C272.99693078 127.62524211 285.56202201 147.35148413 296.58984375 167.203125 C297.20029541 168.30148682 297.81074707 169.39984863 298.43969727 170.53149414 C303.21078811 179.23015847 307.33080238 188.06217167 311.02734375 197.265625 C311.30231689 197.94610901 311.57729004 198.62659302 311.8605957 199.32769775 C321.08632457 222.27586866 327.72866268 245.75284328 331.58984375 270.203125 C331.75210449 271.1528418 331.91436523 272.10255859 332.08154297 273.08105469 C337.29050109 304.27029618 337.02907993 339.07206357 331.58984375 370.203125 C331.34041016 371.69948486 331.34041016 371.69948486 331.0859375 373.22607422 C325.66116769 405.09659684 315.91857958 436.83489728 300.5625 465.37109375 C299.53853924 467.2997588 298.56187067 469.24781217 297.58984375 471.203125 C285.94515235 494.34025407 270.15519601 515.30065223 252.99511719 534.60986328 C250.56975756 537.35967165 248.2153854 540.17115002 245.859375 542.98046875 C244.58984375 544.203125 244.58984375 544.203125 242.58984375 544.203125 C242.58984375 544.863125 242.58984375 545.523125 242.58984375 546.203125 C241.92984375 546.203125 241.26984375 546.203125 240.58984375 546.203125 C240.58984375 546.863125 240.58984375 547.523125 240.58984375 548.203125 C239.92984375 548.203125 239.26984375 548.203125 238.58984375 548.203125 C238.58984375 548.863125 238.58984375 549.523125 238.58984375 550.203125 C237.19140625 551.61328125 237.19140625 551.61328125 235.21484375 553.265625 C232.06806167 555.93378812 228.99776687 558.65620748 225.96484375 561.453125 C210.81054593 575.08507326 194.00348367 587.00994311 176.35449219 597.17822266 C174.66353971 598.16032261 172.98949227 599.17135674 171.31640625 600.18359375 C139.07171098 619.36957039 101.54018323 631.46802375 64.58984375 637.203125 C63.71682617 637.35120605 62.84380859 637.49928711 61.94433594 637.65185547 C30.5810492 642.8492321 -4.0959906 642.55320386 -35.41015625 637.203125 C-36.42948242 637.04215332 -37.44880859 636.88118164 -38.49902344 636.71533203 C-71.93655939 631.37824603 -104.59677191 620.27291287 -134.41015625 604.203125 C-135.45743896 603.64939209 -135.45743896 603.64939209 -136.52587891 603.08447266 C-152.74006499 594.4933474 -167.93898834 584.48212352 -182.41015625 573.203125 C-183.24546875 572.56117188 -184.08078125 571.91921875 -184.94140625 571.2578125 C-190.33052872 567.0454288 -195.40193279 562.55876369 -200.38867188 557.88330078 C-202.6553197 555.76497387 -204.81963954 553.93013614 -207.41015625 552.203125 C-207.41015625 551.543125 -207.41015625 550.883125 -207.41015625 550.203125 C-207.98765625 549.955625 -208.56515625 549.708125 -209.16015625 549.453125 C-211.73955604 548.02012512 -213.47137217 546.41887824 -215.41015625 544.203125 C-215.41015625 543.543125 -215.41015625 542.883125 -215.41015625 542.203125 C-216.07015625 542.203125 -216.73015625 542.203125 -217.41015625 542.203125 C-218.8203125 540.8046875 -218.8203125 540.8046875 -220.47265625 538.828125 C-223.04492127 535.78769723 -225.68084048 532.85270054 -228.41015625 529.953125 C-241.51258244 515.36027003 -252.17753677 498.87159766 -262.41015625 482.203125 C-263.43882812 480.56150391 -263.43882812 480.56150391 -264.48828125 478.88671875 C-287.01376982 441.88807747 -299.60186905 397.97809559 -304.41015625 355.203125 C-304.49234406 354.5769075 -304.57453186 353.95069 -304.65921021 353.30549622 C-305.42882463 347.12558472 -305.58724098 341.01643845 -305.61328125 334.79296875 C-305.61898132 333.70842911 -305.6246814 332.62388947 -305.6305542 331.50648499 C-305.63996382 329.21291057 -305.64652203 326.91932288 -305.65039062 324.62573242 C-305.6599823 321.20270401 -305.69099722 317.78030685 -305.72265625 314.35742188 C-305.79465499 299.41663711 -304.69390887 284.9657066 -302.41015625 270.203125 C-302.21663574 268.92880615 -302.02311523 267.6544873 -301.82373047 266.34155273 C-301.33895149 263.3665239 -300.80337905 260.41078952 -300.22265625 257.453125 C-300.01616455 256.39786621 -299.80967285 255.34260742 -299.59692383 254.25537109 C-295.69011673 235.11889996 -290.16561467 216.39565875 -282.39257812 198.47070312 C-281.42541505 196.23834461 -280.48662778 193.99563597 -279.55078125 191.75 C-266.08407626 159.94162175 -246.62002992 130.67804948 -223.2578125 105.296875 C-221.27070286 103.13979237 -221.27070286 103.13979237 -219.41015625 100.203125 C-218.75015625 100.203125 -218.09015625 100.203125 -217.41015625 100.203125 C-217.03890625 99.34460938 -217.03890625 99.34460938 -216.66015625 98.46875 C-215.21699426 95.85301889 -213.52799403 94.05539044 -211.41015625 91.953125 C-210.35828125 90.89351562 -210.35828125 90.89351562 -209.28515625 89.8125 C-207.41015625 88.203125 -207.41015625 88.203125 -205.41015625 88.203125 C-205.41015625 87.543125 -205.41015625 86.883125 -205.41015625 86.203125 C-204.1171875 84.86328125 -204.1171875 84.86328125 -202.22265625 83.265625 C-201.11470703 82.32783203 -201.11470703 82.32783203 -199.984375 81.37109375 C-199.13488281 80.65566406 -198.28539062 79.94023438 -197.41015625 79.203125 C-196.02763672 77.99076172 -196.02763672 77.99076172 -194.6171875 76.75390625 C-170.91560986 56.07078066 -143.28710546 38.66724635 -114.41015625 26.203125 C-113.66008301 25.87892578 -112.91000977 25.55472656 -112.13720703 25.22070312 C-82.75073379 12.68149682 -52.14434363 4.77032995 -20.41015625 1.203125 C-19.78393875 1.12093719 -19.15772125 1.03874939 -18.51252747 0.95407104 C-12.33261597 0.18445662 -6.2234697 0.02604027 0 0 Z " fill="#010101" transform="translate(305.41015625,-0.203125)"/>
<path d="M0 0 C23.76 0 47.52 0 72 0 C72.66 6.93 73.32 13.86 74 21 C74.91581062 24.89838307 75.75796426 28.25731514 77.125 31.9375 C77.42994385 32.80028564 77.7348877 33.66307129 78.04907227 34.55200195 C87.53721984 60.37429758 106.6082637 78.98332207 131.0625 90.72265625 C144.38709425 96.51672848 156.36655873 98.02443725 171 99 C171 122.76 171 146.52 171 171 C149.96933646 171 149.96933646 171 143.625 169.875 C142.8530127 169.74448242 142.08102539 169.61396484 141.28564453 169.47949219 C118.79185226 165.39629625 96.28178895 156.61820009 77.27734375 143.86938477 C76.47417725 143.33136734 75.67101074 142.79334991 74.84350586 142.23902893 C74.23514893 141.83014938 73.62679199 141.42126984 73 141 C72.99668985 141.78076967 72.99337971 142.56153934 72.98996925 143.3659687 C72.90854378 162.4146917 72.81638828 181.46333559 72.71247292 200.51194954 C72.66247444 209.72393276 72.61603069 218.93590765 72.578125 228.14794922 C72.54505494 236.18257535 72.50514227 244.21713428 72.45720994 252.25168598 C72.43209329 256.50098968 72.41026932 260.75024967 72.39665604 264.99960709 C72.38369963 269.01003985 72.3615034 273.02032152 72.33261681 277.03067017 C72.32364591 278.49219998 72.31787578 279.95375405 72.31578636 281.41530991 C72.26042493 314.29745539 62.23628947 344.79490888 41 370 C40.57493164 370.51014648 40.14986328 371.02029297 39.71191406 371.54589844 C18.23922749 397.02552728 -13.95432585 413.06858259 -46.94360352 416.82568359 C-82.06078782 419.80249347 -116.9793377 409.62848702 -144 387 C-147.40831956 384.07448588 -150.72650022 381.07510585 -154 378 C-154.88365234 377.21302734 -154.88365234 377.21302734 -155.78515625 376.41015625 C-171.78830445 361.5419831 -182.64117852 339.91302791 -188 319 C-188.30421875 317.86433594 -188.6084375 316.72867187 -188.921875 315.55859375 C-197.19238227 283.76395496 -191.79459387 248.62303174 -176 220 C-171.32961728 212.15848193 -165.8636568 204.98109238 -160 198 C-159.37480469 197.23945313 -158.74960938 196.47890625 -158.10546875 195.6953125 C-140.96468241 175.51736036 -117.01739173 163.18936668 -92 156 C-90.75476563 155.63648438 -89.50953125 155.27296875 -88.2265625 154.8984375 C-77.32951978 152.32452233 -52.43056968 148.78471516 -42 154 C-42 178.09 -42 202.18 -42 227 C-44.64 226.67 -47.28 226.34 -50 226 C-53.50051295 225.81229225 -56.99482742 225.81501447 -60.5 225.8125 C-61.84771484 225.79413086 -61.84771484 225.79413086 -63.22265625 225.77539062 C-79.22050048 225.74046083 -92.17704831 232.54214675 -103.75 243.3125 C-114.92071466 255.0993452 -119.17633492 268.52058134 -119.1875 284.375 C-119.19974609 285.2825 -119.21199219 286.19 -119.22460938 287.125 C-119.25281179 300.17331842 -114.97435322 312.21254852 -106.453125 322.16015625 C-105 324 -105 324 -104 327 C-102.68883466 327.70927263 -101.35116611 328.37026008 -100 329 C-98.64844647 330.08178781 -97.31633879 331.18812729 -96 332.3125 C-84.58304117 341.28563268 -68.40600915 345.58288249 -54 344 C-36.1350893 340.62890278 -21.68182413 333.04053461 -11.01171875 318.19921875 C-7.97864506 313.37574817 -5.87159675 308.3667473 -4 303 C-3.64808594 302.05898438 -3.29617188 301.11796875 -2.93359375 300.1484375 C-0.69238072 292.59020445 -0.84872388 284.8822134 -0.84178162 277.06640625 C-0.83684364 275.87942422 -0.83190566 274.69244219 -0.82681805 273.469491 C-0.81415894 270.19250908 -0.80584146 266.91554994 -0.79939139 263.638551 C-0.7913528 260.09808738 -0.77766704 256.55764495 -0.76467896 253.01719666 C-0.74296507 246.88898384 -0.72480209 240.76076883 -0.70907402 234.63253784 C-0.68632891 225.77222434 -0.65819261 216.91193436 -0.62875474 208.05164087 C-0.58113562 193.67522541 -0.53785611 179.29880031 -0.49731445 164.92236328 C-0.45793058 150.95979055 -0.41649746 136.99722637 -0.37231445 123.03466797 C-0.36822804 121.74295807 -0.36822804 121.74295807 -0.36405908 120.42515302 C-0.35037913 116.10492139 -0.33665895 111.7846899 -0.32291877 107.46445847 C-0.20904325 71.64298911 -0.10301531 35.82150255 0 0 Z " fill="#FEFEFE" transform="translate(320,103)"/>
<path d="M0 0 C10.395 0.99 10.395 0.99 21 2 C21 25.76 21 49.52 21 74 C-15.06518195 74 -48.12374729 62.9886943 -78 43 C-77.99815641 43.77984788 -77.99631283 44.55969576 -77.99441338 45.36317539 C-77.95011978 64.39548595 -77.91708793 83.42778614 -77.89637566 102.46013737 C-77.88609147 111.66428041 -77.8720862 120.86838891 -77.84912109 130.07250977 C-77.82909927 138.10087259 -77.81626283 146.12921038 -77.81182301 154.15759748 C-77.80923043 158.40305556 -77.80319728 162.64844205 -77.78853989 166.89387703 C-77.77481654 170.90179845 -77.77080667 174.9096198 -77.77378464 178.91756248 C-77.77324099 180.37708203 -77.76935237 181.83660543 -77.76158905 183.29610443 C-77.56530334 222.15191518 -92.01141321 255.34259983 -119 283 C-144.52567564 308.21438692 -178.82632497 319.54664453 -214.11572266 319.42431641 C-224.77762281 319.21776029 -234.73749596 317.85538807 -245 315 C-245.6712793 314.81808105 -246.34255859 314.63616211 -247.03417969 314.44873047 C-264.60524461 309.54548318 -280.78603901 300.34757907 -294.80859375 288.796875 C-296.83264053 287.1372288 -298.89431457 285.55408219 -301 284 C-300.67 283.34 -300.34 282.68 -300 282 C-298.35064453 282.90492188 -298.35064453 282.90492188 -296.66796875 283.828125 C-267.92356841 299.44256843 -235.18813807 305.49666928 -203 298 C-202.25862793 297.82839355 -201.51725586 297.65678711 -200.75341797 297.47998047 C-189.8539692 294.87778649 -179.91027861 291.21636132 -170 286 C-169.39671875 285.68659668 -168.7934375 285.37319336 -168.171875 285.05029297 C-159.66865798 280.58292441 -152.2255363 275.35847194 -145 269 C-144.11957031 268.27554687 -143.23914063 267.55109375 -142.33203125 266.8046875 C-118.20476006 246.26343208 -103.21645039 214.35846352 -100.2103138 183.02898026 C-99.78517121 176.90599394 -99.81929508 170.77136477 -99.79467773 164.63623047 C-99.78508046 163.1076787 -99.77506934 161.57912947 -99.76467896 160.05058289 C-99.737824 155.92942211 -99.71671034 151.80825012 -99.69667697 147.6870513 C-99.67469657 143.36956369 -99.64736728 139.0521099 -99.62062073 134.73464966 C-99.57085586 126.5716208 -99.52585742 118.408573 -99.48259836 110.24550736 C-99.43308682 100.94676014 -99.37822063 91.64804688 -99.32291877 82.34933257 C-99.20934775 63.23291997 -99.10245527 44.11647525 -99 25 C-98.03718613 25.55058075 -97.07437225 26.1011615 -96.0823822 26.66842651 C-94.80744825 27.39728483 -93.53251008 28.12613576 -92.25756836 28.85498047 C-91.62436424 29.21710129 -90.99116013 29.57922211 -90.33876801 29.95231628 C-61.12276049 46.65244574 -33.71063003 54.12718722 0 56 C0 37.52 0 19.04 0 0 Z " fill="#EB1C50" transform="translate(491,218)"/>
<path d="M0 0 C23.76 0 47.52 0 72 0 C72.33 5.61 72.66 11.22 73 17 C55.84 17 38.68 17 21 17 C21.00999275 22.40308029 21.00999275 22.40308029 21.02018738 27.91531372 C21.07994412 60.98284526 21.12470034 94.05037003 21.15319599 127.11794377 C21.1569479 131.45607069 21.16083088 135.79419749 21.16479492 140.13232422 C21.16558185 140.99593016 21.16636878 141.85953609 21.16717956 142.74931191 C21.18021668 156.71403742 21.20386116 170.67872571 21.23145839 184.64342918 C21.25955979 198.98335182 21.27618625 213.32325503 21.28226548 227.66320407 C21.28637212 236.50446437 21.2993204 245.34561943 21.3237494 254.18684731 C21.3396651 260.25798317 21.34438722 266.32906499 21.34050413 272.40022017 C21.33859161 275.89763684 21.34142495 279.3948702 21.35761642 282.89225388 C21.45555178 307.69578512 19.74820696 327.13662284 2.375 346.1875 C-10.06680091 357.9987223 -26.23152144 362.65777605 -43.07495117 362.47314453 C-59.00573537 361.87393846 -73.20046155 354.62376937 -84 343 C-85.27734375 340.7265625 -85.27734375 340.7265625 -86 339 C-85.05898437 339.27714844 -84.11796875 339.55429687 -83.1484375 339.83984375 C-81.90320313 340.20207031 -80.65796875 340.56429688 -79.375 340.9375 C-78.14523438 341.29714844 -76.91546875 341.65679687 -75.6484375 342.02734375 C-59.55946491 346.31658805 -44.29342816 343.48251546 -29.70703125 335.61328125 C-16.80919139 327.92668982 -8.92911348 317.13408443 -4 303 C-3.64808594 302.05898438 -3.29617188 301.11796875 -2.93359375 300.1484375 C-0.69238072 292.59020445 -0.84872388 284.8822134 -0.84178162 277.06640625 C-0.83684364 275.87942422 -0.83190566 274.69244219 -0.82681805 273.469491 C-0.81415894 270.19250908 -0.80584146 266.91554994 -0.79939139 263.638551 C-0.7913528 260.09808738 -0.77766704 256.55764495 -0.76467896 253.01719666 C-0.74296507 246.88898384 -0.72480209 240.76076883 -0.70907402 234.63253784 C-0.68632891 225.77222434 -0.65819261 216.91193436 -0.62875474 208.05164087 C-0.58113562 193.67522541 -0.53785611 179.29880031 -0.49731445 164.92236328 C-0.45793058 150.95979055 -0.41649746 136.99722637 -0.37231445 123.03466797 C-0.36959018 122.17352803 -0.36686591 121.3123881 -0.36405908 120.42515302 C-0.35037913 116.10492139 -0.33665895 111.7846899 -0.32291877 107.46445847 C-0.20904325 71.64298911 -0.10301531 35.82150255 0 0 Z " fill="#69C9CF" transform="translate(320,103)"/>
<path d="M0 0 C0 5.28 0 10.56 0 16 C-1.7634375 16.23074219 -3.526875 16.46148437 -5.34375 16.69921875 C-18.29048227 18.45788157 -30.80502831 20.16972539 -43 25 C-43.71414062 25.27827637 -44.42828125 25.55655273 -45.1640625 25.84326172 C-79.0260406 39.29059795 -104.45946297 64.91593942 -118.94970703 98.18017578 C-120.94753599 103.03236768 -122.56973125 107.95332387 -124 113 C-124.20882812 113.72638672 -124.41765625 114.45277344 -124.6328125 115.20117188 C-130.04676777 134.95525549 -130.7509141 158.27327955 -125 178 C-124.5809441 179.58955754 -124.16306324 181.17942513 -123.74609375 182.76953125 C-118.45662873 202.23224018 -109.43390591 218.47719402 -96.56640625 234.0390625 C-95 236 -95 236 -94 238 C-116.36693611 227.75910214 -133.17967642 200.70521236 -141.91503906 178.69433594 C-143.53243456 174.19437325 -144.81284664 169.63291628 -146 165 C-146.30421875 163.86433594 -146.6084375 162.72867188 -146.921875 161.55859375 C-155.19238227 129.76395496 -149.79459387 94.62303174 -134 66 C-129.32961728 58.15848193 -123.8636568 50.98109238 -118 44 C-117.37480469 43.23945313 -116.74960938 42.47890625 -116.10546875 41.6953125 C-98.96468241 21.51736036 -75.01739173 9.18936668 -50 2 C-48.75476563 1.63648438 -47.50953125 1.27296875 -46.2265625 0.8984375 C-35.32951978 -1.67547767 -10.43056968 -5.21528484 0 0 Z " fill="#68C7CE" transform="translate(278,257)"/>
<path d="M0 0 C15 0 15 0 21 1 C21 25.09 21 49.18 21 74 C15.555 73.505 15.555 73.505 10 73 C-8.23916585 72.15918739 -24.50692499 75.68087734 -38.4375 88.25 C-50.84219739 99.99149596 -56.5169864 114.84183291 -57.375 131.6875 C-57.09074438 142.70240513 -53.93513033 153.65220206 -48.171875 162.99609375 C-47 165 -47 165 -47 167 C-58.76718517 162.78551169 -67.510949 152.33687225 -72.859375 141.328125 C-76.97812186 132.25882453 -78.18055332 124.48928992 -78.1875 114.625 C-78.19974609 113.7175 -78.21199219 112.81 -78.22460938 111.875 C-78.25989452 95.54974122 -71.24720017 82.62567503 -60.3125 70.8125 C-48.42344112 59.41588735 -34.78132767 54.8238777 -18.625 54.8125 C-17.7175 54.80025391 -16.81 54.78800781 -15.875 54.77539062 C-14.53308594 54.77249023 -14.53308594 54.77249023 -13.1640625 54.76953125 C-12.36436035 54.76542236 -11.5646582 54.76131348 -10.74072266 54.75708008 C-7.09753444 55.07998871 -3.54826756 56.11293311 0 57 C0 38.19 0 19.38 0 0 Z " fill="#EC1B4F" transform="translate(278,273)"/>
<path d="M0 0 C6.6 0 13.2 0 20 0 C20.268125 3.0525 20.53625 6.105 20.8125 9.25 C22.65093178 28.01468298 28.52376999 43.55007809 39.08203125 59.109375 C40.58557955 61.37541521 41.8696522 63.53596142 43 66 C29.07207975 58.26226653 18.7042918 45.6894441 11 32 C10.43796875 31.01515625 9.8759375 30.0303125 9.296875 29.015625 C4.73883588 20.49807715 0 9.78746175 0 0 Z " fill="#E91B4F" transform="translate(393,120)"/>
<path d="M0 0 C1.41539062 0.68835938 1.41539062 0.68835938 2.859375 1.390625 C19.13837956 9.21145356 33.97302262 13.01671032 52 14 C52 19.28 52 24.56 52 30 C34.21067414 26.68334603 19.84367834 18.21355717 6 7 C5.4323291 6.55414551 4.8646582 6.10829102 4.27978516 5.64892578 C2.81558081 4.47816292 1.40291831 3.24354343 0 2 C0 1.34 0 0.68 0 0 Z " fill="#67C5CC" transform="translate(439,188)"/>
<path d="M0 0 C2.97 1.65 5.94 3.3 9 5 C8.67 5.99 8.34 6.98 8 8 C6.66102417 7.04956626 5.32894573 6.08940853 4 5.125 C3.2575 4.59132813 2.515 4.05765625 1.75 3.5078125 C1.1725 3.01023437 0.595 2.51265625 0 2 C0 1.34 0 0.68 0 0 Z " fill="#DF1043" transform="translate(190,500)"/>
</svg>
