<?xml version="1.0" encoding="UTF-8"?>
<svg version="1.1" xmlns="http://www.w3.org/2000/svg" width="1292" height="1292">
<path d="M0 0 C426.36 0 852.72 0 1292 0 C1292 426.36 1292 852.72 1292 1292 C865.64 1292 439.28 1292 0 1292 C0 865.64 0 439.28 0 0 Z " fill="#1DA1F2" transform="translate(0,0)"/>
<path d="M0 0 C3.44083229 3.13532711 6.84857126 6.30950876 10.140625 9.6015625 C45.38898224 8.91304817 85.45437103 -12.11893866 115.140625 -29.3984375 C115.470625 -28.7384375 115.800625 -28.0784375 116.140625 -27.3984375 C115.10170417 -24.47913072 113.99153664 -21.67666109 112.765625 -18.8359375 C112.40130371 -17.98620361 112.03698242 -17.13646973 111.66162109 -16.26098633 C98.78123304 13.27829305 76.92464672 45.70955164 47.140625 60.6015625 C69.48049097 58.79996041 90.69941027 53.29307247 111.828125 46.0390625 C112.52125793 45.8016333 113.21439087 45.5642041 113.92852783 45.31958008 C120.93415112 42.90896262 127.86475364 40.48141128 134.51489258 37.18774414 C135.05138428 36.9943042 135.58787598 36.80086426 136.140625 36.6015625 C136.800625 36.9315625 137.460625 37.2615625 138.140625 37.6015625 C128.98611449 50.66808727 119.54417911 63.2811101 108.625 74.93359375 C106.57283217 77.13741549 104.59281716 79.37256075 102.640625 81.6640625 C95.76197002 89.58193874 88.14531142 96.83703876 80.140625 103.6015625 C79.12965095 104.47591844 78.11928388 105.35097647 77.109375 106.2265625 C75.99511715 107.18527426 74.88053255 108.14360638 73.765625 109.1015625 C73.26047363 109.54048828 72.75532227 109.97941406 72.23486328 110.43164062 C71.46505127 111.0880957 71.46505127 111.0880957 70.6796875 111.7578125 C69.8738623 112.46188232 69.8738623 112.46188232 69.05175781 113.18017578 C67.140625 114.6015625 67.140625 114.6015625 64.53417969 115.83154297 C61.35227201 117.47569839 59.40237761 118.80211426 57.140625 121.6015625 C55.57884222 126.87378704 55.94083116 132.54972625 56.07434082 137.99136353 C56.14165056 140.76888177 56.14918565 143.54083552 56.13964844 146.3190918 C56.12777601 150.03800858 56.13274721 153.75621043 56.15039062 157.47509766 C56.21994291 201.85865969 47.11742488 246.63816759 33.140625 288.6015625 C32.79418945 289.66101074 32.44775391 290.72045898 32.09082031 291.81201172 C11.61628014 354.23781697 -21.22617842 412.42548494 -64.859375 461.6015625 C-65.69597656 462.5503125 -66.53257812 463.4990625 -67.39453125 464.4765625 C-73.96410826 471.7524416 -80.85147615 478.72087537 -87.75796509 485.67538452 C-88.85029902 486.77577227 -89.94114953 487.87763497 -91.03036499 488.98110962 C-97.23411197 495.25739265 -103.52840697 501.16197657 -110.44067383 506.67089844 C-112.46344589 508.28552259 -114.4262288 509.93322055 -116.36328125 511.6484375 C-125.39490034 519.64440007 -134.95318621 526.72788048 -144.859375 533.6015625 C-145.58640625 534.106875 -146.3134375 534.6121875 -147.0625 535.1328125 C-189.75957781 564.62144178 -237.55942653 586.77011459 -287.859375 599.6015625 C-288.77944336 599.83713867 -289.69951172 600.07271484 -290.64746094 600.31542969 C-307.94949664 604.6956128 -325.41349153 607.99633931 -343.046875 610.7265625 C-344.03510254 610.88519775 -345.02333008 611.04383301 -346.04150391 611.20727539 C-367.89319412 614.47079497 -389.91314657 614.95554066 -411.96313477 614.91723633 C-414.85066278 614.91259923 -417.73777005 614.91957419 -420.62524414 614.93774414 C-438.60044561 615.04975986 -456.17457643 614.3614584 -474.02839661 611.97285461 C-476.84920683 611.60289609 -479.67194004 611.27323911 -482.49926758 610.95727539 C-508.28252512 608.06571801 -534.21017816 601.56529139 -558.859375 593.6015625 C-559.68646973 593.33553223 -560.51356445 593.06950195 -561.36572266 592.79541016 C-594.94081997 581.84453661 -627.6611486 566.91875164 -657.859375 548.6015625 C-658.49891113 548.21436035 -659.13844727 547.8271582 -659.79736328 547.42822266 C-666.22153293 543.51044587 -666.22153293 543.51044587 -668.859375 541.6015625 C-668.859375 541.2715625 -668.859375 540.9415625 -668.859375 540.6015625 C-668.04774902 540.67084961 -667.23612305 540.74013672 -666.39990234 540.81152344 C-654.43186536 541.7290022 -642.48379918 541.84367478 -630.484375 541.8515625 C-629.41800812 541.85256958 -628.35164124 541.85357666 -627.25296021 541.85461426 C-611.54991594 541.84458988 -596.36221946 541.26756702 -580.859375 538.6015625 C-578.88442293 538.29488268 -576.90915275 537.9902455 -574.93359375 537.6875 C-562.69019106 535.74891125 -550.7568994 533.0708924 -538.859375 529.6015625 C-538.17858887 529.40449707 -537.49780273 529.20743164 -536.79638672 529.00439453 C-497.08731165 517.38104597 -457.97327058 498.89860152 -425.859375 472.6015625 C-426.7412146 472.53424927 -426.7412146 472.53424927 -427.64086914 472.46557617 C-453.58294836 470.43422662 -476.87810102 465.17241117 -499.859375 452.6015625 C-501.06094588 451.96827157 -502.26276573 451.33545277 -503.46484375 450.703125 C-539.52718154 431.33659026 -565.71556344 396.84963151 -578.859375 358.6015625 C-578.859375 357.9415625 -578.859375 357.2815625 -578.859375 356.6015625 C-578.12460937 356.7459375 -577.38984375 356.8903125 -576.6328125 357.0390625 C-553.71946781 360.8316161 -530.53247891 358.95887764 -507.859375 354.6015625 C-511.37388915 353.15565354 -514.86121128 352.00748351 -518.52929688 351.00512695 C-543.79093181 344.03630082 -565.90202919 330.62342245 -584.859375 312.6015625 C-585.39320801 312.10027832 -585.92704102 311.59899414 -586.47705078 311.08251953 C-606.24464983 292.41962966 -619.73938625 270.16138154 -628.859375 244.6015625 C-629.48972656 242.84392578 -629.48972656 242.84392578 -630.1328125 241.05078125 C-635.66029966 224.36441963 -637.06894813 207.06598972 -636.859375 189.6015625 C-636.26737305 189.87307129 -635.67537109 190.14458008 -635.06542969 190.42431641 C-612.9600289 200.48887557 -590.49373436 209.04015644 -565.859375 208.6015625 C-566.705 207.88871094 -567.550625 207.17585937 -568.421875 206.44140625 C-582.32728598 194.70781765 -582.32728598 194.70781765 -586.859375 190.6015625 C-587.40464844 190.11042969 -587.94992187 189.61929688 -588.51171875 189.11328125 C-603.04622804 175.33114656 -613.44182317 157.57704633 -621.859375 139.6015625 C-622.32085938 138.6425 -622.78234375 137.6834375 -623.2578125 136.6953125 C-639.93983113 99.71860879 -640.78165464 53.84457514 -626.68359375 16.01953125 C-623.21614833 7.34187218 -619.04301198 -1.04854364 -614.859375 -9.3984375 C-613.539375 -9.3984375 -612.219375 -9.3984375 -610.859375 -9.3984375 C-608.9921875 -7.51953125 -608.9921875 -7.51953125 -606.984375 -4.8359375 C-597.42486105 7.32511889 -586.39246754 18.16147106 -575.484375 29.1015625 C-574.96849823 29.6201181 -574.45262146 30.13867371 -573.92111206 30.67294312 C-568.08277698 36.53426605 -562.19447458 42.27174319 -555.859375 47.6015625 C-555.23160156 48.13604004 -554.60382813 48.67051758 -553.95703125 49.22119141 C-523.91813944 74.66151805 -491.0090386 95.94698452 -455.859375 113.6015625 C-455.00827148 114.03178711 -454.15716797 114.46201172 -453.28027344 114.90527344 C-396.45168833 143.4420894 -334.95277694 156.85186323 -271.859375 161.6015625 C-272.06433594 160.67214844 -272.26929688 159.74273438 -272.48046875 158.78515625 C-272.74988281 157.54894531 -273.01929688 156.31273437 -273.296875 155.0390625 C-273.69712891 153.21181641 -273.69712891 153.21181641 -274.10546875 151.34765625 C-282.13642263 111.44255383 -272.05468709 68.02314865 -249.984375 34.27587891 C-244.82969209 26.60426099 -239.11339696 19.5625241 -232.84765625 12.77734375 C-231.25230679 11.03154876 -229.76001768 9.26868148 -228.296875 7.4140625 C-205.29395884 -19.12776384 -164.06620829 -38.4701928 -129.12255859 -41.27392578 C-81.42698136 -43.8979543 -36.19156987 -32.32842477 0 0 Z " fill="#FEFEFE" transform="translate(911.859375,359.3984375)"/>
</svg>
