<?xml version="1.0" encoding="UTF-8"?>
<svg version="1.1" xmlns="http://www.w3.org/2000/svg" width="300" height="300">
<path d="M0 0 C0.77168028 -0.00297112 1.54336057 -0.00594224 2.3384251 -0.0090034 C4.92060967 -0.01766514 7.50274774 -0.01919653 10.08494568 -0.02069092 C11.93811135 -0.02532099 13.79127608 -0.0303459 15.6444397 -0.03573608 C20.67784631 -0.04884645 25.7112396 -0.05530273 30.74466062 -0.05974674 C33.89245803 -0.0626805 37.04025182 -0.06678595 40.18804741 -0.07125092 C50.04558087 -0.0849241 59.90310603 -0.09459085 69.76064831 -0.09845281 C81.12270245 -0.10292909 92.48463603 -0.12045778 103.84665352 -0.1494534 C112.6392283 -0.17110921 121.43176927 -0.18115922 130.22437042 -0.18249393 C135.47068828 -0.18353943 140.71689278 -0.18939269 145.96318245 -0.20731354 C150.90359578 -0.22386102 155.84381136 -0.22591744 160.78424263 -0.21717453 C162.59011364 -0.21640764 164.39599558 -0.22070056 166.20183945 -0.23063278 C184.62358685 -0.32594961 198.09005392 2.69672491 211.93821716 15.65216064 C221.3128072 25.67164697 225.42314399 37.33923522 225.40678406 50.88082886 C225.41124074 52.03940763 225.41124074 52.03940763 225.41578746 53.22139204 C225.42444918 55.80591058 225.42598058 58.39038266 225.42747498 60.97491455 C225.43210501 62.82970274 225.43712992 64.68448998 225.44252014 66.53927612 C225.45562996 71.5767477 225.46208656 76.61420595 225.4665308 81.65169191 C225.46946436 84.80149164 225.47356975 87.95128776 225.47803497 91.10108566 C225.49170737 100.96342248 225.50137478 110.825751 225.50523686 120.68809664 C225.50971441 132.05865081 225.52724932 143.42908458 225.55623746 154.79960215 C225.57788472 163.5972568 225.5879428 172.39487766 225.58927798 181.19255865 C225.590324 186.44275696 225.59618842 191.69284205 225.6140976 196.94301224 C225.63063049 201.88588478 225.6327085 206.82855963 225.62395859 211.77145004 C225.62319095 213.57935365 225.62749463 215.38726811 225.63741684 217.19514465 C225.72997698 235.12041901 222.78133064 249.1756806 210.01243591 262.58966064 C199.83292733 272.04516435 188.27605851 276.29749563 174.5259552 276.28088379 C173.75356935 276.28385491 172.9811835 276.28682603 172.18539202 276.28988719 C169.60087348 276.29854891 167.0164014 276.30008031 164.43186951 276.30157471 C162.57708132 276.30620474 160.72229407 276.31122965 158.86750793 276.31661987 C153.83003636 276.32972969 148.79257811 276.33618629 143.75509214 276.34063053 C140.60529241 276.34356409 137.4554963 276.34766948 134.30569839 276.3521347 C124.44336158 276.3658071 114.58103305 276.37547451 104.71868742 276.3793366 C93.34813325 276.38381414 81.97769948 276.40134905 70.60718191 276.43033719 C61.80952726 276.45198445 53.0119064 276.46204253 44.21422541 276.46337771 C38.9640271 276.46442374 33.71394201 276.47028815 28.46377182 276.48819733 C23.52089928 276.50473022 18.57822443 276.50680823 13.63533401 276.49805832 C11.82743041 276.49729068 10.01951595 276.50159436 8.2116394 276.51151657 C-9.71363495 276.60407671 -23.76889654 273.65543037 -37.18287659 260.88653564 C-46.63588302 250.70971554 -50.89072365 239.15379901 -50.87409973 225.40678406 C-50.87707085 224.63510377 -50.88004198 223.86342349 -50.88310313 223.06835896 C-50.89176487 220.48617439 -50.89329626 217.90403632 -50.89479065 215.32183838 C-50.89942072 213.4686727 -50.90444564 211.61550798 -50.90983582 209.76234436 C-50.92294618 204.72893774 -50.92940246 199.69554446 -50.93384647 194.66212344 C-50.93678024 191.51432603 -50.94088569 188.36653224 -50.94535065 185.21873665 C-50.95902384 175.36120319 -50.96869059 165.50367803 -50.97255254 155.64613575 C-50.97702882 144.28408161 -50.99455751 132.92214803 -51.02355313 121.56013054 C-51.04520894 112.76755575 -51.05525895 103.97501479 -51.05659366 95.18241364 C-51.05763916 89.93609578 -51.06349242 84.68989128 -51.08141327 79.44360161 C-51.09796075 74.50318828 -51.10001717 69.5629727 -51.09127426 64.62254143 C-51.09050737 62.81667041 -51.09480029 61.01078847 -51.10473251 59.20494461 C-51.20004934 40.78319721 -48.17737482 27.31673014 -35.22193909 13.46856689 C-25.20510873 4.09646188 -13.53854681 -0.01637182 0 0 Z M-9.73365784 50.14044189 C-10.43044888 53.20632246 -10.25476809 55.10049697 -8.83912659 57.92559814 C-3.98942172 65.52981816 1.88610827 72.56850042 7.39085388 79.70587158 C16.37161524 91.363793 25.26831865 103.07832643 33.9594574 114.95391846 C39.12642586 121.99637056 44.42279062 128.93714572 49.76243591 135.84942627 C53.82760817 141.14080079 57.64230712 146.53735979 61.26634216 152.14044189 C54.44818024 159.81987829 47.43546624 167.30138291 40.38743591 174.76934814 C36.62552859 178.75579459 32.87921134 182.75645938 29.14134216 186.76544189 C28.57197937 187.37605469 28.00261658 187.98666748 27.41600037 188.61578369 C26.27194143 189.84298787 25.12797939 191.07028238 23.9841156 192.29766846 C21.66332055 194.78734455 19.34091815 197.2755179 17.01829529 199.76348877 C15.85786096 201.00671885 14.69770102 202.25020511 13.53782654 203.49395752 C10.50230414 206.74850295 7.46203977 209.99844368 4.41477966 213.24200439 C3.78313904 213.91553955 3.15149841 214.58907471 2.50071716 215.28302002 C1.29646815 216.56696199 0.09082671 217.84959996 -1.11647034 219.13067627 C-6.9485302 224.46515354 -6.9485302 224.46515354 -9.73365784 231.14044189 C4.24821923 233.16438418 4.24821923 233.16438418 16.93821716 228.80841064 C19.54399623 226.15044699 21.68233337 223.15453341 23.81028748 220.10821533 C26.44397657 216.54893732 29.57327259 213.44853979 32.64134216 210.26544189 C33.92067219 208.90663217 35.19801603 207.54594971 36.47337341 206.18341064 C37.10453064 205.51100342 37.73568787 204.83859619 38.38597107 204.14581299 C41.3720152 200.96126787 44.35086953 197.77003357 47.32884216 194.57794189 C47.89433777 193.97192139 48.45983337 193.36590088 49.04246521 192.74151611 C52.07937363 189.48642036 55.11474086 186.22989444 58.14915466 182.97247314 C58.78587097 182.28935059 59.42258728 181.60622803 60.07859802 180.90240479 C61.29862515 179.59342892 62.51821259 178.28404306 63.73728943 176.97418213 C64.28699402 176.3845166 64.83669861 175.79485107 65.40306091 175.18731689 C66.12562073 174.4114624 66.12562073 174.4114624 66.86277771 173.61993408 C67.85679678 172.57214219 68.88894903 171.55993364 69.94529724 170.57501221 C71.49214246 169.22026506 71.49214246 169.22026506 71.26634216 167.14044189 C74.62561985 168.26020112 75.07548972 168.87646792 77.05931091 171.65606689 C77.5989447 172.40203125 78.13857849 173.14799561 78.69456482 173.91656494 C79.27512634 174.73294434 79.85568787 175.54932373 80.45384216 176.39044189 C81.71394134 178.13249996 82.97572351 179.87334162 84.23899841 181.61309814 C84.89787048 182.52204834 85.55674255 183.43099854 86.23558044 184.36749268 C89.55712612 188.90297186 92.97275024 193.36540789 96.39134216 197.82794189 C101.74003834 204.816699 107.05887031 211.82476993 112.28636169 218.90484619 C113.13627247 220.04756635 113.99925139 221.18075876 114.87879944 222.30082703 C116.26634216 224.14044189 116.26634216 224.14044189 117.3757782 225.97793579 C119.54510067 229.18132806 121.17799232 230.88454785 125.01631165 231.78701782 C128.49585743 232.03496037 131.91116468 232.05801935 135.39915466 231.99981689 C137.303246 232.0027475 137.303246 232.0027475 139.24580383 232.0057373 C141.92541056 232.001741 144.60065897 231.98419051 147.27952576 231.94317627 C150.70776448 231.89199331 154.13342285 231.89432579 157.56190681 231.91378403 C160.84116724 231.92656687 164.11999367 231.8994646 167.39915466 231.87481689 C169.24297226 231.88058746 169.24297226 231.88058746 171.1240387 231.88647461 C172.26557404 231.86425842 173.40710938 231.84204224 174.58323669 231.81915283 C175.58662079 231.80914246 176.59000488 231.79913208 177.62379456 231.78881836 C181.24877948 230.89939071 182.30322554 229.23397427 184.26634216 226.14044189 C185.01731986 221.72844793 184.08883325 219.5624526 181.59544373 215.96783447 C178.76468196 212.07579703 175.82595486 208.26688782 172.89134216 204.45294189 C167.53416126 197.45816541 162.22910011 190.43104063 157.01634216 183.32794189 C156.45092712 182.55901611 155.88551208 181.79009033 155.30296326 180.99786377 C153.041508 177.92171061 150.78120374 174.84476097 148.52806091 171.76251221 C146.86343346 169.48821025 145.19076895 167.22003433 143.51634216 164.95294189 C142.7636908 163.91786499 142.7636908 163.91786499 141.99583435 162.86187744 C140.8010641 161.25101908 139.53995352 159.68971745 138.26634216 158.14044189 C137.60634216 158.14044189 136.94634216 158.14044189 136.26634216 158.14044189 C136.1607196 157.5617334 136.05509705 156.9830249 135.9462738 156.38677979 C135.16346921 153.80057331 134.07188694 152.30517516 132.38743591 150.19903564 C131.79914001 149.45508545 131.21084412 148.71113525 130.60472107 147.94464111 C129.97743103 147.16363037 129.35014099 146.38261963 128.70384216 145.57794189 C127.42777611 143.96570965 126.15303232 142.35242994 124.87962341 140.73809814 C124.26039001 139.95450928 123.64115662 139.17092041 123.00315857 138.36358643 C119.63132823 134.04760567 116.43463081 129.6075321 113.26634216 125.14044189 C115.49432774 121.01866858 118.15251098 118.07432087 121.51634216 114.82794189 C125.41829111 111.01834677 129.11635388 107.11614245 132.65696716 102.96856689 C134.80129538 100.5327766 137.10844597 98.28593409 139.42381287 96.01422119 C141.20034372 94.2075597 142.86101953 92.34663353 144.51243591 90.42559814 C148.180382 86.20750858 151.98305521 82.13362047 155.82884216 78.07794189 C157.23400863 76.58986699 158.638952 75.10158139 160.04368591 73.61309814 C160.74606384 72.86947021 161.44844177 72.12584229 162.17210388 71.35968018 C165.41935627 67.91860717 168.65805136 64.4696326 171.89134216 61.01544189 C172.44636414 60.4249707 173.00138611 59.83449951 173.57322693 59.22613525 C176.31096793 56.29875277 179.01298905 53.34132398 181.66477966 50.33575439 C182.16413025 49.77130615 182.66348083 49.20685791 183.17796326 48.62530518 C184.46340206 47.17843342 184.46340206 47.17843342 184.26634216 45.14044189 C171.22653554 43.17358277 171.22653554 43.17358277 158.8981781 46.50128174 C154.58340427 50.12532661 151.21296605 54.51399518 147.87034607 59.02471924 C145.54022716 62.09820638 142.9240896 64.85168809 140.26634216 67.64044189 C139.29327322 68.69354752 138.32194247 69.74826167 137.35227966 70.80450439 C133.26051078 75.23703217 129.12911888 79.63238876 124.9997406 84.02984619 C119.90134931 89.45951484 114.81832628 94.90333173 109.74534607 100.35675049 C109.20055603 100.94150146 108.65576599 101.52625244 108.09446716 102.12872314 C107.61912537 102.63959473 107.14378357 103.15046631 106.65403748 103.67681885 C106.19609802 104.15981445 105.73815857 104.64281006 105.26634216 105.14044189 C104.75426208 105.69755859 104.24218201 106.25467529 103.71458435 106.82867432 C102.26634216 108.14044189 102.26634216 108.14044189 100.26634216 108.14044189 C98.96043396 106.66607666 98.96043396 106.66607666 97.46556091 104.58184814 C96.90755798 103.81243896 96.34955505 103.04302979 95.77464294 102.25030518 C95.17377869 101.40967529 94.57291443 100.56904541 93.95384216 99.70294189 C92.67517432 97.94029384 91.39520054 96.17859249 90.11399841 94.41778564 C89.46705017 93.52688232 88.82010193 92.635979 88.15354919 91.71807861 C85.45116172 88.02702985 82.68059552 84.39107736 79.89134216 80.76544189 C78.83144486 79.38653677 77.77154907 78.00763049 76.71165466 76.62872314 C75.89036072 75.5606543 75.89036072 75.5606543 75.05247498 74.4710083 C73.05130117 71.85985396 71.06041076 69.2410601 69.07102966 66.62091064 C68.35608337 65.67973389 67.64113708 64.73855713 66.90452576 63.76885986 C65.51324895 61.93659374 64.12289982 60.10362273 62.73362732 58.26983643 C62.09473572 57.42920654 61.45584412 56.58857666 60.79759216 55.72247314 C60.23620544 54.98230957 59.67481873 54.242146 59.09642029 53.47955322 C58.19053162 52.32169312 58.19053162 52.32169312 57.26634216 51.14044189 C56.63736023 50.07164795 56.0083783 49.002854 55.3603363 47.90167236 C53.49647484 45.7032823 52.46972794 45.18275115 49.60920715 44.58769226 C46.13573969 44.36014446 42.71192407 44.33548726 39.23118591 44.37872314 C37.96037674 44.37535446 36.68956757 44.37198578 35.38024902 44.36851501 C32.69511957 44.36881391 30.01321624 44.38095304 27.32859802 44.41314697 C23.89253508 44.4529721 20.45872478 44.4436098 17.02258968 44.41891193 C13.73783313 44.40130187 10.45340777 44.42271455 7.16868591 44.44122314 C5.93633713 44.43423904 4.70398834 44.42725494 3.43429565 44.4200592 C2.28953262 44.4390477 1.14476959 44.45803619 -0.03468323 44.4776001 C-1.54428368 44.48809135 -1.54428368 44.48809135 -3.0843811 44.49879456 C-6.71387764 45.37784836 -7.75917703 47.05419784 -9.73365784 50.14044189 Z " fill="#000000" transform="translate(62.73365783691406,11.85955810546875)"/>
<path d="M0 0 C8.50284376 0.22150724 8.50284376 0.22150724 12.6628418 2.56567383 C14.52916914 4.90129044 16.01910716 7.23796192 17.4128418 9.88012695 C19.632238 13.77809176 22.48804732 17.26569887 25.18237305 20.84301758 C26.39612029 22.49946599 27.60834546 24.1570307 28.8190918 25.81567383 C32.29331292 30.53837134 35.87477642 35.16914958 39.49487305 39.78051758 C44.82582986 46.57765455 49.99304953 53.4772122 55.09326172 60.44873047 C60.92058446 68.3987765 66.90296078 76.22735988 72.8894043 84.05786133 C76.30479874 88.52562802 79.68068601 93.02075856 83.0456543 97.52661133 C85.70900424 101.07812907 88.41028596 104.60056702 91.10644531 108.12719727 C97.72823565 116.79011573 104.28506634 125.49329415 110.71435547 134.30029297 C111.24134033 135.02079834 111.7683252 135.74130371 112.3112793 136.48364258 C112.82319824 137.18424805 113.33511719 137.88485352 113.86254883 138.60668945 C116.22078761 141.74724556 118.70001136 144.78953552 121.18994141 147.82641602 C122.49487305 149.78051758 122.49487305 149.78051758 122.49487305 152.78051758 C99.21441484 154.85580414 99.21441484 154.85580414 93.8894043 150.49536133 C91.36776251 147.38841 89.41375741 144.28815566 87.49487305 140.78051758 C86.31081416 139.11713507 85.10246062 137.47076592 83.86987305 135.84301758 C83.23049805 134.94711914 82.59112305 134.0512207 81.93237305 133.12817383 C78.6742898 128.60701373 75.25773575 124.20462542 71.86987305 119.78051758 C66.55175093 112.82914933 61.294259 105.83955212 56.11987305 98.78051758 C51.48016685 92.45135314 46.77009281 86.19070379 41.96362305 79.98754883 C39.22726507 76.44722073 36.54815512 72.86487188 33.86987305 69.28051758 C28.49225399 62.08404954 23.04339903 54.9435774 17.58520508 47.80810547 C12.29979508 40.88027555 7.11712487 33.88133568 2.01098633 26.8203125 C-0.63999826 23.1814798 -3.30561942 19.95759866 -6.50512695 16.78051758 C-6.83512695 15.79051758 -7.16512695 14.80051758 -7.50512695 13.78051758 C-8.16512695 13.45051758 -8.82512695 13.12051758 -9.50512695 12.78051758 C-10.51541325 11.05325391 -11.52209344 9.32337071 -12.4855957 7.56958008 C-13.66399982 5.50172918 -15.01930841 3.63779075 -16.50512695 1.78051758 C-13.40154366 -1.32306571 -4.15167467 0.03614678 0 0 Z " fill="#000000" transform="translate(96.505126953125,73.219482421875)"/>
</svg>
