<?xml version="1.0" encoding="UTF-8"?>
<svg version="1.1" xmlns="http://www.w3.org/2000/svg" width="512" height="512">
<path d="M0 0 C1.26249057 -0.00538554 2.52498115 -0.01077108 3.82572901 -0.01631981 C7.28637082 -0.03062263 10.74677143 -0.02657799 14.20742559 -0.019153 C17.95669051 -0.01438555 21.70590587 -0.02696249 25.45515442 -0.03717041 C32.78328057 -0.05429416 40.11132074 -0.05521185 47.43946169 -0.04995751 C53.40057427 -0.0459026 59.36166159 -0.04737498 65.32277298 -0.05270576 C66.17384318 -0.05345419 67.02491338 -0.05420261 67.90177358 -0.05497371 C69.63117341 -0.05650532 71.36057323 -0.05804366 73.08997305 -0.05958868 C89.27771547 -0.07329044 105.46540945 -0.06789237 121.65315075 -0.05640347 C136.43367911 -0.04647321 151.21408224 -0.0594123 165.99459128 -0.08333766 C181.20509167 -0.10777182 196.41553384 -0.11732596 211.62605345 -0.11068493 C220.1520595 -0.10720233 228.67796931 -0.10936115 237.20396042 -0.12693596 C244.46166131 -0.14171206 251.71919817 -0.14222316 258.97689603 -0.12486505 C262.67316456 -0.11639696 266.36914075 -0.11410154 270.06539345 -0.1295166 C293.74232918 -0.22112767 314.0670808 0.7250137 331.82608032 18.2743988 C345.8976339 33.02926627 348.3075812 49.57843499 348.14736938 69.15281677 C348.14623878 71.10559567 348.14687893 73.05837626 348.1491394 75.01115417 C348.15027915 80.27064004 348.12689049 85.52975518 348.09884357 90.78915548 C348.07370569 96.30107295 348.0714782 101.81300049 348.06674194 107.32496643 C348.0543484 117.74395904 348.02157608 128.16278219 347.98134398 138.58170044 C347.93651317 150.4511828 347.91461086 162.32067359 347.89456224 174.19021964 C347.85284003 198.58946677 347.78255885 222.98856388 347.69326782 247.38768005 C349.67716471 247.61618042 351.6610616 247.84468079 353.6449585 248.07318115 C366.13516165 249.99093602 378.90313259 258.73742277 386.69326782 268.38768005 C392.69656037 277.17185263 396.94057033 285.7380848 396.94723511 296.57374573 C396.95035509 297.26223567 396.95347507 297.95072561 396.9566896 298.66007888 C396.9646154 300.94843748 396.95836741 303.23652689 396.95205688 305.52488708 C396.95476911 307.17295994 396.95833134 308.82103159 396.962677 310.46910095 C396.9717743 314.93172013 396.96826811 319.39424657 396.96191883 323.85686731 C396.95684678 328.53103029 396.96155348 333.20518546 396.96469116 337.87934875 C396.96832657 345.72572757 396.96354211 353.57206869 396.95401001 361.41844177 C396.9431187 370.48836951 396.94665766 379.55820737 396.95766282 388.62813294 C396.96673876 396.4202276 396.96801969 404.21229522 396.96278548 412.00439346 C396.95966845 416.65630115 396.95924928 421.30816659 396.96585846 425.96007156 C396.97163601 430.3316748 396.96762752 434.70316209 396.95606995 439.07475281 C396.95342588 440.67876366 396.95418413 442.28278427 396.95859528 443.88679123 C396.96406202 446.07651972 396.95720321 448.26587682 396.94723511 450.45558167 C396.94610403 452.29336528 396.94610403 452.29336528 396.9449501 454.16827583 C396.69326782 457.38768005 396.69326782 457.38768005 394.69326782 462.38768005 C311.20326782 462.38768005 227.71326782 462.38768005 141.69326782 462.38768005 C138.2966987 454.4623521 138.2966987 454.4623521 137.56826782 450.57518005 C137.4213147 449.82623474 137.27436157 449.07728943 137.12295532 448.3056488 C135.89080569 439.93823265 135.56087211 431.71468503 135.63076782 423.26268005 C135.63527954 422.21080505 135.63979126 421.15893005 135.6444397 420.07518005 C135.65608771 417.51261785 135.67244229 414.95018128 135.69326782 412.38768005 C134.93495667 412.39136723 134.17664551 412.3950544 133.39535522 412.3988533 C114.88012782 412.48747897 96.36494316 412.55352258 77.84954834 412.59492874 C68.89535874 412.61548852 59.94131139 412.64348198 50.98721313 412.68943787 C43.17601671 412.72950857 35.36492338 412.75516062 27.55362701 412.76403403 C23.42373376 412.76921482 19.29413524 412.78125125 15.16433716 412.81060028 C11.26385261 412.83809067 7.36377948 412.84605857 3.46320724 412.84011078 C2.04440436 412.84119621 0.62558526 412.84894766 -0.79313278 412.86450195 C-19.39031659 413.05810275 -35.32658094 408.63320597 -49.09310913 395.69358826 C-58.51409448 386.45559488 -65.77229447 374.25646363 -66.43553334 360.76826906 C-66.43732192 359.82335714 -66.43911049 358.87844522 -66.44095325 357.9048996 C-66.4454111 356.80917523 -66.44986894 355.71345086 -66.45446187 354.58452272 C-66.45427751 353.38619672 -66.45409315 352.18787072 -66.4539032 350.95323181 C-66.45757989 349.6758966 -66.46125657 348.39856139 -66.46504468 347.08251905 C-66.47504344 343.53881802 -66.47877805 339.99513392 -66.48143399 336.45142078 C-66.4853434 332.62844946 -66.49492133 328.80549148 -66.50364685 324.98252869 C-66.52339402 315.75050894 -66.53347557 306.51848812 -66.54237464 297.28645253 C-66.54676069 292.93574913 -66.5521267 288.58504693 -66.55736351 284.23434448 C-66.57437458 269.76590986 -66.58886765 255.29747598 -66.59611225 240.8290329 C-66.59802205 237.07579548 -66.5999424 233.32255807 -66.60189819 229.56932068 C-66.6026238 228.17009744 -66.6026238 228.17009744 -66.60336407 226.74260706 C-66.61166029 211.63939698 -66.63699086 196.53626621 -66.66947887 181.43309075 C-66.70258286 165.91666782 -66.72056406 150.40028515 -66.72375649 134.88382673 C-66.72591857 126.17612254 -66.73462284 117.46853397 -66.76021767 108.76086426 C-66.7819704 101.3433102 -66.78995269 93.92589987 -66.78025088 86.50831753 C-66.77571928 82.72741238 -66.77752533 78.94680347 -66.79701233 75.16593933 C-66.81800919 71.05641916 -66.80761674 66.94755023 -66.79447937 62.83799744 C-66.80544862 61.65751721 -66.81641786 60.47703698 -66.82771951 59.26078463 C-66.70446207 43.22194378 -60.65008301 29.25594696 -49.65438843 17.6728363 C-35.66896961 4.05974145 -19.21527521 -0.10036828 0 0 Z " fill="#35AAF2" transform="translate(115.30673217773438,49.61231994628906)"/>
<path d="M0 0 C2.66266977 0.00051964 5.32532363 0.00004968 7.98799133 -0.00151062 C13.54453646 -0.00238814 19.10095832 0.00857529 24.6574707 0.02709961 C31.04971848 0.04829024 37.44178646 0.05176714 43.83406228 0.04553765 C50.02933505 0.0398131 56.22454556 0.04552385 62.41980934 0.0567112 C65.03630128 0.06054069 67.65279857 0.06172083 70.26929283 0.06012535 C73.93182807 0.05975175 77.59409686 0.07245608 81.2565918 0.08862305 C82.85368736 0.08490692 82.85368736 0.08490692 84.48304749 0.08111572 C94.96489993 0.1544296 104.28026218 1.17330686 113.48828125 6.36328125 C114.47828125 6.69328125 115.46828125 7.02328125 116.48828125 7.36328125 C117.98828125 8.921875 117.98828125 8.921875 119.48828125 10.80078125 C121.45257057 13.25102757 122.80898993 14.57708703 125.48828125 16.36328125 C125.48828125 17.35328125 125.48828125 18.34328125 125.48828125 19.36328125 C126.14828125 19.36328125 126.80828125 19.36328125 127.48828125 19.36328125 C128.28514731 20.90226686 129.07551266 22.44461909 129.86328125 23.98828125 C130.30414063 24.84679687 130.745 25.7053125 131.19921875 26.58984375 C134.48882433 33.66748 134.7747753 39.60425112 134.74707031 47.31616211 C134.75232727 49.1147744 134.75232727 49.1147744 134.75769043 50.94972229 C134.76496905 54.22664696 134.7632845 57.50340924 134.75693226 60.78033137 C134.75185289 64.21769843 134.75656919 67.65505498 134.75970459 71.09242249 C134.76333909 76.8649387 134.75855922 82.63740368 134.74902344 88.40991211 C134.73814502 95.0718805 134.74166205 101.7337264 134.75267625 108.39569181 C134.76177002 114.12667095 134.76302405 119.85761333 134.75779891 125.58859736 C134.75469002 129.00650797 134.75423993 132.42436113 134.76087189 135.84226799 C134.76595684 139.65526453 134.75819857 143.46802674 134.74707031 147.28100586 C134.75111877 148.40590424 134.75516724 149.53080261 134.75933838 150.68978882 C134.70629473 160.51200363 132.81643106 170.31377314 126.23828125 177.98828125 C124.87703125 179.16390625 124.87703125 179.16390625 123.48828125 180.36328125 C122.90046875 180.91757812 122.31265625 181.471875 121.70703125 182.04296875 C104.99260413 197.49718113 83.61236156 195.83915785 62.140625 195.83203125 C59.51282085 195.83914875 56.88501823 195.84685001 54.25721741 195.85510254 C48.77650624 195.86960772 43.29590899 195.87033199 37.81518555 195.86425781 C31.5239021 195.85761274 25.23320424 195.88053437 18.94203943 195.91757154 C12.8300335 195.95221651 6.71830023 195.95858645 0.60620308 195.95448303 C-1.96792791 195.95616362 -4.54206742 195.96570236 -7.11613655 195.98362732 C-41.31438369 196.19569328 -41.31438369 196.19569328 -54.39453125 184.546875 C-57.78599525 181.04903667 -60.74013698 177.36581694 -63.51171875 173.36328125 C-64.10984375 172.53828125 -64.70796875 171.71328125 -65.32421875 170.86328125 C-66.79672248 167.76327339 -67.43820649 164.71187596 -68.08203125 161.3515625 C-68.43882195 159.30225036 -68.43882195 159.30225036 -69.51171875 157.36328125 C-69.60584545 155.90554431 -69.63801603 154.44357587 -69.63870239 152.98280334 C-69.64152222 152.06197968 -69.64434204 151.14115601 -69.64724731 150.19242859 C-69.64522308 149.17896866 -69.64319885 148.16550873 -69.64111328 147.12133789 C-69.6428656 146.05606873 -69.64461792 144.99079956 -69.64642334 143.89324951 C-69.65084234 140.35329583 -69.64790181 136.81339173 -69.64453125 133.2734375 C-69.64520472 130.81400035 -69.64617511 128.35456326 -69.64743042 125.89512634 C-69.64890782 120.72752248 -69.64675313 115.55993585 -69.64208984 110.39233398 C-69.63641941 103.78851208 -69.63965417 97.18473105 -69.64566231 90.58091068 C-69.64928978 85.49435625 -69.64811884 80.40781137 -69.64553452 75.32125664 C-69.64486989 72.8881473 -69.64567737 70.45503709 -69.64801407 68.02192879 C-69.65057348 64.60452129 -69.64665274 61.18717814 -69.64111328 57.76977539 C-69.64313751 56.77453354 -69.64516174 55.77929169 -69.64724731 54.75389099 C-69.59983981 38.84613478 -67.5372156 24.79356894 -56.32421875 12.73828125 C-40.59341588 -2.01566234 -20.15607236 -0.07805053 0 0 Z " fill="#FA3F58" transform="translate(350.51171875,315.63671875)"/>
<path d="M0 0 C2.83172459 1.44873568 5.27127018 3.05030667 7.74731445 5.04882812 C11.01078272 7.63146939 12.91483783 7.31207083 17.01293945 6.84179688 C23.47109748 5.42839529 29.04812147 2.98472303 34.78637695 -0.26757812 C37.35688722 -1.29578223 38.46257675 -1.11313345 41.01293945 -0.15820312 C40.72501839 5.31229704 38.33967434 8.97259836 35.4855957 13.47460938 C34.19155033 15.55469292 33.0665705 17.63273469 32.01293945 19.84179688 C32.6884082 19.63683594 33.36387695 19.431875 34.05981445 19.22070312 C34.9518457 18.95128906 35.84387695 18.681875 36.76293945 18.40429688 C37.6446582 18.13746094 38.52637695 17.870625 39.43481445 17.59570312 C41.6185978 16.95711193 43.80129444 16.37403855 46.01293945 15.84179688 C46.70043945 17.57617188 46.70043945 17.57617188 47.01293945 19.84179688 C45.82543945 21.91992188 45.82543945 21.91992188 44.01293945 24.09179688 C43.36454102 24.87554687 42.71614258 25.65929687 42.0480957 26.46679688 C41.37649414 27.25054687 40.70489258 28.03429687 40.01293945 28.84179688 C39.41352539 29.56367188 38.81411133 30.28554687 38.1965332 31.02929688 C34.74703599 35.10387076 31.15588674 38.48798241 27.01293945 41.84179688 C25.8712949 44.12508599 25.78779771 45.67518322 25.6184082 48.21679688 C24.71313603 60.42642162 23.06713791 71.98716098 20.01293945 83.84179688 C19.80024414 84.75703125 19.58754883 85.67226563 19.3684082 86.61523438 C14.51182168 105.47758978 1.83868529 122.61233373 -10.98706055 136.84179688 C-11.63030273 137.56882812 -12.27354492 138.29585937 -12.9362793 139.04492188 C-31.98033416 159.36959648 -62.71823088 172.8282777 -90.39526367 173.98413086 C-118.45823715 174.6765435 -141.98889729 171.68317876 -166.98706055 157.84179688 C-167.64706055 157.18179688 -168.30706055 156.52179688 -168.98706055 155.84179688 C-168.43150499 151.28624132 -168.43150499 151.28624132 -166.98706055 149.84179688 C-165.0281732 149.76497776 -163.06886139 149.69430653 -161.10888672 149.65380859 C-145.39662702 149.26357549 -131.36985575 145.74556694 -117.5769043 138.19726562 C-114.98706055 136.84179688 -114.98706055 136.84179688 -112.98706055 136.84179688 C-112.98706055 136.18179688 -112.98706055 135.52179688 -112.98706055 134.84179688 C-114.84331055 134.81085938 -114.84331055 134.81085938 -116.73706055 134.77929688 C-127.25546845 133.5408658 -135.20585938 126.461305 -141.8503418 118.69335938 C-145.79919888 113.42340385 -148.98706055 108.52351401 -148.98706055 101.84179688 C-144.53206055 101.34679687 -144.53206055 101.34679687 -139.98706055 100.84179688 C-140.54393555 100.51308594 -141.10081055 100.184375 -141.67456055 99.84570312 C-152.63901828 93.01143809 -158.67309838 84.36341387 -163.29956055 72.46679688 C-164.28834982 67.2531807 -164.14339939 62.13126096 -163.98706055 56.84179688 C-159.90976343 57.62345487 -155.9709244 58.67007221 -151.98706055 59.84179688 C-152.36217773 59.39191406 -152.73729492 58.94203125 -153.1237793 58.47851562 C-162.80312582 46.3122841 -164.91757777 34.17084369 -163.98706055 18.84179688 C-162.88108749 13.44922478 -160.59061122 8.67696242 -157.98706055 3.84179688 C-154.46780573 4.1052705 -153.15533351 4.67817536 -150.5847168 7.17773438 C-149.74811523 8.180625 -148.91151367 9.18351563 -148.04956055 10.21679688 C-135.72901009 24.31282553 -119.59102498 34.58200207 -101.98706055 40.84179688 C-100.9919043 41.25042969 -99.99674805 41.6590625 -98.97143555 42.08007812 C-88.85421872 46.06814383 -78.73123673 47.51228614 -67.98706055 48.84179688 C-68.0334668 47.74222656 -68.07987305 46.64265625 -68.12768555 45.50976562 C-68.58336741 30.16267886 -64.87618941 19.28247239 -54.48706055 7.71679688 C-40.12241254 -6.2015708 -17.64145813 -8.32503162 0 0 Z " fill="#FDFEFE" transform="translate(316.987060546875,171.158203125)"/>
<path d="M0 0 C15.17054089 1.89631761 29.28611387 8.96664016 39 21 C45.00329255 29.78417258 49.2473025 38.35040475 49.25396729 49.18606567 C49.25708727 49.87455562 49.26020725 50.56304556 49.26342177 51.27239883 C49.27134758 53.56075743 49.26509959 55.84884684 49.25878906 58.13720703 C49.26150129 59.78527989 49.26506352 61.43335154 49.26940918 63.0814209 C49.27850648 67.54404008 49.27500028 72.00656651 49.26865101 76.46918726 C49.26357895 81.14335024 49.26828566 85.8175054 49.27142334 90.4916687 C49.27505874 98.33804751 49.27027429 106.18438863 49.26074219 114.03076172 C49.24985087 123.10068945 49.25338984 132.17052732 49.264395 141.24045289 C49.27347094 149.03254755 49.27475187 156.82461516 49.26951766 164.6167134 C49.26640063 169.2686211 49.26598146 173.92048654 49.27259064 178.57239151 C49.27836819 182.94399475 49.27435969 187.31548204 49.26280212 191.68707275 C49.26015806 193.2910836 49.26091631 194.89510421 49.26532745 196.49911118 C49.2707942 198.68883966 49.26393539 200.87819677 49.25396729 203.06790161 C49.25283621 204.90568522 49.25283621 204.90568522 49.25168228 206.78059578 C49 210 49 210 47 215 C-36.49 215 -119.98 215 -206 215 C-209.39656912 207.07467205 -209.39656912 207.07467205 -210.125 203.1875 C-210.27195313 202.43855469 -210.41890625 201.68960938 -210.5703125 200.91796875 C-211.80296807 192.54711686 -212.13186622 184.33031243 -212.0625 175.875 C-212.041875 172.28625 -212.02125 168.6975 -212 165 C-202.1 165 -192.2 165 -182 165 C-181.67 168.63 -181.34 172.26 -181 176 C-180.01 178.475 -180.01 178.475 -179 181 C-178.7525 182.051875 -178.505 183.10375 -178.25 184.1875 C-175.63706989 193.36267443 -169.63517612 200.4899479 -162 206 C-146.83291993 213.90576053 -132.86818926 213.57700733 -116.078125 213.49609375 C-113.44700073 213.496249 -110.81587624 213.49774222 -108.18475342 213.50050354 C-102.68427617 213.50319322 -97.18401865 213.48984329 -91.68359375 213.46655273 C-85.37095249 213.44000389 -79.05867938 213.43818364 -72.74600148 213.4499411 C-66.62013241 213.46081627 -60.49441458 213.45434692 -54.36855316 213.44038582 C-51.78689707 213.43590744 -49.20523025 213.43550246 -46.6235733 213.43945122 C-18.76906029 214.11024717 -18.76906029 214.11024717 6 203 C8.31836768 200.66679477 10.43617493 198.30112071 12.4765625 195.72265625 C12.97929687 195.15417969 13.48203125 194.58570313 14 194 C14.66 194 15.32 194 16 194 C16.46036629 192.64652311 16.91816537 191.292173 17.375 189.9375 C17.63023437 189.18339844 17.88546875 188.42929687 18.1484375 187.65234375 C18.42945313 186.77707031 18.71046875 185.90179688 19 185 C19.34124405 184.03720123 19.6824881 183.07440247 20.03407288 182.08242798 C21.51842716 176.8155703 21.30315503 171.4610465 21.30639648 166.02880859 C21.31888176 164.2444339 21.31888176 164.2444339 21.33161926 162.42401123 C21.35152707 159.17569062 21.3623496 155.92751869 21.36744571 152.67914534 C21.37110307 150.64324951 21.37735034 148.6073778 21.3844471 146.57149124 C21.40891018 139.45015647 21.42198568 132.32889415 21.42553711 125.20751953 C21.42916506 118.60058811 21.45901477 111.99412329 21.50094169 105.38733423 C21.53580509 99.69105514 21.55108834 93.99492941 21.55178314 88.29854453 C21.55257084 84.90711009 21.56107118 81.5161512 21.58978081 78.12482834 C21.6168344 74.33200008 21.6118261 70.54043617 21.59936523 66.74755859 C21.61419952 65.64580292 21.62903381 64.54404724 21.64431763 63.40890503 C21.56709092 55.09502555 19.29778912 48.57587631 16 41 C15.67 40.01 15.34 39.02 15 38 C14.34 38 13.68 38 13 38 C12.67 37.01 12.34 36.02 12 35 C10.1355719 33.18653734 10.1355719 33.18653734 7.9375 31.4375 C6.58840481 30.33498812 5.26611103 29.19689312 4 28 C4 27.34 4 26.68 4 26 C2.68 25.67 1.36 25.34 0 25 C0 16.75 0 8.5 0 0 Z " fill="#FEFDFD" transform="translate(463,297)"/>
<path d="M0 0 C3 2 3 2 3.38311005 3.82954502 C3.38683876 4.57556949 3.39056747 5.32159395 3.39440918 6.09022522 C3.40575897 6.94662598 3.41710876 7.80302673 3.42880249 8.68537903 C3.42587189 9.62717514 3.42294128 10.56897125 3.41992188 11.53930664 C3.42839142 12.52975983 3.43686096 13.52021301 3.44558716 14.54067993 C3.46907423 17.83063446 3.46997602 21.12012404 3.46875 24.41015625 C3.47584803 26.6950245 3.4835465 28.97989096 3.49182129 31.26475525 C3.50529553 36.06416771 3.50682322 40.86341567 3.50097656 45.6628418 C3.49509882 51.80082602 3.52557909 57.93801425 3.56609344 64.07584476 C3.59200996 68.80035117 3.59484383 73.52466746 3.59120178 78.24923515 C3.59289147 80.51097032 3.60251933 82.77271442 3.62034607 85.03437996 C3.64259683 88.20842833 3.63279942 91.38088651 3.61523438 94.55493164 C3.62849762 95.48255814 3.64176086 96.41018463 3.65542603 97.36592102 C3.57213353 103.87650566 2.01508888 108.79976358 -2 114 C-4.63651793 116.33082111 -5.40754609 117 -9 117 C-9 117.66 -9 118.32 -9 119 C-16.07529906 120.62059923 -23.86084336 121.43189601 -30.5625 118.375 C-34.90740384 114.14150395 -37.22723832 111.08993957 -37.4375 104.9375 C-37.19292416 99.49976384 -35.71254393 96.7644392 -31.9375 92.875 C-27.03668809 89.74682219 -21.5790414 88.63643011 -15.9765625 87.25390625 C-14.99429688 87.00511719 -14.01203125 86.75632812 -13 86.5 C-12.0925 86.2834375 -11.185 86.066875 -10.25 85.84375 C-7.65949372 85.12223736 -7.65949372 85.12223736 -6 82 C-5.67299844 79.71909256 -5.67299844 79.71909256 -5.68115234 77.16137695 C-5.66128265 76.1805867 -5.64141296 75.19979645 -5.62094116 74.18928528 C-5.60938995 73.13295395 -5.59783875 72.07662262 -5.5859375 70.98828125 C-5.56657135 69.90491989 -5.5472052 68.82155853 -5.5272522 67.70536804 C-5.46741656 64.24115907 -5.4210547 60.77691695 -5.375 57.3125 C-5.33682393 54.96548021 -5.29777242 52.61847448 -5.2578125 50.27148438 C-5.16171176 44.51444766 -5.07667587 38.75732641 -5 33 C-22.67613419 35.10898404 -22.67613419 35.10898404 -40.125 38.5625 C-47.32910378 40.22233829 -54.42414609 41.65997001 -61.76953125 42.54296875 C-64.19348479 42.82630172 -64.19348479 42.82630172 -66 45 C-66.21705637 47.40679241 -66.31134857 49.70219803 -66.31884766 52.11181641 C-66.33391609 53.20953117 -66.33391609 53.20953117 -66.34928894 54.329422 C-66.38023236 56.75346068 -66.39718674 59.17738838 -66.4140625 61.6015625 C-66.43276521 63.28023237 -66.45233794 64.95889275 -66.4727478 66.63754272 C-66.52416995 71.05979835 -66.56374152 75.48208449 -66.60089111 79.90447998 C-66.64086774 84.41556407 -66.69198892 88.92652013 -66.7421875 93.4375 C-66.83906607 102.29157686 -66.92343249 111.14572584 -67 120 C-67.66 120 -68.32 120 -69 120 C-69.020625 120.70125 -69.04125 121.4025 -69.0625 122.125 C-70.47124721 126.44515811 -73.28659503 128.52190112 -77 131 C-83.25750953 133.75330419 -90.27639601 133.68449061 -97 133 C-101.55798098 131.00088554 -104.07330844 128.28802621 -106.30859375 123.9296875 C-107.86863067 119.57568616 -107.67378453 115.60959638 -105.875 111.3125 C-99.22233232 103.1075432 -91.80979222 100.87820835 -81.671875 99.52734375 C-78.78811805 99.13542114 -78.78811805 99.13542114 -76 97 C-75.69959658 94.38482648 -75.59364384 92.00298144 -75.61523438 89.38500977 C-75.6098616 88.59949738 -75.60448883 87.81398499 -75.59895325 87.00466919 C-75.589157 85.29625983 -75.58623666 83.5878006 -75.58930969 81.87936592 C-75.59377356 79.17714168 -75.57982864 76.4755773 -75.56091309 73.77342224 C-75.52406259 68.03645907 -75.51040971 62.29956413 -75.5 56.5625 C-75.48793817 49.91934457 -75.46646809 43.27650883 -75.41999817 36.63349724 C-75.40638741 33.96831228 -75.41060641 31.30352724 -75.41540527 28.63832092 C-75.4060669 27.00700363 -75.39589865 25.3756908 -75.38476562 23.74438477 C-75.39091385 23.00090286 -75.39706207 22.25742096 -75.40339661 21.4914093 C-75.34325201 16.48504575 -75.34325201 16.48504575 -73.63188171 14.06672668 C-71.32736905 12.56031532 -69.18366821 12.12217209 -66.48828125 11.5703125 C-65.35261719 11.33473633 -64.21695313 11.09916016 -63.046875 10.85644531 C-61.81453125 10.61506836 -60.5821875 10.37369141 -59.3125 10.125 C-58.04277344 9.8681543 -56.77304687 9.61130859 -55.46484375 9.34667969 C-44.15090668 7.09130577 -32.76574083 5.2960412 -21.34887695 3.64892578 C-19.42821411 3.36637939 -19.42821411 3.36637939 -17.46875 3.078125 C-16.33888672 2.91731445 -15.20902344 2.75650391 -14.04492188 2.59082031 C-0.47823929 -0.04158603 -0.47823929 -0.04158603 0 0 Z " fill="#FCF8F9" transform="translate(428,345)"/>
<path d="M0 0 C0.33 0.99 0.66 1.98 1 3 C-4.16524682 11.47028237 -13.55800637 17.45695252 -23 20 C-31.43114372 21.63581295 -39.66305941 22.30096975 -48.23754883 22.30639648 C-49.38417496 22.31472 -50.53080109 22.32304352 -51.71217346 22.33161926 C-55.46049505 22.35549372 -59.20864197 22.36446277 -62.95703125 22.37109375 C-65.59055121 22.38007575 -68.2240707 22.38919784 -70.85758972 22.39845276 C-76.36217899 22.41573488 -81.86672449 22.42266448 -87.37133789 22.42553711 C-93.69205267 22.42916923 -100.01228108 22.45906856 -106.33284742 22.50094169 C-112.46404431 22.54010379 -118.59500818 22.55113513 -124.72632408 22.55226326 C-127.31162851 22.55644023 -129.89693431 22.5687716 -132.48215675 22.58978081 C-166.30245066 22.84281766 -166.30245066 22.84281766 -180.1796875 10.96484375 C-181.95019862 9.05375556 -182.98998237 7.38683112 -184 5 C-180.535 4.505 -180.535 4.505 -177 4 C-176.896875 4.639375 -176.79375 5.27875 -176.6875 5.9375 C-176.460625 6.618125 -176.23375 7.29875 -176 8 C-175.01 8.33 -174.02 8.66 -173 9 C-173 9.99 -173 10.98 -173 12 C-172.4225 11.835 -171.845 11.67 -171.25 11.5 C-166.88491412 10.52998092 -163.97041182 11.23537253 -160 13 C-160 13.99 -160 14.98 -160 16 C-160.66 16.33 -161.32 16.66 -162 17 C-160.02 17.66 -158.04 18.32 -156 19 C-156 18.01 -156 17.02 -156 16 C-155.34 16 -154.68 16 -154 16 C-153.56118657 16.48742046 -153.12237314 16.97484093 -152.67026234 17.47703171 C-150.45797114 19.49422941 -149.23890316 19.37263618 -146.27580261 19.36749268 C-145.30430771 19.37306183 -144.33281281 19.37863098 -143.33187866 19.3843689 C-142.26740509 19.37515411 -141.20293152 19.36593933 -140.10620117 19.35644531 C-138.98398666 19.35848969 -137.86177216 19.36053406 -136.70555115 19.36264038 C-132.98452622 19.3656558 -129.26394126 19.34714445 -125.54296875 19.328125 C-122.96088267 19.32506794 -120.37879494 19.32319142 -117.79670715 19.32244873 C-112.37864476 19.31784048 -106.96073938 19.30378722 -101.54272461 19.28125 C-94.59877261 19.25242332 -87.65492281 19.24203042 -80.71091747 19.2375679 C-75.37578704 19.23400778 -70.04067928 19.22358642 -64.70556068 19.21169281 C-62.14551291 19.2059958 -59.58546288 19.20123522 -57.02541161 19.19742584 C-53.44422812 19.19054509 -49.86313645 19.17690269 -46.28198242 19.16113281 C-44.6943811 19.15945602 -44.6943811 19.15945602 -43.07470703 19.15774536 C-38.2731172 19.12976674 -33.71973899 19.00760906 -29 18 C-29 16.68 -29 15.36 -29 14 C-28.67 13.01 -28.34 12.02 -28 11 C-23.53991177 11 -19.52292578 11.20758539 -15.10546875 11.87890625 C-12.65494618 12.12470663 -12.65494618 12.12470663 -9 11 C-9 8.03 -9 5.06 -9 2 C-7.02 2.495 -7.02 2.495 -5 3 C-2.31850007 2.61432869 -2.31850007 2.61432869 0 2 C0 1.34 0 0.68 0 0 Z " fill="#FA3753" transform="translate(476,489)"/>
<path d="M0 0 C0.99 0.495 0.99 0.495 2 1 C1.73445312 1.49628906 1.46890625 1.99257813 1.1953125 2.50390625 C-4.64042353 13.72811388 -5.12531969 24.98830873 -5.20532227 37.4284668 C-5.21535499 38.42101125 -5.22538771 39.4135557 -5.23572445 40.43617725 C-5.26677706 43.6071684 -5.29174149 46.7781722 -5.31640625 49.94921875 C-5.33484045 51.92370988 -5.3536787 53.89819728 -5.3729248 55.87268066 C-5.44099925 63.14424304 -5.50129009 70.4158766 -5.5625 77.6875 C-5.706875 93.960625 -5.85125 110.23375 -6 127 C-65.4 127 -124.8 127 -186 127 C-186 126.67 -186 126.34 -186 126 C-127.59 125.67 -69.18 125.34 -9 125 C-8.67 123.35 -8.34 121.7 -8 120 C-8.33 120 -8.66 120 -9 120 C-9.02316636 110.29030233 -9.04093703 100.58061124 -9.05181217 90.87089157 C-9.05703158 86.36232273 -9.06411219 81.8537728 -9.07543945 77.34521484 C-9.08630173 72.99452783 -9.09228394 68.64385901 -9.09487724 64.29315948 C-9.09672546 62.63297489 -9.10033451 60.9727913 -9.10573006 59.31261444 C-9.11298478 56.98801011 -9.11398906 54.66348101 -9.11352539 52.33886719 C-9.11712067 51.6519429 -9.12071594 50.96501862 -9.12442017 50.25727844 C-9.11739834 47.00571149 -8.92239694 44.12004115 -8 41 C-7.95674219 39.45894034 -7.95983991 37.9161435 -8 36.375 C-8.05349704 31.18578716 -7.61945818 26.14761023 -7 21 C-6.814375 19.2365625 -6.814375 19.2365625 -6.625 17.4375 C-5.47981668 11.13899174 -3.6140579 5.33503785 0 0 Z M-8 50 C-7 52 -7 52 -7 52 Z M-8 58 C-7 60 -7 60 -7 60 Z M-8 68 C-7 70 -7 70 -7 70 Z M-8 81 C-7 83 -7 83 -7 83 Z M-8 91 C-7 93 -7 93 -7 93 Z M-8 99 C-7 101 -7 101 -7 101 Z M-8 109 C-7 111 -7 111 -7 111 Z " fill="#96CEF3" transform="translate(287,335)"/>
<path d="M0 0 C1.32 0 2.64 0 4 0 C3.835 0.66 3.67 1.32 3.5 2 C2.59832116 7.41007305 2.10622436 11.88934123 4.6875 16.8125 C7.0616959 20.08504029 8.41950466 21.2734169 12 23 C19.41509967 23.97971524 27.30665413 23.57723704 34 20 C36.87685203 17.45911321 36.87685203 17.45911321 39 15 C39.66 15 40.32 15 41 15 C41 14.01 41 13.02 41 12 C41.66 12 42.32 12 43 12 C42.835 13.051875 42.67 14.10375 42.5 15.1875 C41.93769202 18.83424047 41.93769202 18.83424047 42 21.875 C42 22.57625 42 23.2775 42 24 C41.505 24.495 41.505 24.495 41 25 C41.495 26.485 41.495 26.485 42 28 C38.60972554 29.13009149 37.41451141 28.71989699 34 28 C32.10463073 27.95805545 30.20788184 27.95862741 28.3125 28 C23.22049287 28.11024643 23.22049287 28.11024643 21 27 C18.1335252 27.11546726 15.29604146 27.2806507 12.4375 27.5 C9.62138865 27.71504018 6.82330485 27.88223963 4 28 C3 27 3 27 2.90234375 25.15234375 C2.95117188 22.07617188 2.95117188 22.07617188 3 19 C2.05125 19.020625 1.1025 19.04125 0.125 19.0625 C-3 19 -3 19 -5 18 C-5 15.36 -5 12.72 -5 10 C-5.66 10 -6.32 10 -7 10 C-7 9.34 -7 8.68 -7 8 C-6.34 8 -5.68 8 -5 8 C-5.33 7.01 -5.66 6.02 -6 5 C-5.01 4.67 -4.02 4.34 -3 4 C-2.34 5.65 -1.68 7.3 -1 9 C-0.67 6.03 -0.34 3.06 0 0 Z " fill="#F52E47" transform="translate(319,454)"/>
<path d="M0 0 C2.69140883 0.00728955 5.38281729 0.01001846 8.07423401 0.01286316 C14.39556078 0.02212044 20.71672854 0.04664679 27.03798586 0.07691163 C34.24494547 0.11065467 41.4519134 0.12699123 48.65893257 0.14199793 C63.46150444 0.17320346 78.26395255 0.22583839 93.06640625 0.29296875 C93.06640625 0.62296875 93.06640625 0.95296875 93.06640625 1.29296875 C92.49748437 1.29720069 91.92856249 1.30143263 91.34240055 1.30579281 C77.46947448 1.40930726 63.59659759 1.51803389 49.72375584 1.63230801 C43.01482878 1.68747659 36.3058964 1.74093073 29.59692383 1.7902832 C23.11947404 1.83810761 16.64207501 1.89045624 10.1646862 1.9459095 C7.69644374 1.96625138 5.22818741 1.98497753 2.75992012 2.00204277 C-0.7036425 2.02626839 -4.16711076 2.05629707 -7.63061523 2.08764648 C-8.64554047 2.09340195 -9.6604657 2.09915741 -10.70614624 2.10508728 C-16.51433314 2.16463675 -22.20134123 2.30603481 -27.93359375 3.29296875 C-28.92359375 4.77796875 -28.92359375 4.77796875 -29.93359375 6.29296875 C-30.67609375 6.06609375 -31.41859375 5.83921875 -32.18359375 5.60546875 C-34.9587705 4.96784887 -34.9587705 4.96784887 -36.80859375 6.73046875 C-39.82767319 8.9503801 -42.28878683 8.50324607 -45.93359375 8.29296875 C-45.93359375 8.95296875 -45.93359375 9.61296875 -45.93359375 10.29296875 C-47.25359375 10.62296875 -48.57359375 10.95296875 -49.93359375 11.29296875 C-49.27359375 13.93296875 -48.61359375 16.57296875 -47.93359375 19.29296875 C-51.93359375 18.29296875 -51.93359375 18.29296875 -53.93359375 17.29296875 C-54.26359375 16.30296875 -54.59359375 15.31296875 -54.93359375 14.29296875 C-55.92359375 15.28296875 -56.91359375 16.27296875 -57.93359375 17.29296875 C-58.59359375 16.96296875 -59.25359375 16.63296875 -59.93359375 16.29296875 C-43.65279901 -1.92858298 -22.63621145 -0.13919524 0 0 Z " fill="#E86B87" transform="translate(350.93359375,315.70703125)"/>
<path d="M0 0 C0.33 0 0.66 0 1 0 C1 73.59 1 147.18 1 223 C-0.65 222.34 -2.3 221.68 -4 221 C-2.68 220.67 -1.36 220.34 0 220 C0 147.4 0 74.8 0 0 Z " fill="#76C3F3" transform="translate(462,99)"/>
<path d="M0 0 C0 16.17 0 32.34 0 49 C-0.33 49 -0.66 49 -1 49 C-1 33.16 -1 17.32 -1 1 C-11.395 2.485 -11.395 2.485 -22 4 C-23.65 4 -25.3 4 -27 4 C-26.505 5.98 -26.505 5.98 -26 8 C-24.865625 8.12375 -23.73125 8.2475 -22.5625 8.375 C-21.386875 8.58125 -20.21125 8.7875 -19 9 C-18.505 9.99 -18.505 9.99 -18 11 C-19.65614657 11.38218767 -21.32457024 11.71395102 -23 12 C-23.495 11.505 -23.495 11.505 -24 11 C-29.6047709 10.78673597 -29.6047709 10.78673597 -35 12 C-35 11.34 -35 10.68 -35 10 C-35.99 10.33 -36.98 10.66 -38 11 C-42.08594833 12.1865126 -45.76342394 12.14865179 -50 12 C-49.67 11.34 -49.34 10.68 -49 10 C-52.63 10.33 -56.26 10.66 -60 11 C-59.67 10.34 -59.34 9.68 -59 9 C-57.07666016 8.46923828 -57.07666016 8.46923828 -54.5390625 8.0703125 C-53.60126953 7.91667236 -52.66347656 7.76303223 -51.69726562 7.60473633 C-50.68341797 7.44642334 -49.66957031 7.28811035 -48.625 7.125 C-40.09858316 5.72634277 -31.64370584 4.16571037 -23.20556641 2.30712891 C-15.26238979 0.57151003 -8.27554067 0 0 0 Z " fill="#F8687C" transform="translate(423,378)"/>
<path d="M0 0 C0.495 1.485 0.495 1.485 1 3 C-4.82199501 12.54725756 -15.10853376 17.88277735 -25.5625 20.6875 C-28.7217373 21.09253042 -31.81910501 21.06237049 -35 21 C-35 20.34 -35 19.68 -35 19 C-33.02 18.67 -31.04 18.34 -29 18 C-29 16.68 -29 15.36 -29 14 C-28.67 13.01 -28.34 12.02 -28 11 C-23.53991177 11 -19.52292578 11.20758539 -15.10546875 11.87890625 C-12.65494618 12.12470663 -12.65494618 12.12470663 -9 11 C-9 8.03 -9 5.06 -9 2 C-7.68 2.33 -6.36 2.66 -5 3 C-2.31850007 2.61432869 -2.31850007 2.61432869 0 2 C0 1.34 0 0.68 0 0 Z " fill="#F7263E" transform="translate(476,489)"/>
<path d="M0 0 C0.33 0 0.66 0 1 0 C1.06991506 8.39805072 1.12301976 16.79597716 1.15543652 25.1942482 C1.17100523 29.09509915 1.19207974 32.99574907 1.22631836 36.89648438 C1.25922949 40.67016285 1.27691889 44.44364957 1.28463173 48.21746063 C1.29011891 49.64777387 1.30083163 51.07807819 1.31719017 52.50830841 C1.41330158 61.27031595 1.07986392 69.68387024 -2 78 C-2.99 78.99 -2.99 78.99 -4 80 C-4.99 80 -5.98 80 -7 80 C-7.31174429 73.51110041 -7.48149172 68.70964642 -4 63 C-3.31363375 60.76474965 -3.31363375 60.76474965 -3 59 C-2.34 59.33 -1.68 59.66 -1 60 C-0.505 30.3 -0.505 30.3 0 0 Z " fill="#F82A46" transform="translate(483,408)"/>
<path d="M0 0 C6.93 0 13.86 0 21 0 C21 0.99 21 1.98 21 3 C29.91 2.01 29.91 2.01 39 1 C35.99812293 4.00187707 32.32479358 3.92651603 28.2734375 4.5078125 C26.97921371 4.70333206 26.97921371 4.70333206 25.65884399 4.90280151 C22.89865845 5.31796115 20.1369262 5.72159953 17.375 6.125 C15.50509526 6.40419166 13.63530187 6.68413018 11.765625 6.96484375 C7.17833119 7.65190705 2.58961741 8.32864135 -2 9 C-2 8.34 -2 7.68 -2 7 C-1.34 7 -0.68 7 0 7 C0 4.69 0 2.38 0 0 Z " fill="#F84F69" transform="translate(380,345)"/>
<path d="M0 0 C2.64 0 5.28 0 8 0 C8.05058526 7.08411622 8.08568494 14.16818612 8.10986328 21.25244141 C8.11993954 23.66391744 8.13360081 26.07538122 8.15087891 28.48681641 C8.1750559 31.94697085 8.18646669 35.4069642 8.1953125 38.8671875 C8.20563507 39.95055389 8.21595764 41.03392029 8.22659302 42.15011597 C8.22674408 43.1510025 8.22689514 44.15188904 8.22705078 45.18310547 C8.231492 46.06690887 8.23593323 46.95071228 8.24050903 47.86129761 C8 50 8 50 6 52 C0.78555016 53.87720194 -3.54513151 54.19139889 -9 54 C-9.495 52.515 -9.495 52.515 -10 51 C-12.00016466 49.79117904 -12.00016466 49.79117904 -14 49 C-10.32431536 48.08107884 -8.83619425 48.04095144 -5 49 C-1.37 48.34 2.26 47.68 6 47 C6 32.15 6 17.3 6 2 C3.03 1.505 3.03 1.505 0 1 C0 0.67 0 0.34 0 0 Z " fill="#F7344E" transform="translate(414,379)"/>
<path d="M0 0 C2.64 0 5.28 0 8 0 C8 0.66 8 1.32 8 2 C8.99 2.33 9.98 2.66 11 3 C10.67 4.32 10.34 5.64 10 7 C6.19755532 8.1326431 2.45731367 9.11767512 -1.4375 9.875 C-5.39289383 10.71872735 -8.64970485 12.13872492 -12.17578125 14.09765625 C-14.09677247 15.04786818 -15.90972903 15.55241438 -18 16 C-19 10.25 -19 10.25 -19 8 C-12.73 7.67 -6.46 7.34 0 7 C0 4.69 0 2.38 0 0 Z " fill="#F6354E" transform="translate(341,437)"/>
<path d="M0 0 C-0.66 0.66 -1.32 1.32 -2 2 C-2.64767793 4.57061311 -2.64767793 4.57061311 -3 7 C-3.66 7 -4.32 7 -5 7 C-5 7.66 -5 8.32 -5 9 C-5.66 9 -6.32 9 -7 9 C-7 8.34 -7 7.68 -7 7 C-8.794375 7.2165625 -8.794375 7.2165625 -10.625 7.4375 C-11.71554687 7.56898438 -11.71554687 7.56898438 -12.828125 7.703125 C-14.68867186 7.95744435 -16.53494083 8.31267313 -18.375 8.6875 C-19.24125 8.790625 -20.1075 8.89375 -21 9 C-23 7 -23 7 -23.125 3.375 C-23.08375 2.26125 -23.0425 1.1475 -23 0 C-21.97519531 0.01160156 -20.95039063 0.02320313 -19.89453125 0.03515625 C-18.533856 0.04454022 -17.17317876 0.05363977 -15.8125 0.0625 C-15.13896484 0.07087891 -14.46542969 0.07925781 -13.77148438 0.08789062 C-10.82548826 0.10226134 -8.0920485 0.01861511 -5.19921875 -0.56640625 C-3 -1 -3 -1 0 0 Z " fill="#F72C46" transform="translate(422,464)"/>
<path d="M0 0 C0 0.99 0 1.98 0 3 C0.99 3.33 1.98 3.66 3 4 C3 4.99 3 5.98 3 7 C3.5775 6.835 4.155 6.67 4.75 6.5 C9.11508588 5.52998092 12.02958818 6.23537253 16 8 C16 8.99 16 9.98 16 11 C15.01 11.495 15.01 11.495 14 12 C14.99 12.33 15.98 12.66 17 13 C17 13.66 17 14.32 17 15 C7.76032762 13.84504095 0.68988624 10.45393589 -6 4 C-7.2578125 1.77734375 -7.2578125 1.77734375 -8 0 C-4.71023192 -1.09658936 -3.28696233 -0.79953138 0 0 Z " fill="#F5283F" transform="translate(300,494)"/>
<path d="M0 0 C0.66 0 1.32 0 2 0 C2.03758423 1.5634314 2.03758423 1.5634314 2.07592773 3.15844727 C2.17154069 7.10042461 2.27135701 11.04228708 2.37231445 14.98413086 C2.41509183 16.67616044 2.45679438 18.3682176 2.49731445 20.06030273 C2.72986502 29.73842559 3.07978785 39.36340474 3.89868164 49.01147461 C3.9878724 51.64227953 3.81734505 53.52288594 3 56 C2.01 56 1.02 56 0 56 C0 37.52 0 19.04 0 0 Z " fill="#F93049" transform="translate(431,399)"/>
<path d="M0 0 C0.66 1.32 1.32 2.64 2 4 C2.33 4.33 2.66 4.66 3 5 C3.15686249 6.55948542 3.25076639 8.12542668 3.31640625 9.69140625 C3.35830078 10.63564453 3.40019531 11.57988281 3.44335938 12.55273438 C3.48267578 13.54595703 3.52199219 14.53917969 3.5625 15.5625 C3.62727539 17.05813477 3.62727539 17.05813477 3.69335938 18.58398438 C3.79980298 21.0558415 3.90181928 23.5278031 4 26 C4.66 26 5.32 26 6 26 C6 28.97 6 31.94 6 35 C4.68 35 3.36 35 2 35 C1.67 32.69 1.34 30.38 1 28 C0.67 28 0.34 28 0 28 C0 18.76 0 9.52 0 0 Z " fill="#F9344E" transform="translate(362,419)"/>
<path d="M0 0 C0.99 0.33 1.98 0.66 3 1 C2.01 1.33 1.02 1.66 0 2 C-1.51617907 3.69863938 -1.51617907 3.69863938 -2 6 C-1.2884375 7.1446875 -1.2884375 7.1446875 -0.5625 8.3125 C1.5201261 11.89461689 0.85256866 14.04718167 0 18 C-1.65 18.66 -3.3 19.32 -5 20 C-6.84193854 16.31612293 -6.36231308 12.02993847 -6 8 C-4.52091164 4.68965938 -2.6773109 2.42232891 0 0 Z " fill="#FCFAFB" transform="translate(397,437)"/>
<path d="M0 0 C0.33 0 0.66 0 1 0 C1.33 15.84 1.66 31.68 2 48 C3.485 47.505 3.485 47.505 5 47 C3.79618552 49.49361571 2.54571278 51.68143083 1 54 C0.34 54 -0.32 54 -1 54 C-1 53.34 -1 52.68 -1 52 C-5.455 52.495 -5.455 52.495 -10 53 C-8 51 -8 51 -4.9375 50 C-1.87849194 49.34247444 -1.87849194 49.34247444 -1 47 C-0.88194823 45.4892243 -0.82303551 43.97361169 -0.79467773 42.45849609 C-0.77473251 41.51767181 -0.75478729 40.57684753 -0.73423767 39.60751343 C-0.71752518 38.58976837 -0.70081268 37.57202332 -0.68359375 36.5234375 C-0.6524221 34.96286118 -0.6524221 34.96286118 -0.62062073 33.37075806 C-0.55510128 30.03890751 -0.49622908 26.7069765 -0.4375 23.375 C-0.39431706 21.11978326 -0.35070285 18.86457473 -0.30664062 16.609375 C-0.19941748 11.07300236 -0.09765554 5.53654922 0 0 Z " fill="#FBE2E5" transform="translate(423,380)"/>
<path d="M0 0 C2.64 0 5.28 0 8 0 C8 0.66 8 1.32 8 2 C8.66 1.67 9.32 1.34 10 1 C11.87379605 0.92966231 13.75001102 0.9156978 15.625 0.9375 C17.12933594 0.95103516 17.12933594 0.95103516 18.6640625 0.96484375 C19.43492187 0.97644531 20.20578125 0.98804688 21 1 C21 1.33 21 1.66 21 2 C20.16021606 2.16604736 20.16021606 2.16604736 19.3034668 2.33544922 C16.76337823 2.84172841 14.22547661 3.35824231 11.6875 3.875 C10.80642578 4.04902344 9.92535156 4.22304688 9.01757812 4.40234375 C7.74624023 4.66337891 7.74624023 4.66337891 6.44921875 4.9296875 C5.66893311 5.08679199 4.88864746 5.24389648 4.0847168 5.40576172 C1.72270755 5.96432022 1.72270755 5.96432022 -1 8 C-1.66 7.67 -2.32 7.34 -3 7 C-3 6.34 -3 5.68 -3 5 C-2.34 5 -1.68 5 -1 5 C-0.67 3.35 -0.34 1.7 0 0 Z " fill="#F4536C" transform="translate(354,353)"/>
<path d="M0 0 C3.63 0 7.26 0 11 0 C11 0.99 11 1.98 11 3 C19.91 2.01 19.91 2.01 29 1 C26.3575074 3.6424926 24.57865459 3.55439422 20.8984375 4.0703125 C19.68671875 4.24433594 18.475 4.41835938 17.2265625 4.59765625 C15.95554687 4.77167969 14.68453125 4.94570313 13.375 5.125 C11.456875 5.39763672 11.456875 5.39763672 9.5 5.67578125 C6.33430681 6.12464819 3.16772046 6.56571065 0 7 C0.33 6.34 0.66 5.68 1 5 C3.5625 4.375 3.5625 4.375 6 4 C4.68 3.67 3.36 3.34 2 3 C2 2.34 2 1.68 2 1 C1.34 0.67 0.68 0.34 0 0 Z " fill="#F87B90" transform="translate(390,345)"/>
<path d="M0 0 C8.63776489 -0.35256183 15.32954249 2.4169745 23 6 C22.67 6.66 22.34 7.32 22 8 C19.03 7.505 19.03 7.505 16 7 C15.67 7.66 15.34 8.32 15 9 C14.34 9 13.68 9 13 9 C12.67 7.35 12.34 5.7 12 4 C10.35 3.67 8.7 3.34 7 3 C6.67 3.99 6.34 4.98 6 6 C5.01 5.67 4.02 5.34 3 5 C3 3.68 3 2.36 3 1 C2.01 0.67 1.02 0.34 0 0 Z " fill="#EA6583" transform="translate(444,317)"/>
<path d="M0 0 C2.31 0 4.62 0 7 0 C7.19491452 1.45736087 7.38069358 2.91594593 7.5625 4.375 C7.66691406 5.18710937 7.77132813 5.99921875 7.87890625 6.8359375 C8 9 8 9 7 11 C5.1875 10.8125 5.1875 10.8125 3 10 C0.37665094 6.62712264 -0.36372697 4.24348127 0 0 Z " fill="#F62A44" transform="translate(286,482)"/>
<path d="M0 0 C0 3.74110761 -0.25884204 7.4560694 -0.5 11.1875 C-0.54769531 11.93708984 -0.59539062 12.68667969 -0.64453125 13.45898438 C-0.76217832 15.30604344 -0.88097771 17.15302904 -1 19 C-1.99 18.67 -2.98 18.34 -4 18 C-5.63186199 13.10441403 -5.83931781 8.75493725 -3.625 4.125 C-2 2 -2 2 0 0 Z " fill="#FBE7E8" transform="translate(326,452)"/>
<path d="M0 0 C-0.48578543 3.12290635 -0.9986012 5.99580359 -2 9 C-2.99 9.495 -2.99 9.495 -4 10 C-4.46751788 12.35599235 -4.46751788 12.35599235 -4.625 15.0625 C-4.69976562 15.98160156 -4.77453125 16.90070313 -4.8515625 17.84765625 C-4.90054687 18.55792969 -4.94953125 19.26820313 -5 20 C-5.33 20 -5.66 20 -6 20 C-6 14.39 -6 8.78 -6 3 C-7.32 2.67 -8.64 2.34 -10 2 C-6.5980513 -0.09350689 -3.94727588 -0.17942163 0 0 Z " fill="#F75369" transform="translate(438,344)"/>
<path d="M0 0 C0.804375 0.185625 1.60875 0.37125 2.4375 0.5625 C2.953125 0.706875 3.46875 0.85125 4 1 C0.7394904 4.2605096 -2.89083745 4.05467405 -7.3125 4.0625 C-9.1378125 4.0315625 -9.1378125 4.0315625 -11 4 C-10.67 3.34 -10.34 2.68 -10 2 C-13.63 2.33 -17.26 2.66 -21 3 C-20.67 2.34 -20.34 1.68 -20 1 C-13.31447623 -0.6568472 -6.73735102 -1.57682684 0 0 Z " fill="#F95E75" transform="translate(384,386)"/>
<path d="M0 0 C0.99 0 1.98 0 3 0 C3 0.66 3 1.32 3 2 C1.68 2.33 0.36 2.66 -1 3 C-0.34 5.64 0.32 8.28 1 11 C-3 10 -3 10 -5 9 C-5.33 8.01 -5.66 7.02 -6 6 C-6.99 6.99 -7.98 7.98 -9 9 C-9.66 8.67 -10.32 8.34 -11 8 C-5.9059081 2.11816193 -5.9059081 2.11816193 -2.125 1.625 C-1.073125 1.810625 -1.073125 1.810625 0 2 C0 1.34 0 0.68 0 0 Z " fill="#F45970" transform="translate(302,324)"/>
<path d="M0 0 C3.36179774 1.44077046 5.59156268 3.24750021 8 6 C8 6.66 8 7.32 8 8 C5.36 8 2.72 8 0 8 C-0.79953138 4.71303767 -1.09658936 3.28976808 0 0 Z " fill="#F8304B" transform="translate(390,456)"/>
<path d="M0 0 C2.31 0 4.62 0 7 0 C6.67 0.99 6.34 1.98 6 3 C3.79355164 3.36572637 1.58471965 3.71708834 -0.625 4.0625 C-2.46964844 4.35833984 -2.46964844 4.35833984 -4.3515625 4.66015625 C-7.84573059 4.98563015 -10.59044235 4.75010268 -14 4 C-12 2 -12 2 -9.1796875 1.8046875 C-8.08914063 1.82789063 -6.99859375 1.85109375 -5.875 1.875 C-4.77929688 1.89304687 -3.68359375 1.91109375 -2.5546875 1.9296875 C-1.71164062 1.95289063 -0.86859375 1.97609375 0 2 C0 1.34 0 0.68 0 0 Z " fill="#F64E68" transform="translate(416,343)"/>
<path d="M0 0 C1.31611677 0.95336021 2.62778961 1.91285774 3.9375 2.875 C4.66839844 3.40867187 5.39929688 3.94234375 6.15234375 4.4921875 C8 6 8 6 9 8 C6.36 8.66 3.72 9.32 1 10 C0.855625 9.21625 0.71125 8.4325 0.5625 7.625 C0.12201075 5.03578982 0.12201075 5.03578982 -1 3 C-0.67 2.01 -0.34 1.02 0 0 Z " fill="#F75A74" transform="translate(467,325)"/>
<path d="M0 0 C0.66 0 1.32 0 2 0 C1.835 1.051875 1.67 2.10375 1.5 3.1875 C1.10430322 6.20468796 0.90821029 8.97093972 1 12 C0.34 12 -0.32 12 -1 12 C-1 11.34 -1 10.68 -1 10 C-2.32 10.33 -3.64 10.66 -5 11 C-4.1875 7.5625 -4.1875 7.5625 -3 4 C-2.01 3.67 -1.02 3.34 0 3 C0 2.01 0 1.02 0 0 Z " fill="#FA2D45" transform="translate(360,466)"/>
<path d="M0 0 C1.42944945 2.35438733 2.08661261 3.48032433 1.625 6.25 C1.41875 6.8275 1.2125 7.405 1 8 C0.34 8 -0.32 8 -1 8 C-1 8.99 -1 9.98 -1 11 C-1.66 11 -2.32 11 -3 11 C-3.75 9.4375 -3.75 9.4375 -4 7 C-2.86915563 4.49713591 -1.47860484 2.32992278 0 0 Z " fill="#ED5D7A" transform="translate(290,333)"/>
<path d="M0 0 C0.66 0 1.32 0 2 0 C1.979375 0.763125 1.95875 1.52625 1.9375 2.3125 C1.87057159 5.10185786 1.87057159 5.10185786 3 8 C1.625 9.5 1.625 9.5 0 11 C-0.66 11 -1.32 11 -2 11 C-2.25 3.375 -2.25 3.375 0 0 Z " fill="#F7465D" transform="translate(365,388)"/>
<path d="M0 0 C5.28 0 10.56 0 16 0 C16 0.33 16 0.66 16 1 C15.37351562 1.03738281 14.74703125 1.07476562 14.1015625 1.11328125 C13.28429687 1.17902344 12.46703125 1.24476563 11.625 1.3125 C10.40683594 1.39951172 10.40683594 1.39951172 9.1640625 1.48828125 C6.62078662 1.82990528 6.62078662 1.82990528 5 5 C3.0625 4.1875 3.0625 4.1875 1 3 C0.67 2.01 0.34 1.02 0 0 Z " fill="#F45D76" transform="translate(316,317)"/>
<path d="M0 0 C-5.27377728 2.92987626 -10.02749309 3.11710798 -16 3 C-16 2.34 -16 1.68 -16 1 C-10.26696495 -0.57300962 -5.84340558 -1.24327778 0 0 Z " fill="#FB2E47" transform="translate(457,507)"/>
<path d="M0 0 C0.99 0.33 1.98 0.66 3 1 C2.01 1.33 1.02 1.66 0 2 C-1.10836423 3.88316159 -1.10836423 3.88316159 -2 6 C-2.99 7.485 -2.99 7.485 -4 9 C-4.45394552 11.27912938 -4.45394552 11.27912938 -4.625 13.6875 C-4.69976562 14.49574219 -4.77453125 15.30398438 -4.8515625 16.13671875 C-4.90054687 16.75160156 -4.94953125 17.36648438 -5 18 C-5.33 18 -5.66 18 -6 18 C-6.55839416 7.34914842 -6.55839416 7.34914842 -3 3 C-1.3125 1.1875 -1.3125 1.1875 0 0 Z " fill="#FBDCDB" transform="translate(397,437)"/>
<path d="M0 0 C-0.65226562 0.37511719 -1.30453125 0.75023437 -1.9765625 1.13671875 C-7.0349819 4.09865459 -11.63040781 7.09036489 -16 11 C-14.63394633 6.3279348 -12.6531753 4.65654673 -8.5625 2.125 C-7.59441406 1.50882812 -6.62632812 0.89265625 -5.62890625 0.2578125 C-3 -1 -3 -1 0 0 Z " fill="#80B4E4" transform="translate(307,321)"/>
<path d="M0 0 C-3.06532816 2.04355211 -4.38354689 2.38658825 -7.9375 2.75 C-8.79214844 2.84796875 -9.64679688 2.9459375 -10.52734375 3.046875 C-13.23766556 2.99549449 -14.70187794 2.38633814 -17 1 C-16.06027344 0.90912109 -16.06027344 0.90912109 -15.1015625 0.81640625 C-13.87566406 0.69072266 -13.87566406 0.69072266 -12.625 0.5625 C-11.81289063 0.48128906 -11.00078125 0.40007812 -10.1640625 0.31640625 C-3.4214876 -0.66942149 -3.4214876 -0.66942149 0 0 Z " fill="#F62A44" transform="translate(347,444)"/>
<path d="M0 0 C2.72168665 3.17530109 4.85559053 5.94254825 6 10 C5.625 12.3125 5.625 12.3125 5 14 C4.54625 13.071875 4.0925 12.14375 3.625 11.1875 C2.0578367 7.96078611 2.0578367 7.96078611 0 5 C-0.125 2.3125 -0.125 2.3125 0 0 Z " fill="#F96F88" transform="translate(477,335)"/>
<path d="M0 0 C3.46941546 0.45822468 6.67395049 0.89131683 10 2 C9.67 2.66 9.34 3.32 9 4 C6.03 3.505 6.03 3.505 3 3 C2.67 3.66 2.34 4.32 2 5 C1.34 5 0.68 5 0 5 C0 3.35 0 1.7 0 0 Z " fill="#F6627A" transform="translate(457,321)"/>
<path d="M0 0 C-0.185625 0.78375 -0.37125 1.5675 -0.5625 2.375 C-1.25962266 4.97089775 -1.25962266 4.97089775 0 7 C-2.97 6.505 -2.97 6.505 -6 6 C-6 5.01 -6 4.02 -6 3 C-2.66666667 0 -2.66666667 0 0 0 Z " fill="#F42A45" transform="translate(429,457)"/>
<path d="M0 0 C-1.32 1.65 -2.64 3.3 -4 5 C-5.5 3.625 -5.5 3.625 -7 2 C-7 1.34 -7 0.68 -7 0 C-3.86650268 -1.04449911 -3.01031744 -0.93423645 0 0 Z " fill="#F42D43" transform="translate(299,494)"/>
<path d="M0 0 C0.33 0.66 0.66 1.32 1 2 C0.0625 4.125 0.0625 4.125 -1 6 C-0.34 6.33 0.32 6.66 1 7 C-1.97 6.67 -4.94 6.34 -8 6 C-7.01 5.34 -6.02 4.68 -5 4 C-3.32576317 2.67618483 -1.65788785 1.34423339 0 0 Z " fill="#F3415A" transform="translate(356,471)"/>
<path d="M0 0 C0.33 0 0.66 0 1 0 C1 4.62 1 9.24 1 14 C-1.475 13.01 -1.475 13.01 -4 12 C-2.68 11.67 -1.36 11.34 0 11 C0 7.37 0 3.74 0 0 Z " fill="#8DC1EC" transform="translate(462,308)"/>
<path d="M0 0 C2.56616632 3.84924948 2.55097676 6.4349304 3 11 C2.67 10.34 2.34 9.68 2 9 C1.34 9 0.68 9 0 9 C-1.10844919 5.67465243 -0.84454356 3.37817425 0 0 Z " fill="#F85167" transform="translate(481,346)"/>
<path d="M0 0 C0.66 0 1.32 0 2 0 C3.38232443 1.62626404 4.71937515 3.2925002 6 5 C3.03 4.67 0.06 4.34 -3 4 C-2.01 3.67 -1.02 3.34 0 3 C0 2.01 0 1.02 0 0 Z " fill="#F71F36" transform="translate(320,505)"/>
<path d="M0 0 C0.33 0.66 0.66 1.32 1 2 C-1.60582371 2.93065133 -2.64198224 3.14917407 -5.25 2.0625 C-5.8275 1.711875 -6.405 1.36125 -7 1 C-3.375 -1.125 -3.375 -1.125 0 0 Z " fill="#F73B51" transform="translate(310,504)"/>
<path d="M0 0 C-3 2 -3 2 -6 2 C-6 2.66 -6 3.32 -6 4 C-7.32 3.67 -8.64 3.34 -10 3 C-9.01 3 -8.02 3 -7 3 C-7 2.01 -7 1.02 -7 0 C-3.86650268 -1.04449911 -3.01031744 -0.93423645 0 0 Z " fill="#F8DBDE" transform="translate(425,460)"/>
<path d="M0 0 C0.66 0.33 1.32 0.66 2 1 C1.34 2.65 0.68 4.3 0 6 C-0.66 6 -1.32 6 -2 6 C-2.33 4.68 -2.66 3.36 -3 2 C-2.01 1.34 -1.02 0.68 0 0 Z " fill="#F82B45" transform="translate(392,438)"/>
<path d="M0 0 C0.66 0 1.32 0 2 0 C1.50168276 3.68754757 0.89932357 5.60490662 -2 8 C-2.66 7.67 -3.32 7.34 -4 7 C-3.34 5.68 -2.68 4.36 -2 3 C-1.34 3 -0.68 3 0 3 C0 2.01 0 1.02 0 0 Z " fill="#F3233C" transform="translate(360,466)"/>
</svg>
