<?xml version="1.0" encoding="UTF-8"?>
<svg version="1.1" xmlns="http://www.w3.org/2000/svg" width="512" height="512">
<path d="M0 0 C1.53670097 -0.01469078 1.53670097 -0.01469078 3.10444641 -0.02967834 C45.78317384 -0.35384713 45.78317384 -0.35384713 66.1328125 4.23828125 C67.57503174 4.55176514 67.57503174 4.55176514 69.04638672 4.87158203 C110.14244832 14.02613605 148.15158182 32.90975641 180.1328125 60.23828125 C180.88175781 60.87507813 181.63070313 61.511875 182.40234375 62.16796875 C195.331516 73.48925416 207.77878992 85.6737 217.92236328 99.57910156 C219.13119898 101.23606957 220.36282527 102.87406627 221.59765625 104.51171875 C238.20956005 126.83263156 250.76726201 151.73523112 259.1328125 178.23828125 C259.48400146 179.32351074 259.48400146 179.32351074 259.84228516 180.43066406 C262.48000089 188.62393932 264.59868316 196.86698704 266.3203125 205.30078125 C266.4752417 206.05488281 266.6301709 206.80898437 266.78979492 207.5859375 C267.28335582 210.13085246 267.71778279 212.67933675 268.1328125 215.23828125 C268.40315308 216.88147339 268.40315308 216.88147339 268.67895508 218.55786133 C270.32479545 229.87769168 270.471666 241.11832772 270.44848633 252.54418945 C270.44534119 255.77134507 270.46881989 258.99756722 270.49414062 262.22460938 C270.53517204 276.44382216 269.3566272 290.19586325 267.1328125 304.23828125 C268.1228125 304.56828125 269.1128125 304.89828125 270.1328125 305.23828125 C270.1328125 373.54828125 270.1328125 441.85828125 270.1328125 512.23828125 C200.70463571 512.39960665 200.70463571 512.39960665 171.56445312 512.43359375 C164.89623983 512.44142347 158.22802692 512.44950489 151.55981445 512.45800781 C150.72423494 512.45906281 149.88865543 512.4601178 149.02775532 512.46120477 C135.59467281 512.47853116 122.16165983 512.51002667 108.72861835 512.54689243 C94.90957066 512.58449703 81.090559 512.60655799 67.27146226 512.61463523 C58.76646852 512.62008289 50.26167135 512.63719224 41.75673822 512.66994712 C35.89901717 512.69133702 30.04139549 512.69742703 24.18363836 512.69228676 C20.82016686 512.68976223 17.45730478 512.69550391 14.09385109 512.71510315 C-46.93474748 513.05284745 -105.39791996 491.94708873 -151.8671875 452.23828125 C-152.61613281 451.60148437 -153.36507812 450.9646875 -154.13671875 450.30859375 C-167.065891 438.98730834 -179.51316492 426.8028625 -189.65673828 412.89746094 C-190.86557398 411.24049293 -192.09720027 409.60249623 -193.33203125 407.96484375 C-209.94393505 385.64393094 -222.50163701 360.74133138 -230.8671875 334.23828125 C-231.10131348 333.51479492 -231.33543945 332.79130859 -231.57666016 332.04589844 C-234.21437589 323.85262318 -236.33305816 315.60957546 -238.0546875 307.17578125 C-238.2870813 306.04462891 -238.2870813 306.04462891 -238.52416992 304.890625 C-239.01773628 302.34568189 -239.45250779 299.79731483 -239.8671875 297.23828125 C-240.04668945 296.13991943 -240.22619141 295.04155762 -240.41113281 293.90991211 C-242.19129711 281.6056012 -242.26507127 269.34092251 -242.2421875 256.92578125 C-242.24164368 255.81778168 -242.24109985 254.7097821 -242.24053955 253.56820679 C-242.20271157 236.80965492 -241.5915508 220.64462236 -237.8671875 204.23828125 C-237.64756348 203.25021484 -237.42793945 202.26214844 -237.20166016 201.24414062 C-228.34976957 162.4787486 -211.30271224 127.47460523 -186.8671875 96.23828125 C-186.23852783 95.42955566 -186.23852783 95.42955566 -185.59716797 94.60449219 C-172.83043259 78.35968964 -157.636932 63.30908717 -140.8671875 51.23828125 C-139.72053878 50.38651324 -138.57472025 49.53362662 -137.4296875 48.6796875 C-98.34779546 19.82754084 -48.88465292 0.38526119 0 0 Z " fill="#FA3F58" transform="translate(241.8671875,-0.23828125)"/>
<path d="M0 0 C1.53670097 -0.01469078 1.53670097 -0.01469078 3.10444641 -0.02967834 C45.78317384 -0.35384713 45.78317384 -0.35384713 66.1328125 4.23828125 C67.57503174 4.55176514 67.57503174 4.55176514 69.04638672 4.87158203 C110.14244832 14.02613605 148.15158182 32.90975641 180.1328125 60.23828125 C180.88175781 60.87507813 181.63070313 61.511875 182.40234375 62.16796875 C195.331516 73.48925416 207.77878992 85.6737 217.92236328 99.57910156 C219.13119898 101.23606957 220.36282527 102.87406627 221.59765625 104.51171875 C238.20956005 126.83263156 250.76726201 151.73523112 259.1328125 178.23828125 C259.48400146 179.32351074 259.48400146 179.32351074 259.84228516 180.43066406 C262.48000089 188.62393932 264.59868316 196.86698704 266.3203125 205.30078125 C266.4752417 206.05488281 266.6301709 206.80898437 266.78979492 207.5859375 C267.28336128 210.13088061 267.71813279 212.67924767 268.1328125 215.23828125 C268.40206543 216.88582397 268.40206543 216.88582397 268.67675781 218.56665039 C270.4569221 230.87096121 270.53069819 243.13563954 270.5078125 255.55078125 C270.50699677 257.2122821 270.50699677 257.2122821 270.50616455 258.90734863 C270.45008594 283.74254536 267.42248071 306.43729543 260.1328125 330.23828125 C259.1428125 329.90828125 258.1528125 329.57828125 257.1328125 329.23828125 C257.1328125 328.57828125 257.1328125 327.91828125 257.1328125 327.23828125 C256.4728125 327.23828125 255.8128125 327.23828125 255.1328125 327.23828125 C255.1328125 326.57828125 255.1328125 325.91828125 255.1328125 325.23828125 C253.80009817 324.57037801 252.46659537 323.90404808 251.1328125 323.23828125 C250.33746094 322.83609375 249.54210937 322.43390625 248.72265625 322.01953125 C247.84738281 321.59671875 246.97210938 321.17390625 246.0703125 320.73828125 C245.21308594 320.31546875 244.35585938 319.89265625 243.47265625 319.45703125 C232.23709534 315.35703709 220.37674504 315.89502745 208.58984375 315.82421875 C206.6101554 315.80548052 204.63047482 315.78590519 202.65080261 315.76553345 C197.47407638 315.7144865 192.29732433 315.67471495 187.1204834 315.63739014 C181.82439939 315.59717728 176.52842023 315.54616429 171.23242188 315.49609375 C160.86595936 315.39965987 150.49943726 315.31515226 140.1328125 315.23828125 C143.2860886 311.23736737 146.07779035 308.12729668 150.3714447 305.37086487 C157.09595508 300.67440492 162.5178114 295.35922393 164.10112381 287.0393486 C165.77727252 275.01887735 165.27854165 262.71000469 165.05721283 250.61026764 C164.98509757 245.80384514 165.00638187 240.9994806 165.01940918 236.19250488 C165.00402125 222.18652214 164.84085856 208.18101619 164.6953125 194.17578125 C164.5096875 162.84640625 164.3240625 131.51703125 164.1328125 99.23828125 C71.7328125 99.23828125 -20.6671875 99.23828125 -115.8671875 99.23828125 C-116.8571875 102.53828125 -117.8471875 105.83828125 -118.8671875 109.23828125 C-120.06913133 112.04460902 -121.30134294 114.7986297 -122.59753418 117.55856323 C-135.02602122 145.2944222 -137.14241865 170.00288278 -136.6914196 200.12315607 C-136.61800149 206.20477125 -136.63817512 212.28618245 -136.64709473 218.36813354 C-136.65033104 229.81052863 -136.57320867 241.25081041 -136.46487474 252.69263446 C-136.34533116 265.75012903 -136.31892746 278.80734015 -136.29912281 291.86530709 C-136.2564646 318.65751663 -136.08854317 345.4469111 -135.8671875 372.23828125 C-111.1171875 372.23828125 -86.3671875 372.23828125 -60.8671875 372.23828125 C-60.8671875 385.76828125 -60.8671875 399.29828125 -60.8671875 413.23828125 C-54.2671875 413.21765625 -47.6671875 413.19703125 -40.8671875 413.17578125 C-38.79953125 413.18730225 -36.731875 413.19882324 -34.6015625 413.21069336 C-24.30304601 413.54796524 -24.30304601 413.54796524 -15.30859375 409.42578125 C-14.13215707 408.05455293 -12.98836045 406.65505278 -11.8671875 405.23828125 C-10.4662573 403.84780576 -9.06388055 402.45857527 -7.64144897 401.09010315 C-5.53026357 399.05371962 -3.46417969 396.97395864 -1.39428711 394.89575195 C0.19241196 393.30369159 1.78438992 391.71705135 3.37695312 390.13085938 C8.83890077 384.67210542 14.1310714 379.12666251 19.1328125 373.23828125 C20.1328125 372.23828125 20.1328125 372.23828125 21.96144104 372.11802673 C22.75864059 372.12024734 23.55584015 372.12246796 24.37719727 372.12475586 C25.27805557 372.12483139 26.17891388 372.12490692 27.10707092 372.12498474 C28.08622971 372.13014603 29.06538849 372.13530731 30.07421875 372.140625 C31.07162582 372.14203995 32.0690329 372.1434549 33.09666443 372.14491272 C36.29624374 372.15053011 39.49575419 372.16308554 42.6953125 372.17578125 C44.85872295 372.18079401 47.02213449 372.1853573 49.18554688 372.18945312 C54.50132575 372.20050518 59.81706421 372.21726021 65.1328125 372.23828125 C65.14311996 373.37008316 65.15342743 374.50188507 65.16404724 375.66798401 C65.2622699 386.39142874 65.36504477 397.11482172 65.47215176 407.8381815 C65.52705897 413.34970355 65.5804232 418.86123111 65.63012695 424.37280273 C65.67825084 429.70264191 65.73060309 435.03242503 65.78575325 440.36219597 C65.8059617 442.3844861 65.82470681 444.40679145 65.84188652 446.42910957 C65.51529243 467.08776163 65.51529243 467.08776163 69.1328125 487.23828125 C69.7928125 487.23828125 70.4528125 487.23828125 71.1328125 487.23828125 C73.3048525 490.20015397 74.96843247 492.74514116 76.1328125 496.23828125 C76.7309375 496.52703125 77.3290625 496.81578125 77.9453125 497.11328125 C80.82008088 498.59173356 82.1849368 500.698284 84.1328125 503.23828125 C80.57535355 504.19557631 77.01105661 505.1248698 73.4453125 506.05078125 C71.9922168 506.44233398 71.9922168 506.44233398 70.50976562 506.84179688 C51.96949905 511.60929399 33.58166864 512.78844816 14.5078125 512.67578125 C12.86454483 512.67121918 12.86454483 512.67121918 11.18807983 512.66656494 C-5.46992059 512.59826646 -21.55860938 511.91849817 -37.8671875 508.23828125 C-39.30940674 507.92479736 -39.30940674 507.92479736 -40.78076172 507.60498047 C-81.87682332 498.45042645 -119.88595682 479.56680609 -151.8671875 452.23828125 C-152.61613281 451.60148437 -153.36507812 450.9646875 -154.13671875 450.30859375 C-167.065891 438.98730834 -179.51316492 426.8028625 -189.65673828 412.89746094 C-190.86557398 411.24049293 -192.09720027 409.60249623 -193.33203125 407.96484375 C-209.94393505 385.64393094 -222.50163701 360.74133138 -230.8671875 334.23828125 C-231.10131348 333.51479492 -231.33543945 332.79130859 -231.57666016 332.04589844 C-234.21437589 323.85262318 -236.33305816 315.60957546 -238.0546875 307.17578125 C-238.2870813 306.04462891 -238.2870813 306.04462891 -238.52416992 304.890625 C-239.01773628 302.34568189 -239.45250779 299.79731483 -239.8671875 297.23828125 C-240.04668945 296.13991943 -240.22619141 295.04155762 -240.41113281 293.90991211 C-242.19129711 281.6056012 -242.26507127 269.34092251 -242.2421875 256.92578125 C-242.24164368 255.81778168 -242.24109985 254.7097821 -242.24053955 253.56820679 C-242.20271157 236.80965492 -241.5915508 220.64462236 -237.8671875 204.23828125 C-237.64756348 203.25021484 -237.42793945 202.26214844 -237.20166016 201.24414062 C-228.34976957 162.4787486 -211.30271224 127.47460523 -186.8671875 96.23828125 C-186.23852783 95.42955566 -186.23852783 95.42955566 -185.59716797 94.60449219 C-172.83043259 78.35968964 -157.636932 63.30908717 -140.8671875 51.23828125 C-139.72053878 50.38651324 -138.57472025 49.53362662 -137.4296875 48.6796875 C-98.34779546 19.82754084 -48.88465292 0.38526119 0 0 Z " fill="#6C2697" transform="translate(241.8671875,-0.23828125)"/>
<path d="M0 0 C74.25 0 148.5 0 225 0 C225.825 24.09 226.65 48.18 227.5 73 C228.04624023 84.27865234 228.04624023 84.27865234 228.60351562 95.78515625 C228.77429574 101.88494704 228.91985286 107.9632109 228.90625 114.0625 C228.90526117 114.85426258 228.90427235 115.64602516 228.90325356 116.46178055 C228.77932657 138.08337033 226.5979453 154.08034177 211.19567871 170.28881836 C203.09044625 178.13076055 194.52731196 184.97328256 185 191 C183.99613062 191.65579135 183.99613062 191.65579135 182.97198105 192.32483101 C173.79834903 198.18996606 166.5662659 198.64180521 155.9453125 197.49609375 C153.0509366 197.27924379 150.15439593 197.10801892 147.25683594 196.93969727 C146.14196713 196.87214611 146.14196713 196.87214611 145.00457573 196.80323029 C114.76820629 194.79108686 114.76820629 194.79108686 88.6015625 207.9453125 C79.00438754 216.73430907 70.6776023 226.87554502 63.17449951 237.48817444 C62.78691467 237.98707687 62.39932983 238.48597931 62 239 C61.67 239 61.34 239 61 239 C61 225.47 61 211.94 61 198 C40.87 198 20.74 198 0 198 C0 132.66 0 67.32 0 0 Z " fill="#6B2497" transform="translate(154,126)"/>
<path d="M0 0 C92.4 0 184.8 0 280 0 C280.515625 31.164375 281.03125 62.32875 281.5625 94.4375 C281.7901001 104.2336499 282.0177002 114.0297998 282.25219727 124.12280273 C282.3651123 136.1973877 282.3651123 136.1973877 282.38609314 141.87171936 C282.40916087 145.79097481 282.50178588 149.70154848 282.63938904 153.61842346 C283.8760905 190.47117139 283.8760905 190.47117139 271.70873165 203.85205936 C270.61814573 204.96376002 269.51606086 206.06431112 268.40209961 207.15258789 C267.61986422 207.92577466 267.61986422 207.92577466 266.8218261 208.71458137 C258.22315434 216.8583515 249.77795425 218.85829219 238.125 219 C234.2387929 218.87592034 230.37723684 218.57906046 226.50488281 218.2265625 C221.58355351 217.90843812 216.87638289 218.38483476 212 219 C215.4940361 214.46480831 218.98865057 211.10274204 223.79606247 208.00409317 C236.03922725 199.99801394 249.39318785 188.90118919 253.08161926 174.13841248 C255.29225873 163.46904863 255.46756105 152.50574789 255.5390625 141.6484375 C255.54505321 140.89811642 255.55104392 140.14779534 255.55721617 139.37473726 C255.62843274 126.36097525 255.06701865 113.38451954 254.625 100.375 C254.08875 76.16125 253.5525 51.9475 253 27 C178.75 27 104.5 27 28 27 C28 92.34 28 157.68 28 225 C48.13 225 68.26 225 89 225 C89.33 238.2 89.66 251.4 90 265 C93.11308594 260.66875 93.11308594 260.66875 96.2890625 256.25 C119.93993438 225.85079674 119.93993438 225.85079674 138.76464844 223.10546875 C148.31800264 221.9778171 157.90548393 222.08788656 167.5 222.5 C168.30280647 222.53424072 169.10561295 222.56848145 169.93274689 222.60375977 C179.99145616 223.06434568 189.99347114 223.87225167 200 225 C199.20924072 225.78914795 198.41848145 226.5782959 197.60375977 227.39135742 C186.99011914 238.02490174 183.11662893 248.04813007 181.875 262.9375 C181.74544922 264.3925293 181.74544922 264.3925293 181.61328125 265.87695312 C181.40278881 268.25084011 181.19852115 270.62508706 181 273 C179.72060547 272.94126709 178.44121094 272.88253418 177.12304688 272.82202148 C152.70890576 270.51920315 152.70890576 270.51920315 130.22265625 277.078125 C126.83489082 280.40413645 124.36476367 284.28584758 121.87841797 288.31005859 C118.42449644 293.25616041 113.97548994 297.32847643 109.65548706 301.51113892 C108.14862012 302.9770223 106.66067199 304.45965366 105.17797852 305.94995117 C97.17567322 313.96655524 97.17567322 313.96655524 92.00927734 314.11352539 C90.28482263 314.11327496 88.56036276 314.10773829 86.8359375 314.09765625 C86.03196533 314.09664917 85.22799316 314.09564209 84.3996582 314.09460449 C81.39142433 314.08936564 78.38321076 314.0754044 75.375 314.0625 C68.65125 314.041875 61.9275 314.02125 55 314 C55 300.47 55 286.94 55 273 C30.25 273 5.5 273 -20 273 C-20.43233161 245.04862345 -20.7808471 217.10003858 -20.98443127 189.14614296 C-21.08155784 176.16064658 -21.21344527 163.17740538 -21.43334961 150.19335938 C-21.62538628 138.849124 -21.74591627 127.50652391 -21.7876814 116.16070783 C-21.81201987 110.17667259 -21.86728982 104.19730639 -22.00887108 98.21480179 C-22.82797119 62.22300771 -16.18419646 32.36839291 0 0 Z " fill="#FEFDFE" transform="translate(126,99)"/>
<path d="M0 0 C3 2 3 2 3.38311005 3.82954502 C3.38683876 4.57556949 3.39056747 5.32159395 3.39440918 6.09022522 C3.40575897 6.94662598 3.41710876 7.80302673 3.42880249 8.68537903 C3.42587189 9.62717514 3.42294128 10.56897125 3.41992188 11.53930664 C3.42839142 12.52975983 3.43686096 13.52021301 3.44558716 14.54067993 C3.46907423 17.83063446 3.46997602 21.12012404 3.46875 24.41015625 C3.47584803 26.6950245 3.4835465 28.97989096 3.49182129 31.26475525 C3.50529553 36.06416771 3.50682322 40.86341567 3.50097656 45.6628418 C3.49509882 51.80082602 3.52557909 57.93801425 3.56609344 64.07584476 C3.59200996 68.80035117 3.59484383 73.52466746 3.59120178 78.24923515 C3.59289147 80.51097032 3.60251933 82.77271442 3.62034607 85.03437996 C3.64259683 88.20842833 3.63279942 91.38088651 3.61523438 94.55493164 C3.62849762 95.48255814 3.64176086 96.41018463 3.65542603 97.36592102 C3.57213353 103.87650566 2.01508888 108.79976358 -2 114 C-4.63651793 116.33082111 -5.40754609 117 -9 117 C-9 117.66 -9 118.32 -9 119 C-16.07529906 120.62059923 -23.86084336 121.43189601 -30.5625 118.375 C-34.90740384 114.14150395 -37.22723832 111.08993957 -37.4375 104.9375 C-37.19292416 99.49976384 -35.71254393 96.7644392 -31.9375 92.875 C-27.03668809 89.74682219 -21.5790414 88.63643011 -15.9765625 87.25390625 C-14.99429688 87.00511719 -14.01203125 86.75632812 -13 86.5 C-12.0925 86.2834375 -11.185 86.066875 -10.25 85.84375 C-7.65949372 85.12223736 -7.65949372 85.12223736 -6 82 C-5.67299844 79.71909256 -5.67299844 79.71909256 -5.68115234 77.16137695 C-5.66128265 76.1805867 -5.64141296 75.19979645 -5.62094116 74.18928528 C-5.60938995 73.13295395 -5.59783875 72.07662262 -5.5859375 70.98828125 C-5.56657135 69.90491989 -5.5472052 68.82155853 -5.5272522 67.70536804 C-5.46741656 64.24115907 -5.4210547 60.77691695 -5.375 57.3125 C-5.33682393 54.96548021 -5.29777242 52.61847448 -5.2578125 50.27148438 C-5.16171176 44.51444766 -5.07667587 38.75732641 -5 33 C-22.67613419 35.10898404 -22.67613419 35.10898404 -40.125 38.5625 C-47.32910378 40.22233829 -54.42414609 41.65997001 -61.76953125 42.54296875 C-64.19348479 42.82630172 -64.19348479 42.82630172 -66 45 C-66.21705637 47.40679241 -66.31134857 49.70219803 -66.31884766 52.11181641 C-66.33391609 53.20953117 -66.33391609 53.20953117 -66.34928894 54.329422 C-66.38023236 56.75346068 -66.39718674 59.17738838 -66.4140625 61.6015625 C-66.43276521 63.28023237 -66.45233794 64.95889275 -66.4727478 66.63754272 C-66.52416995 71.05979835 -66.56374152 75.48208449 -66.60089111 79.90447998 C-66.64086774 84.41556407 -66.69198892 88.92652013 -66.7421875 93.4375 C-66.83906607 102.29157686 -66.92343249 111.14572584 -67 120 C-67.66 120 -68.32 120 -69 120 C-69.020625 120.70125 -69.04125 121.4025 -69.0625 122.125 C-70.47124721 126.44515811 -73.28659503 128.52190112 -77 131 C-83.25750953 133.75330419 -90.27639601 133.68449061 -97 133 C-101.55798098 131.00088554 -104.07330844 128.28802621 -106.30859375 123.9296875 C-107.86863067 119.57568616 -107.67378453 115.60959638 -105.875 111.3125 C-99.22233232 103.1075432 -91.80979222 100.87820835 -81.671875 99.52734375 C-78.78811805 99.13542114 -78.78811805 99.13542114 -76 97 C-75.69959658 94.38482648 -75.59364384 92.00298144 -75.61523438 89.38500977 C-75.6098616 88.59949738 -75.60448883 87.81398499 -75.59895325 87.00466919 C-75.589157 85.29625983 -75.58623666 83.5878006 -75.58930969 81.87936592 C-75.59377356 79.17714168 -75.57982864 76.4755773 -75.56091309 73.77342224 C-75.52406259 68.03645907 -75.51040971 62.29956413 -75.5 56.5625 C-75.48793817 49.91934457 -75.46646809 43.27650883 -75.41999817 36.63349724 C-75.40638741 33.96831228 -75.41060641 31.30352724 -75.41540527 28.63832092 C-75.4060669 27.00700363 -75.39589865 25.3756908 -75.38476562 23.74438477 C-75.39091385 23.00090286 -75.39706207 22.25742096 -75.40339661 21.4914093 C-75.34325201 16.48504575 -75.34325201 16.48504575 -73.63188171 14.06672668 C-71.32736905 12.56031532 -69.18366821 12.12217209 -66.48828125 11.5703125 C-65.35261719 11.33473633 -64.21695313 11.09916016 -63.046875 10.85644531 C-61.81453125 10.61506836 -60.5821875 10.37369141 -59.3125 10.125 C-58.04277344 9.8681543 -56.77304687 9.61130859 -55.46484375 9.34667969 C-44.15090668 7.09130577 -32.76574083 5.2960412 -21.34887695 3.64892578 C-19.42821411 3.36637939 -19.42821411 3.36637939 -17.46875 3.078125 C-16.33888672 2.91731445 -15.20902344 2.75650391 -14.04492188 2.59082031 C-0.47823929 -0.04158603 -0.47823929 -0.04158603 0 0 Z " fill="#FCF8F9" transform="translate(454,345)"/>
<path d="M0 0 C8.91 0 17.82 0 27 0 C27 27.06 27 54.12 27 82 C18.09 82 9.18 82 0 82 C0 54.94 0 27.88 0 0 Z " fill="#FEFEFE" transform="translate(304,181)"/>
<path d="M0 0 C8.91 0 17.82 0 27 0 C27 27.06 27 54.12 27 82 C18.09 82 9.18 82 0 82 C0 54.94 0 27.88 0 0 Z " fill="#FEFEFE" transform="translate(229,181)"/>
<path d="M0 0 C1.98 0.99 1.98 0.99 4 2 C4 70.31 4 138.62 4 209 C-71.57 209 -147.14 209 -225 209 C-225 208.67 -225 208.34 -225 208 C-224.35675781 207.89977539 -223.71351563 207.79955078 -223.05078125 207.69628906 C-211.28536746 205.84587983 -199.69407332 203.94914594 -188.2421875 200.63671875 C-182.96458143 199.60027322 -178.91064068 200.85523536 -174.0625 202.9375 C-165.92049829 206.41936415 -159.27009232 207.29505373 -150.45947266 207.2746582 C-149.31532898 207.27976913 -148.1711853 207.28488007 -146.99237061 207.29014587 C-143.21621437 207.30402404 -139.4402412 207.30308528 -135.6640625 207.30078125 C-133.02436252 207.30467136 -130.38466316 207.30900668 -127.7449646 207.31376648 C-122.20870354 207.32197082 -116.67249351 207.32107981 -111.13623047 207.31567383 C-104.77943106 207.30966073 -98.42285449 207.32188035 -92.06609309 207.3432439 C-86.57697016 207.36099939 -81.08791719 207.3668388 -75.59876668 207.36360615 C-72.33476259 207.36181216 -69.0709495 207.36559389 -65.80696487 207.37832069 C-36.18099321 208.11817855 -36.18099321 208.11817855 -10.6640625 194.859375 C-0.77932792 184.34995459 2.29796764 174.15439615 2.30639648 160.02880859 C2.31888176 158.2444339 2.31888176 158.2444339 2.33161926 156.42401123 C2.35152707 153.17569062 2.3623496 149.92751869 2.36744571 146.67914534 C2.37110307 144.64324951 2.37735034 142.6073778 2.3844471 140.57149124 C2.40891018 133.45015647 2.42198568 126.32889415 2.42553711 119.20751953 C2.42916506 112.60058811 2.45901477 105.99412329 2.50094169 99.38733423 C2.53580509 93.69105514 2.55108834 87.99492941 2.55178314 82.29854453 C2.55257084 78.90711009 2.56107118 75.5161512 2.58978081 72.12482834 C2.6168344 68.33200008 2.6118261 64.54043617 2.59936523 60.74755859 C2.61419952 59.64580292 2.62903381 58.54404724 2.64431763 57.40890503 C2.56709092 49.09502555 0.29778912 42.57587631 -3 35 C-3.33 34.01 -3.66 33.02 -4 32 C-4.66 32 -5.32 32 -6 32 C-7.01027612 28.16181057 -6.92091286 25.67359494 -5.8203125 21.875 C-5.41619141 20.44414062 -5.41619141 20.44414062 -5.00390625 18.984375 C-4.71386719 17.99953125 -4.42382812 17.0146875 -4.125 16 C-3.56375593 14.04205264 -3.00381553 12.08373101 -2.4453125 10.125 C-2.19281738 9.26132812 -1.94032227 8.39765625 -1.68017578 7.5078125 C-1.00520376 5.01918631 -0.47616077 2.5334704 0 0 Z " fill="#FEEFF0" transform="translate(508,303)"/>
<path d="M0 0 C74.25 0 148.5 0 225 0 C225 49.83 225 99.66 225 151 C224.34 151 223.68 151 223 151 C223 101.83 223 52.66 223 2 C149.74 2 76.48 2 1 2 C1 66.35 1 130.7 1 197 C1.66 197.33 2.32 197.66 3 198 C2.01 198 1.02 198 0 198 C0 132.66 0 67.32 0 0 Z " fill="#722E9C" transform="translate(154,126)"/>
<path d="M0 0 C0.33 0 0.66 0 1 0 C1.06991506 8.39805072 1.12301976 16.79597716 1.15543652 25.1942482 C1.17100523 29.09509915 1.19207974 32.99574907 1.22631836 36.89648438 C1.25922949 40.67016285 1.27691889 44.44364957 1.28463173 48.21746063 C1.29011891 49.64777387 1.30083163 51.07807819 1.31719017 52.50830841 C1.47967914 67.3216339 -0.40258521 79.03487501 -10.91796875 90 C-12.86820191 91.80620396 -14.86293935 93.42043343 -17 95 C-17.63035156 95.47308594 -18.26070312 95.94617188 -18.91015625 96.43359375 C-33.20074031 105.71283619 -54.13630604 103.47413064 -70.34765625 103.46875 C-72.9754604 103.4758675 -75.60326302 103.48356876 -78.23106384 103.49182129 C-83.71177501 103.50632647 -89.19237226 103.50705074 -94.6730957 103.50097656 C-100.96437915 103.49433149 -107.25507701 103.51725312 -113.54624182 103.55429029 C-119.65824775 103.58893526 -125.76998102 103.5953052 -131.88207817 103.59120178 C-134.45620916 103.59288237 -137.03034867 103.60242111 -139.6044178 103.62034607 C-173.46429016 103.83031374 -173.46429016 103.83031374 -185.32421875 93.6796875 C-191.41830168 87.57139925 -196.00228721 82.81312966 -197 74 C-194.69 74 -192.38 74 -190 74 C-189.80426392 75.43640171 -189.61872184 76.87419504 -189.4375 78.3125 C-189.33308594 79.11300781 -189.22867187 79.91351563 -189.12109375 80.73828125 C-189 83 -189 83 -190 86 C-187.03 85.505 -187.03 85.505 -184 85 C-183.896875 85.639375 -183.79375 86.27875 -183.6875 86.9375 C-183.460625 87.618125 -183.23375 88.29875 -183 89 C-182.01 89.33 -181.02 89.66 -180 90 C-180 90.99 -180 91.98 -180 93 C-179.4225 92.835 -178.845 92.67 -178.25 92.5 C-173.88491412 91.52998092 -170.97041182 92.23537253 -167 94 C-167 94.99 -167 95.98 -167 97 C-167.99 97.495 -167.99 97.495 -169 98 C-167.02 98.66 -165.04 99.32 -163 100 C-163 99.01 -163 98.02 -163 97 C-162.34 97 -161.68 97 -161 97 C-160.56118657 97.48742046 -160.12237314 97.97484093 -159.67026234 98.47703171 C-157.45797114 100.49422941 -156.23890316 100.37263618 -153.27580261 100.36749268 C-152.30430771 100.37306183 -151.33281281 100.37863098 -150.33187866 100.3843689 C-149.26740509 100.37515411 -148.20293152 100.36593933 -147.10620117 100.35644531 C-145.98398666 100.35848969 -144.86177216 100.36053406 -143.70555115 100.36264038 C-139.98452622 100.3656558 -136.26394126 100.34714445 -132.54296875 100.328125 C-129.96088267 100.32506794 -127.37879494 100.32319142 -124.79670715 100.32244873 C-119.37864476 100.31784048 -113.96073938 100.30378722 -108.54272461 100.28125 C-101.59877261 100.25242332 -94.65492281 100.24203042 -87.71091747 100.2375679 C-82.37578704 100.23400778 -77.04067928 100.22358642 -71.70556068 100.21169281 C-69.14551291 100.2059958 -66.58546288 100.20123522 -64.02541161 100.19742584 C-60.44422812 100.19054509 -56.86313645 100.17690269 -53.28198242 100.16113281 C-51.6943811 100.15945602 -51.6943811 100.15945602 -50.07470703 100.15774536 C-45.2731172 100.12976674 -40.71973899 100.00760906 -36 99 C-36 97.68 -36 96.36 -36 95 C-35.67 94.01 -35.34 93.02 -35 92 C-30.53991177 92 -26.52292578 92.20758539 -22.10546875 92.87890625 C-19.65494618 93.12470663 -19.65494618 93.12470663 -16 92 C-16 89.03 -16 86.06 -16 83 C-14.68 83.33 -13.36 83.66 -12 84 C-9.31850007 83.61432869 -9.31850007 83.61432869 -7 83 C-7.03480469 82.05898438 -7.06960938 81.11796875 -7.10546875 80.1484375 C-7.13253906 78.90320313 -7.15960938 77.65796875 -7.1875 76.375 C-7.22230469 75.14523437 -7.25710938 73.91546875 -7.29296875 72.6484375 C-6.97668791 68.70968677 -5.93830811 66.40192852 -4 63 C-3.31363375 60.76474965 -3.31363375 60.76474965 -3 59 C-2.34 59.33 -1.68 59.66 -1 60 C-0.505 30.3 -0.505 30.3 0 0 Z " fill="#F92F49" transform="translate(509,408)"/>
<path d="M0 0 C5.07829754 -0.00556435 10.1563377 -0.02984776 15.23455334 -0.05797195 C19.21109257 -0.07666246 23.1875689 -0.08180646 27.16414833 -0.08333588 C29.03740217 -0.08632782 30.91065585 -0.09423639 32.78386497 -0.10752106 C48.62925814 -0.21227582 62.31712146 1.21971508 75.84790039 10.24023438 C75.84790039 10.90023438 75.84790039 11.56023437 75.84790039 12.24023438 C76.50790039 12.24023438 77.16790039 12.24023438 77.84790039 12.24023438 C78.83790039 14.71523438 78.83790039 14.71523438 79.84790039 17.24023438 C79.35161133 16.8303125 78.85532227 16.42039062 78.34399414 15.99804688 C73.90816936 12.4796887 70.3987769 10.39666698 64.84790039 9.24023438 C64.51790039 9.90023438 64.18790039 10.56023437 63.84790039 11.24023438 C63.18790039 11.24023438 62.52790039 11.24023438 61.84790039 11.24023438 C61.51790039 9.59023438 61.18790039 7.94023437 60.84790039 6.24023438 C59.19790039 5.91023438 57.54790039 5.58023437 55.84790039 5.24023438 C55.51790039 6.23023438 55.18790039 7.22023438 54.84790039 8.24023438 C53.85790039 7.91023438 52.86790039 7.58023437 51.84790039 7.24023438 C51.84790039 5.92023438 51.84790039 4.60023438 51.84790039 3.24023438 C37.00920292 3.21682814 22.1705079 3.19921734 7.33179569 3.1884222 C0.44124292 3.18327562 -6.44929836 3.17626426 -13.33984375 3.16479492 C-19.99232011 3.15372717 -26.64478768 3.14794609 -33.29727364 3.14535713 C-35.83251699 3.14351261 -38.36775971 3.13991074 -40.90299797 3.13450432 C-44.45992305 3.12722231 -48.01679911 3.12624646 -51.57373047 3.12670898 C-52.61670792 3.12311371 -53.65968536 3.11951843 -54.73426819 3.11581421 C-60.61428119 3.12406222 -66.35026855 3.22838182 -72.15209961 4.24023438 C-72.81209961 5.23023438 -73.47209961 6.22023438 -74.15209961 7.24023438 C-74.89459961 7.01335937 -75.63709961 6.78648437 -76.40209961 6.55273438 C-79.17727636 5.91511449 -79.17727636 5.91511449 -81.02709961 7.67773438 C-84.04617905 9.89764573 -86.50729269 9.4505117 -90.15209961 9.24023438 C-90.15209961 9.90023438 -90.15209961 10.56023437 -90.15209961 11.24023438 C-91.47209961 11.57023437 -92.79209961 11.90023438 -94.15209961 12.24023438 C-93.49209961 14.88023437 -92.83209961 17.52023437 -92.15209961 20.24023438 C-96.15209961 19.24023438 -96.15209961 19.24023438 -98.15209961 18.24023438 C-98.48209961 17.25023437 -98.81209961 16.26023437 -99.15209961 15.24023438 C-101.60844915 19.97747991 -103.46267077 23.80523912 -103.15209961 29.24023438 C-104.80209961 29.24023438 -106.45209961 29.24023438 -108.15209961 29.24023438 C-108.80834961 27.51367188 -108.80834961 27.51367188 -109.15209961 25.24023438 C-106.60010935 19.58057855 -102.47275869 15.23066573 -97.57006836 11.52929688 C-95.86311636 10.18870293 -95.86311636 10.18870293 -95.15209961 7.24023438 C-93.07006836 5.88867188 -93.07006836 5.88867188 -90.33959961 4.61523438 C-89.4669043 4.18984375 -88.59420898 3.76445312 -87.69506836 3.32617188 C-78.4202563 0.48339596 -67.92404067 0.98865194 -58.28881836 0.69335938 C-57.28709878 0.66231991 -57.28709878 0.66231991 -56.26514244 0.63065338 C-37.51460602 0.06472707 -18.75770064 0.01752341 0 0 Z " fill="#F06885" transform="translate(421.152099609375,314.759765625)"/>
<path d="M0 0 C1.32 0 2.64 0 4 0 C3.835 0.66 3.67 1.32 3.5 2 C2.59832116 7.41007305 2.10622436 11.88934123 4.6875 16.8125 C7.0616959 20.08504029 8.41950466 21.2734169 12 23 C19.41509967 23.97971524 27.30665413 23.57723704 34 20 C36.87685203 17.45911321 36.87685203 17.45911321 39 15 C39.66 15 40.32 15 41 15 C41 14.01 41 13.02 41 12 C41.66 12 42.32 12 43 12 C42.835 13.051875 42.67 14.10375 42.5 15.1875 C41.93769202 18.83424047 41.93769202 18.83424047 42 21.875 C42 22.57625 42 23.2775 42 24 C41.505 24.495 41.505 24.495 41 25 C41.495 26.485 41.495 26.485 42 28 C38.60972554 29.13009149 37.41451141 28.71989699 34 28 C32.10463073 27.95805545 30.20788184 27.95862741 28.3125 28 C23.22049287 28.11024643 23.22049287 28.11024643 21 27 C18.1335252 27.11546726 15.29604146 27.2806507 12.4375 27.5 C9.62138865 27.71504018 6.82330485 27.88223963 4 28 C3 27 3 27 2.90234375 25.15234375 C2.95117188 22.07617188 2.95117188 22.07617188 3 19 C2.05125 19.020625 1.1025 19.04125 0.125 19.0625 C-3 19 -3 19 -5 18 C-5 15.36 -5 12.72 -5 10 C-5.66 10 -6.32 10 -7 10 C-7 9.34 -7 8.68 -7 8 C-6.34 8 -5.68 8 -5 8 C-5.33 7.01 -5.66 6.02 -6 5 C-5.01 4.67 -4.02 4.34 -3 4 C-2.34 5.65 -1.68 7.3 -1 9 C-0.67 6.03 -0.34 3.06 0 0 Z " fill="#F52E47" transform="translate(345,454)"/>
<path d="M0 0 C1.32 0.66 2.64 1.32 4 2 C4 19.82 4 37.64 4 56 C3.67 56 3.34 56 3 56 C2.90203125 55.40574219 2.8040625 54.81148438 2.703125 54.19921875 C1.4919673 47.48564635 -0.55697763 41.35608852 -3 35 C-3.495 33.515 -3.495 33.515 -4 32 C-4.66 32 -5.32 32 -6 32 C-7.01027612 28.16181057 -6.92091286 25.67359494 -5.8203125 21.875 C-5.55089844 20.92109375 -5.28148437 19.9671875 -5.00390625 18.984375 C-4.71386719 17.99953125 -4.42382812 17.0146875 -4.125 16 C-3.56375593 14.04205264 -3.00381553 12.08373101 -2.4453125 10.125 C-2.19281738 9.26132812 -1.94032227 8.39765625 -1.68017578 7.5078125 C-1.00520376 5.01918631 -0.47616077 2.5334704 0 0 Z " fill="#FEFBFC" transform="translate(508,303)"/>
<path d="M0 0 C5.96762573 2.49638084 12.11958821 3.81784584 18.4375 5.125 C18.4375 5.455 18.4375 5.785 18.4375 6.125 C-4.3325 6.125 -27.1025 6.125 -50.5625 6.125 C-50.5625 5.795 -50.5625 5.465 -50.5625 5.125 C-49.91925781 5.02477539 -49.27601563 4.92455078 -48.61328125 4.82128906 C-36.84786746 2.97087983 -25.25657332 1.07414594 -13.8046875 -2.23828125 C-8.63825178 -3.25289453 -4.71284365 -2.11463245 0 0 Z " fill="#FEFAFA" transform="translate(333.5625,505.875)"/>
<path d="M0 0 C0 16.17 0 32.34 0 49 C-0.33 49 -0.66 49 -1 49 C-1 33.16 -1 17.32 -1 1 C-11.395 2.485 -11.395 2.485 -22 4 C-23.65 4 -25.3 4 -27 4 C-26.505 5.98 -26.505 5.98 -26 8 C-24.865625 8.12375 -23.73125 8.2475 -22.5625 8.375 C-21.386875 8.58125 -20.21125 8.7875 -19 9 C-18.505 9.99 -18.505 9.99 -18 11 C-19.65614657 11.38218767 -21.32457024 11.71395102 -23 12 C-23.495 11.505 -23.495 11.505 -24 11 C-29.6047709 10.78673597 -29.6047709 10.78673597 -35 12 C-35 11.34 -35 10.68 -35 10 C-35.99 10.33 -36.98 10.66 -38 11 C-42.08594833 12.1865126 -45.76342394 12.14865179 -50 12 C-49.67 11.34 -49.34 10.68 -49 10 C-52.63 10.33 -56.26 10.66 -60 11 C-59.67 10.34 -59.34 9.68 -59 9 C-57.07666016 8.46923828 -57.07666016 8.46923828 -54.5390625 8.0703125 C-53.60126953 7.91667236 -52.66347656 7.76303223 -51.69726562 7.60473633 C-50.68341797 7.44642334 -49.66957031 7.28811035 -48.625 7.125 C-40.09858316 5.72634277 -31.64370584 4.16571037 -23.20556641 2.30712891 C-15.26238979 0.57151003 -8.27554067 0 0 0 Z " fill="#F8687C" transform="translate(449,378)"/>
<path d="M0 0 C11.50998406 -0.06979201 23.01991701 -0.12295876 34.5300703 -0.15543652 C39.8758363 -0.17103139 45.22145653 -0.19215573 50.56713867 -0.22631836 C55.73484525 -0.25913349 60.90241242 -0.27689937 66.07021523 -0.28463173 C68.03279117 -0.29013573 69.99536029 -0.30088265 71.95787621 -0.31719017 C88.24768155 -0.44705432 102.03885699 0.69257132 116 10 C116 10.66 116 11.32 116 12 C116.66 12 117.32 12 118 12 C118.99 14.475 118.99 14.475 120 17 C119.25556641 16.38511719 119.25556641 16.38511719 118.49609375 15.7578125 C114.06026897 12.23945432 110.55087651 10.15643261 105 9 C104.67 9.66 104.34 10.32 104 11 C103.34 11 102.68 11 102 11 C101.505 8.525 101.505 8.525 101 6 C99.35 5.67 97.7 5.34 96 5 C95.67 5.99 95.34 6.98 95 8 C94.01 7.67 93.02 7.34 92 7 C92 5.68 92 4.36 92 3 C88.7 3 85.4 3 82 3 C82 2.67 82 2.34 82 2 C54.94 1.67 27.88 1.34 0 1 C0 0.67 0 0.34 0 0 Z " fill="#CD5E90" transform="translate(381,315)"/>
<path d="M0 0 C2.31 0 4.62 0 7 0 C7.19573608 1.43640171 7.38127816 2.87419504 7.5625 4.3125 C7.66691406 5.11300781 7.77132813 5.91351563 7.87890625 6.73828125 C8 9 8 9 7 12 C8.98 11.67 10.96 11.34 13 11 C13.103125 11.639375 13.20625 12.27875 13.3125 12.9375 C13.539375 13.618125 13.76625 14.29875 14 15 C14.99 15.33 15.98 15.66 17 16 C17 16.99 17 17.98 17 19 C17.86625 18.7525 17.86625 18.7525 18.75 18.5 C23.11508588 17.52998092 26.02958818 18.23537253 30 20 C30 20.99 30 21.98 30 23 C29.34 23.33 28.68 23.66 28 24 C28.99 24.33 29.98 24.66 31 25 C31 25.66 31 26.32 31 27 C18.59778714 25.44972339 10.63511188 19.62950786 3 10 C0.70366176 6.55549263 0.45983515 4.06187717 0 0 Z " fill="#F52840" transform="translate(312,482)"/>
<path d="M0 0 C6.93 0 13.86 0 21 0 C21 0.99 21 1.98 21 3 C29.91 2.01 29.91 2.01 39 1 C35.99812293 4.00187707 32.32479358 3.92651603 28.2734375 4.5078125 C26.97921371 4.70333206 26.97921371 4.70333206 25.65884399 4.90280151 C22.89865845 5.31796115 20.1369262 5.72159953 17.375 6.125 C15.50509526 6.40419166 13.63530187 6.68413018 11.765625 6.96484375 C7.17833119 7.65190705 2.58961741 8.32864135 -2 9 C-2 8.34 -2 7.68 -2 7 C-1.34 7 -0.68 7 0 7 C0 4.69 0 2.38 0 0 Z " fill="#F84F69" transform="translate(406,345)"/>
<path d="M0 0 C2.64 0 5.28 0 8 0 C8.05058526 7.08411622 8.08568494 14.16818612 8.10986328 21.25244141 C8.11993954 23.66391744 8.13360081 26.07538122 8.15087891 28.48681641 C8.1750559 31.94697085 8.18646669 35.4069642 8.1953125 38.8671875 C8.20563507 39.95055389 8.21595764 41.03392029 8.22659302 42.15011597 C8.22674408 43.1510025 8.22689514 44.15188904 8.22705078 45.18310547 C8.231492 46.06690887 8.23593323 46.95071228 8.24050903 47.86129761 C8 50 8 50 6 52 C0.78555016 53.87720194 -3.54513151 54.19139889 -9 54 C-9.495 52.515 -9.495 52.515 -10 51 C-12.00016466 49.79117904 -12.00016466 49.79117904 -14 49 C-10.32431536 48.08107884 -8.83619425 48.04095144 -5 49 C-1.37 48.34 2.26 47.68 6 47 C6 32.15 6 17.3 6 2 C3.03 1.505 3.03 1.505 0 1 C0 0.67 0 0.34 0 0 Z " fill="#F7344E" transform="translate(440,379)"/>
<path d="M0 0 C2.64 0 5.28 0 8 0 C8 0.66 8 1.32 8 2 C8.99 2.33 9.98 2.66 11 3 C10.67 4.32 10.34 5.64 10 7 C6.19755532 8.1326431 2.45731367 9.11767512 -1.4375 9.875 C-5.39289383 10.71872735 -8.64970485 12.13872492 -12.17578125 14.09765625 C-14.09677247 15.04786818 -15.90972903 15.55241438 -18 16 C-19 10.25 -19 10.25 -19 8 C-12.73 7.67 -6.46 7.34 0 7 C0 4.69 0 2.38 0 0 Z " fill="#F6354E" transform="translate(367,437)"/>
<path d="M0 0 C-0.66 0.66 -1.32 1.32 -2 2 C-2.64767793 4.57061311 -2.64767793 4.57061311 -3 7 C-3.66 7 -4.32 7 -5 7 C-5 7.66 -5 8.32 -5 9 C-5.66 9 -6.32 9 -7 9 C-7 8.34 -7 7.68 -7 7 C-8.794375 7.2165625 -8.794375 7.2165625 -10.625 7.4375 C-11.71554687 7.56898438 -11.71554687 7.56898438 -12.828125 7.703125 C-14.68867186 7.95744435 -16.53494083 8.31267313 -18.375 8.6875 C-19.24125 8.790625 -20.1075 8.89375 -21 9 C-23 7 -23 7 -23.125 3.375 C-23.08375 2.26125 -23.0425 1.1475 -23 0 C-21.97519531 0.01160156 -20.95039063 0.02320313 -19.89453125 0.03515625 C-18.533856 0.04454022 -17.17317876 0.05363977 -15.8125 0.0625 C-15.13896484 0.07087891 -14.46542969 0.07925781 -13.77148438 0.08789062 C-10.82548826 0.10226134 -8.0920485 0.01861511 -5.19921875 -0.56640625 C-3 -1 -3 -1 0 0 Z " fill="#F72C46" transform="translate(448,464)"/>
<path d="M0 0 C0.66 0 1.32 0 2 0 C2.03758423 1.5634314 2.03758423 1.5634314 2.07592773 3.15844727 C2.17154069 7.10042461 2.27135701 11.04228708 2.37231445 14.98413086 C2.41509183 16.67616044 2.45679438 18.3682176 2.49731445 20.06030273 C2.72986502 29.73842559 3.07978785 39.36340474 3.89868164 49.01147461 C3.9878724 51.64227953 3.81734505 53.52288594 3 56 C2.01 56 1.02 56 0 56 C0 37.52 0 19.04 0 0 Z " fill="#F93049" transform="translate(457,399)"/>
<path d="M0 0 C0.66 1.32 1.32 2.64 2 4 C2.33 4.33 2.66 4.66 3 5 C3.15686249 6.55948542 3.25076639 8.12542668 3.31640625 9.69140625 C3.35830078 10.63564453 3.40019531 11.57988281 3.44335938 12.55273438 C3.48267578 13.54595703 3.52199219 14.53917969 3.5625 15.5625 C3.62727539 17.05813477 3.62727539 17.05813477 3.69335938 18.58398438 C3.79980298 21.0558415 3.90181928 23.5278031 4 26 C4.66 26 5.32 26 6 26 C6 28.97 6 31.94 6 35 C4.68 35 3.36 35 2 35 C1.67 32.69 1.34 30.38 1 28 C0.67 28 0.34 28 0 28 C0 18.76 0 9.52 0 0 Z " fill="#F9344E" transform="translate(388,419)"/>
<path d="M0 0 C0.99 0.33 1.98 0.66 3 1 C2.01 1.33 1.02 1.66 0 2 C-1.51617907 3.69863938 -1.51617907 3.69863938 -2 6 C-1.2884375 7.1446875 -1.2884375 7.1446875 -0.5625 8.3125 C1.5201261 11.89461689 0.85256866 14.04718167 0 18 C-1.65 18.66 -3.3 19.32 -5 20 C-6.84193854 16.31612293 -6.36231308 12.02993847 -6 8 C-4.52091164 4.68965938 -2.6773109 2.42232891 0 0 Z " fill="#FCFAFB" transform="translate(423,437)"/>
<path d="M0 0 C0.33 0 0.66 0 1 0 C1.33 15.84 1.66 31.68 2 48 C3.485 47.505 3.485 47.505 5 47 C3.79618552 49.49361571 2.54571278 51.68143083 1 54 C0.34 54 -0.32 54 -1 54 C-1 53.34 -1 52.68 -1 52 C-5.455 52.495 -5.455 52.495 -10 53 C-8 51 -8 51 -4.9375 50 C-1.87849194 49.34247444 -1.87849194 49.34247444 -1 47 C-0.88194823 45.4892243 -0.82303551 43.97361169 -0.79467773 42.45849609 C-0.77473251 41.51767181 -0.75478729 40.57684753 -0.73423767 39.60751343 C-0.71752518 38.58976837 -0.70081268 37.57202332 -0.68359375 36.5234375 C-0.6524221 34.96286118 -0.6524221 34.96286118 -0.62062073 33.37075806 C-0.55510128 30.03890751 -0.49622908 26.7069765 -0.4375 23.375 C-0.39431706 21.11978326 -0.35070285 18.86457473 -0.30664062 16.609375 C-0.19941748 11.07300236 -0.09765554 5.53654922 0 0 Z " fill="#FBE2E5" transform="translate(449,380)"/>
<path d="M0 0 C0.66 2.31 1.32 4.62 2 7 C-0.16874252 6.49396008 -1.99967627 6.00016187 -4 5 C-4.33 4.01 -4.66 3.02 -5 2 C-7.45634954 6.73724554 -9.31057116 10.56500474 -9 16 C-10.65 16 -12.3 16 -14 16 C-14.671875 14.28515625 -14.671875 14.28515625 -15 12 C-13.890625 9.74609375 -13.890625 9.74609375 -12.25 7.4375 C-11.71890625 6.67308594 -11.1878125 5.90867187 -10.640625 5.12109375 C-7.17637466 0.64231295 -5.85777035 -0.39051802 0 0 Z " fill="#F85B72" transform="translate(327,328)"/>
<path d="M0 0 C2.64 0 5.28 0 8 0 C8 0.66 8 1.32 8 2 C8.66 1.67 9.32 1.34 10 1 C11.87379605 0.92966231 13.75001102 0.9156978 15.625 0.9375 C17.12933594 0.95103516 17.12933594 0.95103516 18.6640625 0.96484375 C19.43492187 0.97644531 20.20578125 0.98804688 21 1 C21 1.33 21 1.66 21 2 C20.16021606 2.16604736 20.16021606 2.16604736 19.3034668 2.33544922 C16.76337823 2.84172841 14.22547661 3.35824231 11.6875 3.875 C10.80642578 4.04902344 9.92535156 4.22304688 9.01757812 4.40234375 C7.74624023 4.66337891 7.74624023 4.66337891 6.44921875 4.9296875 C5.66893311 5.08679199 4.88864746 5.24389648 4.0847168 5.40576172 C1.72270755 5.96432022 1.72270755 5.96432022 -1 8 C-1.66 7.67 -2.32 7.34 -3 7 C-3 6.34 -3 5.68 -3 5 C-2.34 5 -1.68 5 -1 5 C-0.67 3.35 -0.34 1.7 0 0 Z " fill="#F4536C" transform="translate(380,353)"/>
<path d="M0 0 C3.63 0 7.26 0 11 0 C11 0.99 11 1.98 11 3 C19.91 2.01 19.91 2.01 29 1 C26.3575074 3.6424926 24.57865459 3.55439422 20.8984375 4.0703125 C19.68671875 4.24433594 18.475 4.41835938 17.2265625 4.59765625 C15.95554687 4.77167969 14.68453125 4.94570313 13.375 5.125 C11.456875 5.39763672 11.456875 5.39763672 9.5 5.67578125 C6.33430681 6.12464819 3.16772046 6.56571065 0 7 C0.33 6.34 0.66 5.68 1 5 C3.5625 4.375 3.5625 4.375 6 4 C4.68 3.67 3.36 3.34 2 3 C2 2.34 2 1.68 2 1 C1.34 0.67 0.68 0.34 0 0 Z " fill="#F87B90" transform="translate(416,345)"/>
<path d="M0 0 C0 0.33 0 0.66 0 1 C-1.98 1.66 -3.96 2.32 -6 3 C-5.67 3.99 -5.34 4.98 -5 6 C-6.98 6 -8.96 6 -11 6 C-11 6.66 -11 7.32 -11 8 C-14.13498292 9.85776765 -16.37471432 10.20140476 -20 10 C-15.51025053 3.79986978 -8.30714636 -3.21566956 0 0 Z " fill="#E86183" transform="translate(342,318)"/>
<path d="M0 0 C0 3.74110761 -0.25884204 7.4560694 -0.5 11.1875 C-0.54769531 11.93708984 -0.59539062 12.68667969 -0.64453125 13.45898438 C-0.76217832 15.30604344 -0.88097771 17.15302904 -1 19 C-1.99 18.67 -2.98 18.34 -4 18 C-5.63186199 13.10441403 -5.83931781 8.75493725 -3.625 4.125 C-2 2 -2 2 0 0 Z " fill="#FBE7E8" transform="translate(352,452)"/>
<path d="M0 0 C-0.48578543 3.12290635 -0.9986012 5.99580359 -2 9 C-2.99 9.495 -2.99 9.495 -4 10 C-4.46751788 12.35599235 -4.46751788 12.35599235 -4.625 15.0625 C-4.69976562 15.98160156 -4.77453125 16.90070313 -4.8515625 17.84765625 C-4.90054687 18.55792969 -4.94953125 19.26820313 -5 20 C-5.33 20 -5.66 20 -6 20 C-6 14.39 -6 8.78 -6 3 C-7.32 2.67 -8.64 2.34 -10 2 C-6.5980513 -0.09350689 -3.94727588 -0.17942163 0 0 Z " fill="#F75369" transform="translate(464,344)"/>
<path d="M0 0 C0.804375 0.185625 1.60875 0.37125 2.4375 0.5625 C2.953125 0.706875 3.46875 0.85125 4 1 C0.7394904 4.2605096 -2.89083745 4.05467405 -7.3125 4.0625 C-9.1378125 4.0315625 -9.1378125 4.0315625 -11 4 C-10.67 3.34 -10.34 2.68 -10 2 C-13.63 2.33 -17.26 2.66 -21 3 C-20.67 2.34 -20.34 1.68 -20 1 C-13.31447623 -0.6568472 -6.73735102 -1.57682684 0 0 Z " fill="#F95E75" transform="translate(410,386)"/>
<path d="M0 0 C5.28 0 10.56 0 16 0 C16 0.33 16 0.66 16 1 C15.37351562 1.03738281 14.74703125 1.07476562 14.1015625 1.11328125 C13.28429687 1.17902344 12.46703125 1.24476563 11.625 1.3125 C10.40683594 1.39951172 10.40683594 1.39951172 9.1640625 1.48828125 C6.62078662 1.82990528 6.62078662 1.82990528 5 5 C4.2575 4.773125 3.515 4.54625 2.75 4.3125 C-0.05914993 3.70523302 -0.05914993 3.70523302 -2.3125 5.4375 C-2.869375 5.953125 -3.42625 6.46875 -4 7 C-4.99 6.34 -5.98 5.68 -7 5 C-7 4.34 -7 3.68 -7 3 C-3.535 2.505 -3.535 2.505 0 2 C0 1.34 0 0.68 0 0 Z " fill="#FB5D75" transform="translate(342,317)"/>
<path d="M0 0 C7.59041706 0.4950272 13.73551129 3.82367419 20 8 C20 8.66 20 9.32 20 10 C20.66 10 21.32 10 22 10 C22.66 11.65 23.32 13.3 24 15 C23.53851563 14.63648438 23.07703125 14.27296875 22.6015625 13.8984375 C15.72286506 8.59667465 8.50669755 3.23860462 0 1 C0 0.67 0 0.34 0 0 Z " fill="#AB63A8" transform="translate(477,317)"/>
<path d="M0 0 C3.36179774 1.44077046 5.59156268 3.24750021 8 6 C8 6.66 8 7.32 8 8 C5.36 8 2.72 8 0 8 C-0.79953138 4.71303767 -1.09658936 3.28976808 0 0 Z " fill="#F8304B" transform="translate(416,456)"/>
<path d="M0 0 C2.31 0 4.62 0 7 0 C6.67 0.99 6.34 1.98 6 3 C3.79355164 3.36572637 1.58471965 3.71708834 -0.625 4.0625 C-2.46964844 4.35833984 -2.46964844 4.35833984 -4.3515625 4.66015625 C-7.84573059 4.98563015 -10.59044235 4.75010268 -14 4 C-12 2 -12 2 -9.1796875 1.8046875 C-8.08914063 1.82789063 -6.99859375 1.85109375 -5.875 1.875 C-4.77929688 1.89304687 -3.68359375 1.91109375 -2.5546875 1.9296875 C-1.71164062 1.95289063 -0.86859375 1.97609375 0 2 C0 1.34 0 0.68 0 0 Z " fill="#F64E68" transform="translate(442,343)"/>
<path d="M0 0 C0.66 0 1.32 0 2 0 C1.835 1.051875 1.67 2.10375 1.5 3.1875 C1.10430322 6.20468796 0.90821029 8.97093972 1 12 C0.34 12 -0.32 12 -1 12 C-1 11.34 -1 10.68 -1 10 C-2.32 10.33 -3.64 10.66 -5 11 C-4.1875 7.5625 -4.1875 7.5625 -3 4 C-2.01 3.67 -1.02 3.34 0 3 C0 2.01 0 1.02 0 0 Z " fill="#FA2D45" transform="translate(386,466)"/>
<path d="M0 0 C0.66 0 1.32 0 2 0 C1.979375 0.763125 1.95875 1.52625 1.9375 2.3125 C1.87057159 5.10185786 1.87057159 5.10185786 3 8 C1.625 9.5 1.625 9.5 0 11 C-0.66 11 -1.32 11 -2 11 C-2.25 3.375 -2.25 3.375 0 0 Z " fill="#F7465D" transform="translate(391,388)"/>
<path d="M0 0 C-5.27377728 2.92987626 -10.02749309 3.11710798 -16 3 C-16 2.34 -16 1.68 -16 1 C-10.26696495 -0.57300962 -5.84340558 -1.24327778 0 0 Z " fill="#FB2E47" transform="translate(483,507)"/>
<path d="M0 0 C0.99 0.33 1.98 0.66 3 1 C2.01 1.33 1.02 1.66 0 2 C-1.10836423 3.88316159 -1.10836423 3.88316159 -2 6 C-2.99 7.485 -2.99 7.485 -4 9 C-4.45394552 11.27912938 -4.45394552 11.27912938 -4.625 13.6875 C-4.69976562 14.49574219 -4.77453125 15.30398438 -4.8515625 16.13671875 C-4.90054687 16.75160156 -4.94953125 17.36648438 -5 18 C-5.33 18 -5.66 18 -6 18 C-6.55839416 7.34914842 -6.55839416 7.34914842 -3 3 C-1.3125 1.1875 -1.3125 1.1875 0 0 Z " fill="#FBDCDB" transform="translate(423,437)"/>
<path d="M0 0 C3.16115776 1.36983503 3.9927092 1.9890638 6 5 C4.625 7 4.625 7 3 9 C2.34 9 1.68 9 1 9 C0.855625 8.21625 0.71125 7.4325 0.5625 6.625 C0.12201075 4.03578982 0.12201075 4.03578982 -1 2 C-0.67 1.34 -0.34 0.68 0 0 Z " fill="#F45570" transform="translate(493,326)"/>
<path d="M0 0 C0.99 0.33 1.98 0.66 3 1 C1.02 1.99 1.02 1.99 -1 3 C-1 4.32 -1 5.64 -1 7 C-3.31 7.33 -5.62 7.66 -8 8 C-3.45945946 1.72972973 -3.45945946 1.72972973 0 0 Z " fill="#D55F8B" transform="translate(330,320)"/>
<path d="M0 0 C-3.06532816 2.04355211 -4.38354689 2.38658825 -7.9375 2.75 C-8.79214844 2.84796875 -9.64679688 2.9459375 -10.52734375 3.046875 C-13.23766556 2.99549449 -14.70187794 2.38633814 -17 1 C-16.06027344 0.90912109 -16.06027344 0.90912109 -15.1015625 0.81640625 C-13.87566406 0.69072266 -13.87566406 0.69072266 -12.625 0.5625 C-11.81289063 0.48128906 -11.00078125 0.40007812 -10.1640625 0.31640625 C-3.4214876 -0.66942149 -3.4214876 -0.66942149 0 0 Z " fill="#F62A44" transform="translate(373,444)"/>
<path d="M0 0 C2.72168665 3.17530109 4.85559053 5.94254825 6 10 C5.625 12.3125 5.625 12.3125 5 14 C4.54625 13.071875 4.0925 12.14375 3.625 11.1875 C2.0578367 7.96078611 2.0578367 7.96078611 0 5 C-0.125 2.3125 -0.125 2.3125 0 0 Z " fill="#F96F88" transform="translate(503,335)"/>
<path d="M0 0 C-0.185625 0.78375 -0.37125 1.5675 -0.5625 2.375 C-1.25962266 4.97089775 -1.25962266 4.97089775 0 7 C-2.97 6.505 -2.97 6.505 -6 6 C-6 5.01 -6 4.02 -6 3 C-2.66666667 0 -2.66666667 0 0 0 Z " fill="#F42A45" transform="translate(455,457)"/>
<path d="M0 0 C0.33 0.66 0.66 1.32 1 2 C0.0625 4.125 0.0625 4.125 -1 6 C-0.34 6.33 0.32 6.66 1 7 C-1.97 6.67 -4.94 6.34 -8 6 C-7.01 5.34 -6.02 4.68 -5 4 C-3.32576317 2.67618483 -1.65788785 1.34423339 0 0 Z " fill="#F3415A" transform="translate(382,471)"/>
<path d="M0 0 C1.5625 1.1875 1.5625 1.1875 3 3 C2.6875 5.6875 2.6875 5.6875 2 8 C0.68 7.34 -0.64 6.68 -2 6 C-1.125 1.125 -1.125 1.125 0 0 Z " fill="#F42F4B" transform="translate(505,478)"/>
<path d="M0 0 C2.56616632 3.84924948 2.55097676 6.4349304 3 11 C2.67 10.34 2.34 9.68 2 9 C1.34 9 0.68 9 0 9 C-1.10844919 5.67465243 -0.84454356 3.37817425 0 0 Z " fill="#F85167" transform="translate(507,346)"/>
<path d="M0 0 C1.39864092 3.17872935 0.89282517 4.30111022 -0.3125 7.6875 C-2 11 -2 11 -4 12 C-3.52309796 10.37433394 -3.04340334 8.74948689 -2.5625 7.125 C-2.29566406 6.22007812 -2.02882813 5.31515625 -1.75390625 4.3828125 C-1 2 -1 2 0 0 Z " fill="#43165F" transform="translate(19,156)"/>
<path d="M0 0 C0.66 0 1.32 0 2 0 C3.38232443 1.62626404 4.71937515 3.2925002 6 5 C3.03 4.67 0.06 4.34 -3 4 C-2.01 3.67 -1.02 3.34 0 3 C0 2.01 0 1.02 0 0 Z " fill="#F71F36" transform="translate(346,505)"/>
<path d="M0 0 C0.33 0.66 0.66 1.32 1 2 C-1.60582371 2.93065133 -2.64198224 3.14917407 -5.25 2.0625 C-5.8275 1.711875 -6.405 1.36125 -7 1 C-3.375 -1.125 -3.375 -1.125 0 0 Z " fill="#F73B51" transform="translate(336,504)"/>
<path d="M0 0 C-3 2 -3 2 -6 2 C-6 2.66 -6 3.32 -6 4 C-7.32 3.67 -8.64 3.34 -10 3 C-9.01 3 -8.02 3 -7 3 C-7 2.01 -7 1.02 -7 0 C-3.86650268 -1.04449911 -3.01031744 -0.93423645 0 0 Z " fill="#F8DBDE" transform="translate(451,460)"/>
<path d="M0 0 C0.66 0.33 1.32 0.66 2 1 C1.34 2.65 0.68 4.3 0 6 C-0.66 6 -1.32 6 -2 6 C-2.33 4.68 -2.66 3.36 -3 2 C-2.01 1.34 -1.02 0.68 0 0 Z " fill="#F82B45" transform="translate(418,438)"/>
<path d="M0 0 C0.66 0 1.32 0 2 0 C1.50168276 3.68754757 0.89932357 5.60490662 -2 8 C-2.66 7.67 -3.32 7.34 -4 7 C-3.34 5.68 -2.68 4.36 -2 3 C-1.34 3 -0.68 3 0 3 C0 2.01 0 1.02 0 0 Z " fill="#F3233C" transform="translate(386,466)"/>
</svg>
