<?xml version="1.0" encoding="UTF-8"?>
<svg version="1.1" xmlns="http://www.w3.org/2000/svg" width="2048" height="2048">
<path d="M0 0 C3.06390053 0.00563874 6.12779553 0.0084602 9.19169998 0.0110817 C37.30519203 0.04605855 65.31466261 0.23327409 93.31142044 3.06482315 C95.97288112 3.33215478 98.63541495 3.58597178 101.29835892 3.83807755 C184.71730582 11.81981831 267.57809871 29.57047702 494.12208939 123.79657364 C497.04734209 125.43863587 499.98399935 127.05899251 502.92238235 128.67743301 C531.41956361 144.42402018 559.19611601 161.58512809 585.8325386 180.31805801 C587.19306847 181.26748777 588.55374992 182.21670032 589.91456985 183.16571426 C605.55584317 194.10680219 620.91908787 205.40247651 635.8325386 217.31805801 C636.72199173 218.02446426 637.61144485 218.73087051 638.5278511 219.45868301 C648.53584214 227.42742823 658.38903192 235.5735283 668.12794876 243.8678627 C669.8537319 245.3360884 671.58328133 246.79979334 673.31300735 248.26337051 C680.29553808 254.18964677 687.10742818 260.26348623 693.80519485 266.50946426 C696.50802358 269.02806736 699.25707159 271.49043987 702.0200386 273.94305801 C706.33847401 277.8065529 710.40999576 281.87635055 714.4809761 285.99774551 C716.45869872 287.9491861 718.46404417 289.7740989 720.5825386 291.56805801 C729.00349155 298.78846777 736.90265341 306.86424438 744.06300735 315.32977676 C746.38026478 317.93349427 748.85275306 320.37103765 751.3325386 322.81805801 C755.03662808 326.47798455 758.58541628 330.20749595 761.9653511 334.16962051 C763.86040776 336.35012504 765.81205953 338.47188333 767.77736282 340.58905411 C772.51189054 345.69212819 777.01648898 350.90846405 781.38331985 356.33368301 C784.31901696 359.91083228 787.35146228 363.39523528 790.3950386 366.88055801 C795.35968066 372.58193455 800.1845061 378.35376851 804.8325386 384.31805801 C805.89109619 385.66834678 806.94969363 387.0186043 808.00831985 388.36883926 C815.23607303 397.60698083 822.38485512 406.90065219 829.3613472 416.33026505 C830.32524436 417.63262991 831.29162785 418.93315912 832.26076126 420.23163223 C875.46028098 478.21805799 911.9285996 542.26310739 940.99586868 608.41620255 C941.80467804 610.25472746 942.61832773 612.09112066 943.43214798 613.92743301 C951.62926417 632.46185036 959.01986657 651.2708804 966.07014847 670.26520157 C966.79959659 672.22935641 967.53241925 674.19222465 968.26564407 676.15497208 C981.0201241 710.48385656 991.29903276 745.71508094 999.8325386 781.31805801 C1000.10810593 782.4622319 1000.10810593 782.4622319 1000.38924026 783.62952042 C1013.17334133 836.8101144 1021.62096053 890.78541962 1025.8325386 945.31805801 C1025.92577911 946.51527985 1026.01901962 947.71250168 1026.1150856 948.94600296 C1027.91020604 972.79325393 1028.19527327 996.57905249 1028.15059662 1020.48551941 C1028.14495788 1023.54941994 1028.14213641 1026.61331494 1028.13951492 1029.67721939 C1028.10453807 1057.79071144 1027.91732253 1085.80018202 1025.08577347 1113.79693985 C1024.81844184 1116.45840053 1024.56462484 1119.12093436 1024.31251907 1121.78387833 C1016.45696246 1203.88404654 998.9828182 1285.12467201 930.8325386 1462.31805801 C930.50255875 1463.01820023 930.17257889 1463.71834244 929.83259964 1464.43970108 C921.81348597 1481.42347649 913.5723092 1498.23561248 904.35402298 1514.6076088 C902.71196075 1517.5328615 901.09160411 1520.46951876 899.4731636 1523.40790176 C883.72657643 1551.90508302 866.56546853 1579.68163542 847.8325386 1606.31805801 C846.88310885 1607.67858788 845.9338963 1609.03926933 844.98488235 1610.40008926 C834.04379443 1626.04136258 822.74812011 1641.40460728 810.8325386 1656.31805801 C810.12613235 1657.20751114 809.4197261 1658.09696426 808.6919136 1659.01337051 C800.72316839 1669.02136155 792.57706832 1678.87455133 784.28273392 1688.61346817 C782.81450822 1690.33925131 781.35080328 1692.06880074 779.8872261 1693.79852676 C773.96094985 1700.78105749 767.88711039 1707.59294758 761.64113235 1714.29071426 C759.12252926 1716.99354299 756.66015675 1719.742591 754.2075386 1722.50555801 C750.34404372 1726.82399342 746.27424607 1730.89551517 742.1528511 1734.96649551 C740.20141051 1736.94421813 738.37649772 1738.94956358 736.5825386 1741.06805801 C729.36212885 1749.48901096 721.28635224 1757.38817282 712.82081985 1764.54852676 C710.21710235 1766.86578419 707.77955897 1769.33827247 705.3325386 1771.81805801 C701.67261207 1775.52214749 697.94310066 1779.07093569 693.9809761 1782.45087051 C691.80047158 1784.34592717 689.67871329 1786.29757894 687.56154251 1788.26288223 C682.45846843 1792.99740995 677.24213257 1797.50200839 671.8169136 1801.86883926 C668.23976434 1804.80453637 664.75536134 1807.83698169 661.2700386 1810.88055801 C655.56866207 1815.84520007 649.7968281 1820.67002551 643.8325386 1825.31805801 C642.48224984 1826.3766156 641.13199231 1827.43521304 639.78175735 1828.49383926 C630.54361579 1835.72159244 621.24994443 1842.87037453 611.82033157 1849.84686661 C610.51796671 1850.81076377 609.21743749 1851.77714726 607.91896439 1852.74628067 C549.93253863 1895.94580039 485.88748923 1932.41411901 419.73439407 1961.48138809 C417.89586915 1962.29019745 416.05947596 1963.10384714 414.2231636 1963.91766739 C395.68874626 1972.11478358 376.87971622 1979.50538598 357.88539505 1986.55566788 C355.9212402 1987.285116 353.95837197 1988.01793866 351.99562454 1988.75116348 C317.66674006 2001.50564351 282.43551567 2011.78455217 246.8325386 2020.31805801 C245.68836472 2020.59362534 245.68836472 2020.59362534 244.5210762 2020.87475967 C191.34048221 2033.65886074 137.365177 2042.10647993 82.8325386 2046.31805801 C81.03670586 2046.45791878 81.03670586 2046.45791878 79.20459366 2046.60060501 C55.35734269 2048.39572545 31.57154413 2048.68079268 7.66507721 2048.63611603 C4.60117668 2048.63047729 1.53728168 2048.62765582 -1.52662277 2048.62503433 C-29.64011482 2048.59005748 -57.6495854 2048.40284194 -85.64634323 2045.57129288 C-88.30780391 2045.30396125 -90.97033774 2045.05014425 -93.63328171 2044.79803848 C-175.73344992 2036.94248187 -256.97407539 2019.46833761 -434.1674614 1951.31805801 C-435.21767471 1950.82308823 -435.21767471 1950.82308823 -436.28910446 1950.31811905 C-453.27287987 1942.29900537 -470.08501586 1934.0578286 -486.45701218 1924.83954239 C-489.38226488 1923.19748016 -492.31892215 1921.57712352 -495.25730515 1919.95868301 C-523.7544864 1904.21209584 -551.5310388 1887.05098794 -578.1674614 1868.31805801 C-579.52799126 1867.36862826 -580.88867271 1866.41941571 -582.24949265 1865.47040176 C-597.89076597 1854.52931384 -613.25401066 1843.23363952 -628.1674614 1831.31805801 C-629.05691452 1830.61165176 -629.94636765 1829.90524551 -630.8627739 1829.17743301 C-640.87076493 1821.2086878 -650.72395471 1813.06258773 -660.46287155 1804.76825333 C-662.18865469 1803.30002763 -663.91820412 1801.83632269 -665.64793015 1800.37274551 C-672.63046088 1794.44646926 -679.44235097 1788.3726298 -686.14011765 1782.12665176 C-688.84294637 1779.60804867 -691.59199438 1777.14567616 -694.3549614 1774.69305801 C-698.6733968 1770.82956313 -702.74491855 1766.75976548 -706.8158989 1762.63837051 C-708.79362151 1760.68692992 -710.79896696 1758.86201713 -712.9174614 1757.06805801 C-721.33841434 1749.84764826 -729.2375762 1741.77187165 -736.39793015 1733.30633926 C-738.71518757 1730.70262176 -741.18767585 1728.26507837 -743.6674614 1725.81805801 C-747.37155087 1722.15813148 -750.92033907 1718.42862007 -754.3002739 1714.46649551 C-756.19533055 1712.28599099 -758.14698232 1710.1642327 -760.11228561 1708.04706192 C-764.84681333 1702.94398784 -769.35141177 1697.72765198 -773.71824265 1692.30243301 C-776.65393975 1688.72528375 -779.68638507 1685.24088075 -782.7299614 1681.75555801 C-787.69460345 1676.05418148 -792.51942889 1670.28234751 -797.1674614 1664.31805801 C-798.22601898 1662.96776925 -799.28461643 1661.61751172 -800.34324265 1660.26727676 C-807.57099582 1651.02913519 -814.71977791 1641.73546384 -821.69626999 1632.30585098 C-822.66016715 1631.00348612 -823.62655064 1629.7029569 -824.59568405 1628.4044838 C-867.79520377 1570.41805804 -904.26352239 1506.37300864 -933.33079147 1440.21991348 C-934.13960083 1438.38138856 -934.95325052 1436.54499537 -935.76707077 1434.70868301 C-943.96418696 1416.17426567 -951.35478936 1397.36523563 -958.40507126 1378.37091446 C-959.13451938 1376.40675961 -959.86734204 1374.44389138 -960.60056686 1372.48114395 C-973.35504689 1338.15225947 -983.63395555 1302.92103508 -992.1674614 1267.31805801 C-992.35117294 1266.55527542 -992.53488449 1265.79249283 -992.72416306 1265.00659561 C-1005.50826412 1211.82600162 -1013.95588332 1157.85069641 -1018.1674614 1103.31805801 C-1018.2607019 1102.12083618 -1018.35394241 1100.92361435 -1018.45000839 1099.69011307 C-1020.24512883 1075.8428621 -1020.53019606 1052.05706353 -1020.48551941 1028.15059662 C-1020.47988067 1025.08669609 -1020.4770592 1022.02280109 -1020.47443771 1018.95889664 C-1020.43946086 990.84540459 -1020.25224532 962.83593401 -1017.42069626 934.83917618 C-1017.15336463 932.1777155 -1016.89954763 929.51518167 -1016.64744186 926.8522377 C-1008.66570109 843.4332908 -990.91504239 760.5724979 -896.68894577 534.02850723 C-895.04688354 531.10325453 -893.4265269 528.16659726 -891.8080864 525.22821426 C-876.06149923 496.73103301 -858.90039132 468.95448061 -840.1674614 442.31805801 C-839.21803164 440.95752815 -838.26881909 439.5968467 -837.31980515 438.23602676 C-826.37871722 422.59475344 -815.0830429 407.23150875 -803.1674614 392.31805801 C-802.46105515 391.42860489 -801.7546489 390.53915176 -801.0268364 389.62274551 C-793.05809118 379.61475448 -784.91199111 369.7615647 -776.61765671 360.02264786 C-775.14943101 358.29686472 -773.68572607 356.56731529 -772.2221489 354.83758926 C-766.29587264 347.85505853 -760.22203318 341.04316844 -753.97605515 334.34540176 C-751.45745205 331.64257304 -748.99507954 328.89352503 -746.5424614 326.13055801 C-742.67896651 321.81212261 -738.60916886 317.74060086 -734.4877739 313.66962051 C-732.5363333 311.69189789 -730.71142051 309.68655245 -728.9174614 307.56805801 C-721.69705164 299.14710507 -713.62127503 291.24794321 -705.15574265 284.08758926 C-702.55202514 281.77033184 -700.11448176 279.29784356 -697.6674614 276.81805801 C-694.00753486 273.11396853 -690.27802345 269.56518034 -686.3158989 266.18524551 C-684.13539437 264.29018885 -682.01363608 262.33853709 -679.8964653 260.3732338 C-674.79339122 255.63870608 -669.57705536 251.13410764 -664.1518364 246.76727676 C-660.57468713 243.83157966 -657.09028413 240.79913434 -653.6049614 237.75555801 C-647.90358486 232.79091596 -642.13175089 227.96609052 -636.1674614 223.31805801 C-634.81717263 222.25950043 -633.46691511 221.20090298 -632.11668015 220.14227676 C-622.87853858 212.91452359 -613.58486722 205.7657415 -604.15525436 198.78924942 C-602.8528895 197.82535226 -601.55236028 196.85896877 -600.25388718 195.88983536 C-542.26746142 152.69031564 -478.22241202 116.22199702 -412.06931686 87.15472794 C-410.23079195 86.34591858 -408.39439875 85.53226889 -406.5580864 84.71844864 C-388.02366905 76.52133245 -369.21463901 69.13073005 -350.22031784 62.08044815 C-348.256163 61.35100003 -346.29329476 60.61817737 -344.33054733 59.88495255 C-310.00166285 47.13047252 -274.77043846 36.85156386 -239.1674614 28.31805801 C-238.4046788 28.13434647 -237.64189621 27.95063492 -236.85599899 27.76135635 C-183.67540501 14.97725529 -129.70009979 6.52963609 -75.1674614 2.31805801 C-73.97023956 2.2248175 -72.77301773 2.131577 -71.53951645 2.03551102 C-47.69226548 0.24039058 -23.90646692 -0.04467665 0 0 Z " fill="#6B2497" transform="translate(1020.1674613952637,-0.3180580139160156)"/>
<path d="M0 0 C369.6 0 739.2 0 1120 0 C1120.061875 125.77125 1120.12375 251.5425 1120.1875 381.125 C1120.21481201 420.90434082 1120.24212402 460.68368164 1120.27026367 501.66845703 C1120.28381348 550.07397461 1120.28381348 550.07397461 1120.28633118 572.70187378 C1120.28932238 589.62507084 1120.30228529 606.54823219 1120.32002028 623.47141921 C1120.33784654 640.71394767 1120.34451747 657.95645348 1120.34033485 675.19899081 C1120.33817648 685.4608345 1120.34420683 695.72259412 1120.36242279 705.9844223 C1120.37362488 712.75198169 1120.37404375 719.51948489 1120.36550602 726.28704806 C1120.36094981 730.14686101 1120.3612438 734.00651204 1120.37464774 737.86630797 C1120.38898116 742.02621265 1120.38025661 746.18574493 1120.36914349 750.34565926 C1120.37702456 751.55406521 1120.38490563 752.76247116 1120.39302553 754.00749547 C1120.34212207 762.36664746 1119.15959572 767.14553041 1113.13673195 773.25822058 C1112.62698111 773.76037623 1112.11723027 774.26253188 1111.59203243 774.77990437 C1111.04382539 775.33187254 1110.49561835 775.8838407 1109.93079898 776.45253518 C1108.0910348 778.30124631 1106.24076542 780.13906591 1104.3903656 781.97712708 C1103.0562519 783.3132651 1101.72279606 784.65006027 1100.38994271 785.98745555 C1096.72460234 789.66145163 1093.0499571 793.32601647 1089.37373555 796.98912036 C1085.41124829 800.94071937 1081.45741187 804.90095741 1077.50250244 808.86013794 C1069.75398009 816.61429718 1061.99750175 824.36045102 1054.23836499 832.10398743 C1045.20950638 841.11532516 1036.18869405 850.13469952 1027.16826392 859.15447291 C1011.07925876 875.24178956 994.98321129 891.32203719 978.88305664 907.39819336 C963.24607853 923.01186812 947.61367677 938.63010511 931.98657227 954.25366211 C931.50495291 954.73516995 931.02333356 955.21667779 930.52711968 955.71277677 C928.58545137 957.65399623 926.64378651 959.59521912 924.70212183 961.5364422 C923.73454589 962.50379775 922.7669695 963.47115285 921.79939265 964.43850749 C920.83421898 965.40345981 919.8690466 966.36841342 918.90387551 967.33336833 C903.54738905 982.68634249 888.18692397 998.03533544 872.82578401 1013.3836535 C867.42552046 1018.77947642 862.02575931 1024.17580153 856.62634306 1029.57247231 C848.06501638 1038.12937379 839.50203251 1046.68460953 830.9356206 1055.23642037 C827.01927619 1059.14614148 823.1037211 1063.05664433 819.19029427 1066.96928596 C815.61313201 1070.54566486 812.0336853 1074.11974011 808.45233537 1077.69192537 C807.15206667 1078.98967309 805.85264974 1080.28827486 804.55413847 1081.58778105 C802.79908112 1083.34392401 801.04102457 1085.09700649 799.28212643 1086.84930134 C798.77003442 1087.36316282 798.25794241 1087.8770243 797.73033246 1088.40645733 C794.37439562 1091.74070792 792.68095928 1093.12571283 787.96561241 1093.12190533 C787.11661538 1093.12367958 786.26761836 1093.12545383 785.39289415 1093.12728184 C784.45478541 1093.12416723 783.51667666 1093.12105262 782.55014038 1093.11784363 C781.55768928 1093.11854821 780.56523818 1093.11925279 779.54271281 1093.11997873 C776.19561309 1093.12129389 772.84855979 1093.11559985 769.50146484 1093.11010742 C767.11023966 1093.10986543 764.71901438 1093.11014207 762.32778931 1093.11090088 C757.83661799 1093.11186552 753.34545324 1093.11137548 748.85428257 1093.10870007 C740.02462817 1093.10357698 731.19503091 1093.11192089 722.36538696 1093.12532043 C720.97568747 1093.12736716 719.58598797 1093.1294095 718.19628847 1093.13144749 C715.38234831 1093.13560378 712.56840824 1093.13981897 709.7544682 1093.14405501 C702.51648927 1093.15486155 695.27850945 1093.16466411 688.04052734 1093.1730957 C687.31404683 1093.17394695 686.58756631 1093.1747982 685.83907123 1093.17567525 C674.07550189 1093.18888568 662.31200039 1093.18388353 650.5484318 1093.17302414 C638.47068812 1093.16238825 626.39311328 1093.17459506 614.31540835 1093.20710641 C607.53433057 1093.22464591 600.75359438 1093.23132301 593.97251511 1093.210989 C587.59151815 1093.19277209 581.2111693 1093.20235745 574.8302269 1093.23324585 C572.48893223 1093.23961653 570.14758377 1093.23574699 567.80632782 1093.22084999 C564.60736108 1093.20200761 561.41062117 1093.22008252 558.21176147 1093.24723816 C557.28703706 1093.23296994 556.36231265 1093.21870172 555.40956628 1093.20400113 C548.60478672 1093.32057994 544.94518742 1095.42399086 540 1100 C539.13015693 1100.78770971 538.26031385 1101.57541943 537.3641119 1102.38699913 C536.59152318 1103.16013262 535.81893446 1103.93326611 535.02293396 1104.72982788 C534.12173828 1105.62682907 533.2205426 1106.52383026 532.29203796 1107.44801331 C531.32146595 1108.42406661 530.35099503 1109.40022044 529.38061523 1110.37646484 C528.33704002 1111.41896506 527.2930315 1112.46103168 526.24862671 1113.50270081 C523.43215434 1116.31435617 520.62192325 1119.13217262 517.81295657 1121.95132399 C514.86071773 1124.91239868 511.90315508 1127.86814745 508.94630432 1130.82461548 C503.98267632 1135.78917786 499.02292273 1140.75758396 494.06567383 1145.72851562 C488.34998927 1151.45991888 482.62910185 1157.18608569 476.90518612 1162.90926778 C470.78955742 1169.02421872 464.67775108 1175.14297921 458.56704831 1181.26285219 C456.8157372 1183.0162854 455.063725 1184.76901542 453.31155205 1186.52158737 C450.54879368 1189.28535726 447.78862443 1192.05168855 445.03036118 1194.81994438 C444.0230754 1195.83012755 443.01496865 1196.83949295 442.00594139 1197.84793663 C436.98547882 1202.86659561 432.086948 1207.92402821 427.4621172 1213.31077576 C425.59386593 1215.46921787 423.62537753 1217.50860394 421.61279297 1219.5324707 C420.82863007 1220.32301346 420.04446716 1221.11355621 419.23654175 1221.92805481 C418.41340485 1222.75230453 417.59026794 1223.57655426 416.7421875 1224.42578125 C415.44306931 1225.72989204 415.44306931 1225.72989204 414.1177063 1227.06034851 C412.29869367 1228.88439453 410.4783501 1230.70711415 408.65673828 1232.52856445 C405.87113859 1235.31636446 403.09365157 1238.11208332 400.31640625 1240.90820312 C398.54215639 1242.68538488 396.76743319 1244.46209424 394.9921875 1246.23828125 C394.16500214 1247.07265213 393.33781677 1247.90702301 392.48556519 1248.76667786 C391.7077066 1249.54145981 390.92984802 1250.31624176 390.12841797 1251.11450195 C389.45003876 1251.79430618 388.77165955 1252.47411041 388.07272339 1253.17451477 C383.57729116 1257.13372379 380.35272383 1258.37508215 374.33796692 1258.3742218 C373.68173755 1258.37819621 373.02550818 1258.38217061 372.34939307 1258.38626546 C370.15824307 1258.39586303 367.96774285 1258.38408657 365.77661133 1258.37231445 C364.20278177 1258.3747432 362.62895376 1258.37846332 361.05513 1258.38337708 C356.78675034 1258.39277612 352.51860037 1258.38337022 348.25023866 1258.37004495 C343.78553372 1258.35872727 339.32084004 1258.36283805 334.85612488 1258.36479187 C327.36180874 1258.36567447 319.86758312 1258.35459927 312.37329102 1258.33618164 C303.70096482 1258.31499138 295.028771 1258.31150925 286.35642415 1258.3177436 C278.01899259 1258.32343089 269.68160779 1258.31780061 261.34418297 1258.30657005 C257.7927737 1258.30191799 254.24139296 1258.3010528 250.68998146 1258.3031559 C246.51292533 1258.30503458 242.33600466 1258.29696753 238.15897942 1258.2810955 C236.62305385 1258.2768407 235.08711456 1258.27601009 233.55118561 1258.27878571 C231.46100073 1258.28199088 229.37122494 1258.2729686 227.28108215 1258.26069641 C226.10952481 1258.25864354 224.93796747 1258.25659067 223.73090839 1258.25447559 C221 1258 221 1258 219 1256 C218.74666691 1253.26071167 218.74666691 1253.26071167 218.74171448 1249.69873047 C218.73803877 1249.04506437 218.73436307 1248.39139828 218.73057598 1247.71792412 C218.72055937 1245.51760024 218.72475391 1243.31752727 218.72875977 1241.1171875 C218.72437487 1239.54380015 218.71907358 1237.97041512 218.71292114 1236.39703369 C218.70140254 1233.00411559 218.69596038 1229.61126009 218.69503975 1226.21832275 C218.69310381 1220.85756716 218.67507762 1215.49694165 218.65428162 1210.13623047 C218.60502922 1196.82108117 218.57418132 1183.50589648 218.55297852 1170.19067383 C218.53647837 1159.84442372 218.51372958 1149.49828471 218.46995777 1139.15210915 C218.44811575 1133.81875699 218.44012962 1128.48561551 218.44235051 1123.15222168 C218.44068894 1119.83937156 218.42667263 1116.5266601 218.40913773 1113.21385956 C218.40351751 1111.67310337 218.4030719 1110.13231868 218.40807533 1108.59156036 C218.41417338 1106.49447648 218.40206564 1104.3982762 218.38526917 1102.30126953 C218.38325784 1101.12581573 218.38124651 1099.95036194 218.37917423 1098.73928833 C218.25404674 1097.83532318 218.12891924 1096.93135803 218 1096 C214.73109878 1093.82073252 213.81267188 1093.74892775 210.02931881 1093.7438736 C208.48080665 1093.73452545 208.48080665 1093.73452545 206.90101141 1093.72498846 C205.76328442 1093.72828743 204.62555744 1093.73158641 203.45335388 1093.73498535 C201.64465375 1093.72841345 201.64465375 1093.72841345 199.79941422 1093.72170877 C196.44652005 1093.71149508 193.09383417 1093.71023004 189.74093926 1093.71264386 C186.12740646 1093.71306252 182.5139076 1093.70197318 178.90039062 1093.69218445 C172.63730641 1093.67671459 166.37424476 1093.6683167 160.11114311 1093.66447449 C151.05351729 1093.65873369 141.9959523 1093.64015822 132.93835331 1093.61803395 C118.24089455 1093.58229801 103.54343237 1093.55399067 88.84594727 1093.53173828 C87.96593703 1093.53040329 87.0859268 1093.5290683 86.17924959 1093.52769285 C79.03790053 1093.51691483 71.89655096 1093.50649533 64.75520134 1093.4960928 C58.51136118 1093.48698285 52.26752126 1093.47773047 46.02368164 1093.46826172 C45.14443692 1093.46693098 44.2651922 1093.46560023 43.35930371 1093.46422917 C28.71648082 1093.44182533 14.07368394 1093.41164314 -0.56911224 1093.37586927 C-9.60787432 1093.35416697 -18.64659589 1093.3395733 -27.6853826 1093.33403051 C-33.87415013 1093.32979388 -40.06287907 1093.31858418 -46.25162525 1093.30180657 C-49.82650892 1093.29237119 -53.40132039 1093.28629858 -56.97621727 1093.28886986 C-60.84431069 1093.29159251 -64.71226669 1093.27908748 -68.58033752 1093.26501465 C-69.72029523 1093.26831362 -70.86025293 1093.2716126 -72.03475481 1093.27501154 C-73.57935536 1093.2656634 -73.57935536 1093.2656634 -75.15515995 1093.2561264 C-76.04891427 1093.25493223 -76.94266859 1093.25373805 -77.86350638 1093.25250769 C-80 1093 -80 1093 -82 1091 C-82.25265101 1088.46615738 -82.25265101 1088.46615738 -82.25645167 1085.18332684 C-82.26273983 1083.93401696 -82.26902799 1082.68470708 -82.27550671 1081.39753932 C-82.27239714 1079.99550028 -82.26910435 1078.59346164 -82.26564884 1077.19142342 C-82.26924866 1075.70800938 -82.27372261 1074.22459725 -82.27899691 1072.74118823 C-82.29101924 1068.6316052 -82.29044564 1064.52210259 -82.28794191 1060.41250622 C-82.28738266 1055.953887 -82.29829569 1051.49529394 -82.30775779 1047.03668678 C-82.32470345 1038.17821121 -82.33078339 1029.31975769 -82.33360582 1020.46126765 C-82.33747442 1009.85615102 -82.35283127 999.25105895 -82.36836692 988.64595412 C-82.40532099 963.00417027 -82.42165304 937.36238528 -82.43524528 911.72058025 C-82.44178362 899.59101528 -82.45060858 887.46145227 -82.45962518 875.33188893 C-82.49036001 833.81724104 -82.51607227 792.30259348 -82.52694798 750.78793526 C-82.52764437 748.1802024 -82.52834204 745.57246955 -82.52904099 742.96473669 C-82.52938652 741.67151585 -82.52973205 740.37829501 -82.53008805 739.04588565 C-82.53184151 732.49364382 -82.53361284 725.94140198 -82.53540039 719.38916016 C-82.53574993 718.08883828 -82.53609947 716.78851641 -82.53645961 715.44879084 C-82.54797769 673.30833256 -82.58731037 631.16796375 -82.6431467 589.02754245 C-82.70205926 544.48407969 -82.73547341 499.94066872 -82.73996013 455.39716613 C-82.74054913 450.50557 -82.74124412 445.61397389 -82.74201775 440.72237778 C-82.74219671 439.51791202 -82.74237567 438.31344626 -82.74256005 437.07248154 C-82.74604139 417.69691495 -82.77271666 398.32144685 -82.80774665 378.94591456 C-82.84239404 359.46089163 -82.85107157 339.97599016 -82.83353604 320.49094321 C-82.82387399 308.91948705 -82.8335621 297.34843034 -82.87130921 285.77702964 C-82.8946125 278.03837456 -82.89227073 270.2999957 -82.86947103 262.56133998 C-82.85721287 258.15758765 -82.85569742 253.75459885 -82.88553984 249.35091342 C-83.09446442 216.49477727 -83.09446442 216.49477727 -75.90857255 201.0096259 C-74.33043168 197.51901553 -73.05180153 193.91407979 -71.73046875 190.3203125 C-71.16196221 188.83499475 -70.59160271 187.35038145 -70.01757812 185.8671875 C-62.11910124 165.40989568 -54.46951715 144.86229012 -46.85185623 124.29932785 C-39.21829796 103.69484967 -31.57992796 83.09341156 -23.75 62.5625 C-23.43756348 61.74225342 -23.12512695 60.92200684 -22.80322266 60.0769043 C-19.86663072 52.37407058 -16.88929592 44.69170738 -13.8046875 37.046875 C-11.49794682 31.30935272 -9.3605603 25.54297516 -7.375 19.6875 C-5.10750873 13.02941833 -2.61736954 6.54342386 0 0 Z " fill="#6B2497" transform="translate(505,395)"/>
<path d="M0 0 C369.6 0 739.2 0 1120 0 C1120.061875 125.77125 1120.12375 251.5425 1120.1875 381.125 C1120.21481201 420.90434082 1120.24212402 460.68368164 1120.27026367 501.66845703 C1120.28381348 550.07397461 1120.28381348 550.07397461 1120.28633118 572.70187378 C1120.28932238 589.62507084 1120.30228529 606.54823219 1120.32002028 623.47141921 C1120.33784654 640.71394767 1120.34451747 657.95645348 1120.34033485 675.19899081 C1120.33817648 685.4608345 1120.34420683 695.72259412 1120.36242279 705.9844223 C1120.37362488 712.75198169 1120.37404375 719.51948489 1120.36550602 726.28704806 C1120.36094981 730.14686101 1120.3612438 734.00651204 1120.37464774 737.86630797 C1120.38898116 742.02621265 1120.38025661 746.18574493 1120.36914349 750.34565926 C1120.37702456 751.55406521 1120.38490563 752.76247116 1120.39302553 754.00749547 C1120.34212207 762.36664746 1119.15959572 767.14553041 1113.13673195 773.25822058 C1112.62698111 773.76037623 1112.11723027 774.26253188 1111.59203243 774.77990437 C1111.04382539 775.33187254 1110.49561835 775.8838407 1109.93079898 776.45253518 C1108.0910348 778.30124631 1106.24076542 780.13906591 1104.3903656 781.97712708 C1103.0562519 783.3132651 1101.72279606 784.65006027 1100.38994271 785.98745555 C1096.72460234 789.66145163 1093.0499571 793.32601647 1089.37373555 796.98912036 C1085.41124829 800.94071937 1081.45741187 804.90095741 1077.50250244 808.86013794 C1069.75398009 816.61429718 1061.99750175 824.36045102 1054.23836499 832.10398743 C1045.20950638 841.11532516 1036.18869405 850.13469952 1027.16826392 859.15447291 C1011.07925876 875.24178956 994.98321129 891.32203719 978.88305664 907.39819336 C963.24607853 923.01186812 947.61367677 938.63010511 931.98657227 954.25366211 C931.50495291 954.73516995 931.02333356 955.21667779 930.52711968 955.71277677 C928.58545137 957.65399623 926.64378651 959.59521912 924.70212183 961.5364422 C923.73454589 962.50379775 922.7669695 963.47115285 921.79939265 964.43850749 C920.83421898 965.40345981 919.8690466 966.36841342 918.90387551 967.33336833 C903.54738905 982.68634249 888.18692397 998.03533544 872.82578401 1013.3836535 C867.42552046 1018.77947642 862.02575931 1024.17580153 856.62634306 1029.57247231 C848.06501638 1038.12937379 839.50203251 1046.68460953 830.9356206 1055.23642037 C827.01927619 1059.14614148 823.1037211 1063.05664433 819.19029427 1066.96928596 C815.61313201 1070.54566486 812.0336853 1074.11974011 808.45233537 1077.69192537 C807.15206667 1078.98967309 805.85264974 1080.28827486 804.55413847 1081.58778105 C802.79908112 1083.34392401 801.04102457 1085.09700649 799.28212643 1086.84930134 C798.77003442 1087.36316282 798.25794241 1087.8770243 797.73033246 1088.40645733 C794.37439562 1091.74070792 792.68095928 1093.12571283 787.96561241 1093.12190533 C787.11661538 1093.12367958 786.26761836 1093.12545383 785.39289415 1093.12728184 C784.45478541 1093.12416723 783.51667666 1093.12105262 782.55014038 1093.11784363 C781.55768928 1093.11854821 780.56523818 1093.11925279 779.54271281 1093.11997873 C776.19561309 1093.12129389 772.84855979 1093.11559985 769.50146484 1093.11010742 C767.11023966 1093.10986543 764.71901438 1093.11014207 762.32778931 1093.11090088 C757.83661799 1093.11186552 753.34545324 1093.11137548 748.85428257 1093.10870007 C740.02462817 1093.10357698 731.19503091 1093.11192089 722.36538696 1093.12532043 C720.97568747 1093.12736716 719.58598797 1093.1294095 718.19628847 1093.13144749 C715.38234831 1093.13560378 712.56840824 1093.13981897 709.7544682 1093.14405501 C702.51648927 1093.15486155 695.27850945 1093.16466411 688.04052734 1093.1730957 C687.31404683 1093.17394695 686.58756631 1093.1747982 685.83907123 1093.17567525 C674.07550189 1093.18888568 662.31200039 1093.18388353 650.5484318 1093.17302414 C638.47068812 1093.16238825 626.39311328 1093.17459506 614.31540835 1093.20710641 C607.53433057 1093.22464591 600.75359438 1093.23132301 593.97251511 1093.210989 C587.59151815 1093.19277209 581.2111693 1093.20235745 574.8302269 1093.23324585 C572.48893223 1093.23961653 570.14758377 1093.23574699 567.80632782 1093.22084999 C564.60736108 1093.20200761 561.41062117 1093.22008252 558.21176147 1093.24723816 C557.28703706 1093.23296994 556.36231265 1093.21870172 555.40956628 1093.20400113 C548.60478672 1093.32057994 544.94518742 1095.42399086 540 1100 C539.13015693 1100.78770971 538.26031385 1101.57541943 537.3641119 1102.38699913 C536.59152318 1103.16013262 535.81893446 1103.93326611 535.02293396 1104.72982788 C534.12173828 1105.62682907 533.2205426 1106.52383026 532.29203796 1107.44801331 C531.32146595 1108.42406661 530.35099503 1109.40022044 529.38061523 1110.37646484 C528.33704002 1111.41896506 527.2930315 1112.46103168 526.24862671 1113.50270081 C523.43215434 1116.31435617 520.62192325 1119.13217262 517.81295657 1121.95132399 C514.86071773 1124.91239868 511.90315508 1127.86814745 508.94630432 1130.82461548 C503.98267632 1135.78917786 499.02292273 1140.75758396 494.06567383 1145.72851562 C488.34998927 1151.45991888 482.62910185 1157.18608569 476.90518612 1162.90926778 C470.78955742 1169.02421872 464.67775108 1175.14297921 458.56704831 1181.26285219 C456.8157372 1183.0162854 455.063725 1184.76901542 453.31155205 1186.52158737 C450.54879368 1189.28535726 447.78862443 1192.05168855 445.03036118 1194.81994438 C444.0230754 1195.83012755 443.01496865 1196.83949295 442.00594139 1197.84793663 C436.98547882 1202.86659561 432.086948 1207.92402821 427.4621172 1213.31077576 C425.59386593 1215.46921787 423.62537753 1217.50860394 421.61279297 1219.5324707 C420.82863007 1220.32301346 420.04446716 1221.11355621 419.23654175 1221.92805481 C418.41340485 1222.75230453 417.59026794 1223.57655426 416.7421875 1224.42578125 C415.44306931 1225.72989204 415.44306931 1225.72989204 414.1177063 1227.06034851 C412.29869367 1228.88439453 410.4783501 1230.70711415 408.65673828 1232.52856445 C405.87113859 1235.31636446 403.09365157 1238.11208332 400.31640625 1240.90820312 C398.54215639 1242.68538488 396.76743319 1244.46209424 394.9921875 1246.23828125 C394.16500214 1247.07265213 393.33781677 1247.90702301 392.48556519 1248.76667786 C391.7077066 1249.54145981 390.92984802 1250.31624176 390.12841797 1251.11450195 C389.45003876 1251.79430618 388.77165955 1252.47411041 388.07272339 1253.17451477 C383.57729116 1257.13372379 380.35272383 1258.37508215 374.33796692 1258.3742218 C373.68173755 1258.37819621 373.02550818 1258.38217061 372.34939307 1258.38626546 C370.15824307 1258.39586303 367.96774285 1258.38408657 365.77661133 1258.37231445 C364.20278177 1258.3747432 362.62895376 1258.37846332 361.05513 1258.38337708 C356.78675034 1258.39277612 352.51860037 1258.38337022 348.25023866 1258.37004495 C343.78553372 1258.35872727 339.32084004 1258.36283805 334.85612488 1258.36479187 C327.36180874 1258.36567447 319.86758312 1258.35459927 312.37329102 1258.33618164 C303.70096482 1258.31499138 295.028771 1258.31150925 286.35642415 1258.3177436 C278.01899259 1258.32343089 269.68160779 1258.31780061 261.34418297 1258.30657005 C257.7927737 1258.30191799 254.24139296 1258.3010528 250.68998146 1258.3031559 C246.51292533 1258.30503458 242.33600466 1258.29696753 238.15897942 1258.2810955 C236.62305385 1258.2768407 235.08711456 1258.27601009 233.55118561 1258.27878571 C231.46100073 1258.28199088 229.37122494 1258.2729686 227.28108215 1258.26069641 C226.10952481 1258.25864354 224.93796747 1258.25659067 223.73090839 1258.25447559 C221 1258 221 1258 219 1256 C218.74666691 1253.26071167 218.74666691 1253.26071167 218.74171448 1249.69873047 C218.73803877 1249.04506437 218.73436307 1248.39139828 218.73057598 1247.71792412 C218.72055937 1245.51760024 218.72475391 1243.31752727 218.72875977 1241.1171875 C218.72437487 1239.54380015 218.71907358 1237.97041512 218.71292114 1236.39703369 C218.70140254 1233.00411559 218.69596038 1229.61126009 218.69503975 1226.21832275 C218.69310381 1220.85756716 218.67507762 1215.49694165 218.65428162 1210.13623047 C218.60502922 1196.82108117 218.57418132 1183.50589648 218.55297852 1170.19067383 C218.53647837 1159.84442372 218.51372958 1149.49828471 218.46995777 1139.15210915 C218.44811575 1133.81875699 218.44012962 1128.48561551 218.44235051 1123.15222168 C218.44068894 1119.83937156 218.42667263 1116.5266601 218.40913773 1113.21385956 C218.40351751 1111.67310337 218.4030719 1110.13231868 218.40807533 1108.59156036 C218.41417338 1106.49447648 218.40206564 1104.3982762 218.38526917 1102.30126953 C218.38325784 1101.12581573 218.38124651 1099.95036194 218.37917423 1098.73928833 C218.25404674 1097.83532318 218.12891924 1096.93135803 218 1096 C214.73109878 1093.82073252 213.81267188 1093.74892775 210.02931881 1093.7438736 C208.48080665 1093.73452545 208.48080665 1093.73452545 206.90101141 1093.72498846 C205.76328442 1093.72828743 204.62555744 1093.73158641 203.45335388 1093.73498535 C201.64465375 1093.72841345 201.64465375 1093.72841345 199.79941422 1093.72170877 C196.44652005 1093.71149508 193.09383417 1093.71023004 189.74093926 1093.71264386 C186.12740646 1093.71306252 182.5139076 1093.70197318 178.90039062 1093.69218445 C172.63730641 1093.67671459 166.37424476 1093.6683167 160.11114311 1093.66447449 C151.05351729 1093.65873369 141.9959523 1093.64015822 132.93835331 1093.61803395 C118.24089455 1093.58229801 103.54343237 1093.55399067 88.84594727 1093.53173828 C87.96593703 1093.53040329 87.0859268 1093.5290683 86.17924959 1093.52769285 C79.03790053 1093.51691483 71.89655096 1093.50649533 64.75520134 1093.4960928 C58.51136118 1093.48698285 52.26752126 1093.47773047 46.02368164 1093.46826172 C45.14443692 1093.46693098 44.2651922 1093.46560023 43.35930371 1093.46422917 C28.71648082 1093.44182533 14.07368394 1093.41164314 -0.56911224 1093.37586927 C-9.60787432 1093.35416697 -18.64659589 1093.3395733 -27.6853826 1093.33403051 C-33.87415013 1093.32979388 -40.06287907 1093.31858418 -46.25162525 1093.30180657 C-49.82650892 1093.29237119 -53.40132039 1093.28629858 -56.97621727 1093.28886986 C-60.84431069 1093.29159251 -64.71226669 1093.27908748 -68.58033752 1093.26501465 C-69.72029523 1093.26831362 -70.86025293 1093.2716126 -72.03475481 1093.27501154 C-73.57935536 1093.2656634 -73.57935536 1093.2656634 -75.15515995 1093.2561264 C-76.04891427 1093.25493223 -76.94266859 1093.25373805 -77.86350638 1093.25250769 C-80 1093 -80 1093 -82 1091 C-82.25265101 1088.46615738 -82.25265101 1088.46615738 -82.25645167 1085.18332684 C-82.26273983 1083.93401696 -82.26902799 1082.68470708 -82.27550671 1081.39753932 C-82.27239714 1079.99550028 -82.26910435 1078.59346164 -82.26564884 1077.19142342 C-82.26924866 1075.70800938 -82.27372261 1074.22459725 -82.27899691 1072.74118823 C-82.29101924 1068.6316052 -82.29044564 1064.52210259 -82.28794191 1060.41250622 C-82.28738266 1055.953887 -82.29829569 1051.49529394 -82.30775779 1047.03668678 C-82.32470345 1038.17821121 -82.33078339 1029.31975769 -82.33360582 1020.46126765 C-82.33747442 1009.85615102 -82.35283127 999.25105895 -82.36836692 988.64595412 C-82.40532099 963.00417027 -82.42165304 937.36238528 -82.43524528 911.72058025 C-82.44178362 899.59101528 -82.45060858 887.46145227 -82.45962518 875.33188893 C-82.49036001 833.81724104 -82.51607227 792.30259348 -82.52694798 750.78793526 C-82.52764437 748.1802024 -82.52834204 745.57246955 -82.52904099 742.96473669 C-82.52938652 741.67151585 -82.52973205 740.37829501 -82.53008805 739.04588565 C-82.53184151 732.49364382 -82.53361284 725.94140198 -82.53540039 719.38916016 C-82.53574993 718.08883828 -82.53609947 716.78851641 -82.53645961 715.44879084 C-82.54797769 673.30833256 -82.58731037 631.16796375 -82.6431467 589.02754245 C-82.70205926 544.48407969 -82.73547341 499.94066872 -82.73996013 455.39716613 C-82.74054913 450.50557 -82.74124412 445.61397389 -82.74201775 440.72237778 C-82.74219671 439.51791202 -82.74237567 438.31344626 -82.74256005 437.07248154 C-82.74604139 417.69691495 -82.77271666 398.32144685 -82.80774665 378.94591456 C-82.84239404 359.46089163 -82.85107157 339.97599016 -82.83353604 320.49094321 C-82.82387399 308.91948705 -82.8335621 297.34843034 -82.87130921 285.77702964 C-82.8946125 278.03837456 -82.89227073 270.2999957 -82.86947103 262.56133998 C-82.85721287 258.15758765 -82.85569742 253.75459885 -82.88553984 249.35091342 C-83.09446442 216.49477727 -83.09446442 216.49477727 -75.90857255 201.0096259 C-74.33043168 197.51901553 -73.05180153 193.91407979 -71.73046875 190.3203125 C-71.16196221 188.83499475 -70.59160271 187.35038145 -70.01757812 185.8671875 C-62.11910124 165.40989568 -54.46951715 144.86229012 -46.85185623 124.29932785 C-39.21829796 103.69484967 -31.57992796 83.09341156 -23.75 62.5625 C-23.43756348 61.74225342 -23.12512695 60.92200684 -22.80322266 60.0769043 C-19.86663072 52.37407058 -16.88929592 44.69170738 -13.8046875 37.046875 C-11.49794682 31.30935272 -9.3605603 25.54297516 -7.375 19.6875 C-5.10750873 13.02941833 -2.61736954 6.54342386 0 0 Z M109 112 C108.6965804 114.42227407 108.6965804 114.42227407 108.74930167 117.29121202 C108.74429464 118.42303727 108.7392876 119.55486252 108.73412883 120.7209855 C108.73881117 121.97749379 108.7434935 123.23400209 108.74831772 124.52858639 C108.74623344 125.87218292 108.74327243 127.21577833 108.73950899 128.5593712 C108.7316668 132.28064366 108.7364089 136.00181339 108.74306489 139.72308432 C108.7481105 143.76049678 108.74162956 147.79789273 108.73657823 151.83530289 C108.72933177 158.92104007 108.72958808 166.00674682 108.73467255 173.09248543 C108.74221273 183.62897681 108.73838297 194.16544234 108.73225593 204.70193353 C108.72170322 223.51632888 108.72264569 242.33071069 108.72841376 261.14510734 C108.73343702 277.61013245 108.73476195 294.07515258 108.73236847 310.5401783 C108.7322157 311.63066036 108.73206293 312.72114242 108.73190553 313.8446694 C108.73128289 318.27086058 108.7306461 322.69705177 108.729986 327.12324295 C108.72386238 368.6791086 108.72942374 410.2349656 108.7401798 451.79082992 C108.74967096 488.74084763 108.74882295 525.69085155 108.73925781 562.64086914 C108.72855692 604.11729474 108.72429727 645.59371268 108.73048234 687.07013947 C108.73112381 691.48876162 108.73174949 695.90738378 108.73236847 700.32600594 C108.73252662 701.41405009 108.73268478 702.50209425 108.73284773 703.62310945 C108.7351262 720.08032475 108.73245555 736.53753453 108.72740936 752.99474907 C108.72170224 771.70122126 108.72309608 790.40767773 108.73397085 809.11414795 C108.73986143 819.5936987 108.74020094 830.07321544 108.7326785 840.55276534 C108.72821331 847.54190041 108.73094917 854.53100807 108.73968804 861.52013906 C108.74447199 865.50953625 108.74601803 869.49886561 108.73887607 873.4882608 C108.73245507 877.11167163 108.73510233 880.73495394 108.7452374 884.35835525 C108.74822785 886.28759771 108.74133146 888.21684758 108.73412883 890.14607891 C108.73913587 891.28040768 108.74414291 892.41473645 108.74930167 893.58343881 C108.74943719 894.5645774 108.74957271 895.54571599 108.74971233 896.55658605 C108.83415879 899.25718358 108.83415879 899.25718358 111 902 C112.85530003 902.45347506 112.85530003 902.45347506 115.02270603 902.38196754 C115.86905316 902.39080739 116.71540029 902.39964723 117.5873943 902.40875494 C118.99004682 902.4004604 118.99004682 902.4004604 120.42103577 902.39199829 C121.9048702 902.40091018 121.9048702 902.40091018 123.41868109 902.41000211 C126.75457478 902.4263958 130.09009975 902.42133059 133.42602539 902.41650391 C135.80890838 902.42387799 138.19178758 902.43258113 140.57466125 902.44252014 C146.38740742 902.46348776 152.20005762 902.47078061 158.01283867 902.47237255 C164.7758504 902.47506856 171.53877303 902.4954577 178.30174606 902.51721875 C190.36431824 902.5556504 202.42688198 902.58144386 214.48950195 902.59863281 C226.20663642 902.61536982 237.92375247 902.63554732 249.64086914 902.66210938 C250.36263122 902.6637428 251.0843933 902.66537622 251.82802696 902.66705914 C259.70184258 902.68501382 267.57565386 902.70435916 275.44946194 902.72536278 C276.48644686 902.72812491 276.48644686 902.72812491 277.54438097 902.73094284 C280.30742306 902.73832129 283.07046508 902.7457147 285.83350664 902.75328664 C294.59771508 902.77726642 303.36190042 902.79483064 312.12613499 902.80572915 C317.14220745 902.81272269 322.15826647 902.82359936 327.17432976 902.83537102 C329.51050415 902.83994808 331.84668267 902.8427809 334.18286133 902.84379387 C337.35725154 902.84535384 340.53157161 902.85290132 343.70594788 902.86196899 C344.64328028 902.86090074 345.58061269 902.85983249 346.54634911 902.85873187 C352.88596417 902.88596417 352.88596417 902.88596417 354 904 C354.10910918 906.07528211 354.14691549 908.15431951 354.15821838 910.23243713 C354.16315636 910.89074349 354.16809434 911.54904984 354.17318195 912.22730488 C354.18862849 914.44914133 354.19693679 916.67094874 354.20532227 918.89282227 C354.21489518 920.47915913 354.22490491 922.0654934 354.23532104 923.65182495 C354.26243979 927.97185943 354.28341149 932.29190491 354.30332303 936.61197782 C354.32513975 941.12170513 354.35254947 945.63139825 354.37937927 950.14109802 C354.42936469 958.68691896 354.47428174 967.23275881 354.51740164 975.77861685 C354.56672414 985.50520061 354.6216607 995.23175008 354.67708123 1004.95830071 C354.79099102 1024.97216855 354.89781037 1044.98606911 355 1065 C357.76385909 1063.73544753 359.80606011 1062.44274214 361.94856262 1060.29194641 C362.50443652 1059.73882121 363.06031042 1059.18569601 363.63302898 1058.61580944 C364.23341897 1058.00822953 364.83380896 1057.40064962 365.45239258 1056.7746582 C366.42108764 1055.80640972 366.42108764 1055.80640972 367.4093523 1054.81860065 C369.57585628 1052.6507058 371.73512478 1050.47574421 373.89453125 1048.30078125 C375.44481738 1046.74665754 376.99555894 1045.19298802 378.54672241 1043.63973999 C381.88789025 1040.29224526 385.2259241 1036.94166691 388.56161499 1033.5887146 C393.83355232 1028.28977357 399.11307277 1022.99843251 404.39379883 1017.70825195 C411.79434687 1010.29303364 419.19210641 1002.87504412 426.58691406 995.45410156 C427.05611995 994.98324005 427.52532583 994.51237854 428.00875008 994.0272485 C431.33926622 990.68493147 434.66964865 987.34248122 438 984 C441.80426976 980.18187425 445.60859998 976.36380877 449.41308594 972.54589844 C449.88171873 972.07560939 450.35035153 971.60532034 450.83318532 971.12078011 C458.64494524 963.28165587 466.46066851 955.44649316 474.27912045 947.61404324 C479.53106345 942.35211832 484.77808664 937.08535019 490.0214386 931.81486511 C493.28093977 928.54047277 496.54455433 925.27020447 499.80931473 922.00105667 C501.32521312 920.48140583 502.83937743 918.96002296 504.35169601 917.43680954 C506.41242769 915.36169847 508.47919894 913.29279672 510.54760742 911.2253418 C511.14799741 910.61776189 511.74838739 910.01018198 512.36697102 909.38419056 C512.92284492 908.83106536 513.47871881 908.27794016 514.05143738 907.70805359 C514.5277167 907.22993068 515.00399603 906.75180777 515.49470806 906.25919628 C518.90987368 903.40236583 521.70614303 902.75000062 526.11379051 902.74946022 C527.152623 902.74446152 528.19145549 902.73946283 529.26176775 902.73431265 C530.4016353 902.73897587 531.54150286 902.74363908 532.71591187 902.7484436 C533.92791122 902.74547346 535.13991058 902.74250333 536.38863719 902.73944318 C539.75436039 902.73311798 543.11986671 902.73571361 546.48557615 902.74196196 C550.11483828 902.74649127 553.74407909 902.73945789 557.37333679 902.73365784 C563.66313816 902.72502021 569.9529114 902.72321782 576.24271774 902.72560501 C585.34328869 902.72870034 594.44379733 902.71707195 603.54435261 902.70105521 C618.31764877 902.67508462 633.09094498 902.65507024 647.86425781 902.64160156 C648.74863453 902.64079119 649.63301125 902.63998082 650.54418726 902.6391459 C663.09509423 902.62792403 675.64599676 902.62264326 688.19690807 902.61975877 C689.08067841 902.61955478 689.96444874 902.61935079 690.875 902.61914062 C691.75769437 902.61894069 692.64038875 902.61874075 693.54983144 902.61853476 C708.26504229 902.61480286 722.98018564 902.59572462 737.69536269 902.56404626 C746.77338173 902.54512128 755.85122775 902.53917652 764.9292611 902.54986344 C771.14938204 902.55617857 777.36937882 902.54815331 783.58947252 902.52880932 C787.17911705 902.51811786 790.7684602 902.51399154 794.3581028 902.52728081 C798.24893956 902.54154063 802.13929893 902.5250243 806.03012085 902.50552368 C807.16552697 902.51464834 808.30093308 902.523773 809.47074544 902.53317416 C819.97783074 902.43038062 824.63459897 897.66471148 831.7381134 890.50912476 C832.49799157 889.751661 833.25786974 888.99419725 834.04077452 888.21378005 C836.58119303 885.67898928 839.11441097 883.13712432 841.64770508 880.59521484 C843.46918244 878.77481056 845.29109272 876.95483935 847.11340332 875.13526917 C851.54475966 870.70894554 855.9707709 866.27731426 860.39497707 861.84384511 C865.54610255 856.68232334 870.70246355 851.52604512 875.85903236 846.36996241 C885.05621714 837.17327785 894.24856708 827.97177585 903.43823242 818.76757812 C912.3597317 809.83197782 921.28473928 800.89990114 930.21362305 791.97167969 C931.0393017 791.14606097 931.0393017 791.14606097 931.88166074 790.30376308 C932.43115463 789.75430953 932.98064853 789.20485599 933.54679376 788.63875234 C943.71019069 778.47604464 953.87029774 768.31005358 964.02886978 758.1425231 C967.62396422 754.54440922 971.22003754 750.94727543 974.81641579 747.35044479 C979.65089437 742.5152142 984.48257605 737.67720323 989.31238556 732.83730888 C991.08975075 731.05701275 992.86797322 729.27757204 994.64709282 727.49902916 C997.06598421 725.08062536 999.48179788 722.65918984 1001.89680481 720.23690796 C1002.60962468 719.52563669 1003.32244456 718.81436541 1004.05686504 718.08154047 C1004.69958407 717.43559698 1005.34230311 716.7896535 1006.00449848 716.12413597 C1006.56285241 715.56507761 1007.12120635 715.00601926 1007.6964801 714.43001974 C1009.97069798 711.93510083 1010.12505285 710.17735551 1010.12534916 706.90553612 C1010.12785268 706.04124743 1010.1303562 705.17695875 1010.13293558 704.2864795 C1010.12942383 702.85087842 1010.12942383 702.85087842 1010.12584114 701.38627529 C1010.12729458 700.37124299 1010.12874802 699.35621069 1010.13024551 698.31041983 C1010.13392866 694.86956518 1010.13040842 691.42875419 1010.12698364 687.98789978 C1010.12813455 685.51200591 1010.12972186 683.03611221 1010.13171089 680.56021887 C1010.13502952 675.15674138 1010.1352066 669.75327706 1010.13266373 664.34980011 C1010.12889272 656.31490504 1010.13080899 648.28001844 1010.13387203 640.24512343 C1010.13914752 625.89794788 1010.13867753 611.55077677 1010.13579312 597.20360079 C1010.13328138 584.64906003 1010.13261908 572.0945209 1010.13381577 559.53997993 C1010.13389215 558.70845447 1010.13396854 557.87692901 1010.13404724 557.0202058 C1010.13435855 553.64511129 1010.13467695 550.27001678 1010.135007 546.89492226 C1010.13806855 515.21015088 1010.13528844 483.52538233 1010.1299101 451.84061138 C1010.12516378 423.66481687 1010.1255892 395.48902689 1010.13037109 367.31323242 C1010.13572071 335.68632788 1010.1378519 304.05942585 1010.13475883 272.43252093 C1010.13443809 269.06374872 1010.13412525 265.69497651 1010.13381577 262.3262043 C1010.13373669 261.49667444 1010.13365761 260.66714457 1010.13357614 259.81247744 C1010.13243663 247.26236869 1010.13377271 234.71226174 1010.13629532 222.16215324 C1010.1391479 207.89896698 1010.13845403 193.63578587 1010.13301457 179.37260025 C1010.13006778 171.38103594 1010.12990169 163.38948277 1010.13366075 155.39791874 C1010.13615213 149.44727692 1010.13347051 143.49664506 1010.12868617 137.54600436 C1010.12756079 135.12614328 1010.1281558 132.70628072 1010.13056196 130.28642058 C1010.13356278 127.02021958 1010.13052477 123.75408118 1010.12584114 120.48788357 C1010.12818231 119.52847501 1010.13052347 118.56906646 1010.13293558 117.58058491 C1010.54260215 113.46546376 1010.54260215 113.46546376 1009 110 C1007.04207776 109.90107011 1005.0805205 109.87401042 1003.12010056 109.87350017 C1001.18668532 109.86936055 1001.18668532 109.86936055 999.2142112 109.86513731 C997.76218734 109.86712566 996.3101636 109.86920515 994.85813999 109.87136555 C993.32610499 109.87002074 991.79407033 109.86823791 990.26203629 109.86605331 C986.01292699 109.86129033 981.76383892 109.86283554 977.51472852 109.86533108 C972.90685888 109.866955 968.29899397 109.86283103 963.69112581 109.85942191 C955.60227939 109.85425162 947.51343897 109.85285351 939.42459106 109.85387802 C927.39652496 109.85539777 915.36846552 109.85125275 903.34040071 109.8460034 C880.61289443 109.83631221 857.88539039 109.8335185 835.15788228 109.83294634 C817.61310702 109.83248753 800.06833264 109.83043302 782.52355766 109.82724571 C777.48092459 109.82634823 772.43829151 109.82545841 767.39565843 109.82457083 C766.14219592 109.82434979 764.88873341 109.82412874 763.59728718 109.82390099 C728.32069503 109.81774337 693.04410311 109.81379489 657.76751041 109.81424427 C656.42297298 109.81426005 655.07843554 109.81427578 653.73389811 109.81429148 C647.66310248 109.81436487 641.59230685 109.81445304 635.52151122 109.81454536 C632.81425729 109.81458649 630.10700337 109.81462663 627.39974944 109.81466668 C626.04471844 109.81468707 624.68968743 109.81470809 623.33465642 109.81472974 C580.47741391 109.81541014 537.62017965 109.80809083 494.76293945 109.79418945 C483.96410404 109.79068862 473.16526862 109.78721924 462.36643314 109.78392506 C461.70156358 109.78372218 461.03669402 109.78351931 460.35167689 109.78331029 C424.48081872 109.77243089 388.60996006 109.77044761 352.7391004 109.77115268 C347.69615297 109.77122731 342.65320553 109.77127601 337.6102581 109.77130699 C335.74757642 109.77132447 335.74757642 109.77132447 333.84726481 109.77134231 C313.81817628 109.77137315 293.78909469 109.76497306 273.76000822 109.75637473 C253.64900802 109.74791947 233.53801803 109.74689153 213.42701704 109.75348405 C201.46310901 109.75719393 189.49923192 109.75530474 177.53532713 109.74554171 C169.5580046 109.73957917 161.58070466 109.74079524 153.60338319 109.74801221 C149.04874083 109.75192552 144.49415868 109.75257915 139.93952037 109.74455485 C135.80438137 109.73733288 131.66935332 109.73914441 127.53421945 109.74847872 C126.03957068 109.75021459 124.54491346 109.74852504 123.05027325 109.74317751 C121.03527482 109.73644534 119.02024465 109.74303983 117.00524861 109.75045234 C115.8852195 109.75036412 114.7651904 109.7502759 113.61122102 109.750185 C110.83987854 109.73575375 110.83987854 109.73575375 109 112 Z " fill="#FEFEFE" transform="translate(505,395)"/>
<path d="M0 0 C0.88334518 -0.00426498 1.76669037 -0.00852997 2.67680359 -0.01292419 C3.64829849 -0.01247101 4.6197934 -0.01201782 5.62072754 -0.0115509 C6.64193192 -0.01490952 7.66313629 -0.01826813 8.71528625 -0.02172852 C12.1037008 -0.03125711 15.49206604 -0.03318248 18.88049316 -0.03425598 C21.22696961 -0.03746684 23.57344586 -0.04083078 25.91992188 -0.04434204 C30.84281885 -0.05033782 35.76569826 -0.05218144 40.68859863 -0.05158997 C47.01084688 -0.05148823 53.33298311 -0.06515042 59.65520477 -0.08236217 C64.50206016 -0.09345442 69.34888822 -0.09551004 74.195755 -0.09498024 C76.5274545 -0.09616417 78.85915461 -0.10060889 81.19084167 -0.10831261 C84.44489505 -0.11805815 87.69870185 -0.11525621 90.95275879 -0.10920715 C92.41000114 -0.11763641 92.41000114 -0.11763641 93.89668274 -0.12623596 C95.22170052 -0.11994423 95.22170052 -0.11994423 96.57348633 -0.11352539 C97.34335121 -0.11407016 98.11321609 -0.11461493 98.90641022 -0.1151762 C100.78674316 0.13371277 100.78674316 0.13371277 102.78674316 2.13371277 C103.03629082 4.46486861 103.03629082 4.46486861 103.03563213 7.45266056 C103.04023093 8.58812952 103.04482973 9.72359848 103.04956788 10.89347559 C103.04442432 12.15152599 103.03928075 13.40957638 103.03398132 14.70574951 C103.03556829 16.04732433 103.03803077 17.38889835 103.04129773 18.73047012 C103.04773539 22.42957092 103.04162455 26.12856294 103.03353345 29.82765663 C103.02697479 33.81200323 103.0319009 37.7963373 103.03541565 41.78068542 C103.04046605 49.5906949 103.03480561 57.40066214 103.02556535 65.21066637 C103.01520045 74.29652032 103.01525102 83.38236505 103.01573793 92.4682238 C103.01623896 108.67370498 103.00706576 124.87916644 102.99255371 141.0846405 C102.97846314 156.8274827 102.971383 172.57030754 102.9720459 188.31315613 C102.97210583 189.7676802 102.97210583 189.7676802 102.97216698 191.25158859 C102.97220733 192.21955708 102.97224769 193.18752557 102.97228926 194.18482643 C102.97297829 212.08241287 102.96709402 229.97999191 102.95813605 247.87757595 C102.95511381 254.21853031 102.95405579 260.55948331 102.95360374 266.90043831 C102.95292311 274.62177144 102.94847945 282.3430921 102.93927094 290.06441993 C102.93463936 294.00775596 102.93161242 297.95107597 102.93286514 301.8944149 C102.93395459 305.49840871 102.93047635 309.10236702 102.92321662 312.70635342 C102.92052352 314.64013163 102.92277249 316.57391473 102.92514867 318.50769335 C102.920312 320.20698517 102.920312 320.20698517 102.91537762 321.94060612 C102.91467319 322.92641511 102.91396877 323.9122241 102.913243 324.9279061 C102.78674316 327.13371277 102.78674316 327.13371277 101.78674316 328.13371277 C100.39763684 328.23129857 99.00361367 328.26002916 97.61108398 328.26069641 C96.71084 328.26351624 95.81059601 328.26633606 94.8830719 328.26924133 C93.8877092 328.2672171 92.8923465 328.26519287 91.86682129 328.2631073 C90.30356361 328.26573578 90.30356361 328.26573578 88.70872498 328.26841736 C85.24513103 328.27283815 81.78158767 328.26989708 78.31799316 328.26652527 C75.92285146 328.26719824 73.52770983 328.26816821 71.13256836 328.26942444 C66.10534008 328.27090172 61.07812954 328.26874588 56.05090332 328.26408386 C49.59067626 328.25838656 43.13049073 328.26166541 36.6702652 328.26765633 C31.72222579 328.27126112 26.77419631 328.27012373 21.82615662 328.26752853 C19.44339493 328.26685904 17.06063236 328.26768847 14.6778717 328.27000809 C11.35411168 328.27253328 8.03041995 328.2686959 4.70666504 328.2631073 C3.71130234 328.26513153 2.71593964 328.26715576 1.69041443 328.26924133 C0.79017044 328.26642151 -0.11007355 328.26360168 -1.03759766 328.26069641 C-1.82443184 328.26031939 -2.61126602 328.25994236 -3.42194366 328.25955391 C-5.21325684 328.13371277 -5.21325684 328.13371277 -6.21325684 327.13371277 C-6.31061028 325.39785317 -6.33697156 323.65798943 -6.33630466 321.91940212 C-6.33829571 320.78182412 -6.34028676 319.64424611 -6.34233814 318.47219604 C-6.3394253 317.20665974 -6.33651246 315.94112344 -6.33351135 314.63723755 C-6.33394694 313.29168937 -6.33482161 311.94614127 -6.33610052 310.60059363 C-6.338348 306.88592918 -6.33432076 303.1712933 -6.32932246 299.45663249 C-6.32502175 295.45729436 -6.32646411 291.45795796 -6.32722473 287.45861816 C-6.32775021 280.52377882 -6.32460094 273.58894885 -6.31898689 266.65411186 C-6.3108751 256.62738402 -6.308257 246.60066074 -6.3069989 236.57392997 C-6.30480788 220.30796633 -6.29814642 204.04200768 -6.28869629 187.77604675 C-6.27952348 171.97103399 -6.272442 156.16602258 -6.26818848 140.36100769 C-6.26792575 139.38750986 -6.26766303 138.41401202 -6.26739234 137.41101425 C-6.26608735 132.52747767 -6.26482363 127.64394107 -6.26358044 122.76040447 C-6.25320626 82.21817042 -6.23558657 41.67594188 -6.21325684 1.13371277 C-3.89895527 -0.02343801 -2.57562991 0.00560664 0 0 Z " fill="#FEFEFE" transform="translate(921.2132568359375,722.8662872314453)"/>
<path d="M0 0 C0.88334518 -0.00563965 1.76669037 -0.0112793 2.67680359 -0.01708984 C3.64829849 -0.01304138 4.6197934 -0.00899292 5.62072754 -0.00482178 C7.1525341 -0.01007874 7.1525341 -0.01007874 8.71528625 -0.01544189 C12.10375693 -0.02427187 15.49202022 -0.01840554 18.88049316 -0.01165771 C21.22696981 -0.013004 23.57344619 -0.01494422 25.91992188 -0.01745605 C30.84284109 -0.02040904 35.76568783 -0.01610405 40.68859863 -0.0067749 C47.01085935 0.00461967 53.33295029 -0.00193886 59.65520477 -0.01391983 C64.50206795 -0.02113371 69.34889063 -0.01885267 74.195755 -0.01366425 C76.52745076 -0.01232644 78.85915016 -0.01398001 81.19084167 -0.01862335 C84.44491369 -0.0236808 87.69870758 -0.01598925 90.95275879 -0.00482178 C91.92425369 -0.00887024 92.8957486 -0.0129187 93.89668274 -0.01708984 C95.22170052 -0.00863037 95.22170052 -0.00863037 96.57348633 0 C97.72828365 0.00113108 97.72828365 0.00113108 98.90641022 0.002285 C100.78674316 0.25396729 100.78674316 0.25396729 102.78674316 2.25396729 C103.03629082 4.58512312 103.03629082 4.58512312 103.03563213 7.57291508 C103.04023093 8.70838404 103.04482973 9.843853 103.04956788 11.01373011 C103.04442432 12.2717805 103.03928075 13.5298309 103.03398132 14.82600403 C103.03556829 16.16757884 103.03803077 17.50915286 103.04129773 18.85072464 C103.04773539 22.54982544 103.04162455 26.24881746 103.03353345 29.94791114 C103.02697479 33.93225774 103.0319009 37.91659181 103.03541565 41.90093994 C103.04046605 49.71094941 103.03480561 57.52091666 103.02556535 65.33092088 C103.01520045 74.41677483 103.01525102 83.50261957 103.01573793 92.58847832 C103.01623896 108.79395949 103.00706576 124.99942096 102.99255371 141.20489502 C102.97846314 156.94773721 102.971383 172.69056206 102.9720459 188.43341064 C102.97210583 189.88793471 102.97210583 189.88793471 102.97216698 191.37184311 C102.97220733 192.3398116 102.97224769 193.30778008 102.97228926 194.30508095 C102.97297829 212.20266739 102.96709402 230.10024643 102.95813605 247.99783047 C102.95511381 254.33878483 102.95405579 260.67973783 102.95360374 267.02069283 C102.95292311 274.74202596 102.94847945 282.46334662 102.93927094 290.18467445 C102.93463936 294.12801047 102.93161242 298.07133049 102.93286514 302.01466942 C102.93395459 305.61866323 102.93047635 309.22262154 102.92321662 312.82660794 C102.92052352 314.76038614 102.92277249 316.69416924 102.92514867 318.62794787 C102.920312 320.32723969 102.920312 320.32723969 102.91537762 322.06086063 C102.91467319 323.04666963 102.91396877 324.03247862 102.913243 325.04816061 C102.78674316 327.25396729 102.78674316 327.25396729 101.78674316 328.25396729 C100.39763684 328.35155308 99.00361367 328.38028367 97.61108398 328.38095093 C96.71084 328.38377075 95.81059601 328.38659058 94.8830719 328.38949585 C93.8877092 328.38747162 92.8923465 328.38544739 91.86682129 328.38336182 C90.30356361 328.3859903 90.30356361 328.3859903 88.70872498 328.38867188 C85.24513103 328.39309267 81.78158767 328.3901516 78.31799316 328.38677979 C75.92285146 328.38745276 73.52770983 328.38842273 71.13256836 328.38967896 C66.10534008 328.39115624 61.07812954 328.3890004 56.05090332 328.38433838 C49.59067626 328.37864108 43.13049073 328.38191992 36.6702652 328.38791084 C31.72222579 328.39151564 26.77419631 328.39037825 21.82615662 328.38778305 C19.44339493 328.38711356 17.06063236 328.38794298 14.6778717 328.3902626 C11.35411168 328.39278779 8.03041995 328.38895042 4.70666504 328.38336182 C3.71130234 328.38538605 2.71593964 328.38741028 1.69041443 328.38949585 C0.79017044 328.38667603 -0.11007355 328.3838562 -1.03759766 328.38095093 C-1.82443184 328.3805739 -2.61126602 328.38019688 -3.42194366 328.37980843 C-5.21325684 328.25396729 -5.21325684 328.25396729 -6.21325684 327.25396729 C-6.31239678 325.5252412 -6.34065397 323.79242671 -6.34189129 322.06086063 C-6.34672796 320.36156881 -6.34672796 320.36156881 -6.35166234 318.62794787 C-6.34933943 316.73752619 -6.34933943 316.73752619 -6.3469696 314.80891418 C-6.34883577 313.46891574 -6.35113569 312.12891784 -6.35383493 310.78892082 C-6.3599834 307.08952373 -6.35981578 303.39014914 -6.35864055 299.6907481 C-6.35843731 295.70772821 -6.36394794 291.72471571 -6.36869812 287.74169922 C-6.37702186 279.9319002 -6.37975373 272.12210872 -6.3803105 264.31230564 C-6.38078484 257.96747428 -6.38283545 251.62264543 -6.38601112 245.27781487 C-6.39482233 227.30915634 -6.39942976 209.34050381 -6.39868065 191.37184311 C-6.39864069 190.40216039 -6.39860074 189.43247768 -6.39855957 188.43341064 C-6.39851869 187.46255097 -6.39847781 186.49169129 -6.39843569 185.49141162 C-6.39802906 169.7500574 -6.40760151 154.00872707 -6.42169794 138.26737977 C-6.43604092 122.12397959 -6.44296927 105.98059109 -6.44210416 89.83718437 C-6.44177147 80.76595834 -6.44454977 71.69475737 -6.45528221 62.62353706 C-6.46435994 54.90110514 -6.46658505 47.17870963 -6.45977279 39.4562747 C-6.45649373 35.51280059 -6.45650042 31.56939645 -6.46512604 27.62592888 C-6.47293129 24.02058037 -6.47162157 20.41535801 -6.46284191 16.81001281 C-6.4605564 14.87791489 -6.46818219 12.94581323 -6.47608155 11.01373011 C-6.47148275 9.87826115 -6.46688396 8.74279219 -6.46214581 7.57291508 C-6.46247186 6.09395806 -6.46247186 6.09395806 -6.4628045 4.58512312 C-6.00171843 0.27787589 -3.80775336 0.00372954 0 0 Z " fill="#FEFEFE" transform="translate(1221.2132568359375,722.7460327148438)"/>
</svg>
