<?xml version="1.0" encoding="UTF-8"?>
<svg version="1.1" xmlns="http://www.w3.org/2000/svg" width="512" height="512">
<path d="M0 0 C0 0.66 0 1.32 0 2 C4.29 2.33 8.58 2.66 13 3 C13 3.66 13 4.32 13 5 C13.72445313 5.04898437 14.44890625 5.09796875 15.1953125 5.1484375 C16.64550781 5.26058594 16.64550781 5.26058594 18.125 5.375 C19.07632812 5.44460937 20.02765625 5.51421875 21.0078125 5.5859375 C24.22486474 6.03111705 26.93807643 6.91932109 30 8 C32.95049331 8.90167522 35.91312452 9.761538 38.875 10.625 C39.65875 10.85445312 40.4425 11.08390625 41.25 11.3203125 C43.16637583 11.88120299 45.08314765 12.44074018 47 13 C47 13.66 47 14.32 47 15 C49.31 15.33 51.62 15.66 54 16 C54 16.66 54 17.32 54 18 C55.98 18.33 57.96 18.66 60 19 C60 19.66 60 20.32 60 21 C62.31 21.33 64.62 21.66 67 22 C67 22.66 67 23.32 67 24 C68.98 24.33 70.96 24.66 73 25 C73 25.66 73 26.32 73 27 C74.65 27.33 76.3 27.66 78 28 C78 28.66 78 29.32 78 30 C78.763125 30.20625 79.52625 30.4125 80.3125 30.625 C85.49898594 32.55894391 90.19033084 35.2785146 95 38 C95 38.66 95 39.32 95 40 C96.32 40.33 97.64 40.66 99 41 C99 41.66 99 42.32 99 43 C99.763125 43.103125 100.52625 43.20625 101.3125 43.3125 C104.18416484 44.04711194 105.23042094 44.6716065 107 47 C107 47.66 107 48.32 107 49 C108.32 49.33 109.64 49.66 111 50 C111 50.66 111 51.32 111 52 C112.32 52.33 113.64 52.66 115 53 C115 53.66 115 54.32 115 55 C116.32 55.33 117.64 55.66 119 56 C119 56.66 119 57.32 119 58 C119.99 58.33 120.98 58.66 122 59 C122 59.66 122 60.32 122 61 C123.65 61.66 125.3 62.32 127 63 C127 63.66 127 64.32 127 65 C127.99 65.33 128.98 65.66 130 66 C130 66.66 130 67.32 130 68 C130.99 68.33 131.98 68.66 133 69 C133 69.66 133 70.32 133 71 C133.99 71.33 134.98 71.66 136 72 C136 72.66 136 73.32 136 74 C137.32 74.66 138.64 75.32 140 76 C140 76.66 140 77.32 140 78 C140.61875 78.309375 141.2375 78.61875 141.875 78.9375 C143.25 79.625 144.625 80.3125 146 81 C146.625 83.5625 146.625 83.5625 147 86 C147.99 86.33 148.98 86.66 150 87 C153 90.44444444 153 90.44444444 153 93 C153.99 93.33 154.98 93.66 156 94 C158.71389409 96.26157841 160.22897785 98.97450382 162 102 C162.8353125 103.0828125 162.8353125 103.0828125 163.6875 104.1875 C165 106 165 106 165 108 C165.66 108.33 166.32 108.66 167 109 C168.2890625 110.5234375 168.2890625 110.5234375 169.625 112.375 C170.07101562 112.98085937 170.51703125 113.58671875 170.9765625 114.2109375 C172 116 172 116 172 119 C172.66 119 173.32 119 174 119 C174.67119549 120.4562545 175.33681807 121.91507867 176 123.375 C176.37125 124.18710938 176.7425 124.99921875 177.125 125.8359375 C178 128 178 128 178 130 C178.99 130.33 179.98 130.66 181 131 C181 131.99 181 132.98 181 134 C181.66 134 182.32 134 183 134 C183.33 135.98 183.66 137.96 184 140 C184.66 140 185.32 140 186 140 C186.33 142.31 186.66 144.62 187 147 C187.66 147 188.32 147 189 147 C189.4125 148.11375 189.825 149.2275 190.25 150.375 C191.41836319 153.507091 192.6586683 156.59909616 193.9375 159.6875 C200.37548117 175.74516733 200.37548117 175.74516733 200 183 C200.66 183 201.32 183 202 183 C202.12117188 183.72445312 202.24234375 184.44890625 202.3671875 185.1953125 C203.40672433 191.27602771 203.40672433 191.27602771 205.125 197.1875 C206.28801975 200.92577777 206.13467104 204.09453982 206 208 C206.66 208 207.32 208 208 208 C209.54631543 222.18335894 210.32194772 236.21003317 210.26074219 250.47680664 C210.25001519 253.43331446 210.26072667 256.38921333 210.2734375 259.34570312 C210.28291269 272.84464409 210.11627624 286.63800455 208 300 C207.67 300.33 207.34 300.66 207 301 C207.99 301.66 208.98 302.32 210 303 C210.29427321 305.77329699 210.39109697 308.32343285 210.36076355 311.09902954 C210.36332682 311.94603373 210.3658901 312.79303792 210.36853105 313.6657089 C210.37349527 316.52033071 210.35693279 319.37443036 210.34057617 322.22900391 C210.33973047 324.26868172 210.34020393 326.30836044 210.34190369 328.34803772 C210.34276728 333.89947447 210.32508269 339.45071825 210.30418181 345.00211 C210.28547556 350.79838372 210.28366936 356.59466145 210.28010559 362.39096069 C210.27076729 373.37342839 210.2461294 384.3558069 210.21605712 395.33823526 C210.18256857 407.83863586 210.16604107 420.33904065 210.15097082 432.83947492 C210.11958138 458.55969946 210.06678627 484.27984474 210 510 C174.81451203 510.0458828 139.62903016 510.0810725 104.44351851 510.10213066 C100.27964706 510.10463176 96.11577566 510.10722043 91.9519043 510.10986328 C90.70859479 510.11065021 90.70859479 510.11065021 89.44016793 510.11145304 C76.05893603 510.12013079 62.67772151 510.13588611 49.29649989 510.15430559 C35.54301864 510.17307812 21.78954642 510.18413219 8.03605288 510.18817699 C-0.43511356 510.19090688 -8.90623089 510.19949562 -17.3773822 510.21583293 C-23.20420773 510.22649082 -29.03100827 510.22958096 -34.85784283 510.22700275 C-38.20826266 510.22573498 -41.55852939 510.22866241 -44.90894508 510.23841095 C-60.06883806 510.2803214 -74.93927184 509.79215453 -90 508 C-90 507.34 -90 506.68 -90 506 C-91.12921875 506.03867187 -92.2584375 506.07734375 -93.421875 506.1171875 C-98.20757213 506.11507926 -102.60763514 505.21595574 -107.25 504.125 C-108.43335938 503.86396484 -108.43335938 503.86396484 -109.640625 503.59765625 C-113.40673288 502.73883097 -116.54415873 501.73647046 -120 500 C-121.89468537 499.50999516 -123.79054904 499.02345541 -125.6953125 498.57421875 C-129.84196256 497.54107034 -133.91613084 496.25528765 -138 495 C-138 494.34 -138 493.68 -138 493 C-140.64 492.67 -143.28 492.34 -146 492 C-146 491.34 -146 490.68 -146 490 C-147.98 489.67 -149.96 489.34 -152 489 C-152 488.34 -152 487.68 -152 487 C-154.31 486.67 -156.62 486.34 -159 486 C-159 485.34 -159 484.68 -159 484 C-160.98 483.67 -162.96 483.34 -165 483 C-165 482.34 -165 481.68 -165 481 C-166.65 480.67 -168.3 480.34 -170 480 C-170 479.34 -170 478.68 -170 478 C-171.65 477.67 -173.3 477.34 -175 477 C-175 476.34 -175 475.68 -175 475 C-176.175625 474.690625 -176.175625 474.690625 -177.375 474.375 C-182.24735302 472.5268661 -186.77926645 470.0696244 -191 467 C-191 466.34 -191 465.68 -191 465 C-192.65 464.67 -194.3 464.34 -196 464 C-196 463.34 -196 462.68 -196 462 C-196.99 461.67 -197.98 461.34 -199 461 C-199 460.34 -199 459.68 -199 459 C-200.32 458.67 -201.64 458.34 -203 458 C-203 457.34 -203 456.68 -203 456 C-204.32 455.67 -205.64 455.34 -207 455 C-207 454.34 -207 453.68 -207 453 C-207.8971875 452.566875 -207.8971875 452.566875 -208.8125 452.125 C-211 451 -211 451 -214 449 C-214 448.34 -214 447.68 -214 447 C-215.11375 446.6596875 -215.11375 446.6596875 -216.25 446.3125 C-219.54966517 444.7376598 -220.85978051 442.92496664 -223 440 C-225.12399867 437.62112149 -225.86597409 437.0446753 -229 436 C-229 435.01 -229 434.02 -229 433 C-229.66 433 -230.32 433 -231 433 C-232.36639342 431.3603279 -233.6949419 429.68889872 -235 428 C-236.11375 426.9171875 -236.11375 426.9171875 -237.25 425.8125 C-239 424 -239 424 -239 422 C-239.99 421.67 -240.98 421.34 -242 421 C-242 420.34 -242 419.68 -242 419 C-242.66 419 -243.32 419 -244 419 C-244.103125 418.360625 -244.20625 417.72125 -244.3125 417.0625 C-244.539375 416.381875 -244.76625 415.70125 -245 415 C-245.99 414.67 -246.98 414.34 -248 414 C-248 413.01 -248 412.02 -248 411 C-248.66 411 -249.32 411 -250 411 C-252.34869747 409.02709413 -253.00102287 407.99693138 -254 405 C-254.680625 404.319375 -254.680625 404.319375 -255.375 403.625 C-257.38365017 401.61634983 -258.65666647 399.49476227 -260 397 C-260 396.34 -260 395.68 -260 395 C-260.66 394.67 -261.32 394.34 -262 394 C-262.66666667 392.66666667 -263.33333333 391.33333333 -264 390 C-264.66 389.67 -265.32 389.34 -266 389 C-267.0703125 387.2578125 -267.0703125 387.2578125 -268.125 385.125 C-268.65480469 384.07699219 -268.65480469 384.07699219 -269.1953125 383.0078125 C-270 381 -270 381 -270 378 C-270.66 378 -271.32 378 -272 378 C-273.29673602 375.46080994 -274.58747837 372.91885762 -275.875 370.375 C-276.23980469 369.66214844 -276.60460937 368.94929688 -276.98046875 368.21484375 C-282 358.26704545 -282 358.26704545 -282 354 C-282.66 353.67 -283.32 353.34 -284 353 C-284.40729228 350.67843403 -284.74438677 348.3431213 -285 346 C-285.66 346 -286.32 346 -287 346 C-288.70701117 340.34410299 -290.37696285 334.68063004 -292 329 C-292.22558594 328.27554687 -292.45117188 327.55109375 -292.68359375 326.8046875 C-298.27605891 308.78130238 -298.27605891 308.78130238 -298 300 C-298.66 300 -299.32 300 -300 300 C-303.57227317 269.76325925 -303.57227317 238.23674075 -300 208 C-299.34 208 -298.68 208 -298 208 C-297.96261719 207.27296875 -297.92523438 206.5459375 -297.88671875 205.796875 C-297.30110601 196.8404449 -296.10936386 188.06838514 -292 180 C-291.50946516 178.07056295 -291.02167391 176.14026493 -290.5625 174.203125 C-289.59102151 170.39816757 -288.27479228 166.71189518 -287 163 C-286.43596195 161.31301346 -285.87341226 159.62552842 -285.3125 157.9375 C-284.875 156.625 -284.4375 155.3125 -284 154 C-283.34 154 -282.68 154 -282 154 C-281.90589844 152.98292969 -281.81179688 151.96585938 -281.71484375 150.91796875 C-280.95415148 146.74871005 -279.65033336 143.98031536 -277.5625 140.3125 C-276.94503906 139.21550781 -276.32757813 138.11851562 -275.69140625 136.98828125 C-275.13324219 136.00214844 -274.57507813 135.01601562 -274 134 C-273.32209479 132.67234539 -272.64963719 131.34171299 -272 130 C-271.34 130 -270.68 130 -270 130 C-269.896875 129.29875 -269.79375 128.5975 -269.6875 127.875 C-268.89945728 124.57954861 -267.67130238 121.94149219 -266 119 C-265.34 118.67 -264.68 118.34 -264 118 C-263.27840576 116.35636866 -262.60648579 114.68949614 -262 113 C-261.34 113 -260.68 113 -260 113 C-258.47700477 110.06279492 -257.19899698 107.0831351 -256 104 C-255.34 104 -254.68 104 -254 104 C-253.71125 103.401875 -253.4225 102.80375 -253.125 102.1875 C-252 100 -252 100 -250 97 C-249.34 97 -248.68 97 -248 97 C-247.505 95.02 -247.505 95.02 -247 93 C-246.34 93 -245.68 93 -245 93 C-244.71125 92.401875 -244.4225 91.80375 -244.125 91.1875 C-243 89 -243 89 -241 86 C-240.34 86 -239.68 86 -239 86 C-238.773125 85.2575 -238.54625 84.515 -238.3125 83.75 C-236.75071394 80.47768636 -234.87764944 79.13979061 -232 77 C-231.67 76.34 -231.34 75.68 -231 75 C-230.34 75 -229.68 75 -229 75 C-229 74.01 -229 73.02 -229 72 C-228.01 71.67 -227.02 71.34 -226 71 C-224.66104368 69.33784732 -223.32869858 67.67036393 -222 66 C-216.72899729 61 -216.72899729 61 -214 61 C-213.67 60.01 -213.34 59.02 -213 58 C-209.55555556 55 -209.55555556 55 -207 55 C-207 54.34 -207 53.68 -207 53 C-205.68 52.67 -204.36 52.34 -203 52 C-203 51.34 -203 50.68 -203 50 C-201.68 49.67 -200.36 49.34 -199 49 C-199 48.34 -199 47.68 -199 47 C-197.23042094 44.6716065 -196.18416484 44.04711194 -193.3125 43.3125 C-192.1678125 43.1578125 -192.1678125 43.1578125 -191 43 C-191 42.34 -191 41.68 -191 41 C-189.68 40.67 -188.36 40.34 -187 40 C-187 39.34 -187 38.68 -187 38 C-183.07407404 35.94356259 -179.23429756 34.31061591 -175 33 C-175 32.34 -175 31.68 -175 31 C-172.525 30.505 -172.525 30.505 -170 30 C-170 29.34 -170 28.68 -170 28 C-168.35 27.67 -166.7 27.34 -165 27 C-165 26.34 -165 25.68 -165 25 C-162.03 24.505 -162.03 24.505 -159 24 C-159 23.34 -159 22.68 -159 22 C-156.69 21.67 -154.38 21.34 -152 21 C-152 20.34 -152 19.68 -152 19 C-149.03 18.505 -149.03 18.505 -146 18 C-146 17.34 -146 16.68 -146 16 C-143.36 15.67 -140.72 15.34 -138 15 C-138 14.34 -138 13.68 -138 13 C-131.71896428 10.81067114 -125.5197825 8.76466516 -119 7.42578125 C-115.95521289 6.77757462 -112.99065534 5.86171425 -110 5 C-106.00853731 3.96434699 -102.00993676 2.96161553 -98 2 C-97.32227539 1.83516113 -96.64455078 1.67032227 -95.94628906 1.50048828 C-65.69226227 -5.59050577 -30.67292792 -3.42480205 0 0 Z " fill="#42B2DC" transform="translate(302,2)"/>
<path d="M0 0 C1.54530396 -0.01981934 1.54530396 -0.01981934 3.12182617 -0.04003906 C15.15537978 -0.0517174 24.35360119 2.93970995 33.5 10.8203125 C34.75 12.1875 34.75 12.1875 34.75 14.1875 C35.41 14.1875 36.07 14.1875 36.75 14.1875 C43.07273525 22.54982726 44.29783171 29.81881328 44.75 40.1875 C45.41 40.1875 46.07 40.1875 46.75 40.1875 C46.77918634 44.54165244 46.79686145 48.89577948 46.8125 53.25 C46.82087891 54.47912109 46.82925781 55.70824219 46.83789062 56.97460938 C46.85363389 62.81536137 46.83469508 68.43947017 45.75 74.1875 C45.09 74.1875 44.43 74.1875 43.75 74.1875 C43.73582031 74.77015625 43.72164063 75.3528125 43.70703125 75.953125 C43.33677921 82.31745743 41.68378129 87.27285874 39.09375 93.0703125 C36.97129121 97.9939233 35.37070471 103.08092203 33.75 108.1875 C33.09 108.1875 32.43 108.1875 31.75 108.1875 C31.646875 108.72375 31.54375 109.26 31.4375 109.8125 C29.84445025 115.31576277 26.62701959 120.26117418 23.8359375 125.234375 C23.11193382 126.53653989 22.41630544 127.85488911 21.75 129.1875 C21.09 129.1875 20.43 129.1875 19.75 129.1875 C19.6675 129.868125 19.585 130.54875 19.5 131.25 C18.52667472 135.0621907 16.79192545 137.82820329 14.75 141.1875 C14.09 141.1875 13.43 141.1875 12.75 141.1875 C12.47760498 141.92323242 12.20520996 142.65896484 11.92456055 143.41699219 C10.81018946 146.04552744 9.56952347 148.16892743 7.95703125 150.515625 C7.40853516 151.31613281 6.86003906 152.11664063 6.29492188 152.94140625 C5.72322266 153.76511719 5.15152344 154.58882812 4.5625 155.4375 C4.01013672 156.24574219 3.45777344 157.05398438 2.88867188 157.88671875 C-0.45319355 162.73843975 -3.95152771 167.42197415 -7.59643555 172.04931641 C-10.50327525 175.80807945 -13.1808096 179.72836878 -15.86132812 183.65039062 C-16.94279581 185.19751367 -18.09081143 186.69772018 -19.25 188.1875 C-19.91 188.1875 -20.57 188.1875 -21.25 188.1875 C-21.559375 188.826875 -21.86875 189.46625 -22.1875 190.125 C-23.25 192.1875 -23.25 192.1875 -24.25 193.1875 C-23.27006687 193.08202284 -23.27006687 193.08202284 -22.2703371 192.97441483 C-15.20123676 192.26584621 -8.21736594 192.03378693 -1.1159668 192.02636719 C0.04333344 192.02140228 1.20263367 192.01643738 2.39706421 192.01132202 C6.19830945 191.99682324 9.99951301 191.98991999 13.80078125 191.984375 C15.79004632 191.98007295 17.7793114 191.97577033 19.76857632 191.9714005 C25.30529001 191.95963599 30.84199377 191.95206829 36.37871867 191.9486053 C43.49412566 191.94412761 50.60934027 191.92657482 57.72468883 191.8976047 C63.25884546 191.875869 68.7929484 191.86589482 74.32714719 191.86456418 C77.61728074 191.86352511 80.90719316 191.85631992 84.19729042 191.83974457 C118.04123393 191.68136821 118.04123393 191.68136821 130.75 200.1875 C130.75 200.8475 130.75 201.5075 130.75 202.1875 C131.306875 202.39375 131.86375 202.6 132.4375 202.8125 C135.01186982 204.34320638 136.58133055 206.19955497 138.40625 208.5546875 C139.76177983 210.28326352 139.76177983 210.28326352 141.66445065 211.91747093 C148.6026757 219.46942482 149.48096075 230.16134469 149.34936523 239.93505859 C149.35527931 241.73520416 149.35527931 241.73520416 149.36131287 243.57171631 C149.36682115 246.81965706 149.35032744 250.06650874 149.32283282 253.31430769 C149.29875426 256.73292562 149.30194592 260.15153334 149.30152893 263.57022095 C149.29692356 269.30103412 149.27342775 275.0315116 149.23706055 280.76220703 C149.19522027 287.37264693 149.17773749 293.98278605 149.1744408 300.59335077 C149.17083421 307.66342741 149.15196548 314.73339728 149.12732053 321.80342913 C149.12111469 323.82910105 149.11746435 325.85476485 149.11428642 327.88044357 C149.10523344 331.65920042 149.08283585 335.4376384 149.05639648 339.21630859 C149.05573181 340.33020966 149.05506714 341.44411072 149.05438232 342.59176636 C148.93098916 355.38479114 144.15510417 365.67040031 135.4375 375.125 C119.35179728 389.62732259 96.61567794 387.66295892 76.40234375 387.65625 C73.7745396 387.6633675 71.14673698 387.67106876 68.51893616 387.67932129 C63.03822499 387.69382647 57.55762774 387.69455074 52.0769043 387.68847656 C45.78562085 387.68183149 39.49492299 387.70475312 33.20375818 387.74179029 C27.09175225 387.77643526 20.98001898 387.7828052 14.86792183 387.77870178 C12.29379084 387.78038237 9.71965133 387.78992111 7.1455822 387.80784607 C-27.09291244 388.02016161 -27.09291244 388.02016161 -40.1328125 376.36328125 C-53.34195826 362.78856873 -55.42804149 347.99499589 -55.36352539 329.67919922 C-55.36367142 328.57558548 -55.36381744 327.47197174 -55.3639679 326.33491516 C-55.36327637 322.72065196 -55.35551984 319.10644159 -55.34765625 315.4921875 C-55.34578937 312.97299223 -55.34436674 310.45379659 -55.34336853 307.93460083 C-55.33995254 302.00275093 -55.33208709 296.07091771 -55.32201904 290.13907635 C-55.31079805 283.37960445 -55.30533244 276.6201316 -55.30032361 269.86065269 C-55.28990265 255.96959149 -55.27234072 242.07854677 -55.25 228.1875 C-57.23 229.1775 -57.23 229.1775 -59.25 230.1875 C-59.25 230.8475 -59.25 231.5075 -59.25 232.1875 C-63.72058824 236.1875 -63.72058824 236.1875 -66.25 236.1875 C-66.45625 236.75726563 -66.6625 237.32703125 -66.875 237.9140625 C-68.78338613 241.06940548 -71.19832898 242.51125886 -74.25 244.5625 C-74.8272583 244.95171631 -75.4045166 245.34093262 -75.99926758 245.74194336 C-90.12377391 255.1875 -90.12377391 255.1875 -93.25 255.1875 C-93.25 255.8475 -93.25 256.5075 -93.25 257.1875 C-96.16583585 258.16915279 -99.0828088 259.14738301 -102 260.125 C-102.825 260.40279297 -103.65 260.68058594 -104.5 260.96679688 C-105.29921875 261.23427734 -106.0984375 261.50175781 -106.921875 261.77734375 C-107.6550293 262.02347412 -108.38818359 262.26960449 -109.14355469 262.52319336 C-117.69624438 265.22044286 -126.55979571 265.42034181 -134.81640625 261.62890625 C-148.31156222 253.63578819 -156.27351794 240.20988312 -162.25 226.1875 C-163.80821701 222.87301922 -165.37981467 219.56514767 -166.953125 216.2578125 C-169.43042387 210.39288204 -170.79349776 204.18165006 -172.25 198 C-172.42370117 197.26402588 -172.59740234 196.52805176 -172.77636719 195.76977539 C-174.20224877 189.61614665 -175.33464295 183.4384251 -176.25 177.1875 C-176.91 177.1875 -177.57 177.1875 -178.25 177.1875 C-178.50394531 176.17171875 -178.75789063 175.1559375 -179.01953125 174.109375 C-179.18469238 173.44881104 -179.34985352 172.78824707 -179.52001953 172.10766602 C-179.88443024 170.64985918 -180.24868576 169.19201353 -180.61279297 167.73413086 C-181.44276483 164.41168854 -182.27467424 161.08980786 -183.11328125 157.76953125 C-184.78271452 151.15172653 -186.33278874 144.52078154 -187.74609375 137.84375 C-187.99552734 136.68359375 -187.99552734 136.68359375 -188.25 135.5 C-188.394375 134.81550781 -188.53875 134.13101563 -188.6875 133.42578125 C-189.24818488 131.07104863 -189.24818488 131.07104863 -190.19921875 128.3671875 C-191.33104958 124.94224217 -192.19556069 121.50095916 -193.0625 118 C-194.53194683 112.28836674 -196.44764675 107.04304284 -199.03515625 101.7421875 C-200.24393063 99.20026324 -201.21993326 96.64173823 -202.1875 94 C-204.74480594 87.48767031 -208.94020171 81.76491232 -214.25 77.1875 C-218.57661291 75.7452957 -222.87867854 75.18805272 -227.14648438 76.98681641 C-229.0004721 78.07866485 -230.74868698 79.25044591 -232.5 80.5 C-233.098125 80.90412109 -233.69625 81.30824219 -234.3125 81.72460938 C-236.77178381 83.39768409 -239.16431193 85.11873982 -241.484375 86.98046875 C-243.25 88.1875 -243.25 88.1875 -246.25 88.1875 C-248.29296875 85.88671875 -248.29296875 85.88671875 -250.4375 82.875 C-251.51064453 81.39580078 -251.51064453 81.39580078 -252.60546875 79.88671875 C-254.25 77.1875 -254.25 77.1875 -254.25 74.1875 C-255.9 73.5275 -257.55 72.8675 -259.25 72.1875 C-258.78504425 67.8841861 -256.34008984 66.12863762 -253.1875 63.375 C-252.68871338 62.93486572 -252.18992676 62.49473145 -251.67602539 62.04125977 C-250.20781567 60.74852764 -248.72908084 59.46777965 -247.25 58.1875 C-245.8957585 57.00008535 -244.54158202 55.81259652 -243.1875 54.625 C-242.55714844 54.07714844 -241.92679688 53.52929688 -241.27734375 52.96484375 C-238.91510827 50.89390513 -236.58204147 48.79237152 -234.25 46.6875 C-230.62765091 43.41855082 -226.97720604 40.18716992 -223.29296875 36.98828125 C-221.84335587 35.71051541 -220.40998244 34.41421959 -218.98828125 33.10546875 C-209.13236459 24.04310415 -198.71577711 16.11474034 -187.25 9.1875 C-186.404375 8.62933594 -185.55875 8.07117188 -184.6875 7.49609375 C-182.25 6.1875 -182.25 6.1875 -178.25 6.1875 C-178.25 5.5275 -178.25 4.8675 -178.25 4.1875 C-175.41017118 3.24089039 -173.63144671 3.05882226 -170.6875 3.0546875 C-169.80835938 3.05339844 -168.92921875 3.05210938 -168.0234375 3.05078125 C-167.10820312 3.05464844 -166.19296875 3.05851562 -165.25 3.0625 C-163.87714844 3.05669922 -163.87714844 3.05669922 -162.4765625 3.05078125 C-161.59742188 3.05207031 -160.71828125 3.05335937 -159.8125 3.0546875 C-159.00941406 3.05581543 -158.20632812 3.05694336 -157.37890625 3.05810547 C-155.25 3.1875 -155.25 3.1875 -152.25 4.1875 C-152.25 4.8475 -152.25 5.5075 -152.25 6.1875 C-151.15365234 6.32478516 -151.15365234 6.32478516 -150.03515625 6.46484375 C-144.49801462 7.9015495 -139.89007848 12.57935227 -136.88671875 17.35546875 C-136.25220723 18.66123956 -135.65125111 19.98444174 -135.1015625 21.328125 C-134.31467872 23.26494734 -134.31467872 23.26494734 -132.8125 24.89453125 C-130.54659441 28.2197477 -129.69069309 31.77337466 -128.625 35.625 C-128.4084375 36.37587891 -128.191875 37.12675781 -127.96875 37.90039062 C-126.32015212 43.68574801 -125.11452696 48.94323734 -125.1875 55 C-125.19652344 55.97582031 -125.20554688 56.95164063 -125.21484375 57.95703125 C-125.23224609 59.06111328 -125.23224609 59.06111328 -125.25 60.1875 C-124.59 60.1875 -123.93 60.1875 -123.25 60.1875 C-123.14977539 60.96649658 -123.04955078 61.74549316 -122.94628906 62.5480957 C-121.04398909 77.19170757 -118.96749867 91.67130925 -115.70703125 106.08496094 C-114.94682254 109.58224588 -114.32119228 113.10299616 -113.6875 116.625 C-112.8234681 121.3464858 -111.83868564 125.9813332 -110.625 130.625 C-109.35357306 135.49103715 -108.66747588 140.17778947 -108.25 145.1875 C-107.59 145.1875 -106.93 145.1875 -106.25 145.1875 C-105.81300781 146.4559375 -105.81300781 146.4559375 -105.3671875 147.75 C-101.82612335 157.88982506 -101.82612335 157.88982506 -95.25 166.1875 C-91.96739666 167.9422833 -91.96739666 167.9422833 -88.25 167.1875 C-74.04036268 159.7115341 -64.98238789 142.43570363 -57.734375 128.8359375 C-55.83009734 125.43830526 -53.68232723 122.25098035 -51.44921875 119.0625 C-50.08332982 117.09541445 -50.08332982 117.09541445 -49.25 114.1875 C-48.59 114.1875 -47.93 114.1875 -47.25 114.1875 C-46.981875 112.929375 -46.71375 111.67125 -46.4375 110.375 C-45.87482697 107.76808324 -45.26769398 105.24239448 -44.44921875 102.703125 C-41.81570301 94.46558761 -39.763647 83.65278536 -43.4921875 75.45703125 C-46.16070542 71.812712 -48.98952495 68.80399319 -53.484375 67.578125 C-61.81809292 66.4010462 -70.58658179 66.19480112 -78.41796875 69.53125 C-80.25 70.1875 -80.25 70.1875 -84.25 70.1875 C-83.29343941 64.75020825 -81.93548345 60.14639548 -79.31640625 55.28515625 C-78.13870632 52.96858166 -77.22925256 50.61856447 -76.3125 48.1875 C-71.71001441 36.4175072 -71.71001441 36.4175072 -67.25 34.1875 C-66.92 33.1975 -66.59 32.2075 -66.25 31.1875 C-65.26 30.6925 -65.26 30.6925 -64.25 30.1875 C-63.8375 29.48625 -63.425 28.785 -63 28.0625 C-54.75802495 14.52211242 -39.31881436 5.33868853 -24.25 1.1875 C-16.31517277 -0.28646171 -8.0454647 0.07038796 0 0 Z " fill="#FDFEFE" transform="translate(362.25,123.8125)"/>
<path d="M0 0 C1.73916939 -0.0076664 1.73916939 -0.0076664 3.51347351 -0.01548767 C7.30932925 -0.02927748 11.10500125 -0.02843496 14.90087891 -0.02612305 C16.88895503 -0.02903001 18.87703122 -0.03194285 20.86510623 -0.03552979 C27.10523896 -0.04657204 33.34531147 -0.04709232 39.58544922 -0.04101562 C45.9838783 -0.0349798 52.38208727 -0.04728899 58.78047884 -0.06858569 C64.31041958 -0.08630257 69.8402909 -0.09218731 75.37025893 -0.08894795 C78.65700805 -0.08715096 81.94356715 -0.09096166 85.23029709 -0.10366249 C119.06324203 -0.21837736 119.06324203 -0.21837736 131.75244141 8.2746582 C131.75244141 8.9346582 131.75244141 9.5946582 131.75244141 10.2746582 C132.30931641 10.4809082 132.86619141 10.6871582 133.43994141 10.8996582 C136.01431123 12.43036458 137.58377196 14.28671317 139.40869141 16.6418457 C140.76422124 18.37042172 140.76422124 18.37042172 142.66689205 20.00462914 C149.60511711 27.55658303 150.48340215 38.24850289 150.35180664 48.0222168 C150.35574936 49.22231384 150.35969208 50.42241089 150.36375427 51.65887451 C150.36926256 54.90681526 150.35276884 58.15366694 150.32527423 61.40146589 C150.30119566 64.82008382 150.30438733 68.23869154 150.30397034 71.65737915 C150.29936497 77.38819232 150.27586915 83.1186698 150.23950195 88.84936523 C150.19766168 95.45980513 150.1801789 102.06994425 150.17688221 108.68050897 C150.17327561 115.75058561 150.15440689 122.82055548 150.12976193 129.89058733 C150.1235561 131.91625926 150.11990575 133.94192305 150.11672783 135.96760178 C150.10767484 139.74635862 150.08527726 143.5247966 150.05883789 147.3034668 C150.05817322 148.41736786 150.05750854 149.53126892 150.05682373 150.67892456 C149.93343056 163.47194934 145.15754557 173.75755852 136.43994141 183.2121582 C120.35423869 197.71448079 97.61811935 195.75011713 77.40478516 195.7434082 C74.77698101 195.7505257 72.14917839 195.75822697 69.52137756 195.76647949 C64.0406664 195.78098467 58.56006915 195.78170895 53.0793457 195.77563477 C46.78806226 195.76898969 40.4973644 195.79191132 34.20619959 195.8289485 C28.09419366 195.86359347 21.98246039 195.8699634 15.87036324 195.86585999 C13.29623224 195.86754057 10.72209274 195.87707931 8.14802361 195.89500427 C-26.09047103 196.10731981 -26.09047103 196.10731981 -39.13037109 184.45043945 C-51.99984559 171.22479869 -54.41684918 156.77706871 -54.37695312 138.87475586 C-54.37870544 137.88795334 -54.38045776 136.90115082 -54.38226318 135.88444519 C-54.3866308 132.65251864 -54.38376128 129.42064772 -54.38037109 126.1887207 C-54.3810457 123.92247507 -54.38201704 121.65622951 -54.38327026 119.38998413 C-54.38474044 114.65101428 -54.38261497 109.91206335 -54.37792969 105.1730957 C-54.37223938 99.12561851 -54.37551134 93.07818578 -54.38150215 87.03071022 C-54.38513172 82.353319 -54.38395809 77.67593815 -54.38137436 72.9985466 C-54.38071137 70.77001312 -54.38151134 68.54147867 -54.38385391 66.31294632 C-54.41624313 26.83757658 -54.41624313 26.83757658 -40.43896484 12.4074707 C-28.79842379 1.49299961 -15.39715743 -0.03577336 0 0 Z " fill="#FA3F57" transform="translate(361.24755859375,315.725341796875)"/>
<path d="M0 0 C3 2 3 2 3.38311005 3.82954502 C3.38683876 4.57556949 3.39056747 5.32159395 3.39440918 6.09022522 C3.40575897 6.94662598 3.41710876 7.80302673 3.42880249 8.68537903 C3.42587189 9.62717514 3.42294128 10.56897125 3.41992188 11.53930664 C3.42839142 12.52975983 3.43686096 13.52021301 3.44558716 14.54067993 C3.46907423 17.83063446 3.46997602 21.12012404 3.46875 24.41015625 C3.47584803 26.6950245 3.4835465 28.97989096 3.49182129 31.26475525 C3.50529553 36.06416771 3.50682322 40.86341567 3.50097656 45.6628418 C3.49509882 51.80082602 3.52557909 57.93801425 3.56609344 64.07584476 C3.59200996 68.80035117 3.59484383 73.52466746 3.59120178 78.24923515 C3.59289147 80.51097032 3.60251933 82.77271442 3.62034607 85.03437996 C3.64259683 88.20842833 3.63279942 91.38088651 3.61523438 94.55493164 C3.62849762 95.48255814 3.64176086 96.41018463 3.65542603 97.36592102 C3.57213353 103.87650566 2.01508888 108.79976358 -2 114 C-4.63651793 116.33082111 -5.40754609 117 -9 117 C-9 117.66 -9 118.32 -9 119 C-16.07529906 120.62059923 -23.86084336 121.43189601 -30.5625 118.375 C-34.90740384 114.14150395 -37.22723832 111.08993957 -37.4375 104.9375 C-37.19292416 99.49976384 -35.71254393 96.7644392 -31.9375 92.875 C-27.03668809 89.74682219 -21.5790414 88.63643011 -15.9765625 87.25390625 C-14.99429688 87.00511719 -14.01203125 86.75632812 -13 86.5 C-12.0925 86.2834375 -11.185 86.066875 -10.25 85.84375 C-7.65949372 85.12223736 -7.65949372 85.12223736 -6 82 C-5.67299844 79.71909256 -5.67299844 79.71909256 -5.68115234 77.16137695 C-5.66128265 76.1805867 -5.64141296 75.19979645 -5.62094116 74.18928528 C-5.60938995 73.13295395 -5.59783875 72.07662262 -5.5859375 70.98828125 C-5.56657135 69.90491989 -5.5472052 68.82155853 -5.5272522 67.70536804 C-5.46741656 64.24115907 -5.4210547 60.77691695 -5.375 57.3125 C-5.33682393 54.96548021 -5.29777242 52.61847448 -5.2578125 50.27148438 C-5.16171176 44.51444766 -5.07667587 38.75732641 -5 33 C-22.67613419 35.10898404 -22.67613419 35.10898404 -40.125 38.5625 C-47.32910378 40.22233829 -54.42414609 41.65997001 -61.76953125 42.54296875 C-64.19348479 42.82630172 -64.19348479 42.82630172 -66 45 C-66.21705637 47.40679241 -66.31134857 49.70219803 -66.31884766 52.11181641 C-66.33391609 53.20953117 -66.33391609 53.20953117 -66.34928894 54.329422 C-66.38023236 56.75346068 -66.39718674 59.17738838 -66.4140625 61.6015625 C-66.43276521 63.28023237 -66.45233794 64.95889275 -66.4727478 66.63754272 C-66.52416995 71.05979835 -66.56374152 75.48208449 -66.60089111 79.90447998 C-66.64086774 84.41556407 -66.69198892 88.92652013 -66.7421875 93.4375 C-66.83906607 102.29157686 -66.92343249 111.14572584 -67 120 C-67.66 120 -68.32 120 -69 120 C-69.020625 120.70125 -69.04125 121.4025 -69.0625 122.125 C-70.47124721 126.44515811 -73.28659503 128.52190112 -77 131 C-83.25750953 133.75330419 -90.27639601 133.68449061 -97 133 C-101.55798098 131.00088554 -104.07330844 128.28802621 -106.30859375 123.9296875 C-107.86863067 119.57568616 -107.67378453 115.60959638 -105.875 111.3125 C-99.22233232 103.1075432 -91.80979222 100.87820835 -81.671875 99.52734375 C-78.78811805 99.13542114 -78.78811805 99.13542114 -76 97 C-75.69959658 94.38482648 -75.59364384 92.00298144 -75.61523438 89.38500977 C-75.6098616 88.59949738 -75.60448883 87.81398499 -75.59895325 87.00466919 C-75.589157 85.29625983 -75.58623666 83.5878006 -75.58930969 81.87936592 C-75.59377356 79.17714168 -75.57982864 76.4755773 -75.56091309 73.77342224 C-75.52406259 68.03645907 -75.51040971 62.29956413 -75.5 56.5625 C-75.48793817 49.91934457 -75.46646809 43.27650883 -75.41999817 36.63349724 C-75.40638741 33.96831228 -75.41060641 31.30352724 -75.41540527 28.63832092 C-75.4060669 27.00700363 -75.39589865 25.3756908 -75.38476562 23.74438477 C-75.39091385 23.00090286 -75.39706207 22.25742096 -75.40339661 21.4914093 C-75.34325201 16.48504575 -75.34325201 16.48504575 -73.63188171 14.06672668 C-71.32736905 12.56031532 -69.18366821 12.12217209 -66.48828125 11.5703125 C-65.35261719 11.33473633 -64.21695313 11.09916016 -63.046875 10.85644531 C-61.81453125 10.61506836 -60.5821875 10.37369141 -59.3125 10.125 C-58.04277344 9.8681543 -56.77304687 9.61130859 -55.46484375 9.34667969 C-44.15090668 7.09130577 -32.76574083 5.2960412 -21.34887695 3.64892578 C-19.42821411 3.36637939 -19.42821411 3.36637939 -17.46875 3.078125 C-16.33888672 2.91731445 -15.20902344 2.75650391 -14.04492188 2.59082031 C-0.47823929 -0.04158603 -0.47823929 -0.04158603 0 0 Z " fill="#FCF8F9" transform="translate(454,345)"/>
<path d="M0 0 C1.98 0.99 1.98 0.99 4 2 C4 70.31 4 138.62 4 209 C-71.57 209 -147.14 209 -225 209 C-225 208.67 -225 208.34 -225 208 C-224.00097656 207.86722656 -223.00195312 207.73445312 -221.97265625 207.59765625 C-220.03712891 207.33275391 -220.03712891 207.33275391 -218.0625 207.0625 C-216.77472656 206.88847656 -215.48695313 206.71445312 -214.16015625 206.53515625 C-211.14533687 206.33837577 -211.14533687 206.33837577 -210 205 C-206.4850657 204.20425161 -202.95317965 203.51612157 -199.41796875 202.81640625 C-196.5602108 202.13381035 -194.57686551 201.29122762 -192 200 C-190.68 200 -189.36 200 -188 200 C-188 199.34 -188 198.68 -188 198 C-187.01 197.67 -186.02 197.34 -185 197 C-184.113125 197.70125 -183.22625 198.4025 -182.3125 199.125 C-168.59753135 209.19543841 -150.88033465 207.70583148 -134.78515625 207.59375 C-132.15832067 207.59203501 -129.53148338 207.59210852 -126.90464783 207.59387207 C-121.42204081 207.59381884 -115.93978225 207.57426865 -110.45727539 207.54199219 C-104.16671496 207.50513273 -97.87661005 207.49631789 -91.58595568 207.5032897 C-85.47448135 207.50965019 -79.36318401 207.49851715 -73.25173759 207.47932434 C-70.67845847 207.47235452 -68.10516594 207.46916239 -65.53187752 207.47001648 C-36.04712617 208.08204271 -36.04712617 208.08204271 -10.6640625 194.859375 C-0.77932792 184.34995459 2.29796764 174.15439615 2.30639648 160.02880859 C2.31888176 158.2444339 2.31888176 158.2444339 2.33161926 156.42401123 C2.35152707 153.17569062 2.3623496 149.92751869 2.36744571 146.67914534 C2.37110307 144.64324951 2.37735034 142.6073778 2.3844471 140.57149124 C2.40891018 133.45015647 2.42198568 126.32889415 2.42553711 119.20751953 C2.42916506 112.60058811 2.45901477 105.99412329 2.50094169 99.38733423 C2.53580509 93.69105514 2.55108834 87.99492941 2.55178314 82.29854453 C2.55257084 78.90711009 2.56107118 75.5161512 2.58978081 72.12482834 C2.6168344 68.33200008 2.6118261 64.54043617 2.59936523 60.74755859 C2.61419952 59.64580292 2.62903381 58.54404724 2.64431763 57.40890503 C2.56709092 49.09502555 0.29778912 42.57587631 -3 35 C-3.33 34.01 -3.66 33.02 -4 32 C-4.99 31.67 -5.98 31.34 -7 31 C-6.44894132 25.76494258 -5.5267813 21.05746306 -4 16 C-3.64628502 14.33753959 -3.30404678 12.67225729 -3 11 C-2.34 11 -1.68 11 -1 11 C-0.67 7.37 -0.34 3.74 0 0 Z " fill="#FEEFF0" transform="translate(508,303)"/>
<path d="M0 0 C0.33 0 0.66 0 1 0 C1.06991506 8.39805072 1.12301976 16.79597716 1.15543652 25.1942482 C1.17100523 29.09509915 1.19207974 32.99574907 1.22631836 36.89648438 C1.25922949 40.67016285 1.27691889 44.44364957 1.28463173 48.21746063 C1.29011891 49.64777387 1.30083163 51.07807819 1.31719017 52.50830841 C1.47967914 67.3216339 -0.40258521 79.03487501 -10.91796875 90 C-12.86820191 91.80620396 -14.86293935 93.42043343 -17 95 C-17.63035156 95.47308594 -18.26070312 95.94617188 -18.91015625 96.43359375 C-33.20074031 105.71283619 -54.13630604 103.47413064 -70.34765625 103.46875 C-72.9754604 103.4758675 -75.60326302 103.48356876 -78.23106384 103.49182129 C-83.71177501 103.50632647 -89.19237226 103.50705074 -94.6730957 103.50097656 C-100.96437915 103.49433149 -107.25507701 103.51725312 -113.54624182 103.55429029 C-119.65824775 103.58893526 -125.76998102 103.5953052 -131.88207817 103.59120178 C-134.45620916 103.59288237 -137.03034867 103.60242111 -139.6044178 103.62034607 C-173.20515762 103.82870684 -173.20515762 103.82870684 -187.27734375 91.96484375 C-189.07077527 89.91927447 -189.62640384 88.66261388 -190 86 C-187.03 85.505 -187.03 85.505 -184 85 C-183.896875 85.639375 -183.79375 86.27875 -183.6875 86.9375 C-183.460625 87.618125 -183.23375 88.29875 -183 89 C-182.01 89.33 -181.02 89.66 -180 90 C-180 90.99 -180 91.98 -180 93 C-179.4225 92.835 -178.845 92.67 -178.25 92.5 C-173.88491412 91.52998092 -170.97041182 92.23537253 -167 94 C-167 94.99 -167 95.98 -167 97 C-167.99 97.495 -167.99 97.495 -169 98 C-167.02 98.66 -165.04 99.32 -163 100 C-163 99.01 -163 98.02 -163 97 C-162.34 97 -161.68 97 -161 97 C-160.56118657 97.48742046 -160.12237314 97.97484093 -159.67026234 98.47703171 C-157.45797114 100.49422941 -156.23890316 100.37263618 -153.27580261 100.36749268 C-152.30430771 100.37306183 -151.33281281 100.37863098 -150.33187866 100.3843689 C-149.26740509 100.37515411 -148.20293152 100.36593933 -147.10620117 100.35644531 C-145.98398666 100.35848969 -144.86177216 100.36053406 -143.70555115 100.36264038 C-139.98452622 100.3656558 -136.26394126 100.34714445 -132.54296875 100.328125 C-129.96088267 100.32506794 -127.37879494 100.32319142 -124.79670715 100.32244873 C-119.37864476 100.31784048 -113.96073938 100.30378722 -108.54272461 100.28125 C-101.59877261 100.25242332 -94.65492281 100.24203042 -87.71091747 100.2375679 C-82.37578704 100.23400778 -77.04067928 100.22358642 -71.70556068 100.21169281 C-69.14551291 100.2059958 -66.58546288 100.20123522 -64.02541161 100.19742584 C-60.44422812 100.19054509 -56.86313645 100.17690269 -53.28198242 100.16113281 C-51.6943811 100.15945602 -51.6943811 100.15945602 -50.07470703 100.15774536 C-45.2731172 100.12976674 -40.71973899 100.00760906 -36 99 C-36 97.68 -36 96.36 -36 95 C-35.67 94.01 -35.34 93.02 -35 92 C-30.53991177 92 -26.52292578 92.20758539 -22.10546875 92.87890625 C-19.65494618 93.12470663 -19.65494618 93.12470663 -16 92 C-16 89.03 -16 86.06 -16 83 C-14.68 83.33 -13.36 83.66 -12 84 C-9.31850007 83.61432869 -9.31850007 83.61432869 -7 83 C-7.03480469 82.05898438 -7.06960938 81.11796875 -7.10546875 80.1484375 C-7.13253906 78.90320313 -7.15960938 77.65796875 -7.1875 76.375 C-7.22230469 75.14523437 -7.25710938 73.91546875 -7.29296875 72.6484375 C-6.97668791 68.70968677 -5.93830811 66.40192852 -4 63 C-3.31363375 60.76474965 -3.31363375 60.76474965 -3 59 C-2.34 59.33 -1.68 59.66 -1 60 C-0.505 30.3 -0.505 30.3 0 0 Z " fill="#FA3753" transform="translate(509,408)"/>
<path d="M0 0 C0.33 0 0.66 0 1 0 C1.06991506 8.39805072 1.12301976 16.79597716 1.15543652 25.1942482 C1.17100523 29.09509915 1.19207974 32.99574907 1.22631836 36.89648438 C1.25922949 40.67016285 1.27691889 44.44364957 1.28463173 48.21746063 C1.29011891 49.64777387 1.30083163 51.07807819 1.31719017 52.50830841 C1.47967914 67.3216339 -0.40258521 79.03487501 -10.91796875 90 C-18.95805469 97.44630714 -27.98300649 102.05812177 -39.0625 102.125 C-40.031875 102.08375 -41.00125 102.0425 -42 102 C-42 101.34 -42 100.68 -42 100 C-39.03 99.505 -39.03 99.505 -36 99 C-36 97.68 -36 96.36 -36 95 C-35.67 94.01 -35.34 93.02 -35 92 C-30.53991177 92 -26.52292578 92.20758539 -22.10546875 92.87890625 C-19.65494618 93.12470663 -19.65494618 93.12470663 -16 92 C-16 89.03 -16 86.06 -16 83 C-14.68 83.33 -13.36 83.66 -12 84 C-9.31850007 83.61432869 -9.31850007 83.61432869 -7 83 C-7.03480469 82.05898438 -7.06960938 81.11796875 -7.10546875 80.1484375 C-7.13253906 78.90320313 -7.15960938 77.65796875 -7.1875 76.375 C-7.23970703 74.53035156 -7.23970703 74.53035156 -7.29296875 72.6484375 C-6.97668791 68.70968677 -5.93830811 66.40192852 -4 63 C-3.31363375 60.76474965 -3.31363375 60.76474965 -3 59 C-2.01 59.495 -2.01 59.495 -1 60 C-0.67 40.2 -0.34 20.4 0 0 Z " fill="#F82842" transform="translate(509,408)"/>
<path d="M0 0 C1.32 0 2.64 0 4 0 C3.835 0.66 3.67 1.32 3.5 2 C2.59832116 7.41007305 2.10622436 11.88934123 4.6875 16.8125 C7.0616959 20.08504029 8.41950466 21.2734169 12 23 C19.41509967 23.97971524 27.30665413 23.57723704 34 20 C36.87685203 17.45911321 36.87685203 17.45911321 39 15 C39.66 15 40.32 15 41 15 C41 14.01 41 13.02 41 12 C41.66 12 42.32 12 43 12 C42.835 13.051875 42.67 14.10375 42.5 15.1875 C41.93769202 18.83424047 41.93769202 18.83424047 42 21.875 C42 22.57625 42 23.2775 42 24 C41.505 24.495 41.505 24.495 41 25 C41.495 26.485 41.495 26.485 42 28 C38.60972554 29.13009149 37.41451141 28.71989699 34 28 C32.10463073 27.95805545 30.20788184 27.95862741 28.3125 28 C23.22049287 28.11024643 23.22049287 28.11024643 21 27 C18.1335252 27.11546726 15.29604146 27.2806507 12.4375 27.5 C9.62138865 27.71504018 6.82330485 27.88223963 4 28 C3 27 3 27 2.90234375 25.15234375 C2.95117188 22.07617188 2.95117188 22.07617188 3 19 C2.05125 19.020625 1.1025 19.04125 0.125 19.0625 C-3 19 -3 19 -5 18 C-5 15.36 -5 12.72 -5 10 C-5.66 10 -6.32 10 -7 10 C-7 9.34 -7 8.68 -7 8 C-6.34 8 -5.68 8 -5 8 C-5.33 7.01 -5.66 6.02 -6 5 C-5.01 4.67 -4.02 4.34 -3 4 C-2.34 5.65 -1.68 7.3 -1 9 C-0.67 6.03 -0.34 3.06 0 0 Z " fill="#F52E47" transform="translate(345,454)"/>
<path d="M0 0 C1.64214465 0.92370637 3.28048082 1.8548651 4.8984375 2.8203125 C12.74953841 7.22743606 21.24910462 9.18946992 30 11 C30 11.33 30 11.66 30 12 C7.23 12 -15.54 12 -39 12 C-39 11.67 -39 11.34 -39 11 C-38.00097656 10.86722656 -37.00195312 10.73445313 -35.97265625 10.59765625 C-34.68230469 10.42105469 -33.39195312 10.24445313 -32.0625 10.0625 C-30.77472656 9.88847656 -29.48695313 9.71445312 -28.16015625 9.53515625 C-25.14533687 9.33837577 -25.14533687 9.33837577 -24 8 C-20.4850657 7.20425161 -16.95317965 6.51612157 -13.41796875 5.81640625 C-10.5602108 5.13381035 -8.57686551 4.29122762 -6 3 C-4.68 3 -3.36 3 -2 3 C-2 2.34 -2 1.68 -2 1 C-1.34 0.67 -0.68 0.34 0 0 Z " fill="#F7F7F9" transform="translate(322,500)"/>
<path d="M0 0 C1.18193436 -0.00029205 2.36386871 -0.00058411 3.58161926 -0.00088501 C7.44478995 0.00049587 11.30776191 0.0159982 15.17089844 0.03173828 C17.86659639 0.03659258 20.56229416 0.03841624 23.25799561 0.04031372 C29.60062928 0.04649699 35.94319291 0.06286447 42.28579593 0.0830127 C49.51446365 0.10547067 56.74313494 0.11638986 63.97182894 0.12640357 C78.82468145 0.14723401 93.67747279 0.18234772 108.53027344 0.22705078 C108.53027344 0.55705078 108.53027344 0.88705078 108.53027344 1.22705078 C107.96135156 1.23128272 107.39242968 1.23551466 106.80626774 1.23987484 C92.93334167 1.34338929 79.06046477 1.45211592 65.18762302 1.56639004 C58.47869596 1.62155862 51.76976359 1.67501276 45.06079102 1.72436523 C38.58334123 1.77218964 32.1059422 1.82453827 25.62855339 1.87999153 C23.16031093 1.90033341 20.6920546 1.91905956 18.22378731 1.9361248 C14.76022468 1.96035042 11.29675643 1.9903791 7.83325195 2.02172852 C6.81832672 2.02748398 5.80340149 2.03323944 4.75772095 2.03916931 C-1.05046595 2.09871878 -6.73747404 2.24011684 -12.46972656 3.22705078 C-13.12972656 4.21705078 -13.78972656 5.20705078 -14.46972656 6.22705078 C-15.21222656 6.00017578 -15.95472656 5.77330078 -16.71972656 5.53955078 C-19.49490332 4.9019309 -19.49490332 4.9019309 -21.34472656 6.66455078 C-24.363806 8.88446213 -26.82491964 8.4373281 -30.46972656 8.22705078 C-30.46972656 8.88705078 -30.46972656 9.54705078 -30.46972656 10.22705078 C-31.78972656 10.55705078 -33.10972656 10.88705078 -34.46972656 11.22705078 C-33.80972656 13.86705078 -33.14972656 16.50705078 -32.46972656 19.22705078 C-36.46972656 18.22705078 -36.46972656 18.22705078 -38.46972656 17.22705078 C-38.79972656 16.23705078 -39.12972656 15.24705078 -39.46972656 14.22705078 C-41.9260761 18.96429632 -43.78029772 22.79205552 -43.46972656 28.22705078 C-45.11972656 28.22705078 -46.76972656 28.22705078 -48.46972656 28.22705078 C-49.12597656 26.49658203 -49.12597656 26.49658203 -49.46972656 24.22705078 C-45.03769483 14.558788 -37.2287389 8.24266535 -28.02050781 3.48876953 C-18.95302169 0.26676951 -9.53424203 -0.06299431 0 0 Z " fill="#ED6981" transform="translate(361.4697265625,315.77294921875)"/>
<path d="M0 0 C1.32 0.66 2.64 1.32 4 2 C4 19.82 4 37.64 4 56 C3.67 56 3.34 56 3 56 C2.90203125 55.40574219 2.8040625 54.81148438 2.703125 54.19921875 C1.4919673 47.48564635 -0.55697763 41.35608852 -3 35 C-3.495 33.515 -3.495 33.515 -4 32 C-4.99 31.67 -5.98 31.34 -7 31 C-6.44894132 25.76494258 -5.5267813 21.05746306 -4 16 C-3.64628502 14.33753959 -3.30404678 12.67225729 -3 11 C-2.34 11 -1.68 11 -1 11 C-0.67 7.37 -0.34 3.74 0 0 Z " fill="#FEFBFC" transform="translate(508,303)"/>
<path d="M0 0 C0 16.17 0 32.34 0 49 C-0.33 49 -0.66 49 -1 49 C-1 33.16 -1 17.32 -1 1 C-11.395 2.485 -11.395 2.485 -22 4 C-23.65 4 -25.3 4 -27 4 C-26.505 5.98 -26.505 5.98 -26 8 C-24.865625 8.12375 -23.73125 8.2475 -22.5625 8.375 C-21.386875 8.58125 -20.21125 8.7875 -19 9 C-18.505 9.99 -18.505 9.99 -18 11 C-19.65614657 11.38218767 -21.32457024 11.71395102 -23 12 C-23.495 11.505 -23.495 11.505 -24 11 C-29.6047709 10.78673597 -29.6047709 10.78673597 -35 12 C-35 11.34 -35 10.68 -35 10 C-35.99 10.33 -36.98 10.66 -38 11 C-42.08594833 12.1865126 -45.76342394 12.14865179 -50 12 C-49.67 11.34 -49.34 10.68 -49 10 C-52.63 10.33 -56.26 10.66 -60 11 C-59.67 10.34 -59.34 9.68 -59 9 C-57.07666016 8.46923828 -57.07666016 8.46923828 -54.5390625 8.0703125 C-53.60126953 7.91667236 -52.66347656 7.76303223 -51.69726562 7.60473633 C-50.68341797 7.44642334 -49.66957031 7.28811035 -48.625 7.125 C-40.09858316 5.72634277 -31.64370584 4.16571037 -23.20556641 2.30712891 C-15.26238979 0.57151003 -8.27554067 0 0 0 Z " fill="#F8687C" transform="translate(449,378)"/>
<path d="M0 0 C-0.33 37.29 -0.66 74.58 -1 113 C-1.33 113 -1.66 113 -2 113 C-2.15405724 100.23023791 -2.30223654 87.46042233 -2.4429636 74.69050598 C-2.50849606 68.76059237 -2.57603408 62.83071588 -2.64819336 56.90087891 C-2.71778844 51.17564456 -2.78206585 45.45037269 -2.84269524 39.72503662 C-2.866725 37.54341473 -2.89265355 35.36181289 -2.92053413 33.18023682 C-2.95933023 30.11888763 -2.99130464 27.05753604 -3.02172852 23.99609375 C-3.03467453 23.09913284 -3.04762054 22.20217194 -3.06095886 21.2780304 C-3.10428375 16.08359966 -2.75943139 11.14049463 -2 6 C-2.44730469 6.39832031 -2.89460938 6.79664063 -3.35546875 7.20703125 C-10.20108457 13.20606771 -10.20108457 13.20606771 -14 15 C-14.99 14.67 -15.98 14.34 -17 14 C-15.38050958 12.49405319 -13.75424026 10.99539332 -12.125 9.5 C-11.22007812 8.6646875 -10.31515625 7.829375 -9.3828125 6.96875 C-7 5 -7 5 -5 5 C-5 4.34 -5 3.68 -5 3 C-1.42307692 0 -1.42307692 0 0 0 Z " fill="#9BCEE5" transform="translate(308,351)"/>
<path d="M0 0 C6.93 0 13.86 0 21 0 C21 0.99 21 1.98 21 3 C29.91 2.01 29.91 2.01 39 1 C35.99812293 4.00187707 32.32479358 3.92651603 28.2734375 4.5078125 C26.97921371 4.70333206 26.97921371 4.70333206 25.65884399 4.90280151 C22.89865845 5.31796115 20.1369262 5.72159953 17.375 6.125 C15.50509526 6.40419166 13.63530187 6.68413018 11.765625 6.96484375 C7.17833119 7.65190705 2.58961741 8.32864135 -2 9 C-2 8.34 -2 7.68 -2 7 C-1.34 7 -0.68 7 0 7 C0 4.69 0 2.38 0 0 Z " fill="#F84F69" transform="translate(406,345)"/>
<path d="M0 0 C0.33 0.99 0.66 1.98 1 3 C1.67291832 2.99723462 2.34583664 2.99446924 3.03914642 2.99162006 C19.43190788 2.92529384 35.8246267 2.87568718 52.21749115 2.84456348 C60.1450432 2.82911127 68.07250554 2.80805332 76 2.77368164 C82.91164795 2.74372877 89.82323091 2.72441304 96.73494196 2.71773452 C100.39280909 2.71383219 104.05049033 2.7046958 107.70829773 2.68280983 C111.79715126 2.65854443 115.88568402 2.65803378 119.97460938 2.65942383 C121.18014465 2.648638 122.38567993 2.63785217 123.62774658 2.6267395 C130.14729942 2.65070974 135.06552079 3.24556283 141 6 C137.78026306 7.07324565 137.16125834 6.95113794 134.05867004 6.0776825 C128.37559515 4.71655356 122.88158496 4.72680202 117.0612793 4.75708008 C115.89905853 4.75518173 114.73683777 4.75328339 113.53939819 4.75132751 C109.7176019 4.74763905 105.89599801 4.7582994 102.07421875 4.76953125 C99.40297669 4.7707246 96.73174255 4.77122658 94.0605011 4.7709198 C88.46812583 4.77185381 82.8758051 4.7804994 77.28344727 4.79418945 C70.84705438 4.80988898 64.41072123 4.81518814 57.97431058 4.8144539 C51.7502331 4.81384011 45.52617475 4.81897891 39.30210304 4.82724571 C36.6688632 4.83041359 34.03562164 4.83239536 31.40237999 4.83313942 C27.71052529 4.83532446 24.0187432 4.84411561 20.3269043 4.85473633 C19.25274765 4.85428314 18.178591 4.85382996 17.07188416 4.85336304 C10.00483377 4.88286655 3.03329614 5.31438543 -4 6 C-2.68 4.02 -1.36 2.04 0 0 Z " fill="#9EA9C5" transform="translate(341,312)"/>
<path d="M0 0 C2.64 0 5.28 0 8 0 C8.05058526 7.08411622 8.08568494 14.16818612 8.10986328 21.25244141 C8.11993954 23.66391744 8.13360081 26.07538122 8.15087891 28.48681641 C8.1750559 31.94697085 8.18646669 35.4069642 8.1953125 38.8671875 C8.20563507 39.95055389 8.21595764 41.03392029 8.22659302 42.15011597 C8.22674408 43.1510025 8.22689514 44.15188904 8.22705078 45.18310547 C8.231492 46.06690887 8.23593323 46.95071228 8.24050903 47.86129761 C8 50 8 50 6 52 C0.78555016 53.87720194 -3.54513151 54.19139889 -9 54 C-9.495 52.515 -9.495 52.515 -10 51 C-12.00016466 49.79117904 -12.00016466 49.79117904 -14 49 C-10.32431536 48.08107884 -8.83619425 48.04095144 -5 49 C-1.37 48.34 2.26 47.68 6 47 C6 32.15 6 17.3 6 2 C3.03 1.505 3.03 1.505 0 1 C0 0.67 0 0.34 0 0 Z " fill="#F7344E" transform="translate(440,379)"/>
<path d="M0 0 C2.64 0 5.28 0 8 0 C8 0.66 8 1.32 8 2 C8.99 2.33 9.98 2.66 11 3 C10.67 4.32 10.34 5.64 10 7 C6.19755532 8.1326431 2.45731367 9.11767512 -1.4375 9.875 C-5.39289383 10.71872735 -8.64970485 12.13872492 -12.17578125 14.09765625 C-14.09677247 15.04786818 -15.90972903 15.55241438 -18 16 C-19 10.25 -19 10.25 -19 8 C-12.73 7.67 -6.46 7.34 0 7 C0 4.69 0 2.38 0 0 Z " fill="#F6354E" transform="translate(367,437)"/>
<path d="M0 0 C-0.66 0.66 -1.32 1.32 -2 2 C-2.64767793 4.57061311 -2.64767793 4.57061311 -3 7 C-3.66 7 -4.32 7 -5 7 C-5 7.66 -5 8.32 -5 9 C-5.66 9 -6.32 9 -7 9 C-7 8.34 -7 7.68 -7 7 C-8.794375 7.2165625 -8.794375 7.2165625 -10.625 7.4375 C-11.71554687 7.56898438 -11.71554687 7.56898438 -12.828125 7.703125 C-14.68867186 7.95744435 -16.53494083 8.31267313 -18.375 8.6875 C-19.24125 8.790625 -20.1075 8.89375 -21 9 C-23 7 -23 7 -23.125 3.375 C-23.08375 2.26125 -23.0425 1.1475 -23 0 C-21.97519531 0.01160156 -20.95039063 0.02320313 -19.89453125 0.03515625 C-18.533856 0.04454022 -17.17317876 0.05363977 -15.8125 0.0625 C-15.13896484 0.07087891 -14.46542969 0.07925781 -13.77148438 0.08789062 C-10.82548826 0.10226134 -8.0920485 0.01861511 -5.19921875 -0.56640625 C-3 -1 -3 -1 0 0 Z " fill="#F72C46" transform="translate(448,464)"/>
<path d="M0 0 C0 0.99 0 1.98 0 3 C0.99 3.33 1.98 3.66 3 4 C3 4.99 3 5.98 3 7 C3.5775 6.835 4.155 6.67 4.75 6.5 C9.11508588 5.52998092 12.02958818 6.23537253 16 8 C16 8.99 16 9.98 16 11 C15.01 11.495 15.01 11.495 14 12 C14.99 12.33 15.98 12.66 17 13 C17 13.66 17 14.32 17 15 C7.92436467 13.86554558 0.44932077 10.56221917 -6 4 C-6.75390625 1.77734375 -6.75390625 1.77734375 -7 0 C-4.3333581 -1.33332095 -2.83319697 -0.67102033 0 0 Z " fill="#F42940" transform="translate(326,494)"/>
<path d="M0 0 C0.66 0 1.32 0 2 0 C2.03758423 1.5634314 2.03758423 1.5634314 2.07592773 3.15844727 C2.17154069 7.10042461 2.27135701 11.04228708 2.37231445 14.98413086 C2.41509183 16.67616044 2.45679438 18.3682176 2.49731445 20.06030273 C2.72986502 29.73842559 3.07978785 39.36340474 3.89868164 49.01147461 C3.9878724 51.64227953 3.81734505 53.52288594 3 56 C2.01 56 1.02 56 0 56 C0 37.52 0 19.04 0 0 Z " fill="#F93049" transform="translate(457,399)"/>
<path d="M0 0 C0.38747372 12.42068542 -0.79986875 24.65077713 -2 37 C-3.485 37.495 -3.485 37.495 -5 38 C-6.00556398 31.18451079 -6.09688583 24.82506739 -5 18 C-4.67 17.67 -4.34 17.34 -4 17 C-3.76340386 13.57498928 -3.60326028 10.15719432 -3.48242188 6.7265625 C-3.39089509 4.81313467 -3.20260148 2.90487161 -3 1 C-1 0 -1 0 0 0 Z " fill="#55BADF" transform="translate(512,265)"/>
<path d="M0 0 C0.66 1.32 1.32 2.64 2 4 C2.33 4.33 2.66 4.66 3 5 C3.15686249 6.55948542 3.25076639 8.12542668 3.31640625 9.69140625 C3.35830078 10.63564453 3.40019531 11.57988281 3.44335938 12.55273438 C3.48267578 13.54595703 3.52199219 14.53917969 3.5625 15.5625 C3.62727539 17.05813477 3.62727539 17.05813477 3.69335938 18.58398438 C3.79980298 21.0558415 3.90181928 23.5278031 4 26 C4.66 26 5.32 26 6 26 C6 28.97 6 31.94 6 35 C4.68 35 3.36 35 2 35 C1.67 32.69 1.34 30.38 1 28 C0.67 28 0.34 28 0 28 C0 18.76 0 9.52 0 0 Z " fill="#F9344E" transform="translate(388,419)"/>
<path d="M0 0 C3 1 3 1 3.9921875 2.86328125 C4.28351562 3.67152344 4.57484375 4.47976563 4.875 5.3125 C6.37491261 9.33341959 7.94798164 13.29914203 9.625 17.25 C11.26758352 21.1210567 12.70917486 24.99725782 14 29 C14.66 29 15.32 29 16 29 C16 29.99 16 30.98 16 32 C16.66 32 17.32 32 18 32 C18.83790789 33.78953185 19.67019396 35.58169695 20.5 37.375 C20.9640625 38.37273437 21.428125 39.37046875 21.90625 40.3984375 C23 43 23 43 23 45 C22.34 45 21.68 45 21 45 C20.32591692 43.73308493 19.66099503 42.46129251 19 41.1875 C18.443125 40.12595703 18.443125 40.12595703 17.875 39.04296875 C17 37 17 37 17 34 C16.34 34 15.68 34 15 34 C13.70326398 31.46080994 12.41252163 28.91885762 11.125 26.375 C10.57779297 25.30572266 10.57779297 25.30572266 10.01953125 24.21484375 C5 14.26704545 5 14.26704545 5 10 C4.34 9.67 3.68 9.34 3 9 C2.59270772 6.67843403 2.25561323 4.3431213 2 2 C1.34 2 0.68 2 0 2 C0 1.34 0 0.68 0 0 Z " fill="#8ACEE8" transform="translate(15,346)"/>
<path d="M0 0 C2 1 2 1 2.6328125 2.84765625 C2.87644531 3.94400391 2.87644531 3.94400391 3.125 5.0625 C3.29257812 5.79597656 3.46015625 6.52945312 3.6328125 7.28515625 C3.75398438 7.85105469 3.87515625 8.41695313 4 9 C1.83125748 8.49396008 0.00032373 8.00016187 -2 7 C-2.33 6.01 -2.66 5.02 -3 4 C-5.45634954 8.73724554 -7.31057116 12.56500474 -7 18 C-8.65 18 -10.3 18 -12 18 C-12.671875 16.28515625 -12.671875 16.28515625 -13 14 C-11.890625 11.74609375 -11.890625 11.74609375 -10.25 9.4375 C-9.71890625 8.67308594 -9.1878125 7.90867187 -8.640625 7.12109375 C-6.12344646 3.8667415 -3.89073818 1.5060922 0 0 Z " fill="#F95A71" transform="translate(325,326)"/>
<path d="M0 0 C0.99 0.33 1.98 0.66 3 1 C2.01 1.33 1.02 1.66 0 2 C-1.51617907 3.69863938 -1.51617907 3.69863938 -2 6 C-1.2884375 7.1446875 -1.2884375 7.1446875 -0.5625 8.3125 C1.5201261 11.89461689 0.85256866 14.04718167 0 18 C-1.65 18.66 -3.3 19.32 -5 20 C-6.84193854 16.31612293 -6.36231308 12.02993847 -6 8 C-4.52091164 4.68965938 -2.6773109 2.42232891 0 0 Z " fill="#FCFAFB" transform="translate(423,437)"/>
<path d="M0 0 C0.33 0 0.66 0 1 0 C1.33 15.84 1.66 31.68 2 48 C3.485 47.505 3.485 47.505 5 47 C3.79618552 49.49361571 2.54571278 51.68143083 1 54 C0.34 54 -0.32 54 -1 54 C-1 53.34 -1 52.68 -1 52 C-5.455 52.495 -5.455 52.495 -10 53 C-8 51 -8 51 -4.9375 50 C-1.87849194 49.34247444 -1.87849194 49.34247444 -1 47 C-0.88194823 45.4892243 -0.82303551 43.97361169 -0.79467773 42.45849609 C-0.77473251 41.51767181 -0.75478729 40.57684753 -0.73423767 39.60751343 C-0.71752518 38.58976837 -0.70081268 37.57202332 -0.68359375 36.5234375 C-0.6524221 34.96286118 -0.6524221 34.96286118 -0.62062073 33.37075806 C-0.55510128 30.03890751 -0.49622908 26.7069765 -0.4375 23.375 C-0.39431706 21.11978326 -0.35070285 18.86457473 -0.30664062 16.609375 C-0.19941748 11.07300236 -0.09765554 5.53654922 0 0 Z " fill="#FBE2E5" transform="translate(449,380)"/>
<path d="M0 0 C2.64 0 5.28 0 8 0 C8 0.66 8 1.32 8 2 C8.66 1.67 9.32 1.34 10 1 C11.87379605 0.92966231 13.75001102 0.9156978 15.625 0.9375 C17.12933594 0.95103516 17.12933594 0.95103516 18.6640625 0.96484375 C19.43492187 0.97644531 20.20578125 0.98804688 21 1 C21 1.33 21 1.66 21 2 C20.16021606 2.16604736 20.16021606 2.16604736 19.3034668 2.33544922 C16.76337823 2.84172841 14.22547661 3.35824231 11.6875 3.875 C10.80642578 4.04902344 9.92535156 4.22304688 9.01757812 4.40234375 C7.74624023 4.66337891 7.74624023 4.66337891 6.44921875 4.9296875 C5.66893311 5.08679199 4.88864746 5.24389648 4.0847168 5.40576172 C1.72270755 5.96432022 1.72270755 5.96432022 -1 8 C-1.66 7.67 -2.32 7.34 -3 7 C-3 6.34 -3 5.68 -3 5 C-2.34 5 -1.68 5 -1 5 C-0.67 3.35 -0.34 1.7 0 0 Z " fill="#F4536C" transform="translate(380,353)"/>
<path d="M0 0 C3.63 0 7.26 0 11 0 C11 0.99 11 1.98 11 3 C19.91 2.01 19.91 2.01 29 1 C26.3575074 3.6424926 24.57865459 3.55439422 20.8984375 4.0703125 C19.68671875 4.24433594 18.475 4.41835938 17.2265625 4.59765625 C15.95554687 4.77167969 14.68453125 4.94570313 13.375 5.125 C11.456875 5.39763672 11.456875 5.39763672 9.5 5.67578125 C6.33430681 6.12464819 3.16772046 6.56571065 0 7 C0.33 6.34 0.66 5.68 1 5 C3.5625 4.375 3.5625 4.375 6 4 C4.68 3.67 3.36 3.34 2 3 C2 2.34 2 1.68 2 1 C1.34 0.67 0.68 0.34 0 0 Z " fill="#F87B90" transform="translate(416,345)"/>
<path d="M0 0 C2.31 0 4.62 0 7 0 C7.19491452 1.45736087 7.38069358 2.91594593 7.5625 4.375 C7.66691406 5.18710937 7.77132813 5.99921875 7.87890625 6.8359375 C8 9 8 9 7 11 C5.1875 10.8125 5.1875 10.8125 3 10 C0.37665094 6.62712264 -0.36372697 4.24348127 0 0 Z " fill="#F42B45" transform="translate(312,482)"/>
<path d="M0 0 C0 3.74110761 -0.25884204 7.4560694 -0.5 11.1875 C-0.54769531 11.93708984 -0.59539062 12.68667969 -0.64453125 13.45898438 C-0.76217832 15.30604344 -0.88097771 17.15302904 -1 19 C-1.99 18.67 -2.98 18.34 -4 18 C-5.63186199 13.10441403 -5.83931781 8.75493725 -3.625 4.125 C-2 2 -2 2 0 0 Z " fill="#FBE7E8" transform="translate(352,452)"/>
<path d="M0 0 C-0.48578543 3.12290635 -0.9986012 5.99580359 -2 9 C-2.99 9.495 -2.99 9.495 -4 10 C-4.46751788 12.35599235 -4.46751788 12.35599235 -4.625 15.0625 C-4.69976562 15.98160156 -4.77453125 16.90070313 -4.8515625 17.84765625 C-4.90054687 18.55792969 -4.94953125 19.26820313 -5 20 C-5.33 20 -5.66 20 -6 20 C-6 14.39 -6 8.78 -6 3 C-7.32 2.67 -8.64 2.34 -10 2 C-6.5980513 -0.09350689 -3.94727588 -0.17942163 0 0 Z " fill="#F75369" transform="translate(464,344)"/>
<path d="M0 0 C0.804375 0.185625 1.60875 0.37125 2.4375 0.5625 C2.953125 0.706875 3.46875 0.85125 4 1 C0.7394904 4.2605096 -2.89083745 4.05467405 -7.3125 4.0625 C-9.1378125 4.0315625 -9.1378125 4.0315625 -11 4 C-10.67 3.34 -10.34 2.68 -10 2 C-13.63 2.33 -17.26 2.66 -21 3 C-20.67 2.34 -20.34 1.68 -20 1 C-13.31447623 -0.6568472 -6.73735102 -1.57682684 0 0 Z " fill="#F95E75" transform="translate(410,386)"/>
<path d="M0 0 C7.70600303 -0.48162519 13.55951766 1.77343347 20 6 C19.360625 6.12375 18.72125 6.2475 18.0625 6.375 C17.381875 6.58125 16.70125 6.7875 16 7 C15.67 7.66 15.34 8.32 15 9 C14.34 9 13.68 9 13 9 C12.67 7.35 12.34 5.7 12 4 C10.35 3.67 8.7 3.34 7 3 C6.67 3.99 6.34 4.98 6 6 C5.01 5.67 4.02 5.34 3 5 C3 3.68 3 2.36 3 1 C2.01 0.67 1.02 0.34 0 0 Z " fill="#EE617D" transform="translate(470,317)"/>
<path d="M0 0 C0.66 0 1.32 0 2 0 C2.12117188 0.72445312 2.24234375 1.44890625 2.3671875 2.1953125 C3.08908289 6.3600936 3.78624444 10.35873332 5.125 14.375 C6.02699215 17.08097645 6.16651765 19.16919988 6 22 C4.68 22 3.36 22 2 22 C1.34 14.74 0.68 7.48 0 0 Z " fill="#76C6E5" transform="translate(502,185)"/>
<path d="M0 0 C0.66 0 1.32 0 2 0 C2 0.99 2 1.98 2 3 C0.02 3.33 -1.96 3.66 -4 4 C-4 4.99 -4 5.98 -4 7 C-10.5 10 -10.5 10 -15 10 C-14.67 8.68 -14.34 7.36 -14 6 C-12.02 5.67 -10.04 5.34 -8 5 C-8 4.34 -8 3.68 -8 3 C-5.36 2.67 -2.72 2.34 0 2 C0 1.34 0 0.68 0 0 Z " fill="#44B3DD" transform="translate(164,15)"/>
<path d="M0 0 C1.49009981 3.89718412 0.45921197 6.60949191 -0.75 10.5 C-2.70011927 16.95977008 -4.41459692 23.44219634 -6 30 C-6.33 30 -6.66 30 -7 30 C-6.85805236 27.93722893 -6.71127784 25.87478969 -6.5625 23.8125 C-6.48128906 22.66394531 -6.40007813 21.51539063 -6.31640625 20.33203125 C-6.04596188 17.48401829 -5.62478253 14.78789518 -5 12 C-4.34 12 -3.68 12 -3 12 C-2.87625 11.319375 -2.7525 10.63875 -2.625 9.9375 C-1.90899123 6.5722588 -0.97054875 3.29986575 0 0 Z " fill="#34ADDA" transform="translate(15,171)"/>
<path d="M0 0 C0.33 0.66 0.66 1.32 1 2 C-1.61813837 7.23627675 -4.81687069 12.09379538 -10.3125 14.375 C-11.199375 14.58125 -12.08625 14.7875 -13 15 C-11.7260411 12.96166576 -10.38938077 10.96147874 -9 9 C-8.34 9 -7.68 9 -7 9 C-6.773125 8.2575 -6.54625 7.515 -6.3125 6.75 C-4.75592468 3.48860409 -2.91481146 2.07105025 0 0 Z " fill="#5DBDE1" transform="translate(70,79)"/>
<path d="M0 0 C0 0.66 0 1.32 0 2 C3.3 2.33 6.6 2.66 10 3 C9.67 3.66 9.34 4.32 9 5 C5.04 4.67 1.08 4.34 -3 4 C-3 3.34 -3 2.68 -3 2 C-3.639375 2.185625 -4.27875 2.37125 -4.9375 2.5625 C-9.07334611 3.15333516 -12.8851173 2.58271759 -17 2 C-17 1.67 -17 1.34 -17 1 C-11.30494264 0.3583034 -5.73266804 -0.12462322 0 0 Z " fill="#34ADDA" transform="translate(284,1)"/>
<path d="M0 0 C0.33 0.99 0.66 1.98 1 3 C-3.31900631 4.58012426 -7.4029922 5.64638402 -12 6 C-12.66 5.34 -13.32 4.68 -14 4 C-9.10274567 0.87119862 -5.78901746 -0.16080604 0 0 Z " fill="#4CB6DE" transform="translate(195,7)"/>
<path d="M0 0 C-0.32537746 3.03685633 -0.95236726 3.95633666 -3.25 6.0625 C-8.44444444 9.72222222 -8.44444444 9.72222222 -11 11 C-11.99 10.67 -12.98 10.34 -14 10 C-12.37744772 8.51814875 -10.75188112 7.03959744 -9.125 5.5625 C-8.22007812 4.73878906 -7.31515625 3.91507812 -6.3828125 3.06640625 C-2.84688091 0 -2.84688091 0 0 0 Z " fill="#72C5E4" transform="translate(305,355)"/>
<path d="M0 0 C0.66 0.33 1.32 0.66 2 1 C1.50628906 1.48210937 1.01257813 1.96421875 0.50390625 2.4609375 C-0.45708984 3.40839844 -0.45708984 3.40839844 -1.4375 4.375 C-2.07558594 5.00148438 -2.71367188 5.62796875 -3.37109375 6.2734375 C-5.07882176 7.91723061 -5.07882176 7.91723061 -6 10 C-6.66 10 -7.32 10 -8 10 C-8.2475 10.598125 -8.495 11.19625 -8.75 11.8125 C-10.16370012 14.28647521 -11.65055383 15.43370255 -14 17 C-13.67 15.35 -13.34 13.7 -13 12 C-12.01 11.67 -11.02 11.34 -10 11 C-9.67 10.01 -9.34 9.02 -9 8 C-7.36395804 6.62926214 -5.69321939 5.29944744 -4 4 C-2.64852862 2.68505488 -1.30887458 1.35735142 0 0 Z " fill="#33ADDA" transform="translate(84,67)"/>
<path d="M0 0 C0.66 0 1.32 0 2 0 C4.14517925 3.47035825 4.17412457 6.04785878 3.9765625 10.078125 C3.925 11.23828125 3.8734375 12.3984375 3.8203125 13.59375 C3.75585938 14.8003125 3.69140625 16.006875 3.625 17.25 C3.56828125 18.47203125 3.5115625 19.6940625 3.453125 20.953125 C3.31173944 23.9693502 3.16033265 26.9847323 3 30 C2.67 30 2.34 30 2 30 C2 22.41 2 14.82 2 7 C1.34 7 0.68 7 0 7 C0 4.69 0 2.38 0 0 Z " fill="#56BADF" transform="translate(407,157)"/>
<path d="M0 0 C1.27063455 3.81190364 0.48509337 5.33917032 -0.75 9.125 C-1.12125 10.27613281 -1.4925 11.42726562 -1.875 12.61328125 C-2.24625 13.73089844 -2.6175 14.84851563 -3 16 C-3.309375 16.94230469 -3.61875 17.88460937 -3.9375 18.85546875 C-4.61581101 20.90670735 -5.30640018 22.95388053 -6 25 C-6.66 24.67 -7.32 24.34 -8 24 C-6.03543695 15.68838709 -3.48533251 7.8005061 0 0 Z " fill="#84CCE7" transform="translate(18,158)"/>
<path d="M0 0 C3.36179774 1.44077046 5.59156268 3.24750021 8 6 C8 6.66 8 7.32 8 8 C5.36 8 2.72 8 0 8 C-0.79953138 4.71303767 -1.09658936 3.28976808 0 0 Z " fill="#F8304B" transform="translate(416,456)"/>
<path d="M0 0 C0.99 0.33 1.98 0.66 3 1 C4.700773 7.73281213 5.10765663 13.13252891 4 20 C3.67 20 3.34 20 3 20 C2.49395076 17.60530271 1.99500483 15.20948283 1.5 12.8125 C1.28537109 11.80219727 1.28537109 11.80219727 1.06640625 10.77148438 C0.31930158 7.12490207 -0.17352282 3.72351043 0 0 Z " fill="#56BADF" transform="translate(241,202)"/>
<path d="M0 0 C0.33 1.32 0.66 2.64 1 4 C-0.8253125 4.2165625 -0.8253125 4.2165625 -2.6875 4.4375 C-5.82670377 4.82780953 -8.9075134 5.32351856 -12 6 C-12.33 5.01 -12.66 4.02 -13 3 C-11.58603098 2.49242138 -10.16868271 1.99425075 -8.75 1.5 C-7.96109375 1.2215625 -7.1721875 0.943125 -6.359375 0.65625 C-4 0 -4 0 0 0 Z " fill="#59BBE0" transform="translate(215,2)"/>
<path d="M0 0 C2.31 0 4.62 0 7 0 C6.67 0.99 6.34 1.98 6 3 C3.79355164 3.36572637 1.58471965 3.71708834 -0.625 4.0625 C-2.46964844 4.35833984 -2.46964844 4.35833984 -4.3515625 4.66015625 C-7.84573059 4.98563015 -10.59044235 4.75010268 -14 4 C-12 2 -12 2 -9.1796875 1.8046875 C-8.08914063 1.82789063 -6.99859375 1.85109375 -5.875 1.875 C-4.77929688 1.89304687 -3.68359375 1.91109375 -2.5546875 1.9296875 C-1.71164062 1.95289063 -0.86859375 1.97609375 0 2 C0 1.34 0 0.68 0 0 Z " fill="#F64E68" transform="translate(442,343)"/>
<path d="M0 0 C1.09641124 2.75064575 1.09988998 3.76353318 -0.07421875 6.54296875 C-0.60660156 7.41566406 -1.13898438 8.28835938 -1.6875 9.1875 C-2.46673828 10.50814453 -2.46673828 10.50814453 -3.26171875 11.85546875 C-5.16164014 14.19941672 -6.0570014 14.67300016 -9 15 C-7.61219205 11.10993227 -5.7847773 8.03441292 -3.375 4.6875 C-2.74335938 3.80449219 -2.11171875 2.92148437 -1.4609375 2.01171875 C-0.97882813 1.34785156 -0.49671875 0.68398438 0 0 Z " fill="#52B8DE" transform="translate(372,270)"/>
<path d="M0 0 C6.70459519 4.11378556 6.70459519 4.11378556 7.9375 7.8125 C7.958125 8.534375 7.97875 9.25625 8 10 C8.66 10 9.32 10 10 10 C10.99 11.98 11.98 13.96 13 16 C12.01 16 11.02 16 10 16 C8.95107762 14.36368108 7.95093297 12.69514137 7 11 C6.34 10.67 5.68 10.34 5 10 C3.98133771 8.34467377 2.98189187 6.67739862 2 5 C1.34 4.34 0.68 3.68 0 3 C0 2.01 0 1.02 0 0 Z " fill="#33ADDA" transform="translate(449,90)"/>
<path d="M0 0 C0.66 0 1.32 0 2 0 C1.835 1.051875 1.67 2.10375 1.5 3.1875 C1.10430322 6.20468796 0.90821029 8.97093972 1 12 C0.34 12 -0.32 12 -1 12 C-1 11.34 -1 10.68 -1 10 C-2.32 10.33 -3.64 10.66 -5 11 C-4.1875 7.5625 -4.1875 7.5625 -3 4 C-2.01 3.67 -1.02 3.34 0 3 C0 2.01 0 1.02 0 0 Z " fill="#FA2D45" transform="translate(386,466)"/>
<path d="M0 0 C0.99 0.33 1.98 0.66 3 1 C3 1.66 3 2.32 3 3 C3.99 3.33 4.98 3.66 6 4 C6 4.66 6 5.32 6 6 C6.99 6.33 7.98 6.66 9 7 C9 7.66 9 8.32 9 9 C5.49588735 8.6814443 3.4159895 8.30932553 0.5625 6.1875 C-1 4 -1 4 -0.75 1.75 C-0.5025 1.1725 -0.255 0.595 0 0 Z " fill="#69C1E3" transform="translate(426,64)"/>
<path d="M0 0 C0 0.66 0 1.32 0 2 C-0.99 2 -1.98 2 -3 2 C-3.12375 2.78375 -3.2475 3.5675 -3.375 4.375 C-5 7 -5 7 -7.359375 7.77734375 C-9.90202904 8.26935449 -12.43002979 8.68230996 -15 9 C-15 8.34 -15 7.68 -15 7 C-13.68 6.67 -12.36 6.34 -11 6 C-11 5.34 -11 4.68 -11 4 C-9.02 3.67 -7.04 3.34 -5 3 C-5 2.34 -5 1.68 -5 1 C-2 0 -2 0 0 0 Z " fill="#79C8E5" transform="translate(148,23)"/>
<path d="M0 0 C5.28 0.66 10.56 1.32 16 2 C16 2.66 16 3.32 16 4 C9.525862 5.27170568 6.02341941 4.68902652 0 2 C0 1.34 0 0.68 0 0 Z " fill="#55BADF" transform="translate(168,496)"/>
<path d="M0 0 C3.1473561 3.45678717 3.93071996 7.0909558 4.75 11.5625 C4.88792969 12.23474609 5.02585937 12.90699219 5.16796875 13.59960938 C5.79945279 16.87746728 6.07294607 18.78116179 5 22 C3.54180681 17.80927958 2.3693173 13.63627373 1.375 9.3125 C0.98441406 7.63607422 0.98441406 7.63607422 0.5859375 5.92578125 C0 3 0 3 0 0 Z " fill="#81CBE7" transform="translate(4,305)"/>
<path d="M0 0 C1.83553796 2.75330694 2.40778129 4.11657204 3.0703125 7.23046875 C3.24433594 8.03291016 3.41835937 8.83535156 3.59765625 9.66210938 C3.77167969 10.49548828 3.94570312 11.32886719 4.125 12.1875 C4.30675781 13.03248047 4.48851562 13.87746094 4.67578125 14.74804688 C5.12292753 16.8308072 5.56222376 18.91525006 6 21 C2.32010287 18.55421471 1.23817848 16.73707759 0.3046875 12.33984375 C-0.2307331 8.22808815 -0.15257428 4.1364583 0 0 Z " fill="#5EBDE0" transform="translate(185,301)"/>
<path d="M0 0 C0.99 0 1.98 0 3 0 C3.3125 2.75 3.3125 2.75 3 6 C0.625 8.375 0.625 8.375 -2 10 C-2.66 10 -3.32 10 -4 10 C-2.66666667 6.66666667 -1.33333333 3.33333333 0 0 Z " fill="#5CBDE1" transform="translate(36,121)"/>
<path d="M0 0 C0.99 0.33 1.98 0.66 3 1 C3.12117187 1.69867188 3.24234375 2.39734375 3.3671875 3.1171875 C3.53476563 4.02726562 3.70234375 4.93734375 3.875 5.875 C4.03742188 6.77992188 4.19984375 7.68484375 4.3671875 8.6171875 C4.83044703 11.16505988 4.83044703 11.16505988 7 13 C7.26991906 15.68839385 7.08737357 18.29141936 7 21 C4.16993233 18.16993233 3.81270038 14.84616097 2.9375 11.0625 C1.63174219 5.48673629 1.63174219 5.48673629 0 0 Z " fill="#33ADDA" transform="translate(173,268)"/>
<path d="M0 0 C0.99 0 1.98 0 3 0 C3 3.96 3 7.92 3 12 C3.99 11.67 4.98 11.34 6 11 C5.67 12.98 5.34 14.96 5 17 C4.67 15.68 4.34 14.36 4 13 C3.34 13 2.68 13 2 13 C1.66127487 11.58461283 1.32925376 10.16762037 1 8.75 C0.814375 7.96109375 0.62875 7.1721875 0.4375 6.359375 C0 4 0 4 0 0 Z " fill="#59BBE0" transform="translate(252,256)"/>
<path d="M0 0 C0.99 0.33 1.98 0.66 3 1 C4.0712828 7.02596573 4.09945415 12.88909517 4 19 C3.34 18.67 2.68 18.34 2 18 C2.04125 17.071875 2.0825 16.14375 2.125 15.1875 C2.1462373 10.0268365 1.02043018 5.03837402 0 0 Z " fill="#31ACDA" transform="translate(316,198)"/>
<path d="M0 0 C0.66 0 1.32 0 2 0 C1.979375 0.763125 1.95875 1.52625 1.9375 2.3125 C1.87057159 5.10185786 1.87057159 5.10185786 3 8 C1.625 9.5 1.625 9.5 0 11 C-0.66 11 -1.32 11 -2 11 C-2.25 3.375 -2.25 3.375 0 0 Z " fill="#F7465D" transform="translate(391,388)"/>
<path d="M0 0 C0.33 0.99 0.66 1.98 1 3 C6.28 3 11.56 3 17 3 C17 3.33 17 3.66 17 4 C14.43795456 4.33719047 11.87545682 4.66987153 9.3125 5 C8.59126953 5.09539062 7.87003906 5.19078125 7.12695312 5.2890625 C3.39007129 5.76683735 -0.22291531 6.11919794 -4 6 C-2.68 4.02 -1.36 2.04 0 0 Z " fill="#8ABDDA" transform="translate(341,312)"/>
<path d="M0 0 C-5.27377728 2.92987626 -10.02749309 3.11710798 -16 3 C-16 2.34 -16 1.68 -16 1 C-10.26696495 -0.57300962 -5.84340558 -1.24327778 0 0 Z " fill="#FB2E47" transform="translate(483,507)"/>
<path d="M0 0 C0.99 0.33 1.98 0.66 3 1 C2.01 1.33 1.02 1.66 0 2 C-1.10836423 3.88316159 -1.10836423 3.88316159 -2 6 C-2.99 7.485 -2.99 7.485 -4 9 C-4.45394552 11.27912938 -4.45394552 11.27912938 -4.625 13.6875 C-4.69976562 14.49574219 -4.77453125 15.30398438 -4.8515625 16.13671875 C-4.90054687 16.75160156 -4.94953125 17.36648438 -5 18 C-5.33 18 -5.66 18 -6 18 C-6.55839416 7.34914842 -6.55839416 7.34914842 -3 3 C-1.3125 1.1875 -1.3125 1.1875 0 0 Z " fill="#FBDCDB" transform="translate(423,437)"/>
<path d="M0 0 C3.16115776 1.36983503 3.9927092 1.9890638 6 5 C4.625 7 4.625 7 3 9 C2.34 9 1.68 9 1 9 C0.855625 8.21625 0.71125 7.4325 0.5625 6.625 C0.12201075 4.03578982 0.12201075 4.03578982 -1 2 C-0.67 1.34 -0.34 0.68 0 0 Z " fill="#F35972" transform="translate(493,326)"/>
<path d="M0 0 C0.99 0.33 1.98 0.66 3 1 C-0.57469625 4.57469625 -5.02894421 4.96917283 -9.9375 5.125 C-10.948125 5.08375 -11.95875 5.0425 -13 5 C-13 4.67 -13 4.34 -13 4 C-11.35 4 -9.7 4 -8 4 C-7.67 3.01 -7.34 2.02 -7 1 C-4.69 1.33 -2.38 1.66 0 2 C0 1.34 0 0.68 0 0 Z " fill="#73C6E5" transform="translate(311,503)"/>
<path d="M0 0 C0.99 0.33 1.98 0.66 3 1 C3 1.99 3 2.98 3 4 C4.32 4.33 5.64 4.66 7 5 C7 5.66 7 6.32 7 7 C8.32 7.33 9.64 7.66 11 8 C10.67 8.66 10.34 9.32 10 10 C7.03 8.35 4.06 6.7 1 5 C1 4.34 1 3.68 1 3 C0.34 3 -0.32 3 -1 3 C-0.67 2.01 -0.34 1.02 0 0 Z " fill="#66C0E2" transform="translate(110,464)"/>
<path d="M0 0 C0.66 0 1.32 0 2 0 C2.19335938 0.68707031 2.38671875 1.37414062 2.5859375 2.08203125 C2.97652344 3.43361328 2.97652344 3.43361328 3.375 4.8125 C3.63023438 5.70582031 3.88546875 6.59914063 4.1484375 7.51953125 C4.95266661 10.20467896 4.95266661 10.20467896 7 13 C6.625 15.1875 6.625 15.1875 6 17 C4.99063464 14.921188 3.99282154 12.8367638 3 10.75 C2.443125 9.58984375 1.88625 8.4296875 1.3125 7.234375 C0 4 0 4 0 0 Z " fill="#32ACDA" transform="translate(18,346)"/>
<path d="M0 0 C3.65235744 2.66523381 5.85974443 5.02523965 8 9 C8.99 10.485 8.99 10.485 10 12 C9.01 12 8.02 12 7 12 C3 7.65714286 3 7.65714286 3 5 C2.34 5 1.68 5 1 5 C0.67 3.35 0.34 1.7 0 0 Z " fill="#89CEE8" transform="translate(456,95)"/>
<path d="M0 0 C0.66 0 1.32 0 2 0 C3.32 5.28 4.64 10.56 6 16 C5.34 16 4.68 16 4 16 C3.32586789 14.08594633 2.6609668 12.16863974 2 10.25 C1.62875 9.18265625 1.2575 8.1153125 0.875 7.015625 C0 4 0 4 0 0 Z " fill="#86CDE7" transform="translate(10,329)"/>
<path d="M0 0 C1.73694677 2.60542016 2.69100448 4.58342775 3.6875 7.5 C3.95949219 8.2734375 4.23148438 9.046875 4.51171875 9.84375 C5 12 5 12 4 15 C4 14.34 4 13.68 4 13 C3.34 13 2.68 13 2 13 C1.46605821 11.5882217 0.94834896 10.17029756 0.4375 8.75 C0.14746094 7.96109375 -0.14257812 7.1721875 -0.44140625 6.359375 C-1.04522837 3.80896548 -0.8473932 2.44677771 0 0 Z " fill="#34ADDA" transform="translate(13,330)"/>
<path d="M0 0 C1.22357035 3.67071105 0.62076669 4.53394752 -0.875 8 C-2.00802398 10.6622102 -3.08438098 13.25314293 -4 16 C-4.99 15.67 -5.98 15.34 -7 15 C-6.34 14.67 -5.68 14.34 -5 14 C-4.87625 12.96875 -4.7525 11.9375 -4.625 10.875 C-3.8910027 6.32421671 -2.44076136 3.85797763 0 0 Z " fill="#9CD5EB" transform="translate(25,142)"/>
<path d="M0 0 C-3.06532816 2.04355211 -4.38354689 2.38658825 -7.9375 2.75 C-8.79214844 2.84796875 -9.64679688 2.9459375 -10.52734375 3.046875 C-13.23766556 2.99549449 -14.70187794 2.38633814 -17 1 C-16.06027344 0.90912109 -16.06027344 0.90912109 -15.1015625 0.81640625 C-13.87566406 0.69072266 -13.87566406 0.69072266 -12.625 0.5625 C-11.81289063 0.48128906 -11.00078125 0.40007812 -10.1640625 0.31640625 C-3.4214876 -0.66942149 -3.4214876 -0.66942149 0 0 Z " fill="#F62A44" transform="translate(373,444)"/>
<path d="M0 0 C2.72168665 3.17530109 4.85559053 5.94254825 6 10 C5.625 12.3125 5.625 12.3125 5 14 C4.54625 13.071875 4.0925 12.14375 3.625 11.1875 C2.0578367 7.96078611 2.0578367 7.96078611 0 5 C-0.125 2.3125 -0.125 2.3125 0 0 Z " fill="#F96F88" transform="translate(503,335)"/>
<path d="M0 0 C2.73905337 3.15178744 3.55269393 5.64817614 4.1875 9.75 C4.34605469 10.73484375 4.50460938 11.7196875 4.66796875 12.734375 C4.77753906 13.48203125 4.88710937 14.2296875 5 15 C4.34 15 3.68 15 3 15 C3 13.02 3 11.04 3 9 C2.34 9 1.68 9 1 9 C0.67 6.03 0.34 3.06 0 0 Z " fill="#36AEDA" transform="translate(163,228)"/>
<path d="M0 0 C6.70909091 2.60909091 6.70909091 2.60909091 9 4 C9.33 4.99 9.66 5.98 10 7 C8.68 7.33 7.36 7.66 6 8 C5.67 7.01 5.34 6.02 5 5 C2.49552484 3.78130071 2.49552484 3.78130071 0 3 C0 2.01 0 1.02 0 0 Z " fill="#65C0E2" transform="translate(388,36)"/>
<path d="M0 0 C2 1 2 1 2.88671875 3.36328125 C3.15097656 4.33652344 3.41523438 5.30976563 3.6875 6.3125 C3.95949219 7.27800781 4.23148438 8.24351562 4.51171875 9.23828125 C4.99152353 11.95205711 4.90721887 13.43665005 4 16 C3.67 15.01 3.34 14.02 3 13 C2.34 12.67 1.68 12.34 1 12 C0.5859375 9.27734375 0.5859375 9.27734375 0.375 5.9375 C0.30023438 4.83277344 0.22546875 3.72804687 0.1484375 2.58984375 C0.09945312 1.73519531 0.05046875 0.88054687 0 0 Z " fill="#84CCE6" transform="translate(166,233)"/>
<path d="M0 0 C0 3 0 3 -1.75 5.04296875 C-2.4925 5.75066406 -3.235 6.45835937 -4 7.1875 C-4.7425 7.90292969 -5.485 8.61835938 -6.25 9.35546875 C-7.11625 10.16951172 -7.11625 10.16951172 -8 11 C-8.66 10.67 -9.32 10.34 -10 10 C-8.90033225 8.70450101 -7.79508199 7.41373929 -6.6875 6.125 C-6.07261719 5.40570313 -5.45773437 4.68640625 -4.82421875 3.9453125 C-3 2 -3 2 0 0 Z " fill="#D7EEF7" transform="translate(310,140)"/>
<path d="M0 0 C0.99 0.495 0.99 0.495 2 1 C3.47180796 5.82425944 4.25376143 9.92477148 4 15 C2.23537317 11.91190305 2 10.76687864 2 7 C1.34 7 0.68 7 0 7 C0 4.69 0 2.38 0 0 Z " fill="#31ACDA" transform="translate(182,296)"/>
<path d="M0 0 C-0.185625 0.78375 -0.37125 1.5675 -0.5625 2.375 C-1.25962266 4.97089775 -1.25962266 4.97089775 0 7 C-2.97 6.505 -2.97 6.505 -6 6 C-6 5.01 -6 4.02 -6 3 C-2.66666667 0 -2.66666667 0 0 0 Z " fill="#F42A45" transform="translate(455,457)"/>
<path d="M0 0 C3.59930552 2.62652025 6.07666989 4.93963643 8 9 C7.67 9.66 7.34 10.32 7 11 C5.0625 10.3125 5.0625 10.3125 3 9 C2.25 6.375 2.25 6.375 2 4 C1.01 4.495 1.01 4.495 0 5 C0 3.35 0 1.7 0 0 Z " fill="#5EBDE0" transform="translate(151,204)"/>
<path d="M0 0 C5.09659478 2.54829739 5.10871914 3.89354167 7 9 C5.68 9.33 4.36 9.66 3 10 C2.01 6.7 1.02 3.4 0 0 Z " fill="#67C1E2" transform="translate(104,196)"/>
<path d="M0 0 C0.66 0 1.32 0 2 0 C2 0.99 2 1.98 2 3 C-2.95 4.485 -2.95 4.485 -8 6 C-8 5.01 -8 4.02 -8 3 C-5.36 2.67 -2.72 2.34 0 2 C0 1.34 0 0.68 0 0 Z " fill="#82CBE7" transform="translate(164,15)"/>
<path d="M0 0 C0.33 0.66 0.66 1.32 1 2 C1.66 2.33 2.32 2.66 3 3 C4.0409066 4.64142963 5.04504326 6.30712215 6 8 C4.68 7.67 3.36 7.34 2 7 C2 6.34 2 5.68 2 5 C0.68 4.67 -0.64 4.34 -2 4 C-2 3.34 -2 2.68 -2 2 C-1.34 2 -0.68 2 0 2 C0 1.34 0 0.68 0 0 Z " fill="#7BC8E6" transform="translate(466,108)"/>
<path d="M0 0 C0.33 0.66 0.66 1.32 1 2 C-0.1875 4.625 -0.1875 4.625 -2 7 C-3.32 7 -4.64 7 -6 7 C-4.77065985 3.31197956 -3.06140622 2.27643027 0 0 Z " fill="#71C5E4" transform="translate(70,79)"/>
<path d="M0 0 C0.33 0.66 0.66 1.32 1 2 C0.0625 4.125 0.0625 4.125 -1 6 C-0.34 6.33 0.32 6.66 1 7 C-1.97 6.67 -4.94 6.34 -8 6 C-7.01 5.34 -6.02 4.68 -5 4 C-3.32576317 2.67618483 -1.65788785 1.34423339 0 0 Z " fill="#F3415A" transform="translate(382,471)"/>
<path d="M0 0 C2.56616632 3.84924948 2.55097676 6.4349304 3 11 C2.34 11 1.68 11 1 11 C-0.62950412 6.87831311 -1.26264601 4.29299643 0 0 Z " fill="#35AEDA" transform="translate(190,323)"/>
<path d="M0 0 C1 3 1 3 -0.1875 6 C-1.91646162 8.86172959 -3.19955455 10.26179248 -6 12 C-5.67 10.35 -5.34 8.7 -5 7 C-4.34 7 -3.68 7 -3 7 C-2.690625 6.030625 -2.38125 5.06125 -2.0625 4.0625 C-1 1 -1 1 0 0 Z " fill="#31ACD9" transform="translate(388,247)"/>
<path d="M0 0 C0.66 0 1.32 0 2 0 C0.62845496 2.95409701 -0.98863724 5.44008376 -3 8 C-3.99 7.67 -4.98 7.34 -6 7 C-5.04882866 5.8274869 -4.08882991 4.66212985 -3.125 3.5 C-2.59132813 2.8503125 -2.05765625 2.200625 -1.5078125 1.53125 C-0.76144531 0.77328125 -0.76144531 0.77328125 0 0 Z " fill="#36AEDA" transform="translate(306,140)"/>
<path d="M0 0 C0.33 0.99 0.66 1.98 1 3 C0.00390625 4.82421875 0.00390625 4.82421875 -1.4375 6.6875 C-1.91058594 7.31011719 -2.38367187 7.93273437 -2.87109375 8.57421875 C-3.24363281 9.04472656 -3.61617187 9.51523438 -4 10 C-5 7 -5 7 -4.25 4.4375 C-3 2 -3 2 0 0 Z " fill="#37AEDA" transform="translate(35,129)"/>
<path d="M0 0 C0.99 0.33 1.98 0.66 3 1 C3 1.66 3 2.32 3 3 C4.32 3.66 5.64 4.32 7 5 C6.67 5.66 6.34 6.32 6 7 C5.34 6.34 4.68 5.68 4 5 C3.01 5.33 2.02 5.66 1 6 C0.67 4.02 0.34 2.04 0 0 Z " fill="#7CC9E6" transform="translate(435,73)"/>
<path d="M0 0 C1.4835001 0.42257276 2.96176424 0.86356322 4.4375 1.3125 C5.67306641 1.67794922 5.67306641 1.67794922 6.93359375 2.05078125 C7.61550781 2.36402344 8.29742187 2.67726563 9 3 C9.33 3.99 9.66 4.98 10 6 C9.34 6 8.68 6 8 6 C8 5.34 8 4.68 8 4 C5.36 3.67 2.72 3.34 0 3 C0 2.01 0 1.02 0 0 Z " fill="#83CBE7" transform="translate(156,491)"/>
<path d="M0 0 C1.5625 1.1875 1.5625 1.1875 3 3 C2.6875 5.6875 2.6875 5.6875 2 8 C0.68 7.34 -0.64 6.68 -2 6 C-1.125 1.125 -1.125 1.125 0 0 Z " fill="#F42F4B" transform="translate(505,478)"/>
<path d="M0 0 C1.12894876 0.93274109 2.25300876 1.87140122 3.375 2.8125 C4.00148438 3.33457031 4.62796875 3.85664063 5.2734375 4.39453125 C7 6 7 6 9 9 C8.01 9 7.02 9 6 9 C6 8.34 6 7.68 6 7 C5.34 7 4.68 7 4 7 C4 6.34 4 5.68 4 5 C3.01 4.67 2.02 4.34 1 4 C0.3125 1.9375 0.3125 1.9375 0 0 Z " fill="#32ACDA" transform="translate(68,427)"/>
<path d="M0 0 C3.36720387 1.39332574 4.9859524 2.9789286 7 6 C6.67 6.66 6.34 7.32 6 8 C1.3125 4.38671875 1.3125 4.38671875 0 3 C0 2.01 0 1.02 0 0 Z " fill="#35ADDA" transform="translate(56,414)"/>
<path d="M0 0 C2.56616632 3.84924948 2.55097676 6.4349304 3 11 C2.67 10.34 2.34 9.68 2 9 C1.34 9 0.68 9 0 9 C-1.10844919 5.67465243 -0.84454356 3.37817425 0 0 Z " fill="#F85167" transform="translate(507,346)"/>
<path d="M0 0 C1.485 0.99 1.485 0.99 3 2 C2.5020163 5.73487777 2.12508244 7.81237635 0 11 C-0.84098656 6.98195309 -1.05404945 3.98196457 0 0 Z " fill="#66C0E1" transform="translate(314,227)"/>
<path d="M0 0 C0 0.66 0 1.32 0 2 C0.66 2 1.32 2 2 2 C1.67 2.66 1.34 3.32 1 4 C-1.375 3.6875 -1.375 3.6875 -4 3 C-4.66 2.01 -5.32 1.02 -6 0 C-3 -1 -3 -1 0 0 Z " fill="#51B8DF" transform="translate(401,43)"/>
<path d="M0 0 C1.98 0 3.96 0 6 0 C5.67 1.32 5.34 2.64 5 4 C3.35 3.67 1.7 3.34 0 3 C0 2.01 0 1.02 0 0 Z " fill="#52B8DF" transform="translate(203,504)"/>
<path d="M0 0 C3.11373372 1.49920512 6.12228205 3.08152136 9 5 C9 5.66 9 6.32 9 7 C7.02 6.34 5.04 5.68 3 5 C3 4.34 3 3.68 3 3 C2.34 3 1.68 3 1 3 C0.67 2.01 0.34 1.02 0 0 Z " fill="#33ADDA" transform="translate(99,456)"/>
<path d="M0 0 C2.9375 0.375 2.9375 0.375 6 1 C6.33 1.66 6.66 2.32 7 3 C5.68 3 4.36 3 3 3 C2.67 3.66 2.34 4.32 2 5 C1.34 5 0.68 5 0 5 C0 3.35 0 1.7 0 0 Z " fill="#F55770" transform="translate(483,321)"/>
<path d="M0 0 C0.33 0.66 0.66 1.32 1 2 C-1.97 2.66 -4.94 3.32 -8 4 C-8 3.01 -8 2.02 -8 1 C-5.07175348 0.02391783 -3.04386724 -0.08226668 0 0 Z " fill="#F06C89" transform="translate(342,318)"/>
<path d="M0 0 C1 2 1 2 0.75 3.9375 C-0.09806644 6.26968272 -1.1450996 7.38704313 -3 9 C-3.99 8.67 -4.98 8.34 -6 8 C-4.02 5.36 -2.04 2.72 0 0 Z " fill="#71C4E3" transform="translate(352,298)"/>
<path d="M0 0 C0.66 0 1.32 0 2 0 C2 2.31 2 4.62 2 7 C1.01 7.33 0.02 7.66 -1 8 C-1.04241723 5.66705225 -1.04092937 3.33297433 -1 1 C-0.67 0.67 -0.34 0.34 0 0 Z " fill="#75C6E5" transform="translate(508,295)"/>
<path d="M0 0 C0.99 0.33 1.98 0.66 3 1 C3.33 3.97 3.66 6.94 4 10 C3.34 9.67 2.68 9.34 2 9 C1.3671875 6.93359375 1.3671875 6.93359375 0.875 4.4375 C0.70742187 3.61121094 0.53984375 2.78492188 0.3671875 1.93359375 C0.24601563 1.29550781 0.12484375 0.65742188 0 0 Z " fill="#36AEDA" transform="translate(167,245)"/>
<path d="M0 0 C-1.29299694 2.88437779 -2.65941363 4.87219421 -5 7 C-5.99 6.67 -6.98 6.34 -8 6 C-7.0479279 4.99403703 -6.08812654 3.99538437 -5.125 3 C-4.59132812 2.443125 -4.05765625 1.88625 -3.5078125 1.3125 C-2 0 -2 0 0 0 Z " fill="#36AEDA" transform="translate(134,164)"/>
<path d="M0 0 C0.66 0 1.32 0 2 0 C3.38232443 1.62626404 4.71937515 3.2925002 6 5 C3.03 4.67 0.06 4.34 -3 4 C-2.01 3.67 -1.02 3.34 0 3 C0 2.01 0 1.02 0 0 Z " fill="#F71F36" transform="translate(346,505)"/>
<path d="M0 0 C2.475 0.495 2.475 0.495 5 1 C5 1.66 5 2.32 5 3 C5.66 3.33 6.32 3.66 7 4 C6.34 4 5.68 4 5 4 C4.67 4.99 4.34 5.98 4 7 C3.67 5.68 3.34 4.36 3 3 C2.34 3 1.68 3 1 3 C0.67 2.01 0.34 1.02 0 0 Z " fill="#69C1E3" transform="translate(51,410)"/>
<path d="M0 0 C2.96404505 2.80804268 5.44499019 5.18315774 7 9 C5.1875 8.875 5.1875 8.875 3 8 C0 2.96428571 0 2.96428571 0 0 Z " fill="#32ACDA" transform="translate(48,402)"/>
<path d="M0 0 C1.79068573 2.6860286 2.66055791 4.6626589 3.625 7.6875 C3.88539063 8.49574219 4.14578125 9.30398437 4.4140625 10.13671875 C4.60742188 10.75160156 4.80078125 11.36648437 5 12 C4.34 11.67 3.68 11.34 3 11 C3 10.01 3 9.02 3 8 C2.01 7.67 1.02 7.34 0 7 C0 4.69 0 2.38 0 0 Z " fill="#62BFE2" transform="translate(161,220)"/>
<path d="M0 0 C0 3 0 3 -1.875 5.1875 C-4 7 -4 7 -6 7 C-6.33 7.66 -6.66 8.32 -7 9 C-6.82374165 6.62051228 -6.30280227 5.29774151 -4.59765625 3.62109375 C-3.09350908 2.37884514 -1.54870149 1.18623944 0 0 Z " fill="#D0EBF5" transform="translate(110,187)"/>
<path d="M0 0 C0.66 0 1.32 0 2 0 C1.52797514 4.24822374 -0.96655518 6.19989709 -4 9 C-3.35494404 5.51669784 -2.01782732 2.90567134 0 0 Z " fill="#35ADDA" transform="translate(43,115)"/>
<path d="M0 0 C0.86625 0.7115625 0.86625 0.7115625 1.75 1.4375 C3.92582084 2.9484867 5.42602448 3.54036151 8 4 C7.67 4.99 7.34 5.98 7 7 C4.625 6.3125 4.625 6.3125 2 5 C0.6875 2.375 0.6875 2.375 0 0 Z " fill="#36ADDA" transform="translate(418,59)"/>
<path d="M0 0 C2.97 0.99 5.94 1.98 9 3 C9 3.66 9 4.32 9 5 C4.545 4.01 4.545 4.01 0 3 C0 2.01 0 1.02 0 0 Z " fill="#7AC8E5" transform="translate(335,11)"/>
<path d="M0 0 C0.33 0.66 0.66 1.32 1 2 C-1.60582371 2.93065133 -2.64198224 3.14917407 -5.25 2.0625 C-5.8275 1.711875 -6.405 1.36125 -7 1 C-3.375 -1.125 -3.375 -1.125 0 0 Z " fill="#F73B51" transform="translate(336,504)"/>
<path d="M0 0 C-3 2 -3 2 -6 2 C-6 2.66 -6 3.32 -6 4 C-7.32 3.67 -8.64 3.34 -10 3 C-9.01 3 -8.02 3 -7 3 C-7 2.01 -7 1.02 -7 0 C-3.86650268 -1.04449911 -3.01031744 -0.93423645 0 0 Z " fill="#F8DBDE" transform="translate(451,460)"/>
<path d="M0 0 C0.66 0.33 1.32 0.66 2 1 C1.34 2.65 0.68 4.3 0 6 C-0.66 6 -1.32 6 -2 6 C-2.33 4.68 -2.66 3.36 -3 2 C-2.01 1.34 -1.02 0.68 0 0 Z " fill="#F82B45" transform="translate(418,438)"/>
<path d="M0 0 C0.99 0.33 1.98 0.66 3 1 C0.525 4.465 0.525 4.465 -2 8 C-2.33 6.68 -2.66 5.36 -3 4 C-2.34 3.67 -1.68 3.34 -1 3 C-0.67 2.01 -0.34 1.02 0 0 Z " fill="#34ADDA" transform="translate(376,266)"/>
<path d="M0 0 C1.32 0.33 2.64 0.66 4 1 C5.3125 3.9375 5.3125 3.9375 6 7 C5.67 7.66 5.34 8.32 5 9 C3.35 6.03 1.7 3.06 0 0 Z " fill="#57BAE0" transform="translate(221,136)"/>
<path d="M0 0 C-1.04874998 2.62187494 -1.64931313 3.79371361 -4.125 5.25 C-4.74375 5.4975 -5.3625 5.745 -6 6 C-5.6875 4.125 -5.6875 4.125 -5 2 C-2 0 -2 0 0 0 Z " fill="#35ADDA" transform="translate(62,92)"/>
<path d="M0 0 C0.33 0 0.66 0 1 0 C1.375 2.25 1.375 2.25 1 5 C-2 7.3125 -2 7.3125 -5 9 C-3.50164236 5.88802644 -1.86022073 2.91164984 0 0 Z " fill="#33ACDA" transform="translate(95,55)"/>
<path d="M0 0 C0 0.66 0 1.32 0 2 C1.32 2.33 2.64 2.66 4 3 C-0.05431692 4.15837626 -2.21812119 3.83691257 -6 2 C-2.25 0 -2.25 0 0 0 Z " fill="#36ADDA" transform="translate(329,10)"/>
<path d="M0 0 C0.66 0 1.32 0 2 0 C1.50168276 3.68754757 0.89932357 5.60490662 -2 8 C-2.66 7.67 -3.32 7.34 -4 7 C-3.34 5.68 -2.68 4.36 -2 3 C-1.34 3 -0.68 3 0 3 C0 2.01 0 1.02 0 0 Z " fill="#F3233C" transform="translate(386,466)"/>
<path d="M0 0 C0.66 0 1.32 0 2 0 C2.66 2.64 3.32 5.28 4 8 C3.01 8 2.02 8 1 8 C0.67 5.36 0.34 2.72 0 0 Z " fill="#92D1E9" transform="translate(493,158)"/>
<path d="M0 0 C0.6875 1.75 0.6875 1.75 1 4 C-0.4375 6.25 -0.4375 6.25 -2 8 C-2.66 7.67 -3.32 7.34 -4 7 C-3.34 5.35 -2.68 3.7 -2 2 C-1.34 2 -0.68 2 0 2 C0 1.34 0 0.68 0 0 Z " fill="#7CC9E6" transform="translate(42,113)"/>
<path d="M0 0 C0 0.99 0 1.98 0 3 C-0.99 3 -1.98 3 -3 3 C-3 3.66 -3 4.32 -3 5 C-4.32 4.34 -5.64 3.68 -7 3 C-2.25 0 -2.25 0 0 0 Z " fill="#69C1E3" transform="translate(188,8)"/>
</svg>
