<?xml version="1.0" encoding="UTF-8"?>
<svg version="1.1" xmlns="http://www.w3.org/2000/svg" width="640" height="443">
<path d="M0 0 C1.88283691 0.17764893 1.88283691 0.17764893 3.80371094 0.35888672 C31.06382386 3.03497375 58.60037139 8.70890645 77.33691406 30.55908203 C112.64032245 73.98045592 107.4014989 151.85428447 107.26074219 205.09838867 C107.24937567 209.43370193 107.2561233 213.76876873 107.26762009 218.10407352 C107.33319938 247.29291223 106.34677536 276.39508699 103.25 305.4375 C103.16862793 306.220112 103.08725586 307.002724 103.00341797 307.80905151 C101.71056525 320.12074447 100.01320515 332.34857379 98 344.5625 C97.88047974 345.29781952 97.76095947 346.03313904 97.63781738 346.79074097 C94.41967432 366.35838751 89.43982394 382.87350493 76 398 C75.43539062 398.63550781 74.87078125 399.27101563 74.2890625 399.92578125 C41.46193926 434.67937886 -23.31379811 429.48132048 -67.28052139 431.52723312 C-69.30697225 431.62182457 -71.33334313 431.71812445 -73.35971069 431.81448364 C-115.27891778 433.78087993 -157.22762885 434.20812362 -199.1875 434.1875 C-200.82196831 434.18732061 -200.82196831 434.18732061 -202.48945618 434.1871376 C-429.78592015 434.1557993 -429.78592015 434.1557993 -467 416 C-468.40185547 415.33871094 -468.40185547 415.33871094 -469.83203125 414.6640625 C-484.50334629 407.23606803 -495.94807551 395.66813937 -503.375 381.0625 C-503.6846167 380.455271 -503.9942334 379.84804199 -504.31323242 379.22241211 C-509.10317455 369.21915792 -511.60180756 358.37117196 -513.5 347.5 C-513.70794189 346.31494873 -513.91588379 345.12989746 -514.13012695 343.90893555 C-528.72907733 257.06775648 -528.75912516 160.39377719 -498.3828125 37.2578125 C-484.44347757 17.88315606 -465.37013436 8.01552575 -442.2890625 4.0859375 C-353.45867162 -9.68412309 -261.640629 -7.54738925 0 0 Z " fill="#FF0000" transform="translate(527,8)"/>
<path d="M0 0 C3.58559176 0.89639794 5.84605661 1.88238287 9.015625 3.66796875 C10.00691406 4.22419922 10.99820312 4.78042969 12.01953125 5.35351562 C13.08558594 5.95873047 14.15164063 6.56394531 15.25 7.1875 C16.36246094 7.81462891 17.47492188 8.44175781 18.62109375 9.08789062 C27.11587346 13.89200051 35.54842464 18.79989878 43.96459961 23.74023438 C51.19915255 27.97740403 58.48919799 32.10585168 65.8125 36.1875 C75.40417807 41.53352457 84.9316946 46.97608118 94.42089844 52.50146484 C99.4610026 55.42991613 104.51259037 58.33850197 109.5625 61.25 C111.77735836 62.52731842 113.99220196 63.80466242 116.20703125 65.08203125 C117.32158691 65.72479004 118.43614258 66.36754883 119.58447266 67.02978516 C123.03983988 69.02298126 126.49462513 71.01718232 129.94921875 73.01171875 C140.95306937 79.36415866 151.95710984 85.7155916 163 92 C163 92.99 163 93.98 163 95 C162.42894531 95.32049316 161.85789062 95.64098633 161.26953125 95.97119141 C150.12958935 102.22966035 139.02403654 108.53922887 128 115 C119.30281256 120.09575543 110.55875175 125.09839897 101.77416992 130.04174805 C93.49860419 134.70398919 85.27008873 139.44516592 77.04785156 144.20068359 C69.59470961 148.50922129 62.12574063 152.78883463 54.64682007 157.05236816 C43.20541319 163.57522539 31.80413521 170.16398272 20.4375 176.81640625 C19.55964844 177.3283252 18.68179687 177.84024414 17.77734375 178.36767578 C15.76240075 179.55191531 13.75560139 180.75004592 11.75390625 181.95654297 C10.14322266 182.91971436 10.14322266 182.91971436 8.5 183.90234375 C7.5203125 184.49394287 6.540625 185.08554199 5.53125 185.69506836 C3 187 3 187 0 187 C0 125.29 0 63.58 0 0 Z " fill="#FFFCFC" transform="translate(258,128)"/>
</svg>
