<?xml version="1.0" encoding="UTF-8"?>
<svg version="1.1" xmlns="http://www.w3.org/2000/svg" width="300" height="300">
<path d="M0 0 C0.70487549 0.00054382 1.40975098 0.00108765 2.13598633 0.00164795 C13.63735004 0.04236593 24.47792364 0.91016547 35.5 4.375 C36.18900391 4.58930664 36.87800781 4.80361328 37.58789062 5.02441406 C68.48984542 14.97270035 94.60896687 36.75833852 109.734375 65.51953125 C114.53348217 75.07676545 118.07998872 84.95791943 120.5 95.375 C120.68546387 96.1700293 120.87092773 96.96505859 121.06201172 97.78417969 C122.72770678 105.78724267 122.89868705 113.7237837 122.875 121.875 C122.87445618 122.57987549 122.87391235 123.28475098 122.87335205 124.01098633 C122.83263407 135.51235004 121.96483453 146.35292364 118.5 157.375 C118.28569336 158.06400391 118.07138672 158.75300781 117.85058594 159.46289062 C107.90229965 190.36484542 86.11666148 216.48396687 57.35546875 231.609375 C47.79823455 236.40848217 37.91708057 239.95498872 27.5 242.375 C26.7049707 242.56046387 25.90994141 242.74592773 25.09082031 242.93701172 C17.08775733 244.60270678 9.1512163 244.77368705 1 244.75 C0.29512451 244.74945618 -0.40975098 244.74891235 -1.13598633 244.74835205 C-12.63735004 244.70763407 -23.47792364 243.83983453 -34.5 240.375 C-35.18900391 240.16069336 -35.87800781 239.94638672 -36.58789062 239.72558594 C-67.48984542 229.77729965 -93.60896687 207.99166148 -108.734375 179.23046875 C-113.53348217 169.67323455 -117.07998872 159.79208057 -119.5 149.375 C-119.68546387 148.5799707 -119.87092773 147.78494141 -120.06201172 146.96582031 C-121.72770678 138.96275733 -121.89868705 131.0262163 -121.875 122.875 C-121.87445618 122.17012451 -121.87391235 121.46524902 -121.87335205 120.73901367 C-121.83263407 109.23764996 -120.96483453 98.39707636 -117.5 87.375 C-117.28569336 86.68599609 -117.07138672 85.99699219 -116.85058594 85.28710938 C-106.90229965 54.38515458 -85.11666148 28.26603313 -56.35546875 13.140625 C-46.79823455 8.34151783 -36.91708057 4.79501128 -26.5 2.375 C-25.30745605 2.0968042 -25.30745605 2.0968042 -24.09082031 1.81298828 C-16.08775733 0.14729322 -8.1512163 -0.02368705 0 0 Z " fill="#F9061B" transform="translate(148.5,26.625)"/>
<path d="M0 0 C0.75925781 0.59296875 1.51851563 1.1859375 2.30078125 1.796875 C3.33138672 2.56257813 3.33138672 2.56257813 4.3828125 3.34375 C16.00030201 12.60107892 24.58969586 28.04780098 26.30078125 42.796875 C27.45020947 61.28555027 23.78694942 77.13526509 12.30078125 91.796875 C11.75550781 92.50714844 11.21023437 93.21742188 10.6484375 93.94921875 C1.04553697 105.72124505 -14.00992185 113.48596045 -29.01171875 115.484375 C-30.57235342 115.61351202 -32.13538077 115.7152189 -33.69921875 115.796875 C-35.1996875 115.87615234 -35.1996875 115.87615234 -36.73046875 115.95703125 C-53.66298532 116.42065968 -68.50627745 110.23653542 -81.234375 99.171875 C-93.22806984 87.61535129 -100.82612723 72.51790049 -101.69921875 55.796875 C-101.77849609 54.29640625 -101.77849609 54.29640625 -101.859375 52.765625 C-102.30651061 36.43545474 -96.53211492 21.51419619 -85.91015625 9.1015625 C-63.10428521 -14.67134195 -27.12200997 -20.24417969 0 0 Z " fill="#F9081C" transform="translate(186.69921875,97.203125)"/>
<path d="M0 0 C0.75925781 0.59296875 1.51851563 1.1859375 2.30078125 1.796875 C3.33138672 2.56257813 3.33138672 2.56257813 4.3828125 3.34375 C16.00030201 12.60107892 24.58969586 28.04780098 26.30078125 42.796875 C27.45020947 61.28555027 23.78694942 77.13526509 12.30078125 91.796875 C11.75550781 92.50714844 11.21023437 93.21742188 10.6484375 93.94921875 C1.04553697 105.72124505 -14.00992185 113.48596045 -29.01171875 115.484375 C-30.57235342 115.61351202 -32.13538077 115.7152189 -33.69921875 115.796875 C-35.1996875 115.87615234 -35.1996875 115.87615234 -36.73046875 115.95703125 C-53.66298532 116.42065968 -68.50627745 110.23653542 -81.234375 99.171875 C-93.22806984 87.61535129 -100.82612723 72.51790049 -101.69921875 55.796875 C-101.77849609 54.29640625 -101.77849609 54.29640625 -101.859375 52.765625 C-102.30651061 36.43545474 -96.53211492 21.51419619 -85.91015625 9.1015625 C-63.10428521 -14.67134195 -27.12200997 -20.24417969 0 0 Z M-81.69921875 12.796875 C-90.16990077 24.0774277 -96.14053025 35.86929646 -95.94921875 50.171875 C-95.94172607 50.91719482 -95.9342334 51.66251465 -95.92651367 52.43041992 C-95.61569995 68.399994 -89.75828783 82.22475632 -78.69921875 93.796875 C-66.03412556 105.22923246 -52.14587394 110.51530442 -35.21875 110.10546875 C-19.92680635 109.31444956 -5.1339872 103.24145975 5.30078125 91.796875 C17.28793124 76.89393177 21.87656579 60.89555971 20.30078125 41.796875 C17.52727306 26.50916421 8.73003665 13.08119188 -3.82421875 4.109375 C-28.18120381 -12.57324914 -61.76017356 -9.62107851 -81.69921875 12.796875 Z " fill="#FEF2F3" transform="translate(186.69921875,97.203125)"/>
<path d="M0 0 C4.30062412 1.43354137 7.42137217 2.63097024 11.24609375 4.80078125 C12.23810791 5.36007324 13.23012207 5.91936523 14.25219727 6.49560547 C15.30334717 7.09518066 16.35449707 7.69475586 17.4375 8.3125 C18.52538818 8.92754395 19.61327637 9.54258789 20.73413086 10.17626953 C23.00858516 11.4627798 25.28175966 12.75155504 27.55371094 14.04248047 C30.95195201 15.97270836 34.35412391 17.89580312 37.7578125 19.81640625 C43.17442814 22.8731044 48.58826927 25.93466256 54 29 C51.70703923 31.49226843 49.31380796 33.16019705 46.4140625 34.8984375 C45.49286621 35.45426514 44.57166992 36.01009277 43.62255859 36.58276367 C42.63336426 37.17420166 41.64416992 37.76563965 40.625 38.375 C38.54643204 39.62817182 36.46831753 40.88209603 34.390625 42.13671875 C33.33166016 42.77528809 32.27269531 43.41385742 31.18164062 44.07177734 C25.34071694 47.6116496 19.54243545 51.22010868 13.74072266 54.82373047 C12.16231907 55.8036339 10.58312902 56.78227238 9.00292969 57.75927734 C7.34394753 58.78694036 5.69073206 59.82390608 4.0390625 60.86328125 C2 62 2 62 0 62 C0 41.54 0 21.08 0 0 Z " fill="#FEFCFD" transform="translate(127,118)"/>
</svg>
